<?xml version="1.0" encoding="UTF-8" standalone="no"?><svg xmlns="http://www.w3.org/2000/svg" xmlns:xlink="http://www.w3.org/1999/xlink" contentStyleType="text/css" height="1395px" preserveAspectRatio="none" style="width:2451px;height:1395px;background:#FFFFFF;" version="1.1" viewBox="0 0 2451 1395" width="2451px" zoomAndPan="magnify"><defs/><g><rect fill="#FFFFFF" height="1203.1953" style="stroke:#181818;stroke-width:1.0;" width="10" x="42.5" y="92.6094"/><rect fill="#FFFFFF" height="30.3516" style="stroke:#181818;stroke-width:1.0;" width="10" x="244.5" y="114.9609"/><rect fill="#FFFFFF" height="960.7344" style="stroke:#181818;stroke-width:1.0;" width="10" x="244.5" y="335.0703"/><rect fill="#FFFFFF" height="140.0547" style="stroke:#181818;stroke-width:1.0;" width="10" x="472.5" y="145.3125"/><rect fill="#FFFFFF" height="90.7031" style="stroke:#181818;stroke-width:1.0;" width="10" x="472.5" y="335.0703"/><rect fill="#FFFFFF" height="90.3516" style="stroke:#181818;stroke-width:1.0;" width="10" x="472.5" y="730.75"/><rect fill="#FFFFFF" height="407" style="stroke:#181818;stroke-width:1.0;" width="10" x="472.5" y="858.4531"/><rect fill="#FFFFFF" height="95.7031" style="stroke:#181818;stroke-width:1.0;" width="10" x="477.5" y="982.5078"/><rect fill="#FFFFFF" height="95.7031" style="stroke:#181818;stroke-width:1.0;" width="10" x="477.5" y="1132.3984"/><rect fill="#FFFFFF" height="30" style="stroke:#181818;stroke-width:1.0;" width="10" x="660.5" y="175.6641"/><rect fill="#FFFFFF" height="30" style="stroke:#181818;stroke-width:1.0;" width="10" x="772" y="255.3672"/><rect fill="#FFFFFF" height="30" style="stroke:#181818;stroke-width:1.0;" width="10" x="772" y="365.4219"/><rect fill="#FFFFFF" height="274.625" style="stroke:#181818;stroke-width:1.0;" width="10" x="914" y="425.7734"/><rect fill="#FFFFFF" height="35.3516" style="stroke:#181818;stroke-width:1.0;" width="10" x="919" y="592.4375"/><rect fill="#FFFFFF" height="30" style="stroke:#181818;stroke-width:1.0;" width="10" x="1078.5" y="524.0859"/><rect fill="#FFFFFF" height="188.0547" style="stroke:#181818;stroke-width:1.0;" width="10" x="1288.5" y="670.3984"/><rect fill="#FFFFFF" height="30" style="stroke:#181818;stroke-width:1.0;" width="10" x="1640.5" y="730.75"/><rect fill="#FFFFFF" height="30" style="stroke:#181818;stroke-width:1.0;" width="10" x="1734.5" y="791.1016"/><rect fill="#FFFFFF" height="30" style="stroke:#181818;stroke-width:1.0;" width="10" x="1843.5" y="888.8047"/><rect fill="#FFFFFF" height="60.3516" style="stroke:#181818;stroke-width:1.0;" width="10" x="1966.5" y="1017.8594"/><rect fill="#FFFFFF" height="60.3516" style="stroke:#181818;stroke-width:1.0;" width="10" x="2077" y="1167.75"/><rect fill="#FFFFFF" height="30" style="stroke:#181818;stroke-width:1.0;" width="10" x="2365" y="1048.2109"/><rect fill="#FFFFFF" height="30" style="stroke:#181818;stroke-width:1.0;" width="10" x="2365" y="1198.1016"/><rect height="345.7188" style="stroke:#000000;stroke-width:1.5;fill:none;" width="1395.5" x="391" y="483.3828"/><rect height="302.2969" style="stroke:#000000;stroke-width:1.5;fill:none;" width="2053.5" x="391" y="933.8047"/><line style="stroke:#181818;stroke-width:0.5;fill:none;stroke-dasharray:5.0,5.0;" x1="47" x2="47" y1="82.6094" y2="1313.8047"/><line style="stroke:#181818;stroke-width:0.5;fill:none;stroke-dasharray:5.0,5.0;" x1="249" x2="249" y1="82.6094" y2="1313.8047"/><line style="stroke:#181818;stroke-width:0.5;fill:none;stroke-dasharray:5.0,5.0;" x1="477" x2="477" y1="82.6094" y2="1313.8047"/><line style="stroke:#181818;stroke-width:0.5;fill:none;stroke-dasharray:5.0,5.0;" x1="665.5" x2="665.5" y1="82.6094" y2="1313.8047"/><line style="stroke:#181818;stroke-width:0.5;fill:none;stroke-dasharray:5.0,5.0;" x1="776.5" x2="776.5" y1="82.6094" y2="1313.8047"/><line style="stroke:#181818;stroke-width:0.5;fill:none;stroke-dasharray:5.0,5.0;" x1="918.5" x2="918.5" y1="82.6094" y2="1313.8047"/><line style="stroke:#181818;stroke-width:0.5;fill:none;stroke-dasharray:5.0,5.0;" x1="1083.5" x2="1083.5" y1="82.6094" y2="1313.8047"/><line style="stroke:#181818;stroke-width:0.5;fill:none;stroke-dasharray:5.0,5.0;" x1="1293.5" x2="1293.5" y1="465.0781" y2="1313.8047"/><line style="stroke:#181818;stroke-width:0.5;fill:none;stroke-dasharray:5.0,5.0;" x1="1503.5" x2="1503.5" y1="636.7422" y2="1313.8047"/><line style="stroke:#181818;stroke-width:0.5;fill:none;stroke-dasharray:5.0,5.0;" x1="1645.5" x2="1645.5" y1="82.6094" y2="1313.8047"/><line style="stroke:#181818;stroke-width:0.5;fill:none;stroke-dasharray:5.0,5.0;" x1="1739.5" x2="1739.5" y1="82.6094" y2="1313.8047"/><line style="stroke:#181818;stroke-width:0.5;fill:none;stroke-dasharray:5.0,5.0;" x1="1848.5" x2="1848.5" y1="82.6094" y2="1313.8047"/><line style="stroke:#181818;stroke-width:0.5;fill:none;stroke-dasharray:5.0,5.0;" x1="1971.5" x2="1971.5" y1="82.6094" y2="1313.8047"/><line style="stroke:#181818;stroke-width:0.5;fill:none;stroke-dasharray:5.0,5.0;" x1="2081.5" x2="2081.5" y1="82.6094" y2="1313.8047"/><line style="stroke:#181818;stroke-width:0.5;fill:none;stroke-dasharray:5.0,5.0;" x1="2369.5" x2="2369.5" y1="82.6094" y2="1313.8047"/><text fill="#000000" font-family="sans-serif" font-size="14" lengthAdjust="spacing" textLength="79" x="5" y="79.5332">:Coordinator</text><ellipse cx="47.5" cy="13.5" fill="#E2E2F0" rx="8" ry="8" style="stroke:#181818;stroke-width:0.5;"/><path d="M47.5,21.5 L47.5,48.5 M34.5,29.5 L60.5,29.5 M47.5,48.5 L34.5,63.5 M47.5,48.5 L60.5,63.5 " fill="none" style="stroke:#181818;stroke-width:0.5;"/><text fill="#000000" font-family="sans-serif" font-size="14" lengthAdjust="spacing" textLength="79" x="5" y="1327.3379">:Coordinator</text><ellipse cx="47.5" cy="1338.9141" fill="#E2E2F0" rx="8" ry="8" style="stroke:#181818;stroke-width:0.5;"/><path d="M47.5,1346.9141 L47.5,1373.9141 M34.5,1354.9141 L60.5,1354.9141 M47.5,1373.9141 L34.5,1388.9141 M47.5,1373.9141 L60.5,1388.9141 " fill="none" style="stroke:#181818;stroke-width:0.5;"/><rect fill="#E2E2F0" height="31.6094" rx="2.5" ry="2.5" style="stroke:#181818;stroke-width:0.5;" width="103" x="198" y="50"/><text fill="#000000" font-family="sans-serif" font-size="14" lengthAdjust="spacing" textLength="89" x="205" y="71.5332">:CenterDataUI</text><rect fill="#E2E2F0" height="31.6094" rx="2.5" ry="2.5" style="stroke:#181818;stroke-width:0.5;" width="103" x="198" y="1312.8047"/><text fill="#000000" font-family="sans-serif" font-size="14" lengthAdjust="spacing" textLength="89" x="205" y="1334.3379">:CenterDataUI</text><rect fill="#E2E2F0" height="31.6094" rx="2.5" ry="2.5" style="stroke:#181818;stroke-width:0.5;" width="153" x="401" y="50"/><text fill="#000000" font-family="sans-serif" font-size="14" lengthAdjust="spacing" textLength="139" x="408" y="71.5332">:CenterDataController</text><rect fill="#E2E2F0" height="31.6094" rx="2.5" ry="2.5" style="stroke:#181818;stroke-width:0.5;" width="153" x="401" y="1312.8047"/><text fill="#000000" font-family="sans-serif" font-size="14" lengthAdjust="spacing" textLength="139" x="408" y="1334.3379">:CenterDataController</text><rect fill="#E2E2F0" height="31.6094" rx="2.5" ry="2.5" style="stroke:#181818;stroke-width:0.5;" width="78" x="626.5" y="50"/><text fill="#000000" font-family="sans-serif" font-size="14" lengthAdjust="spacing" textLength="64" x="633.5" y="71.5332">:Company</text><rect fill="#E2E2F0" height="31.6094" rx="2.5" ry="2.5" style="stroke:#181818;stroke-width:0.5;" width="78" x="626.5" y="1312.8047"/><text fill="#000000" font-family="sans-serif" font-size="14" lengthAdjust="spacing" textLength="64" x="633.5" y="1334.3379">:Company</text><rect fill="#E2E2F0" height="31.6094" rx="2.5" ry="2.5" style="stroke:#181818;stroke-width:0.5;" width="125" x="714.5" y="50"/><text fill="#000000" font-family="sans-serif" font-size="14" lengthAdjust="spacing" textLength="111" x="721.5" y="71.5332">:CenterDataStore</text><rect fill="#E2E2F0" height="31.6094" rx="2.5" ry="2.5" style="stroke:#181818;stroke-width:0.5;" width="125" x="714.5" y="1312.8047"/><text fill="#000000" font-family="sans-serif" font-size="14" lengthAdjust="spacing" textLength="111" x="721.5" y="1334.3379">:CenterDataStore</text><rect fill="#E2E2F0" height="31.6094" rx="2.5" ry="2.5" style="stroke:#181818;stroke-width:0.5;" width="139" x="849.5" y="50"/><text fill="#000000" font-family="sans-serif" font-size="14" lengthAdjust="spacing" textLength="125" x="856.5" y="71.5332">:CenterDataMapper</text><rect fill="#E2E2F0" height="31.6094" rx="2.5" ry="2.5" style="stroke:#181818;stroke-width:0.5;" width="139" x="849.5" y="1312.8047"/><text fill="#000000" font-family="sans-serif" font-size="14" lengthAdjust="spacing" textLength="125" x="856.5" y="1334.3379">:CenterDataMapper</text><rect fill="#E2E2F0" height="31.6094" rx="2.5" ry="2.5" style="stroke:#181818;stroke-width:0.5;" width="170" x="998.5" y="50"/><text fill="#000000" font-family="sans-serif" font-size="14" lengthAdjust="spacing" textLength="156" x="1005.5" y="71.5332">cdList: List&lt;CenterData&gt;</text><rect fill="#E2E2F0" height="31.6094" rx="2.5" ry="2.5" style="stroke:#181818;stroke-width:0.5;" width="170" x="998.5" y="1312.8047"/><text fill="#000000" font-family="sans-serif" font-size="14" lengthAdjust="spacing" textLength="156" x="1005.5" y="1334.3379">cdList: List&lt;CenterData&gt;</text><rect fill="#E2E2F0" height="31.6094" rx="2.5" ry="2.5" style="stroke:#181818;stroke-width:0.5;" width="230" x="1178.5" y="1312.8047"/><text fill="#000000" font-family="sans-serif" font-size="14" lengthAdjust="spacing" textLength="216" x="1185.5" y="1334.3379">cdListDTO: List&lt;CenterDataDTO&gt;</text><rect fill="#E2E2F0" height="31.6094" rx="2.5" ry="2.5" style="stroke:#181818;stroke-width:0.5;" width="170" x="1418.5" y="1312.8047"/><text fill="#000000" font-family="sans-serif" font-size="14" lengthAdjust="spacing" textLength="156" x="1425.5" y="1334.3379">cdDTO: CenterDataDTO</text><rect fill="#E2E2F0" height="31.6094" rx="2.5" ry="2.5" style="stroke:#181818;stroke-width:0.5;" width="94" x="1598.5" y="50"/><text fill="#000000" font-family="sans-serif" font-size="14" lengthAdjust="spacing" textLength="80" x="1605.5" y="71.5332">:NewVaccine</text><rect fill="#E2E2F0" height="31.6094" rx="2.5" ry="2.5" style="stroke:#181818;stroke-width:0.5;" width="94" x="1598.5" y="1312.8047"/><text fill="#000000" font-family="sans-serif" font-size="14" lengthAdjust="spacing" textLength="80" x="1605.5" y="1334.3379">:NewVaccine</text><rect fill="#E2E2F0" height="31.6094" rx="2.5" ry="2.5" style="stroke:#181818;stroke-width:0.5;" width="74" x="1702.5" y="50"/><text fill="#000000" font-family="sans-serif" font-size="14" lengthAdjust="spacing" textLength="60" x="1709.5" y="71.5332">:SNSUser</text><rect fill="#E2E2F0" height="31.6094" rx="2.5" ry="2.5" style="stroke:#181818;stroke-width:0.5;" width="74" x="1702.5" y="1312.8047"/><text fill="#000000" font-family="sans-serif" font-size="14" lengthAdjust="spacing" textLength="60" x="1709.5" y="1334.3379">:SNSUser</text><rect fill="#E2E2F0" height="31.6094" rx="2.5" ry="2.5" style="stroke:#181818;stroke-width:0.5;" width="124" x="1786.5" y="50"/><text fill="#000000" font-family="sans-serif" font-size="14" lengthAdjust="spacing" textLength="110" x="1793.5" y="71.5332">:PropertiesCache</text><rect fill="#E2E2F0" height="31.6094" rx="2.5" ry="2.5" style="stroke:#181818;stroke-width:0.5;" width="124" x="1786.5" y="1312.8047"/><text fill="#000000" font-family="sans-serif" font-size="14" lengthAdjust="spacing" textLength="110" x="1793.5" y="1334.3379">:PropertiesCache</text><rect fill="#E2E2F0" height="31.6094" rx="2.5" ry="2.5" style="stroke:#181818;stroke-width:0.5;" width="102" x="1920.5" y="50"/><text fill="#000000" font-family="sans-serif" font-size="14" lengthAdjust="spacing" textLength="88" x="1927.5" y="71.5332">:SelectionSort</text><rect fill="#E2E2F0" height="31.6094" rx="2.5" ry="2.5" style="stroke:#181818;stroke-width:0.5;" width="102" x="1920.5" y="1312.8047"/><text fill="#000000" font-family="sans-serif" font-size="14" lengthAdjust="spacing" textLength="88" x="1927.5" y="1334.3379">:SelectionSort</text><rect fill="#E2E2F0" height="31.6094" rx="2.5" ry="2.5" style="stroke:#181818;stroke-width:0.5;" width="99" x="2032.5" y="50"/><text fill="#000000" font-family="sans-serif" font-size="14" lengthAdjust="spacing" textLength="85" x="2039.5" y="71.5332">:PancakeSort</text><rect fill="#E2E2F0" height="31.6094" rx="2.5" ry="2.5" style="stroke:#181818;stroke-width:0.5;" width="99" x="2032.5" y="1312.8047"/><text fill="#000000" font-family="sans-serif" font-size="14" lengthAdjust="spacing" textLength="85" x="2039.5" y="1334.3379">:PancakeSort</text><rect fill="#E2E2F0" height="31.6094" rx="2.5" ry="2.5" style="stroke:#181818;stroke-width:0.5;" width="129" x="2305.5" y="50"/><text fill="#000000" font-family="sans-serif" font-size="14" lengthAdjust="spacing" textLength="115" x="2312.5" y="71.5332">:CompareInstance</text><rect fill="#E2E2F0" height="31.6094" rx="2.5" ry="2.5" style="stroke:#181818;stroke-width:0.5;" width="129" x="2305.5" y="1312.8047"/><text fill="#000000" font-family="sans-serif" font-size="14" lengthAdjust="spacing" textLength="115" x="2312.5" y="1334.3379">:CompareInstance</text><rect fill="#FFFFFF" height="1203.1953" style="stroke:#181818;stroke-width:1.0;" width="10" x="42.5" y="92.6094"/><rect fill="#FFFFFF" height="30.3516" style="stroke:#181818;stroke-width:1.0;" width="10" x="244.5" y="114.9609"/><rect fill="#FFFFFF" height="960.7344" style="stroke:#181818;stroke-width:1.0;" width="10" x="244.5" y="335.0703"/><rect fill="#FFFFFF" height="140.0547" style="stroke:#181818;stroke-width:1.0;" width="10" x="472.5" y="145.3125"/><rect fill="#FFFFFF" height="90.7031" style="stroke:#181818;stroke-width:1.0;" width="10" x="472.5" y="335.0703"/><rect fill="#FFFFFF" height="90.3516" style="stroke:#181818;stroke-width:1.0;" width="10" x="472.5" y="730.75"/><rect fill="#FFFFFF" height="407" style="stroke:#181818;stroke-width:1.0;" width="10" x="472.5" y="858.4531"/><rect fill="#FFFFFF" height="95.7031" style="stroke:#181818;stroke-width:1.0;" width="10" x="477.5" y="982.5078"/><rect fill="#FFFFFF" height="95.7031" style="stroke:#181818;stroke-width:1.0;" width="10" x="477.5" y="1132.3984"/><rect fill="#FFFFFF" height="30" style="stroke:#181818;stroke-width:1.0;" width="10" x="660.5" y="175.6641"/><rect fill="#FFFFFF" height="30" style="stroke:#181818;stroke-width:1.0;" width="10" x="772" y="255.3672"/><rect fill="#FFFFFF" height="30" style="stroke:#181818;stroke-width:1.0;" width="10" x="772" y="365.4219"/><rect fill="#FFFFFF" height="274.625" style="stroke:#181818;stroke-width:1.0;" width="10" x="914" y="425.7734"/><rect fill="#FFFFFF" height="35.3516" style="stroke:#181818;stroke-width:1.0;" width="10" x="919" y="592.4375"/><rect fill="#FFFFFF" height="30" style="stroke:#181818;stroke-width:1.0;" width="10" x="1078.5" y="524.0859"/><rect fill="#FFFFFF" height="188.0547" style="stroke:#181818;stroke-width:1.0;" width="10" x="1288.5" y="670.3984"/><rect fill="#FFFFFF" height="30" style="stroke:#181818;stroke-width:1.0;" width="10" x="1640.5" y="730.75"/><rect fill="#FFFFFF" height="30" style="stroke:#181818;stroke-width:1.0;" width="10" x="1734.5" y="791.1016"/><rect fill="#FFFFFF" height="30" style="stroke:#181818;stroke-width:1.0;" width="10" x="1843.5" y="888.8047"/><rect fill="#FFFFFF" height="60.3516" style="stroke:#181818;stroke-width:1.0;" width="10" x="1966.5" y="1017.8594"/><rect fill="#FFFFFF" height="60.3516" style="stroke:#181818;stroke-width:1.0;" width="10" x="2077" y="1167.75"/><rect fill="#FFFFFF" height="30" style="stroke:#181818;stroke-width:1.0;" width="10" x="2365" y="1048.2109"/><rect fill="#FFFFFF" height="30" style="stroke:#181818;stroke-width:1.0;" width="10" x="2365" y="1198.1016"/><polygon fill="#181818" points="232.5,110.9609,242.5,114.9609,232.5,118.9609,236.5,114.9609" style="stroke:#181818;stroke-width:1.0;"/><line style="stroke:#181818;stroke-width:1.0;" x1="52.5" x2="238.5" y1="114.9609" y2="114.9609"/><text fill="#000000" font-family="sans-serif" font-size="13" font-weight="bold" lengthAdjust="spacing" textLength="7" x="59.5" y="110.1045">1</text><text fill="#000000" font-family="sans-serif" font-size="13" lengthAdjust="spacing" textLength="162" x="70.5" y="110.1045">requests to view center data</text><polygon fill="#181818" points="460.5,141.3125,470.5,145.3125,460.5,149.3125,464.5,145.3125" style="stroke:#181818;stroke-width:1.0;"/><line style="stroke:#181818;stroke-width:1.0;" x1="249.5" x2="466.5" y1="145.3125" y2="145.3125"/><text fill="#000000" font-family="sans-serif" font-size="13" font-weight="bold" lengthAdjust="spacing" textLength="7" x="256.5" y="140.4561">2</text><text fill="#000000" font-family="sans-serif" font-size="13" lengthAdjust="spacing" textLength="77" x="267.5" y="140.4561">isListEmpty()</text><polygon fill="#181818" points="648.5,171.6641,658.5,175.6641,648.5,179.6641,652.5,175.6641" style="stroke:#181818;stroke-width:1.0;"/><line style="stroke:#181818;stroke-width:1.0;" x1="482.5" x2="654.5" y1="175.6641" y2="175.6641"/><text fill="#000000" font-family="sans-serif" font-size="13" font-weight="bold" lengthAdjust="spacing" textLength="7" x="489.5" y="170.8076">3</text><text fill="#000000" font-family="sans-serif" font-size="13" lengthAdjust="spacing" textLength="122" x="500.5" y="170.8076">getCenterDataStore()</text><polygon fill="#181818" points="760,251.3672,770,255.3672,760,259.3672,764,255.3672" style="stroke:#181818;stroke-width:1.0;"/><line style="stroke:#181818;stroke-width:1.0;" x1="482.5" x2="766" y1="255.3672" y2="255.3672"/><text fill="#000000" font-family="sans-serif" font-size="13" font-weight="bold" lengthAdjust="spacing" textLength="7" x="489.5" y="250.5107">4</text><text fill="#000000" font-family="sans-serif" font-size="13" lengthAdjust="spacing" textLength="56" x="500.5" y="250.5107">isEmpty()</text><path d="M257,218.6641 L257,277.6641 L467,277.6641 L467,228.6641 L457,218.6641 L257,218.6641 " fill="#FEFFDD" style="stroke:#181818;stroke-width:0.5;"/><path d="M457,218.6641 L457,228.6641 L467,228.6641 L457,218.6641 " fill="#FEFFDD" style="stroke:#181818;stroke-width:0.5;"/><text fill="#000000" font-family="sans-serif" font-size="13" lengthAdjust="spacing" textLength="179" x="263" y="237.1592">chooses type sorting and order</text><text fill="#000000" font-family="sans-serif" font-size="13" lengthAdjust="spacing" textLength="189" x="263" y="253.5107">This steps are ommited because</text><text fill="#000000" font-family="sans-serif" font-size="13" lengthAdjust="spacing" textLength="176" x="263" y="269.8623">they are the same as the SSD</text><polygon fill="#181818" points="460.5,331.0703,470.5,335.0703,460.5,339.0703,464.5,335.0703" style="stroke:#181818;stroke-width:1.0;"/><line style="stroke:#181818;stroke-width:1.0;" x1="254.5" x2="466.5" y1="335.0703" y2="335.0703"/><text fill="#000000" font-family="sans-serif" font-size="13" font-weight="bold" lengthAdjust="spacing" textLength="7" x="261.5" y="330.2139">5</text><text fill="#000000" font-family="sans-serif" font-size="13" lengthAdjust="spacing" textLength="147" x="272.5" y="330.2139">getSortedList(order, type)</text><polygon fill="#181818" points="760,361.4219,770,365.4219,760,369.4219,764,365.4219" style="stroke:#181818;stroke-width:1.0;"/><line style="stroke:#181818;stroke-width:1.0;" x1="482.5" x2="766" y1="365.4219" y2="365.4219"/><text fill="#000000" font-family="sans-serif" font-size="13" font-weight="bold" lengthAdjust="spacing" textLength="7" x="489.5" y="360.5654">6</text><text fill="#000000" font-family="sans-serif" font-size="13" lengthAdjust="spacing" textLength="98" x="500.5" y="360.5654">cdList = getList()</text><polygon fill="#181818" points="902,421.7734,912,425.7734,902,429.7734,906,425.7734" style="stroke:#181818;stroke-width:1.0;"/><line style="stroke:#181818;stroke-width:1.0;" x1="477.5" x2="908" y1="425.7734" y2="425.7734"/><text fill="#000000" font-family="sans-serif" font-size="13" font-weight="bold" lengthAdjust="spacing" textLength="7" x="484.5" y="420.917">7</text><text fill="#000000" font-family="sans-serif" font-size="13" lengthAdjust="spacing" textLength="80" x="495.5" y="420.917">toDTO(cdList)</text><polygon fill="#181818" points="1166.5,452.125,1176.5,456.125,1166.5,460.125,1170.5,456.125" style="stroke:#181818;stroke-width:1.0;"/><line style="stroke:#181818;stroke-width:1.0;stroke-dasharray:2.0,2.0;" x1="924" x2="1172.5" y1="456.125" y2="456.125"/><text fill="#000000" font-family="sans-serif" font-size="13" font-weight="bold" lengthAdjust="spacing" textLength="7" x="931" y="451.2686">8</text><text fill="#000000" font-family="sans-serif" font-size="13" lengthAdjust="spacing" textLength="121" x="942" y="451.2686">cdListDTO = create()</text><rect fill="#E2E2F0" height="31.6094" rx="2.5" ry="2.5" style="stroke:#181818;stroke-width:0.5;" width="230" x="1178.5" y="433.7734"/><text fill="#000000" font-family="sans-serif" font-size="14" lengthAdjust="spacing" textLength="216" x="1185.5" y="455.3066">cdListDTO: List&lt;CenterDataDTO&gt;</text><path d="M391,483.3828 L464,483.3828 L464,491.7344 L454,501.7344 L391,501.7344 L391,483.3828 " fill="#EEEEEE" style="stroke:#000000;stroke-width:1.5;"/><rect fill="none" height="345.7188" style="stroke:#000000;stroke-width:1.5;" width="1395.5" x="391" y="483.3828"/><text fill="#000000" font-family="sans-serif" font-size="13" font-weight="bold" lengthAdjust="spacing" textLength="28" x="406" y="497.8779">loop</text><text fill="#000000" font-family="sans-serif" font-size="11" font-weight="bold" lengthAdjust="spacing" textLength="140" x="479" y="496.8018">[for each object in cdList]</text><polygon fill="#181818" points="1066.5,520.0859,1076.5,524.0859,1066.5,528.0859,1070.5,524.0859" style="stroke:#181818;stroke-width:1.0;"/><line style="stroke:#181818;stroke-width:1.0;" x1="924" x2="1072.5" y1="524.0859" y2="524.0859"/><text fill="#000000" font-family="sans-serif" font-size="13" font-weight="bold" lengthAdjust="spacing" textLength="7" x="931" y="519.2295">9</text><text fill="#000000" font-family="sans-serif" font-size="13" lengthAdjust="spacing" textLength="59" x="942" y="519.2295">cd = get(i)</text><line style="stroke:#181818;stroke-width:1.0;" x1="924" x2="971" y1="579.4375" y2="579.4375"/><line style="stroke:#181818;stroke-width:1.0;" x1="971" x2="971" y1="579.4375" y2="592.4375"/><line style="stroke:#181818;stroke-width:1.0;" x1="930" x2="971" y1="592.4375" y2="592.4375"/><polygon fill="#181818" points="940,588.4375,930,592.4375,940,596.4375,936,592.4375" style="stroke:#181818;stroke-width:1.0;"/><text fill="#000000" font-family="sans-serif" font-size="13" font-weight="bold" lengthAdjust="spacing" textLength="14" x="936" y="574.5811">10</text><text fill="#000000" font-family="sans-serif" font-size="13" lengthAdjust="spacing" textLength="115" x="954" y="574.5811">cdDTO = toDTO(cd)</text><polygon fill="#181818" points="1406.5,623.7891,1416.5,627.7891,1406.5,631.7891,1410.5,627.7891" style="stroke:#181818;stroke-width:1.0;"/><line style="stroke:#181818;stroke-width:1.0;stroke-dasharray:2.0,2.0;" x1="924" x2="1412.5" y1="627.7891" y2="627.7891"/><text fill="#000000" font-family="sans-serif" font-size="13" font-weight="bold" lengthAdjust="spacing" textLength="14" x="931" y="622.9326">11</text><text fill="#000000" font-family="sans-serif" font-size="13" lengthAdjust="spacing" textLength="44" x="949" y="622.9326">create()</text><rect fill="#E2E2F0" height="31.6094" rx="2.5" ry="2.5" style="stroke:#181818;stroke-width:0.5;" width="170" x="1418.5" y="605.4375"/><text fill="#000000" font-family="sans-serif" font-size="14" lengthAdjust="spacing" textLength="156" x="1425.5" y="626.9707">cdDTO: CenterDataDTO</text><polygon fill="#181818" points="1276.5,666.3984,1286.5,670.3984,1276.5,674.3984,1280.5,670.3984" style="stroke:#181818;stroke-width:1.0;"/><line style="stroke:#181818;stroke-width:1.0;" x1="924" x2="1282.5" y1="670.3984" y2="670.3984"/><text fill="#000000" font-family="sans-serif" font-size="13" font-weight="bold" lengthAdjust="spacing" textLength="14" x="931" y="665.542">12</text><text fill="#000000" font-family="sans-serif" font-size="13" lengthAdjust="spacing" textLength="69" x="949" y="665.542">add(cdDTO)</text><polygon fill="#181818" points="1628.5,726.75,1638.5,730.75,1628.5,734.75,1632.5,730.75" style="stroke:#181818;stroke-width:1.0;"/><line style="stroke:#181818;stroke-width:1.0;" x1="482.5" x2="1634.5" y1="730.75" y2="730.75"/><text fill="#000000" font-family="sans-serif" font-size="13" font-weight="bold" lengthAdjust="spacing" textLength="14" x="489.5" y="725.8936">13</text><text fill="#000000" font-family="sans-serif" font-size="13" lengthAdjust="spacing" textLength="133" x="507.5" y="725.8936">typeList.add(getType())</text><polygon fill="#181818" points="1722.5,787.1016,1732.5,791.1016,1722.5,795.1016,1726.5,791.1016" style="stroke:#181818;stroke-width:1.0;"/><line style="stroke:#181818;stroke-width:1.0;" x1="482.5" x2="1728.5" y1="791.1016" y2="791.1016"/><text fill="#000000" font-family="sans-serif" font-size="13" font-weight="bold" lengthAdjust="spacing" textLength="14" x="489.5" y="786.2451">14</text><text fill="#000000" font-family="sans-serif" font-size="13" lengthAdjust="spacing" textLength="146" x="507.5" y="786.2451">nameList.add(getName())</text><polygon fill="#181818" points="493.5,854.4531,483.5,858.4531,493.5,862.4531,489.5,858.4531" style="stroke:#181818;stroke-width:1.0;"/><line style="stroke:#181818;stroke-width:1.0;stroke-dasharray:2.0,2.0;" x1="487.5" x2="1292.5" y1="858.4531" y2="858.4531"/><text fill="#000000" font-family="sans-serif" font-size="13" font-weight="bold" lengthAdjust="spacing" textLength="14" x="499.5" y="853.5967">15</text><text fill="#000000" font-family="sans-serif" font-size="13" lengthAdjust="spacing" textLength="176" x="517.5" y="853.5967">cdListDTO, nameList, typeList</text><polygon fill="#181818" points="1831.5,884.8047,1841.5,888.8047,1831.5,892.8047,1835.5,888.8047" style="stroke:#181818;stroke-width:1.0;"/><line style="stroke:#181818;stroke-width:1.0;" x1="482.5" x2="1837.5" y1="888.8047" y2="888.8047"/><text fill="#000000" font-family="sans-serif" font-size="13" font-weight="bold" lengthAdjust="spacing" textLength="14" x="489.5" y="883.9482">16</text><text fill="#000000" font-family="sans-serif" font-size="13" lengthAdjust="spacing" textLength="221" x="507.5" y="883.9482">algorithm = getProperty("algorithm17")</text><path d="M391,933.8047 L452,933.8047 L452,942.1563 L442,952.1563 L391,952.1563 L391,933.8047 " fill="#EEEEEE" style="stroke:#000000;stroke-width:1.5;"/><rect fill="none" height="302.2969" style="stroke:#000000;stroke-width:1.5;" width="2053.5" x="391" y="933.8047"/><text fill="#000000" font-family="sans-serif" font-size="13" font-weight="bold" lengthAdjust="spacing" textLength="16" x="406" y="948.2998">alt</text><text fill="#000000" font-family="sans-serif" font-size="11" font-weight="bold" lengthAdjust="spacing" textLength="126" x="467" y="947.2236">[algorithm.equals("S")]</text><line style="stroke:#181818;stroke-width:1.0;" x1="482.5" x2="529.5" y1="969.5078" y2="969.5078"/><line style="stroke:#181818;stroke-width:1.0;" x1="529.5" x2="529.5" y1="969.5078" y2="982.5078"/><line style="stroke:#181818;stroke-width:1.0;" x1="488.5" x2="529.5" y1="982.5078" y2="982.5078"/><polygon fill="#181818" points="498.5,978.5078,488.5,982.5078,498.5,986.5078,494.5,982.5078" style="stroke:#181818;stroke-width:1.0;"/><text fill="#000000" font-family="sans-serif" font-size="13" font-weight="bold" lengthAdjust="spacing" textLength="14" x="494.5" y="964.6514">17</text><text fill="#000000" font-family="sans-serif" font-size="13" lengthAdjust="spacing" textLength="146" x="512.5" y="964.6514">selectionSort(order, type)</text><polygon fill="#181818" points="1954.5,1013.8594,1964.5,1017.8594,1954.5,1021.8594,1958.5,1017.8594" style="stroke:#181818;stroke-width:1.0;"/><line style="stroke:#181818;stroke-width:1.0;" x1="487.5" x2="1960.5" y1="1017.8594" y2="1017.8594"/><text fill="#000000" font-family="sans-serif" font-size="13" font-weight="bold" lengthAdjust="spacing" textLength="14" x="494.5" y="1013.0029">18</text><text fill="#000000" font-family="sans-serif" font-size="13" lengthAdjust="spacing" textLength="161" x="512.5" y="1013.0029">sort(cdListDTO, order, type)</text><polygon fill="#181818" points="2353,1044.2109,2363,1048.2109,2353,1052.2109,2357,1048.2109" style="stroke:#181818;stroke-width:1.0;"/><line style="stroke:#181818;stroke-width:1.0;" x1="1976.5" x2="2359" y1="1048.2109" y2="1048.2109"/><text fill="#000000" font-family="sans-serif" font-size="13" font-weight="bold" lengthAdjust="spacing" textLength="14" x="1983.5" y="1043.3545">19</text><text fill="#000000" font-family="sans-serif" font-size="13" lengthAdjust="spacing" textLength="241" x="2001.5" y="1043.3545">compareDateTime(dateTime1, dateTime2)</text><line style="stroke:#000000;stroke-width:1.0;stroke-dasharray:2.0,2.0;" x1="391" x2="2444.5" y1="1087.2109" y2="1087.2109"/><text fill="#000000" font-family="sans-serif" font-size="11" font-weight="bold" lengthAdjust="spacing" textLength="136" x="396" y="1098.6299">[if algorithm.equals("P")]</text><line style="stroke:#181818;stroke-width:1.0;" x1="482.5" x2="529.5" y1="1119.3984" y2="1119.3984"/><line style="stroke:#181818;stroke-width:1.0;" x1="529.5" x2="529.5" y1="1119.3984" y2="1132.3984"/><line style="stroke:#181818;stroke-width:1.0;" x1="488.5" x2="529.5" y1="1132.3984" y2="1132.3984"/><polygon fill="#181818" points="498.5,1128.3984,488.5,1132.3984,498.5,1136.3984,494.5,1132.3984" style="stroke:#181818;stroke-width:1.0;"/><text fill="#000000" font-family="sans-serif" font-size="13" font-weight="bold" lengthAdjust="spacing" textLength="14" x="494.5" y="1114.542">20</text><text fill="#000000" font-family="sans-serif" font-size="13" lengthAdjust="spacing" textLength="143" x="512.5" y="1114.542">pancakeSort(order, type)</text><polygon fill="#181818" points="2065,1163.75,2075,1167.75,2065,1171.75,2069,1167.75" style="stroke:#181818;stroke-width:1.0;"/><line style="stroke:#181818;stroke-width:1.0;" x1="487.5" x2="2071" y1="1167.75" y2="1167.75"/><text fill="#000000" font-family="sans-serif" font-size="13" font-weight="bold" lengthAdjust="spacing" textLength="14" x="494.5" y="1162.8936">21</text><text fill="#000000" font-family="sans-serif" font-size="13" lengthAdjust="spacing" textLength="161" x="512.5" y="1162.8936">sort(cdListDTO, order, type)</text><polygon fill="#181818" points="2353,1194.1016,2363,1198.1016,2353,1202.1016,2357,1198.1016" style="stroke:#181818;stroke-width:1.0;"/><line style="stroke:#181818;stroke-width:1.0;" x1="2087" x2="2359" y1="1198.1016" y2="1198.1016"/><text fill="#000000" font-family="sans-serif" font-size="13" font-weight="bold" lengthAdjust="spacing" textLength="14" x="2094" y="1193.2451">22</text><text fill="#000000" font-family="sans-serif" font-size="13" lengthAdjust="spacing" textLength="241" x="2112" y="1193.2451">compareDateTime(dateTime1, dateTime2)</text><polygon fill="#181818" points="265.5,1261.4531,255.5,1265.4531,265.5,1269.4531,261.5,1265.4531" style="stroke:#181818;stroke-width:1.0;"/><line style="stroke:#181818;stroke-width:1.0;stroke-dasharray:2.0,2.0;" x1="259.5" x2="476.5" y1="1265.4531" y2="1265.4531"/><text fill="#000000" font-family="sans-serif" font-size="13" font-weight="bold" lengthAdjust="spacing" textLength="14" x="271.5" y="1260.5967">23</text><text fill="#000000" font-family="sans-serif" font-size="13" lengthAdjust="spacing" textLength="176" x="289.5" y="1260.5967">cdListDTO, nameList, typeList</text><polygon fill="#181818" points="58.5,1291.8047,48.5,1295.8047,58.5,1299.8047,54.5,1295.8047" style="stroke:#181818;stroke-width:1.0;"/><line style="stroke:#181818;stroke-width:1.0;stroke-dasharray:2.0,2.0;" x1="52.5" x2="248.5" y1="1295.8047" y2="1295.8047"/><text fill="#000000" font-family="sans-serif" font-size="13" font-weight="bold" lengthAdjust="spacing" textLength="14" x="64.5" y="1290.9482">24</text><text fill="#000000" font-family="sans-serif" font-size="13" lengthAdjust="spacing" textLength="98" x="82.5" y="1290.9482">shows sorted list</text><!--MD5=[cad3097386b64744968194d2ae574d7d]
@startuml

autonumber
actor ":Coordinator" as cord
participant ":CenterDataUI" as ui
participant ":CenterDataController" as ctrl
participant ":Company" as comp
participant ":CenterDataStore" as store
participant ":CenterDataMapper" as map
participant "cdList: List<CenterData>" as list
participant "cdListDTO: List<CenterDataDTO>" as dtoList
participant "cdDTO: CenterDataDTO" as cdDto
participant ":NewVaccine" as vac
participant ":SNSUser" as sns
participant ":PropertiesCache" as prop
participant ":SelectionSort" as sort1
participant ":PancakeSort" as sort2
participant ":CompareInstance" as compare

activate cord

cord -> ui : requests to view center data
activate ui
ui -> ctrl : isListEmpty()
deactivate ui
activate ctrl
ctrl -> comp : getCenterDataStore()
activate comp
deactivate comp
ctrl -> store: isEmpty()
activate store
deactivate store
deactivate ctrl

note left: chooses type sorting and order\nThis steps are ommited because\nthey are the same as the SSD

ui -> ctrl : getSortedList(order, type)
activate ui
activate ctrl
ctrl -> store : cdList = getList()
activate store
deactivate store
ctrl -> map : toDTO(cdList)
deactivate ctrl
activate map
map - -> dtoList** : cdListDTO = create()
loop for each object in cdList
map -> list : cd = get(i)
activate list
deactivate list
map -> map : cdDTO = toDTO(cd)
activate map
map - -> cdDto** : create()
deactivate map
map -> dtoList : add(cdDTO)
activate dtoList
deactivate map
ctrl -> vac : typeList.add(getType())
activate ctrl
activate vac
deactivate vac
ctrl -> sns : nameList.add(getName())
activate sns
deactivate sns
deactivate ctrl
end loop
dtoList - -> ctrl : cdListDTO, nameList, typeList
deactivate dtoList
activate ctrl
ctrl -> prop : algorithm = getProperty("algorithm17")
activate prop
deactivate prop
alt algorithm.equals("S")
ctrl -> ctrl : selectionSort(order, type)
activate ctrl
ctrl -> sort1 : sort(cdListDTO, order, type)
activate sort1
sort1 -> compare : compareDateTime(dateTime1, dateTime2)
activate compare
deactivate compare
deactivate sort1
deactivate ctrl
else if algorithm.equals("P")
ctrl -> ctrl : pancakeSort(order, type)
activate ctrl
ctrl -> sort2 : sort(cdListDTO, order, type)
activate sort2
sort2 -> compare : compareDateTime(dateTime1, dateTime2)
activate compare
deactivate compare
deactivate sort2
deactivate ctrl
end alt
ctrl - -> ui : cdListDTO, nameList, typeList
deactivate ctrl
ui - -> cord : shows sorted list
deactivate ui
deactivate cord

@enduml

PlantUML version 1.2022.5(Sat Apr 30 11:55:52 BST 2022)
(GPL source distribution)
Java Runtime: OpenJDK Runtime Environment
JVM: OpenJDK 64-Bit Server VM
Default Encoding: Cp1252
Language: en
Country: US
--></g></svg>