<?xml version="1.0" encoding="UTF-8" standalone="no"?><svg xmlns="http://www.w3.org/2000/svg" xmlns:xlink="http://www.w3.org/1999/xlink" contentStyleType="text/css" height="1077px" preserveAspectRatio="none" style="width:2243px;height:1077px;background:#FFFFFF;" version="1.1" viewBox="0 0 2243 1077" width="2243px" zoomAndPan="magnify"><defs/><g><!--MD5=[08fbd2cf146f2ea1278c892af01eac4f]
class load--><g id="elem_load"><rect codeLine="3" fill="#F1F1F1" height="118.4375" id="load" rx="2.5" ry="2.5" style="stroke:#181818;stroke-width:0.5;" width="351" x="803" y="471.5"/><ellipse cx="940.25" cy="487.5" fill="#ADD1B2" rx="11" ry="11" style="stroke:#181818;stroke-width:1.0;"/><path d="M942.25,484 Q942.4531,483.5 942.6875,483.25 Q942.9219,483 943.1875,483 Q943.6563,483 943.9531,483.2813 Q944.25,483.5625 944.25,484.2188 L944.25,485.7813 Q944.25,486.4375 943.9688,486.7188 Q943.6875,487 943.25,487 Q942.8594,487 942.6094,486.8281 Q942.3594,486.6563 942.25,486.2031 Q942.2031,485.8906 942.0313,485.7188 Q941.7188,485.3906 941.1563,485.2031 Q940.5938,485 940.0313,485 Q939.3281,485 938.7344,485.2813 Q938.1563,485.5625 937.7031,486.1875 Q937.25,486.8125 937.25,487.6719 L937.25,488.5938 Q937.25,489.625 938.0938,490.3125 Q938.9375,491 940.4375,491 Q941.3281,491 941.9531,490.7969 Q942.3125,490.6875 942.7188,490.3281 Q942.9844,490.125 943.125,490.0625 Q943.2656,490 943.4375,490 Q943.7656,490 944,490.2656 Q944.25,490.5156 944.25,490.875 Q944.25,491.2188 943.9063,491.625 Q943.4063,492.2188 942.6094,492.5469 Q941.5625,493 940.2813,493 Q938.7813,493 937.5781,492.4063 Q936.6094,491.9375 935.9219,490.9219 Q935.25,489.9063 935.25,488.7031 L935.25,487.6094 Q935.25,486.3594 935.8438,485.2656 Q936.4531,484.1719 937.5,483.5938 Q938.5625,483 939.75,483 Q940.4688,483 941.0938,483.25 Q941.7188,483.5 942.25,484 Z " fill="#000000"/><text fill="#000000" font-family="sans-serif" font-size="14" lengthAdjust="spacing" textLength="68" x="960.75" y="493.2285">FileLoader</text><line style="stroke:#181818;stroke-width:0.5;" x1="804" x2="1153" y1="503.5" y2="503.5"/><rect fill="none" height="6" style="stroke:#C82930;stroke-width:1.0;" width="6" x="811" y="511.5"/><text fill="#000000" font-family="sans-serif" font-size="14" lengthAdjust="spacing" textLength="93" x="823" y="522.0332">centerDataFile</text><rect fill="none" height="6" style="stroke:#C82930;stroke-width:1.0;" width="6" x="811" y="529.1094"/><text fill="#000000" font-family="sans-serif" font-size="14" lengthAdjust="spacing" textLength="92" x="823" y="539.6426">centerDataList</text><line style="stroke:#181818;stroke-width:0.5;" x1="804" x2="1153" y1="546.7188" y2="546.7188"/><ellipse cx="814" cy="557.7188" fill="#84BE84" rx="3" ry="3" style="stroke:#038048;stroke-width:1.0;"/><text fill="#000000" font-family="sans-serif" font-size="14" lengthAdjust="spacing" textLength="178" x="823" y="565.252">loadFile((boolean) isCenter)</text><ellipse cx="814" cy="575.3281" fill="#84BE84" rx="3" ry="3" style="stroke:#038048;stroke-width:1.0;"/><text fill="#000000" font-family="sans-serif" font-size="14" lengthAdjust="spacing" textLength="325" x="823" y="582.8613">FileLoader(filePath, (boolean) isCenterConstructor)</text></g><!--MD5=[779ca899cb450f92862c3221a985118a]
class loadCtrl--><g id="elem_loadCtrl"><rect codeLine="10" fill="#F1F1F1" height="65.6094" id="loadCtrl" rx="2.5" ry="2.5" style="stroke:#181818;stroke-width:0.5;" width="221" x="7" y="808.5"/><ellipse cx="48.55" cy="824.5" fill="#ADD1B2" rx="11" ry="11" style="stroke:#181818;stroke-width:1.0;"/><path d="M50.55,821 Q50.7531,820.5 50.9875,820.25 Q51.2219,820 51.4875,820 Q51.9563,820 52.2531,820.2813 Q52.55,820.5625 52.55,821.2188 L52.55,822.7813 Q52.55,823.4375 52.2688,823.7188 Q51.9875,824 51.55,824 Q51.1594,824 50.9094,823.8281 Q50.6594,823.6563 50.55,823.2031 Q50.5031,822.8906 50.3313,822.7188 Q50.0188,822.3906 49.4563,822.2031 Q48.8938,822 48.3313,822 Q47.6281,822 47.0344,822.2813 Q46.4563,822.5625 46.0031,823.1875 Q45.55,823.8125 45.55,824.6719 L45.55,825.5938 Q45.55,826.625 46.3938,827.3125 Q47.2375,828 48.7375,828 Q49.6281,828 50.2531,827.7969 Q50.6125,827.6875 51.0188,827.3281 Q51.2844,827.125 51.425,827.0625 Q51.5656,827 51.7375,827 Q52.0656,827 52.3,827.2656 Q52.55,827.5156 52.55,827.875 Q52.55,828.2188 52.2063,828.625 Q51.7063,829.2188 50.9094,829.5469 Q49.8625,830 48.5813,830 Q47.0813,830 45.8781,829.4063 Q44.9094,828.9375 44.2219,827.9219 Q43.55,826.9063 43.55,825.7031 L43.55,824.6094 Q43.55,823.3594 44.1438,822.2656 Q44.7531,821.1719 45.8,820.5938 Q46.8625,820 48.05,820 Q48.7688,820 49.3938,820.25 Q50.0188,820.5 50.55,821 Z " fill="#000000"/><text fill="#000000" font-family="sans-serif" font-size="14" lengthAdjust="spacing" textLength="130" x="68.45" y="830.2285">FileLoaderController</text><line style="stroke:#181818;stroke-width:0.5;" x1="8" x2="227" y1="840.5" y2="840.5"/><line style="stroke:#181818;stroke-width:0.5;" x1="8" x2="227" y1="848.5" y2="848.5"/><ellipse cx="18" cy="859.5" fill="#84BE84" rx="3" ry="3" style="stroke:#038048;stroke-width:1.0;"/><text fill="#000000" font-family="sans-serif" font-size="14" lengthAdjust="spacing" textLength="195" x="27" y="867.0332">checkSNSnumExists (SNSnum)</text></g><!--MD5=[c6e5a02ac9bb15a42371d757cf4d0cab]
class snsStore--><g id="elem_snsStore"><rect codeLine="14" fill="#F1F1F1" height="65.6094" id="snsStore" rx="2.5" ry="2.5" style="stroke:#181818;stroke-width:0.5;" width="217" x="9" y="1005"/><ellipse cx="68.25" cy="1021" fill="#ADD1B2" rx="11" ry="11" style="stroke:#181818;stroke-width:1.0;"/><path d="M70.25,1017.5 Q70.4531,1017 70.6875,1016.75 Q70.9219,1016.5 71.1875,1016.5 Q71.6563,1016.5 71.9531,1016.7813 Q72.25,1017.0625 72.25,1017.7188 L72.25,1019.2813 Q72.25,1019.9375 71.9688,1020.2188 Q71.6875,1020.5 71.25,1020.5 Q70.8594,1020.5 70.6094,1020.3281 Q70.3594,1020.1563 70.25,1019.7031 Q70.2031,1019.3906 70.0313,1019.2188 Q69.7188,1018.8906 69.1563,1018.7031 Q68.5938,1018.5 68.0313,1018.5 Q67.3281,1018.5 66.7344,1018.7813 Q66.1563,1019.0625 65.7031,1019.6875 Q65.25,1020.3125 65.25,1021.1719 L65.25,1022.0938 Q65.25,1023.125 66.0938,1023.8125 Q66.9375,1024.5 68.4375,1024.5 Q69.3281,1024.5 69.9531,1024.2969 Q70.3125,1024.1875 70.7188,1023.8281 Q70.9844,1023.625 71.125,1023.5625 Q71.2656,1023.5 71.4375,1023.5 Q71.7656,1023.5 72,1023.7656 Q72.25,1024.0156 72.25,1024.375 Q72.25,1024.7188 71.9063,1025.125 Q71.4063,1025.7188 70.6094,1026.0469 Q69.5625,1026.5 68.2813,1026.5 Q66.7813,1026.5 65.5781,1025.9063 Q64.6094,1025.4375 63.9219,1024.4219 Q63.25,1023.4063 63.25,1022.2031 L63.25,1021.1094 Q63.25,1019.8594 63.8438,1018.7656 Q64.4531,1017.6719 65.5,1017.0938 Q66.5625,1016.5 67.75,1016.5 Q68.4688,1016.5 69.0938,1016.75 Q69.7188,1017 70.25,1017.5 Z " fill="#000000"/><text fill="#000000" font-family="sans-serif" font-size="14" lengthAdjust="spacing" textLength="90" x="88.75" y="1026.7285">SNSUserStore</text><line style="stroke:#181818;stroke-width:0.5;" x1="10" x2="225" y1="1037" y2="1037"/><line style="stroke:#181818;stroke-width:0.5;" x1="10" x2="225" y1="1045" y2="1045"/><ellipse cx="20" cy="1056" fill="#84BE84" rx="3" ry="3" style="stroke:#038048;stroke-width:1.0;"/><text fill="#000000" font-family="sans-serif" font-size="14" lengthAdjust="spacing" textLength="191" x="29" y="1063.5332">checkSNSnumExists(SNSnum)</text></g><!--MD5=[fd9cab17099256c8680aa6ea13cc8fa6]
class ctrl--><g id="elem_ctrl"><rect codeLine="18" fill="#F1F1F1" height="153.6563" id="ctrl" rx="2.5" ry="2.5" style="stroke:#181818;stroke-width:0.5;" width="837" x="560" y="168"/><ellipse cx="906.75" cy="184" fill="#ADD1B2" rx="11" ry="11" style="stroke:#181818;stroke-width:1.0;"/><path d="M908.75,180.5 Q908.9531,180 909.1875,179.75 Q909.4219,179.5 909.6875,179.5 Q910.1563,179.5 910.4531,179.7813 Q910.75,180.0625 910.75,180.7188 L910.75,182.2813 Q910.75,182.9375 910.4688,183.2188 Q910.1875,183.5 909.75,183.5 Q909.3594,183.5 909.1094,183.3281 Q908.8594,183.1563 908.75,182.7031 Q908.7031,182.3906 908.5313,182.2188 Q908.2188,181.8906 907.6563,181.7031 Q907.0938,181.5 906.5313,181.5 Q905.8281,181.5 905.2344,181.7813 Q904.6563,182.0625 904.2031,182.6875 Q903.75,183.3125 903.75,184.1719 L903.75,185.0938 Q903.75,186.125 904.5938,186.8125 Q905.4375,187.5 906.9375,187.5 Q907.8281,187.5 908.4531,187.2969 Q908.8125,187.1875 909.2188,186.8281 Q909.4844,186.625 909.625,186.5625 Q909.7656,186.5 909.9375,186.5 Q910.2656,186.5 910.5,186.7656 Q910.75,187.0156 910.75,187.375 Q910.75,187.7188 910.4063,188.125 Q909.9063,188.7188 909.1094,189.0469 Q908.0625,189.5 906.7813,189.5 Q905.2813,189.5 904.0781,188.9063 Q903.1094,188.4375 902.4219,187.4219 Q901.75,186.4063 901.75,185.2031 L901.75,184.1094 Q901.75,182.8594 902.3438,181.7656 Q902.9531,180.6719 904,180.0938 Q905.0625,179.5 906.25,179.5 Q906.9688,179.5 907.5938,179.75 Q908.2188,180 908.75,180.5 Z " fill="#000000"/><text fill="#000000" font-family="sans-serif" font-size="14" lengthAdjust="spacing" textLength="135" x="927.25" y="189.7285">CenterDataController</text><line style="stroke:#181818;stroke-width:0.5;" x1="561" x2="1396" y1="200" y2="200"/><line style="stroke:#181818;stroke-width:0.5;" x1="561" x2="1396" y1="208" y2="208"/><ellipse cx="571" cy="219" fill="#84BE84" rx="3" ry="3" style="stroke:#038048;stroke-width:1.0;"/><text fill="#000000" font-family="sans-serif" font-size="14" lengthAdjust="spacing" textLength="219" x="580" y="226.5332">createCenterDataFileLoader(path)</text><ellipse cx="571" cy="236.6094" fill="#84BE84" rx="3" ry="3" style="stroke:#038048;stroke-width:1.0;"/><text fill="#000000" font-family="sans-serif" font-size="14" lengthAdjust="spacing" textLength="811" x="580" y="244.1426">getCD(arrDate, arrTime, schDate, schTime, adminDate, adminTime, leaveDate, leaveTime, SNSnum, lot, vacName, currentDose)</text><ellipse cx="571" cy="254.2188" fill="#84BE84" rx="3" ry="3" style="stroke:#038048;stroke-width:1.0;"/><text fill="#000000" font-family="sans-serif" font-size="14" lengthAdjust="spacing" textLength="147" x="580" y="261.752">validateCenterData(cd)</text><ellipse cx="571" cy="271.8281" fill="#84BE84" rx="3" ry="3" style="stroke:#038048;stroke-width:1.0;"/><text fill="#000000" font-family="sans-serif" font-size="14" lengthAdjust="spacing" textLength="133" x="580" y="279.3613">loadCenterDataFile()</text><ellipse cx="571" cy="289.4375" fill="#84BE84" rx="3" ry="3" style="stroke:#038048;stroke-width:1.0;"/><text fill="#000000" font-family="sans-serif" font-size="14" lengthAdjust="spacing" textLength="147" x="580" y="296.9707">loadCenterData(cdList)</text><ellipse cx="571" cy="307.0469" fill="#84BE84" rx="3" ry="3" style="stroke:#038048;stroke-width:1.0;"/><text fill="#000000" font-family="sans-serif" font-size="14" lengthAdjust="spacing" textLength="158" x="580" y="314.5801">centerDataLineExists(cd)</text></g><!--MD5=[bc2b9875a1b7ec9dc0c91782fdd7a643]
class cd--><g id="elem_cd"><rect codeLine="27" fill="#F1F1F1" height="294.5313" id="cd" rx="2.5" ry="2.5" style="stroke:#181818;stroke-width:0.5;" width="870" x="1366.5" y="383"/><ellipse cx="1760.75" cy="399" fill="#ADD1B2" rx="11" ry="11" style="stroke:#181818;stroke-width:1.0;"/><path d="M1762.75,395.5 Q1762.9531,395 1763.1875,394.75 Q1763.4219,394.5 1763.6875,394.5 Q1764.1563,394.5 1764.4531,394.7813 Q1764.75,395.0625 1764.75,395.7188 L1764.75,397.2813 Q1764.75,397.9375 1764.4688,398.2188 Q1764.1875,398.5 1763.75,398.5 Q1763.3594,398.5 1763.1094,398.3281 Q1762.8594,398.1563 1762.75,397.7031 Q1762.7031,397.3906 1762.5313,397.2188 Q1762.2188,396.8906 1761.6563,396.7031 Q1761.0938,396.5 1760.5313,396.5 Q1759.8281,396.5 1759.2344,396.7813 Q1758.6563,397.0625 1758.2031,397.6875 Q1757.75,398.3125 1757.75,399.1719 L1757.75,400.0938 Q1757.75,401.125 1758.5938,401.8125 Q1759.4375,402.5 1760.9375,402.5 Q1761.8281,402.5 1762.4531,402.2969 Q1762.8125,402.1875 1763.2188,401.8281 Q1763.4844,401.625 1763.625,401.5625 Q1763.7656,401.5 1763.9375,401.5 Q1764.2656,401.5 1764.5,401.7656 Q1764.75,402.0156 1764.75,402.375 Q1764.75,402.7188 1764.4063,403.125 Q1763.9063,403.7188 1763.1094,404.0469 Q1762.0625,404.5 1760.7813,404.5 Q1759.2813,404.5 1758.0781,403.9063 Q1757.1094,403.4375 1756.4219,402.4219 Q1755.75,401.4063 1755.75,400.2031 L1755.75,399.1094 Q1755.75,397.8594 1756.3438,396.7656 Q1756.9531,395.6719 1758,395.0938 Q1759.0625,394.5 1760.25,394.5 Q1760.9688,394.5 1761.5938,394.75 Q1762.2188,395 1762.75,395.5 Z " fill="#000000"/><text fill="#000000" font-family="sans-serif" font-size="14" lengthAdjust="spacing" textLength="73" x="1781.25" y="404.7285">CenterData</text><line style="stroke:#181818;stroke-width:0.5;" x1="1367.5" x2="2235.5" y1="415" y2="415"/><rect fill="none" height="6" style="stroke:#C82930;stroke-width:1.0;" width="6" x="1374.5" y="423"/><text fill="#000000" font-family="sans-serif" font-size="14" lengthAdjust="spacing" textLength="18" x="1386.5" y="433.5332">arr</text><rect fill="none" height="6" style="stroke:#C82930;stroke-width:1.0;" width="6" x="1374.5" y="440.6094"/><text fill="#000000" font-family="sans-serif" font-size="14" lengthAdjust="spacing" textLength="22" x="1386.5" y="451.1426">sch</text><rect fill="none" height="6" style="stroke:#C82930;stroke-width:1.0;" width="6" x="1374.5" y="458.2188"/><text fill="#000000" font-family="sans-serif" font-size="14" lengthAdjust="spacing" textLength="38" x="1386.5" y="468.752">admin</text><rect fill="none" height="6" style="stroke:#C82930;stroke-width:1.0;" width="6" x="1374.5" y="475.8281"/><text fill="#000000" font-family="sans-serif" font-size="14" lengthAdjust="spacing" textLength="34" x="1386.5" y="486.3613">leave</text><rect fill="none" height="6" style="stroke:#C82930;stroke-width:1.0;" width="6" x="1374.5" y="493.4375"/><text fill="#000000" font-family="sans-serif" font-size="14" lengthAdjust="spacing" textLength="54" x="1386.5" y="503.9707">SNSnum</text><rect fill="none" height="6" style="stroke:#C82930;stroke-width:1.0;" width="6" x="1374.5" y="511.0469"/><text fill="#000000" font-family="sans-serif" font-size="14" lengthAdjust="spacing" textLength="15" x="1386.5" y="521.5801">lot</text><rect fill="none" height="6" style="stroke:#C82930;stroke-width:1.0;" width="6" x="1374.5" y="528.6563"/><text fill="#000000" font-family="sans-serif" font-size="14" lengthAdjust="spacing" textLength="58" x="1386.5" y="539.1895">vacName</text><rect fill="none" height="6" style="stroke:#C82930;stroke-width:1.0;" width="6" x="1374.5" y="546.2656"/><text fill="#000000" font-family="sans-serif" font-size="14" lengthAdjust="spacing" textLength="78" x="1386.5" y="556.7988">currentDose</text><line style="stroke:#181818;stroke-width:0.5;" x1="1367.5" x2="2235.5" y1="563.875" y2="563.875"/><ellipse cx="1377.5" cy="574.875" fill="#84BE84" rx="3" ry="3" style="stroke:#038048;stroke-width:1.0;"/><text fill="#000000" font-family="sans-serif" font-size="14" lengthAdjust="spacing" textLength="844" x="1386.5" y="582.4082">CenterData(arrDate, arrTime, schDate, schTime, adminDate, adminTime, leaveDate, leaveTime, SNSnum, lot, vacName, currentDose)</text><ellipse cx="1377.5" cy="592.4844" fill="#84BE84" rx="3" ry="3" style="stroke:#038048;stroke-width:1.0;"/><text fill="#000000" font-family="sans-serif" font-size="14" lengthAdjust="spacing" textLength="59" x="1386.5" y="600.0176">toString()</text><ellipse cx="1377.5" cy="610.0938" fill="#84BE84" rx="3" ry="3" style="stroke:#038048;stroke-width:1.0;"/><text fill="#000000" font-family="sans-serif" font-size="14" lengthAdjust="spacing" textLength="134" x="1386.5" y="617.627">validateSNSnumber()</text><ellipse cx="1377.5" cy="627.7031" fill="#84BE84" rx="3" ry="3" style="stroke:#038048;stroke-width:1.0;"/><text fill="#000000" font-family="sans-serif" font-size="14" lengthAdjust="spacing" textLength="132" x="1386.5" y="635.2363">validateCenterData()</text><ellipse cx="1377.5" cy="645.3125" fill="#84BE84" rx="3" ry="3" style="stroke:#038048;stroke-width:1.0;"/><text fill="#000000" font-family="sans-serif" font-size="14" lengthAdjust="spacing" textLength="128" x="1386.5" y="652.8457">validateLotNumber()</text><ellipse cx="1377.5" cy="662.9219" fill="#84BE84" rx="3" ry="3" style="stroke:#038048;stroke-width:1.0;"/><text fill="#000000" font-family="sans-serif" font-size="14" lengthAdjust="spacing" textLength="52" x="1386.5" y="670.4551">equals()</text></g><!--MD5=[e2b9ae9a6f3d968d3533fb88890e19ee]
class store--><g id="elem_store"><rect codeLine="44" fill="#F1F1F1" height="171.2656" id="store" rx="2.5" ry="2.5" style="stroke:#181818;stroke-width:0.5;" width="837" x="263" y="756"/><ellipse cx="623.75" cy="772" fill="#ADD1B2" rx="11" ry="11" style="stroke:#181818;stroke-width:1.0;"/><path d="M625.75,768.5 Q625.9531,768 626.1875,767.75 Q626.4219,767.5 626.6875,767.5 Q627.1563,767.5 627.4531,767.7813 Q627.75,768.0625 627.75,768.7188 L627.75,770.2813 Q627.75,770.9375 627.4688,771.2188 Q627.1875,771.5 626.75,771.5 Q626.3594,771.5 626.1094,771.3281 Q625.8594,771.1563 625.75,770.7031 Q625.7031,770.3906 625.5313,770.2188 Q625.2188,769.8906 624.6563,769.7031 Q624.0938,769.5 623.5313,769.5 Q622.8281,769.5 622.2344,769.7813 Q621.6563,770.0625 621.2031,770.6875 Q620.75,771.3125 620.75,772.1719 L620.75,773.0938 Q620.75,774.125 621.5938,774.8125 Q622.4375,775.5 623.9375,775.5 Q624.8281,775.5 625.4531,775.2969 Q625.8125,775.1875 626.2188,774.8281 Q626.4844,774.625 626.625,774.5625 Q626.7656,774.5 626.9375,774.5 Q627.2656,774.5 627.5,774.7656 Q627.75,775.0156 627.75,775.375 Q627.75,775.7188 627.4063,776.125 Q626.9063,776.7188 626.1094,777.0469 Q625.0625,777.5 623.7813,777.5 Q622.2813,777.5 621.0781,776.9063 Q620.1094,776.4375 619.4219,775.4219 Q618.75,774.4063 618.75,773.2031 L618.75,772.1094 Q618.75,770.8594 619.3438,769.7656 Q619.9531,768.6719 621,768.0938 Q622.0625,767.5 623.25,767.5 Q623.9688,767.5 624.5938,767.75 Q625.2188,768 625.75,768.5 Z " fill="#000000"/><text fill="#000000" font-family="sans-serif" font-size="14" lengthAdjust="spacing" textLength="107" x="644.25" y="777.7285">CenterDataStore</text><line style="stroke:#181818;stroke-width:0.5;" x1="264" x2="1099" y1="788" y2="788"/><rect fill="none" height="6" style="stroke:#C82930;stroke-width:1.0;" width="6" x="271" y="796"/><text fill="#000000" font-family="sans-serif" font-size="14" lengthAdjust="spacing" textLength="15" x="283" y="806.5332">cd</text><rect fill="none" height="6" style="stroke:#C82930;stroke-width:1.0;" width="6" x="271" y="813.6094"/><text fill="#000000" font-family="sans-serif" font-size="14" lengthAdjust="spacing" textLength="32" x="283" y="824.1426">store</text><line style="stroke:#181818;stroke-width:0.5;" x1="264" x2="1099" y1="831.2188" y2="831.2188"/><ellipse cx="274" cy="842.2188" fill="#84BE84" rx="3" ry="3" style="stroke:#038048;stroke-width:1.0;"/><text fill="#000000" font-family="sans-serif" font-size="14" lengthAdjust="spacing" textLength="811" x="283" y="849.752">create(arrDate, arrTime, schDate, schTime, adminDate, adminTime, leaveDate, leaveTime, SNSnum, lot, vacName, currentDose)</text><ellipse cx="274" cy="859.8281" fill="#84BE84" rx="3" ry="3" style="stroke:#038048;stroke-width:1.0;"/><text fill="#000000" font-family="sans-serif" font-size="14" lengthAdjust="spacing" textLength="74" x="283" y="867.3613">validate(cd)</text><ellipse cx="274" cy="877.4375" fill="#84BE84" rx="3" ry="3" style="stroke:#038048;stroke-width:1.0;"/><text fill="#000000" font-family="sans-serif" font-size="14" lengthAdjust="spacing" textLength="110" x="283" y="884.9707">loadToLocalList()</text><ellipse cx="274" cy="895.0469" fill="#84BE84" rx="3" ry="3" style="stroke:#038048;stroke-width:1.0;"/><text fill="#000000" font-family="sans-serif" font-size="14" lengthAdjust="spacing" textLength="62" x="283" y="902.5801">saveList()</text><ellipse cx="274" cy="912.6563" fill="#84BE84" rx="3" ry="3" style="stroke:#038048;stroke-width:1.0;"/><text fill="#000000" font-family="sans-serif" font-size="14" lengthAdjust="spacing" textLength="134" x="283" y="920.1895">CenterDataExists(cd)</text></g><!--MD5=[589778a86542334cbbe24d2c132e4f67]
class ui--><g id="elem_ui"><rect codeLine="54" fill="#F1F1F1" height="83.2188" id="ui" rx="2.5" ry="2.5" style="stroke:#181818;stroke-width:0.5;" width="181" x="888" y="7"/><ellipse cx="931.8" cy="23" fill="#ADD1B2" rx="11" ry="11" style="stroke:#181818;stroke-width:1.0;"/><path d="M933.8,19.5 Q934.0031,19 934.2375,18.75 Q934.4719,18.5 934.7375,18.5 Q935.2063,18.5 935.5031,18.7813 Q935.8,19.0625 935.8,19.7188 L935.8,21.2813 Q935.8,21.9375 935.5188,22.2188 Q935.2375,22.5 934.8,22.5 Q934.4094,22.5 934.1594,22.3281 Q933.9094,22.1563 933.8,21.7031 Q933.7531,21.3906 933.5813,21.2188 Q933.2688,20.8906 932.7063,20.7031 Q932.1438,20.5 931.5813,20.5 Q930.8781,20.5 930.2844,20.7813 Q929.7063,21.0625 929.2531,21.6875 Q928.8,22.3125 928.8,23.1719 L928.8,24.0938 Q928.8,25.125 929.6438,25.8125 Q930.4875,26.5 931.9875,26.5 Q932.8781,26.5 933.5031,26.2969 Q933.8625,26.1875 934.2688,25.8281 Q934.5344,25.625 934.675,25.5625 Q934.8156,25.5 934.9875,25.5 Q935.3156,25.5 935.55,25.7656 Q935.8,26.0156 935.8,26.375 Q935.8,26.7188 935.4563,27.125 Q934.9563,27.7188 934.1594,28.0469 Q933.1125,28.5 931.8313,28.5 Q930.3313,28.5 929.1281,27.9063 Q928.1594,27.4375 927.4719,26.4219 Q926.8,25.4063 926.8,24.2031 L926.8,23.1094 Q926.8,21.8594 927.3938,20.7656 Q928.0031,19.6719 929.05,19.0938 Q930.1125,18.5 931.3,18.5 Q932.0188,18.5 932.6438,18.75 Q933.2688,19 933.8,19.5 Z " fill="#000000"/><text fill="#000000" font-family="sans-serif" font-size="14" lengthAdjust="spacing" textLength="85" x="952.2" y="28.7285">CenterDataUI</text><line style="stroke:#181818;stroke-width:0.5;" x1="889" x2="1068" y1="39" y2="39"/><line style="stroke:#181818;stroke-width:0.5;" x1="889" x2="1068" y1="47" y2="47"/><ellipse cx="899" cy="58" fill="#84BE84" rx="3" ry="3" style="stroke:#038048;stroke-width:1.0;"/><text fill="#000000" font-family="sans-serif" font-size="14" lengthAdjust="spacing" textLength="115" x="908" y="65.5332">centerDataMenu()</text><ellipse cx="899" cy="75.6094" fill="#84BE84" rx="3" ry="3" style="stroke:#038048;stroke-width:1.0;"/><text fill="#000000" font-family="sans-serif" font-size="14" lengthAdjust="spacing" textLength="155" x="908" y="83.1426">confirmFilePath(filePath)</text></g><!--MD5=[4f19d3057fb900cadb2cfb67b6fb36c5]
class comp--><g id="elem_comp"><rect codeLine="59" fill="#F1F1F1" height="65.6094" id="comp" rx="2.5" ry="2.5" style="stroke:#181818;stroke-width:0.5;" width="163" x="489" y="497.5"/><ellipse cx="536.25" cy="513.5" fill="#ADD1B2" rx="11" ry="11" style="stroke:#181818;stroke-width:1.0;"/><path d="M538.25,510 Q538.4531,509.5 538.6875,509.25 Q538.9219,509 539.1875,509 Q539.6563,509 539.9531,509.2813 Q540.25,509.5625 540.25,510.2188 L540.25,511.7813 Q540.25,512.4375 539.9688,512.7188 Q539.6875,513 539.25,513 Q538.8594,513 538.6094,512.8281 Q538.3594,512.6563 538.25,512.2031 Q538.2031,511.8906 538.0313,511.7188 Q537.7188,511.3906 537.1563,511.2031 Q536.5938,511 536.0313,511 Q535.3281,511 534.7344,511.2813 Q534.1563,511.5625 533.7031,512.1875 Q533.25,512.8125 533.25,513.6719 L533.25,514.5938 Q533.25,515.625 534.0938,516.3125 Q534.9375,517 536.4375,517 Q537.3281,517 537.9531,516.7969 Q538.3125,516.6875 538.7188,516.3281 Q538.9844,516.125 539.125,516.0625 Q539.2656,516 539.4375,516 Q539.7656,516 540,516.2656 Q540.25,516.5156 540.25,516.875 Q540.25,517.2188 539.9063,517.625 Q539.4063,518.2188 538.6094,518.5469 Q537.5625,519 536.2813,519 Q534.7813,519 533.5781,518.4063 Q532.6094,517.9375 531.9219,516.9219 Q531.25,515.9063 531.25,514.7031 L531.25,513.6094 Q531.25,512.3594 531.8438,511.2656 Q532.4531,510.1719 533.5,509.5938 Q534.5625,509 535.75,509 Q536.4688,509 537.0938,509.25 Q537.7188,509.5 538.25,510 Z " fill="#000000"/><text fill="#000000" font-family="sans-serif" font-size="14" lengthAdjust="spacing" textLength="60" x="556.75" y="519.2285">Company</text><line style="stroke:#181818;stroke-width:0.5;" x1="490" x2="651" y1="529.5" y2="529.5"/><line style="stroke:#181818;stroke-width:0.5;" x1="490" x2="651" y1="537.5" y2="537.5"/><ellipse cx="500" cy="548.5" fill="#84BE84" rx="3" ry="3" style="stroke:#038048;stroke-width:1.0;"/><text fill="#000000" font-family="sans-serif" font-size="14" lengthAdjust="spacing" textLength="137" x="509" y="556.0332">getCenterDataStore()</text></g><!--MD5=[6ee7d43427af11a8dbf2b5b1b1737082]
class convertD--><g id="elem_convertD"><rect codeLine="63" fill="#F1F1F1" height="65.6094" id="convertD" rx="2.5" ry="2.5" style="stroke:#181818;stroke-width:0.5;" width="157" x="1135" y="808.5"/><ellipse cx="1150" cy="824.5" fill="#ADD1B2" rx="11" ry="11" style="stroke:#181818;stroke-width:1.0;"/><path d="M1152,821 Q1152.2031,820.5 1152.4375,820.25 Q1152.6719,820 1152.9375,820 Q1153.4063,820 1153.7031,820.2813 Q1154,820.5625 1154,821.2188 L1154,822.7813 Q1154,823.4375 1153.7188,823.7188 Q1153.4375,824 1153,824 Q1152.6094,824 1152.3594,823.8281 Q1152.1094,823.6563 1152,823.2031 Q1151.9531,822.8906 1151.7813,822.7188 Q1151.4688,822.3906 1150.9063,822.2031 Q1150.3438,822 1149.7813,822 Q1149.0781,822 1148.4844,822.2813 Q1147.9063,822.5625 1147.4531,823.1875 Q1147,823.8125 1147,824.6719 L1147,825.5938 Q1147,826.625 1147.8438,827.3125 Q1148.6875,828 1150.1875,828 Q1151.0781,828 1151.7031,827.7969 Q1152.0625,827.6875 1152.4688,827.3281 Q1152.7344,827.125 1152.875,827.0625 Q1153.0156,827 1153.1875,827 Q1153.5156,827 1153.75,827.2656 Q1154,827.5156 1154,827.875 Q1154,828.2188 1153.6563,828.625 Q1153.1563,829.2188 1152.3594,829.5469 Q1151.3125,830 1150.0313,830 Q1148.5313,830 1147.3281,829.4063 Q1146.3594,828.9375 1145.6719,827.9219 Q1145,826.9063 1145,825.7031 L1145,824.6094 Q1145,823.3594 1145.5938,822.2656 Q1146.2031,821.1719 1147.25,820.5938 Q1148.3125,820 1149.5,820 Q1150.2188,820 1150.8438,820.25 Q1151.4688,820.5 1152,821 Z " fill="#000000"/><text fill="#000000" font-family="sans-serif" font-size="14" lengthAdjust="spacing" textLength="125" x="1164" y="830.2285">ConvertDateFormat</text><line style="stroke:#181818;stroke-width:0.5;" x1="1136" x2="1291" y1="840.5" y2="840.5"/><line style="stroke:#181818;stroke-width:0.5;" x1="1136" x2="1291" y1="848.5" y2="848.5"/><ellipse cx="1146" cy="859.5" fill="#84BE84" rx="3" ry="3" style="stroke:#038048;stroke-width:1.0;"/><text fill="#000000" font-family="sans-serif" font-size="14" lengthAdjust="spacing" textLength="85" x="1155" y="867.0332">convert(date)</text></g><!--MD5=[8ff80e6766dfb2299c3fd3846deb423c]
class convertT--><g id="elem_convertT"><rect codeLine="67" fill="#F1F1F1" height="65.6094" id="convertT" rx="2.5" ry="2.5" style="stroke:#181818;stroke-width:0.5;" width="158" x="1327.5" y="808.5"/><ellipse cx="1342.5" cy="824.5" fill="#ADD1B2" rx="11" ry="11" style="stroke:#181818;stroke-width:1.0;"/><path d="M1344.5,821 Q1344.7031,820.5 1344.9375,820.25 Q1345.1719,820 1345.4375,820 Q1345.9063,820 1346.2031,820.2813 Q1346.5,820.5625 1346.5,821.2188 L1346.5,822.7813 Q1346.5,823.4375 1346.2188,823.7188 Q1345.9375,824 1345.5,824 Q1345.1094,824 1344.8594,823.8281 Q1344.6094,823.6563 1344.5,823.2031 Q1344.4531,822.8906 1344.2813,822.7188 Q1343.9688,822.3906 1343.4063,822.2031 Q1342.8438,822 1342.2813,822 Q1341.5781,822 1340.9844,822.2813 Q1340.4063,822.5625 1339.9531,823.1875 Q1339.5,823.8125 1339.5,824.6719 L1339.5,825.5938 Q1339.5,826.625 1340.3438,827.3125 Q1341.1875,828 1342.6875,828 Q1343.5781,828 1344.2031,827.7969 Q1344.5625,827.6875 1344.9688,827.3281 Q1345.2344,827.125 1345.375,827.0625 Q1345.5156,827 1345.6875,827 Q1346.0156,827 1346.25,827.2656 Q1346.5,827.5156 1346.5,827.875 Q1346.5,828.2188 1346.1563,828.625 Q1345.6563,829.2188 1344.8594,829.5469 Q1343.8125,830 1342.5313,830 Q1341.0313,830 1339.8281,829.4063 Q1338.8594,828.9375 1338.1719,827.9219 Q1337.5,826.9063 1337.5,825.7031 L1337.5,824.6094 Q1337.5,823.3594 1338.0938,822.2656 Q1338.7031,821.1719 1339.75,820.5938 Q1340.8125,820 1342,820 Q1342.7188,820 1343.3438,820.25 Q1343.9688,820.5 1344.5,821 Z " fill="#000000"/><text fill="#000000" font-family="sans-serif" font-size="14" lengthAdjust="spacing" textLength="126" x="1356.5" y="830.2285">ConvertTimeFormat</text><line style="stroke:#181818;stroke-width:0.5;" x1="1328.5" x2="1484.5" y1="840.5" y2="840.5"/><line style="stroke:#181818;stroke-width:0.5;" x1="1328.5" x2="1484.5" y1="848.5" y2="848.5"/><ellipse cx="1338.5" cy="859.5" fill="#84BE84" rx="3" ry="3" style="stroke:#038048;stroke-width:1.0;"/><text fill="#000000" font-family="sans-serif" font-size="14" lengthAdjust="spacing" textLength="83" x="1347.5" y="867.0332">convert(time)</text></g><!--MD5=[06ca5c7de1cca41d88781d65f376bec1]
class dt--><g id="elem_dt"><rect codeLine="71" fill="#F1F1F1" height="118.4375" id="dt" rx="2.5" ry="2.5" style="stroke:#181818;stroke-width:0.5;" width="93" x="1755" y="782.5"/><ellipse cx="1770" cy="798.5" fill="#ADD1B2" rx="11" ry="11" style="stroke:#181818;stroke-width:1.0;"/><path d="M1772,795 Q1772.2031,794.5 1772.4375,794.25 Q1772.6719,794 1772.9375,794 Q1773.4063,794 1773.7031,794.2813 Q1774,794.5625 1774,795.2188 L1774,796.7813 Q1774,797.4375 1773.7188,797.7188 Q1773.4375,798 1773,798 Q1772.6094,798 1772.3594,797.8281 Q1772.1094,797.6563 1772,797.2031 Q1771.9531,796.8906 1771.7813,796.7188 Q1771.4688,796.3906 1770.9063,796.2031 Q1770.3438,796 1769.7813,796 Q1769.0781,796 1768.4844,796.2813 Q1767.9063,796.5625 1767.4531,797.1875 Q1767,797.8125 1767,798.6719 L1767,799.5938 Q1767,800.625 1767.8438,801.3125 Q1768.6875,802 1770.1875,802 Q1771.0781,802 1771.7031,801.7969 Q1772.0625,801.6875 1772.4688,801.3281 Q1772.7344,801.125 1772.875,801.0625 Q1773.0156,801 1773.1875,801 Q1773.5156,801 1773.75,801.2656 Q1774,801.5156 1774,801.875 Q1774,802.2188 1773.6563,802.625 Q1773.1563,803.2188 1772.3594,803.5469 Q1771.3125,804 1770.0313,804 Q1768.5313,804 1767.3281,803.4063 Q1766.3594,802.9375 1765.6719,801.9219 Q1765,800.9063 1765,799.7031 L1765,798.6094 Q1765,797.3594 1765.5938,796.2656 Q1766.2031,795.1719 1767.25,794.5938 Q1768.3125,794 1769.5,794 Q1770.2188,794 1770.8438,794.25 Q1771.4688,794.5 1772,795 Z " fill="#000000"/><text fill="#000000" font-family="sans-serif" font-size="14" lengthAdjust="spacing" textLength="61" x="1784" y="804.2285">DateTime</text><line style="stroke:#181818;stroke-width:0.5;" x1="1756" x2="1847" y1="814.5" y2="814.5"/><rect fill="none" height="6" style="stroke:#C82930;stroke-width:1.0;" width="6" x="1763" y="822.5"/><text fill="#000000" font-family="sans-serif" font-size="14" lengthAdjust="spacing" textLength="28" x="1775" y="833.0332">date</text><rect fill="none" height="6" style="stroke:#C82930;stroke-width:1.0;" width="6" x="1763" y="840.1094"/><text fill="#000000" font-family="sans-serif" font-size="14" lengthAdjust="spacing" textLength="26" x="1775" y="850.6426">time</text><line style="stroke:#181818;stroke-width:0.5;" x1="1756" x2="1847" y1="857.7188" y2="857.7188"/><ellipse cx="1766" cy="868.7188" fill="#84BE84" rx="3" ry="3" style="stroke:#038048;stroke-width:1.0;"/><text fill="#000000" font-family="sans-serif" font-size="14" lengthAdjust="spacing" textLength="59" x="1775" y="876.252">validate()</text><ellipse cx="1766" cy="886.3281" fill="#84BE84" rx="3" ry="3" style="stroke:#038048;stroke-width:1.0;"/><text fill="#000000" font-family="sans-serif" font-size="14" lengthAdjust="spacing" textLength="59" x="1775" y="893.8613">toString()</text></g><!--MD5=[c4e7624bf32d18281a08c375703e22f0]
class adt--><g id="elem_adt"><rect codeLine="78" fill="#F1F1F1" height="48" id="adt" rx="2.5" ry="2.5" style="stroke:#181818;stroke-width:0.5;" width="133" x="2016" y="1014"/><ellipse cx="2031" cy="1030" fill="#ADD1B2" rx="11" ry="11" style="stroke:#181818;stroke-width:1.0;"/><path d="M2033,1026.5 Q2033.2031,1026 2033.4375,1025.75 Q2033.6719,1025.5 2033.9375,1025.5 Q2034.4063,1025.5 2034.7031,1025.7813 Q2035,1026.0625 2035,1026.7188 L2035,1028.2813 Q2035,1028.9375 2034.7188,1029.2188 Q2034.4375,1029.5 2034,1029.5 Q2033.6094,1029.5 2033.3594,1029.3281 Q2033.1094,1029.1563 2033,1028.7031 Q2032.9531,1028.3906 2032.7813,1028.2188 Q2032.4688,1027.8906 2031.9063,1027.7031 Q2031.3438,1027.5 2030.7813,1027.5 Q2030.0781,1027.5 2029.4844,1027.7813 Q2028.9063,1028.0625 2028.4531,1028.6875 Q2028,1029.3125 2028,1030.1719 L2028,1031.0938 Q2028,1032.125 2028.8438,1032.8125 Q2029.6875,1033.5 2031.1875,1033.5 Q2032.0781,1033.5 2032.7031,1033.2969 Q2033.0625,1033.1875 2033.4688,1032.8281 Q2033.7344,1032.625 2033.875,1032.5625 Q2034.0156,1032.5 2034.1875,1032.5 Q2034.5156,1032.5 2034.75,1032.7656 Q2035,1033.0156 2035,1033.375 Q2035,1033.7188 2034.6563,1034.125 Q2034.1563,1034.7188 2033.3594,1035.0469 Q2032.3125,1035.5 2031.0313,1035.5 Q2029.5313,1035.5 2028.3281,1034.9063 Q2027.3594,1034.4375 2026.6719,1033.4219 Q2026,1032.4063 2026,1031.2031 L2026,1030.1094 Q2026,1028.8594 2026.5938,1027.7656 Q2027.2031,1026.6719 2028.25,1026.0938 Q2029.3125,1025.5 2030.5,1025.5 Q2031.2188,1025.5 2031.8438,1025.75 Q2032.4688,1026 2033,1026.5 Z " fill="#000000"/><text fill="#000000" font-family="sans-serif" font-size="14" lengthAdjust="spacing" textLength="101" x="2045" y="1035.7285">ArrivalDateTime</text><line style="stroke:#181818;stroke-width:0.5;" x1="2017" x2="2148" y1="1046" y2="1046"/><line style="stroke:#181818;stroke-width:0.5;" x1="2017" x2="2148" y1="1054" y2="1054"/></g><!--MD5=[184c0398ced6c85e6ed33d6348059f52]
class sdt--><g id="elem_sdt"><rect codeLine="81" fill="#F1F1F1" height="48" id="sdt" rx="2.5" ry="2.5" style="stroke:#181818;stroke-width:0.5;" width="152" x="1446.5" y="1014"/><ellipse cx="1461.5" cy="1030" fill="#ADD1B2" rx="11" ry="11" style="stroke:#181818;stroke-width:1.0;"/><path d="M1463.5,1026.5 Q1463.7031,1026 1463.9375,1025.75 Q1464.1719,1025.5 1464.4375,1025.5 Q1464.9063,1025.5 1465.2031,1025.7813 Q1465.5,1026.0625 1465.5,1026.7188 L1465.5,1028.2813 Q1465.5,1028.9375 1465.2188,1029.2188 Q1464.9375,1029.5 1464.5,1029.5 Q1464.1094,1029.5 1463.8594,1029.3281 Q1463.6094,1029.1563 1463.5,1028.7031 Q1463.4531,1028.3906 1463.2813,1028.2188 Q1462.9688,1027.8906 1462.4063,1027.7031 Q1461.8438,1027.5 1461.2813,1027.5 Q1460.5781,1027.5 1459.9844,1027.7813 Q1459.4063,1028.0625 1458.9531,1028.6875 Q1458.5,1029.3125 1458.5,1030.1719 L1458.5,1031.0938 Q1458.5,1032.125 1459.3438,1032.8125 Q1460.1875,1033.5 1461.6875,1033.5 Q1462.5781,1033.5 1463.2031,1033.2969 Q1463.5625,1033.1875 1463.9688,1032.8281 Q1464.2344,1032.625 1464.375,1032.5625 Q1464.5156,1032.5 1464.6875,1032.5 Q1465.0156,1032.5 1465.25,1032.7656 Q1465.5,1033.0156 1465.5,1033.375 Q1465.5,1033.7188 1465.1563,1034.125 Q1464.6563,1034.7188 1463.8594,1035.0469 Q1462.8125,1035.5 1461.5313,1035.5 Q1460.0313,1035.5 1458.8281,1034.9063 Q1457.8594,1034.4375 1457.1719,1033.4219 Q1456.5,1032.4063 1456.5,1031.2031 L1456.5,1030.1094 Q1456.5,1028.8594 1457.0938,1027.7656 Q1457.7031,1026.6719 1458.75,1026.0938 Q1459.8125,1025.5 1461,1025.5 Q1461.7188,1025.5 1462.3438,1025.75 Q1462.9688,1026 1463.5,1026.5 Z " fill="#000000"/><text fill="#000000" font-family="sans-serif" font-size="14" lengthAdjust="spacing" textLength="120" x="1475.5" y="1035.7285">ScheduleDateTime</text><line style="stroke:#181818;stroke-width:0.5;" x1="1447.5" x2="1597.5" y1="1046" y2="1046"/><line style="stroke:#181818;stroke-width:0.5;" x1="1447.5" x2="1597.5" y1="1054" y2="1054"/></g><!--MD5=[3d9093440e724dab601ee2e2a5a42a13]
class ldt--><g id="elem_ldt"><rect codeLine="84" fill="#F1F1F1" height="48" id="ldt" rx="2.5" ry="2.5" style="stroke:#181818;stroke-width:0.5;" width="143" x="1634" y="1014"/><ellipse cx="1649" cy="1030" fill="#ADD1B2" rx="11" ry="11" style="stroke:#181818;stroke-width:1.0;"/><path d="M1651,1026.5 Q1651.2031,1026 1651.4375,1025.75 Q1651.6719,1025.5 1651.9375,1025.5 Q1652.4063,1025.5 1652.7031,1025.7813 Q1653,1026.0625 1653,1026.7188 L1653,1028.2813 Q1653,1028.9375 1652.7188,1029.2188 Q1652.4375,1029.5 1652,1029.5 Q1651.6094,1029.5 1651.3594,1029.3281 Q1651.1094,1029.1563 1651,1028.7031 Q1650.9531,1028.3906 1650.7813,1028.2188 Q1650.4688,1027.8906 1649.9063,1027.7031 Q1649.3438,1027.5 1648.7813,1027.5 Q1648.0781,1027.5 1647.4844,1027.7813 Q1646.9063,1028.0625 1646.4531,1028.6875 Q1646,1029.3125 1646,1030.1719 L1646,1031.0938 Q1646,1032.125 1646.8438,1032.8125 Q1647.6875,1033.5 1649.1875,1033.5 Q1650.0781,1033.5 1650.7031,1033.2969 Q1651.0625,1033.1875 1651.4688,1032.8281 Q1651.7344,1032.625 1651.875,1032.5625 Q1652.0156,1032.5 1652.1875,1032.5 Q1652.5156,1032.5 1652.75,1032.7656 Q1653,1033.0156 1653,1033.375 Q1653,1033.7188 1652.6563,1034.125 Q1652.1563,1034.7188 1651.3594,1035.0469 Q1650.3125,1035.5 1649.0313,1035.5 Q1647.5313,1035.5 1646.3281,1034.9063 Q1645.3594,1034.4375 1644.6719,1033.4219 Q1644,1032.4063 1644,1031.2031 L1644,1030.1094 Q1644,1028.8594 1644.5938,1027.7656 Q1645.2031,1026.6719 1646.25,1026.0938 Q1647.3125,1025.5 1648.5,1025.5 Q1649.2188,1025.5 1649.8438,1025.75 Q1650.4688,1026 1651,1026.5 Z " fill="#000000"/><text fill="#000000" font-family="sans-serif" font-size="14" lengthAdjust="spacing" textLength="111" x="1663" y="1035.7285">LeavingDateTime</text><line style="stroke:#181818;stroke-width:0.5;" x1="1635" x2="1776" y1="1046" y2="1046"/><line style="stroke:#181818;stroke-width:0.5;" x1="1635" x2="1776" y1="1054" y2="1054"/></g><!--MD5=[5d39d395b894756301cae6af967e5520]
class ndt--><g id="elem_ndt"><rect codeLine="87" fill="#F1F1F1" height="48" id="ndt" rx="2.5" ry="2.5" style="stroke:#181818;stroke-width:0.5;" width="169" x="1812" y="1014"/><ellipse cx="1827" cy="1030" fill="#ADD1B2" rx="11" ry="11" style="stroke:#181818;stroke-width:1.0;"/><path d="M1829,1026.5 Q1829.2031,1026 1829.4375,1025.75 Q1829.6719,1025.5 1829.9375,1025.5 Q1830.4063,1025.5 1830.7031,1025.7813 Q1831,1026.0625 1831,1026.7188 L1831,1028.2813 Q1831,1028.9375 1830.7188,1029.2188 Q1830.4375,1029.5 1830,1029.5 Q1829.6094,1029.5 1829.3594,1029.3281 Q1829.1094,1029.1563 1829,1028.7031 Q1828.9531,1028.3906 1828.7813,1028.2188 Q1828.4688,1027.8906 1827.9063,1027.7031 Q1827.3438,1027.5 1826.7813,1027.5 Q1826.0781,1027.5 1825.4844,1027.7813 Q1824.9063,1028.0625 1824.4531,1028.6875 Q1824,1029.3125 1824,1030.1719 L1824,1031.0938 Q1824,1032.125 1824.8438,1032.8125 Q1825.6875,1033.5 1827.1875,1033.5 Q1828.0781,1033.5 1828.7031,1033.2969 Q1829.0625,1033.1875 1829.4688,1032.8281 Q1829.7344,1032.625 1829.875,1032.5625 Q1830.0156,1032.5 1830.1875,1032.5 Q1830.5156,1032.5 1830.75,1032.7656 Q1831,1033.0156 1831,1033.375 Q1831,1033.7188 1830.6563,1034.125 Q1830.1563,1034.7188 1829.3594,1035.0469 Q1828.3125,1035.5 1827.0313,1035.5 Q1825.5313,1035.5 1824.3281,1034.9063 Q1823.3594,1034.4375 1822.6719,1033.4219 Q1822,1032.4063 1822,1031.2031 L1822,1030.1094 Q1822,1028.8594 1822.5938,1027.7656 Q1823.2031,1026.6719 1824.25,1026.0938 Q1825.3125,1025.5 1826.5,1025.5 Q1827.2188,1025.5 1827.8438,1025.75 Q1828.4688,1026 1829,1026.5 Z " fill="#000000"/><text fill="#000000" font-family="sans-serif" font-size="14" lengthAdjust="spacing" textLength="137" x="1841" y="1035.7285">NurseAdminDateTime</text><line style="stroke:#181818;stroke-width:0.5;" x1="1813" x2="1980" y1="1046" y2="1046"/><line style="stroke:#181818;stroke-width:0.5;" x1="1813" x2="1980" y1="1054" y2="1054"/></g><!--MD5=[65605f4b9fcf838a026dcfadc852f609]
link ui to ctrl--><g id="link_ui_ctrl"><path codeLine="90" d="M978.5,90.27 C978.5,111.28 978.5,137.67 978.5,162.62 " fill="none" id="ui-to-ctrl" style="stroke:#181818;stroke-width:1.0;stroke-dasharray:7.0,7.0;"/><polygon fill="#181818" points="978.5,167.92,982.5,158.92,978.5,162.92,974.5,158.92,978.5,167.92" style="stroke:#181818;stroke-width:1.0;"/><text fill="#000000" font-family="sans-serif" font-size="13" lengthAdjust="spacing" textLength="87" x="979.5" y="134.4951">gives file's path</text></g><!--MD5=[7a193c697829bc99e6f3c2977d3013b3]
link ctrl to load--><g id="link_ctrl_load"><path codeLine="91" d="M978.5,322.35 C978.5,367.42 978.5,423.79 978.5,466.34 " fill="none" id="ctrl-to-load" style="stroke:#181818;stroke-width:1.0;stroke-dasharray:7.0,7.0;"/><polygon fill="#181818" points="978.5,471.46,982.5,462.46,978.5,466.46,974.5,462.46,978.5,471.46" style="stroke:#181818;stroke-width:1.0;"/></g><!--MD5=[3ab3d84319828f84b3d022c364e457e3]
link load to convertT--><g id="link_load_convertT"><path codeLine="92" d="M1070.48,589.61 C1138.09,633.34 1231.38,695.84 1309.5,756 C1329.24,771.2 1350.2,789.2 1367.56,804.68 " fill="none" id="load-to-convertT" style="stroke:#181818;stroke-width:1.0;"/><polygon fill="#181818" points="1371.44,808.14,1367.4091,799.1538,1367.7172,804.8023,1362.0687,805.1104,1371.44,808.14" style="stroke:#181818;stroke-width:1.0;"/><text fill="#000000" font-family="sans-serif" font-size="13" lengthAdjust="spacing" textLength="77" x="1267.5" y="722.4951">converts time</text></g><!--MD5=[d9633492f1320a933d4199776cd13cb8]
link load to convertD--><g id="link_load_convertD"><path codeLine="93" d="M1022.7,589.62 C1070.65,652.66 1145.7,751.35 1185.89,804.2 " fill="none" id="load-to-convertD" style="stroke:#181818;stroke-width:1.0;"/><polygon fill="#181818" points="1188.96,808.24,1186.6998,798.654,1185.9349,804.2589,1180.33,803.4941,1188.96,808.24" style="stroke:#181818;stroke-width:1.0;"/><text fill="#000000" font-family="sans-serif" font-size="13" lengthAdjust="spacing" textLength="77" x="1125.5" y="722.4951">converts date</text></g><!--MD5=[7e0c40db2ee6fb5b488b86b445d8d7c0]
link load to cd--><g id="link_load_cd"><path codeLine="94" d="M1154.04,530.5 C1215.59,530.5 1287.77,530.5 1361.18,530.5 " fill="none" id="load-to-cd" style="stroke:#181818;stroke-width:1.0;"/><polygon fill="#181818" points="1366.47,530.5,1357.47,526.5,1361.47,530.5,1357.47,534.5,1366.47,530.5" style="stroke:#181818;stroke-width:1.0;"/><text fill="#000000" font-family="sans-serif" font-size="13" lengthAdjust="spacing" textLength="176" x="1172.25" y="523.9951">creates instance with file's info</text></g><!--MD5=[5fb6f2c804bb0b67e5181f1122880d73]
link cd to dt--><g id="link_cd_dt"><path codeLine="95" d="M1801.5,678.31 C1801.5,713.05 1801.5,748.31 1801.5,777.04 " fill="none" id="cd-to-dt" style="stroke:#181818;stroke-width:1.0;stroke-dasharray:7.0,7.0;"/><polygon fill="#181818" points="1801.5,782.33,1805.5,773.33,1801.5,777.33,1797.5,773.33,1801.5,782.33" style="stroke:#181818;stroke-width:1.0;"/><text fill="#000000" font-family="sans-serif" font-size="13" lengthAdjust="spacing" textLength="238" x="1802.5" y="722.4951">creates instances for DateTime attributes</text></g><!--MD5=[851d9527b063225b55039314edb7b995]
reverse link comp to load--><g id="link_comp_load"><path codeLine="96" d="M657.21,530.5 C699.62,530.5 752.29,530.5 802.63,530.5 " fill="none" id="comp-backto-load" style="stroke:#181818;stroke-width:1.0;"/><polygon fill="#181818" points="652.08,530.5,661.08,534.5,657.08,530.5,661.08,526.5,652.08,530.5" style="stroke:#181818;stroke-width:1.0;"/><text fill="#000000" font-family="sans-serif" font-size="13" lengthAdjust="spacing" textLength="114" x="670.5" y="523.9951">gets SNSUserStore</text></g><!--MD5=[65b1885f3cfc46b124fb93745d50a505]
link load to loadCtrl--><g id="link_load_loadCtrl"><path codeLine="97" d="M873.7,589.59 C815.15,619.88 739.98,655.24 669.5,678 C487.16,736.88 423.25,684.45 245.5,756 C215.26,768.17 184.67,788.03 160.98,805.43 " fill="none" id="load-to-loadCtrl" style="stroke:#181818;stroke-width:1.0;"/><polygon fill="#181818" points="156.94,808.43,166.5537,806.2905,160.9588,805.4552,161.794,799.8604,156.94,808.43" style="stroke:#181818;stroke-width:1.0;"/><text fill="#000000" font-family="sans-serif" font-size="13" lengthAdjust="spacing" textLength="146" x="524.5" y="722.4951">access to SNSUserStore</text></g><!--MD5=[f41730d13affabba3ef1dab077d31d71]
link loadCtrl to snsStore--><g id="link_loadCtrl_snsStore"><path codeLine="98" d="M117.5,874.62 C117.5,908.97 117.5,963.38 117.5,999.62 " fill="none" id="loadCtrl-to-snsStore" style="stroke:#181818;stroke-width:1.0;"/><polygon fill="#181818" points="117.5,1004.83,121.5,995.83,117.5,999.83,113.5,995.83,117.5,1004.83" style="stroke:#181818;stroke-width:1.0;"/><text fill="#000000" font-family="sans-serif" font-size="13" lengthAdjust="spacing" textLength="165" x="118.5" y="971.4951">checks if SNSnumber exists</text></g><!--MD5=[ed8b5313a9386abf87058eec9ca7f4c4]
reverse link dt to adt--><g id="link_dt_adt"><path codeLine="99" d="M1864.7,886.25 C1921.77,925.75 2003.54,982.35 2048.92,1013.75 " fill="none" id="dt-backto-adt" style="stroke:#181818;stroke-width:1.0;"/><polygon fill="none" points="1860.68,891.97,1848.22,874.84,1868.65,880.46,1860.68,891.97" style="stroke:#181818;stroke-width:1.0;"/><text fill="#000000" font-family="sans-serif" font-size="13" lengthAdjust="spacing" textLength="46" x="1992.5" y="971.4951">extends</text></g><!--MD5=[5aff28c5473f2423fa279333233c74ac]
reverse link dt to sdt--><g id="link_dt_sdt"><path codeLine="100" d="M1738.06,886.73 C1681.39,926.23 1600.62,982.54 1555.76,1013.81 " fill="none" id="dt-backto-sdt" style="stroke:#181818;stroke-width:1.0;"/><polygon fill="none" points="1734.39,880.75,1754.8,875.05,1742.4,892.23,1734.39,880.75" style="stroke:#181818;stroke-width:1.0;"/><text fill="#000000" font-family="sans-serif" font-size="13" lengthAdjust="spacing" textLength="46" x="1637.5" y="971.4951">extends</text></g><!--MD5=[2c2c286ea8b87977cae5c4d2f610d925]
reverse link dt to ldt--><g id="link_dt_ldt"><path codeLine="101" d="M1763.78,918.91 C1747.09,952.74 1728.65,990.1 1717.07,1013.55 " fill="none" id="dt-backto-ldt" style="stroke:#181818;stroke-width:1.0;"/><polygon fill="none" points="1757.7,915.43,1772.83,900.59,1770.25,921.63,1757.7,915.43" style="stroke:#181818;stroke-width:1.0;"/><text fill="#000000" font-family="sans-serif" font-size="13" lengthAdjust="spacing" textLength="46" x="1745.5" y="971.4951">extends</text></g><!--MD5=[b532d78dfbb39fd72ce9e0ea71b97dea]
reverse link dt to ndt--><g id="link_dt_ndt"><path codeLine="102" d="M1838.82,918.91 C1855.35,952.74 1873.59,990.1 1885.05,1013.55 " fill="none" id="dt-backto-ndt" style="stroke:#181818;stroke-width:1.0;"/><polygon fill="none" points="1832.36,921.64,1829.87,900.59,1844.94,915.49,1832.36,921.64" style="stroke:#181818;stroke-width:1.0;"/><text fill="#000000" font-family="sans-serif" font-size="13" lengthAdjust="spacing" textLength="46" x="1866.5" y="971.4951">extends</text></g><!--MD5=[b3afe6f755d40d43447adc47722c0895]
link load to store--><g id="link_load_store"><path codeLine="103" d="M922.64,589.62 C878.66,635.38 816.63,699.91 766.5,752.06 " fill="none" id="load-to-store" style="stroke:#181818;stroke-width:1.0;stroke-dasharray:7.0,7.0;"/><polygon fill="#181818" points="762.91,755.8,772.029,752.0791,766.3733,752.1936,766.2588,746.5379,762.91,755.8" style="stroke:#181818;stroke-width:1.0;"/><text fill="#000000" font-family="sans-serif" font-size="13" lengthAdjust="spacing" textLength="149" x="804.5" y="722.4951">loads center data from file</text></g><!--MD5=[c10be4f1300c0c0f2e6a55c4d5d66655]
@startuml


class "FileLoader" as load{
-centerDataFile
-centerDataList
+loadFile((boolean) isCenter)
+FileLoader(filePath, (boolean) isCenterConstructor)
}

class "FileLoaderController" as loadCtrl {
+checkSNSnumExists (SNSnum)
}

class "SNSUserStore" as snsStore{
+checkSNSnumExists(SNSnum)
}

class "CenterDataController" as ctrl{
+createCenterDataFileLoader(path)
+getCD(arrDate, arrTime, schDate, schTime, adminDate, adminTime, leaveDate, leaveTime, SNSnum, lot, vacName, currentDose)
+validateCenterData(cd)
+loadCenterDataFile()
+loadCenterData(cdList)
+centerDataLineExists(cd)
}

class "CenterData" as cd{
-arr
-sch
-admin
-leave
-SNSnum
-lot
-vacName
-currentDose
+CenterData(arrDate, arrTime, schDate, schTime, adminDate, adminTime, leaveDate, leaveTime, SNSnum, lot, vacName, currentDose)
+toString()
+validateSNSnumber()
+validateCenterData()
+validateLotNumber()
+equals()
}

class "CenterDataStore" as store{
-cd
-store
+create(arrDate, arrTime, schDate, schTime, adminDate, adminTime, leaveDate, leaveTime, SNSnum, lot, vacName, currentDose)
+validate(cd)
+loadToLocalList()
+saveList()
+CenterDataExists(cd)
}

class "CenterDataUI" as ui{
+centerDataMenu()
+confirmFilePath(filePath)
}

class "Company" as comp{
+getCenterDataStore()
}

class "ConvertDateFormat" as convertD {
+convert(date)
}

class "ConvertTimeFormat" as convertT {
+convert(time)
}

class "DateTime" as dt{
-date
-time
+validate()
+toString()
}

class "ArrivalDateTime" as adt{
}

class "ScheduleDateTime" as sdt{
}

class "LeavingDateTime" as ldt{
}

class "NurseAdminDateTime" as ndt{
}

ui ..> ctrl : gives file's path
ctrl ..> load
load - -> convertT : converts time
load - -> convertD : converts date
load -> cd : creates instance with file's info
cd ..> dt : creates instances for DateTime attributes
load -left-> comp : gets SNSUserStore
load - -> loadCtrl : access to SNSUserStore
loadCtrl -down-> snsStore : checks if SNSnumber exists
adt -up-|> dt : extends
sdt -up-|> dt : extends
ldt -up-|> dt : extends
ndt -up-|> dt : extends
load ..> store : loads center data from file

@enduml

PlantUML version 1.2022.5(Sat Apr 30 11:55:52 BST 2022)
(GPL source distribution)
Java Runtime: OpenJDK Runtime Environment
JVM: OpenJDK 64-Bit Server VM
Default Encoding: Cp1252
Language: en
Country: US
--></g></svg>