<?xml version="1.0" encoding="UTF-8" standalone="no"?><svg xmlns="http://www.w3.org/2000/svg" xmlns:xlink="http://www.w3.org/1999/xlink" contentStyleType="text/css" height="1500px" preserveAspectRatio="none" style="width:2940px;height:1500px;background:#FFFFFF;" version="1.1" viewBox="0 0 2940 1500" width="2940px" zoomAndPan="magnify"><defs/><g><rect fill="#FFFFFF" height="1307.4453" style="stroke:#181818;stroke-width:1.0;" width="10" x="234" y="92.6094"/><rect fill="#FFFFFF" height="122.6641" style="stroke:#181818;stroke-width:1.0;" width="10" x="536" y="134.3125"/><rect fill="#FFFFFF" height="39" style="stroke:#181818;stroke-width:1.0;" width="10" x="536" y="1370.0547"/><rect fill="#FFFFFF" height="30.3516" style="stroke:#181818;stroke-width:1.0;" width="10" x="788" y="184.0156"/><rect fill="#FFFFFF" height="41.5273" style="stroke:#181818;stroke-width:1.0;" width="10" x="788" y="256.9766"/><rect fill="#FFFFFF" height="86.0547" style="stroke:#181818;stroke-width:1.0;" width="10" x="788" y="1246.6484"/><rect fill="#FFFFFF" height="230.9336" style="stroke:#181818;stroke-width:1.0;" width="10" x="1063" y="298.5039"/><rect fill="#FFFFFF" height="156.0547" style="stroke:#181818;stroke-width:1.0;" width="10" x="1068" y="373.3828"/><rect fill="#FFFFFF" height="393.8125" style="stroke:#181818;stroke-width:1.0;" width="10" x="1063" y="1015.2422"/><rect fill="#FFFFFF" height="28" style="stroke:#181818;stroke-width:1.0;" width="10" x="1068" y="1174.2969"/><rect fill="#FFFFFF" height="30" style="stroke:#181818;stroke-width:1.0;" width="10" x="1341" y="408.7344"/><rect fill="#FFFFFF" height="30" style="stroke:#181818;stroke-width:1.0;" width="10" x="1490.5" y="469.0859"/><rect fill="#FFFFFF" height="434.2773" style="stroke:#181818;stroke-width:1.0;" width="10" x="1614" y="539.4375"/><rect fill="#FFFFFF" height="223.2305" style="stroke:#181818;stroke-width:1.0;" width="10" x="1619" y="750.4844"/><rect fill="#FFFFFF" height="28" style="stroke:#181818;stroke-width:1.0;" width="10" x="1624" y="793.8359"/><rect fill="#FFFFFF" height="28" style="stroke:#181818;stroke-width:1.0;" width="10" x="1624" y="867.1875"/><rect fill="#FFFFFF" height="30" style="stroke:#181818;stroke-width:1.0;" width="10" x="2359.5" y="943.7148"/><rect fill="#FFFFFF" height="120.7031" style="stroke:#181818;stroke-width:1.0;" width="10" x="2479" y="1015.2422"/><rect fill="#FFFFFF" height="30" style="stroke:#181818;stroke-width:1.0;" width="10" x="2637" y="1045.5938"/><rect fill="#FFFFFF" height="30" style="stroke:#181818;stroke-width:1.0;" width="10" x="2736" y="1105.9453"/><rect fill="#FFFFFF" height="30.3516" style="stroke:#181818;stroke-width:1.0;" width="10" x="2858.5" y="1302.3516"/><rect height="892.6172" style="stroke:#000000;stroke-width:1.5;fill:none;" width="1786" x="1017" y="324.6797"/><rect height="79.0547" style="stroke:#000000;stroke-width:1.5;fill:none;" width="2225.5" x="708.5" y="1261.6484"/><line style="stroke:#181818;stroke-width:0.5;fill:none;stroke-dasharray:5.0,5.0;" x1="239" x2="239" y1="82.6094" y2="1418.0547"/><line style="stroke:#181818;stroke-width:0.5;fill:none;stroke-dasharray:5.0,5.0;" x1="540.5" x2="540.5" y1="82.6094" y2="1418.0547"/><line style="stroke:#181818;stroke-width:0.5;fill:none;stroke-dasharray:5.0,5.0;" x1="792.5" x2="792.5" y1="82.6094" y2="1418.0547"/><line style="stroke:#181818;stroke-width:0.5;fill:none;stroke-dasharray:5.0,5.0;" x1="1068" x2="1068" y1="223.3203" y2="1418.0547"/><line style="stroke:#181818;stroke-width:0.5;fill:none;stroke-dasharray:5.0,5.0;" x1="1345.5" x2="1345.5" y1="82.6094" y2="1418.0547"/><line style="stroke:#181818;stroke-width:0.5;fill:none;stroke-dasharray:5.0,5.0;" x1="1495.5" x2="1495.5" y1="82.6094" y2="1418.0547"/><line style="stroke:#181818;stroke-width:0.5;fill:none;stroke-dasharray:5.0,5.0;" x1="1618.5" x2="1618.5" y1="538.3906" y2="1418.0547"/><line style="stroke:#181818;stroke-width:0.5;fill:none;stroke-dasharray:5.0,5.0;" x1="1856" x2="1856" y1="581" y2="1418.0547"/><line style="stroke:#181818;stroke-width:0.5;fill:none;stroke-dasharray:5.0,5.0;" x1="1991" x2="1991" y1="623.6094" y2="1418.0547"/><line style="stroke:#181818;stroke-width:0.5;fill:none;stroke-dasharray:5.0,5.0;" x1="2130" x2="2130" y1="666.2188" y2="1418.0547"/><line style="stroke:#181818;stroke-width:0.5;fill:none;stroke-dasharray:5.0,5.0;" x1="2260" x2="2260" y1="708.8281" y2="1418.0547"/><line style="stroke:#181818;stroke-width:0.5;fill:none;stroke-dasharray:5.0,5.0;" x1="2364" x2="2364" y1="82.6094" y2="1418.0547"/><line style="stroke:#181818;stroke-width:0.5;fill:none;stroke-dasharray:5.0,5.0;" x1="2484" x2="2484" y1="82.6094" y2="1418.0547"/><line style="stroke:#181818;stroke-width:0.5;fill:none;stroke-dasharray:5.0,5.0;" x1="2642" x2="2642" y1="82.6094" y2="1418.0547"/><line style="stroke:#181818;stroke-width:0.5;fill:none;stroke-dasharray:5.0,5.0;" x1="2741" x2="2741" y1="82.6094" y2="1418.0547"/><line style="stroke:#181818;stroke-width:0.5;fill:none;stroke-dasharray:5.0,5.0;" x1="2863" x2="2863" y1="82.6094" y2="1418.0547"/><text fill="#000000" font-family="sans-serif" font-size="14" lengthAdjust="spacing" textLength="72" x="200" y="79.5332">coordinator</text><ellipse cx="239" cy="13.5" fill="#E2E2F0" rx="8" ry="8" style="stroke:#181818;stroke-width:0.5;"/><path d="M239,21.5 L239,48.5 M226,29.5 L252,29.5 M239,48.5 L226,63.5 M239,48.5 L252,63.5 " fill="none" style="stroke:#181818;stroke-width:0.5;"/><text fill="#000000" font-family="sans-serif" font-size="14" lengthAdjust="spacing" textLength="72" x="200" y="1431.5879">coordinator</text><ellipse cx="239" cy="1443.1641" fill="#E2E2F0" rx="8" ry="8" style="stroke:#181818;stroke-width:0.5;"/><path d="M239,1451.1641 L239,1478.1641 M226,1459.1641 L252,1459.1641 M239,1478.1641 L226,1493.1641 M239,1478.1641 L252,1493.1641 " fill="none" style="stroke:#181818;stroke-width:0.5;"/><rect fill="#E2E2F0" height="31.6094" rx="2.5" ry="2.5" style="stroke:#181818;stroke-width:0.5;" width="99" x="491.5" y="50"/><text fill="#000000" font-family="sans-serif" font-size="14" lengthAdjust="spacing" textLength="85" x="498.5" y="71.5332">CenterDataUI</text><rect fill="#E2E2F0" height="31.6094" rx="2.5" ry="2.5" style="stroke:#181818;stroke-width:0.5;" width="99" x="491.5" y="1417.0547"/><text fill="#000000" font-family="sans-serif" font-size="14" lengthAdjust="spacing" textLength="85" x="498.5" y="1438.5879">CenterDataUI</text><rect fill="#E2E2F0" height="31.6094" rx="2.5" ry="2.5" style="stroke:#181818;stroke-width:0.5;" width="149" x="718.5" y="50"/><text fill="#000000" font-family="sans-serif" font-size="14" lengthAdjust="spacing" textLength="135" x="725.5" y="71.5332">CenterDataController</text><rect fill="#E2E2F0" height="31.6094" rx="2.5" ry="2.5" style="stroke:#181818;stroke-width:0.5;" width="149" x="718.5" y="1417.0547"/><text fill="#000000" font-family="sans-serif" font-size="14" lengthAdjust="spacing" textLength="135" x="725.5" y="1438.5879">CenterDataController</text><rect fill="#E2E2F0" height="31.6094" rx="2.5" ry="2.5" style="stroke:#181818;stroke-width:0.5;" width="82" x="1027" y="1417.0547"/><text fill="#000000" font-family="sans-serif" font-size="14" lengthAdjust="spacing" textLength="68" x="1034" y="1438.5879">FileLoader</text><rect fill="#E2E2F0" height="31.6094" rx="2.5" ry="2.5" style="stroke:#181818;stroke-width:0.5;" width="139" x="1276.5" y="50"/><text fill="#000000" font-family="sans-serif" font-size="14" lengthAdjust="spacing" textLength="125" x="1283.5" y="71.5332">ConvertDateFormat</text><rect fill="#E2E2F0" height="31.6094" rx="2.5" ry="2.5" style="stroke:#181818;stroke-width:0.5;" width="139" x="1276.5" y="1417.0547"/><text fill="#000000" font-family="sans-serif" font-size="14" lengthAdjust="spacing" textLength="125" x="1283.5" y="1438.5879">ConvertDateFormat</text><rect fill="#E2E2F0" height="31.6094" rx="2.5" ry="2.5" style="stroke:#181818;stroke-width:0.5;" width="140" x="1425.5" y="50"/><text fill="#000000" font-family="sans-serif" font-size="14" lengthAdjust="spacing" textLength="126" x="1432.5" y="71.5332">ConvertTimeFormat</text><rect fill="#E2E2F0" height="31.6094" rx="2.5" ry="2.5" style="stroke:#181818;stroke-width:0.5;" width="140" x="1425.5" y="1417.0547"/><text fill="#000000" font-family="sans-serif" font-size="14" lengthAdjust="spacing" textLength="126" x="1432.5" y="1438.5879">ConvertTimeFormat</text><rect fill="#E2E2F0" height="31.6094" rx="2.5" ry="2.5" style="stroke:#181818;stroke-width:0.5;" width="87" x="1575.5" y="1417.0547"/><text fill="#000000" font-family="sans-serif" font-size="14" lengthAdjust="spacing" textLength="73" x="1582.5" y="1438.5879">CenterData</text><rect fill="#E2E2F0" height="31.6094" rx="2.5" ry="2.5" style="stroke:#181818;stroke-width:0.5;" width="115" x="1799" y="1417.0547"/><text fill="#000000" font-family="sans-serif" font-size="14" lengthAdjust="spacing" textLength="101" x="1806" y="1438.5879">ArrivalDateTime</text><rect fill="#E2E2F0" height="31.6094" rx="2.5" ry="2.5" style="stroke:#181818;stroke-width:0.5;" width="134" x="1924" y="1417.0547"/><text fill="#000000" font-family="sans-serif" font-size="14" lengthAdjust="spacing" textLength="120" x="1931" y="1438.5879">ScehduleDateTime</text><rect fill="#E2E2F0" height="31.6094" rx="2.5" ry="2.5" style="stroke:#181818;stroke-width:0.5;" width="125" x="2068" y="1417.0547"/><text fill="#000000" font-family="sans-serif" font-size="14" lengthAdjust="spacing" textLength="111" x="2075" y="1438.5879">LeavingDateTime</text><rect fill="#E2E2F0" height="31.6094" rx="2.5" ry="2.5" style="stroke:#181818;stroke-width:0.5;" width="114" x="2203" y="1417.0547"/><text fill="#000000" font-family="sans-serif" font-size="14" lengthAdjust="spacing" textLength="100" x="2210" y="1438.5879">AdminDateTime</text><rect fill="#E2E2F0" height="31.6094" rx="2.5" ry="2.5" style="stroke:#181818;stroke-width:0.5;" width="75" x="2327" y="50"/><text fill="#000000" font-family="sans-serif" font-size="14" lengthAdjust="spacing" textLength="61" x="2334" y="71.5332">DateTime</text><rect fill="#E2E2F0" height="31.6094" rx="2.5" ry="2.5" style="stroke:#181818;stroke-width:0.5;" width="75" x="2327" y="1417.0547"/><text fill="#000000" font-family="sans-serif" font-size="14" lengthAdjust="spacing" textLength="61" x="2334" y="1438.5879">DateTime</text><rect fill="#E2E2F0" height="31.6094" rx="2.5" ry="2.5" style="stroke:#181818;stroke-width:0.5;" width="144" x="2412" y="50"/><text fill="#000000" font-family="sans-serif" font-size="14" lengthAdjust="spacing" textLength="130" x="2419" y="71.5332">FileLoaderController</text><rect fill="#E2E2F0" height="31.6094" rx="2.5" ry="2.5" style="stroke:#181818;stroke-width:0.5;" width="144" x="2412" y="1417.0547"/><text fill="#000000" font-family="sans-serif" font-size="14" lengthAdjust="spacing" textLength="130" x="2419" y="1438.5879">FileLoaderController</text><rect fill="#E2E2F0" height="31.6094" rx="2.5" ry="2.5" style="stroke:#181818;stroke-width:0.5;" width="74" x="2605" y="50"/><text fill="#000000" font-family="sans-serif" font-size="14" lengthAdjust="spacing" textLength="60" x="2612" y="71.5332">Company</text><rect fill="#E2E2F0" height="31.6094" rx="2.5" ry="2.5" style="stroke:#181818;stroke-width:0.5;" width="74" x="2605" y="1417.0547"/><text fill="#000000" font-family="sans-serif" font-size="14" lengthAdjust="spacing" textLength="60" x="2612" y="1438.5879">Company</text><rect fill="#E2E2F0" height="31.6094" rx="2.5" ry="2.5" style="stroke:#181818;stroke-width:0.5;" width="104" x="2689" y="50"/><text fill="#000000" font-family="sans-serif" font-size="14" lengthAdjust="spacing" textLength="90" x="2696" y="71.5332">SNSUserStore</text><rect fill="#E2E2F0" height="31.6094" rx="2.5" ry="2.5" style="stroke:#181818;stroke-width:0.5;" width="104" x="2689" y="1417.0547"/><text fill="#000000" font-family="sans-serif" font-size="14" lengthAdjust="spacing" textLength="90" x="2696" y="1438.5879">SNSUserStore</text><rect fill="#E2E2F0" height="31.6094" rx="2.5" ry="2.5" style="stroke:#181818;stroke-width:0.5;" width="121" x="2803" y="50"/><text fill="#000000" font-family="sans-serif" font-size="14" lengthAdjust="spacing" textLength="107" x="2810" y="71.5332">CenterDataStore</text><rect fill="#E2E2F0" height="31.6094" rx="2.5" ry="2.5" style="stroke:#181818;stroke-width:0.5;" width="121" x="2803" y="1417.0547"/><text fill="#000000" font-family="sans-serif" font-size="14" lengthAdjust="spacing" textLength="107" x="2810" y="1438.5879">CenterDataStore</text><rect fill="#FFFFFF" height="1307.4453" style="stroke:#181818;stroke-width:1.0;" width="10" x="234" y="92.6094"/><rect fill="#FFFFFF" height="122.6641" style="stroke:#181818;stroke-width:1.0;" width="10" x="536" y="134.3125"/><rect fill="#FFFFFF" height="39" style="stroke:#181818;stroke-width:1.0;" width="10" x="536" y="1370.0547"/><rect fill="#FFFFFF" height="30.3516" style="stroke:#181818;stroke-width:1.0;" width="10" x="788" y="184.0156"/><rect fill="#FFFFFF" height="41.5273" style="stroke:#181818;stroke-width:1.0;" width="10" x="788" y="256.9766"/><rect fill="#FFFFFF" height="86.0547" style="stroke:#181818;stroke-width:1.0;" width="10" x="788" y="1246.6484"/><rect fill="#FFFFFF" height="230.9336" style="stroke:#181818;stroke-width:1.0;" width="10" x="1063" y="298.5039"/><rect fill="#FFFFFF" height="156.0547" style="stroke:#181818;stroke-width:1.0;" width="10" x="1068" y="373.3828"/><rect fill="#FFFFFF" height="393.8125" style="stroke:#181818;stroke-width:1.0;" width="10" x="1063" y="1015.2422"/><rect fill="#FFFFFF" height="28" style="stroke:#181818;stroke-width:1.0;" width="10" x="1068" y="1174.2969"/><rect fill="#FFFFFF" height="30" style="stroke:#181818;stroke-width:1.0;" width="10" x="1341" y="408.7344"/><rect fill="#FFFFFF" height="30" style="stroke:#181818;stroke-width:1.0;" width="10" x="1490.5" y="469.0859"/><rect fill="#FFFFFF" height="434.2773" style="stroke:#181818;stroke-width:1.0;" width="10" x="1614" y="539.4375"/><rect fill="#FFFFFF" height="223.2305" style="stroke:#181818;stroke-width:1.0;" width="10" x="1619" y="750.4844"/><rect fill="#FFFFFF" height="28" style="stroke:#181818;stroke-width:1.0;" width="10" x="1624" y="793.8359"/><rect fill="#FFFFFF" height="28" style="stroke:#181818;stroke-width:1.0;" width="10" x="1624" y="867.1875"/><rect fill="#FFFFFF" height="30" style="stroke:#181818;stroke-width:1.0;" width="10" x="2359.5" y="943.7148"/><rect fill="#FFFFFF" height="120.7031" style="stroke:#181818;stroke-width:1.0;" width="10" x="2479" y="1015.2422"/><rect fill="#FFFFFF" height="30" style="stroke:#181818;stroke-width:1.0;" width="10" x="2637" y="1045.5938"/><rect fill="#FFFFFF" height="30" style="stroke:#181818;stroke-width:1.0;" width="10" x="2736" y="1105.9453"/><rect fill="#FFFFFF" height="30.3516" style="stroke:#181818;stroke-width:1.0;" width="10" x="2858.5" y="1302.3516"/><polygon fill="#181818" points="524,130.3125,534,134.3125,524,138.3125,528,134.3125" style="stroke:#181818;stroke-width:1.0;"/><line style="stroke:#181818;stroke-width:1.0;" x1="244" x2="530" y1="134.3125" y2="134.3125"/><text fill="#000000" font-family="sans-serif" font-size="13" font-weight="bold" lengthAdjust="spacing" textLength="7" x="251" y="129.4561">1</text><text fill="#000000" font-family="sans-serif" font-size="13" lengthAdjust="spacing" textLength="162" x="262" y="129.4561">requests to load center data</text><path d="M5,97.6094 L5,156.6094 L229,156.6094 L229,107.6094 L219,97.6094 L5,97.6094 " fill="#FEFFDD" style="stroke:#181818;stroke-width:0.5;"/><path d="M219,97.6094 L219,107.6094 L229,107.6094 L219,97.6094 " fill="#FEFFDD" style="stroke:#181818;stroke-width:0.5;"/><text fill="#000000" font-family="sans-serif" font-size="13" lengthAdjust="spacing" textLength="186" x="11" y="116.1045">the steps relating to interactions</text><text fill="#000000" font-family="sans-serif" font-size="13" lengthAdjust="spacing" textLength="154" x="11" y="132.4561">with the actor are ommited</text><text fill="#000000" font-family="sans-serif" font-size="13" lengthAdjust="spacing" textLength="203" x="11" y="148.8076">because they are equal to the SSD</text><polygon fill="#181818" points="776,180.0156,786,184.0156,776,188.0156,780,184.0156" style="stroke:#181818;stroke-width:1.0;"/><line style="stroke:#181818;stroke-width:1.0;" x1="546" x2="782" y1="184.0156" y2="184.0156"/><text fill="#000000" font-family="sans-serif" font-size="13" font-weight="bold" lengthAdjust="spacing" textLength="7" x="553" y="179.1592">2</text><text fill="#000000" font-family="sans-serif" font-size="13" lengthAdjust="spacing" textLength="212" x="564" y="179.1592">createCenterDataFileLoader(filePath)</text><polygon fill="#181818" points="1015,210.3672,1025,214.3672,1015,218.3672,1019,214.3672" style="stroke:#181818;stroke-width:1.0;"/><line style="stroke:#181818;stroke-width:1.0;stroke-dasharray:2.0,2.0;" x1="793" x2="1021" y1="214.3672" y2="214.3672"/><text fill="#000000" font-family="sans-serif" font-size="13" font-weight="bold" lengthAdjust="spacing" textLength="7" x="800" y="209.5107">3</text><text fill="#000000" font-family="sans-serif" font-size="13" lengthAdjust="spacing" textLength="194" x="811" y="209.5107">loader = create(filePath, isCenter)</text><rect fill="#E2E2F0" height="31.6094" rx="2.5" ry="2.5" style="stroke:#181818;stroke-width:0.5;" width="82" x="1027" y="192.0156"/><text fill="#000000" font-family="sans-serif" font-size="14" lengthAdjust="spacing" textLength="68" x="1034" y="213.5488">FileLoader</text><polygon fill="#181818" points="776,252.9766,786,256.9766,776,260.9766,780,256.9766" style="stroke:#181818;stroke-width:1.0;"/><line style="stroke:#181818;stroke-width:1.0;" x1="541" x2="782" y1="256.9766" y2="256.9766"/><text fill="#000000" font-family="sans-serif" font-size="13" font-weight="bold" lengthAdjust="spacing" textLength="7" x="548" y="252.1201">4</text><text fill="#000000" font-family="sans-serif" font-size="13" lengthAdjust="spacing" textLength="118" x="559" y="252.1201">loadCenterDataFile()</text><polygon fill="#181818" points="1051,294.5039,1061,298.5039,1051,302.5039,1055,298.5039" style="stroke:#181818;stroke-width:1.0;"/><line style="stroke:#181818;stroke-width:1.0;" x1="793" x2="1057" y1="298.5039" y2="298.5039"/><text fill="#000000" font-family="sans-serif" font-size="13" font-weight="bold" lengthAdjust="spacing" textLength="7" x="800" y="293.6475">5</text><text fill="#000000" font-family="sans-serif" font-size="13" lengthAdjust="spacing" textLength="101" x="811" y="293.6475">loadFile(isCenter)</text><path d="M562,269.9766 L562,311.9766 L783,311.9766 L783,279.9766 L773,269.9766 L562,269.9766 " fill="#FEFFDD" style="stroke:#181818;stroke-width:0.5;"/><path d="M773,269.9766 L773,279.9766 L783,279.9766 L773,269.9766 " fill="#FEFFDD" style="stroke:#181818;stroke-width:0.5;"/><text fill="#000000" font-family="sans-serif" font-size="13" lengthAdjust="spacing" textLength="200" x="568" y="288.4717">The boolean paramater determines</text><text fill="#000000" font-family="sans-serif" font-size="13" lengthAdjust="spacing" textLength="173" x="568" y="304.8232">that center data will be loaded</text><path d="M1017,324.6797 L1090,324.6797 L1090,333.0313 L1080,343.0313 L1017,343.0313 L1017,324.6797 " fill="#EEEEEE" style="stroke:#000000;stroke-width:1.5;"/><rect fill="none" height="892.6172" style="stroke:#000000;stroke-width:1.5;" width="1786" x="1017" y="324.6797"/><text fill="#000000" font-family="sans-serif" font-size="13" font-weight="bold" lengthAdjust="spacing" textLength="28" x="1032" y="339.1748">loop</text><text fill="#000000" font-family="sans-serif" font-size="11" font-weight="bold" lengthAdjust="spacing" textLength="170" x="1105" y="338.0986">[while(scanner.hasNextLine())]</text><line style="stroke:#181818;stroke-width:1.0;" x1="1073" x2="1120" y1="360.3828" y2="360.3828"/><line style="stroke:#181818;stroke-width:1.0;" x1="1120" x2="1120" y1="360.3828" y2="373.3828"/><line style="stroke:#181818;stroke-width:1.0;" x1="1079" x2="1120" y1="373.3828" y2="373.3828"/><polygon fill="#181818" points="1089,369.3828,1079,373.3828,1089,377.3828,1085,373.3828" style="stroke:#181818;stroke-width:1.0;"/><text fill="#000000" font-family="sans-serif" font-size="13" font-weight="bold" lengthAdjust="spacing" textLength="7" x="1085" y="355.5264">6</text><text fill="#000000" font-family="sans-serif" font-size="13" lengthAdjust="spacing" textLength="198" x="1096" y="355.5264">loadCenterDataLine(delimiter, line)</text><polygon fill="#181818" points="1329,404.7344,1339,408.7344,1329,412.7344,1333,408.7344" style="stroke:#181818;stroke-width:1.0;"/><line style="stroke:#181818;stroke-width:1.0;" x1="1078" x2="1335" y1="408.7344" y2="408.7344"/><text fill="#000000" font-family="sans-serif" font-size="13" font-weight="bold" lengthAdjust="spacing" textLength="7" x="1085" y="403.8779">7</text><text fill="#000000" font-family="sans-serif" font-size="13" lengthAdjust="spacing" textLength="233" x="1096" y="403.8779">convert(arr[0], sch[0], admin[0], leave[0])</text><polygon fill="#181818" points="1478.5,465.0859,1488.5,469.0859,1478.5,473.0859,1482.5,469.0859" style="stroke:#181818;stroke-width:1.0;"/><line style="stroke:#181818;stroke-width:1.0;" x1="1078" x2="1484.5" y1="469.0859" y2="469.0859"/><text fill="#000000" font-family="sans-serif" font-size="13" font-weight="bold" lengthAdjust="spacing" textLength="7" x="1085" y="464.2295">8</text><text fill="#000000" font-family="sans-serif" font-size="13" lengthAdjust="spacing" textLength="233" x="1096" y="464.2295">convert(arr[1], sch[1], admin[1], leave[1])</text><polygon fill="#181818" points="1563.5,525.4375,1573.5,529.4375,1563.5,533.4375,1567.5,529.4375" style="stroke:#181818;stroke-width:1.0;"/><line style="stroke:#181818;stroke-width:1.0;stroke-dasharray:2.0,2.0;" x1="1068" x2="1569.5" y1="529.4375" y2="529.4375"/><text fill="#000000" font-family="sans-serif" font-size="13" font-weight="bold" lengthAdjust="spacing" textLength="7" x="1075" y="524.5811">9</text><text fill="#000000" font-family="sans-serif" font-size="13" lengthAdjust="spacing" textLength="461" x="1086" y="524.5811">create((arrays that represent dateTimes), SNSnum, lot, vacName, currentName)</text><rect fill="#E2E2F0" height="31.6094" rx="2.5" ry="2.5" style="stroke:#181818;stroke-width:0.5;" width="87" x="1575.5" y="507.0859"/><text fill="#000000" font-family="sans-serif" font-size="14" lengthAdjust="spacing" textLength="73" x="1582.5" y="528.6191">CenterData</text><polygon fill="#181818" points="1787,568.0469,1797,572.0469,1787,576.0469,1791,572.0469" style="stroke:#181818;stroke-width:1.0;"/><line style="stroke:#181818;stroke-width:1.0;stroke-dasharray:2.0,2.0;" x1="1624" x2="1793" y1="572.0469" y2="572.0469"/><text fill="#000000" font-family="sans-serif" font-size="13" font-weight="bold" lengthAdjust="spacing" textLength="14" x="1631" y="567.1904">10</text><text fill="#000000" font-family="sans-serif" font-size="13" lengthAdjust="spacing" textLength="133" x="1649" y="567.1904">arr = create(date, time)</text><rect fill="#E2E2F0" height="31.6094" rx="2.5" ry="2.5" style="stroke:#181818;stroke-width:0.5;" width="115" x="1799" y="549.6953"/><text fill="#000000" font-family="sans-serif" font-size="14" lengthAdjust="spacing" textLength="101" x="1806" y="571.2285">ArrivalDateTime</text><polygon fill="#181818" points="1912,610.6563,1922,614.6563,1912,618.6563,1916,614.6563" style="stroke:#181818;stroke-width:1.0;"/><line style="stroke:#181818;stroke-width:1.0;stroke-dasharray:2.0,2.0;" x1="1624" x2="1918" y1="614.6563" y2="614.6563"/><text fill="#000000" font-family="sans-serif" font-size="13" font-weight="bold" lengthAdjust="spacing" textLength="14" x="1631" y="609.7998">11</text><text fill="#000000" font-family="sans-serif" font-size="13" lengthAdjust="spacing" textLength="139" x="1649" y="609.7998">sch = create(date, time)</text><rect fill="#E2E2F0" height="31.6094" rx="2.5" ry="2.5" style="stroke:#181818;stroke-width:0.5;" width="134" x="1924" y="592.3047"/><text fill="#000000" font-family="sans-serif" font-size="14" lengthAdjust="spacing" textLength="120" x="1931" y="613.8379">ScehduleDateTime</text><polygon fill="#181818" points="2056,653.2656,2066,657.2656,2056,661.2656,2060,657.2656" style="stroke:#181818;stroke-width:1.0;"/><line style="stroke:#181818;stroke-width:1.0;stroke-dasharray:2.0,2.0;" x1="1624" x2="2062" y1="657.2656" y2="657.2656"/><text fill="#000000" font-family="sans-serif" font-size="13" font-weight="bold" lengthAdjust="spacing" textLength="14" x="1631" y="652.4092">12</text><text fill="#000000" font-family="sans-serif" font-size="13" lengthAdjust="spacing" textLength="147" x="1649" y="652.4092">leave = create(date, time)</text><rect fill="#E2E2F0" height="31.6094" rx="2.5" ry="2.5" style="stroke:#181818;stroke-width:0.5;" width="125" x="2068" y="634.9141"/><text fill="#000000" font-family="sans-serif" font-size="14" lengthAdjust="spacing" textLength="111" x="2075" y="656.4473">LeavingDateTime</text><polygon fill="#181818" points="2191,695.875,2201,699.875,2191,703.875,2195,699.875" style="stroke:#181818;stroke-width:1.0;"/><line style="stroke:#181818;stroke-width:1.0;stroke-dasharray:2.0,2.0;" x1="1624" x2="2197" y1="699.875" y2="699.875"/><text fill="#000000" font-family="sans-serif" font-size="13" font-weight="bold" lengthAdjust="spacing" textLength="14" x="1631" y="695.0186">13</text><text fill="#000000" font-family="sans-serif" font-size="13" lengthAdjust="spacing" textLength="153" x="1649" y="695.0186">admin = create(date, time)</text><rect fill="#E2E2F0" height="31.6094" rx="2.5" ry="2.5" style="stroke:#181818;stroke-width:0.5;" width="114" x="2203" y="677.5234"/><text fill="#000000" font-family="sans-serif" font-size="14" lengthAdjust="spacing" textLength="100" x="2210" y="699.0566">AdminDateTime</text><line style="stroke:#181818;stroke-width:1.0;" x1="1624" x2="1671" y1="737.4844" y2="737.4844"/><line style="stroke:#181818;stroke-width:1.0;" x1="1671" x2="1671" y1="737.4844" y2="750.4844"/><line style="stroke:#181818;stroke-width:1.0;" x1="1630" x2="1671" y1="750.4844" y2="750.4844"/><polygon fill="#181818" points="1640,746.4844,1630,750.4844,1640,754.4844,1636,750.4844" style="stroke:#181818;stroke-width:1.0;"/><text fill="#000000" font-family="sans-serif" font-size="13" font-weight="bold" lengthAdjust="spacing" textLength="14" x="1636" y="732.6279">14</text><text fill="#000000" font-family="sans-serif" font-size="13" lengthAdjust="spacing" textLength="123" x="1654" y="732.6279">validate(cd attributes)</text><line style="stroke:#181818;stroke-width:1.0;" x1="1634" x2="1676" y1="785.8359" y2="785.8359"/><line style="stroke:#181818;stroke-width:1.0;" x1="1676" x2="1676" y1="785.8359" y2="798.8359"/><line style="stroke:#181818;stroke-width:1.0;" x1="1635" x2="1676" y1="798.8359" y2="798.8359"/><polygon fill="#181818" points="1645,794.8359,1635,798.8359,1645,802.8359,1641,798.8359" style="stroke:#181818;stroke-width:1.0;"/><text fill="#000000" font-family="sans-serif" font-size="13" font-weight="bold" lengthAdjust="spacing" textLength="14" x="1641" y="780.9795">15</text><text fill="#000000" font-family="sans-serif" font-size="13" lengthAdjust="spacing" textLength="121" x="1659" y="780.9795">validateSNSnumber()</text><line style="stroke:#181818;stroke-width:1.0;" x1="1634" x2="1676" y1="859.1875" y2="859.1875"/><line style="stroke:#181818;stroke-width:1.0;" x1="1676" x2="1676" y1="859.1875" y2="872.1875"/><line style="stroke:#181818;stroke-width:1.0;" x1="1635" x2="1676" y1="872.1875" y2="872.1875"/><polygon fill="#181818" points="1645,868.1875,1635,872.1875,1645,876.1875,1641,872.1875" style="stroke:#181818;stroke-width:1.0;"/><text fill="#000000" font-family="sans-serif" font-size="13" font-weight="bold" lengthAdjust="spacing" textLength="14" x="1641" y="854.3311">16</text><text fill="#000000" font-family="sans-serif" font-size="13" lengthAdjust="spacing" textLength="114" x="1659" y="854.3311">validateLotNumber()</text><polygon fill="#181818" points="2347.5,939.7148,2357.5,943.7148,2347.5,947.7148,2351.5,943.7148" style="stroke:#181818;stroke-width:1.0;"/><line style="stroke:#181818;stroke-width:1.0;" x1="1629" x2="2353.5" y1="943.7148" y2="943.7148"/><text fill="#000000" font-family="sans-serif" font-size="13" font-weight="bold" lengthAdjust="spacing" textLength="14" x="1636" y="938.8584">17</text><text fill="#000000" font-family="sans-serif" font-size="13" lengthAdjust="spacing" textLength="141" x="1654" y="938.8584">validate(ArrivalDateTime)</text><path d="M1442,915.1875 L1442,957.1875 L1609,957.1875 L1609,925.1875 L1599,915.1875 L1442,915.1875 " fill="#FEFFDD" style="stroke:#181818;stroke-width:0.5;"/><path d="M1599,915.1875 L1599,925.1875 L1609,925.1875 L1599,915.1875 " fill="#FEFFDD" style="stroke:#181818;stroke-width:0.5;"/><text fill="#000000" font-family="sans-serif" font-size="13" lengthAdjust="spacing" textLength="139" x="1448" y="933.6826">validation is repeated for</text><text fill="#000000" font-family="sans-serif" font-size="13" lengthAdjust="spacing" textLength="146" x="1448" y="950.0342">other DateTime attributes</text><polygon fill="#181818" points="2467,1011.2422,2477,1015.2422,2467,1019.2422,2471,1015.2422" style="stroke:#181818;stroke-width:1.0;"/><line style="stroke:#181818;stroke-width:1.0;" x1="1073" x2="2473" y1="1015.2422" y2="1015.2422"/><text fill="#000000" font-family="sans-serif" font-size="13" font-weight="bold" lengthAdjust="spacing" textLength="14" x="1080" y="1010.3857">18</text><text fill="#000000" font-family="sans-serif" font-size="13" lengthAdjust="spacing" textLength="184" x="1098" y="1010.3857">checkSNSnumExists(SNSnum)</text><polygon fill="#181818" points="2625,1041.5938,2635,1045.5938,2625,1049.5938,2629,1045.5938" style="stroke:#181818;stroke-width:1.0;"/><line style="stroke:#181818;stroke-width:1.0;" x1="2489" x2="2631" y1="1045.5938" y2="1045.5938"/><text fill="#000000" font-family="sans-serif" font-size="13" font-weight="bold" lengthAdjust="spacing" textLength="14" x="2496" y="1040.7373">19</text><text fill="#000000" font-family="sans-serif" font-size="13" lengthAdjust="spacing" textLength="111" x="2514" y="1040.7373">getSNSUserStore()</text><polygon fill="#181818" points="2724,1101.9453,2734,1105.9453,2724,1109.9453,2728,1105.9453" style="stroke:#181818;stroke-width:1.0;"/><line style="stroke:#181818;stroke-width:1.0;" x1="2489" x2="2730" y1="1105.9453" y2="1105.9453"/><text fill="#000000" font-family="sans-serif" font-size="13" font-weight="bold" lengthAdjust="spacing" textLength="14" x="2496" y="1101.0889">20</text><text fill="#000000" font-family="sans-serif" font-size="13" lengthAdjust="spacing" textLength="184" x="2514" y="1101.0889">checkSNSnumExists(SNSnum)</text><line style="stroke:#181818;stroke-width:1.0;" x1="1078" x2="1120" y1="1166.2969" y2="1166.2969"/><line style="stroke:#181818;stroke-width:1.0;" x1="1120" x2="1120" y1="1166.2969" y2="1179.2969"/><line style="stroke:#181818;stroke-width:1.0;" x1="1079" x2="1120" y1="1179.2969" y2="1179.2969"/><polygon fill="#181818" points="1089,1175.2969,1079,1179.2969,1089,1183.2969,1085,1179.2969" style="stroke:#181818;stroke-width:1.0;"/><text fill="#000000" font-family="sans-serif" font-size="13" font-weight="bold" lengthAdjust="spacing" textLength="14" x="1085" y="1161.4404">21</text><text fill="#000000" font-family="sans-serif" font-size="13" lengthAdjust="spacing" textLength="131" x="1103" y="1161.4404">centerDataList.add(cd)</text><polygon fill="#181818" points="809,1242.6484,799,1246.6484,809,1250.6484,805,1246.6484" style="stroke:#181818;stroke-width:1.0;"/><line style="stroke:#181818;stroke-width:1.0;" x1="803" x2="1062" y1="1246.6484" y2="1246.6484"/><text fill="#000000" font-family="sans-serif" font-size="13" font-weight="bold" lengthAdjust="spacing" textLength="14" x="815" y="1241.792">22</text><text fill="#000000" font-family="sans-serif" font-size="13" lengthAdjust="spacing" textLength="181" x="833" y="1241.792">loadCenterData(centerDataList)</text><path d="M708.5,1261.6484 L781.5,1261.6484 L781.5,1270 L771.5,1280 L708.5,1280 L708.5,1261.6484 " fill="#EEEEEE" style="stroke:#000000;stroke-width:1.5;"/><rect fill="none" height="79.0547" style="stroke:#000000;stroke-width:1.5;" width="2225.5" x="708.5" y="1261.6484"/><text fill="#000000" font-family="sans-serif" font-size="13" font-weight="bold" lengthAdjust="spacing" textLength="28" x="723.5" y="1276.1436">loop</text><text fill="#000000" font-family="sans-serif" font-size="11" font-weight="bold" lengthAdjust="spacing" textLength="199" x="796.5" y="1275.0674">[for each element of centerDataList]</text><polygon fill="#181818" points="2846.5,1298.3516,2856.5,1302.3516,2846.5,1306.3516,2850.5,1302.3516" style="stroke:#181818;stroke-width:1.0;"/><line style="stroke:#181818;stroke-width:1.0;" x1="798" x2="2852.5" y1="1302.3516" y2="1302.3516"/><text fill="#000000" font-family="sans-serif" font-size="13" font-weight="bold" lengthAdjust="spacing" textLength="14" x="805" y="1297.4951">23</text><text fill="#000000" font-family="sans-serif" font-size="13" lengthAdjust="spacing" textLength="139" x="823" y="1297.4951">CenterDataExists(get(i))</text><polygon fill="#181818" points="2851.5,1328.7031,2861.5,1332.7031,2851.5,1336.7031,2855.5,1332.7031" style="stroke:#181818;stroke-width:1.0;"/><line style="stroke:#181818;stroke-width:1.0;" x1="793" x2="2857.5" y1="1332.7031" y2="1332.7031"/><text fill="#000000" font-family="sans-serif" font-size="13" font-weight="bold" lengthAdjust="spacing" textLength="14" x="800" y="1327.8467">24</text><text fill="#000000" font-family="sans-serif" font-size="13" lengthAdjust="spacing" textLength="58" x="818" y="1327.8467">add(get(i))</text><polygon fill="#181818" points="255,1366.0547,245,1370.0547,255,1374.0547,251,1370.0547" style="stroke:#181818;stroke-width:1.0;"/><line style="stroke:#181818;stroke-width:1.0;stroke-dasharray:2.0,2.0;" x1="249" x2="535" y1="1370.0547" y2="1370.0547"/><text fill="#000000" font-family="sans-serif" font-size="13" font-weight="bold" lengthAdjust="spacing" textLength="14" x="261" y="1365.1982">25</text><text fill="#000000" font-family="sans-serif" font-size="13" lengthAdjust="spacing" textLength="255" x="279" y="1365.1982">informs that the file was loaded successfully</text><!--MD5=[8401c65fd2926c6a82fa28f3880590bf]
@startuml

autonumber

actor coordinator as cord
participant CenterDataUI as ui
participant CenterDataController as ctrl
participant Company as comp
participant FileLoader as load
participant ConvertDateFormat as convertD
participant ConvertTimeFormat as convertT
participant CenterData as cd
participant ArrivalDateTime as adt
participant ScehduleDateTime as sdt
participant LeavingDateTime as ldt
participant AdminDateTime as admdt
participant DateTime as dt
participant FileLoaderController as ctrl1
participant Company as comp
participant SNSUserStore as snsStore
participant CenterDataStore as store

activate cord

cord -> ui : requests to load center data
note left: the steps relating to interactions\nwith the actor are ommited\nbecause they are equal to the SSD

activate ui
ui -> ctrl : createCenterDataFileLoader(filePath)

activate ctrl

ctrl - -> load** : loader = create(filePath, isCenter)
deactivate ctrl

ui -> ctrl : loadCenterDataFile()
deactivate ui
activate ctrl
ctrl -> load : loadFile(isCenter)
note left: The boolean paramater determines\nthat center data will be loaded
deactivate ctrl

activate load

loop while(scanner.hasNextLine())
load -> load : loadCenterDataLine(delimiter, line)
activate load

load -> convertD : convert(arr[0], sch[0], admin[0], leave[0])
activate convertD
deactivate convertD

load -> convertT : convert(arr[1], sch[1], admin[1], leave[1])
activate convertT
deactivate convertT

load - -> cd** : create((arrays that represent dateTimes), SNSnum, lot, vacName, currentName)

deactivate load
deactivate load

activate cd

cd - -> adt** : arr = create(date, time)
cd - -> sdt** : sch = create(date, time)
cd - -> ldt** : leave = create(date, time)
cd - -> admdt** : admin = create(date, time)

cd -> cd : validate(cd attributes)
activate cd
cd -> cd : validateSNSnumber()
activate cd
deactivate cd
cd -> cd : validateLotNumber()
activate cd
deactivate cd
cd -> dt : validate(ArrivalDateTime)
activate dt
deactivate dt
note left : validation is repeated for\nother DateTime attributes
deactivate cd
deactivate cd


load -> ctrl1 : checkSNSnumExists(SNSnum)
activate load
activate ctrl1
ctrl1 -> comp : getSNSUserStore()
activate comp
deactivate comp
ctrl1 -> snsStore : checkSNSnumExists(SNSnum)
activate snsStore
deactivate snsStore
deactivate ctrl1

load -> load : centerDataList.add(cd)
activate load
deactivate load
end loop

load -> ctrl : loadCenterData(centerDataList)
activate ctrl
loop for each element of centerDataList
ctrl -> store : CenterDataExists(get(i))
activate store
ctrl -> store : add(get(i))
deactivate store
deactivate ctrl
end loop

ui - -> cord : informs that the file was loaded successfully
activate ui
deactivate cord

@enduml

PlantUML version 1.2022.5(Sat Apr 30 11:55:52 BST 2022)
(GPL source distribution)
Java Runtime: OpenJDK Runtime Environment
JVM: OpenJDK 64-Bit Server VM
Default Encoding: Cp1252
Language: en
Country: US
--></g></svg>