<?xml version="1.0" encoding="UTF-8" standalone="no"?><svg xmlns="http://www.w3.org/2000/svg" xmlns:xlink="http://www.w3.org/1999/xlink" contentStyleType="text/css" height="826px" preserveAspectRatio="none" style="width:1191px;height:826px;background:#FFFFFF;" version="1.1" viewBox="0 0 1191 826" width="1191px" zoomAndPan="magnify"><defs/><g><!--MD5=[589778a86542334cbbe24d2c132e4f67]
class ui--><g id="elem_ui"><rect codeLine="2" fill="#F1F1F1" height="83.2188" id="ui" rx="2.5" ry="2.5" style="stroke:#181818;stroke-width:0.5;" width="119" x="512" y="7"/><ellipse cx="527.9" cy="23" fill="#ADD1B2" rx="11" ry="11" style="stroke:#181818;stroke-width:1.0;"/><path d="M529.9,19.5 Q530.1031,19 530.3375,18.75 Q530.5719,18.5 530.8375,18.5 Q531.3063,18.5 531.6031,18.7813 Q531.9,19.0625 531.9,19.7188 L531.9,21.2813 Q531.9,21.9375 531.6188,22.2188 Q531.3375,22.5 530.9,22.5 Q530.5094,22.5 530.2594,22.3281 Q530.0094,22.1563 529.9,21.7031 Q529.8531,21.3906 529.6813,21.2188 Q529.3688,20.8906 528.8063,20.7031 Q528.2438,20.5 527.6813,20.5 Q526.9781,20.5 526.3844,20.7813 Q525.8063,21.0625 525.3531,21.6875 Q524.9,22.3125 524.9,23.1719 L524.9,24.0938 Q524.9,25.125 525.7438,25.8125 Q526.5875,26.5 528.0875,26.5 Q528.9781,26.5 529.6031,26.2969 Q529.9625,26.1875 530.3688,25.8281 Q530.6344,25.625 530.775,25.5625 Q530.9156,25.5 531.0875,25.5 Q531.4156,25.5 531.65,25.7656 Q531.9,26.0156 531.9,26.375 Q531.9,26.7188 531.5563,27.125 Q531.0563,27.7188 530.2594,28.0469 Q529.2125,28.5 527.9313,28.5 Q526.4313,28.5 525.2281,27.9063 Q524.2594,27.4375 523.5719,26.4219 Q522.9,25.4063 522.9,24.2031 L522.9,23.1094 Q522.9,21.8594 523.4938,20.7656 Q524.1031,19.6719 525.15,19.0938 Q526.2125,18.5 527.4,18.5 Q528.1188,18.5 528.7438,18.75 Q529.3688,19 529.9,19.5 Z " fill="#000000"/><text fill="#000000" font-family="sans-serif" font-size="14" lengthAdjust="spacing" textLength="85" x="542.1" y="28.7285">CenterDataUI</text><line style="stroke:#181818;stroke-width:0.5;" x1="513" x2="630" y1="39" y2="39"/><line style="stroke:#181818;stroke-width:0.5;" x1="513" x2="630" y1="47" y2="47"/><ellipse cx="523" cy="58" fill="#84BE84" rx="3" ry="3" style="stroke:#038048;stroke-width:1.0;"/><text fill="#000000" font-family="sans-serif" font-size="14" lengthAdjust="spacing" textLength="93" x="532" y="65.5332">chooseOrder()</text><ellipse cx="523" cy="75.6094" fill="#84BE84" rx="3" ry="3" style="stroke:#038048;stroke-width:1.0;"/><text fill="#000000" font-family="sans-serif" font-size="14" lengthAdjust="spacing" textLength="88" x="532" y="83.1426">chooseType()</text></g><!--MD5=[fd9cab17099256c8680aa6ea13cc8fa6]
class ctrl--><g id="elem_ctrl"><rect codeLine="7" fill="#F1F1F1" height="118.4375" id="ctrl" rx="2.5" ry="2.5" style="stroke:#181818;stroke-width:0.5;" width="189" x="477" y="212"/><ellipse cx="501.9" cy="228" fill="#ADD1B2" rx="11" ry="11" style="stroke:#181818;stroke-width:1.0;"/><path d="M503.9,224.5 Q504.1031,224 504.3375,223.75 Q504.5719,223.5 504.8375,223.5 Q505.3063,223.5 505.6031,223.7813 Q505.9,224.0625 505.9,224.7188 L505.9,226.2813 Q505.9,226.9375 505.6188,227.2188 Q505.3375,227.5 504.9,227.5 Q504.5094,227.5 504.2594,227.3281 Q504.0094,227.1563 503.9,226.7031 Q503.8531,226.3906 503.6813,226.2188 Q503.3688,225.8906 502.8063,225.7031 Q502.2438,225.5 501.6813,225.5 Q500.9781,225.5 500.3844,225.7813 Q499.8063,226.0625 499.3531,226.6875 Q498.9,227.3125 498.9,228.1719 L498.9,229.0938 Q498.9,230.125 499.7438,230.8125 Q500.5875,231.5 502.0875,231.5 Q502.9781,231.5 503.6031,231.2969 Q503.9625,231.1875 504.3688,230.8281 Q504.6344,230.625 504.775,230.5625 Q504.9156,230.5 505.0875,230.5 Q505.4156,230.5 505.65,230.7656 Q505.9,231.0156 505.9,231.375 Q505.9,231.7188 505.5563,232.125 Q505.0563,232.7188 504.2594,233.0469 Q503.2125,233.5 501.9313,233.5 Q500.4313,233.5 499.2281,232.9063 Q498.2594,232.4375 497.5719,231.4219 Q496.9,230.4063 496.9,229.2031 L496.9,228.1094 Q496.9,226.8594 497.4938,225.7656 Q498.1031,224.6719 499.15,224.0938 Q500.2125,223.5 501.4,223.5 Q502.1188,223.5 502.7438,223.75 Q503.3688,224 503.9,224.5 Z " fill="#000000"/><text fill="#000000" font-family="sans-serif" font-size="14" lengthAdjust="spacing" textLength="135" x="518.1" y="233.7285">CenterDataController</text><line style="stroke:#181818;stroke-width:0.5;" x1="478" x2="665" y1="244" y2="244"/><line style="stroke:#181818;stroke-width:0.5;" x1="478" x2="665" y1="252" y2="252"/><ellipse cx="488" cy="263" fill="#84BE84" rx="3" ry="3" style="stroke:#038048;stroke-width:1.0;"/><text fill="#000000" font-family="sans-serif" font-size="14" lengthAdjust="spacing" textLength="81" x="497" y="270.5332">isListEmpty()</text><ellipse cx="488" cy="280.6094" fill="#84BE84" rx="3" ry="3" style="stroke:#038048;stroke-width:1.0;"/><text fill="#000000" font-family="sans-serif" font-size="14" lengthAdjust="spacing" textLength="163" x="497" y="288.1426">getSortedList(order, type)</text><ellipse cx="488" cy="298.2188" fill="#84BE84" rx="3" ry="3" style="stroke:#038048;stroke-width:1.0;"/><text fill="#000000" font-family="sans-serif" font-size="14" lengthAdjust="spacing" textLength="161" x="497" y="305.752">selectionSort(order, type)</text><ellipse cx="488" cy="315.8281" fill="#84BE84" rx="3" ry="3" style="stroke:#038048;stroke-width:1.0;"/><text fill="#000000" font-family="sans-serif" font-size="14" lengthAdjust="spacing" textLength="159" x="497" y="323.3613">pancakeSort(order, type)</text></g><!--MD5=[4f19d3057fb900cadb2cfb67b6fb36c5]
class comp--><g id="elem_comp"><rect codeLine="14" fill="#F1F1F1" height="100.8281" id="comp" rx="2.5" ry="2.5" style="stroke:#181818;stroke-width:0.5;" width="163" x="212" y="220.5"/><ellipse cx="259.25" cy="236.5" fill="#ADD1B2" rx="11" ry="11" style="stroke:#181818;stroke-width:1.0;"/><path d="M261.25,233 Q261.4531,232.5 261.6875,232.25 Q261.9219,232 262.1875,232 Q262.6563,232 262.9531,232.2813 Q263.25,232.5625 263.25,233.2188 L263.25,234.7813 Q263.25,235.4375 262.9688,235.7188 Q262.6875,236 262.25,236 Q261.8594,236 261.6094,235.8281 Q261.3594,235.6563 261.25,235.2031 Q261.2031,234.8906 261.0313,234.7188 Q260.7188,234.3906 260.1563,234.2031 Q259.5938,234 259.0313,234 Q258.3281,234 257.7344,234.2813 Q257.1563,234.5625 256.7031,235.1875 Q256.25,235.8125 256.25,236.6719 L256.25,237.5938 Q256.25,238.625 257.0938,239.3125 Q257.9375,240 259.4375,240 Q260.3281,240 260.9531,239.7969 Q261.3125,239.6875 261.7188,239.3281 Q261.9844,239.125 262.125,239.0625 Q262.2656,239 262.4375,239 Q262.7656,239 263,239.2656 Q263.25,239.5156 263.25,239.875 Q263.25,240.2188 262.9063,240.625 Q262.4063,241.2188 261.6094,241.5469 Q260.5625,242 259.2813,242 Q257.7813,242 256.5781,241.4063 Q255.6094,240.9375 254.9219,239.9219 Q254.25,238.9063 254.25,237.7031 L254.25,236.6094 Q254.25,235.3594 254.8438,234.2656 Q255.4531,233.1719 256.5,232.5938 Q257.5625,232 258.75,232 Q259.4688,232 260.0938,232.25 Q260.7188,232.5 261.25,233 Z " fill="#000000"/><text fill="#000000" font-family="sans-serif" font-size="14" lengthAdjust="spacing" textLength="60" x="279.75" y="242.2285">Company</text><line style="stroke:#181818;stroke-width:0.5;" x1="213" x2="374" y1="252.5" y2="252.5"/><line style="stroke:#181818;stroke-width:0.5;" x1="213" x2="374" y1="260.5" y2="260.5"/><ellipse cx="223" cy="271.5" fill="#84BE84" rx="3" ry="3" style="stroke:#038048;stroke-width:1.0;"/><text fill="#000000" font-family="sans-serif" font-size="14" lengthAdjust="spacing" textLength="137" x="232" y="279.0332">getCenterDataStore()</text><ellipse cx="223" cy="289.1094" fill="#84BE84" rx="3" ry="3" style="stroke:#038048;stroke-width:1.0;"/><text fill="#000000" font-family="sans-serif" font-size="14" lengthAdjust="spacing" textLength="114" x="232" y="296.6426">getVaccineStore()</text><ellipse cx="223" cy="306.7188" fill="#84BE84" rx="3" ry="3" style="stroke:#038048;stroke-width:1.0;"/><text fill="#000000" font-family="sans-serif" font-size="14" lengthAdjust="spacing" textLength="120" x="232" y="314.252">getSNSUserStore()</text></g><!--MD5=[e2b9ae9a6f3d968d3533fb88890e19ee]
class store--><g id="elem_store"><rect codeLine="20" fill="#F1F1F1" height="83.2188" id="store" rx="2.5" ry="2.5" style="stroke:#181818;stroke-width:0.5;" width="139" x="905" y="229.5"/><ellipse cx="920" cy="245.5" fill="#ADD1B2" rx="11" ry="11" style="stroke:#181818;stroke-width:1.0;"/><path d="M922,242 Q922.2031,241.5 922.4375,241.25 Q922.6719,241 922.9375,241 Q923.4063,241 923.7031,241.2813 Q924,241.5625 924,242.2188 L924,243.7813 Q924,244.4375 923.7188,244.7188 Q923.4375,245 923,245 Q922.6094,245 922.3594,244.8281 Q922.1094,244.6563 922,244.2031 Q921.9531,243.8906 921.7813,243.7188 Q921.4688,243.3906 920.9063,243.2031 Q920.3438,243 919.7813,243 Q919.0781,243 918.4844,243.2813 Q917.9063,243.5625 917.4531,244.1875 Q917,244.8125 917,245.6719 L917,246.5938 Q917,247.625 917.8438,248.3125 Q918.6875,249 920.1875,249 Q921.0781,249 921.7031,248.7969 Q922.0625,248.6875 922.4688,248.3281 Q922.7344,248.125 922.875,248.0625 Q923.0156,248 923.1875,248 Q923.5156,248 923.75,248.2656 Q924,248.5156 924,248.875 Q924,249.2188 923.6563,249.625 Q923.1563,250.2188 922.3594,250.5469 Q921.3125,251 920.0313,251 Q918.5313,251 917.3281,250.4063 Q916.3594,249.9375 915.6719,248.9219 Q915,247.9063 915,246.7031 L915,245.6094 Q915,244.3594 915.5938,243.2656 Q916.2031,242.1719 917.25,241.5938 Q918.3125,241 919.5,241 Q920.2188,241 920.8438,241.25 Q921.4688,241.5 922,242 Z " fill="#000000"/><text fill="#000000" font-family="sans-serif" font-size="14" lengthAdjust="spacing" textLength="107" x="934" y="251.2285">CenterDataStore</text><line style="stroke:#181818;stroke-width:0.5;" x1="906" x2="1043" y1="261.5" y2="261.5"/><line style="stroke:#181818;stroke-width:0.5;" x1="906" x2="1043" y1="269.5" y2="269.5"/><ellipse cx="916" cy="280.5" fill="#84BE84" rx="3" ry="3" style="stroke:#038048;stroke-width:1.0;"/><text fill="#000000" font-family="sans-serif" font-size="14" lengthAdjust="spacing" textLength="59" x="925" y="288.0332">isEmpty()</text><ellipse cx="916" cy="298.1094" fill="#84BE84" rx="3" ry="3" style="stroke:#038048;stroke-width:1.0;"/><text fill="#000000" font-family="sans-serif" font-size="14" lengthAdjust="spacing" textLength="45" x="925" y="305.6426">getAll()</text></g><!--MD5=[5b06f678569b5d5d3e5a115ee69cc81e]
class map--><g id="elem_map"><rect codeLine="25" fill="#F1F1F1" height="83.2188" id="map" rx="2.5" ry="2.5" style="stroke:#181818;stroke-width:0.5;" width="153" x="7" y="452"/><ellipse cx="22" cy="468" fill="#ADD1B2" rx="11" ry="11" style="stroke:#181818;stroke-width:1.0;"/><path d="M24,464.5 Q24.2031,464 24.4375,463.75 Q24.6719,463.5 24.9375,463.5 Q25.4063,463.5 25.7031,463.7813 Q26,464.0625 26,464.7188 L26,466.2813 Q26,466.9375 25.7188,467.2188 Q25.4375,467.5 25,467.5 Q24.6094,467.5 24.3594,467.3281 Q24.1094,467.1563 24,466.7031 Q23.9531,466.3906 23.7813,466.2188 Q23.4688,465.8906 22.9063,465.7031 Q22.3438,465.5 21.7813,465.5 Q21.0781,465.5 20.4844,465.7813 Q19.9063,466.0625 19.4531,466.6875 Q19,467.3125 19,468.1719 L19,469.0938 Q19,470.125 19.8438,470.8125 Q20.6875,471.5 22.1875,471.5 Q23.0781,471.5 23.7031,471.2969 Q24.0625,471.1875 24.4688,470.8281 Q24.7344,470.625 24.875,470.5625 Q25.0156,470.5 25.1875,470.5 Q25.5156,470.5 25.75,470.7656 Q26,471.0156 26,471.375 Q26,471.7188 25.6563,472.125 Q25.1563,472.7188 24.3594,473.0469 Q23.3125,473.5 22.0313,473.5 Q20.5313,473.5 19.3281,472.9063 Q18.3594,472.4375 17.6719,471.4219 Q17,470.4063 17,469.2031 L17,468.1094 Q17,466.8594 17.5938,465.7656 Q18.2031,464.6719 19.25,464.0938 Q20.3125,463.5 21.5,463.5 Q22.2188,463.5 22.8438,463.75 Q23.4688,464 24,464.5 Z " fill="#000000"/><text fill="#000000" font-family="sans-serif" font-size="14" lengthAdjust="spacing" textLength="121" x="36" y="473.7285">CenterDataMapper</text><line style="stroke:#181818;stroke-width:0.5;" x1="8" x2="159" y1="484" y2="484"/><line style="stroke:#181818;stroke-width:0.5;" x1="8" x2="159" y1="492" y2="492"/><ellipse cx="18" cy="503" fill="#84BE84" rx="3" ry="3" style="stroke:#038048;stroke-width:1.0;"/><text fill="#000000" font-family="sans-serif" font-size="14" lengthAdjust="spacing" textLength="67" x="27" y="510.5332">toDTO(cd)</text><ellipse cx="18" cy="520.6094" fill="#84BE84" rx="3" ry="3" style="stroke:#038048;stroke-width:1.0;"/><text fill="#000000" font-family="sans-serif" font-size="14" lengthAdjust="spacing" textLength="89" x="27" y="528.1426">toDTO(cdList)</text></g><!--MD5=[bc2b9875a1b7ec9dc0c91782fdd7a643]
class cd--><g id="elem_cd"><rect codeLine="30" fill="#F1F1F1" height="206.4844" id="cd" rx="2.5" ry="2.5" style="stroke:#181818;stroke-width:0.5;" width="105" x="1079" y="168"/><ellipse cx="1094" cy="184" fill="#ADD1B2" rx="11" ry="11" style="stroke:#181818;stroke-width:1.0;"/><path d="M1096,180.5 Q1096.2031,180 1096.4375,179.75 Q1096.6719,179.5 1096.9375,179.5 Q1097.4063,179.5 1097.7031,179.7813 Q1098,180.0625 1098,180.7188 L1098,182.2813 Q1098,182.9375 1097.7188,183.2188 Q1097.4375,183.5 1097,183.5 Q1096.6094,183.5 1096.3594,183.3281 Q1096.1094,183.1563 1096,182.7031 Q1095.9531,182.3906 1095.7813,182.2188 Q1095.4688,181.8906 1094.9063,181.7031 Q1094.3438,181.5 1093.7813,181.5 Q1093.0781,181.5 1092.4844,181.7813 Q1091.9063,182.0625 1091.4531,182.6875 Q1091,183.3125 1091,184.1719 L1091,185.0938 Q1091,186.125 1091.8438,186.8125 Q1092.6875,187.5 1094.1875,187.5 Q1095.0781,187.5 1095.7031,187.2969 Q1096.0625,187.1875 1096.4688,186.8281 Q1096.7344,186.625 1096.875,186.5625 Q1097.0156,186.5 1097.1875,186.5 Q1097.5156,186.5 1097.75,186.7656 Q1098,187.0156 1098,187.375 Q1098,187.7188 1097.6563,188.125 Q1097.1563,188.7188 1096.3594,189.0469 Q1095.3125,189.5 1094.0313,189.5 Q1092.5313,189.5 1091.3281,188.9063 Q1090.3594,188.4375 1089.6719,187.4219 Q1089,186.4063 1089,185.2031 L1089,184.1094 Q1089,182.8594 1089.5938,181.7656 Q1090.2031,180.6719 1091.25,180.0938 Q1092.3125,179.5 1093.5,179.5 Q1094.2188,179.5 1094.8438,179.75 Q1095.4688,180 1096,180.5 Z " fill="#000000"/><text fill="#000000" font-family="sans-serif" font-size="14" lengthAdjust="spacing" textLength="73" x="1108" y="189.7285">CenterData</text><line style="stroke:#181818;stroke-width:0.5;" x1="1080" x2="1183" y1="200" y2="200"/><rect fill="none" height="6" style="stroke:#C82930;stroke-width:1.0;" width="6" x="1087" y="208"/><text fill="#000000" font-family="sans-serif" font-size="14" lengthAdjust="spacing" textLength="18" x="1099" y="218.5332">arr</text><rect fill="none" height="6" style="stroke:#C82930;stroke-width:1.0;" width="6" x="1087" y="225.6094"/><text fill="#000000" font-family="sans-serif" font-size="14" lengthAdjust="spacing" textLength="22" x="1099" y="236.1426">sch</text><rect fill="none" height="6" style="stroke:#C82930;stroke-width:1.0;" width="6" x="1087" y="243.2188"/><text fill="#000000" font-family="sans-serif" font-size="14" lengthAdjust="spacing" textLength="38" x="1099" y="253.752">admin</text><rect fill="none" height="6" style="stroke:#C82930;stroke-width:1.0;" width="6" x="1087" y="260.8281"/><text fill="#000000" font-family="sans-serif" font-size="14" lengthAdjust="spacing" textLength="34" x="1099" y="271.3613">leave</text><rect fill="none" height="6" style="stroke:#C82930;stroke-width:1.0;" width="6" x="1087" y="278.4375"/><text fill="#000000" font-family="sans-serif" font-size="14" lengthAdjust="spacing" textLength="54" x="1099" y="288.9707">SNSnum</text><rect fill="none" height="6" style="stroke:#C82930;stroke-width:1.0;" width="6" x="1087" y="296.0469"/><text fill="#000000" font-family="sans-serif" font-size="14" lengthAdjust="spacing" textLength="15" x="1099" y="306.5801">lot</text><rect fill="none" height="6" style="stroke:#C82930;stroke-width:1.0;" width="6" x="1087" y="313.6563"/><text fill="#000000" font-family="sans-serif" font-size="14" lengthAdjust="spacing" textLength="58" x="1099" y="324.1895">vacName</text><rect fill="none" height="6" style="stroke:#C82930;stroke-width:1.0;" width="6" x="1087" y="331.2656"/><text fill="#000000" font-family="sans-serif" font-size="14" lengthAdjust="spacing" textLength="78" x="1099" y="341.7988">currentDose</text><line style="stroke:#181818;stroke-width:0.5;" x1="1080" x2="1183" y1="348.875" y2="348.875"/><ellipse cx="1090" cy="359.875" fill="#84BE84" rx="3" ry="3" style="stroke:#038048;stroke-width:1.0;"/><text fill="#000000" font-family="sans-serif" font-size="14" lengthAdjust="spacing" textLength="59" x="1099" y="367.4082">toString()</text></g><!--MD5=[7a3f677e62d08ccf691684bafc193c34]
class dto--><g id="elem_dto"><rect codeLine="42" fill="#F1F1F1" height="48" id="dto" rx="2.5" ry="2.5" style="stroke:#181818;stroke-width:0.5;" width="135" x="16" y="692"/><ellipse cx="31" cy="708" fill="#ADD1B2" rx="11" ry="11" style="stroke:#181818;stroke-width:1.0;"/><path d="M33,704.5 Q33.2031,704 33.4375,703.75 Q33.6719,703.5 33.9375,703.5 Q34.4063,703.5 34.7031,703.7813 Q35,704.0625 35,704.7188 L35,706.2813 Q35,706.9375 34.7188,707.2188 Q34.4375,707.5 34,707.5 Q33.6094,707.5 33.3594,707.3281 Q33.1094,707.1563 33,706.7031 Q32.9531,706.3906 32.7813,706.2188 Q32.4688,705.8906 31.9063,705.7031 Q31.3438,705.5 30.7813,705.5 Q30.0781,705.5 29.4844,705.7813 Q28.9063,706.0625 28.4531,706.6875 Q28,707.3125 28,708.1719 L28,709.0938 Q28,710.125 28.8438,710.8125 Q29.6875,711.5 31.1875,711.5 Q32.0781,711.5 32.7031,711.2969 Q33.0625,711.1875 33.4688,710.8281 Q33.7344,710.625 33.875,710.5625 Q34.0156,710.5 34.1875,710.5 Q34.5156,710.5 34.75,710.7656 Q35,711.0156 35,711.375 Q35,711.7188 34.6563,712.125 Q34.1563,712.7188 33.3594,713.0469 Q32.3125,713.5 31.0313,713.5 Q29.5313,713.5 28.3281,712.9063 Q27.3594,712.4375 26.6719,711.4219 Q26,710.4063 26,709.2031 L26,708.1094 Q26,706.8594 26.5938,705.7656 Q27.2031,704.6719 28.25,704.0938 Q29.3125,703.5 30.5,703.5 Q31.2188,703.5 31.8438,703.75 Q32.4688,704 33,704.5 Z " fill="#000000"/><text fill="#000000" font-family="sans-serif" font-size="14" lengthAdjust="spacing" textLength="103" x="45" y="713.7285">CenterDataDTO</text><line style="stroke:#181818;stroke-width:0.5;" x1="17" x2="150" y1="724" y2="724"/><line style="stroke:#181818;stroke-width:0.5;" x1="17" x2="150" y1="732" y2="732"/></g><!--MD5=[e135d8adcf51f727a980043ebcbb1fb2]
class prop--><g id="elem_prop"><rect codeLine="45" fill="#F1F1F1" height="65.6094" id="prop" rx="2.5" ry="2.5" style="stroke:#181818;stroke-width:0.5;" width="138" x="195.5" y="460.5"/><ellipse cx="210.5" cy="476.5" fill="#ADD1B2" rx="11" ry="11" style="stroke:#181818;stroke-width:1.0;"/><path d="M212.5,473 Q212.7031,472.5 212.9375,472.25 Q213.1719,472 213.4375,472 Q213.9063,472 214.2031,472.2813 Q214.5,472.5625 214.5,473.2188 L214.5,474.7813 Q214.5,475.4375 214.2188,475.7188 Q213.9375,476 213.5,476 Q213.1094,476 212.8594,475.8281 Q212.6094,475.6563 212.5,475.2031 Q212.4531,474.8906 212.2813,474.7188 Q211.9688,474.3906 211.4063,474.2031 Q210.8438,474 210.2813,474 Q209.5781,474 208.9844,474.2813 Q208.4063,474.5625 207.9531,475.1875 Q207.5,475.8125 207.5,476.6719 L207.5,477.5938 Q207.5,478.625 208.3438,479.3125 Q209.1875,480 210.6875,480 Q211.5781,480 212.2031,479.7969 Q212.5625,479.6875 212.9688,479.3281 Q213.2344,479.125 213.375,479.0625 Q213.5156,479 213.6875,479 Q214.0156,479 214.25,479.2656 Q214.5,479.5156 214.5,479.875 Q214.5,480.2188 214.1563,480.625 Q213.6563,481.2188 212.8594,481.5469 Q211.8125,482 210.5313,482 Q209.0313,482 207.8281,481.4063 Q206.8594,480.9375 206.1719,479.9219 Q205.5,478.9063 205.5,477.7031 L205.5,476.6094 Q205.5,475.3594 206.0938,474.2656 Q206.7031,473.1719 207.75,472.5938 Q208.8125,472 210,472 Q210.7188,472 211.3438,472.25 Q211.9688,472.5 212.5,473 Z " fill="#000000"/><text fill="#000000" font-family="sans-serif" font-size="14" lengthAdjust="spacing" textLength="106" x="224.5" y="482.2285">PropertiesCache</text><line style="stroke:#181818;stroke-width:0.5;" x1="196.5" x2="332.5" y1="492.5" y2="492.5"/><line style="stroke:#181818;stroke-width:0.5;" x1="196.5" x2="332.5" y1="500.5" y2="500.5"/><ellipse cx="206.5" cy="511.5" fill="#84BE84" rx="3" ry="3" style="stroke:#038048;stroke-width:1.0;"/><text fill="#000000" font-family="sans-serif" font-size="14" lengthAdjust="spacing" textLength="106" x="215.5" y="519.0332">getProperty(key)</text></g><!--MD5=[4b2d39222cd7ea0d14ecf6cfd2d398a1]
class sort1--><g id="elem_sort1"><rect codeLine="49" fill="#F1F1F1" height="65.6094" id="sort1" rx="2.5" ry="2.5" style="stroke:#181818;stroke-width:0.5;" width="116" x="376.5" y="460.5"/><ellipse cx="391.5" cy="476.5" fill="#ADD1B2" rx="11" ry="11" style="stroke:#181818;stroke-width:1.0;"/><path d="M393.5,473 Q393.7031,472.5 393.9375,472.25 Q394.1719,472 394.4375,472 Q394.9063,472 395.2031,472.2813 Q395.5,472.5625 395.5,473.2188 L395.5,474.7813 Q395.5,475.4375 395.2188,475.7188 Q394.9375,476 394.5,476 Q394.1094,476 393.8594,475.8281 Q393.6094,475.6563 393.5,475.2031 Q393.4531,474.8906 393.2813,474.7188 Q392.9688,474.3906 392.4063,474.2031 Q391.8438,474 391.2813,474 Q390.5781,474 389.9844,474.2813 Q389.4063,474.5625 388.9531,475.1875 Q388.5,475.8125 388.5,476.6719 L388.5,477.5938 Q388.5,478.625 389.3438,479.3125 Q390.1875,480 391.6875,480 Q392.5781,480 393.2031,479.7969 Q393.5625,479.6875 393.9688,479.3281 Q394.2344,479.125 394.375,479.0625 Q394.5156,479 394.6875,479 Q395.0156,479 395.25,479.2656 Q395.5,479.5156 395.5,479.875 Q395.5,480.2188 395.1563,480.625 Q394.6563,481.2188 393.8594,481.5469 Q392.8125,482 391.5313,482 Q390.0313,482 388.8281,481.4063 Q387.8594,480.9375 387.1719,479.9219 Q386.5,478.9063 386.5,477.7031 L386.5,476.6094 Q386.5,475.3594 387.0938,474.2656 Q387.7031,473.1719 388.75,472.5938 Q389.8125,472 391,472 Q391.7188,472 392.3438,472.25 Q392.9688,472.5 393.5,473 Z " fill="#000000"/><text fill="#000000" font-family="sans-serif" font-size="14" lengthAdjust="spacing" textLength="84" x="405.5" y="482.2285">SelectionSort</text><line style="stroke:#181818;stroke-width:0.5;" x1="377.5" x2="491.5" y1="492.5" y2="492.5"/><line style="stroke:#181818;stroke-width:0.5;" x1="377.5" x2="491.5" y1="500.5" y2="500.5"/><ellipse cx="387.5" cy="511.5" fill="#84BE84" rx="3" ry="3" style="stroke:#038048;stroke-width:1.0;"/><text fill="#000000" font-family="sans-serif" font-size="14" lengthAdjust="spacing" textLength="34" x="396.5" y="519.0332">sort()</text></g><!--MD5=[f63b80440caa932c92b0badf66ed3906]
class sort2--><g id="elem_sort2"><rect codeLine="53" fill="#F1F1F1" height="65.6094" id="sort2" rx="2.5" ry="2.5" style="stroke:#181818;stroke-width:0.5;" width="113" x="543" y="460.5"/><ellipse cx="558" cy="476.5" fill="#ADD1B2" rx="11" ry="11" style="stroke:#181818;stroke-width:1.0;"/><path d="M560,473 Q560.2031,472.5 560.4375,472.25 Q560.6719,472 560.9375,472 Q561.4063,472 561.7031,472.2813 Q562,472.5625 562,473.2188 L562,474.7813 Q562,475.4375 561.7188,475.7188 Q561.4375,476 561,476 Q560.6094,476 560.3594,475.8281 Q560.1094,475.6563 560,475.2031 Q559.9531,474.8906 559.7813,474.7188 Q559.4688,474.3906 558.9063,474.2031 Q558.3438,474 557.7813,474 Q557.0781,474 556.4844,474.2813 Q555.9063,474.5625 555.4531,475.1875 Q555,475.8125 555,476.6719 L555,477.5938 Q555,478.625 555.8438,479.3125 Q556.6875,480 558.1875,480 Q559.0781,480 559.7031,479.7969 Q560.0625,479.6875 560.4688,479.3281 Q560.7344,479.125 560.875,479.0625 Q561.0156,479 561.1875,479 Q561.5156,479 561.75,479.2656 Q562,479.5156 562,479.875 Q562,480.2188 561.6563,480.625 Q561.1563,481.2188 560.3594,481.5469 Q559.3125,482 558.0313,482 Q556.5313,482 555.3281,481.4063 Q554.3594,480.9375 553.6719,479.9219 Q553,478.9063 553,477.7031 L553,476.6094 Q553,475.3594 553.5938,474.2656 Q554.2031,473.1719 555.25,472.5938 Q556.3125,472 557.5,472 Q558.2188,472 558.8438,472.25 Q559.4688,472.5 560,473 Z " fill="#000000"/><text fill="#000000" font-family="sans-serif" font-size="14" lengthAdjust="spacing" textLength="81" x="572" y="482.2285">PancakeSort</text><line style="stroke:#181818;stroke-width:0.5;" x1="544" x2="655" y1="492.5" y2="492.5"/><line style="stroke:#181818;stroke-width:0.5;" x1="544" x2="655" y1="500.5" y2="500.5"/><ellipse cx="554" cy="511.5" fill="#84BE84" rx="3" ry="3" style="stroke:#038048;stroke-width:1.0;"/><text fill="#000000" font-family="sans-serif" font-size="14" lengthAdjust="spacing" textLength="34" x="563" y="519.0332">sort()</text></g><!--MD5=[7cff29465ac98b415804b3f61c777969]
class compare--><g id="elem_compare"><rect codeLine="57" fill="#F1F1F1" height="65.6094" id="compare" rx="2.5" ry="2.5" style="stroke:#181818;stroke-width:0.5;" width="152" x="397.5" y="683"/><ellipse cx="416.55" cy="699" fill="#ADD1B2" rx="11" ry="11" style="stroke:#181818;stroke-width:1.0;"/><path d="M418.55,695.5 Q418.7531,695 418.9875,694.75 Q419.2219,694.5 419.4875,694.5 Q419.9563,694.5 420.2531,694.7813 Q420.55,695.0625 420.55,695.7188 L420.55,697.2813 Q420.55,697.9375 420.2688,698.2188 Q419.9875,698.5 419.55,698.5 Q419.1594,698.5 418.9094,698.3281 Q418.6594,698.1563 418.55,697.7031 Q418.5031,697.3906 418.3313,697.2188 Q418.0188,696.8906 417.4563,696.7031 Q416.8938,696.5 416.3313,696.5 Q415.6281,696.5 415.0344,696.7813 Q414.4563,697.0625 414.0031,697.6875 Q413.55,698.3125 413.55,699.1719 L413.55,700.0938 Q413.55,701.125 414.3938,701.8125 Q415.2375,702.5 416.7375,702.5 Q417.6281,702.5 418.2531,702.2969 Q418.6125,702.1875 419.0188,701.8281 Q419.2844,701.625 419.425,701.5625 Q419.5656,701.5 419.7375,701.5 Q420.0656,701.5 420.3,701.7656 Q420.55,702.0156 420.55,702.375 Q420.55,702.7188 420.2063,703.125 Q419.7063,703.7188 418.9094,704.0469 Q417.8625,704.5 416.5813,704.5 Q415.0813,704.5 413.8781,703.9063 Q412.9094,703.4375 412.2219,702.4219 Q411.55,701.4063 411.55,700.2031 L411.55,699.1094 Q411.55,697.8594 412.1438,696.7656 Q412.7531,695.6719 413.8,695.0938 Q414.8625,694.5 416.05,694.5 Q416.7688,694.5 417.3938,694.75 Q418.0188,695 418.55,695.5 Z " fill="#000000"/><text fill="#000000" font-family="sans-serif" font-size="14" lengthAdjust="spacing" textLength="111" x="431.45" y="704.7285">CompareInstance</text><line style="stroke:#181818;stroke-width:0.5;" x1="398.5" x2="548.5" y1="715" y2="715"/><line style="stroke:#181818;stroke-width:0.5;" x1="398.5" x2="548.5" y1="723" y2="723"/><ellipse cx="408.5" cy="734" fill="#84BE84" rx="3" ry="3" style="stroke:#038048;stroke-width:1.0;"/><text fill="#000000" font-family="sans-serif" font-size="14" lengthAdjust="spacing" textLength="126" x="417.5" y="741.5332">compareDateTime()</text></g><!--MD5=[1a76fe0ddc22ce4e291dfd3fbd383345]
class vac--><g id="elem_vac"><rect codeLine="61" fill="#F1F1F1" height="153.6563" id="vac" rx="2.5" ry="2.5" style="stroke:#181818;stroke-width:0.5;" width="167" x="717" y="639"/><ellipse cx="758.55" cy="655" fill="#ADD1B2" rx="11" ry="11" style="stroke:#181818;stroke-width:1.0;"/><path d="M760.55,651.5 Q760.7531,651 760.9875,650.75 Q761.2219,650.5 761.4875,650.5 Q761.9563,650.5 762.2531,650.7813 Q762.55,651.0625 762.55,651.7188 L762.55,653.2813 Q762.55,653.9375 762.2688,654.2188 Q761.9875,654.5 761.55,654.5 Q761.1594,654.5 760.9094,654.3281 Q760.6594,654.1563 760.55,653.7031 Q760.5031,653.3906 760.3313,653.2188 Q760.0188,652.8906 759.4563,652.7031 Q758.8938,652.5 758.3313,652.5 Q757.6281,652.5 757.0344,652.7813 Q756.4563,653.0625 756.0031,653.6875 Q755.55,654.3125 755.55,655.1719 L755.55,656.0938 Q755.55,657.125 756.3938,657.8125 Q757.2375,658.5 758.7375,658.5 Q759.6281,658.5 760.2531,658.2969 Q760.6125,658.1875 761.0188,657.8281 Q761.2844,657.625 761.425,657.5625 Q761.5656,657.5 761.7375,657.5 Q762.0656,657.5 762.3,657.7656 Q762.55,658.0156 762.55,658.375 Q762.55,658.7188 762.2063,659.125 Q761.7063,659.7188 760.9094,660.0469 Q759.8625,660.5 758.5813,660.5 Q757.0813,660.5 755.8781,659.9063 Q754.9094,659.4375 754.2219,658.4219 Q753.55,657.4063 753.55,656.2031 L753.55,655.1094 Q753.55,653.8594 754.1438,652.7656 Q754.7531,651.6719 755.8,651.0938 Q756.8625,650.5 758.05,650.5 Q758.7688,650.5 759.3938,650.75 Q760.0188,651 760.55,651.5 Z " fill="#000000"/><text fill="#000000" font-family="sans-serif" font-size="14" lengthAdjust="spacing" textLength="76" x="778.45" y="660.7285">NewVaccine</text><line style="stroke:#181818;stroke-width:0.5;" x1="718" x2="883" y1="671" y2="671"/><rect fill="none" height="6" style="stroke:#C82930;stroke-width:1.0;" width="6" x="725" y="679"/><text fill="#000000" font-family="sans-serif" font-size="14" lengthAdjust="spacing" textLength="35" x="737" y="689.5332">name</text><rect fill="none" height="6" style="stroke:#C82930;stroke-width:1.0;" width="6" x="725" y="696.6094"/><text fill="#000000" font-family="sans-serif" font-size="14" lengthAdjust="spacing" textLength="27" x="737" y="707.1426">type</text><rect fill="none" height="6" style="stroke:#C82930;stroke-width:1.0;" width="6" x="725" y="714.2188"/><text fill="#000000" font-family="sans-serif" font-size="14" lengthAdjust="spacing" textLength="141" x="737" y="724.752">manufacturercompany</text><rect fill="none" height="6" style="stroke:#C82930;stroke-width:1.0;" width="6" x="725" y="731.8281"/><text fill="#000000" font-family="sans-serif" font-size="14" lengthAdjust="spacing" textLength="139" x="737" y="742.3613">administrationProcess</text><rect fill="none" height="6" style="stroke:#C82930;stroke-width:1.0;" width="6" x="725" y="749.4375"/><text fill="#000000" font-family="sans-serif" font-size="14" lengthAdjust="spacing" textLength="33" x="737" y="759.9707">Dose</text><line style="stroke:#181818;stroke-width:0.5;" x1="718" x2="883" y1="767.0469" y2="767.0469"/><ellipse cx="728" cy="778.0469" fill="#84BE84" rx="3" ry="3" style="stroke:#038048;stroke-width:1.0;"/><text fill="#000000" font-family="sans-serif" font-size="14" lengthAdjust="spacing" textLength="88" x="737" y="785.5801">getVacctype()</text></g><!--MD5=[d5eb12926238b34b9b4bd8e5e0c890f8]
class sns--><g id="elem_sns"><rect codeLine="70" fill="#F1F1F1" height="206.4844" id="sns" rx="2.5" ry="2.5" style="stroke:#181818;stroke-width:0.5;" width="120" x="919.5" y="613"/><ellipse cx="948.9" cy="629" fill="#ADD1B2" rx="11" ry="11" style="stroke:#181818;stroke-width:1.0;"/><path d="M950.9,625.5 Q951.1031,625 951.3375,624.75 Q951.5719,624.5 951.8375,624.5 Q952.3063,624.5 952.6031,624.7813 Q952.9,625.0625 952.9,625.7188 L952.9,627.2813 Q952.9,627.9375 952.6188,628.2188 Q952.3375,628.5 951.9,628.5 Q951.5094,628.5 951.2594,628.3281 Q951.0094,628.1563 950.9,627.7031 Q950.8531,627.3906 950.6813,627.2188 Q950.3688,626.8906 949.8063,626.7031 Q949.2438,626.5 948.6813,626.5 Q947.9781,626.5 947.3844,626.7813 Q946.8063,627.0625 946.3531,627.6875 Q945.9,628.3125 945.9,629.1719 L945.9,630.0938 Q945.9,631.125 946.7438,631.8125 Q947.5875,632.5 949.0875,632.5 Q949.9781,632.5 950.6031,632.2969 Q950.9625,632.1875 951.3688,631.8281 Q951.6344,631.625 951.775,631.5625 Q951.9156,631.5 952.0875,631.5 Q952.4156,631.5 952.65,631.7656 Q952.9,632.0156 952.9,632.375 Q952.9,632.7188 952.5563,633.125 Q952.0563,633.7188 951.2594,634.0469 Q950.2125,634.5 948.9313,634.5 Q947.4313,634.5 946.2281,633.9063 Q945.2594,633.4375 944.5719,632.4219 Q943.9,631.4063 943.9,630.2031 L943.9,629.1094 Q943.9,627.8594 944.4938,626.7656 Q945.1031,625.6719 946.15,625.0938 Q947.2125,624.5 948.4,624.5 Q949.1188,624.5 949.7438,624.75 Q950.3688,625 950.9,625.5 Z " fill="#000000"/><text fill="#000000" font-family="sans-serif" font-size="14" lengthAdjust="spacing" textLength="56" x="966.1" y="634.7285">SNSUser</text><line style="stroke:#181818;stroke-width:0.5;" x1="920.5" x2="1038.5" y1="645" y2="645"/><rect fill="none" height="6" style="stroke:#C82930;stroke-width:1.0;" width="6" x="927.5" y="653"/><text fill="#000000" font-family="sans-serif" font-size="14" lengthAdjust="spacing" textLength="36" x="939.5" y="663.5332">Name</text><rect fill="none" height="6" style="stroke:#C82930;stroke-width:1.0;" width="6" x="927.5" y="670.6094"/><text fill="#000000" font-family="sans-serif" font-size="14" lengthAdjust="spacing" textLength="94" x="939.5" y="681.1426">Phone Number</text><rect fill="none" height="6" style="stroke:#C82930;stroke-width:1.0;" width="6" x="927.5" y="688.2188"/><text fill="#000000" font-family="sans-serif" font-size="14" lengthAdjust="spacing" textLength="34" x="939.5" y="698.752">Email</text><rect fill="none" height="6" style="stroke:#C82930;stroke-width:1.0;" width="6" x="927.5" y="705.8281"/><text fill="#000000" font-family="sans-serif" font-size="14" lengthAdjust="spacing" textLength="73" x="939.5" y="716.3613">CC Number</text><rect fill="none" height="6" style="stroke:#C82930;stroke-width:1.0;" width="6" x="927.5" y="723.4375"/><text fill="#000000" font-family="sans-serif" font-size="14" lengthAdjust="spacing" textLength="80" x="939.5" y="733.9707">SNS Number</text><rect fill="none" height="6" style="stroke:#C82930;stroke-width:1.0;" width="6" x="927.5" y="741.0469"/><text fill="#000000" font-family="sans-serif" font-size="14" lengthAdjust="spacing" textLength="52" x="939.5" y="751.5801">Address</text><rect fill="none" height="6" style="stroke:#C82930;stroke-width:1.0;" width="6" x="927.5" y="758.6563"/><text fill="#000000" font-family="sans-serif" font-size="14" lengthAdjust="spacing" textLength="59" x="939.5" y="769.1895">BirthDate</text><rect fill="none" height="6" style="stroke:#C82930;stroke-width:1.0;" width="6" x="927.5" y="776.2656"/><text fill="#000000" font-family="sans-serif" font-size="14" lengthAdjust="spacing" textLength="45" x="939.5" y="786.7988">gender</text><line style="stroke:#181818;stroke-width:0.5;" x1="920.5" x2="1038.5" y1="793.875" y2="793.875"/><ellipse cx="930.5" cy="804.875" fill="#84BE84" rx="3" ry="3" style="stroke:#038048;stroke-width:1.0;"/><text fill="#000000" font-family="sans-serif" font-size="14" lengthAdjust="spacing" textLength="66" x="939.5" y="812.4082">getName()</text></g><!--MD5=[517d89a5e00e0d4f042d9fec369c24ae]
class vacStore--><g id="elem_vacStore"><rect codeLine="82" fill="#F1F1F1" height="48" id="vacStore" rx="2.5" ry="2.5" style="stroke:#181818;stroke-width:0.5;" width="116" x="725.5" y="469.5"/><ellipse cx="740.5" cy="485.5" fill="#ADD1B2" rx="11" ry="11" style="stroke:#181818;stroke-width:1.0;"/><path d="M742.5,482 Q742.7031,481.5 742.9375,481.25 Q743.1719,481 743.4375,481 Q743.9063,481 744.2031,481.2813 Q744.5,481.5625 744.5,482.2188 L744.5,483.7813 Q744.5,484.4375 744.2188,484.7188 Q743.9375,485 743.5,485 Q743.1094,485 742.8594,484.8281 Q742.6094,484.6563 742.5,484.2031 Q742.4531,483.8906 742.2813,483.7188 Q741.9688,483.3906 741.4063,483.2031 Q740.8438,483 740.2813,483 Q739.5781,483 738.9844,483.2813 Q738.4063,483.5625 737.9531,484.1875 Q737.5,484.8125 737.5,485.6719 L737.5,486.5938 Q737.5,487.625 738.3438,488.3125 Q739.1875,489 740.6875,489 Q741.5781,489 742.2031,488.7969 Q742.5625,488.6875 742.9688,488.3281 Q743.2344,488.125 743.375,488.0625 Q743.5156,488 743.6875,488 Q744.0156,488 744.25,488.2656 Q744.5,488.5156 744.5,488.875 Q744.5,489.2188 744.1563,489.625 Q743.6563,490.2188 742.8594,490.5469 Q741.8125,491 740.5313,491 Q739.0313,491 737.8281,490.4063 Q736.8594,489.9375 736.1719,488.9219 Q735.5,487.9063 735.5,486.7031 L735.5,485.6094 Q735.5,484.3594 736.0938,483.2656 Q736.7031,482.1719 737.75,481.5938 Q738.8125,481 740,481 Q740.7188,481 741.3438,481.25 Q741.9688,481.5 742.5,482 Z " fill="#000000"/><text fill="#000000" font-family="sans-serif" font-size="14" lengthAdjust="spacing" textLength="84" x="754.5" y="491.2285">VaccineStore</text><line style="stroke:#181818;stroke-width:0.5;" x1="726.5" x2="840.5" y1="501.5" y2="501.5"/><line style="stroke:#181818;stroke-width:0.5;" x1="726.5" x2="840.5" y1="509.5" y2="509.5"/></g><!--MD5=[c6e5a02ac9bb15a42371d757cf4d0cab]
class snsStore--><g id="elem_snsStore"><rect codeLine="85" fill="#F1F1F1" height="48" id="snsStore" rx="2.5" ry="2.5" style="stroke:#181818;stroke-width:0.5;" width="122" x="897.5" y="469.5"/><ellipse cx="912.5" cy="485.5" fill="#ADD1B2" rx="11" ry="11" style="stroke:#181818;stroke-width:1.0;"/><path d="M914.5,482 Q914.7031,481.5 914.9375,481.25 Q915.1719,481 915.4375,481 Q915.9063,481 916.2031,481.2813 Q916.5,481.5625 916.5,482.2188 L916.5,483.7813 Q916.5,484.4375 916.2188,484.7188 Q915.9375,485 915.5,485 Q915.1094,485 914.8594,484.8281 Q914.6094,484.6563 914.5,484.2031 Q914.4531,483.8906 914.2813,483.7188 Q913.9688,483.3906 913.4063,483.2031 Q912.8438,483 912.2813,483 Q911.5781,483 910.9844,483.2813 Q910.4063,483.5625 909.9531,484.1875 Q909.5,484.8125 909.5,485.6719 L909.5,486.5938 Q909.5,487.625 910.3438,488.3125 Q911.1875,489 912.6875,489 Q913.5781,489 914.2031,488.7969 Q914.5625,488.6875 914.9688,488.3281 Q915.2344,488.125 915.375,488.0625 Q915.5156,488 915.6875,488 Q916.0156,488 916.25,488.2656 Q916.5,488.5156 916.5,488.875 Q916.5,489.2188 916.1563,489.625 Q915.6563,490.2188 914.8594,490.5469 Q913.8125,491 912.5313,491 Q911.0313,491 909.8281,490.4063 Q908.8594,489.9375 908.1719,488.9219 Q907.5,487.9063 907.5,486.7031 L907.5,485.6094 Q907.5,484.3594 908.0938,483.2656 Q908.7031,482.1719 909.75,481.5938 Q910.8125,481 912,481 Q912.7188,481 913.3438,481.25 Q913.9688,481.5 914.5,482 Z " fill="#000000"/><text fill="#000000" font-family="sans-serif" font-size="14" lengthAdjust="spacing" textLength="90" x="926.5" y="491.2285">SNSUserStore</text><line style="stroke:#181818;stroke-width:0.5;" x1="898.5" x2="1018.5" y1="501.5" y2="501.5"/><line style="stroke:#181818;stroke-width:0.5;" x1="898.5" x2="1018.5" y1="509.5" y2="509.5"/></g><!--MD5=[65605f4b9fcf838a026dcfadc852f609]
link ui to ctrl--><g id="link_ui_ctrl"><path codeLine="88" d="M511.82,84.74 C495.47,99.23 483.64,117.45 489.5,138 C496.45,162.34 509.31,186.57 522.83,207.5 " fill="none" id="ui-to-ctrl" style="stroke:#181818;stroke-width:1.0;stroke-dasharray:7.0,7.0;"/><polygon fill="#181818" points="525.72,211.92,524.1561,202.1961,522.9895,207.7314,517.4543,206.5649,525.72,211.92" style="stroke:#181818;stroke-width:1.0;"/><text fill="#000000" font-family="sans-serif" font-size="13" lengthAdjust="spacing" textLength="116" x="490.5" y="134.4951">gives order and type</text></g><!--MD5=[2eb7a10e1a53bce7cdcb8e807f86b912]
reverse link ui to ctrl--><g id="link_ui_ctrl"><path codeLine="103" d="M601.51,94.57 C605.63,102.73 609.23,111.39 611.5,120 C619.51,150.36 611.95,184.15 601.33,211.96 " fill="none" id="ui-backto-ctrl" style="stroke:#181818;stroke-width:1.0;stroke-dasharray:7.0,7.0;"/><polygon fill="#181818" points="599.17,90.09,599.7933,99.9191,601.4858,94.5214,606.8835,96.2139,599.17,90.09" style="stroke:#181818;stroke-width:1.0;"/><text fill="#000000" font-family="sans-serif" font-size="13" lengthAdjust="spacing" textLength="90" x="614.5" y="134.4951">gives sorted list</text></g><!--MD5=[6d585df3e687e671c80463b305e42828]
reverse link comp to ctrl--><g id="link_comp_ctrl"><path codeLine="89" d="M380.3,271 C410.92,271 445.5,271 476.74,271 " fill="none" id="comp-backto-ctrl" style="stroke:#181818;stroke-width:1.0;"/><polygon fill="#181818" points="375.03,271,384.03,275,380.03,271,384.03,267,375.03,271" style="stroke:#181818;stroke-width:1.0;"/><text fill="#000000" font-family="sans-serif" font-size="13" lengthAdjust="spacing" textLength="65" x="393.5" y="264.4951">gets stores</text></g><!--MD5=[0f4630c563e64e3750628cbb7ce2294c]
link ctrl to vacStore--><g id="link_ctrl_vacStore"><path codeLine="90" d="M627.48,330.22 C669.56,373.99 725.3,431.96 757.49,465.45 " fill="none" id="ctrl-to-vacStore" style="stroke:#181818;stroke-width:1.0;"/><polygon fill="#181818" points="761.3,469.41,757.9505,460.1482,757.8365,465.8039,752.1807,465.6899,761.3,469.41" style="stroke:#181818;stroke-width:1.0;"/><text fill="#000000" font-family="sans-serif" font-size="13" lengthAdjust="spacing" textLength="85" x="715.5" y="418.4951">accesses data</text></g><!--MD5=[67aac4c35d10d116cdb2b166ced9a037]
link vacStore to vac--><g id="link_vacStore_vac"><path codeLine="91" d="M785.29,517.68 C787.4,545.09 791.03,592.22 794.22,633.55 " fill="none" id="vacStore-to-vac" style="stroke:#181818;stroke-width:1.0;"/><polygon fill="#181818" points="794.61,638.56,797.9039,629.2783,794.2243,633.5749,789.9277,629.8953,794.61,638.56" style="stroke:#181818;stroke-width:1.0;"/><text fill="#000000" font-family="sans-serif" font-size="13" lengthAdjust="spacing" textLength="54" x="790.5" y="579.4951">gets type</text></g><!--MD5=[56bcffc4d75a787f8dab8f5ff3170f3b]
link ctrl to snsStore--><g id="link_ctrl_snsStore"><path codeLine="92" d="M666.25,323.71 C710.02,347.82 762.58,377.06 809.5,404 C845.68,424.77 886.39,449.01 916.1,466.86 " fill="none" id="ctrl-to-snsStore" style="stroke:#181818;stroke-width:1.0;"/><polygon fill="#181818" points="920.4,469.45,914.7405,461.3896,916.1125,466.8775,910.6246,468.2495,920.4,469.45" style="stroke:#181818;stroke-width:1.0;"/><text fill="#000000" font-family="sans-serif" font-size="13" lengthAdjust="spacing" textLength="85" x="838.5" y="418.4951">accesses data</text></g><!--MD5=[25bbfab543dc27a4558329611e9b94f0]
link snsStore to sns--><g id="link_snsStore_sns"><path codeLine="93" d="M960.71,517.68 C962.79,539.55 966.07,573.96 969.31,607.97 " fill="none" id="snsStore-to-sns" style="stroke:#181818;stroke-width:1.0;"/><polygon fill="#181818" points="969.78,612.98,972.9125,603.6426,969.308,608.0023,964.9482,604.3978,969.78,612.98" style="stroke:#181818;stroke-width:1.0;"/><text fill="#000000" font-family="sans-serif" font-size="13" lengthAdjust="spacing" textLength="61" x="967.5" y="579.4951">gets name</text></g><!--MD5=[3eade2a581518beeb69cf3a807070f14]
link ctrl to prop--><g id="link_ctrl_prop"><path codeLine="94" d="M481.66,330.16 C453.92,346.18 422.7,362.35 392.5,374 C335.16,396.13 295.96,356.06 257.5,404 C246.23,418.05 246.71,437.73 250.56,454.96 " fill="none" id="ctrl-to-prop" style="stroke:#181818;stroke-width:1.0;stroke-dasharray:7.0,7.0;"/><polygon fill="#181818" points="251.86,460.22,253.6115,450.5281,250.6742,455.3626,245.8397,452.4254,251.86,460.22" style="stroke:#181818;stroke-width:1.0;"/><text fill="#000000" font-family="sans-serif" font-size="13" lengthAdjust="spacing" textLength="230" x="258.5" y="418.4951">gets the algorithm from configuration file</text></g><!--MD5=[7d767db3ca03f322a177f400e0e9363a]
link ctrl to store--><g id="link_ctrl_store"><path codeLine="95" d="M666.24,271 C737.56,271 833.96,271 899.86,271 " fill="none" id="ctrl-to-store" style="stroke:#181818;stroke-width:1.0;stroke-dasharray:7.0,7.0;"/><polygon fill="#181818" points="904.95,271,895.95,267,899.95,271,895.95,275,904.95,271" style="stroke:#181818;stroke-width:1.0;"/><text fill="#000000" font-family="sans-serif" font-size="13" lengthAdjust="spacing" textLength="202" x="684.5" y="264.4951">checks if list is empty and gets list</text></g><!--MD5=[603928d0610bcb0e6c530f185efba8f4]
link store to cd--><g id="link_store_cd"><path codeLine="96" d="M1044.11,271 C1053.99,271 1063.88,271 1073.76,271 " fill="none" id="store-to-cd" style="stroke:#181818;stroke-width:1.0;stroke-dasharray:7.0,7.0;"/><polygon fill="#181818" points="1078.93,271,1069.93,267,1073.93,271,1069.93,275,1078.93,271" style="stroke:#181818;stroke-width:1.0;"/></g><!--MD5=[cafc10e9a3142b59ed9bd1a70dd31339]
link ctrl to map--><g id="link_ctrl_map"><path codeLine="97" d="M485.01,330.25 C456.62,346.87 424.2,363.35 392.5,374 C295.2,406.69 254.4,356.32 163.5,404 C144.05,414.2 126.99,431.13 113.68,447.46 " fill="none" id="ctrl-to-map" style="stroke:#181818;stroke-width:1.0;"/><polygon fill="#181818" points="110.38,451.6,119.1318,447.0827,113.5087,447.6998,112.8915,442.0768,110.38,451.6" style="stroke:#181818;stroke-width:1.0;"/><text fill="#000000" font-family="sans-serif" font-size="13" lengthAdjust="spacing" textLength="77" x="164.5" y="418.4951">maps to DTO</text></g><!--MD5=[5accb3297f19f59b61eac049dcf227dc]
link map to dto--><g id="link_map_dto"><path codeLine="98" d="M83.5,535.2 C83.5,579.08 83.5,647.82 83.5,686.35 " fill="none" id="map-to-dto" style="stroke:#181818;stroke-width:1.0;"/><polygon fill="#181818" points="83.5,691.81,87.5,682.81,83.5,686.81,79.5,682.81,83.5,691.81" style="stroke:#181818;stroke-width:1.0;"/><text fill="#000000" font-family="sans-serif" font-size="13" lengthAdjust="spacing" textLength="125" x="84.5" y="579.4951">creates dto instances</text></g><!--MD5=[9badd9378383a410cad1957697bb4999]
link ctrl to sort1--><g id="link_ctrl_sort1"><path codeLine="99" d="M547.22,330.29 C534.18,358.93 516.83,393.36 497.5,422 C489.48,433.87 479.61,445.85 470.08,456.47 " fill="none" id="ctrl-to-sort1" style="stroke:#181818;stroke-width:1.0;"/><polygon fill="#181818" points="466.59,460.32,475.6,456.3426,469.9498,456.6171,469.6753,450.9669,466.59,460.32" style="stroke:#181818;stroke-width:1.0;"/><text fill="#000000" font-family="sans-serif" font-size="13" lengthAdjust="spacing" textLength="29" x="507.5" y="418.4951">sorts</text></g><!--MD5=[4f1b12514fe109ddff3ffde954c70f1a]
link ctrl to sort2--><g id="link_ctrl_sort2"><path codeLine="100" d="M578.89,330.22 C583.91,369.71 590.39,420.74 594.73,454.94 " fill="none" id="ctrl-to-sort2" style="stroke:#181818;stroke-width:1.0;"/><polygon fill="#181818" points="595.41,460.28,598.2461,450.8483,594.781,455.3197,590.3096,451.8547,595.41,460.28" style="stroke:#181818;stroke-width:1.0;"/><text fill="#000000" font-family="sans-serif" font-size="13" lengthAdjust="spacing" textLength="29" x="590.5" y="418.4951">sorts</text></g><!--MD5=[ee4f39ae4c404b6917cf522e3275d7b8]
link sort1 to compare--><g id="link_sort1_compare"><path codeLine="101" d="M384.35,526.72 C367.06,542.15 353.74,561.87 361.5,583 C375.37,620.78 405.38,655.16 430.84,679.35 " fill="none" id="sort1-to-compare" style="stroke:#181818;stroke-width:1.0;"/><polygon fill="#181818" points="434.56,682.84,430.7477,673.7589,430.919,679.4132,425.2647,679.5845,434.56,682.84" style="stroke:#181818;stroke-width:1.0;"/><text fill="#000000" font-family="sans-serif" font-size="13" lengthAdjust="spacing" textLength="176" x="362.5" y="579.4951">compares DateTime instances</text></g><!--MD5=[4c8f3336f1d838e2e01c0f374663f92e]
link sort2 to compare--><g id="link_sort2_compare"><path codeLine="102" d="M581.18,526.56 C558.13,566.9 518.64,636 494.43,678.38 " fill="none" id="sort2-to-compare" style="stroke:#181818;stroke-width:1.0;"/><polygon fill="#181818" points="491.84,682.9,499.7823,677.076,494.3238,678.5605,492.8392,673.102,491.84,682.9" style="stroke:#181818;stroke-width:1.0;"/><text fill="#000000" font-family="sans-serif" font-size="13" lengthAdjust="spacing" textLength="176" x="559.5" y="579.4951">compares DateTime instances</text></g><!--MD5=[503f0bd3e2fa3a8003b1ac6d37ca25d0]
@startuml

class "CenterDataUI" as ui{
+chooseOrder()
+chooseType()
}

class "CenterDataController" as ctrl{
+isListEmpty()
+getSortedList(order, type)
+selectionSort(order, type)
+pancakeSort(order, type)
}

class "Company" as comp{
+getCenterDataStore()
+getVaccineStore()
+getSNSUserStore()
}

class "CenterDataStore" as store{
+isEmpty()
+getAll()
}

class "CenterDataMapper" as map{
+toDTO(cd)
+toDTO(cdList)
}

class "CenterData" as cd{
-arr
-sch
-admin
-leave
-SNSnum
-lot
-vacName
-currentDose
+toString()
}

class "CenterDataDTO" as dto{
}

class "PropertiesCache" as prop{
+getProperty(key)
}

class "SelectionSort" as sort1{
+sort()
}

class "PancakeSort" as sort2{
+sort()
}

class "CompareInstance" as compare{
+compareDateTime()
}

class "NewVaccine" as vac{
-name
-type
-manufacturercompany
-administrationProcess
-Dose
+getVacctype()
}

class "SNSUser" as sns{
-Name
-Phone Number
-Email
-CC Number
-SNS Number
-Address
-BirthDate
-gender
+getName()
}

class "VaccineStore" as vacStore{
}

class "SNSUserStore" as snsStore{
}

ui ..> ctrl : gives order and type
ctrl -left-> comp : gets stores
ctrl -down-> vacStore : accesses data
vacStore - -> vac : gets type
ctrl -down-> snsStore : accesses data
snsStore - -> sns : gets name
ctrl ..> prop : gets the algorithm from configuration file
ctrl .> store : checks if list is empty and gets list
store .> cd 
ctrl -down-> map : maps to DTO
map - -> dto : creates dto instances
ctrl - -> sort1 : sorts
ctrl - -> sort2 : sorts
sort1 - -> compare : compares DateTime instances
sort2 - -> compare : compares DateTime instances
ctrl .up.> ui : gives sorted list
@enduml

PlantUML version 1.2022.5(Sat Apr 30 11:55:52 BST 2022)
(GPL source distribution)
Java Runtime: OpenJDK Runtime Environment
JVM: OpenJDK 64-Bit Server VM
Default Encoding: Cp1252
Language: en
Country: US
--></g></svg>