<?xml version="1.0" encoding="UTF-8" standalone="no"?><svg xmlns="http://www.w3.org/2000/svg" xmlns:xlink="http://www.w3.org/1999/xlink" contentStyleType="text/css" height="490px" preserveAspectRatio="none" style="width:387px;height:490px;background:#FFFFFF;" version="1.1" viewBox="0 0 387 490" width="387px" zoomAndPan="magnify"><defs/><g><!--MD5=[bc2b9875a1b7ec9dc0c91782fdd7a643]
class cd--><g id="elem_cd"><rect codeLine="3" fill="#F1F1F1" height="48" id="cd" rx="2.5" ry="2.5" style="stroke:#181818;stroke-width:0.5;" width="154" x="50.5" y="7"/><ellipse cx="65.5" cy="23" fill="#ADD1B2" rx="11" ry="11" style="stroke:#181818;stroke-width:1.0;"/><path d="M67.5,19.5 Q67.7031,19 67.9375,18.75 Q68.1719,18.5 68.4375,18.5 Q68.9063,18.5 69.2031,18.7813 Q69.5,19.0625 69.5,19.7188 L69.5,21.2813 Q69.5,21.9375 69.2188,22.2188 Q68.9375,22.5 68.5,22.5 Q68.1094,22.5 67.8594,22.3281 Q67.6094,22.1563 67.5,21.7031 Q67.4531,21.3906 67.2813,21.2188 Q66.9688,20.8906 66.4063,20.7031 Q65.8438,20.5 65.2813,20.5 Q64.5781,20.5 63.9844,20.7813 Q63.4063,21.0625 62.9531,21.6875 Q62.5,22.3125 62.5,23.1719 L62.5,24.0938 Q62.5,25.125 63.3438,25.8125 Q64.1875,26.5 65.6875,26.5 Q66.5781,26.5 67.2031,26.2969 Q67.5625,26.1875 67.9688,25.8281 Q68.2344,25.625 68.375,25.5625 Q68.5156,25.5 68.6875,25.5 Q69.0156,25.5 69.25,25.7656 Q69.5,26.0156 69.5,26.375 Q69.5,26.7188 69.1563,27.125 Q68.6563,27.7188 67.8594,28.0469 Q66.8125,28.5 65.5313,28.5 Q64.0313,28.5 62.8281,27.9063 Q61.8594,27.4375 61.1719,26.4219 Q60.5,25.4063 60.5,24.2031 L60.5,23.1094 Q60.5,21.8594 61.0938,20.7656 Q61.7031,19.6719 62.75,19.0938 Q63.8125,18.5 65,18.5 Q65.7188,18.5 66.3438,18.75 Q66.9688,19 67.5,19.5 Z " fill="#000000"/><text fill="#000000" font-family="sans-serif" font-size="14" lengthAdjust="spacing" textLength="122" x="79.5" y="28.7285">Center Coordinator</text><line style="stroke:#181818;stroke-width:0.5;" x1="51.5" x2="203.5" y1="39" y2="39"/><line style="stroke:#181818;stroke-width:0.5;" x1="51.5" x2="203.5" y1="47" y2="47"/></g><!--MD5=[02e4b9b7573f1156f41e60aa5b4e25a4]
class Company--><g id="elem_Company"><rect codeLine="6" fill="#F1F1F1" height="65.6094" id="Company" rx="2.5" ry="2.5" style="stroke:#181818;stroke-width:0.5;" width="99" x="281" y="133"/><ellipse cx="299.15" cy="149" fill="#ADD1B2" rx="11" ry="11" style="stroke:#181818;stroke-width:1.0;"/><path d="M301.15,145.5 Q301.3531,145 301.5875,144.75 Q301.8219,144.5 302.0875,144.5 Q302.5563,144.5 302.8531,144.7813 Q303.15,145.0625 303.15,145.7188 L303.15,147.2813 Q303.15,147.9375 302.8688,148.2188 Q302.5875,148.5 302.15,148.5 Q301.7594,148.5 301.5094,148.3281 Q301.2594,148.1563 301.15,147.7031 Q301.1031,147.3906 300.9313,147.2188 Q300.6188,146.8906 300.0563,146.7031 Q299.4938,146.5 298.9313,146.5 Q298.2281,146.5 297.6344,146.7813 Q297.0563,147.0625 296.6031,147.6875 Q296.15,148.3125 296.15,149.1719 L296.15,150.0938 Q296.15,151.125 296.9938,151.8125 Q297.8375,152.5 299.3375,152.5 Q300.2281,152.5 300.8531,152.2969 Q301.2125,152.1875 301.6188,151.8281 Q301.8844,151.625 302.025,151.5625 Q302.1656,151.5 302.3375,151.5 Q302.6656,151.5 302.9,151.7656 Q303.15,152.0156 303.15,152.375 Q303.15,152.7188 302.8063,153.125 Q302.3063,153.7188 301.5094,154.0469 Q300.4625,154.5 299.1813,154.5 Q297.6813,154.5 296.4781,153.9063 Q295.5094,153.4375 294.8219,152.4219 Q294.15,151.4063 294.15,150.2031 L294.15,149.1094 Q294.15,147.8594 294.7438,146.7656 Q295.3531,145.6719 296.4,145.0938 Q297.4625,144.5 298.65,144.5 Q299.3688,144.5 299.9938,144.75 Q300.6188,145 301.15,145.5 Z " fill="#000000"/><text fill="#000000" font-family="sans-serif" font-size="14" lengthAdjust="spacing" textLength="60" x="313.85" y="154.7285">Company</text><line style="stroke:#181818;stroke-width:0.5;" x1="282" x2="379" y1="165" y2="165"/><rect fill="none" height="6" style="stroke:#C82930;stroke-width:1.0;" width="6" x="289" y="173"/><text fill="#000000" font-family="sans-serif" font-size="14" lengthAdjust="spacing" textLength="73" x="301" y="183.5332">designation</text><line style="stroke:#181818;stroke-width:0.5;" x1="282" x2="379" y1="190.6094" y2="190.6094"/></g><!--MD5=[53e6cac2272ce2eb99d85cf2b2d574ee]
class Performance--><g id="elem_Performance"><rect codeLine="10" fill="#F1F1F1" height="48" id="Performance" rx="2.5" ry="2.5" style="stroke:#181818;stroke-width:0.5;" width="113" x="7" y="142"/><ellipse cx="22" cy="158" fill="#ADD1B2" rx="11" ry="11" style="stroke:#181818;stroke-width:1.0;"/><path d="M24,154.5 Q24.2031,154 24.4375,153.75 Q24.6719,153.5 24.9375,153.5 Q25.4063,153.5 25.7031,153.7813 Q26,154.0625 26,154.7188 L26,156.2813 Q26,156.9375 25.7188,157.2188 Q25.4375,157.5 25,157.5 Q24.6094,157.5 24.3594,157.3281 Q24.1094,157.1563 24,156.7031 Q23.9531,156.3906 23.7813,156.2188 Q23.4688,155.8906 22.9063,155.7031 Q22.3438,155.5 21.7813,155.5 Q21.0781,155.5 20.4844,155.7813 Q19.9063,156.0625 19.4531,156.6875 Q19,157.3125 19,158.1719 L19,159.0938 Q19,160.125 19.8438,160.8125 Q20.6875,161.5 22.1875,161.5 Q23.0781,161.5 23.7031,161.2969 Q24.0625,161.1875 24.4688,160.8281 Q24.7344,160.625 24.875,160.5625 Q25.0156,160.5 25.1875,160.5 Q25.5156,160.5 25.75,160.7656 Q26,161.0156 26,161.375 Q26,161.7188 25.6563,162.125 Q25.1563,162.7188 24.3594,163.0469 Q23.3125,163.5 22.0313,163.5 Q20.5313,163.5 19.3281,162.9063 Q18.3594,162.4375 17.6719,161.4219 Q17,160.4063 17,159.2031 L17,158.1094 Q17,156.8594 17.5938,155.7656 Q18.2031,154.6719 19.25,154.0938 Q20.3125,153.5 21.5,153.5 Q22.2188,153.5 22.8438,153.75 Q23.4688,154 24,154.5 Z " fill="#000000"/><text fill="#000000" font-family="sans-serif" font-size="14" lengthAdjust="spacing" textLength="81" x="36" y="163.7285">Performance</text><line style="stroke:#181818;stroke-width:0.5;" x1="8" x2="119" y1="174" y2="174"/><line style="stroke:#181818;stroke-width:0.5;" x1="8" x2="119" y1="182" y2="182"/></g><!--MD5=[bbeb6f2d4f0cde5b5ad7e95eb602aac9]
class vc--><g id="elem_vc"><rect codeLine="13" fill="#F1F1F1" height="206.4844" id="vc" rx="2.5" ry="2.5" style="stroke:#181818;stroke-width:0.5;" width="152" x="114.5" y="277"/><ellipse cx="129.5" cy="293" fill="#ADD1B2" rx="11" ry="11" style="stroke:#181818;stroke-width:1.0;"/><path d="M131.5,289.5 Q131.7031,289 131.9375,288.75 Q132.1719,288.5 132.4375,288.5 Q132.9063,288.5 133.2031,288.7813 Q133.5,289.0625 133.5,289.7188 L133.5,291.2813 Q133.5,291.9375 133.2188,292.2188 Q132.9375,292.5 132.5,292.5 Q132.1094,292.5 131.8594,292.3281 Q131.6094,292.1563 131.5,291.7031 Q131.4531,291.3906 131.2813,291.2188 Q130.9688,290.8906 130.4063,290.7031 Q129.8438,290.5 129.2813,290.5 Q128.5781,290.5 127.9844,290.7813 Q127.4063,291.0625 126.9531,291.6875 Q126.5,292.3125 126.5,293.1719 L126.5,294.0938 Q126.5,295.125 127.3438,295.8125 Q128.1875,296.5 129.6875,296.5 Q130.5781,296.5 131.2031,296.2969 Q131.5625,296.1875 131.9688,295.8281 Q132.2344,295.625 132.375,295.5625 Q132.5156,295.5 132.6875,295.5 Q133.0156,295.5 133.25,295.7656 Q133.5,296.0156 133.5,296.375 Q133.5,296.7188 133.1563,297.125 Q132.6563,297.7188 131.8594,298.0469 Q130.8125,298.5 129.5313,298.5 Q128.0313,298.5 126.8281,297.9063 Q125.8594,297.4375 125.1719,296.4219 Q124.5,295.4063 124.5,294.2031 L124.5,293.1094 Q124.5,291.8594 125.0938,290.7656 Q125.7031,289.6719 126.75,289.0938 Q127.8125,288.5 129,288.5 Q129.7188,288.5 130.3438,288.75 Q130.9688,289 131.5,289.5 Z " fill="#000000"/><text fill="#000000" font-family="sans-serif" font-size="14" lengthAdjust="spacing" textLength="120" x="143.5" y="298.7285">Vaccination Center</text><line style="stroke:#181818;stroke-width:0.5;" x1="115.5" x2="265.5" y1="309" y2="309"/><rect fill="none" height="6" style="stroke:#C82930;stroke-width:1.0;" width="6" x="122.5" y="317"/><text fill="#000000" font-family="sans-serif" font-size="14" lengthAdjust="spacing" textLength="35" x="134.5" y="327.5332">name</text><rect fill="none" height="6" style="stroke:#C82930;stroke-width:1.0;" width="6" x="122.5" y="334.6094"/><text fill="#000000" font-family="sans-serif" font-size="14" lengthAdjust="spacing" textLength="33" x="134.5" y="345.1426">email</text><rect fill="none" height="6" style="stroke:#C82930;stroke-width:1.0;" width="6" x="122.5" y="352.2188"/><text fill="#000000" font-family="sans-serif" font-size="14" lengthAdjust="spacing" textLength="92" x="134.5" y="362.752">phone number</text><rect fill="none" height="6" style="stroke:#C82930;stroke-width:1.0;" width="6" x="122.5" y="369.8281"/><text fill="#000000" font-family="sans-serif" font-size="14" lengthAdjust="spacing" textLength="51" x="134.5" y="380.3613">address</text><rect fill="none" height="6" style="stroke:#C82930;stroke-width:1.0;" width="6" x="122.5" y="387.4375"/><text fill="#000000" font-family="sans-serif" font-size="14" lengthAdjust="spacing" textLength="80" x="134.5" y="397.9707">web address</text><rect fill="none" height="6" style="stroke:#C82930;stroke-width:1.0;" width="6" x="122.5" y="405.0469"/><text fill="#000000" font-family="sans-serif" font-size="14" lengthAdjust="spacing" textLength="70" x="134.5" y="415.5801">fax number</text><rect fill="none" height="6" style="stroke:#C82930;stroke-width:1.0;" width="6" x="122.5" y="422.6563"/><text fill="#000000" font-family="sans-serif" font-size="14" lengthAdjust="spacing" textLength="78" x="134.5" y="433.1895">slot duration</text><rect fill="none" height="6" style="stroke:#C82930;stroke-width:1.0;" width="6" x="122.5" y="440.2656"/><text fill="#000000" font-family="sans-serif" font-size="14" lengthAdjust="spacing" textLength="84" x="134.5" y="450.7988">max vaccines</text><rect fill="none" height="6" style="stroke:#C82930;stroke-width:1.0;" width="6" x="122.5" y="457.875"/><text fill="#000000" font-family="sans-serif" font-size="14" lengthAdjust="spacing" textLength="57" x="134.5" y="468.4082">schedule</text><line style="stroke:#181818;stroke-width:0.5;" x1="115.5" x2="265.5" y1="475.4844" y2="475.4844"/></g><!--MD5=[62dcfc01a963507bf3c54d81ed34592c]
link cd to Performance--><g id="link_cd_Performance"><path codeLine="25" d="M116.35,55.17 C105.41,77.91 88.7,112.64 77,136.94 " fill="none" id="cd-to-Performance" style="stroke:#181818;stroke-width:1.0;"/><polygon fill="#181818" points="74.73,141.65,82.2438,135.2827,76.9029,137.1469,75.0388,131.806,74.73,141.65" style="stroke:#181818;stroke-width:1.0;"/><text fill="#000000" font-family="sans-serif" font-size="13" lengthAdjust="spacing" textLength="45" x="102.5" y="99.4951">analyze</text></g><!--MD5=[a32e3fe3a06b23faa476e31b001a44f5]
link cd to vc--><g id="link_cd_vc"><path codeLine="26" d="M142.69,55.13 C147.89,64.11 153.23,74.7 156.5,85 C175.62,145.13 184.22,215.21 187.99,271.87 " fill="none" id="cd-to-vc" style="stroke:#181818;stroke-width:1.0;"/><polygon fill="#181818" points="188.32,276.97,191.7212,267.7271,187.9921,271.9808,183.7385,268.2517,188.32,276.97" style="stroke:#181818;stroke-width:1.0;"/><text fill="#000000" font-family="sans-serif" font-size="13" lengthAdjust="spacing" textLength="53" x="181.5" y="171.4951">manages</text></g><!--MD5=[08af049e0dd043e4071d1ae28207650b]
link Performance to vc--><g id="link_Performance_vc"><path codeLine="27" d="M77.33,190.09 C89.47,210.34 108.03,241.33 126.63,272.39 " fill="none" id="Performance-to-vc" style="stroke:#181818;stroke-width:1.0;"/><polygon fill="#181818" points="129.38,276.97,128.1795,267.1946,126.8075,272.6825,121.3196,271.3105,129.38,276.97" style="stroke:#181818;stroke-width:1.0;"/><text fill="#000000" font-family="sans-serif" font-size="13" lengthAdjust="spacing" textLength="21" x="109.5" y="243.4951">of a</text></g><!--MD5=[5f6753b8fdd5211267d92d3b72b5c2c8]
link Company to vc--><g id="link_Company_vc"><path codeLine="28" d="M309.24,199.2 C296.17,218.99 278.6,245.59 260.99,272.26 " fill="none" id="Company-to-vc" style="stroke:#181818;stroke-width:1.0;"/><polygon fill="#181818" points="258.16,276.54,266.4596,271.2374,260.917,272.3688,259.7856,266.8262,258.16,276.54" style="stroke:#181818;stroke-width:1.0;"/><text fill="#000000" font-family="sans-serif" font-size="13" lengthAdjust="spacing" textLength="30" x="289.5" y="243.4951">owns</text></g><!--MD5=[72487bd322854c8d3c1c44f24635146f]
@startuml
'https://plantuml.com/class-diagram

class "Center Coordinator" as cd {
}

class Company {
-designation
}

class Performance {
}

class "Vaccination Center" as vc {
-name
-email
-phone number
-address
-web address
-fax number
-slot duration
-max vaccines
-schedule
}

cd - -> Performance:analyze
cd - -> vc:manages
Performance - -> vc:of a
Company - -> vc:owns

@enduml

@startuml

class "Center Coordinator" as cd {
}

class Company {
-designation
}

class Performance {
}

class "Vaccination Center" as vc {
-name
-email
-phone number
-address
-web address
-fax number
-slot duration
-max vaccines
-schedule
}

cd - -> Performance:analyze
cd - -> vc:manages
Performance - -> vc:of a
Company - -> vc:owns

@enduml

PlantUML version 1.2022.5(Sat Apr 30 11:55:52 BST 2022)
(GPL source distribution)
Java Runtime: OpenJDK Runtime Environment
JVM: OpenJDK 64-Bit Server VM
Default Encoding: Cp1252
Language: pt
Country: PT
--></g></svg>