<?xml version="1.0" encoding="UTF-8" standalone="no"?><svg xmlns="http://www.w3.org/2000/svg" xmlns:xlink="http://www.w3.org/1999/xlink" contentStyleType="text/css" height="718px" preserveAspectRatio="none" style="width:843px;height:718px;background:#FFFFFF;" version="1.1" viewBox="0 0 843 718" width="843px" zoomAndPan="magnify"><defs/><g><rect fill="#FFFFFF" height="534.5313" style="stroke:#181818;stroke-width:1.0;" width="10" x="44.5" y="92.6094"/><rect fill="#FFFFFF" height="137.4063" style="stroke:#181818;stroke-width:1.0;" width="10" x="245.5" y="131.3125"/><rect fill="#FFFFFF" height="319.0703" style="stroke:#181818;stroke-width:1.0;" width="10" x="245.5" y="299.0703"/><rect fill="#FFFFFF" height="60.3516" style="stroke:#181818;stroke-width:1.0;" width="10" x="418.5" y="161.6641"/><rect fill="#FFFFFF" height="258.3672" style="stroke:#181818;stroke-width:1.0;" width="10" x="418.5" y="329.4219"/><rect fill="#FFFFFF" height="30" style="stroke:#181818;stroke-width:1.0;" width="10" x="619.5" y="192.0156"/><rect fill="#FFFFFF" height="30" style="stroke:#181818;stroke-width:1.0;" width="10" x="619.5" y="359.7734"/><rect fill="#FFFFFF" height="30" style="stroke:#181818;stroke-width:1.0;" width="10" x="740.5" y="513.4375"/><rect height="111.0547" style="stroke:#000000;stroke-width:1.5;fill:none;" width="521" x="316.5" y="447.3828"/><rect height="78.7031" style="stroke:#000000;stroke-width:1.5;fill:none;" width="501" x="326.5" y="472.7344"/><line style="stroke:#181818;stroke-width:0.5;fill:none;stroke-dasharray:5.0,5.0;" x1="49" x2="49" y1="82.6094" y2="636.1406"/><line style="stroke:#181818;stroke-width:0.5;fill:none;stroke-dasharray:5.0,5.0;" x1="250.5" x2="250.5" y1="82.6094" y2="636.1406"/><line style="stroke:#181818;stroke-width:0.5;fill:none;stroke-dasharray:5.0,5.0;" x1="423.5" x2="423.5" y1="82.6094" y2="636.1406"/><line style="stroke:#181818;stroke-width:0.5;fill:none;stroke-dasharray:5.0,5.0;" x1="624.5" x2="624.5" y1="82.6094" y2="636.1406"/><line style="stroke:#181818;stroke-width:0.5;fill:none;stroke-dasharray:5.0,5.0;" x1="745.5" x2="745.5" y1="429.0781" y2="636.1406"/><text fill="#000000" font-family="sans-serif" font-size="14" lengthAdjust="spacing" textLength="83" x="5" y="79.5332">Administrator</text><ellipse cx="49.5" cy="13.5" fill="#E2E2F0" rx="8" ry="8" style="stroke:#181818;stroke-width:0.5;"/><path d="M49.5,21.5 L49.5,48.5 M36.5,29.5 L62.5,29.5 M49.5,48.5 L36.5,63.5 M49.5,48.5 L62.5,63.5 " fill="none" style="stroke:#181818;stroke-width:0.5;"/><text fill="#000000" font-family="sans-serif" font-size="14" lengthAdjust="spacing" textLength="83" x="5" y="649.6738">Administrator</text><ellipse cx="49.5" cy="661.25" fill="#E2E2F0" rx="8" ry="8" style="stroke:#181818;stroke-width:0.5;"/><path d="M49.5,669.25 L49.5,696.25 M36.5,677.25 L62.5,677.25 M49.5,696.25 L36.5,711.25 M49.5,696.25 L62.5,711.25 " fill="none" style="stroke:#181818;stroke-width:0.5;"/><rect fill="#E2E2F0" height="31.6094" rx="2.5" ry="2.5" style="stroke:#181818;stroke-width:0.5;" width="124" x="188.5" y="50"/><text fill="#000000" font-family="sans-serif" font-size="14" lengthAdjust="spacing" textLength="110" x="195.5" y="71.5332">:CreateRoleListUI</text><rect fill="#E2E2F0" height="31.6094" rx="2.5" ry="2.5" style="stroke:#181818;stroke-width:0.5;" width="124" x="188.5" y="635.1406"/><text fill="#000000" font-family="sans-serif" font-size="14" lengthAdjust="spacing" textLength="110" x="195.5" y="656.6738">:CreateRoleListUI</text><rect fill="#E2E2F0" height="31.6094" rx="2.5" ry="2.5" style="stroke:#181818;stroke-width:0.5;" width="174" x="336.5" y="50"/><text fill="#000000" font-family="sans-serif" font-size="14" lengthAdjust="spacing" textLength="160" x="343.5" y="71.5332">:CreateRoleListController</text><rect fill="#E2E2F0" height="31.6094" rx="2.5" ry="2.5" style="stroke:#181818;stroke-width:0.5;" width="174" x="336.5" y="635.1406"/><text fill="#000000" font-family="sans-serif" font-size="14" lengthAdjust="spacing" textLength="160" x="343.5" y="656.6738">:CreateRoleListController</text><rect fill="#E2E2F0" height="31.6094" rx="2.5" ry="2.5" style="stroke:#181818;stroke-width:0.5;" width="78" x="585.5" y="50"/><text fill="#000000" font-family="sans-serif" font-size="14" lengthAdjust="spacing" textLength="64" x="592.5" y="71.5332">:Company</text><rect fill="#E2E2F0" height="31.6094" rx="2.5" ry="2.5" style="stroke:#181818;stroke-width:0.5;" width="78" x="585.5" y="635.1406"/><text fill="#000000" font-family="sans-serif" font-size="14" lengthAdjust="spacing" textLength="64" x="592.5" y="656.6738">:Company</text><rect fill="#E2E2F0" height="31.6094" rx="2.5" ry="2.5" style="stroke:#181818;stroke-width:0.5;" width="144" x="673.5" y="635.1406"/><text fill="#000000" font-family="sans-serif" font-size="14" lengthAdjust="spacing" textLength="130" x="680.5" y="656.6738">listE :EmployeeStore</text><rect fill="#FFFFFF" height="534.5313" style="stroke:#181818;stroke-width:1.0;" width="10" x="44.5" y="92.6094"/><rect fill="#FFFFFF" height="137.4063" style="stroke:#181818;stroke-width:1.0;" width="10" x="245.5" y="131.3125"/><rect fill="#FFFFFF" height="319.0703" style="stroke:#181818;stroke-width:1.0;" width="10" x="245.5" y="299.0703"/><rect fill="#FFFFFF" height="60.3516" style="stroke:#181818;stroke-width:1.0;" width="10" x="418.5" y="161.6641"/><rect fill="#FFFFFF" height="258.3672" style="stroke:#181818;stroke-width:1.0;" width="10" x="418.5" y="329.4219"/><rect fill="#FFFFFF" height="30" style="stroke:#181818;stroke-width:1.0;" width="10" x="619.5" y="192.0156"/><rect fill="#FFFFFF" height="30" style="stroke:#181818;stroke-width:1.0;" width="10" x="619.5" y="359.7734"/><rect fill="#FFFFFF" height="30" style="stroke:#181818;stroke-width:1.0;" width="10" x="740.5" y="513.4375"/><polygon fill="#181818" points="233.5,127.3125,243.5,131.3125,233.5,135.3125,237.5,131.3125" style="stroke:#181818;stroke-width:1.0;"/><line style="stroke:#181818;stroke-width:1.0;" x1="54.5" x2="239.5" y1="131.3125" y2="131.3125"/><text fill="#000000" font-family="sans-serif" font-size="13" font-weight="bold" lengthAdjust="spacing" textLength="7" x="61.5" y="118.2803">1</text><text fill="#000000" font-family="sans-serif" font-size="13" lengthAdjust="spacing" textLength="161" x="72.5" y="110.1045">asks for a list of Employees</text><text fill="#000000" font-family="sans-serif" font-size="13" lengthAdjust="spacing" textLength="92" x="72.5" y="126.4561">with a given role</text><polygon fill="#181818" points="406.5,157.6641,416.5,161.6641,406.5,165.6641,410.5,161.6641" style="stroke:#181818;stroke-width:1.0;"/><line style="stroke:#181818;stroke-width:1.0;" x1="255.5" x2="412.5" y1="161.6641" y2="161.6641"/><text fill="#000000" font-family="sans-serif" font-size="13" font-weight="bold" lengthAdjust="spacing" textLength="7" x="262.5" y="156.8076">2</text><text fill="#000000" font-family="sans-serif" font-size="13" lengthAdjust="spacing" textLength="73" x="273.5" y="156.8076">getRoleList()</text><polygon fill="#181818" points="607.5,188.0156,617.5,192.0156,607.5,196.0156,611.5,192.0156" style="stroke:#181818;stroke-width:1.0;"/><line style="stroke:#181818;stroke-width:1.0;" x1="428.5" x2="613.5" y1="192.0156" y2="192.0156"/><text fill="#000000" font-family="sans-serif" font-size="13" font-weight="bold" lengthAdjust="spacing" textLength="7" x="435.5" y="187.1592">3</text><text fill="#000000" font-family="sans-serif" font-size="13" lengthAdjust="spacing" textLength="138" x="446.5" y="187.1592">rolesList = getRoleList()</text><polygon fill="#181818" points="65.5,264.7188,55.5,268.7188,65.5,272.7188,61.5,268.7188" style="stroke:#181818;stroke-width:1.0;"/><line style="stroke:#181818;stroke-width:1.0;stroke-dasharray:2.0,2.0;" x1="59.5" x2="249.5" y1="268.7188" y2="268.7188"/><text fill="#000000" font-family="sans-serif" font-size="13" font-weight="bold" lengthAdjust="spacing" textLength="7" x="71.5" y="255.6865">4</text><text fill="#000000" font-family="sans-serif" font-size="13" lengthAdjust="spacing" textLength="108" x="82.5" y="247.5107">shows role list and</text><text fill="#000000" font-family="sans-serif" font-size="13" lengthAdjust="spacing" textLength="107" x="82.5" y="263.8623">asks to select one</text><polygon fill="#181818" points="233.5,295.0703,243.5,299.0703,233.5,303.0703,237.5,299.0703" style="stroke:#181818;stroke-width:1.0;"/><line style="stroke:#181818;stroke-width:1.0;" x1="54.5" x2="239.5" y1="299.0703" y2="299.0703"/><text fill="#000000" font-family="sans-serif" font-size="13" font-weight="bold" lengthAdjust="spacing" textLength="7" x="61.5" y="294.2139">5</text><text fill="#000000" font-family="sans-serif" font-size="13" lengthAdjust="spacing" textLength="78" x="72.5" y="294.2139">selects a role</text><polygon fill="#181818" points="406.5,325.4219,416.5,329.4219,406.5,333.4219,410.5,329.4219" style="stroke:#181818;stroke-width:1.0;"/><line style="stroke:#181818;stroke-width:1.0;" x1="255.5" x2="412.5" y1="329.4219" y2="329.4219"/><text fill="#000000" font-family="sans-serif" font-size="13" font-weight="bold" lengthAdjust="spacing" textLength="7" x="262.5" y="324.5654">6</text><text fill="#000000" font-family="sans-serif" font-size="13" lengthAdjust="spacing" textLength="133" x="273.5" y="324.5654">getEmployeesList(role)</text><polygon fill="#181818" points="607.5,355.7734,617.5,359.7734,607.5,363.7734,611.5,359.7734" style="stroke:#181818;stroke-width:1.0;"/><line style="stroke:#181818;stroke-width:1.0;" x1="428.5" x2="613.5" y1="359.7734" y2="359.7734"/><text fill="#000000" font-family="sans-serif" font-size="13" font-weight="bold" lengthAdjust="spacing" textLength="7" x="435.5" y="354.917">7</text><text fill="#000000" font-family="sans-serif" font-size="13" lengthAdjust="spacing" textLength="161" x="446.5" y="354.917">allEmp = getEmployeeList()</text><polygon fill="#181818" points="661.5,416.125,671.5,420.125,661.5,424.125,665.5,420.125" style="stroke:#181818;stroke-width:1.0;"/><line style="stroke:#181818;stroke-width:1.0;stroke-dasharray:2.0,2.0;" x1="428.5" x2="667.5" y1="420.125" y2="420.125"/><text fill="#000000" font-family="sans-serif" font-size="13" font-weight="bold" lengthAdjust="spacing" textLength="7" x="435.5" y="415.2686">8</text><text fill="#000000" font-family="sans-serif" font-size="13" lengthAdjust="spacing" textLength="139" x="446.5" y="415.2686">listE = EmployeeStore()</text><rect fill="#E2E2F0" height="31.6094" rx="2.5" ry="2.5" style="stroke:#181818;stroke-width:0.5;" width="144" x="673.5" y="397.7734"/><text fill="#000000" font-family="sans-serif" font-size="14" lengthAdjust="spacing" textLength="130" x="680.5" y="419.3066">listE :EmployeeStore</text><path d="M316.5,447.3828 L389.5,447.3828 L389.5,455.7344 L379.5,465.7344 L316.5,465.7344 L316.5,447.3828 " fill="#EEEEEE" style="stroke:#000000;stroke-width:1.5;"/><rect fill="none" height="111.0547" style="stroke:#000000;stroke-width:1.5;" width="521" x="316.5" y="447.3828"/><text fill="#000000" font-family="sans-serif" font-size="13" font-weight="bold" lengthAdjust="spacing" textLength="28" x="331.5" y="461.8779">loop</text><text fill="#000000" font-family="sans-serif" font-size="11" font-weight="bold" lengthAdjust="spacing" textLength="173" x="404.5" y="460.8018">[for each Employee[i] in allEmp]</text><path d="M326.5,472.7344 L391.5,472.7344 L391.5,481.0859 L381.5,491.0859 L326.5,491.0859 L326.5,472.7344 " fill="#EEEEEE" style="stroke:#000000;stroke-width:1.5;"/><rect fill="none" height="78.7031" style="stroke:#000000;stroke-width:1.5;" width="501" x="326.5" y="472.7344"/><text fill="#000000" font-family="sans-serif" font-size="13" font-weight="bold" lengthAdjust="spacing" textLength="20" x="341.5" y="487.2295">opt</text><text fill="#000000" font-family="sans-serif" font-size="11" font-weight="bold" lengthAdjust="spacing" textLength="95" x="406.5" y="486.1533">[role = getRole(i)]</text><polygon fill="#181818" points="728.5,509.4375,738.5,513.4375,728.5,517.4375,732.5,513.4375" style="stroke:#181818;stroke-width:1.0;"/><line style="stroke:#181818;stroke-width:1.0;" x1="428.5" x2="734.5" y1="513.4375" y2="513.4375"/><text fill="#000000" font-family="sans-serif" font-size="13" font-weight="bold" lengthAdjust="spacing" textLength="7" x="435.5" y="508.5811">9</text><text fill="#000000" font-family="sans-serif" font-size="13" lengthAdjust="spacing" textLength="90" x="446.5" y="508.5811">addEmployee(i)</text><polygon fill="#181818" points="266.5,583.7891,256.5,587.7891,266.5,591.7891,262.5,587.7891" style="stroke:#181818;stroke-width:1.0;"/><line style="stroke:#181818;stroke-width:1.0;stroke-dasharray:2.0,2.0;" x1="260.5" x2="422.5" y1="587.7891" y2="587.7891"/><text fill="#000000" font-family="sans-serif" font-size="13" font-weight="bold" lengthAdjust="spacing" textLength="14" x="272.5" y="582.9326">10</text><text fill="#000000" font-family="sans-serif" font-size="13" lengthAdjust="spacing" textLength="26" x="290.5" y="582.9326">listE</text><polygon fill="#181818" points="65.5,614.1406,55.5,618.1406,65.5,622.1406,61.5,618.1406" style="stroke:#181818;stroke-width:1.0;"/><line style="stroke:#181818;stroke-width:1.0;stroke-dasharray:2.0,2.0;" x1="59.5" x2="249.5" y1="618.1406" y2="618.1406"/><text fill="#000000" font-family="sans-serif" font-size="13" font-weight="bold" lengthAdjust="spacing" textLength="14" x="71.5" y="613.2842">11</text><text fill="#000000" font-family="sans-serif" font-size="13" lengthAdjust="spacing" textLength="141" x="89.5" y="613.2842">Shows list of employees</text><!--MD5=[06553e737db5731ccea93a6bd71a49e7]
@startuml
autonumber
actor Administrator as ADM
participant ":CreateRoleListUI" as UI
participant ":CreateRoleListController" as CTRL
participant ":Company" as C
participant "listE :EmployeeStore" as list

activate ADM
ADM -> UI : asks for a list of Employees\nwith a given role
activate UI
UI->CTRL: getRoleList()
activate CTRL
CTRL->C: rolesList = getRoleList()
activate C

deactivate C
deactivate CTRL

ADM <- - UI: shows role list and\nasks to select one
deactivate UI

ADM -> UI: selects a role
activate UI
UI->CTRL: getEmployeesList(role)
activate CTRL
CTRL->C:allEmp = getEmployeeList()
activate C
deactivate C
CTRL- ->list**: listE = EmployeeStore()
loop for each Employee[i] in allEmp
opt role = getRole(i)
CTRL->list:addEmployee(i)
activate list
deactivate list
end opt
end loop
CTRL- ->UI: listE
deactivate CTRL
ADM <- - UI: Shows list of employees
deactivate UI

@enduml

PlantUML version 1.2022.4(Sat Apr 09 14:29:17 BST 2022)
(GPL source distribution)
Java Runtime: OpenJDK Runtime Environment
JVM: OpenJDK 64-Bit Server VM
Default Encoding: Cp1252
Language: pt
Country: PT
--></g></svg>