<?xml version="1.0" encoding="UTF-8" standalone="no"?><svg xmlns="http://www.w3.org/2000/svg" xmlns:xlink="http://www.w3.org/1999/xlink" contentStyleType="text/css" height="647px" preserveAspectRatio="none" style="width:353px;height:647px;background:#FFFFFF;" version="1.1" viewBox="0 0 353 647" width="353px" zoomAndPan="magnify"><defs/><g><!--MD5=[54d0f7ca6f9898010b87b67e67e7a5e0]
class E--><g id="elem_E"><rect codeLine="2" fill="#F1F1F1" height="153.6563" id="E" rx="2.5" ry="2.5" style="stroke:#181818;stroke-width:0.5;" width="141" x="7" y="175"/><ellipse cx="43.15" cy="191" fill="#ADD1B2" rx="11" ry="11" style="stroke:#181818;stroke-width:1.0;"/><path d="M45.15,187.5 Q45.3531,187 45.5875,186.75 Q45.8219,186.5 46.0875,186.5 Q46.5563,186.5 46.8531,186.7813 Q47.15,187.0625 47.15,187.7188 L47.15,189.2813 Q47.15,189.9375 46.8688,190.2188 Q46.5875,190.5 46.15,190.5 Q45.7594,190.5 45.5094,190.3281 Q45.2594,190.1563 45.15,189.7031 Q45.1031,189.3906 44.9313,189.2188 Q44.6188,188.8906 44.0563,188.7031 Q43.4938,188.5 42.9313,188.5 Q42.2281,188.5 41.6344,188.7813 Q41.0563,189.0625 40.6031,189.6875 Q40.15,190.3125 40.15,191.1719 L40.15,192.0938 Q40.15,193.125 40.9938,193.8125 Q41.8375,194.5 43.3375,194.5 Q44.2281,194.5 44.8531,194.2969 Q45.2125,194.1875 45.6188,193.8281 Q45.8844,193.625 46.025,193.5625 Q46.1656,193.5 46.3375,193.5 Q46.6656,193.5 46.9,193.7656 Q47.15,194.0156 47.15,194.375 Q47.15,194.7188 46.8063,195.125 Q46.3063,195.7188 45.5094,196.0469 Q44.4625,196.5 43.1813,196.5 Q41.6813,196.5 40.4781,195.9063 Q39.5094,195.4375 38.8219,194.4219 Q38.15,193.4063 38.15,192.2031 L38.15,191.1094 Q38.15,189.8594 38.7438,188.7656 Q39.3531,187.6719 40.4,187.0938 Q41.4625,186.5 42.65,186.5 Q43.3688,186.5 43.9938,186.75 Q44.6188,187 45.15,187.5 Z " fill="#000000"/><text fill="#000000" font-family="sans-serif" font-size="14" lengthAdjust="spacing" textLength="62" x="61.85" y="196.7285">Employee</text><line style="stroke:#181818;stroke-width:0.5;" x1="8" x2="147" y1="207" y2="207"/><rect fill="none" height="6" style="stroke:#C82930;stroke-width:1.0;" width="6" x="15" y="215"/><text fill="#000000" font-family="sans-serif" font-size="14" lengthAdjust="spacing" textLength="36" x="27" y="225.5332">Name</text><rect fill="none" height="6" style="stroke:#C82930;stroke-width:1.0;" width="6" x="15" y="232.6094"/><text fill="#000000" font-family="sans-serif" font-size="14" lengthAdjust="spacing" textLength="115" x="27" y="243.1426">Employee Number</text><rect fill="none" height="6" style="stroke:#C82930;stroke-width:1.0;" width="6" x="15" y="250.2188"/><text fill="#000000" font-family="sans-serif" font-size="14" lengthAdjust="spacing" textLength="25" x="27" y="260.752">Age</text><rect fill="none" height="6" style="stroke:#C82930;stroke-width:1.0;" width="6" x="15" y="267.8281"/><text fill="#000000" font-family="sans-serif" font-size="14" lengthAdjust="spacing" textLength="94" x="27" y="278.3613">Phone Number</text><rect fill="none" height="6" style="stroke:#C82930;stroke-width:1.0;" width="6" x="15" y="285.4375"/><text fill="#000000" font-family="sans-serif" font-size="14" lengthAdjust="spacing" textLength="34" x="27" y="295.9707">Email</text><rect fill="none" height="6" style="stroke:#C82930;stroke-width:1.0;" width="6" x="15" y="303.0469"/><text fill="#000000" font-family="sans-serif" font-size="14" lengthAdjust="spacing" textLength="20" x="27" y="313.5801">CC</text><line style="stroke:#181818;stroke-width:0.5;" x1="8" x2="147" y1="320.6563" y2="320.6563"/></g><!--MD5=[da547346deef918ea16944ba046651ef]
class Administrator--><g id="elem_Administrator"><rect codeLine="11" fill="#F1F1F1" height="48" id="Administrator" rx="2.5" ry="2.5" style="stroke:#181818;stroke-width:0.5;" width="115" x="95" y="7"/><ellipse cx="110" cy="23" fill="#ADD1B2" rx="11" ry="11" style="stroke:#181818;stroke-width:1.0;"/><path d="M112,19.5 Q112.2031,19 112.4375,18.75 Q112.6719,18.5 112.9375,18.5 Q113.4063,18.5 113.7031,18.7813 Q114,19.0625 114,19.7188 L114,21.2813 Q114,21.9375 113.7188,22.2188 Q113.4375,22.5 113,22.5 Q112.6094,22.5 112.3594,22.3281 Q112.1094,22.1563 112,21.7031 Q111.9531,21.3906 111.7813,21.2188 Q111.4688,20.8906 110.9063,20.7031 Q110.3438,20.5 109.7813,20.5 Q109.0781,20.5 108.4844,20.7813 Q107.9063,21.0625 107.4531,21.6875 Q107,22.3125 107,23.1719 L107,24.0938 Q107,25.125 107.8438,25.8125 Q108.6875,26.5 110.1875,26.5 Q111.0781,26.5 111.7031,26.2969 Q112.0625,26.1875 112.4688,25.8281 Q112.7344,25.625 112.875,25.5625 Q113.0156,25.5 113.1875,25.5 Q113.5156,25.5 113.75,25.7656 Q114,26.0156 114,26.375 Q114,26.7188 113.6563,27.125 Q113.1563,27.7188 112.3594,28.0469 Q111.3125,28.5 110.0313,28.5 Q108.5313,28.5 107.3281,27.9063 Q106.3594,27.4375 105.6719,26.4219 Q105,25.4063 105,24.2031 L105,23.1094 Q105,21.8594 105.5938,20.7656 Q106.2031,19.6719 107.25,19.0938 Q108.3125,18.5 109.5,18.5 Q110.2188,18.5 110.8438,18.75 Q111.4688,19 112,19.5 Z " fill="#000000"/><text fill="#000000" font-family="sans-serif" font-size="14" lengthAdjust="spacing" textLength="83" x="124" y="28.7285">Administrator</text><line style="stroke:#181818;stroke-width:0.5;" x1="96" x2="209" y1="39" y2="39"/><line style="stroke:#181818;stroke-width:0.5;" x1="96" x2="209" y1="47" y2="47"/></g><!--MD5=[726eef0e889f442cbf1ef79b3ba0280a]
class HCC--><g id="elem_HCC"><rect codeLine="14" fill="#F1F1F1" height="206.4844" id="HCC" rx="2.5" ry="2.5" style="stroke:#181818;stroke-width:0.5;" width="163" x="183" y="149"/><ellipse cx="202.05" cy="165" fill="#ADD1B2" rx="11" ry="11" style="stroke:#181818;stroke-width:1.0;"/><path d="M204.05,161.5 Q204.2531,161 204.4875,160.75 Q204.7219,160.5 204.9875,160.5 Q205.4563,160.5 205.7531,160.7813 Q206.05,161.0625 206.05,161.7188 L206.05,163.2813 Q206.05,163.9375 205.7688,164.2188 Q205.4875,164.5 205.05,164.5 Q204.6594,164.5 204.4094,164.3281 Q204.1594,164.1563 204.05,163.7031 Q204.0031,163.3906 203.8313,163.2188 Q203.5188,162.8906 202.9563,162.7031 Q202.3938,162.5 201.8313,162.5 Q201.1281,162.5 200.5344,162.7813 Q199.9563,163.0625 199.5031,163.6875 Q199.05,164.3125 199.05,165.1719 L199.05,166.0938 Q199.05,167.125 199.8938,167.8125 Q200.7375,168.5 202.2375,168.5 Q203.1281,168.5 203.7531,168.2969 Q204.1125,168.1875 204.5188,167.8281 Q204.7844,167.625 204.925,167.5625 Q205.0656,167.5 205.2375,167.5 Q205.5656,167.5 205.8,167.7656 Q206.05,168.0156 206.05,168.375 Q206.05,168.7188 205.7063,169.125 Q205.2063,169.7188 204.4094,170.0469 Q203.3625,170.5 202.0813,170.5 Q200.5813,170.5 199.3781,169.9063 Q198.4094,169.4375 197.7219,168.4219 Q197.05,167.4063 197.05,166.2031 L197.05,165.1094 Q197.05,163.8594 197.6438,162.7656 Q198.2531,161.6719 199.3,161.0938 Q200.3625,160.5 201.55,160.5 Q202.2688,160.5 202.8938,160.75 Q203.5188,161 204.05,161.5 Z " fill="#000000"/><text fill="#000000" font-family="sans-serif" font-size="14" lengthAdjust="spacing" textLength="122" x="216.95" y="170.7285">Health Care Center</text><line style="stroke:#181818;stroke-width:0.5;" x1="184" x2="345" y1="181" y2="181"/><rect fill="none" height="6" style="stroke:#C82930;stroke-width:1.0;" width="6" x="191" y="189"/><text fill="#000000" font-family="sans-serif" font-size="14" lengthAdjust="spacing" textLength="36" x="203" y="199.5332">Name</text><rect fill="none" height="6" style="stroke:#C82930;stroke-width:1.0;" width="6" x="191" y="206.6094"/><text fill="#000000" font-family="sans-serif" font-size="14" lengthAdjust="spacing" textLength="52" x="203" y="217.1426">Address</text><rect fill="none" height="6" style="stroke:#C82930;stroke-width:1.0;" width="6" x="191" y="224.2188"/><text fill="#000000" font-family="sans-serif" font-size="14" lengthAdjust="spacing" textLength="94" x="203" y="234.752">Phone Number</text><rect fill="none" height="6" style="stroke:#C82930;stroke-width:1.0;" width="6" x="191" y="241.8281"/><text fill="#000000" font-family="sans-serif" font-size="14" lengthAdjust="spacing" textLength="39" x="203" y="252.3613">E-mail</text><rect fill="none" height="6" style="stroke:#C82930;stroke-width:1.0;" width="6" x="191" y="259.4375"/><text fill="#000000" font-family="sans-serif" font-size="14" lengthAdjust="spacing" textLength="76" x="203" y="269.9707">Fax Number</text><rect fill="none" height="6" style="stroke:#C82930;stroke-width:1.0;" width="6" x="191" y="277.0469"/><text fill="#000000" font-family="sans-serif" font-size="14" lengthAdjust="spacing" textLength="26" x="203" y="287.5801">Link</text><rect fill="none" height="6" style="stroke:#C82930;stroke-width:1.0;" width="6" x="191" y="294.6563"/><text fill="#000000" font-family="sans-serif" font-size="14" lengthAdjust="spacing" textLength="95" x="203" y="305.1895">Opening Hours</text><rect fill="none" height="6" style="stroke:#C82930;stroke-width:1.0;" width="6" x="191" y="312.2656"/><text fill="#000000" font-family="sans-serif" font-size="14" lengthAdjust="spacing" textLength="88" x="203" y="322.7988">Closing Hours</text><rect fill="none" height="6" style="stroke:#C82930;stroke-width:1.0;" width="6" x="191" y="329.875"/><text fill="#000000" font-family="sans-serif" font-size="14" lengthAdjust="spacing" textLength="137" x="203" y="340.4082">Max Vaccines per slot</text><line style="stroke:#181818;stroke-width:0.5;" x1="184" x2="345" y1="347.4844" y2="347.4844"/></g><!--MD5=[45ef620d0feba9a8beefe3954d1361b6]
class VC--><g id="elem_VC"><rect codeLine="26" fill="#F1F1F1" height="224.0938" id="VC" rx="2.5" ry="2.5" style="stroke:#181818;stroke-width:0.5;" width="163" x="183" y="416"/><ellipse cx="202.95" cy="432" fill="#ADD1B2" rx="11" ry="11" style="stroke:#181818;stroke-width:1.0;"/><path d="M204.95,428.5 Q205.1531,428 205.3875,427.75 Q205.6219,427.5 205.8875,427.5 Q206.3563,427.5 206.6531,427.7813 Q206.95,428.0625 206.95,428.7188 L206.95,430.2813 Q206.95,430.9375 206.6688,431.2188 Q206.3875,431.5 205.95,431.5 Q205.5594,431.5 205.3094,431.3281 Q205.0594,431.1563 204.95,430.7031 Q204.9031,430.3906 204.7313,430.2188 Q204.4188,429.8906 203.8563,429.7031 Q203.2938,429.5 202.7313,429.5 Q202.0281,429.5 201.4344,429.7813 Q200.8563,430.0625 200.4031,430.6875 Q199.95,431.3125 199.95,432.1719 L199.95,433.0938 Q199.95,434.125 200.7938,434.8125 Q201.6375,435.5 203.1375,435.5 Q204.0281,435.5 204.6531,435.2969 Q205.0125,435.1875 205.4188,434.8281 Q205.6844,434.625 205.825,434.5625 Q205.9656,434.5 206.1375,434.5 Q206.4656,434.5 206.7,434.7656 Q206.95,435.0156 206.95,435.375 Q206.95,435.7188 206.6063,436.125 Q206.1063,436.7188 205.3094,437.0469 Q204.2625,437.5 202.9813,437.5 Q201.4813,437.5 200.2781,436.9063 Q199.3094,436.4375 198.6219,435.4219 Q197.95,434.4063 197.95,433.2031 L197.95,432.1094 Q197.95,430.8594 198.5438,429.7656 Q199.1531,428.6719 200.2,428.0938 Q201.2625,427.5 202.45,427.5 Q203.1688,427.5 203.7938,427.75 Q204.4188,428 204.95,428.5 Z " fill="#000000"/><text fill="#000000" font-family="sans-serif" font-size="14" lengthAdjust="spacing" textLength="120" x="218.05" y="437.7285">Vaccination Center</text><line style="stroke:#181818;stroke-width:0.5;" x1="184" x2="345" y1="448" y2="448"/><rect fill="none" height="6" style="stroke:#C82930;stroke-width:1.0;" width="6" x="191" y="456"/><text fill="#000000" font-family="sans-serif" font-size="14" lengthAdjust="spacing" textLength="36" x="203" y="466.5332">Name</text><rect fill="none" height="6" style="stroke:#C82930;stroke-width:1.0;" width="6" x="191" y="473.6094"/><text fill="#000000" font-family="sans-serif" font-size="14" lengthAdjust="spacing" textLength="52" x="203" y="484.1426">Address</text><rect fill="none" height="6" style="stroke:#C82930;stroke-width:1.0;" width="6" x="191" y="491.2188"/><text fill="#000000" font-family="sans-serif" font-size="14" lengthAdjust="spacing" textLength="94" x="203" y="501.752">Phone Number</text><rect fill="none" height="6" style="stroke:#C82930;stroke-width:1.0;" width="6" x="191" y="508.8281"/><text fill="#000000" font-family="sans-serif" font-size="14" lengthAdjust="spacing" textLength="39" x="203" y="519.3613">E-mail</text><rect fill="none" height="6" style="stroke:#C82930;stroke-width:1.0;" width="6" x="191" y="526.4375"/><text fill="#000000" font-family="sans-serif" font-size="14" lengthAdjust="spacing" textLength="76" x="203" y="536.9707">Fax Number</text><rect fill="none" height="6" style="stroke:#C82930;stroke-width:1.0;" width="6" x="191" y="544.0469"/><text fill="#000000" font-family="sans-serif" font-size="14" lengthAdjust="spacing" textLength="26" x="203" y="554.5801">Link</text><rect fill="none" height="6" style="stroke:#C82930;stroke-width:1.0;" width="6" x="191" y="561.6563"/><text fill="#000000" font-family="sans-serif" font-size="14" lengthAdjust="spacing" textLength="95" x="203" y="572.1895">Opening Hours</text><rect fill="none" height="6" style="stroke:#C82930;stroke-width:1.0;" width="6" x="191" y="579.2656"/><text fill="#000000" font-family="sans-serif" font-size="14" lengthAdjust="spacing" textLength="88" x="203" y="589.7988">Closing Hours</text><rect fill="none" height="6" style="stroke:#C82930;stroke-width:1.0;" width="6" x="191" y="596.875"/><text fill="#000000" font-family="sans-serif" font-size="14" lengthAdjust="spacing" textLength="82" x="203" y="607.4082">Slot Duration</text><rect fill="none" height="6" style="stroke:#C82930;stroke-width:1.0;" width="6" x="191" y="614.4844"/><text fill="#000000" font-family="sans-serif" font-size="14" lengthAdjust="spacing" textLength="137" x="203" y="625.0176">Max Vaccines per slot</text><line style="stroke:#181818;stroke-width:0.5;" x1="184" x2="345" y1="632.0938" y2="632.0938"/></g><!--MD5=[541ecb04441c83a3b8dc9cd4eddecaa6]
reverse link E to Administrator--><g id="link_E_Administrator"><path codeLine="39" d="M117.48,155.8 C122.12,143.51 126.59,131.02 130.5,119 C137.45,97.67 143.54,72.81 147.54,55.14 " fill="none" id="E-backto-Administrator" style="stroke:#181818;stroke-width:1.0;"/><polygon fill="none" points="123.84,158.74,110.09,174.86,110.79,153.68,123.84,158.74" style="stroke:#181818;stroke-width:1.0;"/></g><!--MD5=[d0bbee97de1dc2b1f420b0f6be1a2c75]
link Administrator to E--><g id="link_Administrator_E"><path codeLine="41" d="M99.56,55.25 C87.95,62.97 77.15,72.79 70.5,85 C56.67,110.4 54.75,141.37 57.53,169.64 " fill="none" id="Administrator-to-E" style="stroke:#181818;stroke-width:1.0;"/><polygon fill="#181818" points="58.1,174.89,61.0994,165.509,57.5572,169.9195,53.1467,166.3774,58.1,174.89" style="stroke:#181818;stroke-width:1.0;"/><text fill="#000000" font-family="sans-serif" font-size="13" lengthAdjust="spacing" textLength="50" x="71.5" y="107.4951">registers</text><text fill="#000000" font-family="sans-serif" font-size="13" lengthAdjust="spacing" textLength="7" x="80.2138" y="75.8383">1</text><text fill="#000000" font-family="sans-serif" font-size="13" lengthAdjust="spacing" textLength="5" x="50.9442" y="164.0413">*</text></g><!--MD5=[530eefccf1894be5b70739213480e72b]
link Administrator to HCC--><g id="link_Administrator_HCC"><path codeLine="40" d="M164.27,55.02 C175.35,76.67 192.75,110.71 209.97,144.38 " fill="none" id="Administrator-to-HCC" style="stroke:#181818;stroke-width:1.0;"/><polygon fill="#181818" points="212.29,148.91,211.7296,139.0771,210.0026,144.4639,204.6158,142.7369,212.29,148.91" style="stroke:#181818;stroke-width:1.0;"/><text fill="#000000" font-family="sans-serif" font-size="13" lengthAdjust="spacing" textLength="75" x="197.5" y="99.4951">manages the</text><text fill="#000000" font-family="sans-serif" font-size="13" lengthAdjust="spacing" textLength="77" x="196.5" y="115.8467">information of</text><text fill="#000000" font-family="sans-serif" font-size="13" lengthAdjust="spacing" textLength="7" x="159.2858" y="76.3628">1</text><text fill="#000000" font-family="sans-serif" font-size="13" lengthAdjust="spacing" textLength="5" x="203.2722" y="138.2421">*</text></g><!--MD5=[de7d3f11247f5656b2c690de8f25bed2]
reverse link HCC to VC--><g id="link_HCC_VC"><path codeLine="42" d="M264.5,375.25 C264.5,388.71 264.5,402.37 264.5,415.69 " fill="none" id="HCC-backto-VC" style="stroke:#181818;stroke-width:1.0;"/><polygon fill="none" points="257.5,375.03,264.5,355.03,271.5,375.03,257.5,375.03" style="stroke:#181818;stroke-width:1.0;"/></g><!--MD5=[cd2bfa0504a99e99902d4bf52faf71f4]
@startuml

class "Employee" as E{
-Name
-Employee Number
-Age
-Phone Number
-Email
-CC
}

class Administrator{
}

class "Health Care Center" as HCC{
-Name
-Address
-Phone Number
-E-mail
-Fax Number
-Link
-Opening Hours
-Closing Hours
-Max Vaccines per slot
}

class "Vaccination Center" as VC{
-Name
-Address
-Phone Number
-E-mail
-Fax Number
-Link
-Opening Hours
-Closing Hours
-Slot Duration
-Max Vaccines per slot
}

Administrator-up-|>E
Administrator"1"- ->"*"HCC:  manages the\ninformation of
Administrator"1"- ->"*"E:registers
VC-up-|>HCC



@enduml

PlantUML version 1.2022.4(Sat Apr 09 14:29:17 BST 2022)
(GPL source distribution)
Java Runtime: OpenJDK Runtime Environment
JVM: OpenJDK 64-Bit Server VM
Default Encoding: Cp1252
Language: pt
Country: PT
--></g></svg>