<?xml version="1.0" encoding="UTF-8" standalone="no"?><svg xmlns="http://www.w3.org/2000/svg" xmlns:xlink="http://www.w3.org/1999/xlink" contentStyleType="text/css" height="761px" preserveAspectRatio="none" style="width:272px;height:761px;background:#FFFFFF;" version="1.1" viewBox="0 0 272 761" width="272px" zoomAndPan="magnify"><defs/><g><!--MD5=[93f89f88a4233e1ae1ee53221225f09c]
class CreateRoleListUI--><g id="elem_CreateRoleListUI"><rect codeLine="11" fill="#F1F1F1" height="48" id="CreateRoleListUI" rx="2.5" ry="2.5" style="stroke:#181818;stroke-width:0.5;" width="138" x="70.5" y="7"/><ellipse cx="85.5" cy="23" fill="#ADD1B2" rx="11" ry="11" style="stroke:#181818;stroke-width:1.0;"/><path d="M87.5,19.5 Q87.7031,19 87.9375,18.75 Q88.1719,18.5 88.4375,18.5 Q88.9063,18.5 89.2031,18.7813 Q89.5,19.0625 89.5,19.7188 L89.5,21.2813 Q89.5,21.9375 89.2188,22.2188 Q88.9375,22.5 88.5,22.5 Q88.1094,22.5 87.8594,22.3281 Q87.6094,22.1563 87.5,21.7031 Q87.4531,21.3906 87.2813,21.2188 Q86.9688,20.8906 86.4063,20.7031 Q85.8438,20.5 85.2813,20.5 Q84.5781,20.5 83.9844,20.7813 Q83.4063,21.0625 82.9531,21.6875 Q82.5,22.3125 82.5,23.1719 L82.5,24.0938 Q82.5,25.125 83.3438,25.8125 Q84.1875,26.5 85.6875,26.5 Q86.5781,26.5 87.2031,26.2969 Q87.5625,26.1875 87.9688,25.8281 Q88.2344,25.625 88.375,25.5625 Q88.5156,25.5 88.6875,25.5 Q89.0156,25.5 89.25,25.7656 Q89.5,26.0156 89.5,26.375 Q89.5,26.7188 89.1563,27.125 Q88.6563,27.7188 87.8594,28.0469 Q86.8125,28.5 85.5313,28.5 Q84.0313,28.5 82.8281,27.9063 Q81.8594,27.4375 81.1719,26.4219 Q80.5,25.4063 80.5,24.2031 L80.5,23.1094 Q80.5,21.8594 81.0938,20.7656 Q81.7031,19.6719 82.75,19.0938 Q83.8125,18.5 85,18.5 Q85.7188,18.5 86.3438,18.75 Q86.9688,19 87.5,19.5 Z " fill="#000000"/><text fill="#000000" font-family="sans-serif" font-size="14" lengthAdjust="spacing" textLength="106" x="99.5" y="28.7285">CreateRoleListUI</text><line style="stroke:#181818;stroke-width:0.5;" x1="71.5" x2="207.5" y1="39" y2="39"/><line style="stroke:#181818;stroke-width:0.5;" x1="71.5" x2="207.5" y1="47" y2="47"/></g><!--MD5=[82a95a99ff621ecaeb7285a156972df8]
class CreateRoleListController--><g id="elem_CreateRoleListController"><rect codeLine="14" fill="#F1F1F1" height="100.8281" id="CreateRoleListController" rx="2.5" ry="2.5" style="stroke:#181818;stroke-width:0.5;" width="188" x="45.5" y="116"/><ellipse cx="60.5" cy="132" fill="#ADD1B2" rx="11" ry="11" style="stroke:#181818;stroke-width:1.0;"/><path d="M62.5,128.5 Q62.7031,128 62.9375,127.75 Q63.1719,127.5 63.4375,127.5 Q63.9063,127.5 64.2031,127.7813 Q64.5,128.0625 64.5,128.7188 L64.5,130.2813 Q64.5,130.9375 64.2188,131.2188 Q63.9375,131.5 63.5,131.5 Q63.1094,131.5 62.8594,131.3281 Q62.6094,131.1563 62.5,130.7031 Q62.4531,130.3906 62.2813,130.2188 Q61.9688,129.8906 61.4063,129.7031 Q60.8438,129.5 60.2813,129.5 Q59.5781,129.5 58.9844,129.7813 Q58.4063,130.0625 57.9531,130.6875 Q57.5,131.3125 57.5,132.1719 L57.5,133.0938 Q57.5,134.125 58.3438,134.8125 Q59.1875,135.5 60.6875,135.5 Q61.5781,135.5 62.2031,135.2969 Q62.5625,135.1875 62.9688,134.8281 Q63.2344,134.625 63.375,134.5625 Q63.5156,134.5 63.6875,134.5 Q64.0156,134.5 64.25,134.7656 Q64.5,135.0156 64.5,135.375 Q64.5,135.7188 64.1563,136.125 Q63.6563,136.7188 62.8594,137.0469 Q61.8125,137.5 60.5313,137.5 Q59.0313,137.5 57.8281,136.9063 Q56.8594,136.4375 56.1719,135.4219 Q55.5,134.4063 55.5,133.2031 L55.5,132.1094 Q55.5,130.8594 56.0938,129.7656 Q56.7031,128.6719 57.75,128.0938 Q58.8125,127.5 60,127.5 Q60.7188,127.5 61.3438,127.75 Q61.9688,128 62.5,128.5 Z " fill="#000000"/><text fill="#000000" font-family="sans-serif" font-size="14" lengthAdjust="spacing" textLength="156" x="74.5" y="137.7285">CreateRoleListController</text><line style="stroke:#181818;stroke-width:0.5;" x1="46.5" x2="232.5" y1="148" y2="148"/><line style="stroke:#181818;stroke-width:0.5;" x1="46.5" x2="232.5" y1="156" y2="156"/><ellipse cx="56.5" cy="167" fill="#84BE84" rx="3" ry="3" style="stroke:#038048;stroke-width:1.0;"/><text fill="#000000" font-family="sans-serif" font-size="14" lengthAdjust="spacing" textLength="81" x="65.5" y="174.5332">getRoleList()</text><ellipse cx="56.5" cy="184.6094" fill="#84BE84" rx="3" ry="3" style="stroke:#038048;stroke-width:1.0;"/><text fill="#000000" font-family="sans-serif" font-size="14" lengthAdjust="spacing" textLength="145" x="65.5" y="192.1426">getEmployeesList(role)</text><ellipse cx="56.5" cy="202.2188" fill="#84BE84" rx="3" ry="3" style="stroke:#038048;stroke-width:1.0;"/><text fill="#000000" font-family="sans-serif" font-size="14" lengthAdjust="spacing" textLength="99" x="65.5" y="209.752">addEmployee(i)</text></g><!--MD5=[02e4b9b7573f1156f41e60aa5b4e25a4]
class Company--><g id="elem_Company"><rect codeLine="20" fill="#F1F1F1" height="83.2188" id="Company" rx="2.5" ry="2.5" style="stroke:#181818;stroke-width:0.5;" width="140" x="8.5" y="278"/><ellipse cx="45.1" cy="294" fill="#ADD1B2" rx="11" ry="11" style="stroke:#181818;stroke-width:1.0;"/><path d="M47.1,290.5 Q47.3031,290 47.5375,289.75 Q47.7719,289.5 48.0375,289.5 Q48.5063,289.5 48.8031,289.7813 Q49.1,290.0625 49.1,290.7188 L49.1,292.2813 Q49.1,292.9375 48.8188,293.2188 Q48.5375,293.5 48.1,293.5 Q47.7094,293.5 47.4594,293.3281 Q47.2094,293.1563 47.1,292.7031 Q47.0531,292.3906 46.8813,292.2188 Q46.5688,291.8906 46.0063,291.7031 Q45.4438,291.5 44.8813,291.5 Q44.1781,291.5 43.5844,291.7813 Q43.0063,292.0625 42.5531,292.6875 Q42.1,293.3125 42.1,294.1719 L42.1,295.0938 Q42.1,296.125 42.9438,296.8125 Q43.7875,297.5 45.2875,297.5 Q46.1781,297.5 46.8031,297.2969 Q47.1625,297.1875 47.5688,296.8281 Q47.8344,296.625 47.975,296.5625 Q48.1156,296.5 48.2875,296.5 Q48.6156,296.5 48.85,296.7656 Q49.1,297.0156 49.1,297.375 Q49.1,297.7188 48.7563,298.125 Q48.2563,298.7188 47.4594,299.0469 Q46.4125,299.5 45.1313,299.5 Q43.6313,299.5 42.4281,298.9063 Q41.4594,298.4375 40.7719,297.4219 Q40.1,296.4063 40.1,295.2031 L40.1,294.1094 Q40.1,292.8594 40.6938,291.7656 Q41.3031,290.6719 42.35,290.0938 Q43.4125,289.5 44.6,289.5 Q45.3188,289.5 45.9438,289.75 Q46.5688,290 47.1,290.5 Z " fill="#000000"/><text fill="#000000" font-family="sans-serif" font-size="14" lengthAdjust="spacing" textLength="60" x="63.9" y="299.7285">Company</text><line style="stroke:#181818;stroke-width:0.5;" x1="9.5" x2="147.5" y1="310" y2="310"/><line style="stroke:#181818;stroke-width:0.5;" x1="9.5" x2="147.5" y1="318" y2="318"/><ellipse cx="19.5" cy="329" fill="#84BE84" rx="3" ry="3" style="stroke:#038048;stroke-width:1.0;"/><text fill="#000000" font-family="sans-serif" font-size="14" lengthAdjust="spacing" textLength="81" x="28.5" y="336.5332">getRoleList()</text><ellipse cx="19.5" cy="346.6094" fill="#84BE84" rx="3" ry="3" style="stroke:#038048;stroke-width:1.0;"/><text fill="#000000" font-family="sans-serif" font-size="14" lengthAdjust="spacing" textLength="114" x="28.5" y="354.1426">getEmployeeList()</text></g><!--MD5=[d827703b7ab2a2b5bcf5c96cc8e8b968]
class RoleStore--><g id="elem_RoleStore"><rect codeLine="25" fill="#F1F1F1" height="65.6094" id="RoleStore" rx="2.5" ry="2.5" style="stroke:#181818;stroke-width:0.5;" width="95" x="7" y="439"/><ellipse cx="22" cy="455" fill="#ADD1B2" rx="11" ry="11" style="stroke:#181818;stroke-width:1.0;"/><path d="M24,451.5 Q24.2031,451 24.4375,450.75 Q24.6719,450.5 24.9375,450.5 Q25.4063,450.5 25.7031,450.7813 Q26,451.0625 26,451.7188 L26,453.2813 Q26,453.9375 25.7188,454.2188 Q25.4375,454.5 25,454.5 Q24.6094,454.5 24.3594,454.3281 Q24.1094,454.1563 24,453.7031 Q23.9531,453.3906 23.7813,453.2188 Q23.4688,452.8906 22.9063,452.7031 Q22.3438,452.5 21.7813,452.5 Q21.0781,452.5 20.4844,452.7813 Q19.9063,453.0625 19.4531,453.6875 Q19,454.3125 19,455.1719 L19,456.0938 Q19,457.125 19.8438,457.8125 Q20.6875,458.5 22.1875,458.5 Q23.0781,458.5 23.7031,458.2969 Q24.0625,458.1875 24.4688,457.8281 Q24.7344,457.625 24.875,457.5625 Q25.0156,457.5 25.1875,457.5 Q25.5156,457.5 25.75,457.7656 Q26,458.0156 26,458.375 Q26,458.7188 25.6563,459.125 Q25.1563,459.7188 24.3594,460.0469 Q23.3125,460.5 22.0313,460.5 Q20.5313,460.5 19.3281,459.9063 Q18.3594,459.4375 17.6719,458.4219 Q17,457.4063 17,456.2031 L17,455.1094 Q17,453.8594 17.5938,452.7656 Q18.2031,451.6719 19.25,451.0938 Q20.3125,450.5 21.5,450.5 Q22.2188,450.5 22.8438,450.75 Q23.4688,451 24,451.5 Z " fill="#000000"/><text fill="#000000" font-family="sans-serif" font-size="14" lengthAdjust="spacing" textLength="63" x="36" y="460.7285">RoleStore</text><line style="stroke:#181818;stroke-width:0.5;" x1="8" x2="101" y1="471" y2="471"/><line style="stroke:#181818;stroke-width:0.5;" x1="8" x2="101" y1="479" y2="479"/><ellipse cx="18" cy="490" fill="#84BE84" rx="3" ry="3" style="stroke:#038048;stroke-width:1.0;"/><text fill="#000000" font-family="sans-serif" font-size="14" lengthAdjust="spacing" textLength="59" x="27" y="497.5332">getRole()</text></g><!--MD5=[a3638c1e5b65d287ecad7f06f5c0f212]
class Role--><g id="elem_Role"><rect codeLine="29" fill="#F1F1F1" height="83.2188" id="Role" rx="2.5" ry="2.5" style="stroke:#181818;stroke-width:0.5;" width="61" x="24" y="627"/><ellipse cx="39" cy="643" fill="#ADD1B2" rx="11" ry="11" style="stroke:#181818;stroke-width:1.0;"/><path d="M41,639.5 Q41.2031,639 41.4375,638.75 Q41.6719,638.5 41.9375,638.5 Q42.4063,638.5 42.7031,638.7813 Q43,639.0625 43,639.7188 L43,641.2813 Q43,641.9375 42.7188,642.2188 Q42.4375,642.5 42,642.5 Q41.6094,642.5 41.3594,642.3281 Q41.1094,642.1563 41,641.7031 Q40.9531,641.3906 40.7813,641.2188 Q40.4688,640.8906 39.9063,640.7031 Q39.3438,640.5 38.7813,640.5 Q38.0781,640.5 37.4844,640.7813 Q36.9063,641.0625 36.4531,641.6875 Q36,642.3125 36,643.1719 L36,644.0938 Q36,645.125 36.8438,645.8125 Q37.6875,646.5 39.1875,646.5 Q40.0781,646.5 40.7031,646.2969 Q41.0625,646.1875 41.4688,645.8281 Q41.7344,645.625 41.875,645.5625 Q42.0156,645.5 42.1875,645.5 Q42.5156,645.5 42.75,645.7656 Q43,646.0156 43,646.375 Q43,646.7188 42.6563,647.125 Q42.1563,647.7188 41.3594,648.0469 Q40.3125,648.5 39.0313,648.5 Q37.5313,648.5 36.3281,647.9063 Q35.3594,647.4375 34.6719,646.4219 Q34,645.4063 34,644.2031 L34,643.1094 Q34,641.8594 34.5938,640.7656 Q35.2031,639.6719 36.25,639.0938 Q37.3125,638.5 38.5,638.5 Q39.2188,638.5 39.8438,638.75 Q40.4688,639 41,639.5 Z " fill="#000000"/><text fill="#000000" font-family="sans-serif" font-size="14" lengthAdjust="spacing" textLength="29" x="53" y="648.7285">Role</text><line style="stroke:#181818;stroke-width:0.5;" x1="25" x2="84" y1="659" y2="659"/><rect fill="none" height="6" style="stroke:#C82930;stroke-width:1.0;" width="6" x="32" y="667"/><text fill="#000000" font-family="sans-serif" font-size="14" lengthAdjust="spacing" textLength="13" x="44" y="677.5332">ID</text><rect fill="none" height="6" style="stroke:#C82930;stroke-width:1.0;" width="6" x="32" y="684.6094"/><text fill="#000000" font-family="sans-serif" font-size="14" lengthAdjust="spacing" textLength="35" x="44" y="695.1426">name</text><line style="stroke:#181818;stroke-width:0.5;" x1="25" x2="84" y1="702.2188" y2="702.2188"/></g><!--MD5=[829fb52c07ade3ad64ef85b99d1fca10]
class EmployeeStore--><g id="elem_EmployeeStore"><rect codeLine="34" fill="#F1F1F1" height="65.6094" id="EmployeeStore" rx="2.5" ry="2.5" style="stroke:#181818;stroke-width:0.5;" width="128" x="137.5" y="439"/><ellipse cx="152.5" cy="455" fill="#ADD1B2" rx="11" ry="11" style="stroke:#181818;stroke-width:1.0;"/><path d="M154.5,451.5 Q154.7031,451 154.9375,450.75 Q155.1719,450.5 155.4375,450.5 Q155.9063,450.5 156.2031,450.7813 Q156.5,451.0625 156.5,451.7188 L156.5,453.2813 Q156.5,453.9375 156.2188,454.2188 Q155.9375,454.5 155.5,454.5 Q155.1094,454.5 154.8594,454.3281 Q154.6094,454.1563 154.5,453.7031 Q154.4531,453.3906 154.2813,453.2188 Q153.9688,452.8906 153.4063,452.7031 Q152.8438,452.5 152.2813,452.5 Q151.5781,452.5 150.9844,452.7813 Q150.4063,453.0625 149.9531,453.6875 Q149.5,454.3125 149.5,455.1719 L149.5,456.0938 Q149.5,457.125 150.3438,457.8125 Q151.1875,458.5 152.6875,458.5 Q153.5781,458.5 154.2031,458.2969 Q154.5625,458.1875 154.9688,457.8281 Q155.2344,457.625 155.375,457.5625 Q155.5156,457.5 155.6875,457.5 Q156.0156,457.5 156.25,457.7656 Q156.5,458.0156 156.5,458.375 Q156.5,458.7188 156.1563,459.125 Q155.6563,459.7188 154.8594,460.0469 Q153.8125,460.5 152.5313,460.5 Q151.0313,460.5 149.8281,459.9063 Q148.8594,459.4375 148.1719,458.4219 Q147.5,457.4063 147.5,456.2031 L147.5,455.1094 Q147.5,453.8594 148.0938,452.7656 Q148.7031,451.6719 149.75,451.0938 Q150.8125,450.5 152,450.5 Q152.7188,450.5 153.3438,450.75 Q153.9688,451 154.5,451.5 Z " fill="#000000"/><text fill="#000000" font-family="sans-serif" font-size="14" lengthAdjust="spacing" textLength="96" x="166.5" y="460.7285">EmployeeStore</text><line style="stroke:#181818;stroke-width:0.5;" x1="138.5" x2="264.5" y1="471" y2="471"/><line style="stroke:#181818;stroke-width:0.5;" x1="138.5" x2="264.5" y1="479" y2="479"/><ellipse cx="148.5" cy="490" fill="#84BE84" rx="3" ry="3" style="stroke:#038048;stroke-width:1.0;"/><text fill="#000000" font-family="sans-serif" font-size="14" lengthAdjust="spacing" textLength="96" x="157.5" y="497.5332">addEmployee()</text></g><!--MD5=[7421f545a0d8420c5bec41e74b387d9c]
class Employee--><g id="elem_Employee"><rect codeLine="38" fill="#F1F1F1" height="171.2656" id="Employee" rx="2.5" ry="2.5" style="stroke:#181818;stroke-width:0.5;" width="115" x="144" y="583"/><ellipse cx="168.45" cy="599" fill="#ADD1B2" rx="11" ry="11" style="stroke:#181818;stroke-width:1.0;"/><path d="M170.45,595.5 Q170.6531,595 170.8875,594.75 Q171.1219,594.5 171.3875,594.5 Q171.8563,594.5 172.1531,594.7813 Q172.45,595.0625 172.45,595.7188 L172.45,597.2813 Q172.45,597.9375 172.1688,598.2188 Q171.8875,598.5 171.45,598.5 Q171.0594,598.5 170.8094,598.3281 Q170.5594,598.1563 170.45,597.7031 Q170.4031,597.3906 170.2313,597.2188 Q169.9188,596.8906 169.3563,596.7031 Q168.7938,596.5 168.2313,596.5 Q167.5281,596.5 166.9344,596.7813 Q166.3563,597.0625 165.9031,597.6875 Q165.45,598.3125 165.45,599.1719 L165.45,600.0938 Q165.45,601.125 166.2938,601.8125 Q167.1375,602.5 168.6375,602.5 Q169.5281,602.5 170.1531,602.2969 Q170.5125,602.1875 170.9188,601.8281 Q171.1844,601.625 171.325,601.5625 Q171.4656,601.5 171.6375,601.5 Q171.9656,601.5 172.2,601.7656 Q172.45,602.0156 172.45,602.375 Q172.45,602.7188 172.1063,603.125 Q171.6063,603.7188 170.8094,604.0469 Q169.7625,604.5 168.4813,604.5 Q166.9813,604.5 165.7781,603.9063 Q164.8094,603.4375 164.1219,602.4219 Q163.45,601.4063 163.45,600.2031 L163.45,599.1094 Q163.45,597.8594 164.0438,596.7656 Q164.6531,595.6719 165.7,595.0938 Q166.7625,594.5 167.95,594.5 Q168.6688,594.5 169.2938,594.75 Q169.9188,595 170.45,595.5 Z " fill="#000000"/><text fill="#000000" font-family="sans-serif" font-size="14" lengthAdjust="spacing" textLength="62" x="184.55" y="604.7285">Employee</text><line style="stroke:#181818;stroke-width:0.5;" x1="145" x2="258" y1="615" y2="615"/><rect fill="none" height="6" style="stroke:#C82930;stroke-width:1.0;" width="6" x="152" y="623"/><text fill="#000000" font-family="sans-serif" font-size="14" lengthAdjust="spacing" textLength="35" x="164" y="633.5332">name</text><rect fill="none" height="6" style="stroke:#C82930;stroke-width:1.0;" width="6" x="152" y="640.6094"/><text fill="#000000" font-family="sans-serif" font-size="14" lengthAdjust="spacing" textLength="89" x="164" y="651.1426">phoneNumber</text><rect fill="none" height="6" style="stroke:#C82930;stroke-width:1.0;" width="6" x="152" y="658.2188"/><text fill="#000000" font-family="sans-serif" font-size="14" lengthAdjust="spacing" textLength="35" x="164" y="668.752">roleId</text><rect fill="none" height="6" style="stroke:#C82930;stroke-width:1.0;" width="6" x="152" y="675.8281"/><text fill="#000000" font-family="sans-serif" font-size="14" lengthAdjust="spacing" textLength="33" x="164" y="686.3613">email</text><rect fill="none" height="6" style="stroke:#C82930;stroke-width:1.0;" width="6" x="152" y="693.4375"/><text fill="#000000" font-family="sans-serif" font-size="14" lengthAdjust="spacing" textLength="14" x="164" y="703.9707">cc</text><rect fill="none" height="6" style="stroke:#C82930;stroke-width:1.0;" width="6" x="152" y="711.0469"/><text fill="#000000" font-family="sans-serif" font-size="14" lengthAdjust="spacing" textLength="51" x="164" y="721.5801">address</text><line style="stroke:#181818;stroke-width:0.5;" x1="145" x2="258" y1="728.6563" y2="728.6563"/><ellipse cx="155" cy="739.6563" fill="#84BE84" rx="3" ry="3" style="stroke:#038048;stroke-width:1.0;"/><text fill="#000000" font-family="sans-serif" font-size="14" lengthAdjust="spacing" textLength="59" x="164" y="747.1895">getRole()</text></g><!--MD5=[e39894629d0a3e9ff374dc1a7a0de532]
link CreateRoleListUI to CreateRoleListController--><g id="link_CreateRoleListUI_CreateRoleListController"><path codeLine="2" d="M139.5,55.25 C139.5,70.55 139.5,91.24 139.5,110.57 " fill="none" id="CreateRoleListUI-to-CreateRoleListController" style="stroke:#181818;stroke-width:1.0;stroke-dasharray:7.0,7.0;"/><polygon fill="#181818" points="139.5,115.98,143.5,106.98,139.5,110.98,135.5,106.98,139.5,115.98" style="stroke:#181818;stroke-width:1.0;"/></g><!--MD5=[35ef1ea4f67090fe1cf839366675462c]
link CreateRoleListController to Company--><g id="link_CreateRoleListController_Company"><path codeLine="3" d="M119.36,217.36 C112.12,235.26 104.01,255.35 96.93,272.87 " fill="none" id="CreateRoleListController-to-Company" style="stroke:#181818;stroke-width:1.0;stroke-dasharray:7.0,7.0;"/><polygon fill="#181818" points="94.96,277.75,102.0527,270.9167,96.8415,273.1175,94.6407,267.9063,94.96,277.75" style="stroke:#181818;stroke-width:1.0;"/></g><!--MD5=[fd8ffc04d4afc122615efe43c0262458]
link Company to RoleStore--><g id="link_Company_RoleStore"><path codeLine="4" d="M61.41,361.25 C58.13,370.84 55.2,381.15 53.5,391 C51.13,404.78 50.78,420.09 51.22,433.59 " fill="none" id="Company-to-RoleStore" style="stroke:#181818;stroke-width:1.0;"/><polygon fill="#181818" points="51.44,438.87,55.076,429.7169,51.2396,433.874,47.0825,430.0376,51.44,438.87" style="stroke:#181818;stroke-width:1.0;"/><text fill="#000000" font-family="sans-serif" font-size="13" lengthAdjust="spacing" textLength="39" x="54.5" y="405.4951">adopts</text><text fill="#000000" font-family="sans-serif" font-size="13" lengthAdjust="spacing" textLength="7" x="51.1285" y="382.6846">1</text><text fill="#000000" font-family="sans-serif" font-size="13" lengthAdjust="spacing" textLength="7" x="43.087" y="427.9586">1</text></g><!--MD5=[dcd3ca93c399fbb3dc051bf70af25ebc]
link RoleStore to Role--><g id="link_RoleStore_Role"><path codeLine="5" d="M54.5,505.12 C54.5,536.9 54.5,585.84 54.5,621.69 " fill="none" id="RoleStore-to-Role" style="stroke:#181818;stroke-width:1.0;"/><polygon fill="#181818" points="54.5,626.89,58.5,617.89,54.5,621.89,50.5,617.89,54.5,626.89" style="stroke:#181818;stroke-width:1.0;"/><text fill="#000000" font-family="sans-serif" font-size="13" lengthAdjust="spacing" textLength="36" x="55.5" y="549.4951">stores</text><text fill="#000000" font-family="sans-serif" font-size="13" lengthAdjust="spacing" textLength="7" x="46.8766" y="526.0057">1</text><text fill="#000000" font-family="sans-serif" font-size="13" lengthAdjust="spacing" textLength="5" x="49.0859" y="616.1795">*</text></g><!--MD5=[2f3bac1bdf76f0b867b8cadb6fadb6bc]
link EmployeeStore to Employee--><g id="link_EmployeeStore_Employee"><path codeLine="6" d="M201.5,505.12 C201.5,525.05 201.5,551.72 201.5,577.69 " fill="none" id="EmployeeStore-to-Employee" style="stroke:#181818;stroke-width:1.0;"/><polygon fill="#181818" points="201.5,582.87,205.5,573.87,201.5,577.87,197.5,573.87,201.5,582.87" style="stroke:#181818;stroke-width:1.0;"/><text fill="#000000" font-family="sans-serif" font-size="13" lengthAdjust="spacing" textLength="36" x="202.5" y="549.4951">stores</text><text fill="#000000" font-family="sans-serif" font-size="13" lengthAdjust="spacing" textLength="7" x="193.8766" y="526.0057">1</text><text fill="#000000" font-family="sans-serif" font-size="13" lengthAdjust="spacing" textLength="5" x="196.2773" y="572.03">*</text></g><!--MD5=[92e5d6af17b7398de2c535bd60bacfa7]
link CreateRoleListController to EmployeeStore--><g id="link_CreateRoleListController_EmployeeStore"><path codeLine="7" d="M151.71,217.17 C156.24,236.16 161.29,258.04 165.5,278 C176.87,331.94 188.24,394.76 195.08,433.71 " fill="none" id="CreateRoleListController-to-EmployeeStore" style="stroke:#181818;stroke-width:1.0;stroke-dasharray:7.0,7.0;"/><polygon fill="#181818" points="195.97,438.81,198.3419,429.251,195.0994,433.8864,190.4641,430.6439,195.97,438.81" style="stroke:#181818;stroke-width:1.0;"/></g><!--MD5=[ce859576cba61219b3cb4d2d23fdcd81]
link Company to EmployeeStore--><g id="link_Company_EmployeeStore"><path codeLine="8" d="M101.22,361.23 C110.67,376.8 122.29,394.33 134.5,409 C142.04,418.06 150.85,427.09 159.57,435.34 " fill="none" id="Company-to-EmployeeStore" style="stroke:#181818;stroke-width:1.0;"/><polygon fill="#181818" points="163.29,438.83,159.4599,429.7564,159.6423,435.4103,153.9884,435.5927,163.29,438.83" style="stroke:#181818;stroke-width:1.0;"/><text fill="#000000" font-family="sans-serif" font-size="13" lengthAdjust="spacing" textLength="39" x="135.5" y="405.4951">adopts</text><text fill="#000000" font-family="sans-serif" font-size="13" lengthAdjust="spacing" textLength="7" x="97.2832" y="382.6614">1</text><text fill="#000000" font-family="sans-serif" font-size="13" lengthAdjust="spacing" textLength="7" x="147.6873" y="427.9103">1</text></g><!--MD5=[8a4212abb2902cd2c13a255319c13771]
@startuml

CreateRoleListUI ..> CreateRoleListController
CreateRoleListController ..> Company
Company "1"- -> "1"RoleStore: adopts
RoleStore "1"- -> "*"Role:stores
EmployeeStore "1" - -> "*"Employee:stores
CreateRoleListController ..> EmployeeStore
Company "1"- ->"1" EmployeeStore:adopts


class CreateRoleListUI{
}

class CreateRoleListController{
+getRoleList()
+getEmployeesList(role)
+addEmployee(i)
}

class Company{
+getRoleList()
+getEmployeeList()
}

class RoleStore{
+getRole()
}

class Role{
-ID
-name
}

class EmployeeStore{
+addEmployee()
}

class Employee{
    -name
    -phoneNumber
    -roleId
    -email
    -cc
    -address
    +getRole()
}

@enduml

PlantUML version 1.2022.4(Sat Apr 09 14:29:17 BST 2022)
(GPL source distribution)
Java Runtime: OpenJDK Runtime Environment
JVM: OpenJDK 64-Bit Server VM
Default Encoding: Cp1252
Language: pt
Country: PT
--></g></svg>