<?xml version="1.0" encoding="UTF-8" standalone="no"?><svg xmlns="http://www.w3.org/2000/svg" xmlns:xlink="http://www.w3.org/1999/xlink" contentScriptType="application/ecmascript" contentStyleType="text/css" height="368px" preserveAspectRatio="none" style="width:392px;height:368px;background:#FFFFFF;" version="1.1" viewBox="0 0 392 368" width="392px" zoomAndPan="magnify"><defs><filter height="300%" id="f1jfi2w2aiephz" width="300%" x="-1" y="-1"><feGaussianBlur result="blurOut" stdDeviation="2.0"/><feColorMatrix in="blurOut" result="blurOut2" type="matrix" values="0 0 0 0 0 0 0 0 0 0 0 0 0 0 0 0 0 0 .4 0"/><feOffset dx="4.0" dy="4.0" in="blurOut2" result="blurOut3"/><feBlend in="SourceGraphic" in2="blurOut3" mode="normal"/></filter></defs><g><!--MD5=[da547346deef918ea16944ba046651ef]
class Administrator--><rect codeLine="2" fill="#FEFECE" filter="url(#f1jfi2w2aiephz)" height="48" id="Administrator" style="stroke:#A80036;stroke-width:1.5;" width="105" x="156.5" y="7"/><ellipse cx="171.5" cy="23" fill="#ADD1B2" rx="11" ry="11" style="stroke:#A80036;stroke-width:1.0;"/><path d="M173.5,19.5 Q173.7031,19 173.9375,18.75 Q174.1719,18.5 174.4375,18.5 Q174.9063,18.5 175.2031,18.7813 Q175.5,19.0625 175.5,19.7188 L175.5,21.2813 Q175.5,21.9375 175.2188,22.2188 Q174.9375,22.5 174.5,22.5 Q174.1094,22.5 173.8594,22.3281 Q173.6094,22.1563 173.5,21.7031 Q173.4531,21.3906 173.2813,21.2188 Q172.9688,20.8906 172.4063,20.7031 Q171.8438,20.5 171.2813,20.5 Q170.5781,20.5 169.9844,20.7813 Q169.4063,21.0625 168.9531,21.6875 Q168.5,22.3125 168.5,23.1719 L168.5,24.0938 Q168.5,25.125 169.3438,25.8125 Q170.1875,26.5 171.6875,26.5 Q172.5781,26.5 173.2031,26.2969 Q173.5625,26.1875 173.9688,25.8281 Q174.2344,25.625 174.375,25.5625 Q174.5156,25.5 174.6875,25.5 Q175.0156,25.5 175.25,25.7656 Q175.5,26.0156 175.5,26.375 Q175.5,26.7188 175.1563,27.125 Q174.6563,27.7188 173.8594,28.0469 Q172.8125,28.5 171.5313,28.5 Q170.0313,28.5 168.8281,27.9063 Q167.8594,27.4375 167.1719,26.4219 Q166.5,25.4063 166.5,24.2031 L166.5,23.1094 Q166.5,21.8594 167.0938,20.7656 Q167.7031,19.6719 168.75,19.0938 Q169.8125,18.5 171,18.5 Q171.7188,18.5 172.3438,18.75 Q172.9688,19 173.5,19.5 Z " fill="#000000"/><text fill="#000000" font-family="sans-serif" font-size="12" lengthAdjust="spacing" textLength="73" x="185.5" y="27.9102">Administrator</text><line style="stroke:#A80036;stroke-width:1.5;" x1="157.5" x2="260.5" y1="39" y2="39"/><line style="stroke:#A80036;stroke-width:1.5;" x1="157.5" x2="260.5" y1="47" y2="47"/><!--MD5=[2d935fd2dd068a13da1ae531f9857c4f]
class CenterCoordinator--><rect codeLine="4" fill="#FEFECE" filter="url(#f1jfi2w2aiephz)" height="48" id="CenterCoordinator" style="stroke:#A80036;stroke-width:1.5;" width="134" x="7" y="306"/><ellipse cx="22" cy="322" fill="#ADD1B2" rx="11" ry="11" style="stroke:#A80036;stroke-width:1.0;"/><path d="M24,318.5 Q24.2031,318 24.4375,317.75 Q24.6719,317.5 24.9375,317.5 Q25.4063,317.5 25.7031,317.7813 Q26,318.0625 26,318.7188 L26,320.2813 Q26,320.9375 25.7188,321.2188 Q25.4375,321.5 25,321.5 Q24.6094,321.5 24.3594,321.3281 Q24.1094,321.1563 24,320.7031 Q23.9531,320.3906 23.7813,320.2188 Q23.4688,319.8906 22.9063,319.7031 Q22.3438,319.5 21.7813,319.5 Q21.0781,319.5 20.4844,319.7813 Q19.9063,320.0625 19.4531,320.6875 Q19,321.3125 19,322.1719 L19,323.0938 Q19,324.125 19.8438,324.8125 Q20.6875,325.5 22.1875,325.5 Q23.0781,325.5 23.7031,325.2969 Q24.0625,325.1875 24.4688,324.8281 Q24.7344,324.625 24.875,324.5625 Q25.0156,324.5 25.1875,324.5 Q25.5156,324.5 25.75,324.7656 Q26,325.0156 26,325.375 Q26,325.7188 25.6563,326.125 Q25.1563,326.7188 24.3594,327.0469 Q23.3125,327.5 22.0313,327.5 Q20.5313,327.5 19.3281,326.9063 Q18.3594,326.4375 17.6719,325.4219 Q17,324.4063 17,323.2031 L17,322.1094 Q17,320.8594 17.5938,319.7656 Q18.2031,318.6719 19.25,318.0938 Q20.3125,317.5 21.5,317.5 Q22.2188,317.5 22.8438,317.75 Q23.4688,318 24,318.5 Z " fill="#000000"/><text fill="#000000" font-family="sans-serif" font-size="12" lengthAdjust="spacing" textLength="102" x="36" y="326.9102">CenterCoordinator</text><line style="stroke:#A80036;stroke-width:1.5;" x1="8" x2="140" y1="338" y2="338"/><line style="stroke:#A80036;stroke-width:1.5;" x1="8" x2="140" y1="346" y2="346"/><!--MD5=[a059576e163b46f56762f12600c49258]
class Nurse--><rect codeLine="5" fill="#FEFECE" filter="url(#f1jfi2w2aiephz)" height="48" id="Nurse" style="stroke:#A80036;stroke-width:1.5;" width="66" x="176" y="306"/><ellipse cx="191" cy="322" fill="#ADD1B2" rx="11" ry="11" style="stroke:#A80036;stroke-width:1.0;"/><path d="M193,318.5 Q193.2031,318 193.4375,317.75 Q193.6719,317.5 193.9375,317.5 Q194.4063,317.5 194.7031,317.7813 Q195,318.0625 195,318.7188 L195,320.2813 Q195,320.9375 194.7188,321.2188 Q194.4375,321.5 194,321.5 Q193.6094,321.5 193.3594,321.3281 Q193.1094,321.1563 193,320.7031 Q192.9531,320.3906 192.7813,320.2188 Q192.4688,319.8906 191.9063,319.7031 Q191.3438,319.5 190.7813,319.5 Q190.0781,319.5 189.4844,319.7813 Q188.9063,320.0625 188.4531,320.6875 Q188,321.3125 188,322.1719 L188,323.0938 Q188,324.125 188.8438,324.8125 Q189.6875,325.5 191.1875,325.5 Q192.0781,325.5 192.7031,325.2969 Q193.0625,325.1875 193.4688,324.8281 Q193.7344,324.625 193.875,324.5625 Q194.0156,324.5 194.1875,324.5 Q194.5156,324.5 194.75,324.7656 Q195,325.0156 195,325.375 Q195,325.7188 194.6563,326.125 Q194.1563,326.7188 193.3594,327.0469 Q192.3125,327.5 191.0313,327.5 Q189.5313,327.5 188.3281,326.9063 Q187.3594,326.4375 186.6719,325.4219 Q186,324.4063 186,323.2031 L186,322.1094 Q186,320.8594 186.5938,319.7656 Q187.2031,318.6719 188.25,318.0938 Q189.3125,317.5 190.5,317.5 Q191.2188,317.5 191.8438,317.75 Q192.4688,318 193,318.5 Z " fill="#000000"/><text fill="#000000" font-family="sans-serif" font-size="12" lengthAdjust="spacing" textLength="34" x="205" y="326.9102">Nurse</text><line style="stroke:#A80036;stroke-width:1.5;" x1="177" x2="241" y1="338" y2="338"/><line style="stroke:#A80036;stroke-width:1.5;" x1="177" x2="241" y1="346" y2="346"/><!--MD5=[03960189e81aa2c066c762ffabbee709]
class Receptionist--><rect codeLine="6" fill="#FEFECE" filter="url(#f1jfi2w2aiephz)" height="48" id="Receptionist" style="stroke:#A80036;stroke-width:1.5;" width="101" x="277.5" y="306"/><ellipse cx="292.5" cy="322" fill="#ADD1B2" rx="11" ry="11" style="stroke:#A80036;stroke-width:1.0;"/><path d="M294.5,318.5 Q294.7031,318 294.9375,317.75 Q295.1719,317.5 295.4375,317.5 Q295.9063,317.5 296.2031,317.7813 Q296.5,318.0625 296.5,318.7188 L296.5,320.2813 Q296.5,320.9375 296.2188,321.2188 Q295.9375,321.5 295.5,321.5 Q295.1094,321.5 294.8594,321.3281 Q294.6094,321.1563 294.5,320.7031 Q294.4531,320.3906 294.2813,320.2188 Q293.9688,319.8906 293.4063,319.7031 Q292.8438,319.5 292.2813,319.5 Q291.5781,319.5 290.9844,319.7813 Q290.4063,320.0625 289.9531,320.6875 Q289.5,321.3125 289.5,322.1719 L289.5,323.0938 Q289.5,324.125 290.3438,324.8125 Q291.1875,325.5 292.6875,325.5 Q293.5781,325.5 294.2031,325.2969 Q294.5625,325.1875 294.9688,324.8281 Q295.2344,324.625 295.375,324.5625 Q295.5156,324.5 295.6875,324.5 Q296.0156,324.5 296.25,324.7656 Q296.5,325.0156 296.5,325.375 Q296.5,325.7188 296.1563,326.125 Q295.6563,326.7188 294.8594,327.0469 Q293.8125,327.5 292.5313,327.5 Q291.0313,327.5 289.8281,326.9063 Q288.8594,326.4375 288.1719,325.4219 Q287.5,324.4063 287.5,323.2031 L287.5,322.1094 Q287.5,320.8594 288.0938,319.7656 Q288.7031,318.6719 289.75,318.0938 Q290.8125,317.5 292,317.5 Q292.7188,317.5 293.3438,317.75 Q293.9688,318 294.5,318.5 Z " fill="#000000"/><text fill="#000000" font-family="sans-serif" font-size="12" lengthAdjust="spacing" textLength="69" x="306.5" y="326.9102">Receptionist</text><line style="stroke:#A80036;stroke-width:1.5;" x1="278.5" x2="377.5" y1="338" y2="338"/><line style="stroke:#A80036;stroke-width:1.5;" x1="278.5" x2="377.5" y1="346" y2="346"/><!--MD5=[7421f545a0d8420c5bec41e74b387d9c]
class Employee--><rect codeLine="13" fill="#FEFECE" filter="url(#f1jfi2w2aiephz)" height="131.0156" id="Employee" style="stroke:#A80036;stroke-width:1.5;" width="109" x="154.5" y="115"/><ellipse cx="179.4" cy="131" fill="#ADD1B2" rx="11" ry="11" style="stroke:#A80036;stroke-width:1.0;"/><path d="M181.4,127.5 Q181.6031,127 181.8375,126.75 Q182.0719,126.5 182.3375,126.5 Q182.8063,126.5 183.1031,126.7813 Q183.4,127.0625 183.4,127.7188 L183.4,129.2813 Q183.4,129.9375 183.1188,130.2188 Q182.8375,130.5 182.4,130.5 Q182.0094,130.5 181.7594,130.3281 Q181.5094,130.1563 181.4,129.7031 Q181.3531,129.3906 181.1813,129.2188 Q180.8688,128.8906 180.3063,128.7031 Q179.7438,128.5 179.1813,128.5 Q178.4781,128.5 177.8844,128.7813 Q177.3063,129.0625 176.8531,129.6875 Q176.4,130.3125 176.4,131.1719 L176.4,132.0938 Q176.4,133.125 177.2438,133.8125 Q178.0875,134.5 179.5875,134.5 Q180.4781,134.5 181.1031,134.2969 Q181.4625,134.1875 181.8688,133.8281 Q182.1344,133.625 182.275,133.5625 Q182.4156,133.5 182.5875,133.5 Q182.9156,133.5 183.15,133.7656 Q183.4,134.0156 183.4,134.375 Q183.4,134.7188 183.0563,135.125 Q182.5563,135.7188 181.7594,136.0469 Q180.7125,136.5 179.4313,136.5 Q177.9313,136.5 176.7281,135.9063 Q175.7594,135.4375 175.0719,134.4219 Q174.4,133.4063 174.4,132.2031 L174.4,131.1094 Q174.4,129.8594 174.9938,128.7656 Q175.6031,127.6719 176.65,127.0938 Q177.7125,126.5 178.9,126.5 Q179.6188,126.5 180.2438,126.75 Q180.8688,127 181.4,127.5 Z " fill="#000000"/><text fill="#000000" font-family="sans-serif" font-size="12" lengthAdjust="spacing" textLength="55" x="195.6" y="135.9102">Employee</text><line style="stroke:#A80036;stroke-width:1.5;" x1="155.5" x2="262.5" y1="147" y2="147"/><rect fill="none" height="6" style="stroke:#C82930;stroke-width:1.0;" width="6" x="162.5" y="155"/><text fill="#000000" font-family="sans-serif" font-size="11" lengthAdjust="spacing" textLength="27" x="174.5" y="162.4189">Name</text><rect fill="none" height="6" style="stroke:#C82930;stroke-width:1.0;" width="6" x="162.5" y="168.8359"/><text fill="#000000" font-family="sans-serif" font-size="11" lengthAdjust="spacing" textLength="83" x="174.5" y="176.2549">EmployeeNumber</text><rect fill="none" height="6" style="stroke:#C82930;stroke-width:1.0;" width="6" x="162.5" y="182.6719"/><text fill="#000000" font-family="sans-serif" font-size="11" lengthAdjust="spacing" textLength="20" x="174.5" y="190.0908">Age</text><rect fill="none" height="6" style="stroke:#C82930;stroke-width:1.0;" width="6" x="162.5" y="196.5078"/><text fill="#000000" font-family="sans-serif" font-size="11" lengthAdjust="spacing" textLength="70" x="174.5" y="203.9268">Phone Number</text><rect fill="none" height="6" style="stroke:#C82930;stroke-width:1.0;" width="6" x="162.5" y="210.3438"/><text fill="#000000" font-family="sans-serif" font-size="11" lengthAdjust="spacing" textLength="24" x="174.5" y="217.7627">Email</text><rect fill="none" height="6" style="stroke:#C82930;stroke-width:1.0;" width="6" x="162.5" y="224.1797"/><text fill="#000000" font-family="sans-serif" font-size="11" lengthAdjust="spacing" textLength="14" x="174.5" y="231.5986">CC</text><line style="stroke:#A80036;stroke-width:1.5;" x1="155.5" x2="262.5" y1="238.0156" y2="238.0156"/><!--MD5=[8f7dd94d56b58fc07b233ccd3dd98f8c]
link Administrator to Employee--><path codeLine="8" d="M209,55.05 C209,69.91 209,90.1 209,109.89 " fill="none" id="Administrator-to-Employee" style="stroke:#A80036;stroke-width:1.0;"/><polygon fill="#A80036" points="209,114.91,213,105.91,209,109.91,205,105.91,209,114.91" style="stroke:#A80036;stroke-width:1.0;"/><!--MD5=[b71b66caf67976638439c0d1a3790473]
link Employee to Nurse--><path codeLine="9" d="M209,246.2 C209,265.25 209,285.12 209,300.62 " fill="none" id="Employee-to-Nurse" style="stroke:#A80036;stroke-width:1.0;"/><polygon fill="#A80036" points="209,305.71,213,296.71,209,300.71,205,296.71,209,305.71" style="stroke:#A80036;stroke-width:1.0;"/><!--MD5=[f97181852e6b5af60387612f468bcaff]
link Employee to CenterCoordinator--><path codeLine="10" d="M154.48,241.07 C135.16,262.18 114.36,284.9 98.75,301.96 " fill="none" id="Employee-to-CenterCoordinator" style="stroke:#A80036;stroke-width:1.0;"/><polygon fill="#A80036" points="95.3,305.73,104.326,301.789,98.6747,302.0407,98.4231,296.3894,95.3,305.73" style="stroke:#A80036;stroke-width:1.0;"/><!--MD5=[1da12df22706e73e1def33b218b7f412]
link Employee to Receptionist--><path codeLine="11" d="M261.2,246.2 C276.84,265.58 293.16,285.82 305.76,301.43 " fill="none" id="Employee-to-Receptionist" style="stroke:#A80036;stroke-width:1.0;"/><polygon fill="#A80036" points="309.21,305.71,306.6814,296.1913,306.0743,301.8155,300.4501,301.2084,309.21,305.71" style="stroke:#A80036;stroke-width:1.0;"/><!--MD5=[4a1bff521c65e0f2a9b913e3f52fe769]
@startuml

class Administrator

class CenterCoordinator
class Nurse
class Receptionist

Administrator - -> Employee
Employee - -> Nurse
Employee - -> CenterCoordinator
Employee - -> Receptionist

class Employee {
-Name
-EmployeeNumber
-Age
-Phone Number
-Email
-CC
}

@enduml

PlantUML version 1.2022.1(Tue Feb 01 18:19:58 GMT 2022)
(GPL source distribution)
Java Runtime: OpenJDK Runtime Environment
JVM: OpenJDK 64-Bit Server VM
Default Encoding: Cp1252
Language: en
Country: US
--></g></svg>