<?xml version="1.0" encoding="UTF-8" standalone="no"?><svg xmlns="http://www.w3.org/2000/svg" xmlns:xlink="http://www.w3.org/1999/xlink" contentScriptType="application/ecmascript" contentStyleType="text/css" height="1398px" preserveAspectRatio="none" style="width:2418px;height:1398px;background:#FFFFFF;" version="1.1" viewBox="0 0 2418 1398" width="2418px" zoomAndPan="magnify"><defs><filter height="300%" id="f1sygt3s8p8khw" width="300%" x="-1" y="-1"><feGaussianBlur result="blurOut" stdDeviation="2.0"/><feColorMatrix in="blurOut" result="blurOut2" type="matrix" values="0 0 0 0 0 0 0 0 0 0 0 0 0 0 0 0 0 0 .4 0"/><feOffset dx="4.0" dy="4.0" in="blurOut2" result="blurOut3"/><feBlend in="SourceGraphic" in2="blurOut3" mode="normal"/></filter></defs><g><rect fill="#FFFFFF" filter="url(#f1sygt3s8p8khw)" height="1195.6172" style="stroke:#A80036;stroke-width:1.0;" width="10" x="44.5" y="99.6094"/><rect fill="#FFFFFF" filter="url(#f1sygt3s8p8khw)" height="121.0547" style="stroke:#A80036;stroke-width:1.0;" width="10" x="564.5" y="121.9609"/><rect fill="#FFFFFF" filter="url(#f1sygt3s8p8khw)" height="30.3516" style="stroke:#A80036;stroke-width:1.0;" width="10" x="564.5" y="273.3672"/><rect fill="#FFFFFF" filter="url(#f1sygt3s8p8khw)" height="76.9609" style="stroke:#A80036;stroke-width:1.0;" width="10" x="564.5" y="334.0703"/><rect fill="#FFFFFF" filter="url(#f1sygt3s8p8khw)" height="853.8438" style="stroke:#A80036;stroke-width:1.0;" width="10" x="564.5" y="441.3828"/><rect fill="#FFFFFF" filter="url(#f1sygt3s8p8khw)" height="244.625" style="stroke:#A80036;stroke-width:1.0;" width="10" x="966.5" y="471.7344"/><rect fill="#FFFFFF" filter="url(#f1sygt3s8p8khw)" height="364.4609" style="stroke:#A80036;stroke-width:1.0;" width="10" x="966.5" y="893.4141"/><rect fill="#FFFFFF" filter="url(#f1sygt3s8p8khw)" height="30" style="stroke:#A80036;stroke-width:1.0;" width="10" x="1237.5" y="182.6641"/><rect fill="#FFFFFF" filter="url(#f1sygt3s8p8khw)" height="30" style="stroke:#A80036;stroke-width:1.0;" width="10" x="1237.5" y="502.0859"/><rect fill="#FFFFFF" filter="url(#f1sygt3s8p8khw)" height="30" style="stroke:#A80036;stroke-width:1.0;" width="10" x="1237.5" y="923.7656"/><rect fill="#FFFFFF" filter="url(#f1sygt3s8p8khw)" height="30.3516" style="stroke:#A80036;stroke-width:1.0;" width="10" x="1440.5" y="562.4375"/><rect fill="#FFFFFF" filter="url(#f1sygt3s8p8khw)" height="170.0547" style="stroke:#A80036;stroke-width:1.0;" width="10" x="1440.5" y="686.0078"/><rect fill="#FFFFFF" filter="url(#f1sygt3s8p8khw)" height="28" style="stroke:#A80036;stroke-width:1.0;" width="10" x="1445.5" y="754.7109"/><rect fill="#FFFFFF" filter="url(#f1sygt3s8p8khw)" height="28" style="stroke:#A80036;stroke-width:1.0;" width="10" x="1445.5" y="828.0625"/><rect fill="#FFFFFF" filter="url(#f1sygt3s8p8khw)" height="36.6094" style="stroke:#A80036;stroke-width:1.0;" width="10" x="1826.5" y="602.7891"/><rect fill="#FFFFFF" filter="url(#f1sygt3s8p8khw)" height="273.7578" style="stroke:#A80036;stroke-width:1.0;" width="10" x="2064" y="984.1172"/><rect fill="#FFFFFF" filter="url(#f1sygt3s8p8khw)" height="66.3516" style="stroke:#A80036;stroke-width:1.0;" width="10" x="2194" y="1014.4688"/><rect fill="#FFFFFF" filter="url(#f1sygt3s8p8khw)" height="28" style="stroke:#A80036;stroke-width:1.0;" width="10" x="2199" y="1052.8203"/><rect fill="#FFFFFF" filter="url(#f1sygt3s8p8khw)" height="139.7031" style="stroke:#A80036;stroke-width:1.0;" width="10" x="2303.5" y="1118.1719"/><rect fill="#FFFFFF" filter="url(#f1sygt3s8p8khw)" height="28" style="stroke:#A80036;stroke-width:1.0;" width="10" x="2308.5" y="1156.5234"/><rect fill="#FFFFFF" filter="url(#f1sygt3s8p8khw)" height="28" style="stroke:#A80036;stroke-width:1.0;" width="10" x="2308.5" y="1229.875"/><line style="stroke:#A80036;stroke-width:1.0;stroke-dasharray:5.0,5.0;" x1="49" x2="49" y1="89.6094" y2="1313.2266"/><line style="stroke:#A80036;stroke-width:1.0;stroke-dasharray:5.0,5.0;" x1="569.5" x2="569.5" y1="89.6094" y2="1313.2266"/><line style="stroke:#A80036;stroke-width:1.0;stroke-dasharray:5.0,5.0;" x1="971.5" x2="971.5" y1="89.6094" y2="1313.2266"/><line style="stroke:#A80036;stroke-width:1.0;stroke-dasharray:5.0,5.0;" x1="1242.5" x2="1242.5" y1="89.6094" y2="1313.2266"/><line style="stroke:#A80036;stroke-width:1.0;stroke-dasharray:5.0,5.0;" x1="1334.5" x2="1334.5" y1="375.375" y2="1313.2266"/><line style="stroke:#A80036;stroke-width:1.0;stroke-dasharray:5.0,5.0;" x1="1445.5" x2="1445.5" y1="89.6094" y2="1313.2266"/><line style="stroke:#A80036;stroke-width:1.0;stroke-dasharray:5.0,5.0;" x1="1831.5" x2="1831.5" y1="603.7422" y2="1313.2266"/><line style="stroke:#A80036;stroke-width:1.0;stroke-dasharray:5.0,5.0;" x1="1981.5" x2="1981.5" y1="650.3516" y2="1313.2266"/><line style="stroke:#A80036;stroke-width:1.0;stroke-dasharray:5.0,5.0;" x1="2068.5" x2="2068.5" y1="89.6094" y2="1313.2266"/><line style="stroke:#A80036;stroke-width:1.0;stroke-dasharray:5.0,5.0;" x1="2199" x2="2199" y1="89.6094" y2="1313.2266"/><line style="stroke:#A80036;stroke-width:1.0;stroke-dasharray:5.0,5.0;" x1="2308" x2="2308" y1="89.6094" y2="1313.2266"/><text fill="#000000" font-family="sans-serif" font-size="14" lengthAdjust="spacing" textLength="83" x="5" y="86.5332">Administrator</text><ellipse cx="49.5" cy="15" fill="#FEFECE" filter="url(#f1sygt3s8p8khw)" rx="8" ry="8" style="stroke:#A80036;stroke-width:2.0;"/><path d="M49.5,23 L49.5,50 M36.5,31 L62.5,31 M49.5,50 L36.5,65 M49.5,50 L62.5,65 " fill="none" filter="url(#f1sygt3s8p8khw)" style="stroke:#A80036;stroke-width:2.0;"/><text fill="#000000" font-family="sans-serif" font-size="14" lengthAdjust="spacing" textLength="83" x="5" y="1326.7598">Administrator</text><ellipse cx="49.5" cy="1339.8359" fill="#FEFECE" filter="url(#f1sygt3s8p8khw)" rx="8" ry="8" style="stroke:#A80036;stroke-width:2.0;"/><path d="M49.5,1347.8359 L49.5,1374.8359 M36.5,1355.8359 L62.5,1355.8359 M49.5,1374.8359 L36.5,1389.8359 M49.5,1374.8359 L62.5,1389.8359 " fill="none" filter="url(#f1sygt3s8p8khw)" style="stroke:#A80036;stroke-width:2.0;"/><rect fill="#FEFECE" filter="url(#f1sygt3s8p8khw)" height="31.6094" style="stroke:#A80036;stroke-width:1.5;" width="92" x="521.5" y="53"/><text fill="#000000" font-family="sans-serif" font-size="14" lengthAdjust="spacing" textLength="78" x="528.5" y="74.5332">:EmployeeUI</text><rect fill="#FEFECE" filter="url(#f1sygt3s8p8khw)" height="31.6094" style="stroke:#A80036;stroke-width:1.5;" width="92" x="521.5" y="1312.2266"/><text fill="#000000" font-family="sans-serif" font-size="14" lengthAdjust="spacing" textLength="78" x="528.5" y="1333.7598">:EmployeeUI</text><rect fill="#FEFECE" filter="url(#f1sygt3s8p8khw)" height="31.6094" style="stroke:#A80036;stroke-width:1.5;" width="142" x="898.5" y="53"/><text fill="#000000" font-family="sans-serif" font-size="14" lengthAdjust="spacing" textLength="128" x="905.5" y="74.5332">:EmployeeController</text><rect fill="#FEFECE" filter="url(#f1sygt3s8p8khw)" height="31.6094" style="stroke:#A80036;stroke-width:1.5;" width="142" x="898.5" y="1312.2266"/><text fill="#000000" font-family="sans-serif" font-size="14" lengthAdjust="spacing" textLength="128" x="905.5" y="1333.7598">:EmployeeController</text><rect fill="#FEFECE" filter="url(#f1sygt3s8p8khw)" height="31.6094" style="stroke:#A80036;stroke-width:1.5;" width="78" x="1201.5" y="53"/><text fill="#000000" font-family="sans-serif" font-size="14" lengthAdjust="spacing" textLength="64" x="1208.5" y="74.5332">:Company</text><rect fill="#FEFECE" filter="url(#f1sygt3s8p8khw)" height="31.6094" style="stroke:#A80036;stroke-width:1.5;" width="78" x="1201.5" y="1312.2266"/><text fill="#000000" font-family="sans-serif" font-size="14" lengthAdjust="spacing" textLength="64" x="1208.5" y="1333.7598">:Company</text><rect fill="#FEFECE" filter="url(#f1sygt3s8p8khw)" height="31.6094" style="stroke:#A80036;stroke-width:1.5;" width="79" x="1293.5" y="1312.2266"/><text fill="#000000" font-family="sans-serif" font-size="14" lengthAdjust="spacing" textLength="65" x="1300.5" y="1333.7598">:Password</text><rect fill="#FEFECE" filter="url(#f1sygt3s8p8khw)" height="31.6094" style="stroke:#A80036;stroke-width:1.5;" width="114" x="1386.5" y="53"/><text fill="#000000" font-family="sans-serif" font-size="14" lengthAdjust="spacing" textLength="100" x="1393.5" y="74.5332">:EmployeeStore</text><rect fill="#FEFECE" filter="url(#f1sygt3s8p8khw)" height="31.6094" style="stroke:#A80036;stroke-width:1.5;" width="114" x="1386.5" y="1312.2266"/><text fill="#000000" font-family="sans-serif" font-size="14" lengthAdjust="spacing" textLength="100" x="1393.5" y="1333.7598">:EmployeeStore</text><rect fill="#FEFECE" filter="url(#f1sygt3s8p8khw)" height="31.6094" style="stroke:#A80036;stroke-width:1.5;" width="80" x="1789.5" y="1312.2266"/><text fill="#000000" font-family="sans-serif" font-size="14" lengthAdjust="spacing" textLength="66" x="1796.5" y="1333.7598">:Employee</text><rect fill="#FEFECE" filter="url(#f1sygt3s8p8khw)" height="31.6094" style="stroke:#A80036;stroke-width:1.5;" width="52" x="1953.5" y="1312.2266"/><text fill="#000000" font-family="sans-serif" font-size="14" lengthAdjust="spacing" textLength="38" x="1960.5" y="1333.7598">:Email</text><rect fill="#FEFECE" filter="url(#f1sygt3s8p8khw)" height="31.6094" style="stroke:#A80036;stroke-width:1.5;" width="95" x="2019.5" y="53"/><text fill="#000000" font-family="sans-serif" font-size="14" lengthAdjust="spacing" textLength="81" x="2026.5" y="74.5332">:AuthFacade</text><rect fill="#FEFECE" filter="url(#f1sygt3s8p8khw)" height="31.6094" style="stroke:#A80036;stroke-width:1.5;" width="95" x="2019.5" y="1312.2266"/><text fill="#000000" font-family="sans-serif" font-size="14" lengthAdjust="spacing" textLength="81" x="2026.5" y="1333.7598">:AuthFacade</text><rect fill="#FEFECE" filter="url(#f1sygt3s8p8khw)" height="31.6094" style="stroke:#A80036;stroke-width:1.5;" width="110" x="2142" y="53"/><text fill="#000000" font-family="sans-serif" font-size="14" lengthAdjust="spacing" textLength="96" x="2149" y="74.5332">:UserRoleStore</text><rect fill="#FEFECE" filter="url(#f1sygt3s8p8khw)" height="31.6094" style="stroke:#A80036;stroke-width:1.5;" width="110" x="2142" y="1312.2266"/><text fill="#000000" font-family="sans-serif" font-size="14" lengthAdjust="spacing" textLength="96" x="2149" y="1333.7598">:UserRoleStore</text><rect fill="#FEFECE" filter="url(#f1sygt3s8p8khw)" height="31.6094" style="stroke:#A80036;stroke-width:1.5;" width="81" x="2266" y="53"/><text fill="#000000" font-family="sans-serif" font-size="14" lengthAdjust="spacing" textLength="67" x="2273" y="74.5332">:UserStore</text><rect fill="#FEFECE" filter="url(#f1sygt3s8p8khw)" height="31.6094" style="stroke:#A80036;stroke-width:1.5;" width="81" x="2266" y="1312.2266"/><text fill="#000000" font-family="sans-serif" font-size="14" lengthAdjust="spacing" textLength="67" x="2273" y="1333.7598">:UserStore</text><rect fill="#FFFFFF" filter="url(#f1sygt3s8p8khw)" height="1195.6172" style="stroke:#A80036;stroke-width:1.0;" width="10" x="44.5" y="99.6094"/><rect fill="#FFFFFF" filter="url(#f1sygt3s8p8khw)" height="121.0547" style="stroke:#A80036;stroke-width:1.0;" width="10" x="564.5" y="121.9609"/><rect fill="#FFFFFF" filter="url(#f1sygt3s8p8khw)" height="30.3516" style="stroke:#A80036;stroke-width:1.0;" width="10" x="564.5" y="273.3672"/><rect fill="#FFFFFF" filter="url(#f1sygt3s8p8khw)" height="76.9609" style="stroke:#A80036;stroke-width:1.0;" width="10" x="564.5" y="334.0703"/><rect fill="#FFFFFF" filter="url(#f1sygt3s8p8khw)" height="853.8438" style="stroke:#A80036;stroke-width:1.0;" width="10" x="564.5" y="441.3828"/><rect fill="#FFFFFF" filter="url(#f1sygt3s8p8khw)" height="244.625" style="stroke:#A80036;stroke-width:1.0;" width="10" x="966.5" y="471.7344"/><rect fill="#FFFFFF" filter="url(#f1sygt3s8p8khw)" height="364.4609" style="stroke:#A80036;stroke-width:1.0;" width="10" x="966.5" y="893.4141"/><rect fill="#FFFFFF" filter="url(#f1sygt3s8p8khw)" height="30" style="stroke:#A80036;stroke-width:1.0;" width="10" x="1237.5" y="182.6641"/><rect fill="#FFFFFF" filter="url(#f1sygt3s8p8khw)" height="30" style="stroke:#A80036;stroke-width:1.0;" width="10" x="1237.5" y="502.0859"/><rect fill="#FFFFFF" filter="url(#f1sygt3s8p8khw)" height="30" style="stroke:#A80036;stroke-width:1.0;" width="10" x="1237.5" y="923.7656"/><rect fill="#FFFFFF" filter="url(#f1sygt3s8p8khw)" height="30.3516" style="stroke:#A80036;stroke-width:1.0;" width="10" x="1440.5" y="562.4375"/><rect fill="#FFFFFF" filter="url(#f1sygt3s8p8khw)" height="170.0547" style="stroke:#A80036;stroke-width:1.0;" width="10" x="1440.5" y="686.0078"/><rect fill="#FFFFFF" filter="url(#f1sygt3s8p8khw)" height="28" style="stroke:#A80036;stroke-width:1.0;" width="10" x="1445.5" y="754.7109"/><rect fill="#FFFFFF" filter="url(#f1sygt3s8p8khw)" height="28" style="stroke:#A80036;stroke-width:1.0;" width="10" x="1445.5" y="828.0625"/><rect fill="#FFFFFF" filter="url(#f1sygt3s8p8khw)" height="36.6094" style="stroke:#A80036;stroke-width:1.0;" width="10" x="1826.5" y="602.7891"/><rect fill="#FFFFFF" filter="url(#f1sygt3s8p8khw)" height="273.7578" style="stroke:#A80036;stroke-width:1.0;" width="10" x="2064" y="984.1172"/><rect fill="#FFFFFF" filter="url(#f1sygt3s8p8khw)" height="66.3516" style="stroke:#A80036;stroke-width:1.0;" width="10" x="2194" y="1014.4688"/><rect fill="#FFFFFF" filter="url(#f1sygt3s8p8khw)" height="28" style="stroke:#A80036;stroke-width:1.0;" width="10" x="2199" y="1052.8203"/><rect fill="#FFFFFF" filter="url(#f1sygt3s8p8khw)" height="139.7031" style="stroke:#A80036;stroke-width:1.0;" width="10" x="2303.5" y="1118.1719"/><rect fill="#FFFFFF" filter="url(#f1sygt3s8p8khw)" height="28" style="stroke:#A80036;stroke-width:1.0;" width="10" x="2308.5" y="1156.5234"/><rect fill="#FFFFFF" filter="url(#f1sygt3s8p8khw)" height="28" style="stroke:#A80036;stroke-width:1.0;" width="10" x="2308.5" y="1229.875"/><polygon fill="#A80036" points="552.5,117.9609,562.5,121.9609,552.5,125.9609,556.5,121.9609" style="stroke:#A80036;stroke-width:1.0;"/><line style="stroke:#A80036;stroke-width:1.0;" x1="54.5" x2="558.5" y1="121.9609" y2="121.9609"/><text fill="#000000" font-family="sans-serif" font-size="13" font-weight="bold" lengthAdjust="spacing" textLength="7" x="61.5" y="117.1045">1</text><text fill="#000000" font-family="sans-serif" font-size="13" lengthAdjust="spacing" textLength="191" x="72.5" y="117.1045">starts registiring a new employee</text><polygon fill="#A80036" points="959.5,148.3125,969.5,152.3125,959.5,156.3125,963.5,152.3125" style="stroke:#A80036;stroke-width:1.0;"/><line style="stroke:#A80036;stroke-width:1.0;" x1="574.5" x2="965.5" y1="152.3125" y2="152.3125"/><text fill="#000000" font-family="sans-serif" font-size="13" font-weight="bold" lengthAdjust="spacing" textLength="7" x="581.5" y="147.4561">2</text><text fill="#000000" font-family="sans-serif" font-size="13" lengthAdjust="spacing" textLength="131" x="592.5" y="147.4561">getEmployeeRoleList()</text><polygon fill="#A80036" points="1225.5,178.6641,1235.5,182.6641,1225.5,186.6641,1229.5,182.6641" style="stroke:#A80036;stroke-width:1.0;"/><line style="stroke:#A80036;stroke-width:1.0;" x1="971.5" x2="1231.5" y1="182.6641" y2="182.6641"/><text fill="#000000" font-family="sans-serif" font-size="13" font-weight="bold" lengthAdjust="spacing" textLength="7" x="978.5" y="177.8076">3</text><text fill="#000000" font-family="sans-serif" font-size="13" lengthAdjust="spacing" textLength="236" x="989.5" y="177.8076">employeeRoles = getEmployeeRoleList()</text><polygon fill="#A80036" points="65.5,239.0156,55.5,243.0156,65.5,247.0156,61.5,243.0156" style="stroke:#A80036;stroke-width:1.0;"/><line style="stroke:#A80036;stroke-width:1.0;stroke-dasharray:2.0,2.0;" x1="59.5" x2="568.5" y1="243.0156" y2="243.0156"/><text fill="#000000" font-family="sans-serif" font-size="13" font-weight="bold" lengthAdjust="spacing" textLength="7" x="71.5" y="238.1592">4</text><text fill="#000000" font-family="sans-serif" font-size="13" lengthAdjust="spacing" textLength="118" x="82.5" y="238.1592">asks to select a role</text><polygon fill="#A80036" points="552.5,269.3672,562.5,273.3672,552.5,277.3672,556.5,273.3672" style="stroke:#A80036;stroke-width:1.0;"/><line style="stroke:#A80036;stroke-width:1.0;" x1="54.5" x2="558.5" y1="273.3672" y2="273.3672"/><text fill="#000000" font-family="sans-serif" font-size="13" font-weight="bold" lengthAdjust="spacing" textLength="7" x="61.5" y="268.5107">5</text><text fill="#000000" font-family="sans-serif" font-size="13" lengthAdjust="spacing" textLength="78" x="72.5" y="268.5107">selects a role</text><polygon fill="#A80036" points="65.5,299.7188,55.5,303.7188,65.5,307.7188,61.5,303.7188" style="stroke:#A80036;stroke-width:1.0;"/><line style="stroke:#A80036;stroke-width:1.0;stroke-dasharray:2.0,2.0;" x1="59.5" x2="568.5" y1="303.7188" y2="303.7188"/><text fill="#000000" font-family="sans-serif" font-size="13" font-weight="bold" lengthAdjust="spacing" textLength="7" x="71.5" y="298.8623">6</text><text fill="#000000" font-family="sans-serif" font-size="13" lengthAdjust="spacing" textLength="186" x="82.5" y="298.8623">requests employee's information</text><polygon fill="#A80036" points="552.5,330.0703,562.5,334.0703,552.5,338.0703,556.5,334.0703" style="stroke:#A80036;stroke-width:1.0;"/><line style="stroke:#A80036;stroke-width:1.0;" x1="54.5" x2="558.5" y1="334.0703" y2="334.0703"/><text fill="#000000" font-family="sans-serif" font-size="13" font-weight="bold" lengthAdjust="spacing" textLength="7" x="61.5" y="329.2139">7</text><text fill="#000000" font-family="sans-serif" font-size="13" lengthAdjust="spacing" textLength="168" x="72.5" y="329.2139">types employee's information</text><polygon fill="#A80036" points="1281.5,360.4219,1291.5,364.4219,1281.5,368.4219,1285.5,364.4219" style="stroke:#A80036;stroke-width:1.0;"/><line style="stroke:#A80036;stroke-width:1.0;" x1="574.5" x2="1287.5" y1="364.4219" y2="364.4219"/><text fill="#000000" font-family="sans-serif" font-size="13" font-weight="bold" lengthAdjust="spacing" textLength="7" x="581.5" y="359.5654">8</text><text fill="#000000" font-family="sans-serif" font-size="13" lengthAdjust="spacing" textLength="75" x="592.5" y="359.5654">pwd = create</text><rect fill="#FEFECE" filter="url(#f1sygt3s8p8khw)" height="31.6094" style="stroke:#A80036;stroke-width:1.5;" width="79" x="1293.5" y="342.0703"/><text fill="#000000" font-family="sans-serif" font-size="14" lengthAdjust="spacing" textLength="65" x="1300.5" y="363.6035">:Password</text><polygon fill="#A80036" points="65.5,407.0313,55.5,411.0313,65.5,415.0313,61.5,411.0313" style="stroke:#A80036;stroke-width:1.0;"/><line style="stroke:#A80036;stroke-width:1.0;stroke-dasharray:2.0,2.0;" x1="59.5" x2="568.5" y1="411.0313" y2="411.0313"/><text fill="#000000" font-family="sans-serif" font-size="13" font-weight="bold" lengthAdjust="spacing" textLength="7" x="71.5" y="406.1748">9</text><text fill="#000000" font-family="sans-serif" font-size="13" lengthAdjust="spacing" textLength="475" x="82.5" y="406.1748">shows employee's information (including new password) and requests confirmation</text><polygon fill="#A80036" points="552.5,437.3828,562.5,441.3828,552.5,445.3828,556.5,441.3828" style="stroke:#A80036;stroke-width:1.0;"/><line style="stroke:#A80036;stroke-width:1.0;" x1="54.5" x2="558.5" y1="441.3828" y2="441.3828"/><text fill="#000000" font-family="sans-serif" font-size="13" font-weight="bold" lengthAdjust="spacing" textLength="14" x="61.5" y="436.5264">10</text><text fill="#000000" font-family="sans-serif" font-size="13" lengthAdjust="spacing" textLength="100" x="79.5" y="436.5264">confirms the data</text><polygon fill="#A80036" points="954.5,467.7344,964.5,471.7344,954.5,475.7344,958.5,471.7344" style="stroke:#A80036;stroke-width:1.0;"/><line style="stroke:#A80036;stroke-width:1.0;" x1="574.5" x2="960.5" y1="471.7344" y2="471.7344"/><text fill="#000000" font-family="sans-serif" font-size="13" font-weight="bold" lengthAdjust="spacing" textLength="14" x="581.5" y="466.8779">11</text><text fill="#000000" font-family="sans-serif" font-size="13" lengthAdjust="spacing" textLength="355" x="599.5" y="466.8779">createEmployee(address, name, phoneNumber, id, email, cc)</text><polygon fill="#A80036" points="1225.5,498.0859,1235.5,502.0859,1225.5,506.0859,1229.5,502.0859" style="stroke:#A80036;stroke-width:1.0;"/><line style="stroke:#A80036;stroke-width:1.0;" x1="976.5" x2="1231.5" y1="502.0859" y2="502.0859"/><text fill="#000000" font-family="sans-serif" font-size="13" font-weight="bold" lengthAdjust="spacing" textLength="14" x="983.5" y="497.2295">12</text><text fill="#000000" font-family="sans-serif" font-size="13" lengthAdjust="spacing" textLength="218" x="1001.5" y="497.2295">employeeStore = getEmployeeStore()</text><polygon fill="#A80036" points="1428.5,558.4375,1438.5,562.4375,1428.5,566.4375,1432.5,562.4375" style="stroke:#A80036;stroke-width:1.0;"/><line style="stroke:#A80036;stroke-width:1.0;" x1="976.5" x2="1434.5" y1="562.4375" y2="562.4375"/><text fill="#000000" font-family="sans-serif" font-size="13" font-weight="bold" lengthAdjust="spacing" textLength="14" x="983.5" y="557.5811">13</text><text fill="#000000" font-family="sans-serif" font-size="13" lengthAdjust="spacing" textLength="427" x="1001.5" y="557.5811">employee = createEmployee(address, name, phoneNumber, id, email, cc)</text><polygon fill="#A80036" points="1777.5,588.7891,1787.5,592.7891,1777.5,596.7891,1781.5,592.7891" style="stroke:#A80036;stroke-width:1.0;"/><line style="stroke:#A80036;stroke-width:1.0;stroke-dasharray:2.0,2.0;" x1="1445.5" x2="1783.5" y1="592.7891" y2="592.7891"/><text fill="#000000" font-family="sans-serif" font-size="13" font-weight="bold" lengthAdjust="spacing" textLength="14" x="1452.5" y="587.9326">14</text><text fill="#000000" font-family="sans-serif" font-size="13" lengthAdjust="spacing" textLength="297" x="1470.5" y="587.9326">create(address, name, phoneNumber, id, email, cc)</text><rect fill="#FEFECE" filter="url(#f1sygt3s8p8khw)" height="31.6094" style="stroke:#A80036;stroke-width:1.5;" width="80" x="1789.5" y="570.4375"/><text fill="#000000" font-family="sans-serif" font-size="14" lengthAdjust="spacing" textLength="66" x="1796.5" y="591.9707">:Employee</text><polygon fill="#A80036" points="1941.5,635.3984,1951.5,639.3984,1941.5,643.3984,1945.5,639.3984" style="stroke:#A80036;stroke-width:1.0;"/><line style="stroke:#A80036;stroke-width:1.0;stroke-dasharray:2.0,2.0;" x1="1831.5" x2="1947.5" y1="639.3984" y2="639.3984"/><text fill="#000000" font-family="sans-serif" font-size="13" font-weight="bold" lengthAdjust="spacing" textLength="14" x="1838.5" y="634.542">15</text><text fill="#000000" font-family="sans-serif" font-size="13" lengthAdjust="spacing" textLength="75" x="1856.5" y="634.542">create(email)</text><rect fill="#FEFECE" filter="url(#f1sygt3s8p8khw)" height="31.6094" style="stroke:#A80036;stroke-width:1.5;" width="52" x="1953.5" y="617.0469"/><text fill="#000000" font-family="sans-serif" font-size="14" lengthAdjust="spacing" textLength="38" x="1960.5" y="638.5801">:Email</text><polygon fill="#A80036" points="1428.5,682.0078,1438.5,686.0078,1428.5,690.0078,1432.5,686.0078" style="stroke:#A80036;stroke-width:1.0;"/><line style="stroke:#A80036;stroke-width:1.0;" x1="976.5" x2="1434.5" y1="686.0078" y2="686.0078"/><text fill="#000000" font-family="sans-serif" font-size="13" font-weight="bold" lengthAdjust="spacing" textLength="14" x="983.5" y="681.1514">16</text><text fill="#000000" font-family="sans-serif" font-size="13" lengthAdjust="spacing" textLength="165" x="1001.5" y="681.1514">validateEmployee(employee)</text><polygon fill="#A80036" points="1428.5,712.3594,1438.5,716.3594,1428.5,720.3594,1432.5,716.3594" style="stroke:#A80036;stroke-width:1.0;"/><line style="stroke:#A80036;stroke-width:1.0;" x1="971.5" x2="1434.5" y1="716.3594" y2="716.3594"/><text fill="#000000" font-family="sans-serif" font-size="13" font-weight="bold" lengthAdjust="spacing" textLength="14" x="978.5" y="711.5029">17</text><text fill="#000000" font-family="sans-serif" font-size="13" lengthAdjust="spacing" textLength="148" x="996.5" y="711.5029">saveEmployee(employee)</text><line style="stroke:#A80036;stroke-width:1.0;" x1="1455.5" x2="1497.5" y1="746.7109" y2="746.7109"/><line style="stroke:#A80036;stroke-width:1.0;" x1="1497.5" x2="1497.5" y1="746.7109" y2="759.7109"/><line style="stroke:#A80036;stroke-width:1.0;" x1="1456.5" x2="1497.5" y1="759.7109" y2="759.7109"/><polygon fill="#A80036" points="1466.5,755.7109,1456.5,759.7109,1466.5,763.7109,1462.5,759.7109" style="stroke:#A80036;stroke-width:1.0;"/><text fill="#000000" font-family="sans-serif" font-size="13" font-weight="bold" lengthAdjust="spacing" textLength="14" x="1462.5" y="741.8545">18</text><text fill="#000000" font-family="sans-serif" font-size="13" lengthAdjust="spacing" textLength="157" x="1480.5" y="741.8545">employeeExists(employee)</text><line style="stroke:#A80036;stroke-width:1.0;" x1="1455.5" x2="1497.5" y1="820.0625" y2="820.0625"/><line style="stroke:#A80036;stroke-width:1.0;" x1="1497.5" x2="1497.5" y1="820.0625" y2="833.0625"/><line style="stroke:#A80036;stroke-width:1.0;" x1="1456.5" x2="1497.5" y1="833.0625" y2="833.0625"/><polygon fill="#A80036" points="1466.5,829.0625,1456.5,833.0625,1466.5,837.0625,1462.5,833.0625" style="stroke:#A80036;stroke-width:1.0;"/><text fill="#000000" font-family="sans-serif" font-size="13" font-weight="bold" lengthAdjust="spacing" textLength="14" x="1462.5" y="815.2061">19</text><text fill="#000000" font-family="sans-serif" font-size="13" lengthAdjust="spacing" textLength="143" x="1480.5" y="815.2061">addEmployee(employee)</text><polygon fill="#A80036" points="954.5,889.4141,964.5,893.4141,954.5,897.4141,958.5,893.4141" style="stroke:#A80036;stroke-width:1.0;"/><line style="stroke:#A80036;stroke-width:1.0;" x1="574.5" x2="960.5" y1="893.4141" y2="893.4141"/><text fill="#000000" font-family="sans-serif" font-size="13" font-weight="bold" lengthAdjust="spacing" textLength="14" x="581.5" y="888.5576">20</text><text fill="#000000" font-family="sans-serif" font-size="13" lengthAdjust="spacing" textLength="250" x="599.5" y="888.5576">addUserWithRole(name, email, roleId, pwd)</text><polygon fill="#A80036" points="1225.5,919.7656,1235.5,923.7656,1225.5,927.7656,1229.5,923.7656" style="stroke:#A80036;stroke-width:1.0;"/><line style="stroke:#A80036;stroke-width:1.0;" x1="976.5" x2="1231.5" y1="923.7656" y2="923.7656"/><text fill="#000000" font-family="sans-serif" font-size="13" font-weight="bold" lengthAdjust="spacing" textLength="14" x="983.5" y="918.9092">21</text><text fill="#000000" font-family="sans-serif" font-size="13" lengthAdjust="spacing" textLength="137" x="1001.5" y="918.9092">auth = getAuthFacade()</text><polygon fill="#A80036" points="2052,980.1172,2062,984.1172,2052,988.1172,2056,984.1172" style="stroke:#A80036;stroke-width:1.0;"/><line style="stroke:#A80036;stroke-width:1.0;" x1="976.5" x2="2058" y1="984.1172" y2="984.1172"/><text fill="#000000" font-family="sans-serif" font-size="13" font-weight="bold" lengthAdjust="spacing" textLength="14" x="983.5" y="979.2607">22</text><text fill="#000000" font-family="sans-serif" font-size="13" lengthAdjust="spacing" textLength="250" x="1001.5" y="979.2607">addUserWithRole(name, email, roleId, pwd)</text><polygon fill="#A80036" points="2182,1010.4688,2192,1014.4688,2182,1018.4688,2186,1014.4688" style="stroke:#A80036;stroke-width:1.0;"/><line style="stroke:#A80036;stroke-width:1.0;" x1="2074" x2="2188" y1="1014.4688" y2="1014.4688"/><text fill="#000000" font-family="sans-serif" font-size="13" font-weight="bold" lengthAdjust="spacing" textLength="14" x="2081" y="1009.6123">23</text><text fill="#000000" font-family="sans-serif" font-size="13" lengthAdjust="spacing" textLength="83" x="2099" y="1009.6123">getById(roleId)</text><line style="stroke:#A80036;stroke-width:1.0;" x1="2209" x2="2251" y1="1044.8203" y2="1044.8203"/><line style="stroke:#A80036;stroke-width:1.0;" x1="2251" x2="2251" y1="1044.8203" y2="1057.8203"/><line style="stroke:#A80036;stroke-width:1.0;" x1="2210" x2="2251" y1="1057.8203" y2="1057.8203"/><polygon fill="#A80036" points="2220,1053.8203,2210,1057.8203,2220,1061.8203,2216,1057.8203" style="stroke:#A80036;stroke-width:1.0;"/><text fill="#000000" font-family="sans-serif" font-size="13" font-weight="bold" lengthAdjust="spacing" textLength="14" x="2216" y="1039.9639">24</text><text fill="#000000" font-family="sans-serif" font-size="13" lengthAdjust="spacing" textLength="60" x="2234" y="1039.9639">add(roleId)</text><polygon fill="#A80036" points="2291.5,1114.1719,2301.5,1118.1719,2291.5,1122.1719,2295.5,1118.1719" style="stroke:#A80036;stroke-width:1.0;"/><line style="stroke:#A80036;stroke-width:1.0;" x1="2074" x2="2297.5" y1="1118.1719" y2="1118.1719"/><text fill="#000000" font-family="sans-serif" font-size="13" font-weight="bold" lengthAdjust="spacing" textLength="14" x="2081" y="1113.3154">25</text><text fill="#000000" font-family="sans-serif" font-size="13" lengthAdjust="spacing" textLength="187" x="2099" y="1113.3154">user = create(name, email, pwd)</text><line style="stroke:#A80036;stroke-width:1.0;" x1="2318.5" x2="2360.5" y1="1148.5234" y2="1148.5234"/><line style="stroke:#A80036;stroke-width:1.0;" x1="2360.5" x2="2360.5" y1="1148.5234" y2="1161.5234"/><line style="stroke:#A80036;stroke-width:1.0;" x1="2319.5" x2="2360.5" y1="1161.5234" y2="1161.5234"/><polygon fill="#A80036" points="2329.5,1157.5234,2319.5,1161.5234,2329.5,1165.5234,2325.5,1161.5234" style="stroke:#A80036;stroke-width:1.0;"/><text fill="#000000" font-family="sans-serif" font-size="13" font-weight="bold" lengthAdjust="spacing" textLength="14" x="2325.5" y="1143.667">26</text><text fill="#000000" font-family="sans-serif" font-size="13" lengthAdjust="spacing" textLength="68" x="2343.5" y="1143.667">exists(user)</text><line style="stroke:#A80036;stroke-width:1.0;" x1="2318.5" x2="2360.5" y1="1221.875" y2="1221.875"/><line style="stroke:#A80036;stroke-width:1.0;" x1="2360.5" x2="2360.5" y1="1221.875" y2="1234.875"/><line style="stroke:#A80036;stroke-width:1.0;" x1="2319.5" x2="2360.5" y1="1234.875" y2="1234.875"/><polygon fill="#A80036" points="2329.5,1230.875,2319.5,1234.875,2329.5,1238.875,2325.5,1234.875" style="stroke:#A80036;stroke-width:1.0;"/><text fill="#000000" font-family="sans-serif" font-size="13" font-weight="bold" lengthAdjust="spacing" textLength="14" x="2325.5" y="1217.0186">27</text><text fill="#000000" font-family="sans-serif" font-size="13" lengthAdjust="spacing" textLength="54" x="2343.5" y="1217.0186">add(user)</text><polygon fill="#A80036" points="60.5,1291.2266,50.5,1295.2266,60.5,1299.2266,56.5,1295.2266" style="stroke:#A80036;stroke-width:1.0;"/><line style="stroke:#A80036;stroke-width:1.0;stroke-dasharray:2.0,2.0;" x1="54.5" x2="568.5" y1="1295.2266" y2="1295.2266"/><text fill="#000000" font-family="sans-serif" font-size="13" font-weight="bold" lengthAdjust="spacing" textLength="14" x="66.5" y="1290.3701">28</text><text fill="#000000" font-family="sans-serif" font-size="13" lengthAdjust="spacing" textLength="351" x="84.5" y="1290.3701">confirms that the employee has been registered successfully</text><!--MD5=[237b799155b55ba2726c618ba981762f]
@startuml
autonumber
actor "Administrator" as ADM
participant ":EmployeeUI" as UI
participant ":EmployeeController" as ctrl
participant ":Company" as comp
participant ":Password" as pass
participant ":EmployeeStore" as store
participant ":Employee" as emp
participant ":Email" as mail
participant ":AuthFacade" as auth
participant ":UserRoleStore" as roles
participant ":UserStore" as users
activate ADM
ADM -> UI : starts registiring a new employee
activate UI
UI -> ctrl : getEmployeeRoleList()
ctrl -> comp : employeeRoles = getEmployeeRoleList()
activate comp
deactivate comp
UI - -> ADM : asks to select a role
deactivate UI
ADM -> UI : selects a role
activate UI
UI - -> ADM : requests employee's information
deactivate UI
ADM -> UI : types employee's information
activate UI
UI -> pass** : pwd = create
UI - -> ADM : shows employee's information (including new password) and requests confirmation
deactivate UI
ADM -> UI :confirms the data
activate UI
UI -> ctrl : createEmployee(address, name, phoneNumber, id, email, cc)
activate ctrl
ctrl -> comp : employeeStore = getEmployeeStore()
activate comp
deactivate comp
ctrl -> store : employee = createEmployee(address, name, phoneNumber, id, email, cc)
activate store
store - -> emp** : create(address, name, phoneNumber, id, email, cc)
deactivate store
activate emp
emp - ->mail** : create(email)
deactivate emp
ctrl -> store : validateEmployee(employee)
activate store
ctrl -> store : saveEmployee(employee)
deactivate ctrl
store -> store : employeeExists(employee)
activate store
deactivate store
store -> store : addEmployee(employee)
activate store
deactivate store
deactivate store
UI -> ctrl : addUserWithRole(name, email, roleId, pwd)
activate ctrl
ctrl -> comp : auth = getAuthFacade()
activate comp
deactivate comp
ctrl -> auth : addUserWithRole(name, email, roleId, pwd)
activate auth
auth -> roles : getById(roleId)
activate roles
roles -> roles : add(roleId)
activate roles
deactivate roles
deactivate roles
auth -> users : user = create(name, email, pwd)
activate users
users -> users : exists(user)
activate users
deactivate users
users -> users : add(user)
activate users
deactivate users
deactivate users
deactivate auth
deactivate ctrl
UI - -> ADM : confirms that the employee has been registered successfully
deactivate UI
deactivate ADM


@enduml

PlantUML version 1.2022.1(Tue Feb 01 18:19:58 GMT 2022)
(GPL source distribution)
Java Runtime: OpenJDK Runtime Environment
JVM: OpenJDK 64-Bit Server VM
Default Encoding: Cp1252
Language: en
Country: US
--></g></svg>