<?xml version="1.0" encoding="UTF-8" standalone="no"?><svg xmlns="http://www.w3.org/2000/svg" xmlns:xlink="http://www.w3.org/1999/xlink" contentScriptType="application/ecmascript" contentStyleType="text/css" height="1025px" preserveAspectRatio="none" style="width:690px;height:1025px;background:#FFFFFF;" version="1.1" viewBox="0 0 690 1025" width="690px" zoomAndPan="magnify"><defs><filter height="300%" id="f1qte41dridw76" width="300%" x="-1" y="-1"><feGaussianBlur result="blurOut" stdDeviation="2.0"/><feColorMatrix in="blurOut" result="blurOut2" type="matrix" values="0 0 0 0 0 0 0 0 0 0 0 0 0 0 0 0 0 0 .4 0"/><feOffset dx="4.0" dy="4.0" in="blurOut2" result="blurOut3"/><feBlend in="SourceGraphic" in2="blurOut3" mode="normal"/></filter></defs><g><!--MD5=[8969e8ed42d9c765032cea6283c2ef26]
class EmployeeUI--><rect codeLine="22" fill="#FEFECE" filter="url(#f1qte41dridw76)" height="89.5078" id="EmployeeUI" style="stroke:#A80036;stroke-width:1.5;" width="384" x="15" y="7"/><ellipse cx="169.25" cy="23" fill="#ADD1B2" rx="11" ry="11" style="stroke:#A80036;stroke-width:1.0;"/><path d="M171.25,19.5 Q171.4531,19 171.6875,18.75 Q171.9219,18.5 172.1875,18.5 Q172.6563,18.5 172.9531,18.7813 Q173.25,19.0625 173.25,19.7188 L173.25,21.2813 Q173.25,21.9375 172.9688,22.2188 Q172.6875,22.5 172.25,22.5 Q171.8594,22.5 171.6094,22.3281 Q171.3594,22.1563 171.25,21.7031 Q171.2031,21.3906 171.0313,21.2188 Q170.7188,20.8906 170.1563,20.7031 Q169.5938,20.5 169.0313,20.5 Q168.3281,20.5 167.7344,20.7813 Q167.1563,21.0625 166.7031,21.6875 Q166.25,22.3125 166.25,23.1719 L166.25,24.0938 Q166.25,25.125 167.0938,25.8125 Q167.9375,26.5 169.4375,26.5 Q170.3281,26.5 170.9531,26.2969 Q171.3125,26.1875 171.7188,25.8281 Q171.9844,25.625 172.125,25.5625 Q172.2656,25.5 172.4375,25.5 Q172.7656,25.5 173,25.7656 Q173.25,26.0156 173.25,26.375 Q173.25,26.7188 172.9063,27.125 Q172.4063,27.7188 171.6094,28.0469 Q170.5625,28.5 169.2813,28.5 Q167.7813,28.5 166.5781,27.9063 Q165.6094,27.4375 164.9219,26.4219 Q164.25,25.4063 164.25,24.2031 L164.25,23.1094 Q164.25,21.8594 164.8438,20.7656 Q165.4531,19.6719 166.5,19.0938 Q167.5625,18.5 168.75,18.5 Q169.4688,18.5 170.0938,18.75 Q170.7188,19 171.25,19.5 Z " fill="#000000"/><text fill="#000000" font-family="sans-serif" font-size="12" lengthAdjust="spacing" textLength="67" x="189.75" y="27.9102">EmployeeUI</text><line style="stroke:#A80036;stroke-width:1.5;" x1="16" x2="398" y1="39" y2="39"/><line style="stroke:#A80036;stroke-width:1.5;" x1="16" x2="398" y1="47" y2="47"/><ellipse cx="26" cy="58" fill="#84BE84" rx="3" ry="3" style="stroke:#038048;stroke-width:1.0;"/><text fill="#000000" font-family="sans-serif" font-size="11" lengthAdjust="spacing" textLength="71" x="35" y="62.4189">employeeExit()</text><ellipse cx="26" cy="71.8359" fill="#84BE84" rx="3" ry="3" style="stroke:#038048;stroke-width:1.0;"/><text fill="#000000" font-family="sans-serif" font-size="11" lengthAdjust="spacing" textLength="108" x="35" y="76.2549">isInfoCorrectlyTyped()</text><ellipse cx="26" cy="85.6719" fill="#84BE84" rx="3" ry="3" style="stroke:#038048;stroke-width:1.0;"/><text fill="#000000" font-family="sans-serif" font-size="11" lengthAdjust="spacing" textLength="358" x="35" y="90.0908">registerEmployee(address, name, phoneNumber, id, email, cc, pwd, roleId)</text><!--MD5=[e3298d6dd127d371f1a68ca8fbd2682f]
class EmployeeController--><rect codeLine="28" fill="#FEFECE" filter="url(#f1qte41dridw76)" height="89.5078" id="EmployeeController" style="stroke:#A80036;stroke-width:1.5;" width="318" x="48" y="158"/><ellipse cx="148.25" cy="174" fill="#ADD1B2" rx="11" ry="11" style="stroke:#A80036;stroke-width:1.0;"/><path d="M150.25,170.5 Q150.4531,170 150.6875,169.75 Q150.9219,169.5 151.1875,169.5 Q151.6563,169.5 151.9531,169.7813 Q152.25,170.0625 152.25,170.7188 L152.25,172.2813 Q152.25,172.9375 151.9688,173.2188 Q151.6875,173.5 151.25,173.5 Q150.8594,173.5 150.6094,173.3281 Q150.3594,173.1563 150.25,172.7031 Q150.2031,172.3906 150.0313,172.2188 Q149.7188,171.8906 149.1563,171.7031 Q148.5938,171.5 148.0313,171.5 Q147.3281,171.5 146.7344,171.7813 Q146.1563,172.0625 145.7031,172.6875 Q145.25,173.3125 145.25,174.1719 L145.25,175.0938 Q145.25,176.125 146.0938,176.8125 Q146.9375,177.5 148.4375,177.5 Q149.3281,177.5 149.9531,177.2969 Q150.3125,177.1875 150.7188,176.8281 Q150.9844,176.625 151.125,176.5625 Q151.2656,176.5 151.4375,176.5 Q151.7656,176.5 152,176.7656 Q152.25,177.0156 152.25,177.375 Q152.25,177.7188 151.9063,178.125 Q151.4063,178.7188 150.6094,179.0469 Q149.5625,179.5 148.2813,179.5 Q146.7813,179.5 145.5781,178.9063 Q144.6094,178.4375 143.9219,177.4219 Q143.25,176.4063 143.25,175.2031 L143.25,174.1094 Q143.25,172.8594 143.8438,171.7656 Q144.4531,170.6719 145.5,170.0938 Q146.5625,169.5 147.75,169.5 Q148.4688,169.5 149.0938,169.75 Q149.7188,170 150.25,170.5 Z " fill="#000000"/><text fill="#000000" font-family="sans-serif" font-size="12" lengthAdjust="spacing" textLength="109" x="168.75" y="178.9102">EmployeeController</text><line style="stroke:#A80036;stroke-width:1.5;" x1="49" x2="365" y1="190" y2="190"/><line style="stroke:#A80036;stroke-width:1.5;" x1="49" x2="365" y1="198" y2="198"/><ellipse cx="59" cy="209" fill="#84BE84" rx="3" ry="3" style="stroke:#038048;stroke-width:1.0;"/><text fill="#000000" font-family="sans-serif" font-size="11" lengthAdjust="spacing" textLength="107" x="68" y="213.4189">getEmployeeRoleList()</text><ellipse cx="59" cy="222.8359" fill="#84BE84" rx="3" ry="3" style="stroke:#038048;stroke-width:1.0;"/><text fill="#000000" font-family="sans-serif" font-size="11" lengthAdjust="spacing" textLength="292" x="68" y="227.2549">createEmployee(address, name, phoneNumber, id, email, cc)</text><ellipse cx="59" cy="236.6719" fill="#84BE84" rx="3" ry="3" style="stroke:#038048;stroke-width:1.0;"/><text fill="#000000" font-family="sans-serif" font-size="11" lengthAdjust="spacing" textLength="207" x="68" y="241.0908">addUserWithRole(name, email, pwd, roleId)</text><!--MD5=[02e4b9b7573f1156f41e60aa5b4e25a4]
class Company--><rect codeLine="34" fill="#FEFECE" filter="url(#f1qte41dridw76)" height="117.1797" id="Company" style="stroke:#A80036;stroke-width:1.5;" width="133" x="140.5" y="326"/><ellipse cx="177.1" cy="342" fill="#ADD1B2" rx="11" ry="11" style="stroke:#A80036;stroke-width:1.0;"/><path d="M179.1,338.5 Q179.3031,338 179.5375,337.75 Q179.7719,337.5 180.0375,337.5 Q180.5063,337.5 180.8031,337.7813 Q181.1,338.0625 181.1,338.7188 L181.1,340.2813 Q181.1,340.9375 180.8188,341.2188 Q180.5375,341.5 180.1,341.5 Q179.7094,341.5 179.4594,341.3281 Q179.2094,341.1563 179.1,340.7031 Q179.0531,340.3906 178.8813,340.2188 Q178.5688,339.8906 178.0063,339.7031 Q177.4438,339.5 176.8813,339.5 Q176.1781,339.5 175.5844,339.7813 Q175.0063,340.0625 174.5531,340.6875 Q174.1,341.3125 174.1,342.1719 L174.1,343.0938 Q174.1,344.125 174.9438,344.8125 Q175.7875,345.5 177.2875,345.5 Q178.1781,345.5 178.8031,345.2969 Q179.1625,345.1875 179.5688,344.8281 Q179.8344,344.625 179.975,344.5625 Q180.1156,344.5 180.2875,344.5 Q180.6156,344.5 180.85,344.7656 Q181.1,345.0156 181.1,345.375 Q181.1,345.7188 180.7563,346.125 Q180.2563,346.7188 179.4594,347.0469 Q178.4125,347.5 177.1313,347.5 Q175.6313,347.5 174.4281,346.9063 Q173.4594,346.4375 172.7719,345.4219 Q172.1,344.4063 172.1,343.2031 L172.1,342.1094 Q172.1,340.8594 172.6938,339.7656 Q173.3031,338.6719 174.35,338.0938 Q175.4125,337.5 176.6,337.5 Q177.3188,337.5 177.9438,337.75 Q178.5688,338 179.1,338.5 Z " fill="#000000"/><text fill="#000000" font-family="sans-serif" font-size="12" lengthAdjust="spacing" textLength="53" x="195.9" y="346.9102">Company</text><line style="stroke:#A80036;stroke-width:1.5;" x1="141.5" x2="272.5" y1="358" y2="358"/><rect fill="none" height="6" style="stroke:#C82930;stroke-width:1.0;" width="6" x="148.5" y="366"/><text fill="#000000" font-family="sans-serif" font-size="11" lengthAdjust="spacing" textLength="55" x="160.5" y="373.4189">designation</text><rect fill="none" height="6" style="stroke:#C82930;stroke-width:1.0;" width="6" x="148.5" y="379.8359"/><text fill="#000000" font-family="sans-serif" font-size="11" lengthAdjust="spacing" textLength="55" x="160.5" y="387.2549">authfacade</text><line style="stroke:#A80036;stroke-width:1.5;" x1="141.5" x2="272.5" y1="393.6719" y2="393.6719"/><ellipse cx="151.5" cy="404.6719" fill="#84BE84" rx="3" ry="3" style="stroke:#038048;stroke-width:1.0;"/><text fill="#000000" font-family="sans-serif" font-size="11" lengthAdjust="spacing" textLength="107" x="160.5" y="409.0908">getEmployeeRoleList()</text><ellipse cx="151.5" cy="418.5078" fill="#84BE84" rx="3" ry="3" style="stroke:#038048;stroke-width:1.0;"/><text fill="#000000" font-family="sans-serif" font-size="11" lengthAdjust="spacing" textLength="95" x="160.5" y="422.9268">getEmployeeStore()</text><ellipse cx="151.5" cy="432.3438" fill="#84BE84" rx="3" ry="3" style="stroke:#038048;stroke-width:1.0;"/><text fill="#000000" font-family="sans-serif" font-size="11" lengthAdjust="spacing" textLength="82" x="160.5" y="436.7627">getAuthFacade()</text><!--MD5=[829fb52c07ade3ad64ef85b99d1fca10]
class EmployeeStore--><rect codeLine="46" fill="#FEFECE" filter="url(#f1qte41dridw76)" height="117.1797" id="EmployeeStore" style="stroke:#A80036;stroke-width:1.5;" width="336" x="7" y="504"/><ellipse cx="128.75" cy="520" fill="#ADD1B2" rx="11" ry="11" style="stroke:#A80036;stroke-width:1.0;"/><path d="M130.75,516.5 Q130.9531,516 131.1875,515.75 Q131.4219,515.5 131.6875,515.5 Q132.1563,515.5 132.4531,515.7813 Q132.75,516.0625 132.75,516.7188 L132.75,518.2813 Q132.75,518.9375 132.4688,519.2188 Q132.1875,519.5 131.75,519.5 Q131.3594,519.5 131.1094,519.3281 Q130.8594,519.1563 130.75,518.7031 Q130.7031,518.3906 130.5313,518.2188 Q130.2188,517.8906 129.6563,517.7031 Q129.0938,517.5 128.5313,517.5 Q127.8281,517.5 127.2344,517.7813 Q126.6563,518.0625 126.2031,518.6875 Q125.75,519.3125 125.75,520.1719 L125.75,521.0938 Q125.75,522.125 126.5938,522.8125 Q127.4375,523.5 128.9375,523.5 Q129.8281,523.5 130.4531,523.2969 Q130.8125,523.1875 131.2188,522.8281 Q131.4844,522.625 131.625,522.5625 Q131.7656,522.5 131.9375,522.5 Q132.2656,522.5 132.5,522.7656 Q132.75,523.0156 132.75,523.375 Q132.75,523.7188 132.4063,524.125 Q131.9063,524.7188 131.1094,525.0469 Q130.0625,525.5 128.7813,525.5 Q127.2813,525.5 126.0781,524.9063 Q125.1094,524.4375 124.4219,523.4219 Q123.75,522.4063 123.75,521.2031 L123.75,520.1094 Q123.75,518.8594 124.3438,517.7656 Q124.9531,516.6719 126,516.0938 Q127.0625,515.5 128.25,515.5 Q128.9688,515.5 129.5938,515.75 Q130.2188,516 130.75,516.5 Z " fill="#000000"/><text fill="#000000" font-family="sans-serif" font-size="12" lengthAdjust="spacing" textLength="84" x="149.25" y="524.9102">EmployeeStore</text><line style="stroke:#A80036;stroke-width:1.5;" x1="8" x2="342" y1="536" y2="536"/><line style="stroke:#A80036;stroke-width:1.5;" x1="8" x2="342" y1="544" y2="544"/><ellipse cx="18" cy="555" fill="#84BE84" rx="3" ry="3" style="stroke:#038048;stroke-width:1.0;"/><text fill="#000000" font-family="sans-serif" font-size="11" lengthAdjust="spacing" textLength="310" x="27" y="559.4189">createEmployee(address, name, phoneNumber, roleId, email, cc)</text><ellipse cx="18" cy="568.8359" fill="#84BE84" rx="3" ry="3" style="stroke:#038048;stroke-width:1.0;"/><text fill="#000000" font-family="sans-serif" font-size="11" lengthAdjust="spacing" textLength="124" x="27" y="573.2549">saveEmployee(employee)</text><ellipse cx="18" cy="582.6719" fill="#84BE84" rx="3" ry="3" style="stroke:#038048;stroke-width:1.0;"/><text fill="#000000" font-family="sans-serif" font-size="11" lengthAdjust="spacing" textLength="137" x="27" y="587.0908">validateEmployee(employee)</text><ellipse cx="18" cy="596.5078" fill="#84BE84" rx="3" ry="3" style="stroke:#038048;stroke-width:1.0;"/><text fill="#000000" font-family="sans-serif" font-size="11" lengthAdjust="spacing" textLength="118" x="27" y="600.9268">addEmployee(employee)</text><ellipse cx="18" cy="610.3438" fill="#84BE84" rx="3" ry="3" style="stroke:#038048;stroke-width:1.0;"/><text fill="#000000" font-family="sans-serif" font-size="11" lengthAdjust="spacing" textLength="129" x="27" y="614.7627">employeeExists(employee)</text><!--MD5=[8ae808d068a8995f06b9b3ec51357f0b]
class AuthFacade--><rect codeLine="42" fill="#FEFECE" filter="url(#f1qte41dridw76)" height="61.8359" id="AuthFacade" style="stroke:#A80036;stroke-width:1.5;" width="233" x="318.5" y="353.5"/><ellipse cx="398.25" cy="369.5" fill="#ADD1B2" rx="11" ry="11" style="stroke:#A80036;stroke-width:1.0;"/><path d="M400.25,366 Q400.4531,365.5 400.6875,365.25 Q400.9219,365 401.1875,365 Q401.6563,365 401.9531,365.2813 Q402.25,365.5625 402.25,366.2188 L402.25,367.7813 Q402.25,368.4375 401.9688,368.7188 Q401.6875,369 401.25,369 Q400.8594,369 400.6094,368.8281 Q400.3594,368.6563 400.25,368.2031 Q400.2031,367.8906 400.0313,367.7188 Q399.7188,367.3906 399.1563,367.2031 Q398.5938,367 398.0313,367 Q397.3281,367 396.7344,367.2813 Q396.1563,367.5625 395.7031,368.1875 Q395.25,368.8125 395.25,369.6719 L395.25,370.5938 Q395.25,371.625 396.0938,372.3125 Q396.9375,373 398.4375,373 Q399.3281,373 399.9531,372.7969 Q400.3125,372.6875 400.7188,372.3281 Q400.9844,372.125 401.125,372.0625 Q401.2656,372 401.4375,372 Q401.7656,372 402,372.2656 Q402.25,372.5156 402.25,372.875 Q402.25,373.2188 401.9063,373.625 Q401.4063,374.2188 400.6094,374.5469 Q399.5625,375 398.2813,375 Q396.7813,375 395.5781,374.4063 Q394.6094,373.9375 393.9219,372.9219 Q393.25,371.9063 393.25,370.7031 L393.25,369.6094 Q393.25,368.3594 393.8438,367.2656 Q394.4531,366.1719 395.5,365.5938 Q396.5625,365 397.75,365 Q398.4688,365 399.0938,365.25 Q399.7188,365.5 400.25,366 Z " fill="#000000"/><text fill="#000000" font-family="sans-serif" font-size="12" lengthAdjust="spacing" textLength="65" x="418.75" y="374.4102">AuthFacade</text><line style="stroke:#A80036;stroke-width:1.5;" x1="319.5" x2="550.5" y1="385.5" y2="385.5"/><line style="stroke:#A80036;stroke-width:1.5;" x1="319.5" x2="550.5" y1="393.5" y2="393.5"/><ellipse cx="329.5" cy="404.5" fill="#84BE84" rx="3" ry="3" style="stroke:#038048;stroke-width:1.0;"/><text fill="#000000" font-family="sans-serif" font-size="11" lengthAdjust="spacing" textLength="207" x="338.5" y="408.9189">addUserWithRole(name, email, pwd, roleId)</text><!--MD5=[7421f545a0d8420c5bec41e74b387d9c]
class Employee--><rect codeLine="12" fill="#FEFECE" filter="url(#f1qte41dridw76)" height="144.8516" id="Employee" style="stroke:#A80036;stroke-width:1.5;" width="93" x="128.5" y="699"/><ellipse cx="146.2" cy="715" fill="#ADD1B2" rx="11" ry="11" style="stroke:#A80036;stroke-width:1.0;"/><path d="M148.2,711.5 Q148.4031,711 148.6375,710.75 Q148.8719,710.5 149.1375,710.5 Q149.6063,710.5 149.9031,710.7813 Q150.2,711.0625 150.2,711.7188 L150.2,713.2813 Q150.2,713.9375 149.9188,714.2188 Q149.6375,714.5 149.2,714.5 Q148.8094,714.5 148.5594,714.3281 Q148.3094,714.1563 148.2,713.7031 Q148.1531,713.3906 147.9813,713.2188 Q147.6688,712.8906 147.1063,712.7031 Q146.5438,712.5 145.9813,712.5 Q145.2781,712.5 144.6844,712.7813 Q144.1063,713.0625 143.6531,713.6875 Q143.2,714.3125 143.2,715.1719 L143.2,716.0938 Q143.2,717.125 144.0438,717.8125 Q144.8875,718.5 146.3875,718.5 Q147.2781,718.5 147.9031,718.2969 Q148.2625,718.1875 148.6688,717.8281 Q148.9344,717.625 149.075,717.5625 Q149.2156,717.5 149.3875,717.5 Q149.7156,717.5 149.95,717.7656 Q150.2,718.0156 150.2,718.375 Q150.2,718.7188 149.8563,719.125 Q149.3563,719.7188 148.5594,720.0469 Q147.5125,720.5 146.2313,720.5 Q144.7313,720.5 143.5281,719.9063 Q142.5594,719.4375 141.8719,718.4219 Q141.2,717.4063 141.2,716.2031 L141.2,715.1094 Q141.2,713.8594 141.7938,712.7656 Q142.4031,711.6719 143.45,711.0938 Q144.5125,710.5 145.7,710.5 Q146.4188,710.5 147.0438,710.75 Q147.6688,711 148.2,711.5 Z " fill="#000000"/><text fill="#000000" font-family="sans-serif" font-size="12" lengthAdjust="spacing" textLength="55" x="160.8" y="719.9102">Employee</text><line style="stroke:#A80036;stroke-width:1.5;" x1="129.5" x2="220.5" y1="731" y2="731"/><rect fill="none" height="6" style="stroke:#C82930;stroke-width:1.0;" width="6" x="136.5" y="739"/><text fill="#000000" font-family="sans-serif" font-size="11" lengthAdjust="spacing" textLength="26" x="148.5" y="746.4189">name</text><rect fill="none" height="6" style="stroke:#C82930;stroke-width:1.0;" width="6" x="136.5" y="752.8359"/><text fill="#000000" font-family="sans-serif" font-size="11" lengthAdjust="spacing" textLength="67" x="148.5" y="760.2549">phoneNumber</text><rect fill="none" height="6" style="stroke:#C82930;stroke-width:1.0;" width="6" x="136.5" y="766.6719"/><text fill="#000000" font-family="sans-serif" font-size="11" lengthAdjust="spacing" textLength="8" x="148.5" y="774.0908">id</text><rect fill="none" height="6" style="stroke:#C82930;stroke-width:1.0;" width="6" x="136.5" y="780.5078"/><text fill="#000000" font-family="sans-serif" font-size="11" lengthAdjust="spacing" textLength="24" x="148.5" y="787.9268">email</text><rect fill="none" height="6" style="stroke:#C82930;stroke-width:1.0;" width="6" x="136.5" y="794.3438"/><text fill="#000000" font-family="sans-serif" font-size="11" lengthAdjust="spacing" textLength="12" x="148.5" y="801.7627">cc</text><rect fill="none" height="6" style="stroke:#C82930;stroke-width:1.0;" width="6" x="136.5" y="808.1797"/><text fill="#000000" font-family="sans-serif" font-size="11" lengthAdjust="spacing" textLength="40" x="148.5" y="815.5986">address</text><line style="stroke:#A80036;stroke-width:1.5;" x1="129.5" x2="220.5" y1="822.0156" y2="822.0156"/><ellipse cx="139.5" cy="833.0156" fill="#84BE84" rx="3" ry="3" style="stroke:#038048;stroke-width:1.0;"/><text fill="#000000" font-family="sans-serif" font-size="11" lengthAdjust="spacing" textLength="45" x="148.5" y="837.4346">toString()</text><!--MD5=[78bec0fde86ad92ec1dc3fb343b83709]
class Email--><rect codeLine="54" fill="#FEFECE" filter="url(#f1qte41dridw76)" height="89.5078" id="Email" style="stroke:#A80036;stroke-width:1.5;" width="120" x="115" y="922"/><ellipse cx="155.2" cy="938" fill="#ADD1B2" rx="11" ry="11" style="stroke:#A80036;stroke-width:1.0;"/><path d="M157.2,934.5 Q157.4031,934 157.6375,933.75 Q157.8719,933.5 158.1375,933.5 Q158.6063,933.5 158.9031,933.7813 Q159.2,934.0625 159.2,934.7188 L159.2,936.2813 Q159.2,936.9375 158.9188,937.2188 Q158.6375,937.5 158.2,937.5 Q157.8094,937.5 157.5594,937.3281 Q157.3094,937.1563 157.2,936.7031 Q157.1531,936.3906 156.9813,936.2188 Q156.6688,935.8906 156.1063,935.7031 Q155.5438,935.5 154.9813,935.5 Q154.2781,935.5 153.6844,935.7813 Q153.1063,936.0625 152.6531,936.6875 Q152.2,937.3125 152.2,938.1719 L152.2,939.0938 Q152.2,940.125 153.0438,940.8125 Q153.8875,941.5 155.3875,941.5 Q156.2781,941.5 156.9031,941.2969 Q157.2625,941.1875 157.6688,940.8281 Q157.9344,940.625 158.075,940.5625 Q158.2156,940.5 158.3875,940.5 Q158.7156,940.5 158.95,940.7656 Q159.2,941.0156 159.2,941.375 Q159.2,941.7188 158.8563,942.125 Q158.3563,942.7188 157.5594,943.0469 Q156.5125,943.5 155.2313,943.5 Q153.7313,943.5 152.5281,942.9063 Q151.5594,942.4375 150.8719,941.4219 Q150.2,940.4063 150.2,939.2031 L150.2,938.1094 Q150.2,936.8594 150.7938,935.7656 Q151.4031,934.6719 152.45,934.0938 Q153.5125,933.5 154.7,933.5 Q155.4188,933.5 156.0438,933.75 Q156.6688,934 157.2,934.5 Z " fill="#000000"/><text fill="#000000" font-family="sans-serif" font-size="12" lengthAdjust="spacing" textLength="32" x="174.8" y="942.9102">Email</text><line style="stroke:#A80036;stroke-width:1.5;" x1="116" x2="234" y1="954" y2="954"/><rect fill="none" height="6" style="stroke:#C82930;stroke-width:1.0;" width="6" x="123" y="962"/><text fill="#000000" font-family="sans-serif" font-size="11" lengthAdjust="spacing" textLength="24" x="135" y="969.4189">email</text><line style="stroke:#A80036;stroke-width:1.5;" x1="116" x2="234" y1="975.8359" y2="975.8359"/><ellipse cx="126" cy="986.8359" fill="#84BE84" rx="3" ry="3" style="stroke:#038048;stroke-width:1.0;"/><text fill="#000000" font-family="sans-serif" font-size="11" lengthAdjust="spacing" textLength="69" x="135" y="991.2549">validate(email)</text><ellipse cx="126" cy="1000.6719" fill="#84BE84" rx="3" ry="3" style="stroke:#038048;stroke-width:1.0;"/><text fill="#000000" font-family="sans-serif" font-size="11" lengthAdjust="spacing" textLength="94" x="135" y="1005.0908">checkFormat(email)</text><!--MD5=[30bfa8bdec435c2c158ef188404e3a07]
class UserRoleStore--><rect codeLine="60" fill="#FEFECE" filter="url(#f1qte41dridw76)" height="75.6719" id="UserRoleStore" style="stroke:#A80036;stroke-width:1.5;" width="114" x="378" y="524.5"/><ellipse cx="393" cy="540.5" fill="#ADD1B2" rx="11" ry="11" style="stroke:#A80036;stroke-width:1.0;"/><path d="M395,537 Q395.2031,536.5 395.4375,536.25 Q395.6719,536 395.9375,536 Q396.4063,536 396.7031,536.2813 Q397,536.5625 397,537.2188 L397,538.7813 Q397,539.4375 396.7188,539.7188 Q396.4375,540 396,540 Q395.6094,540 395.3594,539.8281 Q395.1094,539.6563 395,539.2031 Q394.9531,538.8906 394.7813,538.7188 Q394.4688,538.3906 393.9063,538.2031 Q393.3438,538 392.7813,538 Q392.0781,538 391.4844,538.2813 Q390.9063,538.5625 390.4531,539.1875 Q390,539.8125 390,540.6719 L390,541.5938 Q390,542.625 390.8438,543.3125 Q391.6875,544 393.1875,544 Q394.0781,544 394.7031,543.7969 Q395.0625,543.6875 395.4688,543.3281 Q395.7344,543.125 395.875,543.0625 Q396.0156,543 396.1875,543 Q396.5156,543 396.75,543.2656 Q397,543.5156 397,543.875 Q397,544.2188 396.6563,544.625 Q396.1563,545.2188 395.3594,545.5469 Q394.3125,546 393.0313,546 Q391.5313,546 390.3281,545.4063 Q389.3594,544.9375 388.6719,543.9219 Q388,542.9063 388,541.7031 L388,540.6094 Q388,539.3594 388.5938,538.2656 Q389.2031,537.1719 390.25,536.5938 Q391.3125,536 392.5,536 Q393.2188,536 393.8438,536.25 Q394.4688,536.5 395,537 Z " fill="#000000"/><text fill="#000000" font-family="sans-serif" font-size="12" lengthAdjust="spacing" textLength="82" x="407" y="545.4102">UserRoleStore</text><line style="stroke:#A80036;stroke-width:1.5;" x1="379" x2="491" y1="556.5" y2="556.5"/><line style="stroke:#A80036;stroke-width:1.5;" x1="379" x2="491" y1="564.5" y2="564.5"/><ellipse cx="389" cy="575.5" fill="#84BE84" rx="3" ry="3" style="stroke:#038048;stroke-width:1.0;"/><text fill="#000000" font-family="sans-serif" font-size="11" lengthAdjust="spacing" textLength="70" x="398" y="579.9189">getById(roleId)</text><ellipse cx="389" cy="589.3359" fill="#84BE84" rx="3" ry="3" style="stroke:#038048;stroke-width:1.0;"/><text fill="#000000" font-family="sans-serif" font-size="11" lengthAdjust="spacing" textLength="26" x="398" y="593.7549">add()</text><!--MD5=[93af8b4494db78ec46e98fad8955a5aa]
class UserStore--><rect codeLine="65" fill="#FEFECE" filter="url(#f1qte41dridw76)" height="89.5078" id="UserStore" style="stroke:#A80036;stroke-width:1.5;" width="149" x="527.5" y="517.5"/><ellipse cx="569.95" cy="533.5" fill="#ADD1B2" rx="11" ry="11" style="stroke:#A80036;stroke-width:1.0;"/><path d="M571.95,530 Q572.1531,529.5 572.3875,529.25 Q572.6219,529 572.8875,529 Q573.3563,529 573.6531,529.2813 Q573.95,529.5625 573.95,530.2188 L573.95,531.7813 Q573.95,532.4375 573.6688,532.7188 Q573.3875,533 572.95,533 Q572.5594,533 572.3094,532.8281 Q572.0594,532.6563 571.95,532.2031 Q571.9031,531.8906 571.7313,531.7188 Q571.4188,531.3906 570.8563,531.2031 Q570.2938,531 569.7313,531 Q569.0281,531 568.4344,531.2813 Q567.8563,531.5625 567.4031,532.1875 Q566.95,532.8125 566.95,533.6719 L566.95,534.5938 Q566.95,535.625 567.7938,536.3125 Q568.6375,537 570.1375,537 Q571.0281,537 571.6531,536.7969 Q572.0125,536.6875 572.4188,536.3281 Q572.6844,536.125 572.825,536.0625 Q572.9656,536 573.1375,536 Q573.4656,536 573.7,536.2656 Q573.95,536.5156 573.95,536.875 Q573.95,537.2188 573.6063,537.625 Q573.1063,538.2188 572.3094,538.5469 Q571.2625,539 569.9813,539 Q568.4813,539 567.2781,538.4063 Q566.3094,537.9375 565.6219,536.9219 Q564.95,535.9063 564.95,534.7031 L564.95,533.6094 Q564.95,532.3594 565.5438,531.2656 Q566.1531,530.1719 567.2,529.5938 Q568.2625,529 569.45,529 Q570.1688,529 570.7938,529.25 Q571.4188,529.5 571.95,530 Z " fill="#000000"/><text fill="#000000" font-family="sans-serif" font-size="12" lengthAdjust="spacing" textLength="56" x="590.05" y="538.4102">UserStore</text><line style="stroke:#A80036;stroke-width:1.5;" x1="528.5" x2="675.5" y1="549.5" y2="549.5"/><line style="stroke:#A80036;stroke-width:1.5;" x1="528.5" x2="675.5" y1="557.5" y2="557.5"/><ellipse cx="538.5" cy="568.5" fill="#84BE84" rx="3" ry="3" style="stroke:#038048;stroke-width:1.0;"/><text fill="#000000" font-family="sans-serif" font-size="11" lengthAdjust="spacing" textLength="123" x="547.5" y="572.9189">create(name, email, pwd)</text><ellipse cx="538.5" cy="582.3359" fill="#84BE84" rx="3" ry="3" style="stroke:#038048;stroke-width:1.0;"/><text fill="#000000" font-family="sans-serif" font-size="11" lengthAdjust="spacing" textLength="48" x="547.5" y="586.7549">add(user)</text><ellipse cx="538.5" cy="596.1719" fill="#84BE84" rx="3" ry="3" style="stroke:#038048;stroke-width:1.0;"/><text fill="#000000" font-family="sans-serif" font-size="11" lengthAdjust="spacing" textLength="59" x="547.5" y="600.5908">exists(user)</text><!--MD5=[2f01b1126ff33a0669651ec2488a5ef9]
class Password--><rect codeLine="71" fill="#FEFECE" filter="url(#f1qte41dridw76)" height="61.8359" id="Password" style="stroke:#A80036;stroke-width:1.5;" width="88" x="479" y="21"/><ellipse cx="494" cy="37" fill="#ADD1B2" rx="11" ry="11" style="stroke:#A80036;stroke-width:1.0;"/><path d="M496,33.5 Q496.2031,33 496.4375,32.75 Q496.6719,32.5 496.9375,32.5 Q497.4063,32.5 497.7031,32.7813 Q498,33.0625 498,33.7188 L498,35.2813 Q498,35.9375 497.7188,36.2188 Q497.4375,36.5 497,36.5 Q496.6094,36.5 496.3594,36.3281 Q496.1094,36.1563 496,35.7031 Q495.9531,35.3906 495.7813,35.2188 Q495.4688,34.8906 494.9063,34.7031 Q494.3438,34.5 493.7813,34.5 Q493.0781,34.5 492.4844,34.7813 Q491.9063,35.0625 491.4531,35.6875 Q491,36.3125 491,37.1719 L491,38.0938 Q491,39.125 491.8438,39.8125 Q492.6875,40.5 494.1875,40.5 Q495.0781,40.5 495.7031,40.2969 Q496.0625,40.1875 496.4688,39.8281 Q496.7344,39.625 496.875,39.5625 Q497.0156,39.5 497.1875,39.5 Q497.5156,39.5 497.75,39.7656 Q498,40.0156 498,40.375 Q498,40.7188 497.6563,41.125 Q497.1563,41.7188 496.3594,42.0469 Q495.3125,42.5 494.0313,42.5 Q492.5313,42.5 491.3281,41.9063 Q490.3594,41.4375 489.6719,40.4219 Q489,39.4063 489,38.2031 L489,37.1094 Q489,35.8594 489.5938,34.7656 Q490.2031,33.6719 491.25,33.0938 Q492.3125,32.5 493.5,32.5 Q494.2188,32.5 494.8438,32.75 Q495.4688,33 496,33.5 Z " fill="#000000"/><text fill="#000000" font-family="sans-serif" font-size="12" lengthAdjust="spacing" textLength="56" x="508" y="41.9102">Password</text><line style="stroke:#A80036;stroke-width:1.5;" x1="480" x2="566" y1="53" y2="53"/><rect fill="none" height="6" style="stroke:#C82930;stroke-width:1.0;" width="6" x="487" y="61"/><text fill="#000000" font-family="sans-serif" font-size="11" lengthAdjust="spacing" textLength="50" x="499" y="68.4189">password</text><line style="stroke:#A80036;stroke-width:1.5;" x1="480" x2="566" y1="74.8359" y2="74.8359"/><!--MD5=[4af44b1d00658e0ecf4ff69aff0feb68]
link EmployeeUI to EmployeeController--><path codeLine="2" d="M207,97.3 C207,114.64 207,134.6 207,152.41 " fill="none" id="EmployeeUI-to-EmployeeController" style="stroke:#A80036;stroke-width:1.0;"/><polygon fill="#A80036" points="207,157.87,211,148.87,207,152.87,203,148.87,207,157.87" style="stroke:#A80036;stroke-width:1.0;"/><text fill="#000000" font-family="sans-serif" font-size="13" lengthAdjust="spacing" textLength="7" x="199.5297" y="118.014">1</text><!--MD5=[89a874917d38e7d0b678b06005c2e8f2]
link EmployeeController to Company--><path codeLine="3" d="M207,248.37 C207,270.18 207,296.84 207,320.7 " fill="none" id="EmployeeController-to-Company" style="stroke:#A80036;stroke-width:1.0;"/><polygon fill="#A80036" points="207,325.74,211,316.74,207,320.74,203,316.74,207,325.74" style="stroke:#A80036;stroke-width:1.0;"/><text fill="#000000" font-family="sans-serif" font-size="13" lengthAdjust="spacing" textLength="284" x="208" y="292.4951">gets instance of EmployeeStore and AuthFacade</text><text fill="#000000" font-family="sans-serif" font-size="13" lengthAdjust="spacing" textLength="7" x="199.5297" y="269.0934">1</text><!--MD5=[ce859576cba61219b3cb4d2d23fdcd81]
link Company to EmployeeStore--><path codeLine="4" d="M196.52,443.13 C193.29,460.91 189.71,480.57 186.42,498.68 " fill="none" id="Company-to-EmployeeStore" style="stroke:#A80036;stroke-width:1.0;"/><polygon fill="#A80036" points="185.5,503.74,191.0517,495.605,186.3982,498.8213,183.1818,494.1679,185.5,503.74" style="stroke:#A80036;stroke-width:1.0;"/><text fill="#000000" font-family="sans-serif" font-size="13" lengthAdjust="spacing" textLength="7" x="187.8162" y="464.7561">1</text><!--MD5=[717d4b03d3c4372f4eafe5e342a0a7dd]
link Company to AuthFacade--><path codeLine="5" d="M273.8,384.5 C286.86,384.5 299.92,384.5 312.99,384.5 " fill="none" id="Company-to-AuthFacade" style="stroke:#A80036;stroke-width:1.0;"/><polygon fill="#A80036" points="318.19,384.5,309.19,380.5,313.19,384.5,309.19,388.5,318.19,384.5" style="stroke:#A80036;stroke-width:1.0;"/><text fill="#000000" font-family="sans-serif" font-size="13" lengthAdjust="spacing" textLength="7" x="281.4891" y="381.1295">1</text><!--MD5=[2f3bac1bdf76f0b867b8cadb6fadb6bc]
link EmployeeStore to Employee--><path codeLine="6" d="M175,621.16 C175,643.61 175,669.66 175,693.66 " fill="none" id="EmployeeStore-to-Employee" style="stroke:#A80036;stroke-width:1.0;"/><polygon fill="#A80036" points="175,698.75,179,689.75,175,693.75,171,689.75,175,698.75" style="stroke:#A80036;stroke-width:1.0;"/><text fill="#000000" font-family="sans-serif" font-size="13" lengthAdjust="spacing" textLength="162" x="176" y="665.4951">creates validates and stores</text><text fill="#000000" font-family="sans-serif" font-size="13" lengthAdjust="spacing" textLength="12" x="162.2688" y="642.7898">1*</text><!--MD5=[66cbc168a202ff7e0cd9272912f2f0b9]
link Employee to Email--><path codeLine="7" d="M175,844 C175,868.12 175,894.49 175,916.53 " fill="none" id="Employee-to-Email" style="stroke:#A80036;stroke-width:1.0;"/><polygon fill="#A80036" points="175,921.74,179,912.74,175,916.74,171,912.74,175,921.74" style="stroke:#A80036;stroke-width:1.0;"/><text fill="#000000" font-family="sans-serif" font-size="13" lengthAdjust="spacing" textLength="43" x="176" y="888.4951">creates</text><text fill="#000000" font-family="sans-serif" font-size="13" lengthAdjust="spacing" textLength="7" x="167.6555" y="865.4439">1</text><!--MD5=[e8f53ea7ddf2097118854b522e4ee9ee]
link AuthFacade to UserRoleStore--><path codeLine="8" d="M435,415.76 C435,444.3 435,487.37 435,519.29 " fill="none" id="AuthFacade-to-UserRoleStore" style="stroke:#A80036;stroke-width:1.0;"/><polygon fill="#A80036" points="435,524.31,439,515.31,435,519.31,431,515.31,435,524.31" style="stroke:#A80036;stroke-width:1.0;"/><text fill="#000000" font-family="sans-serif" font-size="13" lengthAdjust="spacing" textLength="7" x="427.3328" y="436.7882">1</text><!--MD5=[8fa5194589bffb331f8c271d11ca426a]
link AuthFacade to UserStore--><path codeLine="9" d="M463.71,415.76 C489.25,442.67 527.03,482.49 556.66,513.71 " fill="none" id="AuthFacade-to-UserStore" style="stroke:#A80036;stroke-width:1.0;"/><polygon fill="#A80036" points="560.23,517.48,556.9187,508.2045,556.7814,513.8597,551.1262,513.7223,560.23,517.48" style="stroke:#A80036;stroke-width:1.0;"/><text fill="#000000" font-family="sans-serif" font-size="13" lengthAdjust="spacing" textLength="7" x="461.5157" y="436.7882">1</text><!--MD5=[c7587002f23423eb40a2cb64365bce3c]
link EmployeeUI to Password--><path codeLine="10" d="M399.02,52 C426.54,52 452.61,52 473.69,52 " fill="none" id="EmployeeUI-to-Password" style="stroke:#A80036;stroke-width:1.0;"/><polygon fill="#A80036" points="478.93,52,469.93,48,473.93,52,469.93,56,478.93,52" style="stroke:#A80036;stroke-width:1.0;"/><text fill="#000000" font-family="sans-serif" font-size="13" lengthAdjust="spacing" textLength="43" x="417.5" y="45.4951">creates</text><text fill="#000000" font-family="sans-serif" font-size="13" lengthAdjust="spacing" textLength="7" x="407.2685" y="49.1754">1</text><!--MD5=[579a6a3aa37c6ce3f96a57bde1f5df52]
@startuml

EmployeeUI "1"- -> EmployeeController
EmployeeController "1"- -> Company: gets instance of EmployeeStore and AuthFacade
Company "1"- -> EmployeeStore
Company "1"-> AuthFacade
EmployeeStore "1*" - -> Employee: creates validates and stores
Employee "1" - -> Email: creates
AuthFacade "1"- -> UserRoleStore
AuthFacade "1"- -> UserStore
EmployeeUI "1" -> Password:creates

class Employee{
    -name
    -phoneNumber
    -id
    -email
    -cc
    -address
    +toString()
}

class EmployeeUI{
+employeeExit()
+isInfoCorrectlyTyped()
+registerEmployee(address, name, phoneNumber, id, email, cc, pwd, roleId)
}

class EmployeeController{
+getEmployeeRoleList()
+createEmployee(address, name, phoneNumber, id, email, cc)
+addUserWithRole(name, email, pwd, roleId)
}

class Company{
-designation
-authfacade
+getEmployeeRoleList()
+getEmployeeStore()
+getAuthFacade()
}

class AuthFacade{
+addUserWithRole(name, email, pwd, roleId)
}

class EmployeeStore{
+createEmployee(address, name, phoneNumber, roleId, email, cc)
+saveEmployee(employee)
+validateEmployee(employee)
+addEmployee(employee)
+employeeExists(employee)
}

class Email{
-email
+validate(email)
+checkFormat(email)
}

class UserRoleStore{
+getById(roleId)
+add()
}

class UserStore{
+create(name, email, pwd)
+add(user)
+exists(user)
}

class Password{
-password
}


@enduml

PlantUML version 1.2022.1(Tue Feb 01 18:19:58 GMT 2022)
(GPL source distribution)
Java Runtime: OpenJDK Runtime Environment
JVM: OpenJDK 64-Bit Server VM
Default Encoding: Cp1252
Language: en
Country: US
--></g></svg>