<?xml version="1.0" encoding="UTF-8" standalone="no"?><svg xmlns="http://www.w3.org/2000/svg" xmlns:xlink="http://www.w3.org/1999/xlink" contentScriptType="application/ecmascript" contentStyleType="text/css" height="498px" preserveAspectRatio="none" style="width:664px;height:498px;background:#FFFFFF;" version="1.1" viewBox="0 0 664 498" width="664px" zoomAndPan="magnify"><defs><filter height="300%" id="f1s4rps4e36i9w" width="300%" x="-1" y="-1"><feGaussianBlur result="blurOut" stdDeviation="2.0"/><feColorMatrix in="blurOut" result="blurOut2" type="matrix" values="0 0 0 0 0 0 0 0 0 0 0 0 0 0 0 0 0 0 .4 0"/><feOffset dx="4.0" dy="4.0" in="blurOut2" result="blurOut3"/><feBlend in="SourceGraphic" in2="blurOut3" mode="normal"/></filter></defs><g><rect fill="#FFFFFF" filter="url(#f1s4rps4e36i9w)" height="295.1641" style="stroke:#A80036;stroke-width:1.0;" width="10" x="44.5" y="99.6094"/><rect fill="#FFFFFF" filter="url(#f1s4rps4e36i9w)" height="30.3516" style="stroke:#A80036;stroke-width:1.0;" width="10" x="615.5" y="121.9609"/><rect fill="#FFFFFF" filter="url(#f1s4rps4e36i9w)" height="30.3516" style="stroke:#A80036;stroke-width:1.0;" width="10" x="615.5" y="182.6641"/><rect fill="#FFFFFF" filter="url(#f1s4rps4e36i9w)" height="30.3516" style="stroke:#A80036;stroke-width:1.0;" width="10" x="615.5" y="243.3672"/><rect fill="#FFFFFF" filter="url(#f1s4rps4e36i9w)" height="30.3516" style="stroke:#A80036;stroke-width:1.0;" width="10" x="615.5" y="304.0703"/><rect fill="#FFFFFF" filter="url(#f1s4rps4e36i9w)" height="30" style="stroke:#A80036;stroke-width:1.0;" width="10" x="615.5" y="364.7734"/><line style="stroke:#A80036;stroke-width:1.0;stroke-dasharray:5.0,5.0;" x1="49" x2="49" y1="89.6094" y2="412.7734"/><line style="stroke:#A80036;stroke-width:1.0;stroke-dasharray:5.0,5.0;" x1="620.5" x2="620.5" y1="89.6094" y2="412.7734"/><text fill="#000000" font-family="sans-serif" font-size="14" lengthAdjust="spacing" textLength="83" x="5" y="86.5332">Administrator</text><ellipse cx="49.5" cy="15" fill="#FEFECE" filter="url(#f1s4rps4e36i9w)" rx="8" ry="8" style="stroke:#A80036;stroke-width:2.0;"/><path d="M49.5,23 L49.5,50 M36.5,31 L62.5,31 M49.5,50 L36.5,65 M49.5,50 L62.5,65 " fill="none" filter="url(#f1s4rps4e36i9w)" style="stroke:#A80036;stroke-width:2.0;"/><text fill="#000000" font-family="sans-serif" font-size="14" lengthAdjust="spacing" textLength="83" x="5" y="426.3066">Administrator</text><ellipse cx="49.5" cy="439.3828" fill="#FEFECE" filter="url(#f1s4rps4e36i9w)" rx="8" ry="8" style="stroke:#A80036;stroke-width:2.0;"/><path d="M49.5,447.3828 L49.5,474.3828 M36.5,455.3828 L62.5,455.3828 M49.5,474.3828 L36.5,489.3828 M49.5,474.3828 L62.5,489.3828 " fill="none" filter="url(#f1s4rps4e36i9w)" style="stroke:#A80036;stroke-width:2.0;"/><rect fill="#FEFECE" filter="url(#f1s4rps4e36i9w)" height="31.6094" style="stroke:#A80036;stroke-width:1.5;" width="64" x="586.5" y="53"/><text fill="#000000" font-family="sans-serif" font-size="14" lengthAdjust="spacing" textLength="50" x="593.5" y="74.5332">:System</text><rect fill="#FEFECE" filter="url(#f1s4rps4e36i9w)" height="31.6094" style="stroke:#A80036;stroke-width:1.5;" width="64" x="586.5" y="411.7734"/><text fill="#000000" font-family="sans-serif" font-size="14" lengthAdjust="spacing" textLength="50" x="593.5" y="433.3066">:System</text><rect fill="#FFFFFF" filter="url(#f1s4rps4e36i9w)" height="295.1641" style="stroke:#A80036;stroke-width:1.0;" width="10" x="44.5" y="99.6094"/><rect fill="#FFFFFF" filter="url(#f1s4rps4e36i9w)" height="30.3516" style="stroke:#A80036;stroke-width:1.0;" width="10" x="615.5" y="121.9609"/><rect fill="#FFFFFF" filter="url(#f1s4rps4e36i9w)" height="30.3516" style="stroke:#A80036;stroke-width:1.0;" width="10" x="615.5" y="182.6641"/><rect fill="#FFFFFF" filter="url(#f1s4rps4e36i9w)" height="30.3516" style="stroke:#A80036;stroke-width:1.0;" width="10" x="615.5" y="243.3672"/><rect fill="#FFFFFF" filter="url(#f1s4rps4e36i9w)" height="30.3516" style="stroke:#A80036;stroke-width:1.0;" width="10" x="615.5" y="304.0703"/><rect fill="#FFFFFF" filter="url(#f1s4rps4e36i9w)" height="30" style="stroke:#A80036;stroke-width:1.0;" width="10" x="615.5" y="364.7734"/><polygon fill="#A80036" points="603.5,117.9609,613.5,121.9609,603.5,125.9609,607.5,121.9609" style="stroke:#A80036;stroke-width:1.0;"/><line style="stroke:#A80036;stroke-width:1.0;" x1="54.5" x2="609.5" y1="121.9609" y2="121.9609"/><text fill="#000000" font-family="sans-serif" font-size="13" font-weight="bold" lengthAdjust="spacing" textLength="7" x="61.5" y="117.1045">1</text><text fill="#000000" font-family="sans-serif" font-size="13" lengthAdjust="spacing" textLength="190" x="72.5" y="117.1045">requests to register an employee</text><polygon fill="#A80036" points="65.5,148.3125,55.5,152.3125,65.5,156.3125,61.5,152.3125" style="stroke:#A80036;stroke-width:1.0;"/><line style="stroke:#A80036;stroke-width:1.0;stroke-dasharray:2.0,2.0;" x1="59.5" x2="619.5" y1="152.3125" y2="152.3125"/><text fill="#000000" font-family="sans-serif" font-size="13" font-weight="bold" lengthAdjust="spacing" textLength="7" x="71.5" y="147.4561">2</text><text fill="#000000" font-family="sans-serif" font-size="13" lengthAdjust="spacing" textLength="152" x="82.5" y="147.4561">shows employee's role list</text><polygon fill="#A80036" points="603.5,178.6641,613.5,182.6641,603.5,186.6641,607.5,182.6641" style="stroke:#A80036;stroke-width:1.0;"/><line style="stroke:#A80036;stroke-width:1.0;" x1="54.5" x2="609.5" y1="182.6641" y2="182.6641"/><text fill="#000000" font-family="sans-serif" font-size="13" font-weight="bold" lengthAdjust="spacing" textLength="7" x="61.5" y="177.8076">3</text><text fill="#000000" font-family="sans-serif" font-size="13" lengthAdjust="spacing" textLength="74" x="72.5" y="177.8076">chooses role</text><polygon fill="#A80036" points="65.5,209.0156,55.5,213.0156,65.5,217.0156,61.5,213.0156" style="stroke:#A80036;stroke-width:1.0;"/><line style="stroke:#A80036;stroke-width:1.0;stroke-dasharray:2.0,2.0;" x1="59.5" x2="619.5" y1="213.0156" y2="213.0156"/><text fill="#000000" font-family="sans-serif" font-size="13" font-weight="bold" lengthAdjust="spacing" textLength="7" x="71.5" y="208.1592">4</text><text fill="#000000" font-family="sans-serif" font-size="13" lengthAdjust="spacing" textLength="182" x="82.5" y="208.1592">asks for employee's information</text><polygon fill="#A80036" points="603.5,239.3672,613.5,243.3672,603.5,247.3672,607.5,243.3672" style="stroke:#A80036;stroke-width:1.0;"/><line style="stroke:#A80036;stroke-width:1.0;" x1="54.5" x2="609.5" y1="243.3672" y2="243.3672"/><text fill="#000000" font-family="sans-serif" font-size="13" font-weight="bold" lengthAdjust="spacing" textLength="7" x="61.5" y="238.5107">5</text><text fill="#000000" font-family="sans-serif" font-size="13" lengthAdjust="spacing" textLength="99" x="72.5" y="238.5107">types information</text><polygon fill="#A80036" points="65.5,269.7188,55.5,273.7188,65.5,277.7188,61.5,273.7188" style="stroke:#A80036;stroke-width:1.0;"/><line style="stroke:#A80036;stroke-width:1.0;stroke-dasharray:2.0,2.0;" x1="59.5" x2="619.5" y1="273.7188" y2="273.7188"/><text fill="#000000" font-family="sans-serif" font-size="13" font-weight="bold" lengthAdjust="spacing" textLength="7" x="71.5" y="268.8623">6</text><text fill="#000000" font-family="sans-serif" font-size="13" lengthAdjust="spacing" textLength="197" x="82.5" y="268.8623">shows info and asks if it is correct</text><polygon fill="#A80036" points="603.5,300.0703,613.5,304.0703,603.5,308.0703,607.5,304.0703" style="stroke:#A80036;stroke-width:1.0;"/><line style="stroke:#A80036;stroke-width:1.0;" x1="54.5" x2="609.5" y1="304.0703" y2="304.0703"/><text fill="#000000" font-family="sans-serif" font-size="13" font-weight="bold" lengthAdjust="spacing" textLength="7" x="61.5" y="299.2139">7</text><text fill="#000000" font-family="sans-serif" font-size="13" lengthAdjust="spacing" textLength="222" x="72.5" y="299.2139">confirms that the information is correct</text><polygon fill="#A80036" points="65.5,330.4219,55.5,334.4219,65.5,338.4219,61.5,334.4219" style="stroke:#A80036;stroke-width:1.0;"/><line style="stroke:#A80036;stroke-width:1.0;stroke-dasharray:2.0,2.0;" x1="59.5" x2="619.5" y1="334.4219" y2="334.4219"/><text fill="#000000" font-family="sans-serif" font-size="13" font-weight="bold" lengthAdjust="spacing" textLength="7" x="71.5" y="329.5654">8</text><text fill="#000000" font-family="sans-serif" font-size="13" lengthAdjust="spacing" textLength="526" x="82.5" y="329.5654">system will confirm that the employee has been registered and will ask if user wants to exit</text><polygon fill="#A80036" points="603.5,360.7734,613.5,364.7734,603.5,368.7734,607.5,364.7734" style="stroke:#A80036;stroke-width:1.0;"/><line style="stroke:#A80036;stroke-width:1.0;" x1="54.5" x2="609.5" y1="364.7734" y2="364.7734"/><text fill="#000000" font-family="sans-serif" font-size="13" font-weight="bold" lengthAdjust="spacing" textLength="7" x="61.5" y="359.917">9</text><text fill="#000000" font-family="sans-serif" font-size="13" lengthAdjust="spacing" textLength="269" x="72.5" y="359.917">decides to exit or to register another employee</text><!--MD5=[d57b3bfa97bd171f8035a92ea07d222e]
@startuml

autonumber
actor "Administrator" as ADM
activate ADM

ADM -> ":System" : requests to register an employee

activate ":System"
":System" - -> ADM : shows employee's role list
deactivate ":System"

ADM -> ":System" : chooses role

activate ":System"
":System" - -> ADM : asks for employee's information
deactivate ":System"

ADM -> ":System" : types information

activate ":System"
":System" - -> ADM : shows info and asks if it is correct
deactivate ":System"

ADM -> ":System" : confirms that the information is correct

activate ":System"
":System" - -> ADM : system will confirm that the employee has been registered and will ask if user wants to exit
deactivate ":System"

ADM -> ":System" : decides to exit or to register another employee
activate ":System"
deactivate ":System"
deactivate ADM

@enduml

PlantUML version 1.2022.1(Tue Feb 01 18:19:58 GMT 2022)
(GPL source distribution)
Java Runtime: OpenJDK Runtime Environment
JVM: OpenJDK 64-Bit Server VM
Default Encoding: Cp1252
Language: en
Country: US
--></g></svg>