<?xml version="1.0" encoding="UTF-8" standalone="no"?><svg xmlns="http://www.w3.org/2000/svg" xmlns:xlink="http://www.w3.org/1999/xlink" contentStyleType="text/css" height="526px" preserveAspectRatio="none" style="width:320px;height:526px;background:#FFFFFF;" version="1.1" viewBox="0 0 320 526" width="320px" zoomAndPan="magnify"><defs/><g><!--MD5=[2d935fd2dd068a13da1ae531f9857c4f]
class CenterCoordinator--><g id="elem_CenterCoordinator"><rect codeLine="5" fill="#F1F1F1" height="48" id="CenterCoordinator" rx="2.5" ry="2.5" style="stroke:#181818;stroke-width:0.5;" width="150" x="163" y="301"/><ellipse cx="178" cy="317" fill="#ADD1B2" rx="11" ry="11" style="stroke:#181818;stroke-width:1.0;"/><path d="M180,313.5 Q180.2031,313 180.4375,312.75 Q180.6719,312.5 180.9375,312.5 Q181.4063,312.5 181.7031,312.7813 Q182,313.0625 182,313.7188 L182,315.2813 Q182,315.9375 181.7188,316.2188 Q181.4375,316.5 181,316.5 Q180.6094,316.5 180.3594,316.3281 Q180.1094,316.1563 180,315.7031 Q179.9531,315.3906 179.7813,315.2188 Q179.4688,314.8906 178.9063,314.7031 Q178.3438,314.5 177.7813,314.5 Q177.0781,314.5 176.4844,314.7813 Q175.9063,315.0625 175.4531,315.6875 Q175,316.3125 175,317.1719 L175,318.0938 Q175,319.125 175.8438,319.8125 Q176.6875,320.5 178.1875,320.5 Q179.0781,320.5 179.7031,320.2969 Q180.0625,320.1875 180.4688,319.8281 Q180.7344,319.625 180.875,319.5625 Q181.0156,319.5 181.1875,319.5 Q181.5156,319.5 181.75,319.7656 Q182,320.0156 182,320.375 Q182,320.7188 181.6563,321.125 Q181.1563,321.7188 180.3594,322.0469 Q179.3125,322.5 178.0313,322.5 Q176.5313,322.5 175.3281,321.9063 Q174.3594,321.4375 173.6719,320.4219 Q173,319.4063 173,318.2031 L173,317.1094 Q173,315.8594 173.5938,314.7656 Q174.2031,313.6719 175.25,313.0938 Q176.3125,312.5 177.5,312.5 Q178.2188,312.5 178.8438,312.75 Q179.4688,313 180,313.5 Z " fill="#000000"/><text fill="#000000" font-family="sans-serif" font-size="14" lengthAdjust="spacing" textLength="118" x="192" y="322.7285">CenterCoordinator</text><line style="stroke:#181818;stroke-width:0.5;" x1="164" x2="312" y1="333" y2="333"/><line style="stroke:#181818;stroke-width:0.5;" x1="164" x2="312" y1="341" y2="341"/></g><!--MD5=[de60e6d4f424ae4d0522096f76a59010]
class VaccinationCenter--><g id="elem_VaccinationCenter"><rect codeLine="10" fill="#F1F1F1" height="224.0938" id="VaccinationCenter" rx="2.5" ry="2.5" style="stroke:#181818;stroke-width:0.5;" width="148" x="164" y="7"/><ellipse cx="179" cy="23" fill="#ADD1B2" rx="11" ry="11" style="stroke:#181818;stroke-width:1.0;"/><path d="M181,19.5 Q181.2031,19 181.4375,18.75 Q181.6719,18.5 181.9375,18.5 Q182.4063,18.5 182.7031,18.7813 Q183,19.0625 183,19.7188 L183,21.2813 Q183,21.9375 182.7188,22.2188 Q182.4375,22.5 182,22.5 Q181.6094,22.5 181.3594,22.3281 Q181.1094,22.1563 181,21.7031 Q180.9531,21.3906 180.7813,21.2188 Q180.4688,20.8906 179.9063,20.7031 Q179.3438,20.5 178.7813,20.5 Q178.0781,20.5 177.4844,20.7813 Q176.9063,21.0625 176.4531,21.6875 Q176,22.3125 176,23.1719 L176,24.0938 Q176,25.125 176.8438,25.8125 Q177.6875,26.5 179.1875,26.5 Q180.0781,26.5 180.7031,26.2969 Q181.0625,26.1875 181.4688,25.8281 Q181.7344,25.625 181.875,25.5625 Q182.0156,25.5 182.1875,25.5 Q182.5156,25.5 182.75,25.7656 Q183,26.0156 183,26.375 Q183,26.7188 182.6563,27.125 Q182.1563,27.7188 181.3594,28.0469 Q180.3125,28.5 179.0313,28.5 Q177.5313,28.5 176.3281,27.9063 Q175.3594,27.4375 174.6719,26.4219 Q174,25.4063 174,24.2031 L174,23.1094 Q174,21.8594 174.5938,20.7656 Q175.2031,19.6719 176.25,19.0938 Q177.3125,18.5 178.5,18.5 Q179.2188,18.5 179.8438,18.75 Q180.4688,19 181,19.5 Z " fill="#000000"/><text fill="#000000" font-family="sans-serif" font-size="14" lengthAdjust="spacing" textLength="116" x="193" y="28.7285">VaccinationCenter</text><line style="stroke:#181818;stroke-width:0.5;" x1="165" x2="311" y1="39" y2="39"/><text fill="#000000" font-family="sans-serif" font-size="14" lengthAdjust="spacing" textLength="35" x="170" y="57.5332">name</text><text fill="#000000" font-family="sans-serif" font-size="14" lengthAdjust="spacing" textLength="33" x="170" y="75.1426">email</text><text fill="#000000" font-family="sans-serif" font-size="14" lengthAdjust="spacing" textLength="89" x="170" y="92.752">phoneNumber</text><text fill="#000000" font-family="sans-serif" font-size="14" lengthAdjust="spacing" textLength="51" x="170" y="110.3613">address</text><text fill="#000000" font-family="sans-serif" font-size="14" lengthAdjust="spacing" textLength="77" x="170" y="127.9707">webAddress</text><text fill="#000000" font-family="sans-serif" font-size="14" lengthAdjust="spacing" textLength="67" x="170" y="145.5801">faxNumber</text><text fill="#000000" font-family="sans-serif" font-size="14" lengthAdjust="spacing" textLength="41" x="170" y="163.1895">vctype</text><text fill="#000000" font-family="sans-serif" font-size="14" lengthAdjust="spacing" textLength="76" x="170" y="180.7988">slotDuration</text><text fill="#000000" font-family="sans-serif" font-size="14" lengthAdjust="spacing" textLength="82" x="170" y="198.4082">maxVaccines</text><text fill="#000000" font-family="sans-serif" font-size="14" lengthAdjust="spacing" textLength="57" x="170" y="216.0176">schedule</text><line style="stroke:#181818;stroke-width:0.5;" x1="165" x2="311" y1="223.0938" y2="223.0938"/></g><!--MD5=[08943d1e6e73940ea7786e0f41e252ee]
class ExportStatistics--><g id="elem_ExportStatistics"><rect codeLine="22" fill="#F1F1F1" height="83.2188" id="ExportStatistics" rx="2.5" ry="2.5" style="stroke:#181818;stroke-width:0.5;" width="220" x="7" y="436"/><ellipse cx="64.75" cy="452" fill="#ADD1B2" rx="11" ry="11" style="stroke:#181818;stroke-width:1.0;"/><path d="M66.75,448.5 Q66.9531,448 67.1875,447.75 Q67.4219,447.5 67.6875,447.5 Q68.1563,447.5 68.4531,447.7813 Q68.75,448.0625 68.75,448.7188 L68.75,450.2813 Q68.75,450.9375 68.4688,451.2188 Q68.1875,451.5 67.75,451.5 Q67.3594,451.5 67.1094,451.3281 Q66.8594,451.1563 66.75,450.7031 Q66.7031,450.3906 66.5313,450.2188 Q66.2188,449.8906 65.6563,449.7031 Q65.0938,449.5 64.5313,449.5 Q63.8281,449.5 63.2344,449.7813 Q62.6563,450.0625 62.2031,450.6875 Q61.75,451.3125 61.75,452.1719 L61.75,453.0938 Q61.75,454.125 62.5938,454.8125 Q63.4375,455.5 64.9375,455.5 Q65.8281,455.5 66.4531,455.2969 Q66.8125,455.1875 67.2188,454.8281 Q67.4844,454.625 67.625,454.5625 Q67.7656,454.5 67.9375,454.5 Q68.2656,454.5 68.5,454.7656 Q68.75,455.0156 68.75,455.375 Q68.75,455.7188 68.4063,456.125 Q67.9063,456.7188 67.1094,457.0469 Q66.0625,457.5 64.7813,457.5 Q63.2813,457.5 62.0781,456.9063 Q61.1094,456.4375 60.4219,455.4219 Q59.75,454.4063 59.75,453.2031 L59.75,452.1094 Q59.75,450.8594 60.3438,449.7656 Q60.9531,448.6719 62,448.0938 Q63.0625,447.5 64.25,447.5 Q64.9688,447.5 65.5938,447.75 Q66.2188,448 66.75,448.5 Z " fill="#000000"/><text fill="#000000" font-family="sans-serif" font-size="14" lengthAdjust="spacing" textLength="96" x="85.25" y="457.7285">ExportStatistics</text><line style="stroke:#181818;stroke-width:0.5;" x1="8" x2="226" y1="468" y2="468"/><line style="stroke:#181818;stroke-width:0.5;" x1="8" x2="226" y1="476" y2="476"/><ellipse cx="18" cy="487" fill="#84BE84" rx="3" ry="3" style="stroke:#038048;stroke-width:1.0;"/><text fill="#000000" font-family="sans-serif" font-size="14" lengthAdjust="spacing" textLength="194" x="27" y="494.5332">ExportStatistics(String filePath)</text><ellipse cx="18" cy="504.6094" fill="#84BE84" rx="3" ry="3" style="stroke:#038048;stroke-width:1.0;"/><text fill="#000000" font-family="sans-serif" font-size="14" lengthAdjust="spacing" textLength="106" x="27" y="512.1426">checkFileName()</text></g><!--MD5=[02e4b9b7573f1156f41e60aa5b4e25a4]
class Company--><g id="elem_Company"><rect codeLine="26" fill="#F1F1F1" height="65.6094" id="Company" rx="2.5" ry="2.5" style="stroke:#181818;stroke-width:0.5;" width="99" x="28.5" y="292"/><ellipse cx="46.65" cy="308" fill="#ADD1B2" rx="11" ry="11" style="stroke:#181818;stroke-width:1.0;"/><path d="M48.65,304.5 Q48.8531,304 49.0875,303.75 Q49.3219,303.5 49.5875,303.5 Q50.0563,303.5 50.3531,303.7813 Q50.65,304.0625 50.65,304.7188 L50.65,306.2813 Q50.65,306.9375 50.3688,307.2188 Q50.0875,307.5 49.65,307.5 Q49.2594,307.5 49.0094,307.3281 Q48.7594,307.1563 48.65,306.7031 Q48.6031,306.3906 48.4313,306.2188 Q48.1188,305.8906 47.5563,305.7031 Q46.9938,305.5 46.4313,305.5 Q45.7281,305.5 45.1344,305.7813 Q44.5563,306.0625 44.1031,306.6875 Q43.65,307.3125 43.65,308.1719 L43.65,309.0938 Q43.65,310.125 44.4938,310.8125 Q45.3375,311.5 46.8375,311.5 Q47.7281,311.5 48.3531,311.2969 Q48.7125,311.1875 49.1188,310.8281 Q49.3844,310.625 49.525,310.5625 Q49.6656,310.5 49.8375,310.5 Q50.1656,310.5 50.4,310.7656 Q50.65,311.0156 50.65,311.375 Q50.65,311.7188 50.3063,312.125 Q49.8063,312.7188 49.0094,313.0469 Q47.9625,313.5 46.6813,313.5 Q45.1813,313.5 43.9781,312.9063 Q43.0094,312.4375 42.3219,311.4219 Q41.65,310.4063 41.65,309.2031 L41.65,308.1094 Q41.65,306.8594 42.2438,305.7656 Q42.8531,304.6719 43.9,304.0938 Q44.9625,303.5 46.15,303.5 Q46.8688,303.5 47.4938,303.75 Q48.1188,304 48.65,304.5 Z " fill="#000000"/><text fill="#000000" font-family="sans-serif" font-size="14" lengthAdjust="spacing" textLength="60" x="61.35" y="313.7285">Company</text><line style="stroke:#181818;stroke-width:0.5;" x1="29.5" x2="126.5" y1="324" y2="324"/><rect fill="none" height="6" style="stroke:#C82930;stroke-width:1.0;" width="6" x="36.5" y="332"/><text fill="#000000" font-family="sans-serif" font-size="14" lengthAdjust="spacing" textLength="73" x="48.5" y="342.5332">designation</text><line style="stroke:#181818;stroke-width:0.5;" x1="29.5" x2="126.5" y1="349.6094" y2="349.6094"/></g><!--MD5=[8d58cf1c2119791001cf5144e9295faa]
link VaccinationCenter to CenterCoordinator--><g id="link_VaccinationCenter_CenterCoordinator"><path codeLine="30" d="M238,231.25 C238,255.25 238,278.56 238,295.8 " fill="none" id="VaccinationCenter-to-CenterCoordinator" style="stroke:#181818;stroke-width:1.0;"/><polygon fill="#181818" points="238,300.96,242,291.96,238,295.96,234,291.96,238,300.96" style="stroke:#181818;stroke-width:1.0;"/><text fill="#000000" font-family="sans-serif" font-size="13" lengthAdjust="spacing" textLength="7" x="230.7758" y="252.4569">1</text><text fill="#000000" font-family="sans-serif" font-size="13" lengthAdjust="spacing" textLength="7" x="230.1031" y="290.2899">1</text></g><!--MD5=[450e3598f76b9a57d312df560c6655fc]
link Company to ExportStatistics--><g id="link_Company_ExportStatistics"><path codeLine="31" d="M86.37,358.29 C91.86,379.49 99.13,407.55 105.21,431 " fill="none" id="Company-to-ExportStatistics" style="stroke:#181818;stroke-width:1.0;"/><polygon fill="#181818" points="106.49,435.93,108.1272,426.2182,105.2471,431.0869,100.3783,428.2068,106.49,435.93" style="stroke:#181818;stroke-width:1.0;"/><text fill="#000000" font-family="sans-serif" font-size="13" lengthAdjust="spacing" textLength="37" x="99" y="402.4951">knows</text><text fill="#000000" font-family="sans-serif" font-size="13" lengthAdjust="spacing" textLength="7" x="80.2375" y="379.206">1</text><text fill="#000000" font-family="sans-serif" font-size="13" lengthAdjust="spacing" textLength="5" x="99.3352" y="425.2261">*</text></g><!--MD5=[249435c6b96e95b867120b697ead9b09]
link CenterCoordinator to ExportStatistics--><g id="link_CenterCoordinator_ExportStatistics"><path codeLine="32" d="M219.36,349.19 C201.67,371.19 174.61,404.85 152.75,432.03 " fill="none" id="CenterCoordinator-to-ExportStatistics" style="stroke:#181818;stroke-width:1.0;"/><polygon fill="#181818" points="149.57,435.99,158.3218,431.4727,152.6987,432.0898,152.0815,426.4668,149.57,435.99" style="stroke:#181818;stroke-width:1.0;"/><text fill="#000000" font-family="sans-serif" font-size="13" lengthAdjust="spacing" textLength="23" x="185" y="402.4951">Ask</text><text fill="#000000" font-family="sans-serif" font-size="13" lengthAdjust="spacing" textLength="7" x="206.9634" y="370.5743">1</text><text fill="#000000" font-family="sans-serif" font-size="13" lengthAdjust="spacing" textLength="5" x="149.5503" y="425.296">*</text></g><!--MD5=[675c29adad1e74f51f5242e08f02d514]
@startuml
'https://plantuml.com/sequence-diagram



class CenterCoordinator{
}
class VaccinationCenter{
}

class VaccinationCenter{
name
email
phoneNumber
address
webAddress
faxNumber
vctype
slotDuration
maxVaccines
schedule
}
class ExportStatistics{
+ExportStatistics(String filePath)
+checkFileName()
}
class Company{
-designation
}

VaccinationCenter"1" - -> "1"CenterCoordinator
 Company "1" - -> "*" ExportStatistics:knows
CenterCoordinator "1" - -> "*" ExportStatistics: Ask
@enduml

@startuml



class CenterCoordinator{
}
class VaccinationCenter{
}

class VaccinationCenter{
name
email
phoneNumber
address
webAddress
faxNumber
vctype
slotDuration
maxVaccines
schedule
}
class ExportStatistics{
+ExportStatistics(String filePath)
+checkFileName()
}
class Company{
-designation
}

VaccinationCenter"1" - -> "1"CenterCoordinator
 Company "1" - -> "*" ExportStatistics:knows
CenterCoordinator "1" - -> "*" ExportStatistics: Ask
@enduml

PlantUML version 1.2022.4(Sat Apr 09 14:29:17 BST 2022)
(GPL source distribution)
Java Runtime: OpenJDK Runtime Environment
JVM: OpenJDK 64-Bit Server VM
Default Encoding: Cp1252
Language: pt
Country: PT
--></g></svg>