<?xml version="1.0" encoding="UTF-8" standalone="no"?><svg xmlns="http://www.w3.org/2000/svg" xmlns:xlink="http://www.w3.org/1999/xlink" contentStyleType="text/css" height="701px" preserveAspectRatio="none" style="width:1066px;height:701px;background:#FFFFFF;" version="1.1" viewBox="0 0 1066 701" width="1066px" zoomAndPan="magnify"><defs/><g><rect fill="#FFFFFF" height="262.1641" style="stroke:#181818;stroke-width:1.0;" width="10" x="79.5" y="92.6094"/><rect fill="#FFFFFF" height="173.7578" style="stroke:#181818;stroke-width:1.0;" width="10" x="79.5" y="435.8281"/><rect fill="#FFFFFF" height="262.1641" style="stroke:#181818;stroke-width:1.0;" width="10" x="456.5" y="92.6094"/><rect fill="#FFFFFF" height="174.7578" style="stroke:#181818;stroke-width:1.0;" width="10" x="456.5" y="435.8281"/><rect fill="#FFFFFF" height="231.8125" style="stroke:#181818;stroke-width:1.0;" width="10" x="649.5" y="92.6094"/><rect fill="#FFFFFF" height="107.0547" style="stroke:#181818;stroke-width:1.0;" width="10" x="654.5" y="503.5313"/><rect fill="#FFFFFF" height="107.0547" style="stroke:#181818;stroke-width:1.0;" width="10" x="654.5" y="503.5313"/><rect fill="#FFFFFF" height="231.8125" style="stroke:#181818;stroke-width:1.0;" width="10" x="832.5" y="92.6094"/><rect fill="#FFFFFF" height="76.7031" style="stroke:#181818;stroke-width:1.0;" width="10" x="832.5" y="533.8828"/><rect fill="#FFFFFF" height="201.4609" style="stroke:#181818;stroke-width:1.0;" width="10" x="996.5" y="92.6094"/><rect fill="#FFFFFF" height="75.7031" style="stroke:#181818;stroke-width:1.0;" width="10" x="996.5" y="533.8828"/><rect height="48.7031" style="stroke:#000000;stroke-width:1.5;fill:none;" width="496" x="30" y="124.9609"/><rect height="232.8125" style="stroke:#000000;stroke-width:1.5;fill:none;" width="1040.5" x="20" y="369.7734"/><rect height="79.0547" style="stroke:#000000;stroke-width:1.5;fill:none;" width="496" x="30" y="395.125"/><line style="stroke:#181818;stroke-width:0.5;fill:none;stroke-dasharray:5.0,5.0;" x1="84" x2="84" y1="82.6094" y2="619.5859"/><line style="stroke:#181818;stroke-width:0.5;fill:none;stroke-dasharray:5.0,5.0;" x1="461" x2="461" y1="82.6094" y2="619.5859"/><line style="stroke:#181818;stroke-width:0.5;fill:none;stroke-dasharray:5.0,5.0;" x1="654.5" x2="654.5" y1="82.6094" y2="619.5859"/><line style="stroke:#181818;stroke-width:0.5;fill:none;stroke-dasharray:5.0,5.0;" x1="837.5" x2="837.5" y1="82.6094" y2="619.5859"/><line style="stroke:#181818;stroke-width:0.5;fill:none;stroke-dasharray:5.0,5.0;" x1="1001.5" x2="1001.5" y1="82.6094" y2="619.5859"/><text fill="#000000" font-family="sans-serif" font-size="14" lengthAdjust="spacing" textLength="83" x="40" y="79.5332">Administrator</text><ellipse cx="84.5" cy="13.5" fill="#E2E2F0" rx="8" ry="8" style="stroke:#181818;stroke-width:0.5;"/><path d="M84.5,21.5 L84.5,48.5 M71.5,29.5 L97.5,29.5 M84.5,48.5 L71.5,63.5 M84.5,48.5 L97.5,63.5 " fill="none" style="stroke:#181818;stroke-width:0.5;"/><text fill="#000000" font-family="sans-serif" font-size="14" lengthAdjust="spacing" textLength="83" x="40" y="633.1191">Administrator</text><ellipse cx="84.5" cy="644.6953" fill="#E2E2F0" rx="8" ry="8" style="stroke:#181818;stroke-width:0.5;"/><path d="M84.5,652.6953 L84.5,679.6953 M71.5,660.6953 L97.5,660.6953 M84.5,679.6953 L71.5,694.6953 M84.5,679.6953 L97.5,694.6953 " fill="none" style="stroke:#181818;stroke-width:0.5;"/><rect fill="#E2E2F0" height="31.6094" rx="2.5" ry="2.5" style="stroke:#181818;stroke-width:0.5;" width="109" x="407" y="50"/><text fill="#000000" font-family="sans-serif" font-size="14" lengthAdjust="spacing" textLength="95" x="414" y="71.5332">NewVaccinesUI</text><rect fill="#E2E2F0" height="31.6094" rx="2.5" ry="2.5" style="stroke:#181818;stroke-width:0.5;" width="109" x="407" y="618.5859"/><text fill="#000000" font-family="sans-serif" font-size="14" lengthAdjust="spacing" textLength="95" x="414" y="640.1191">NewVaccinesUI</text><rect fill="#E2E2F0" height="31.6094" rx="2.5" ry="2.5" style="stroke:#181818;stroke-width:0.5;" width="152" x="578.5" y="50"/><text fill="#000000" font-family="sans-serif" font-size="14" lengthAdjust="spacing" textLength="138" x="585.5" y="71.5332">NewVaccineController</text><rect fill="#E2E2F0" height="31.6094" rx="2.5" ry="2.5" style="stroke:#181818;stroke-width:0.5;" width="152" x="578.5" y="618.5859"/><text fill="#000000" font-family="sans-serif" font-size="14" lengthAdjust="spacing" textLength="138" x="585.5" y="640.1191">NewVaccineController</text><rect fill="#E2E2F0" height="31.6094" rx="2.5" ry="2.5" style="stroke:#181818;stroke-width:0.5;" width="74" x="800.5" y="50"/><text fill="#000000" font-family="sans-serif" font-size="14" lengthAdjust="spacing" textLength="60" x="807.5" y="71.5332">Company</text><rect fill="#E2E2F0" height="31.6094" rx="2.5" ry="2.5" style="stroke:#181818;stroke-width:0.5;" width="74" x="800.5" y="618.5859"/><text fill="#000000" font-family="sans-serif" font-size="14" lengthAdjust="spacing" textLength="60" x="807.5" y="640.1191">Company</text><rect fill="#E2E2F0" height="31.6094" rx="2.5" ry="2.5" style="stroke:#181818;stroke-width:0.5;" width="98" x="952.5" y="50"/><text fill="#000000" font-family="sans-serif" font-size="14" lengthAdjust="spacing" textLength="84" x="959.5" y="71.5332">VaccineStore</text><rect fill="#E2E2F0" height="31.6094" rx="2.5" ry="2.5" style="stroke:#181818;stroke-width:0.5;" width="98" x="952.5" y="618.5859"/><text fill="#000000" font-family="sans-serif" font-size="14" lengthAdjust="spacing" textLength="84" x="959.5" y="640.1191">VaccineStore</text><rect fill="#FFFFFF" height="262.1641" style="stroke:#181818;stroke-width:1.0;" width="10" x="79.5" y="92.6094"/><rect fill="#FFFFFF" height="173.7578" style="stroke:#181818;stroke-width:1.0;" width="10" x="79.5" y="435.8281"/><rect fill="#FFFFFF" height="262.1641" style="stroke:#181818;stroke-width:1.0;" width="10" x="456.5" y="92.6094"/><rect fill="#FFFFFF" height="174.7578" style="stroke:#181818;stroke-width:1.0;" width="10" x="456.5" y="435.8281"/><rect fill="#FFFFFF" height="231.8125" style="stroke:#181818;stroke-width:1.0;" width="10" x="649.5" y="92.6094"/><rect fill="#FFFFFF" height="107.0547" style="stroke:#181818;stroke-width:1.0;" width="10" x="654.5" y="503.5313"/><rect fill="#FFFFFF" height="107.0547" style="stroke:#181818;stroke-width:1.0;" width="10" x="654.5" y="503.5313"/><rect fill="#FFFFFF" height="231.8125" style="stroke:#181818;stroke-width:1.0;" width="10" x="832.5" y="92.6094"/><rect fill="#FFFFFF" height="76.7031" style="stroke:#181818;stroke-width:1.0;" width="10" x="832.5" y="533.8828"/><rect fill="#FFFFFF" height="201.4609" style="stroke:#181818;stroke-width:1.0;" width="10" x="996.5" y="92.6094"/><rect fill="#FFFFFF" height="75.7031" style="stroke:#181818;stroke-width:1.0;" width="10" x="996.5" y="533.8828"/><path d="M30,124.9609 L95,124.9609 L95,133.3125 L85,143.3125 L30,143.3125 L30,124.9609 " fill="#EEEEEE" style="stroke:#000000;stroke-width:1.5;"/><rect fill="none" height="48.7031" style="stroke:#000000;stroke-width:1.5;" width="496" x="30" y="124.9609"/><text fill="#000000" font-family="sans-serif" font-size="13" font-weight="bold" lengthAdjust="spacing" textLength="20" x="45" y="139.4561">opt</text><text fill="#000000" font-family="sans-serif" font-size="11" font-weight="bold" lengthAdjust="spacing" textLength="150" x="110" y="138.3799">[do while (!isInfoCorrect())]</text><polygon fill="#181818" points="444.5,161.6641,454.5,165.6641,444.5,169.6641,448.5,165.6641" style="stroke:#181818;stroke-width:1.0;"/><line style="stroke:#181818;stroke-width:1.0;" x1="89.5" x2="450.5" y1="165.6641" y2="165.6641"/><text fill="#000000" font-family="sans-serif" font-size="13" font-weight="bold" lengthAdjust="spacing" textLength="7" x="96.5" y="160.8076">1</text><text fill="#000000" font-family="sans-serif" font-size="13" lengthAdjust="spacing" textLength="270" x="107.5" y="160.8076">Requests a list of currently registered vaccines</text><polygon fill="#181818" points="637.5,199.0156,647.5,203.0156,637.5,207.0156,641.5,203.0156" style="stroke:#181818;stroke-width:1.0;"/><line style="stroke:#181818;stroke-width:1.0;" x1="466.5" x2="643.5" y1="203.0156" y2="203.0156"/><text fill="#000000" font-family="sans-serif" font-size="13" font-weight="bold" lengthAdjust="spacing" textLength="7" x="473.5" y="198.1592">2</text><text fill="#000000" font-family="sans-serif" font-size="13" lengthAdjust="spacing" textLength="148" x="484.5" y="198.1592">ConsultCurrentVaccines()</text><polygon fill="#181818" points="820.5,229.3672,830.5,233.3672,820.5,237.3672,824.5,233.3672" style="stroke:#181818;stroke-width:1.0;"/><line style="stroke:#181818;stroke-width:1.0;" x1="659.5" x2="826.5" y1="233.3672" y2="233.3672"/><text fill="#000000" font-family="sans-serif" font-size="13" font-weight="bold" lengthAdjust="spacing" textLength="7" x="666.5" y="228.5107">3</text><text fill="#000000" font-family="sans-serif" font-size="13" lengthAdjust="spacing" textLength="125" x="677.5" y="228.5107">GetCurrentVaccines()</text><polygon fill="#181818" points="984.5,259.7188,994.5,263.7188,984.5,267.7188,988.5,263.7188" style="stroke:#181818;stroke-width:1.0;"/><line style="stroke:#181818;stroke-width:1.0;" x1="842.5" x2="990.5" y1="263.7188" y2="263.7188"/><text fill="#000000" font-family="sans-serif" font-size="13" font-weight="bold" lengthAdjust="spacing" textLength="7" x="849.5" y="258.8623">4</text><text fill="#000000" font-family="sans-serif" font-size="13" lengthAdjust="spacing" textLength="107" x="860.5" y="258.8623">GetVaccineStore()</text><polygon fill="#181818" points="853.5,290.0703,843.5,294.0703,853.5,298.0703,849.5,294.0703" style="stroke:#181818;stroke-width:1.0;"/><line style="stroke:#181818;stroke-width:1.0;" x1="847.5" x2="1000.5" y1="294.0703" y2="294.0703"/><text fill="#000000" font-family="sans-serif" font-size="13" font-weight="bold" lengthAdjust="spacing" textLength="7" x="859.5" y="289.2139">5</text><text fill="#000000" font-family="sans-serif" font-size="13" lengthAdjust="spacing" textLength="58" x="870.5" y="289.2139">gives data</text><polygon fill="#181818" points="477.5,320.4219,467.5,324.4219,477.5,328.4219,473.5,324.4219" style="stroke:#181818;stroke-width:1.0;"/><line style="stroke:#181818;stroke-width:1.0;" x1="471.5" x2="836.5" y1="324.4219" y2="324.4219"/><text fill="#000000" font-family="sans-serif" font-size="13" font-weight="bold" lengthAdjust="spacing" textLength="7" x="483.5" y="319.5654">6</text><text fill="#000000" font-family="sans-serif" font-size="13" lengthAdjust="spacing" textLength="92" x="494.5" y="319.5654">Returns vaccine</text><polygon fill="#181818" points="95.5,350.7734,85.5,354.7734,95.5,358.7734,91.5,354.7734" style="stroke:#181818;stroke-width:1.0;"/><line style="stroke:#181818;stroke-width:1.0;" x1="89.5" x2="460.5" y1="354.7734" y2="354.7734"/><text fill="#000000" font-family="sans-serif" font-size="13" font-weight="bold" lengthAdjust="spacing" textLength="7" x="101.5" y="349.917">7</text><text fill="#000000" font-family="sans-serif" font-size="13" lengthAdjust="spacing" textLength="137" x="112.5" y="349.917">List consulting interface</text><path d="M20,369.7734 L93,369.7734 L93,378.125 L83,388.125 L20,388.125 L20,369.7734 " fill="#EEEEEE" style="stroke:#000000;stroke-width:1.5;"/><rect fill="none" height="232.8125" style="stroke:#000000;stroke-width:1.5;" width="1040.5" x="20" y="369.7734"/><text fill="#000000" font-family="sans-serif" font-size="13" font-weight="bold" lengthAdjust="spacing" textLength="28" x="35" y="384.2686">loop</text><text fill="#000000" font-family="sans-serif" font-size="11" font-weight="bold" lengthAdjust="spacing" textLength="147" x="108" y="383.1924">[do while(!isInfoCorrect())]</text><path d="M30,395.125 L95,395.125 L95,403.4766 L85,413.4766 L30,413.4766 L30,395.125 " fill="#EEEEEE" style="stroke:#000000;stroke-width:1.5;"/><rect fill="none" height="79.0547" style="stroke:#000000;stroke-width:1.5;" width="496" x="30" y="395.125"/><text fill="#000000" font-family="sans-serif" font-size="13" font-weight="bold" lengthAdjust="spacing" textLength="20" x="45" y="409.6201">opt</text><text fill="#000000" font-family="sans-serif" font-size="11" font-weight="bold" lengthAdjust="spacing" textLength="150" x="110" y="408.5439">[do while (!isInfoCorrect())]</text><polygon fill="#181818" points="444.5,431.8281,454.5,435.8281,444.5,439.8281,448.5,435.8281" style="stroke:#181818;stroke-width:1.0;"/><line style="stroke:#181818;stroke-width:1.0;" x1="89.5" x2="450.5" y1="435.8281" y2="435.8281"/><text fill="#000000" font-family="sans-serif" font-size="13" font-weight="bold" lengthAdjust="spacing" textLength="7" x="96.5" y="430.9717">8</text><text fill="#000000" font-family="sans-serif" font-size="13" lengthAdjust="spacing" textLength="129" x="107.5" y="430.9717">Registers new vaccine</text><polygon fill="#181818" points="444.5,462.1797,454.5,466.1797,444.5,470.1797,448.5,466.1797" style="stroke:#181818;stroke-width:1.0;"/><line style="stroke:#181818;stroke-width:1.0;" x1="89.5" x2="450.5" y1="466.1797" y2="466.1797"/><text fill="#000000" font-family="sans-serif" font-size="13" font-weight="bold" lengthAdjust="spacing" textLength="7" x="96.5" y="461.3232">9</text><text fill="#000000" font-family="sans-serif" font-size="13" lengthAdjust="spacing" textLength="190" x="107.5" y="461.3232">Registers new vaccine properties</text><polygon fill="#181818" points="642.5,499.5313,652.5,503.5313,642.5,507.5313,646.5,503.5313" style="stroke:#181818;stroke-width:1.0;"/><line style="stroke:#181818;stroke-width:1.0;" x1="466.5" x2="648.5" y1="503.5313" y2="503.5313"/><text fill="#000000" font-family="sans-serif" font-size="13" font-weight="bold" lengthAdjust="spacing" textLength="14" x="473.5" y="498.6748">10</text><text fill="#000000" font-family="sans-serif" font-size="13" lengthAdjust="spacing" textLength="128" x="491.5" y="498.6748">RegisterNewVaccine()</text><polygon fill="#181818" points="820.5,529.8828,830.5,533.8828,820.5,537.8828,824.5,533.8828" style="stroke:#181818;stroke-width:1.0;"/><line style="stroke:#181818;stroke-width:1.0;" x1="664.5" x2="826.5" y1="533.8828" y2="533.8828"/><text fill="#000000" font-family="sans-serif" font-size="13" font-weight="bold" lengthAdjust="spacing" textLength="14" x="671.5" y="529.0264">11</text><text fill="#000000" font-family="sans-serif" font-size="13" lengthAdjust="spacing" textLength="131" x="689.5" y="529.0264">Validate NewVaccine()</text><polygon fill="#181818" points="984.5,560.2344,994.5,564.2344,984.5,568.2344,988.5,564.2344" style="stroke:#181818;stroke-width:1.0;"/><line style="stroke:#181818;stroke-width:1.0;" x1="842.5" x2="990.5" y1="564.2344" y2="564.2344"/><text fill="#000000" font-family="sans-serif" font-size="13" font-weight="bold" lengthAdjust="spacing" textLength="14" x="849.5" y="559.3779">12</text><text fill="#000000" font-family="sans-serif" font-size="13" lengthAdjust="spacing" textLength="112" x="867.5" y="559.3779">InsertNewVaccine()</text><polygon fill="#181818" points="100.5,590.5859,90.5,594.5859,100.5,598.5859,96.5,594.5859" style="stroke:#181818;stroke-width:1.0;"/><line style="stroke:#181818;stroke-width:1.0;" x1="94.5" x2="455.5" y1="594.5859" y2="594.5859"/><text fill="#000000" font-family="sans-serif" font-size="13" font-weight="bold" lengthAdjust="spacing" textLength="14" x="106.5" y="589.7295">13</text><text fill="#000000" font-family="sans-serif" font-size="13" lengthAdjust="spacing" textLength="325" x="124.5" y="589.7295">Shows if the new vaccine as been registered sucessfully</text><!--MD5=[6d3265ed2a4200628197811afc00194b]
@startuml
autonumber
actor Administrator as ADM
participant "NewVaccinesUI" as NVUI
participant "NewVaccineController" as NVC
participant "Company" as C
participant "VaccineStore" as NV

activate ADM
loop do while (! end)
activate NVUI
activate NVC
activate C
activate NV
opt do while (!isInfoCorrect())
ADM -> NVUI : Requests a list of currently registered vaccines
end opt
NVUI -> NVC :ConsultCurrentVaccines()
NVC -> C : GetCurrentVaccines()
C -> NV : GetVaccineStore()
NV -> C : gives data
deactivate NV
C -> NVUI : Returns vaccine
deactivate C
deactivate NVC
NVUI -> ADM : List consulting interface
deactivate NVUI
deactivate ADM
deactivate NVC
loop do while(!isInfoCorrect())

opt do while (!isInfoCorrect())
ADM -> NVUI : Registers new vaccine
activate NVUI
activate ADM
ADM -> NVUI : Registers new vaccine properties
end opt
NVUI -> NVC :RegisterNewVaccine()
activate NVC
activate NVC
NVC -> C :Validate NewVaccine()
activate C
activate NV
C -> NV : InsertNewVaccine()
NVUI -> ADM : Shows if the new vaccine as been registered sucessfully
end loop
deactivate NV










deactivate ADM


@enduml

PlantUML version 1.2022.4(Sat Apr 09 14:29:17 BST 2022)
(GPL source distribution)
Java Runtime: OpenJDK Runtime Environment
JVM: OpenJDK 64-Bit Server VM
Default Encoding: Cp1252
Language: pt
Country: PT
--></g></svg>