<?xml version="1.0" encoding="UTF-8" standalone="no"?><svg xmlns="http://www.w3.org/2000/svg" xmlns:xlink="http://www.w3.org/1999/xlink" contentStyleType="text/css" height="366px" preserveAspectRatio="none" style="width:548px;height:366px;background:#FFFFFF;" version="1.1" viewBox="0 0 548 366" width="548px" zoomAndPan="magnify"><defs/><g><!--MD5=[3d2299dd598e408a7c6527ebc4d2f6b4]
class ADM--><g id="elem_ADM"><rect codeLine="2" fill="#F1F1F1" height="48" id="ADM" rx="2.5" ry="2.5" style="stroke:#181818;stroke-width:0.5;" width="115" x="20.5" y="7"/><ellipse cx="35.5" cy="23" fill="#ADD1B2" rx="11" ry="11" style="stroke:#181818;stroke-width:1.0;"/><path d="M37.5,19.5 Q37.7031,19 37.9375,18.75 Q38.1719,18.5 38.4375,18.5 Q38.9063,18.5 39.2031,18.7813 Q39.5,19.0625 39.5,19.7188 L39.5,21.2813 Q39.5,21.9375 39.2188,22.2188 Q38.9375,22.5 38.5,22.5 Q38.1094,22.5 37.8594,22.3281 Q37.6094,22.1563 37.5,21.7031 Q37.4531,21.3906 37.2813,21.2188 Q36.9688,20.8906 36.4063,20.7031 Q35.8438,20.5 35.2813,20.5 Q34.5781,20.5 33.9844,20.7813 Q33.4063,21.0625 32.9531,21.6875 Q32.5,22.3125 32.5,23.1719 L32.5,24.0938 Q32.5,25.125 33.3438,25.8125 Q34.1875,26.5 35.6875,26.5 Q36.5781,26.5 37.2031,26.2969 Q37.5625,26.1875 37.9688,25.8281 Q38.2344,25.625 38.375,25.5625 Q38.5156,25.5 38.6875,25.5 Q39.0156,25.5 39.25,25.7656 Q39.5,26.0156 39.5,26.375 Q39.5,26.7188 39.1563,27.125 Q38.6563,27.7188 37.8594,28.0469 Q36.8125,28.5 35.5313,28.5 Q34.0313,28.5 32.8281,27.9063 Q31.8594,27.4375 31.1719,26.4219 Q30.5,25.4063 30.5,24.2031 L30.5,23.1094 Q30.5,21.8594 31.0938,20.7656 Q31.7031,19.6719 32.75,19.0938 Q33.8125,18.5 35,18.5 Q35.7188,18.5 36.3438,18.75 Q36.9688,19 37.5,19.5 Z " fill="#000000"/><text fill="#000000" font-family="sans-serif" font-size="14" lengthAdjust="spacing" textLength="83" x="49.5" y="28.7285">Administrator</text><line style="stroke:#181818;stroke-width:0.5;" x1="21.5" x2="134.5" y1="39" y2="39"/><line style="stroke:#181818;stroke-width:0.5;" x1="21.5" x2="134.5" y1="47" y2="47"/></g><!--MD5=[378b18254a1b2429f435e93f5e5cc50c]
class C--><g id="elem_C"><rect codeLine="5" fill="#F1F1F1" height="48" id="C" rx="2.5" ry="2.5" style="stroke:#181818;stroke-width:0.5;" width="142" x="7" y="285.5"/><ellipse cx="22" cy="301.5" fill="#ADD1B2" rx="11" ry="11" style="stroke:#181818;stroke-width:1.0;"/><path d="M24,298 Q24.2031,297.5 24.4375,297.25 Q24.6719,297 24.9375,297 Q25.4063,297 25.7031,297.2813 Q26,297.5625 26,298.2188 L26,299.7813 Q26,300.4375 25.7188,300.7188 Q25.4375,301 25,301 Q24.6094,301 24.3594,300.8281 Q24.1094,300.6563 24,300.2031 Q23.9531,299.8906 23.7813,299.7188 Q23.4688,299.3906 22.9063,299.2031 Q22.3438,299 21.7813,299 Q21.0781,299 20.4844,299.2813 Q19.9063,299.5625 19.4531,300.1875 Q19,300.8125 19,301.6719 L19,302.5938 Q19,303.625 19.8438,304.3125 Q20.6875,305 22.1875,305 Q23.0781,305 23.7031,304.7969 Q24.0625,304.6875 24.4688,304.3281 Q24.7344,304.125 24.875,304.0625 Q25.0156,304 25.1875,304 Q25.5156,304 25.75,304.2656 Q26,304.5156 26,304.875 Q26,305.2188 25.6563,305.625 Q25.1563,306.2188 24.3594,306.5469 Q23.3125,307 22.0313,307 Q20.5313,307 19.3281,306.4063 Q18.3594,305.9375 17.6719,304.9219 Q17,303.9063 17,302.7031 L17,301.6094 Q17,300.3594 17.5938,299.2656 Q18.2031,298.1719 19.25,297.5938 Q20.3125,297 21.5,297 Q22.2188,297 22.8438,297.25 Q23.4688,297.5 24,298 Z " fill="#000000"/><text fill="#000000" font-family="sans-serif" font-size="14" lengthAdjust="spacing" textLength="110" x="36" y="307.2285">Company/System</text><line style="stroke:#181818;stroke-width:0.5;" x1="8" x2="148" y1="317.5" y2="317.5"/><line style="stroke:#181818;stroke-width:0.5;" x1="8" x2="148" y1="325.5" y2="325.5"/></g><!--MD5=[80aa808697b94075939a032f64934056]
class VA--><g id="elem_VA"><rect codeLine="7" fill="#F1F1F1" height="48" id="VA" rx="2.5" ry="2.5" style="stroke:#181818;stroke-width:0.5;" width="137" x="321.5" y="133"/><ellipse cx="336.5" cy="149" fill="#ADD1B2" rx="11" ry="11" style="stroke:#181818;stroke-width:1.0;"/><path d="M338.5,145.5 Q338.7031,145 338.9375,144.75 Q339.1719,144.5 339.4375,144.5 Q339.9063,144.5 340.2031,144.7813 Q340.5,145.0625 340.5,145.7188 L340.5,147.2813 Q340.5,147.9375 340.2188,148.2188 Q339.9375,148.5 339.5,148.5 Q339.1094,148.5 338.8594,148.3281 Q338.6094,148.1563 338.5,147.7031 Q338.4531,147.3906 338.2813,147.2188 Q337.9688,146.8906 337.4063,146.7031 Q336.8438,146.5 336.2813,146.5 Q335.5781,146.5 334.9844,146.7813 Q334.4063,147.0625 333.9531,147.6875 Q333.5,148.3125 333.5,149.1719 L333.5,150.0938 Q333.5,151.125 334.3438,151.8125 Q335.1875,152.5 336.6875,152.5 Q337.5781,152.5 338.2031,152.2969 Q338.5625,152.1875 338.9688,151.8281 Q339.2344,151.625 339.375,151.5625 Q339.5156,151.5 339.6875,151.5 Q340.0156,151.5 340.25,151.7656 Q340.5,152.0156 340.5,152.375 Q340.5,152.7188 340.1563,153.125 Q339.6563,153.7188 338.8594,154.0469 Q337.8125,154.5 336.5313,154.5 Q335.0313,154.5 333.8281,153.9063 Q332.8594,153.4375 332.1719,152.4219 Q331.5,151.4063 331.5,150.2031 L331.5,149.1094 Q331.5,147.8594 332.0938,146.7656 Q332.7031,145.6719 333.75,145.0938 Q334.8125,144.5 336,144.5 Q336.7188,144.5 337.3438,144.75 Q337.9688,145 338.5,145.5 Z " fill="#000000"/><text fill="#000000" font-family="sans-serif" font-size="14" lengthAdjust="spacing" textLength="105" x="350.5" y="154.7285">Vaccine Arraylist</text><line style="stroke:#181818;stroke-width:0.5;" x1="322.5" x2="457.5" y1="165" y2="165"/><line style="stroke:#181818;stroke-width:0.5;" x1="322.5" x2="457.5" y1="173" y2="173"/></g><!--MD5=[1ae2715697942bd221ebc3232bf48911]
class V--><g id="elem_V"><rect codeLine="9" fill="#F1F1F1" height="100.8281" id="V" rx="2.5" ry="2.5" style="stroke:#181818;stroke-width:0.5;" width="169" x="372.5" y="259"/><ellipse cx="427.75" cy="275" fill="#ADD1B2" rx="11" ry="11" style="stroke:#181818;stroke-width:1.0;"/><path d="M429.75,271.5 Q429.9531,271 430.1875,270.75 Q430.4219,270.5 430.6875,270.5 Q431.1563,270.5 431.4531,270.7813 Q431.75,271.0625 431.75,271.7188 L431.75,273.2813 Q431.75,273.9375 431.4688,274.2188 Q431.1875,274.5 430.75,274.5 Q430.3594,274.5 430.1094,274.3281 Q429.8594,274.1563 429.75,273.7031 Q429.7031,273.3906 429.5313,273.2188 Q429.2188,272.8906 428.6563,272.7031 Q428.0938,272.5 427.5313,272.5 Q426.8281,272.5 426.2344,272.7813 Q425.6563,273.0625 425.2031,273.6875 Q424.75,274.3125 424.75,275.1719 L424.75,276.0938 Q424.75,277.125 425.5938,277.8125 Q426.4375,278.5 427.9375,278.5 Q428.8281,278.5 429.4531,278.2969 Q429.8125,278.1875 430.2188,277.8281 Q430.4844,277.625 430.625,277.5625 Q430.7656,277.5 430.9375,277.5 Q431.2656,277.5 431.5,277.7656 Q431.75,278.0156 431.75,278.375 Q431.75,278.7188 431.4063,279.125 Q430.9063,279.7188 430.1094,280.0469 Q429.0625,280.5 427.7813,280.5 Q426.2813,280.5 425.0781,279.9063 Q424.1094,279.4375 423.4219,278.4219 Q422.75,277.4063 422.75,276.2031 L422.75,275.1094 Q422.75,273.8594 423.3438,272.7656 Q423.9531,271.6719 425,271.0938 Q426.0625,270.5 427.25,270.5 Q427.9688,270.5 428.5938,270.75 Q429.2188,271 429.75,271.5 Z " fill="#000000"/><text fill="#000000" font-family="sans-serif" font-size="14" lengthAdjust="spacing" textLength="50" x="448.25" y="280.7285">Vaccine</text><line style="stroke:#181818;stroke-width:0.5;" x1="373.5" x2="540.5" y1="291" y2="291"/><rect fill="none" height="6" style="stroke:#C82930;stroke-width:1.0;" width="6" x="380.5" y="299"/><text fill="#000000" font-family="sans-serif" font-size="14" lengthAdjust="spacing" textLength="132" x="392.5" y="309.5332">Manufactor company</text><rect fill="none" height="6" style="stroke:#C82930;stroke-width:1.0;" width="6" x="380.5" y="316.6094"/><text fill="#000000" font-family="sans-serif" font-size="14" lengthAdjust="spacing" textLength="118" x="392.5" y="327.1426">Vaccine properties</text><rect fill="none" height="6" style="stroke:#C82930;stroke-width:1.0;" width="6" x="380.5" y="334.2188"/><text fill="#000000" font-family="sans-serif" font-size="14" lengthAdjust="spacing" textLength="143" x="392.5" y="344.752">Administration process</text><line style="stroke:#181818;stroke-width:0.5;" x1="373.5" x2="540.5" y1="351.8281" y2="351.8281"/></g><!--MD5=[675790f91115c9b3c12592efe7516e7f]
link ADM to C--><g id="link_ADM_C"><path codeLine="14" d="M74.75,55.21 C72.06,75.64 68.45,106.23 67,133 C64.04,187.57 70.6,251.63 74.81,285.23 " fill="none" id="ADM-C" style="stroke:#181818;stroke-width:1.0;"/><text fill="#000000" font-family="sans-serif" font-size="13" lengthAdjust="spacing" textLength="235" x="68" y="162.4951">exchange of information (vaccine related)</text><text fill="#000000" font-family="sans-serif" font-size="13" lengthAdjust="spacing" textLength="7" x="66.1047" y="76.5992">1</text><text fill="#000000" font-family="sans-serif" font-size="13" lengthAdjust="spacing" textLength="5" x="68.3519" y="274.501">*</text></g><!--MD5=[78258a7847d330d1276b3624f81656d6]
link ADM to VA--><g id="link_ADM_VA"><path codeLine="15" d="M135.59,54.89 C191.49,77.11 275.9,110.65 331.95,132.93 " fill="none" id="ADM-VA" style="stroke:#181818;stroke-width:1.0;"/><text fill="#000000" font-family="sans-serif" font-size="13" lengthAdjust="spacing" textLength="120" x="254" y="99.4951">Updates the arraylist</text><text fill="#000000" font-family="sans-serif" font-size="13" lengthAdjust="spacing" textLength="7" x="142.4506" y="76.602">1</text><text fill="#000000" font-family="sans-serif" font-size="13" lengthAdjust="spacing" textLength="5" x="311.4341" y="122.2522">*</text></g><!--MD5=[666a89830e343e047838a4f87daa7e3a]
link VA to C--><g id="link_VA_C"><path codeLine="16" d="M321.45,175.14 C312.25,177.23 302.91,179.25 294,181 C251.2,189.42 131.88,181.23 100,211 C79.83,229.83 76.23,262.88 76.4,285.22 " fill="none" id="VA-C" style="stroke:#181818;stroke-width:1.0;"/><text fill="#000000" font-family="sans-serif" font-size="13" lengthAdjust="spacing" textLength="308" x="101" y="225.4951">Communicates to update current and new information</text><text fill="#000000" font-family="sans-serif" font-size="13" lengthAdjust="spacing" textLength="7" x="306.5695" y="173.7634">1</text><text fill="#000000" font-family="sans-serif" font-size="13" lengthAdjust="spacing" textLength="5" x="76.6306" y="274.4884">*</text></g><!--MD5=[57d5535f6fe52401c7ae93be641878a0]
link VA to V--><g id="link_VA_V"><path codeLine="17" d="M402.94,181.21 C407.88,190.38 413.41,201.08 418,211 C425.12,226.39 432.21,243.46 438.36,258.97 " fill="none" id="VA-V" style="stroke:#181818;stroke-width:1.0;"/><text fill="#000000" font-family="sans-serif" font-size="13" lengthAdjust="spacing" textLength="84" x="426" y="225.4951">Constituted by</text><text fill="#000000" font-family="sans-serif" font-size="13" lengthAdjust="spacing" textLength="7" x="398.241" y="202.5992">1</text><text fill="#000000" font-family="sans-serif" font-size="13" lengthAdjust="spacing" textLength="5" x="430.3872" y="248.2711">*</text></g><!--MD5=[14d76b178b12cedb710fbc0ad86724c1]
@startuml
'https://plantuml.com/use-case-diagram
class "Administrator" as ADM{
}

class "Company/System" as C{}

class "Vaccine Arraylist" as VA{
}
class "Vaccine" as V{
- Manufactor company
- Vaccine properties
- Administration process
}
ADM"1"- -"*"C: exchange of information (vaccine related)
ADM"1"- -"*"VA: Updates the arraylist
VA"1"- -"*"C: Communicates to update current and new information
VA"1"- -"*"V: Constituted by

@enduml

@startuml
class "Administrator" as ADM{
}

class "Company/System" as C{}

class "Vaccine Arraylist" as VA{
}
class "Vaccine" as V{
- Manufactor company
- Vaccine properties
- Administration process
}
ADM"1"- -"*"C: exchange of information (vaccine related)
ADM"1"- -"*"VA: Updates the arraylist
VA"1"- -"*"C: Communicates to update current and new information
VA"1"- -"*"V: Constituted by

@enduml

PlantUML version 1.2022.4(Sat Apr 09 14:29:17 BST 2022)
(GPL source distribution)
Java Runtime: OpenJDK Runtime Environment
JVM: OpenJDK 64-Bit Server VM
Default Encoding: Cp1252
Language: pt
Country: PT
--></g></svg>