<?xml version="1.0" encoding="UTF-8" standalone="no"?><svg xmlns="http://www.w3.org/2000/svg" xmlns:xlink="http://www.w3.org/1999/xlink" contentStyleType="text/css" height="366px" preserveAspectRatio="none" style="width:464px;height:366px;background:#FFFFFF;" version="1.1" viewBox="0 0 464 366" width="464px" zoomAndPan="magnify"><defs/><g><rect fill="#FFFFFF" height="52.7031" style="stroke:#181818;stroke-width:1.0;" width="10" x="44.5" y="92.6094"/><rect fill="#FFFFFF" height="30.3516" style="stroke:#181818;stroke-width:1.0;" width="10" x="44.5" y="175.6641"/><rect fill="#FFFFFF" height="30.3516" style="stroke:#181818;stroke-width:1.0;" width="10" x="44.5" y="236.3672"/><rect fill="#FFFFFF" height="52.7031" style="stroke:#181818;stroke-width:1.0;" width="10" x="432.5" y="92.6094"/><rect fill="#FFFFFF" height="30.3516" style="stroke:#181818;stroke-width:1.0;" width="10" x="432.5" y="175.6641"/><rect fill="#FFFFFF" height="30.3516" style="stroke:#181818;stroke-width:1.0;" width="10" x="432.5" y="236.3672"/><line style="stroke:#181818;stroke-width:0.5;stroke-dasharray:5.0,5.0;" x1="49" x2="49" y1="82.6094" y2="284.7188"/><line style="stroke:#181818;stroke-width:0.5;stroke-dasharray:5.0,5.0;" x1="437.5" x2="437.5" y1="82.6094" y2="284.7188"/><text fill="#000000" font-family="sans-serif" font-size="14" lengthAdjust="spacing" textLength="83" x="5" y="79.5332">Administrator</text><ellipse cx="49.5" cy="13.5" fill="#E2E2F0" rx="8" ry="8" style="stroke:#181818;stroke-width:0.5;"/><path d="M49.5,21.5 L49.5,48.5 M36.5,29.5 L62.5,29.5 M49.5,48.5 L36.5,63.5 M49.5,48.5 L62.5,63.5 " fill="none" style="stroke:#181818;stroke-width:0.5;"/><text fill="#000000" font-family="sans-serif" font-size="14" lengthAdjust="spacing" textLength="83" x="5" y="298.252">Administrator</text><ellipse cx="49.5" cy="309.8281" fill="#E2E2F0" rx="8" ry="8" style="stroke:#181818;stroke-width:0.5;"/><path d="M49.5,317.8281 L49.5,344.8281 M36.5,325.8281 L62.5,325.8281 M49.5,344.8281 L36.5,359.8281 M49.5,344.8281 L62.5,359.8281 " fill="none" style="stroke:#181818;stroke-width:0.5;"/><text fill="#000000" font-family="sans-serif" font-size="14" lengthAdjust="spacing" textLength="46" x="411.5" y="79.5332">System</text><ellipse cx="437.5" cy="13.5" fill="#E2E2F0" rx="8" ry="8" style="stroke:#181818;stroke-width:0.5;"/><path d="M437.5,21.5 L437.5,48.5 M424.5,29.5 L450.5,29.5 M437.5,48.5 L424.5,63.5 M437.5,48.5 L450.5,63.5 " fill="none" style="stroke:#181818;stroke-width:0.5;"/><text fill="#000000" font-family="sans-serif" font-size="14" lengthAdjust="spacing" textLength="46" x="411.5" y="298.252">System</text><ellipse cx="437.5" cy="309.8281" fill="#E2E2F0" rx="8" ry="8" style="stroke:#181818;stroke-width:0.5;"/><path d="M437.5,317.8281 L437.5,344.8281 M424.5,325.8281 L450.5,325.8281 M437.5,344.8281 L424.5,359.8281 M437.5,344.8281 L450.5,359.8281 " fill="none" style="stroke:#181818;stroke-width:0.5;"/><rect fill="#FFFFFF" height="52.7031" style="stroke:#181818;stroke-width:1.0;" width="10" x="44.5" y="92.6094"/><rect fill="#FFFFFF" height="30.3516" style="stroke:#181818;stroke-width:1.0;" width="10" x="44.5" y="175.6641"/><rect fill="#FFFFFF" height="30.3516" style="stroke:#181818;stroke-width:1.0;" width="10" x="44.5" y="236.3672"/><rect fill="#FFFFFF" height="52.7031" style="stroke:#181818;stroke-width:1.0;" width="10" x="432.5" y="92.6094"/><rect fill="#FFFFFF" height="30.3516" style="stroke:#181818;stroke-width:1.0;" width="10" x="432.5" y="175.6641"/><rect fill="#FFFFFF" height="30.3516" style="stroke:#181818;stroke-width:1.0;" width="10" x="432.5" y="236.3672"/><polygon fill="#181818" points="65.5,110.9609,55.5,114.9609,65.5,118.9609,61.5,114.9609" style="stroke:#181818;stroke-width:1.0;"/><line style="stroke:#181818;stroke-width:1.0;" x1="59.5" x2="431.5" y1="114.9609" y2="114.9609"/><text fill="#000000" font-family="sans-serif" font-size="13" lengthAdjust="spacing" textLength="354" x="71.5" y="110.1045">1 Requests which type of operation the user wants to perform</text><polygon fill="#181818" points="425.5,141.3125,435.5,145.3125,425.5,149.3125,429.5,145.3125" style="stroke:#181818;stroke-width:1.0;"/><line style="stroke:#181818;stroke-width:1.0;stroke-dasharray:2.0,2.0;" x1="49.5" x2="431.5" y1="145.3125" y2="145.3125"/><text fill="#000000" font-family="sans-serif" font-size="13" lengthAdjust="spacing" textLength="130" x="56.5" y="140.4561">1.1 Returns an answer</text><polygon fill="#181818" points="420.5,171.6641,430.5,175.6641,420.5,179.6641,424.5,175.6641" style="stroke:#181818;stroke-width:1.0;"/><line style="stroke:#181818;stroke-width:1.0;" x1="54.5" x2="426.5" y1="175.6641" y2="175.6641"/><text fill="#000000" font-family="sans-serif" font-size="13" lengthAdjust="spacing" textLength="338" x="61.5" y="170.8076">2 Requests information about currently registered vaccines</text><polygon fill="#181818" points="60.5,202.0156,50.5,206.0156,60.5,210.0156,56.5,206.0156" style="stroke:#181818;stroke-width:1.0;"/><line style="stroke:#181818;stroke-width:1.0;stroke-dasharray:2.0,2.0;" x1="54.5" x2="436.5" y1="206.0156" y2="206.0156"/><text fill="#000000" font-family="sans-serif" font-size="13" lengthAdjust="spacing" textLength="272" x="66.5" y="201.1592">2.1 Gives information about registered vaccines</text><polygon fill="#181818" points="420.5,232.3672,430.5,236.3672,420.5,240.3672,424.5,236.3672" style="stroke:#181818;stroke-width:1.0;"/><line style="stroke:#181818;stroke-width:1.0;" x1="54.5" x2="426.5" y1="236.3672" y2="236.3672"/><text fill="#000000" font-family="sans-serif" font-size="13" lengthAdjust="spacing" textLength="251" x="61.5" y="231.5107">3 Registers new vaccines and its properties</text><polygon fill="#181818" points="60.5,262.7188,50.5,266.7188,60.5,270.7188,56.5,266.7188" style="stroke:#181818;stroke-width:1.0;"/><line style="stroke:#181818;stroke-width:1.0;stroke-dasharray:2.0,2.0;" x1="54.5" x2="436.5" y1="266.7188" y2="266.7188"/><text fill="#000000" font-family="sans-serif" font-size="13" lengthAdjust="spacing" textLength="217" x="66.5" y="261.8623">3.1 Returns updated list (if requested)</text><!--MD5=[f8766003b69e9c4e7e3891cb500d7645]
@startuml
'https://plantuml.com/use-case-diagram


actor "Administrator" as ADM
actor "System" as C

activate ADM
activate C
C -> ADM: 1 Requests which type of operation the user wants to perform
ADM - -> C : 1.1 Returns an answer
deactivate ADM
deactivate C

ADM -> C :  2 Requests information about currently registered vaccines
activate ADM
activate C
C - -> ADM :  2.1 Gives information about registered vaccines
deactivate ADM
deactivate C



ADM -> C :  3 Registers new vaccines and its properties
activate ADM
activate C

C - -> ADM :  3.1 Returns updated list (if requested)

deactivate C
deactivate ADM

@enduml

@startuml


actor "Administrator" as ADM
actor "System" as C

activate ADM
activate C
C -> ADM: 1 Requests which type of operation the user wants to perform
ADM - -> C : 1.1 Returns an answer
deactivate ADM
deactivate C

ADM -> C :  2 Requests information about currently registered vaccines
activate ADM
activate C
C - -> ADM :  2.1 Gives information about registered vaccines
deactivate ADM
deactivate C



ADM -> C :  3 Registers new vaccines and its properties
activate ADM
activate C

C - -> ADM :  3.1 Returns updated list (if requested)

deactivate C
deactivate ADM

@enduml

PlantUML version 1.2022.4(Sat Apr 09 14:29:17 BST 2022)
(GPL source distribution)
Java Runtime: OpenJDK Runtime Environment
JVM: OpenJDK 64-Bit Server VM
Default Encoding: Cp1252
Language: pt
Country: PT
--></g></svg>