<?xml version="1.0" encoding="UTF-8" standalone="no"?><svg xmlns="http://www.w3.org/2000/svg" xmlns:xlink="http://www.w3.org/1999/xlink" contentStyleType="text/css" height="487px" preserveAspectRatio="none" style="width:655px;height:487px;background:#FFFFFF;" version="1.1" viewBox="0 0 655 487" width="655px" zoomAndPan="magnify"><defs/><g><rect fill="#FFFFFF" height="304.1641" style="stroke:#181818;stroke-width:1.0;" width="10" x="43.5" y="92.6094"/><rect fill="#FFFFFF" height="30.3516" style="stroke:#181818;stroke-width:1.0;" width="10" x="612.5" y="114.9609"/><rect fill="#FFFFFF" height="30.3516" style="stroke:#181818;stroke-width:1.0;" width="10" x="612.5" y="175.6641"/><rect fill="#FFFFFF" height="30.3516" style="stroke:#181818;stroke-width:1.0;" width="10" x="612.5" y="236.3672"/><rect fill="#FFFFFF" height="30.3516" style="stroke:#181818;stroke-width:1.0;" width="10" x="612.5" y="297.0703"/><rect fill="#FFFFFF" height="30" style="stroke:#181818;stroke-width:1.0;" width="10" x="612.5" y="357.7734"/><line style="stroke:#181818;stroke-width:0.5;stroke-dasharray:5.0,5.0;" x1="48" x2="48" y1="82.6094" y2="405.7734"/><line style="stroke:#181818;stroke-width:0.5;stroke-dasharray:5.0,5.0;" x1="617.5" x2="617.5" y1="82.6094" y2="405.7734"/><text fill="#000000" font-family="sans-serif" font-size="14" lengthAdjust="spacing" textLength="81" x="5" y="79.5332">Recepcionist</text><ellipse cx="48.5" cy="13.5" fill="#E2E2F0" rx="8" ry="8" style="stroke:#181818;stroke-width:0.5;"/><path d="M48.5,21.5 L48.5,48.5 M35.5,29.5 L61.5,29.5 M48.5,48.5 L35.5,63.5 M48.5,48.5 L61.5,63.5 " fill="none" style="stroke:#181818;stroke-width:0.5;"/><text fill="#000000" font-family="sans-serif" font-size="14" lengthAdjust="spacing" textLength="81" x="5" y="419.3066">Recepcionist</text><ellipse cx="48.5" cy="430.8828" fill="#E2E2F0" rx="8" ry="8" style="stroke:#181818;stroke-width:0.5;"/><path d="M48.5,438.8828 L48.5,465.8828 M35.5,446.8828 L61.5,446.8828 M48.5,465.8828 L35.5,480.8828 M48.5,465.8828 L61.5,480.8828 " fill="none" style="stroke:#181818;stroke-width:0.5;"/><rect fill="#E2E2F0" height="31.6094" rx="2.5" ry="2.5" style="stroke:#181818;stroke-width:0.5;" width="64" x="585.5" y="50"/><text fill="#000000" font-family="sans-serif" font-size="14" lengthAdjust="spacing" textLength="50" x="592.5" y="71.5332">:System</text><rect fill="#E2E2F0" height="31.6094" rx="2.5" ry="2.5" style="stroke:#181818;stroke-width:0.5;" width="64" x="585.5" y="404.7734"/><text fill="#000000" font-family="sans-serif" font-size="14" lengthAdjust="spacing" textLength="50" x="592.5" y="426.3066">:System</text><rect fill="#FFFFFF" height="304.1641" style="stroke:#181818;stroke-width:1.0;" width="10" x="43.5" y="92.6094"/><rect fill="#FFFFFF" height="30.3516" style="stroke:#181818;stroke-width:1.0;" width="10" x="612.5" y="114.9609"/><rect fill="#FFFFFF" height="30.3516" style="stroke:#181818;stroke-width:1.0;" width="10" x="612.5" y="175.6641"/><rect fill="#FFFFFF" height="30.3516" style="stroke:#181818;stroke-width:1.0;" width="10" x="612.5" y="236.3672"/><rect fill="#FFFFFF" height="30.3516" style="stroke:#181818;stroke-width:1.0;" width="10" x="612.5" y="297.0703"/><rect fill="#FFFFFF" height="30" style="stroke:#181818;stroke-width:1.0;" width="10" x="612.5" y="357.7734"/><polygon fill="#181818" points="600.5,110.9609,610.5,114.9609,600.5,118.9609,604.5,114.9609" style="stroke:#181818;stroke-width:1.0;"/><line style="stroke:#181818;stroke-width:1.0;" x1="53.5" x2="606.5" y1="114.9609" y2="114.9609"/><text fill="#000000" font-family="sans-serif" font-size="13" font-weight="bold" lengthAdjust="spacing" textLength="7" x="60.5" y="110.1045">1</text><text fill="#000000" font-family="sans-serif" font-size="13" lengthAdjust="spacing" textLength="153" x="71.5" y="110.1045">Starts a schedule Vaccine</text><polygon fill="#181818" points="64.5,141.3125,54.5,145.3125,64.5,149.3125,60.5,145.3125" style="stroke:#181818;stroke-width:1.0;"/><line style="stroke:#181818;stroke-width:1.0;stroke-dasharray:2.0,2.0;" x1="58.5" x2="616.5" y1="145.3125" y2="145.3125"/><text fill="#000000" font-family="sans-serif" font-size="13" font-weight="bold" lengthAdjust="spacing" textLength="7" x="70.5" y="140.4561">2</text><text fill="#000000" font-family="sans-serif" font-size="13" lengthAdjust="spacing" textLength="414" x="81.5" y="140.4561">Request Data (number, age, gender, vaccine, date, hours, NameCenter)</text><polygon fill="#181818" points="600.5,171.6641,610.5,175.6641,600.5,179.6641,604.5,175.6641" style="stroke:#181818;stroke-width:1.0;"/><line style="stroke:#181818;stroke-width:1.0;" x1="53.5" x2="606.5" y1="175.6641" y2="175.6641"/><text fill="#000000" font-family="sans-serif" font-size="13" font-weight="bold" lengthAdjust="spacing" textLength="7" x="60.5" y="170.8076">3</text><text fill="#000000" font-family="sans-serif" font-size="13" lengthAdjust="spacing" textLength="125" x="71.5" y="170.8076">Types requested data</text><polygon fill="#181818" points="64.5,202.0156,54.5,206.0156,64.5,210.0156,60.5,206.0156" style="stroke:#181818;stroke-width:1.0;"/><line style="stroke:#181818;stroke-width:1.0;stroke-dasharray:2.0,2.0;" x1="58.5" x2="616.5" y1="206.0156" y2="206.0156"/><text fill="#000000" font-family="sans-serif" font-size="13" font-weight="bold" lengthAdjust="spacing" textLength="7" x="70.5" y="201.1592">4</text><text fill="#000000" font-family="sans-serif" font-size="13" lengthAdjust="spacing" textLength="236" x="81.5" y="201.1592">Shows the data and request confirmation</text><polygon fill="#181818" points="600.5,232.3672,610.5,236.3672,600.5,240.3672,604.5,236.3672" style="stroke:#181818;stroke-width:1.0;"/><line style="stroke:#181818;stroke-width:1.0;" x1="53.5" x2="606.5" y1="236.3672" y2="236.3672"/><text fill="#000000" font-family="sans-serif" font-size="13" font-weight="bold" lengthAdjust="spacing" textLength="7" x="60.5" y="231.5107">5</text><text fill="#000000" font-family="sans-serif" font-size="13" lengthAdjust="spacing" textLength="99" x="71.5" y="231.5107">types information</text><polygon fill="#181818" points="64.5,262.7188,54.5,266.7188,64.5,270.7188,60.5,266.7188" style="stroke:#181818;stroke-width:1.0;"/><line style="stroke:#181818;stroke-width:1.0;stroke-dasharray:2.0,2.0;" x1="58.5" x2="616.5" y1="266.7188" y2="266.7188"/><text fill="#000000" font-family="sans-serif" font-size="13" font-weight="bold" lengthAdjust="spacing" textLength="7" x="70.5" y="261.8623">6</text><text fill="#000000" font-family="sans-serif" font-size="13" lengthAdjust="spacing" textLength="197" x="81.5" y="261.8623">shows info and asks if it is correct</text><polygon fill="#181818" points="64.5,293.0703,54.5,297.0703,64.5,301.0703,60.5,297.0703" style="stroke:#181818;stroke-width:1.0;"/><line style="stroke:#181818;stroke-width:1.0;" x1="58.5" x2="611.5" y1="297.0703" y2="297.0703"/><text fill="#000000" font-family="sans-serif" font-size="13" font-weight="bold" lengthAdjust="spacing" textLength="7" x="70.5" y="292.2139">7</text><text fill="#000000" font-family="sans-serif" font-size="13" lengthAdjust="spacing" textLength="222" x="81.5" y="292.2139">confirms that the information is correct</text><polygon fill="#181818" points="64.5,323.4219,54.5,327.4219,64.5,331.4219,60.5,327.4219" style="stroke:#181818;stroke-width:1.0;"/><line style="stroke:#181818;stroke-width:1.0;stroke-dasharray:2.0,2.0;" x1="58.5" x2="616.5" y1="327.4219" y2="327.4219"/><text fill="#000000" font-family="sans-serif" font-size="13" font-weight="bold" lengthAdjust="spacing" textLength="7" x="70.5" y="322.5654">8</text><text fill="#000000" font-family="sans-serif" font-size="13" lengthAdjust="spacing" textLength="524" x="81.5" y="322.5654">system will confirm that the Schedule has been registered and will ask if user wants to exit</text><polygon fill="#181818" points="600.5,353.7734,610.5,357.7734,600.5,361.7734,604.5,357.7734" style="stroke:#181818;stroke-width:1.0;"/><line style="stroke:#181818;stroke-width:1.0;" x1="53.5" x2="606.5" y1="357.7734" y2="357.7734"/><text fill="#000000" font-family="sans-serif" font-size="13" font-weight="bold" lengthAdjust="spacing" textLength="7" x="60.5" y="352.917">9</text><text fill="#000000" font-family="sans-serif" font-size="13" lengthAdjust="spacing" textLength="267" x="71.5" y="352.917">decides to exit or to register another Schedule</text><!--MD5=[2cb65faf52008ebf09539f80f81bd967]
@startuml
autonumber
actor "Recepcionist" as RPT
activate RPT

RPT -> ":System" : Starts a schedule Vaccine

activate ":System"
":System" - -> RPT : Request Data (number, age, gender, vaccine, date, hours, NameCenter)
deactivate ":System"

RPT -> ":System" : Types requested data

activate ":System"
":System" - -> RPT : Shows the data and request confirmation
deactivate ":System"

RPT -> ":System" : types information

activate ":System"
":System" - -> RPT : shows info and asks if it is correct
deactivate ":System"

":System" -> "RPT" : confirms that the information is correct

activate ":System"
":System" - -> RPT : system will confirm that the Schedule has been registered and will ask if user wants to exit
deactivate ":System"
RPT -> ":System" : decides to exit or to register another Schedule
activate ":System"
deactivate ":System"
@enduml

PlantUML version 1.2022.4(Sat Apr 09 14:29:17 BST 2022)
(GPL source distribution)
Java Runtime: OpenJDK Runtime Environment
JVM: OpenJDK 64-Bit Server VM
Default Encoding: Cp1252
Language: pt
Country: PT
--></g></svg>