<?xml version="1.0" encoding="UTF-8" standalone="no"?><svg xmlns="http://www.w3.org/2000/svg" xmlns:xlink="http://www.w3.org/1999/xlink" contentStyleType="text/css" height="649px" preserveAspectRatio="none" style="width:278px;height:649px;background:#FFFFFF;" version="1.1" viewBox="0 0 278 649" width="278px" zoomAndPan="magnify"><defs/><g><!--MD5=[8e0ff4fb9ad8e90335f8f7ad6808b682]
class Recepcionist--><g id="elem_Recepcionist"><rect codeLine="28" fill="#F1F1F1" height="100.8281" id="Recepcionist" rx="2.5" ry="2.5" style="stroke:#181818;stroke-width:0.5;" width="113" x="141" y="292"/><ellipse cx="156" cy="308" fill="#ADD1B2" rx="11" ry="11" style="stroke:#181818;stroke-width:1.0;"/><path d="M158,304.5 Q158.2031,304 158.4375,303.75 Q158.6719,303.5 158.9375,303.5 Q159.4063,303.5 159.7031,303.7813 Q160,304.0625 160,304.7188 L160,306.2813 Q160,306.9375 159.7188,307.2188 Q159.4375,307.5 159,307.5 Q158.6094,307.5 158.3594,307.3281 Q158.1094,307.1563 158,306.7031 Q157.9531,306.3906 157.7813,306.2188 Q157.4688,305.8906 156.9063,305.7031 Q156.3438,305.5 155.7813,305.5 Q155.0781,305.5 154.4844,305.7813 Q153.9063,306.0625 153.4531,306.6875 Q153,307.3125 153,308.1719 L153,309.0938 Q153,310.125 153.8438,310.8125 Q154.6875,311.5 156.1875,311.5 Q157.0781,311.5 157.7031,311.2969 Q158.0625,311.1875 158.4688,310.8281 Q158.7344,310.625 158.875,310.5625 Q159.0156,310.5 159.1875,310.5 Q159.5156,310.5 159.75,310.7656 Q160,311.0156 160,311.375 Q160,311.7188 159.6563,312.125 Q159.1563,312.7188 158.3594,313.0469 Q157.3125,313.5 156.0313,313.5 Q154.5313,313.5 153.3281,312.9063 Q152.3594,312.4375 151.6719,311.4219 Q151,310.4063 151,309.2031 L151,308.1094 Q151,306.8594 151.5938,305.7656 Q152.2031,304.6719 153.25,304.0938 Q154.3125,303.5 155.5,303.5 Q156.2188,303.5 156.8438,303.75 Q157.4688,304 158,304.5 Z " fill="#000000"/><text fill="#000000" font-family="sans-serif" font-size="14" lengthAdjust="spacing" textLength="81" x="170" y="313.7285">Recepcionist</text><line style="stroke:#181818;stroke-width:0.5;" x1="142" x2="253" y1="324" y2="324"/><text fill="#000000" font-family="sans-serif" font-size="14" lengthAdjust="spacing" textLength="35" x="147" y="342.5332">name</text><text fill="#000000" font-family="sans-serif" font-size="14" lengthAdjust="spacing" textLength="33" x="147" y="360.1426">email</text><text fill="#000000" font-family="sans-serif" font-size="14" lengthAdjust="spacing" textLength="60" x="147" y="377.752">password</text><line style="stroke:#181818;stroke-width:0.5;" x1="142" x2="253" y1="384.8281" y2="384.8281"/></g><!--MD5=[02e4b9b7573f1156f41e60aa5b4e25a4]
class Company--><g id="elem_Company"><rect codeLine="12" fill="#F1F1F1" height="65.6094" id="Company" rx="2.5" ry="2.5" style="stroke:#181818;stroke-width:0.5;" width="99" x="7" y="309.5"/><ellipse cx="25.15" cy="325.5" fill="#ADD1B2" rx="11" ry="11" style="stroke:#181818;stroke-width:1.0;"/><path d="M27.15,322 Q27.3531,321.5 27.5875,321.25 Q27.8219,321 28.0875,321 Q28.5563,321 28.8531,321.2813 Q29.15,321.5625 29.15,322.2188 L29.15,323.7813 Q29.15,324.4375 28.8688,324.7188 Q28.5875,325 28.15,325 Q27.7594,325 27.5094,324.8281 Q27.2594,324.6563 27.15,324.2031 Q27.1031,323.8906 26.9313,323.7188 Q26.6188,323.3906 26.0563,323.2031 Q25.4938,323 24.9313,323 Q24.2281,323 23.6344,323.2813 Q23.0563,323.5625 22.6031,324.1875 Q22.15,324.8125 22.15,325.6719 L22.15,326.5938 Q22.15,327.625 22.9938,328.3125 Q23.8375,329 25.3375,329 Q26.2281,329 26.8531,328.7969 Q27.2125,328.6875 27.6188,328.3281 Q27.8844,328.125 28.025,328.0625 Q28.1656,328 28.3375,328 Q28.6656,328 28.9,328.2656 Q29.15,328.5156 29.15,328.875 Q29.15,329.2188 28.8063,329.625 Q28.3063,330.2188 27.5094,330.5469 Q26.4625,331 25.1813,331 Q23.6813,331 22.4781,330.4063 Q21.5094,329.9375 20.8219,328.9219 Q20.15,327.9063 20.15,326.7031 L20.15,325.6094 Q20.15,324.3594 20.7438,323.2656 Q21.3531,322.1719 22.4,321.5938 Q23.4625,321 24.65,321 Q25.3688,321 25.9938,321.25 Q26.6188,321.5 27.15,322 Z " fill="#000000"/><text fill="#000000" font-family="sans-serif" font-size="14" lengthAdjust="spacing" textLength="60" x="39.85" y="331.2285">Company</text><line style="stroke:#181818;stroke-width:0.5;" x1="8" x2="105" y1="341.5" y2="341.5"/><rect fill="none" height="6" style="stroke:#C82930;stroke-width:1.0;" width="6" x="15" y="349.5"/><text fill="#000000" font-family="sans-serif" font-size="14" lengthAdjust="spacing" textLength="73" x="27" y="360.0332">designation</text><line style="stroke:#181818;stroke-width:0.5;" x1="8" x2="105" y1="367.1094" y2="367.1094"/></g><!--MD5=[8d21a970f1bd1e0e0584d0ecf91221be]
class ScheduleVaccine--><g id="elem_ScheduleVaccine"><rect codeLine="34" fill="#F1F1F1" height="171.2656" id="ScheduleVaccine" rx="2.5" ry="2.5" style="stroke:#181818;stroke-width:0.5;" width="141" x="25" y="471"/><ellipse cx="40" cy="487" fill="#ADD1B2" rx="11" ry="11" style="stroke:#181818;stroke-width:1.0;"/><path d="M42,483.5 Q42.2031,483 42.4375,482.75 Q42.6719,482.5 42.9375,482.5 Q43.4063,482.5 43.7031,482.7813 Q44,483.0625 44,483.7188 L44,485.2813 Q44,485.9375 43.7188,486.2188 Q43.4375,486.5 43,486.5 Q42.6094,486.5 42.3594,486.3281 Q42.1094,486.1563 42,485.7031 Q41.9531,485.3906 41.7813,485.2188 Q41.4688,484.8906 40.9063,484.7031 Q40.3438,484.5 39.7813,484.5 Q39.0781,484.5 38.4844,484.7813 Q37.9063,485.0625 37.4531,485.6875 Q37,486.3125 37,487.1719 L37,488.0938 Q37,489.125 37.8438,489.8125 Q38.6875,490.5 40.1875,490.5 Q41.0781,490.5 41.7031,490.2969 Q42.0625,490.1875 42.4688,489.8281 Q42.7344,489.625 42.875,489.5625 Q43.0156,489.5 43.1875,489.5 Q43.5156,489.5 43.75,489.7656 Q44,490.0156 44,490.375 Q44,490.7188 43.6563,491.125 Q43.1563,491.7188 42.3594,492.0469 Q41.3125,492.5 40.0313,492.5 Q38.5313,492.5 37.3281,491.9063 Q36.3594,491.4375 35.6719,490.4219 Q35,489.4063 35,488.2031 L35,487.1094 Q35,485.8594 35.5938,484.7656 Q36.2031,483.6719 37.25,483.0938 Q38.3125,482.5 39.5,482.5 Q40.2188,482.5 40.8438,482.75 Q41.4688,483 42,483.5 Z " fill="#000000"/><text fill="#000000" font-family="sans-serif" font-size="14" lengthAdjust="spacing" textLength="109" x="54" y="492.7285">ScheduleVaccine</text><line style="stroke:#181818;stroke-width:0.5;" x1="26" x2="165" y1="503" y2="503"/><rect fill="none" height="6" style="stroke:#C82930;stroke-width:1.0;" width="6" x="33" y="511"/><text fill="#000000" font-family="sans-serif" font-size="14" lengthAdjust="spacing" textLength="48" x="45" y="521.5332">number</text><rect fill="none" height="6" style="stroke:#C82930;stroke-width:1.0;" width="6" x="33" y="528.6094"/><text fill="#000000" font-family="sans-serif" font-size="14" lengthAdjust="spacing" textLength="24" x="45" y="539.1426">age</text><rect fill="none" height="6" style="stroke:#C82930;stroke-width:1.0;" width="6" x="33" y="546.2188"/><text fill="#000000" font-family="sans-serif" font-size="14" lengthAdjust="spacing" textLength="45" x="45" y="556.752">gender</text><rect fill="none" height="6" style="stroke:#C82930;stroke-width:1.0;" width="6" x="33" y="563.8281"/><text fill="#000000" font-family="sans-serif" font-size="14" lengthAdjust="spacing" textLength="48" x="45" y="574.3613">vaccine</text><rect fill="none" height="6" style="stroke:#C82930;stroke-width:1.0;" width="6" x="33" y="581.4375"/><text fill="#000000" font-family="sans-serif" font-size="14" lengthAdjust="spacing" textLength="28" x="45" y="591.9707">date</text><rect fill="none" height="6" style="stroke:#C82930;stroke-width:1.0;" width="6" x="33" y="599.0469"/><text fill="#000000" font-family="sans-serif" font-size="14" lengthAdjust="spacing" textLength="36" x="45" y="609.5801">hours</text><rect fill="none" height="6" style="stroke:#C82930;stroke-width:1.0;" width="6" x="33" y="616.6563"/><text fill="#000000" font-family="sans-serif" font-size="14" lengthAdjust="spacing" textLength="79" x="45" y="627.1895">NameCenter</text><line style="stroke:#181818;stroke-width:0.5;" x1="26" x2="165" y1="634.2656" y2="634.2656"/></g><!--MD5=[de60e6d4f424ae4d0522096f76a59010]
class VaccinationCenter--><g id="elem_VaccinationCenter"><rect codeLine="15" fill="#F1F1F1" height="224.0938" id="VaccinationCenter" rx="2.5" ry="2.5" style="stroke:#181818;stroke-width:0.5;" width="148" x="123.5" y="7"/><ellipse cx="138.5" cy="23" fill="#ADD1B2" rx="11" ry="11" style="stroke:#181818;stroke-width:1.0;"/><path d="M140.5,19.5 Q140.7031,19 140.9375,18.75 Q141.1719,18.5 141.4375,18.5 Q141.9063,18.5 142.2031,18.7813 Q142.5,19.0625 142.5,19.7188 L142.5,21.2813 Q142.5,21.9375 142.2188,22.2188 Q141.9375,22.5 141.5,22.5 Q141.1094,22.5 140.8594,22.3281 Q140.6094,22.1563 140.5,21.7031 Q140.4531,21.3906 140.2813,21.2188 Q139.9688,20.8906 139.4063,20.7031 Q138.8438,20.5 138.2813,20.5 Q137.5781,20.5 136.9844,20.7813 Q136.4063,21.0625 135.9531,21.6875 Q135.5,22.3125 135.5,23.1719 L135.5,24.0938 Q135.5,25.125 136.3438,25.8125 Q137.1875,26.5 138.6875,26.5 Q139.5781,26.5 140.2031,26.2969 Q140.5625,26.1875 140.9688,25.8281 Q141.2344,25.625 141.375,25.5625 Q141.5156,25.5 141.6875,25.5 Q142.0156,25.5 142.25,25.7656 Q142.5,26.0156 142.5,26.375 Q142.5,26.7188 142.1563,27.125 Q141.6563,27.7188 140.8594,28.0469 Q139.8125,28.5 138.5313,28.5 Q137.0313,28.5 135.8281,27.9063 Q134.8594,27.4375 134.1719,26.4219 Q133.5,25.4063 133.5,24.2031 L133.5,23.1094 Q133.5,21.8594 134.0938,20.7656 Q134.7031,19.6719 135.75,19.0938 Q136.8125,18.5 138,18.5 Q138.7188,18.5 139.3438,18.75 Q139.9688,19 140.5,19.5 Z " fill="#000000"/><text fill="#000000" font-family="sans-serif" font-size="14" lengthAdjust="spacing" textLength="116" x="152.5" y="28.7285">VaccinationCenter</text><line style="stroke:#181818;stroke-width:0.5;" x1="124.5" x2="270.5" y1="39" y2="39"/><text fill="#000000" font-family="sans-serif" font-size="14" lengthAdjust="spacing" textLength="35" x="129.5" y="57.5332">name</text><text fill="#000000" font-family="sans-serif" font-size="14" lengthAdjust="spacing" textLength="33" x="129.5" y="75.1426">email</text><text fill="#000000" font-family="sans-serif" font-size="14" lengthAdjust="spacing" textLength="89" x="129.5" y="92.752">phoneNumber</text><text fill="#000000" font-family="sans-serif" font-size="14" lengthAdjust="spacing" textLength="51" x="129.5" y="110.3613">address</text><text fill="#000000" font-family="sans-serif" font-size="14" lengthAdjust="spacing" textLength="77" x="129.5" y="127.9707">webAddress</text><text fill="#000000" font-family="sans-serif" font-size="14" lengthAdjust="spacing" textLength="67" x="129.5" y="145.5801">faxNumber</text><text fill="#000000" font-family="sans-serif" font-size="14" lengthAdjust="spacing" textLength="41" x="129.5" y="163.1895">vctype</text><text fill="#000000" font-family="sans-serif" font-size="14" lengthAdjust="spacing" textLength="76" x="129.5" y="180.7988">slotDuration</text><text fill="#000000" font-family="sans-serif" font-size="14" lengthAdjust="spacing" textLength="82" x="129.5" y="198.4082">maxVaccines</text><text fill="#000000" font-family="sans-serif" font-size="14" lengthAdjust="spacing" textLength="57" x="129.5" y="216.0176">schedule</text><line style="stroke:#181818;stroke-width:0.5;" x1="124.5" x2="270.5" y1="223.0938" y2="223.0938"/></g><!--MD5=[e8c0c25edcb9f30f80ee1f18ad99c36c]
link Recepcionist to ScheduleVaccine--><g id="link_Recepcionist_ScheduleVaccine"><path codeLine="45" d="M173.59,393.2 C163.11,414.98 150.48,441.22 138.47,466.19 " fill="none" id="Recepcionist-to-ScheduleVaccine" style="stroke:#181818;stroke-width:1.0;"/><polygon fill="#181818" points="136.23,470.84,143.7195,464.4441,138.3858,466.3286,136.5013,460.9949,136.23,470.84" style="stroke:#181818;stroke-width:1.0;"/><text fill="#000000" font-family="sans-serif" font-size="13" lengthAdjust="spacing" textLength="43" x="159.5" y="437.4951">register</text><text fill="#000000" font-family="sans-serif" font-size="13" lengthAdjust="spacing" textLength="7" x="163.0781" y="414.2496">1</text><text fill="#000000" font-family="sans-serif" font-size="13" lengthAdjust="spacing" textLength="5" x="134.6349" y="459.9974">*</text></g><!--MD5=[957df399709e1a8a727dc05d0a64dd6d]
link Company to ScheduleVaccine--><g id="link_Company_ScheduleVaccine"><path codeLine="46" d="M62.42,375.7 C66.83,399.67 73.08,433.63 78.96,465.6 " fill="none" id="Company-to-ScheduleVaccine" style="stroke:#181818;stroke-width:1.0;"/><polygon fill="#181818" points="79.9,470.71,82.1863,461.1302,78.9855,465.7943,74.3213,462.5935,79.9,470.71" style="stroke:#181818;stroke-width:1.0;"/><text fill="#000000" font-family="sans-serif" font-size="13" lengthAdjust="spacing" textLength="37" x="74.5" y="437.4951">knows</text><text fill="#000000" font-family="sans-serif" font-size="13" lengthAdjust="spacing" textLength="7" x="55.8511" y="396.6">1</text><text fill="#000000" font-family="sans-serif" font-size="13" lengthAdjust="spacing" textLength="5" x="73.3445" y="460.1487">*</text></g><!--MD5=[b5b6a39eac7d7f804f6af3f985e4320f]
link VaccinationCenter to Recepcionist--><g id="link_VaccinationCenter_Recepcionist"><path codeLine="47" d="M197.5,231.07 C197.5,250.44 197.5,269.8 197.5,286.77 " fill="none" id="VaccinationCenter-to-Recepcionist" style="stroke:#181818;stroke-width:1.0;"/><polygon fill="#181818" points="197.5,291.96,201.5,282.96,197.5,286.96,193.5,282.96,197.5,291.96" style="stroke:#181818;stroke-width:1.0;"/><text fill="#000000" font-family="sans-serif" font-size="13" lengthAdjust="spacing" textLength="7" x="190.2648" y="252.641">1</text><text fill="#000000" font-family="sans-serif" font-size="13" lengthAdjust="spacing" textLength="5" x="192.1484" y="281.2597">*</text></g><!--MD5=[b5125e9e4beecd5be02683e76a022aca]
@startuml
'https://plantuml.com/class-diagram

class Recepcionist
class Company
class ScheduleVaccine
class VaccinationCenter





class Company {
-designation
}
class VaccinationCenter{
name
email
phoneNumber
address
webAddress
faxNumber
vctype
slotDuration
maxVaccines
schedule
}

class Recepcionist {
name
email
password
}

class ScheduleVaccine{
-number
-age
-gender
-vaccine
-date
-hours
-NameCenter
}


Recepcionist "1" - -> "*" ScheduleVaccine:register
Company "1" - -> "*" ScheduleVaccine:knows
VaccinationCenter "1" - -> "*" Recepcionist

@enduml

@startuml

class Recepcionist
class Company
class ScheduleVaccine
class VaccinationCenter





class Company {
-designation
}
class VaccinationCenter{
name
email
phoneNumber
address
webAddress
faxNumber
vctype
slotDuration
maxVaccines
schedule
}

class Recepcionist {
name
email
password
}

class ScheduleVaccine{
-number
-age
-gender
-vaccine
-date
-hours
-NameCenter
}


Recepcionist "1" - -> "*" ScheduleVaccine:register
Company "1" - -> "*" ScheduleVaccine:knows
VaccinationCenter "1" - -> "*" Recepcionist

@enduml

PlantUML version 1.2022.4(Sat Apr 09 14:29:17 BST 2022)
(GPL source distribution)
Java Runtime: OpenJDK Runtime Environment
JVM: OpenJDK 64-Bit Server VM
Default Encoding: Cp1252
Language: pt
Country: PT
--></g></svg>