<?xml version="1.0" encoding="UTF-8" standalone="no"?><svg xmlns="http://www.w3.org/2000/svg" xmlns:xlink="http://www.w3.org/1999/xlink" contentStyleType="text/css" height="552.6px" preserveAspectRatio="none" style="width:1191px;height:552px;background:#FFFFFF;" version="1.1" viewBox="0 0 1191 552" width="1191px" zoomAndPan="magnify"><defs/><g><rect fill="#FFFFFF" height="442.8516" style="stroke:#181818;stroke-width:0.6;" width="6" x="24.6" y="55.5656"/><rect fill="#FFFFFF" height="174.4875" style="stroke:#181818;stroke-width:0.6;" width="6" x="27.6" y="323.9297"/><rect fill="#FFFFFF" height="429.4406" style="stroke:#181818;stroke-width:0.6;" width="6" x="313.8" y="68.9766"/><rect fill="#FFFFFF" height="356.5969" style="stroke:#181818;stroke-width:0.6;" width="6" x="316.8" y="141.8203"/><rect fill="#FFFFFF" height="320.175" style="stroke:#181818;stroke-width:0.6;" width="6" x="319.8" y="178.2422"/><rect fill="#FFFFFF" height="411.2297" style="stroke:#181818;stroke-width:0.6;" width="6" x="636" y="87.1875"/><rect fill="#FFFFFF" height="411.2297" style="stroke:#181818;stroke-width:0.6;" width="6" x="751.8" y="87.1875"/><rect fill="#FFFFFF" height="411.2297" style="stroke:#181818;stroke-width:0.6;" width="6" x="973.2" y="87.1875"/><rect fill="#FFFFFF" height="320.175" style="stroke:#181818;stroke-width:0.6;" width="6" x="1146.6" y="178.2422"/><line style="stroke:#181818;stroke-width:0.3;stroke-dasharray:5.0,5.0;" x1="27.6" x2="27.6" y1="49.5656" y2="503.8172"/><line style="stroke:#181818;stroke-width:0.3;stroke-dasharray:5.0,5.0;" x1="316.5" x2="316.5" y1="49.5656" y2="503.8172"/><line style="stroke:#181818;stroke-width:0.3;stroke-dasharray:5.0,5.0;" x1="638.7" x2="638.7" y1="49.5656" y2="503.8172"/><line style="stroke:#181818;stroke-width:0.3;stroke-dasharray:5.0,5.0;" x1="754.8" x2="754.8" y1="49.5656" y2="503.8172"/><line style="stroke:#181818;stroke-width:0.3;stroke-dasharray:5.0,5.0;" x1="975.9" x2="975.9" y1="49.5656" y2="503.8172"/><line style="stroke:#181818;stroke-width:0.3;stroke-dasharray:5.0,5.0;" x1="1149.3" x2="1149.3" y1="49.5656" y2="503.8172"/><text fill="#000000" font-family="sans-serif" font-size="8.4" lengthAdjust="spacing" textLength="45.6" x="3" y="47.7199">recepcionist</text><ellipse cx="27.6" cy="8.1" fill="#E2E2F0" rx="4.8" ry="4.8" style="stroke:#181818;stroke-width:0.3;"/><path d="M27.6,12.9 L27.6,29.1 M19.8,17.7 L35.4,17.7 M27.6,29.1 L19.8,38.1 M27.6,29.1 L35.4,38.1 " fill="none" style="stroke:#181818;stroke-width:0.3;"/><text fill="#000000" font-family="sans-serif" font-size="8.4" lengthAdjust="spacing" textLength="45.6" x="3" y="511.9371">recepcionist</text><ellipse cx="27.6" cy="518.8828" fill="#E2E2F0" rx="4.8" ry="4.8" style="stroke:#181818;stroke-width:0.3;"/><path d="M27.6,523.6828 L27.6,539.8828 M19.8,528.4828 L35.4,528.4828 M27.6,539.8828 L19.8,548.8828 M27.6,539.8828 L35.4,548.8828 " fill="none" style="stroke:#181818;stroke-width:0.3;"/><rect fill="#E2E2F0" height="29.5313" rx="1.5" ry="1.5" style="stroke:#181818;stroke-width:0.3;" width="83.4" x="275.1" y="19.4344"/><text fill="#000000" font-family="sans-serif" font-size="8.4" lengthAdjust="spacing" textLength="45.6" x="292.8" y="32.3543">:SpecifyNew</text><text fill="#000000" font-family="sans-serif" font-size="8.4" lengthAdjust="spacing" textLength="72.6" x="281.7" y="42.9199">ScheduleVaccineUI</text><rect fill="#E2E2F0" height="29.5313" rx="1.5" ry="1.5" style="stroke:#181818;stroke-width:0.3;" width="83.4" x="275.1" y="503.2172"/><text fill="#000000" font-family="sans-serif" font-size="8.4" lengthAdjust="spacing" textLength="45.6" x="292.8" y="516.1371">:SpecifyNew</text><text fill="#000000" font-family="sans-serif" font-size="8.4" lengthAdjust="spacing" textLength="72.6" x="281.7" y="526.7027">ScheduleVaccineUI</text><rect fill="#E2E2F0" height="29.5313" rx="1.5" ry="1.5" style="stroke:#181818;stroke-width:0.3;" width="113.4" x="582.3" y="19.4344"/><text fill="#000000" font-family="sans-serif" font-size="8.4" lengthAdjust="spacing" textLength="45.6" x="615" y="32.3543">:SpecifyNew</text><text fill="#000000" font-family="sans-serif" font-size="8.4" lengthAdjust="spacing" textLength="102.6" x="588.9" y="42.9199">ScheduleVaccineController</text><rect fill="#E2E2F0" height="29.5313" rx="1.5" ry="1.5" style="stroke:#181818;stroke-width:0.3;" width="113.4" x="582.3" y="503.2172"/><text fill="#000000" font-family="sans-serif" font-size="8.4" lengthAdjust="spacing" textLength="45.6" x="615" y="516.1371">:SpecifyNew</text><text fill="#000000" font-family="sans-serif" font-size="8.4" lengthAdjust="spacing" textLength="102.6" x="588.9" y="526.7027">ScheduleVaccineController</text><rect fill="#E2E2F0" height="29.5313" rx="1.5" ry="1.5" style="stroke:#181818;stroke-width:0.3;" width="56.4" x="726.6" y="19.4344"/><text fill="#000000" font-family="sans-serif" font-size="8.4" lengthAdjust="spacing" textLength="45.6" x="730.8" y="32.3543">:SpecifyNew</text><text fill="#000000" font-family="sans-serif" font-size="8.4" lengthAdjust="spacing" textLength="36" x="738" y="42.9199">Company</text><rect fill="#E2E2F0" height="29.5313" rx="1.5" ry="1.5" style="stroke:#181818;stroke-width:0.3;" width="56.4" x="726.6" y="503.2172"/><text fill="#000000" font-family="sans-serif" font-size="8.4" lengthAdjust="spacing" textLength="45.6" x="730.8" y="516.1371">:SpecifyNew</text><text fill="#000000" font-family="sans-serif" font-size="8.4" lengthAdjust="spacing" textLength="36" x="738" y="526.7027">Company</text><rect fill="#E2E2F0" height="29.5313" rx="1.5" ry="1.5" style="stroke:#181818;stroke-width:0.3;" width="96.6" x="927.9" y="19.4344"/><text fill="#000000" font-family="sans-serif" font-size="8.4" lengthAdjust="spacing" textLength="45.6" x="952.2" y="32.3543">:SpecifyNew</text><text fill="#000000" font-family="sans-serif" font-size="8.4" lengthAdjust="spacing" textLength="85.8" x="934.5" y="42.9199">ScheduleVaccineStore</text><rect fill="#E2E2F0" height="29.5313" rx="1.5" ry="1.5" style="stroke:#181818;stroke-width:0.3;" width="96.6" x="927.9" y="503.2172"/><text fill="#000000" font-family="sans-serif" font-size="8.4" lengthAdjust="spacing" textLength="45.6" x="952.2" y="516.1371">:SpecifyNew</text><text fill="#000000" font-family="sans-serif" font-size="8.4" lengthAdjust="spacing" textLength="85.8" x="934.5" y="526.7027">ScheduleVaccineStore</text><rect fill="#E2E2F0" height="29.5313" rx="1.5" ry="1.5" style="stroke:#181818;stroke-width:0.3;" width="76.2" x="1111.5" y="19.4344"/><text fill="#000000" font-family="sans-serif" font-size="8.4" lengthAdjust="spacing" textLength="45.6" x="1125.6" y="32.3543">:SpecifyNew</text><text fill="#000000" font-family="sans-serif" font-size="8.4" lengthAdjust="spacing" textLength="65.4" x="1118.1" y="42.9199">ScheduleVaccine</text><rect fill="#E2E2F0" height="29.5313" rx="1.5" ry="1.5" style="stroke:#181818;stroke-width:0.3;" width="76.2" x="1111.5" y="503.2172"/><text fill="#000000" font-family="sans-serif" font-size="8.4" lengthAdjust="spacing" textLength="45.6" x="1125.6" y="516.1371">:SpecifyNew</text><text fill="#000000" font-family="sans-serif" font-size="8.4" lengthAdjust="spacing" textLength="65.4" x="1118.1" y="526.7027">ScheduleVaccine</text><rect fill="#FFFFFF" height="442.8516" style="stroke:#181818;stroke-width:0.6;" width="6" x="24.6" y="55.5656"/><rect fill="#FFFFFF" height="174.4875" style="stroke:#181818;stroke-width:0.6;" width="6" x="27.6" y="323.9297"/><rect fill="#FFFFFF" height="429.4406" style="stroke:#181818;stroke-width:0.6;" width="6" x="313.8" y="68.9766"/><rect fill="#FFFFFF" height="356.5969" style="stroke:#181818;stroke-width:0.6;" width="6" x="316.8" y="141.8203"/><rect fill="#FFFFFF" height="320.175" style="stroke:#181818;stroke-width:0.6;" width="6" x="319.8" y="178.2422"/><rect fill="#FFFFFF" height="411.2297" style="stroke:#181818;stroke-width:0.6;" width="6" x="636" y="87.1875"/><rect fill="#FFFFFF" height="411.2297" style="stroke:#181818;stroke-width:0.6;" width="6" x="751.8" y="87.1875"/><rect fill="#FFFFFF" height="411.2297" style="stroke:#181818;stroke-width:0.6;" width="6" x="973.2" y="87.1875"/><rect fill="#FFFFFF" height="320.175" style="stroke:#181818;stroke-width:0.6;" width="6" x="1146.6" y="178.2422"/><polygon fill="#181818" points="306.6,66.5766,312.6,68.9766,306.6,71.3766,309,68.9766" style="stroke:#181818;stroke-width:0.6;"/><line style="stroke:#181818;stroke-width:0.6;" x1="30.6" x2="310.2" y1="68.9766" y2="68.9766"/><text fill="#000000" font-family="sans-serif" font-size="7.8" font-weight="bold" lengthAdjust="spacing" textLength="4.2" x="34.8" y="66.0627">1</text><text fill="#000000" font-family="sans-serif" font-size="7.8" lengthAdjust="spacing" textLength="85.2" x="41.4" y="66.0627">Start a schedule vaccine</text><polygon fill="#181818" points="628.8,84.7875,634.8,87.1875,628.8,89.5875,631.2,87.1875" style="stroke:#181818;stroke-width:0.6;"/><line style="stroke:#181818;stroke-width:0.6;" x1="319.8" x2="632.4" y1="87.1875" y2="87.1875"/><text fill="#000000" font-family="sans-serif" font-size="7.8" font-weight="bold" lengthAdjust="spacing" textLength="4.2" x="324" y="84.2736">2</text><text fill="#000000" font-family="sans-serif" font-size="7.8" lengthAdjust="spacing" textLength="298.2" x="330.6" y="84.2736">createScheduleVaccine(number, birthdate, gender, vaccine, date, hours, NameCenter)</text><polygon fill="#181818" points="744.6,102.9984,750.6,105.3984,744.6,107.7984,747,105.3984" style="stroke:#181818;stroke-width:0.6;"/><line style="stroke:#181818;stroke-width:0.6;" x1="642" x2="748.2" y1="105.3984" y2="105.3984"/><text fill="#000000" font-family="sans-serif" font-size="7.8" font-weight="bold" lengthAdjust="spacing" textLength="4.2" x="646.2" y="102.4846">3</text><text fill="#000000" font-family="sans-serif" font-size="7.8" lengthAdjust="spacing" textLength="88.8" x="652.8" y="102.4846">store=getScheduleStore()</text><polygon fill="#181818" points="966,121.2094,972,123.6094,966,126.0094,968.4,123.6094" style="stroke:#181818;stroke-width:0.6;"/><line style="stroke:#181818;stroke-width:0.6;" x1="642" x2="969.6" y1="123.6094" y2="123.6094"/><text fill="#000000" font-family="sans-serif" font-size="7.8" font-weight="bold" lengthAdjust="spacing" textLength="4.2" x="646.2" y="120.6955">4</text><text fill="#000000" font-family="sans-serif" font-size="7.8" lengthAdjust="spacing" textLength="310.2" x="652.8" y="120.6955">sv=createScheduleVaccine(number, birthdate, gender, vaccine, date, hours, NameCenter)</text><polygon fill="#181818" points="966,139.4203,972,141.8203,966,144.2203,968.4,141.8203" style="stroke:#181818;stroke-width:0.6;"/><line style="stroke:#181818;stroke-width:0.6;" x1="642" x2="969.6" y1="141.8203" y2="141.8203"/><text fill="#000000" font-family="sans-serif" font-size="7.8" font-weight="bold" lengthAdjust="spacing" textLength="4.2" x="646.2" y="138.9064">5</text><text fill="#000000" font-family="sans-serif" font-size="7.8" lengthAdjust="spacing" textLength="122.4" x="652.8" y="138.9064">validateScheduleVaccine(schedule)</text><polygon fill="#181818" points="37.2,157.6313,31.2,160.0313,37.2,162.4313,34.8,160.0313" style="stroke:#181818;stroke-width:0.6;"/><line style="stroke:#181818;stroke-width:0.6;stroke-dasharray:2.0,2.0;" x1="33.6" x2="316.2" y1="160.0313" y2="160.0313"/><text fill="#000000" font-family="sans-serif" font-size="7.8" font-weight="bold" lengthAdjust="spacing" textLength="4.2" x="40.8" y="157.1174">6</text><text fill="#000000" font-family="sans-serif" font-size="7.8" lengthAdjust="spacing" textLength="262.2" x="47.4" y="157.1174">Request data(number, birthdate, gender, vaccine, date, hours, NameCenter)</text><polygon fill="#181818" points="1139.4,175.8422,1145.4,178.2422,1139.4,180.6422,1141.8,178.2422" style="stroke:#181818;stroke-width:0.6;"/><line style="stroke:#181818;stroke-width:0.6;" x1="757.8" x2="1143" y1="178.2422" y2="178.2422"/><text fill="#000000" font-family="sans-serif" font-size="7.8" font-weight="bold" lengthAdjust="spacing" textLength="4.2" x="762" y="175.3283">7</text><text fill="#000000" font-family="sans-serif" font-size="7.8" lengthAdjust="spacing" textLength="289.2" x="768.6" y="175.3283">addScheduleVaccine(number, birthdate, gender, vaccine, date, hours, NameCenter)</text><polygon fill="#181818" points="312.6,194.0531,318.6,196.4531,312.6,198.8531,315,196.4531" style="stroke:#181818;stroke-width:0.6;"/><line style="stroke:#181818;stroke-width:0.6;" x1="30.6" x2="316.2" y1="196.4531" y2="196.4531"/><text fill="#000000" font-family="sans-serif" font-size="7.8" font-weight="bold" lengthAdjust="spacing" textLength="4.2" x="34.8" y="193.5393">8</text><text fill="#000000" font-family="sans-serif" font-size="7.8" lengthAdjust="spacing" textLength="75" x="41.4" y="193.5393">Types requested data</text><polygon fill="#181818" points="1139.4,212.2641,1145.4,214.6641,1139.4,217.0641,1141.8,214.6641" style="stroke:#181818;stroke-width:0.6;"/><line style="stroke:#181818;stroke-width:0.6;" x1="642" x2="1143" y1="214.6641" y2="214.6641"/><text fill="#000000" font-family="sans-serif" font-size="7.8" font-weight="bold" lengthAdjust="spacing" textLength="4.2" x="646.2" y="211.7502">9</text><text fill="#000000" font-family="sans-serif" font-size="7.8" lengthAdjust="spacing" textLength="69.6" x="652.8" y="211.7502">setNumber(Number)</text><polygon fill="#181818" points="1139.4,230.475,1145.4,232.875,1139.4,235.275,1141.8,232.875" style="stroke:#181818;stroke-width:0.6;"/><line style="stroke:#181818;stroke-width:0.6;" x1="642" x2="1143" y1="232.875" y2="232.875"/><text fill="#000000" font-family="sans-serif" font-size="7.8" font-weight="bold" lengthAdjust="spacing" textLength="8.4" x="646.2" y="229.9611">10</text><text fill="#000000" font-family="sans-serif" font-size="7.8" lengthAdjust="spacing" textLength="76.8" x="657" y="229.9611">setBirthdate(birthdate)</text><polygon fill="#181818" points="1139.4,248.6859,1145.4,251.0859,1139.4,253.4859,1141.8,251.0859" style="stroke:#181818;stroke-width:0.6;"/><line style="stroke:#181818;stroke-width:0.6;" x1="642" x2="1143" y1="251.0859" y2="251.0859"/><text fill="#000000" font-family="sans-serif" font-size="7.8" font-weight="bold" lengthAdjust="spacing" textLength="8.4" x="646.2" y="248.1721">11</text><text fill="#000000" font-family="sans-serif" font-size="7.8" lengthAdjust="spacing" textLength="66" x="657" y="248.1721">setGender(Gender)</text><polygon fill="#181818" points="1139.4,266.8969,1145.4,269.2969,1139.4,271.6969,1141.8,269.2969" style="stroke:#181818;stroke-width:0.6;"/><line style="stroke:#181818;stroke-width:0.6;" x1="642" x2="1143" y1="269.2969" y2="269.2969"/><text fill="#000000" font-family="sans-serif" font-size="7.8" font-weight="bold" lengthAdjust="spacing" textLength="8.4" x="646.2" y="266.383">12</text><text fill="#000000" font-family="sans-serif" font-size="7.8" lengthAdjust="spacing" textLength="72" x="657" y="266.383">setVaccine(Vaccine)</text><polygon fill="#181818" points="1139.4,285.1078,1145.4,287.5078,1139.4,289.9078,1141.8,287.5078" style="stroke:#181818;stroke-width:0.6;"/><line style="stroke:#181818;stroke-width:0.6;" x1="642" x2="1143" y1="287.5078" y2="287.5078"/><text fill="#000000" font-family="sans-serif" font-size="7.8" font-weight="bold" lengthAdjust="spacing" textLength="8.4" x="646.2" y="284.5939">13</text><text fill="#000000" font-family="sans-serif" font-size="7.8" lengthAdjust="spacing" textLength="48" x="657" y="284.5939">setDate(Date)</text><polygon fill="#181818" points="1139.4,303.3187,1145.4,305.7188,1139.4,308.1188,1141.8,305.7188" style="stroke:#181818;stroke-width:0.6;"/><line style="stroke:#181818;stroke-width:0.6;" x1="642" x2="1143" y1="305.7188" y2="305.7188"/><text fill="#000000" font-family="sans-serif" font-size="7.8" font-weight="bold" lengthAdjust="spacing" textLength="8.4" x="646.2" y="302.8049">14</text><text fill="#000000" font-family="sans-serif" font-size="7.8" lengthAdjust="spacing" textLength="56.4" x="657" y="302.8049">setHours(Hours)</text><polygon fill="#181818" points="1139.4,321.5297,1145.4,323.9297,1139.4,326.3297,1141.8,323.9297" style="stroke:#181818;stroke-width:0.6;"/><line style="stroke:#181818;stroke-width:0.6;" x1="642" x2="1143" y1="323.9297" y2="323.9297"/><text fill="#000000" font-family="sans-serif" font-size="7.8" font-weight="bold" lengthAdjust="spacing" textLength="8.4" x="646.2" y="321.0158">15</text><text fill="#000000" font-family="sans-serif" font-size="7.8" lengthAdjust="spacing" textLength="102" x="657" y="321.0158">setNameCenter(NameCenter)</text><polygon fill="#181818" points="40.2,339.7406,34.2,342.1406,40.2,344.5406,37.8,342.1406" style="stroke:#181818;stroke-width:0.6;"/><line style="stroke:#181818;stroke-width:0.6;" x1="36.6" x2="319.2" y1="342.1406" y2="342.1406"/><text fill="#000000" font-family="sans-serif" font-size="7.8" font-weight="bold" lengthAdjust="spacing" textLength="8.4" x="43.8" y="339.2268">16</text><text fill="#000000" font-family="sans-serif" font-size="7.8" lengthAdjust="spacing" textLength="181.2" x="54.6" y="339.2268">Show the respective data and request a confirmation</text><polygon fill="#181818" points="628.8,357.9516,634.8,360.3516,628.8,362.7516,631.2,360.3516" style="stroke:#181818;stroke-width:0.6;"/><line style="stroke:#181818;stroke-width:0.6;" x1="325.8" x2="632.4" y1="360.3516" y2="360.3516"/><text fill="#000000" font-family="sans-serif" font-size="7.8" font-weight="bold" lengthAdjust="spacing" textLength="8.4" x="330" y="357.4377">17</text><text fill="#000000" font-family="sans-serif" font-size="7.8" lengthAdjust="spacing" textLength="82.2" x="340.8" y="357.4377">SaveScheduleVaccine()</text><polygon fill="#181818" points="966,376.1625,972,378.5625,966,380.9625,968.4,378.5625" style="stroke:#181818;stroke-width:0.6;"/><line style="stroke:#181818;stroke-width:0.6;" x1="642" x2="969.6" y1="378.5625" y2="378.5625"/><text fill="#000000" font-family="sans-serif" font-size="7.8" font-weight="bold" lengthAdjust="spacing" textLength="8.4" x="646.2" y="375.6486">18</text><text fill="#000000" font-family="sans-serif" font-size="7.8" lengthAdjust="spacing" textLength="139.2" x="657" y="375.6486">SaveScheduleVaccine(schedulevaccine)</text><line style="stroke:#181818;stroke-width:0.6;" x1="979.2" x2="1004.4" y1="396.7734" y2="396.7734"/><line style="stroke:#181818;stroke-width:0.6;" x1="1004.4" x2="1004.4" y1="396.7734" y2="404.5734"/><line style="stroke:#181818;stroke-width:0.6;" x1="979.8" x2="1004.4" y1="404.5734" y2="404.5734"/><polygon fill="#181818" points="985.8,402.1734,979.8,404.5734,985.8,406.9734,983.4,404.5734" style="stroke:#181818;stroke-width:0.6;"/><text fill="#000000" font-family="sans-serif" font-size="7.8" font-weight="bold" lengthAdjust="spacing" textLength="8.4" x="983.4" y="393.8596">19</text><text fill="#000000" font-family="sans-serif" font-size="7.8" lengthAdjust="spacing" textLength="118.2" x="994.2" y="393.8596">checkduplicates(schedulevaccine)</text><polygon fill="#181818" points="312.6,420.3844,318.6,422.7844,312.6,425.1844,315,422.7844" style="stroke:#181818;stroke-width:0.6;"/><line style="stroke:#181818;stroke-width:0.6;" x1="33.6" x2="316.2" y1="422.7844" y2="422.7844"/><text fill="#000000" font-family="sans-serif" font-size="7.8" font-weight="bold" lengthAdjust="spacing" textLength="8.4" x="37.8" y="419.8705">20</text><text fill="#000000" font-family="sans-serif" font-size="7.8" lengthAdjust="spacing" textLength="107.4" x="48.6" y="419.8705">Confirm that the data is correct</text><line style="stroke:#181818;stroke-width:0.6;" x1="979.2" x2="1004.4" y1="440.9953" y2="440.9953"/><line style="stroke:#181818;stroke-width:0.6;" x1="1004.4" x2="1004.4" y1="440.9953" y2="448.7953"/><line style="stroke:#181818;stroke-width:0.6;" x1="979.8" x2="1004.4" y1="448.7953" y2="448.7953"/><polygon fill="#181818" points="985.8,446.3953,979.8,448.7953,985.8,451.1953,983.4,448.7953" style="stroke:#181818;stroke-width:0.6;"/><text fill="#000000" font-family="sans-serif" font-size="7.8" font-weight="bold" lengthAdjust="spacing" textLength="8.4" x="983.4" y="438.0814">21</text><text fill="#000000" font-family="sans-serif" font-size="7.8" lengthAdjust="spacing" textLength="148.2" x="994.2" y="438.0814">validateScheduleVaccine(schedulevaccine)</text><line style="stroke:#181818;stroke-width:0.6;" x1="979.2" x2="1004.4" y1="467.0062" y2="467.0062"/><line style="stroke:#181818;stroke-width:0.6;" x1="1004.4" x2="1004.4" y1="467.0062" y2="474.8063"/><line style="stroke:#181818;stroke-width:0.6;" x1="979.8" x2="1004.4" y1="474.8063" y2="474.8063"/><polygon fill="#181818" points="985.8,472.4063,979.8,474.8063,985.8,477.2062,983.4,474.8063" style="stroke:#181818;stroke-width:0.6;"/><text fill="#000000" font-family="sans-serif" font-size="7.8" font-weight="bold" lengthAdjust="spacing" textLength="8.4" x="983.4" y="464.0924">22</text><text fill="#000000" font-family="sans-serif" font-size="7.8" lengthAdjust="spacing" textLength="135" x="994.2" y="464.0924">addScheduleVaccine(schedulevaccine)</text><polygon fill="#181818" points="40.2,490.6172,34.2,493.0172,40.2,495.4172,37.8,493.0172" style="stroke:#181818;stroke-width:0.6;"/><line style="stroke:#181818;stroke-width:0.6;" x1="36.6" x2="319.2" y1="493.0172" y2="493.0172"/><text fill="#000000" font-family="sans-serif" font-size="7.8" font-weight="bold" lengthAdjust="spacing" textLength="8.4" x="43.8" y="490.1033">23</text><text fill="#000000" font-family="sans-serif" font-size="7.8" lengthAdjust="spacing" textLength="193.8" x="54.6" y="490.1033">Informs that the vaccine has bee schedule successfully.</text><!--MD5=[a3f7825a33c7352426e655b89c3020b0]
@startuml
'https://plantuml.com/sequence-diagram

autonumber
actor "recepcionist" as recepcionist
participant ":SpecifyNew \n ScheduleVaccineUI" as UI
participant ":SpecifyNew \n ScheduleVaccineController" as Controller
participant ":SpecifyNew \n Company" as company
participant ":SpecifyNew \n ScheduleVaccineStore" as Store
participant ":SpecifyNew \n ScheduleVaccine" as SV


activate recepcionist
recepcionist->UI: Start a schedule vaccine
activate UI
UI->Controller:createScheduleVaccine(number, birthdate, gender, vaccine, date, hours, NameCenter)
activate Controller
activate company
activate Store
Controller->company:store=getScheduleStore()
Controller->Store:sv=createScheduleVaccine(number, birthdate, gender, vaccine, date, hours, NameCenter)
Controller->Store:validateScheduleVaccine(schedule)
activate UI
UI- ->recepcionist:Request data(number, birthdate, gender, vaccine, date, hours, NameCenter)
company->SV: addScheduleVaccine(number, birthdate, gender, vaccine, date, hours, NameCenter)


activate SV
activate UI
recepcionist->UI: Types requested data

Controller->SV: setNumber(Number)
Controller->SV: setBirthdate(birthdate)
Controller->SV: setGender(Gender)
Controller->SV: setVaccine(Vaccine)
Controller->SV: setDate(Date)
Controller->SV: setHours(Hours)
Controller->SV: setNameCenter(NameCenter)

activate recepcionist
UI->recepcionist:Show the respective data and request a confirmation
UI->Controller: SaveScheduleVaccine()
Controller->Store:SaveScheduleVaccine(schedulevaccine)
Store->Store:checkduplicates(schedulevaccine)

recepcionist->UI:Confirm that the data is correct
Store->Store:validateScheduleVaccine(schedulevaccine)
Store->Store:addScheduleVaccine(schedulevaccine)

UI->recepcionist: Informs that the vaccine has bee schedule successfully.




@enduml

@startuml

autonumber
actor "recepcionist" as recepcionist
participant ":SpecifyNew \n ScheduleVaccineUI" as UI
participant ":SpecifyNew \n ScheduleVaccineController" as Controller
participant ":SpecifyNew \n Company" as company
participant ":SpecifyNew \n ScheduleVaccineStore" as Store
participant ":SpecifyNew \n ScheduleVaccine" as SV


activate recepcionist
recepcionist->UI: Start a schedule vaccine
activate UI
UI->Controller:createScheduleVaccine(number, birthdate, gender, vaccine, date, hours, NameCenter)
activate Controller
activate company
activate Store
Controller->company:store=getScheduleStore()
Controller->Store:sv=createScheduleVaccine(number, birthdate, gender, vaccine, date, hours, NameCenter)
Controller->Store:validateScheduleVaccine(schedule)
activate UI
UI- ->recepcionist:Request data(number, birthdate, gender, vaccine, date, hours, NameCenter)
company->SV: addScheduleVaccine(number, birthdate, gender, vaccine, date, hours, NameCenter)


activate SV
activate UI
recepcionist->UI: Types requested data

Controller->SV: setNumber(Number)
Controller->SV: setBirthdate(birthdate)
Controller->SV: setGender(Gender)
Controller->SV: setVaccine(Vaccine)
Controller->SV: setDate(Date)
Controller->SV: setHours(Hours)
Controller->SV: setNameCenter(NameCenter)

activate recepcionist
UI->recepcionist:Show the respective data and request a confirmation
UI->Controller: SaveScheduleVaccine()
Controller->Store:SaveScheduleVaccine(schedulevaccine)
Store->Store:checkduplicates(schedulevaccine)

recepcionist->UI:Confirm that the data is correct
Store->Store:validateScheduleVaccine(schedulevaccine)
Store->Store:addScheduleVaccine(schedulevaccine)

UI->recepcionist: Informs that the vaccine has bee schedule successfully.




@enduml

PlantUML version 1.2022.4(Sat Apr 09 14:29:17 BST 2022)
(GPL source distribution)
Java Runtime: OpenJDK Runtime Environment
JVM: OpenJDK 64-Bit Server VM
Default Encoding: Cp1252
Language: pt
Country: PT
--></g></svg>