<?xml version="1.0" encoding="UTF-8" standalone="no"?><svg xmlns="http://www.w3.org/2000/svg" xmlns:xlink="http://www.w3.org/1999/xlink" contentScriptType="application/ecmascript" contentStyleType="text/css" height="1405px" preserveAspectRatio="none" style="width:864px;height:1405px;" version="1.1" viewBox="0 0 864 1405" width="864px" zoomAndPan="magnify"><defs><filter height="300%" id="fuwhzivxiix4z" width="300%" x="-1" y="-1"><feGaussianBlur result="blurOut" stdDeviation="2.0"/><feColorMatrix in="blurOut" result="blurOut2" type="matrix" values="0 0 0 0 0 0 0 0 0 0 0 0 0 0 0 0 0 0 .4 0"/><feOffset dx="4.0" dy="4.0" in="blurOut2" result="blurOut3"/><feBlend in="SourceGraphic" in2="blurOut3" mode="normal"/></filter></defs><g><!--MD5=[54d0f7ca6f9898010b87b67e67e7a5e0]
class E--><rect codeLine="1" fill="#FEFECE" filter="url(#fuwhzivxiix4z)" height="144.8516" id="E" style="stroke:#A80036;stroke-width:1.5;" width="112" x="220.5" y="7"/><ellipse cx="246.75" cy="23" fill="#ADD1B2" rx="11" ry="11" style="stroke:#A80036;stroke-width:1.0;"/><path d="M248.75,19.5 Q248.9531,19 249.1875,18.75 Q249.4219,18.5 249.6875,18.5 Q250.1563,18.5 250.4531,18.7813 Q250.75,19.0625 250.75,19.7188 L250.75,21.2813 Q250.75,21.9375 250.4688,22.2188 Q250.1875,22.5 249.75,22.5 Q249.3594,22.5 249.1094,22.3281 Q248.8594,22.1563 248.75,21.7031 Q248.7031,21.3906 248.5313,21.2188 Q248.2188,20.8906 247.6563,20.7031 Q247.0938,20.5 246.5313,20.5 Q245.8281,20.5 245.2344,20.7813 Q244.6563,21.0625 244.2031,21.6875 Q243.75,22.3125 243.75,23.1719 L243.75,24.0938 Q243.75,25.125 244.5938,25.8125 Q245.4375,26.5 246.9375,26.5 Q247.8281,26.5 248.4531,26.2969 Q248.8125,26.1875 249.2188,25.8281 Q249.4844,25.625 249.625,25.5625 Q249.7656,25.5 249.9375,25.5 Q250.2656,25.5 250.5,25.7656 Q250.75,26.0156 250.75,26.375 Q250.75,26.7188 250.4063,27.125 Q249.9063,27.7188 249.1094,28.0469 Q248.0625,28.5 246.7813,28.5 Q245.2813,28.5 244.0781,27.9063 Q243.1094,27.4375 242.4219,26.4219 Q241.75,25.4063 241.75,24.2031 L241.75,23.1094 Q241.75,21.8594 242.3438,20.7656 Q242.9531,19.6719 244,19.0938 Q245.0625,18.5 246.25,18.5 Q246.9688,18.5 247.5938,18.75 Q248.2188,19 248.75,19.5 Z " fill="#000000"/><text fill="#000000" font-family="sans-serif" font-size="12" lengthAdjust="spacing" textLength="55" x="263.25" y="27.9102">Employee</text><line style="stroke:#A80036;stroke-width:1.5;" x1="221.5" x2="331.5" y1="39" y2="39"/><rect fill="none" height="6" style="stroke:#C82930;stroke-width:1.0;" width="6" x="228.5" y="47"/><text fill="#000000" font-family="sans-serif" font-size="11" lengthAdjust="spacing" textLength="27" x="240.5" y="54.4189">Name</text><rect fill="none" height="6" style="stroke:#C82930;stroke-width:1.0;" width="6" x="228.5" y="60.8359"/><text fill="#000000" font-family="sans-serif" font-size="11" lengthAdjust="spacing" textLength="86" x="240.5" y="68.2549">Employee Number</text><rect fill="none" height="6" style="stroke:#C82930;stroke-width:1.0;" width="6" x="228.5" y="74.6719"/><text fill="#000000" font-family="sans-serif" font-size="11" lengthAdjust="spacing" textLength="20" x="240.5" y="82.0908">Age</text><rect fill="none" height="6" style="stroke:#C82930;stroke-width:1.0;" width="6" x="228.5" y="88.5078"/><text fill="#000000" font-family="sans-serif" font-size="11" lengthAdjust="spacing" textLength="70" x="240.5" y="95.9268">Phone Number</text><rect fill="none" height="6" style="stroke:#C82930;stroke-width:1.0;" width="6" x="228.5" y="102.3438"/><text fill="#000000" font-family="sans-serif" font-size="11" lengthAdjust="spacing" textLength="28" x="240.5" y="109.7627">E-mail</text><rect fill="none" height="6" style="stroke:#C82930;stroke-width:1.0;" width="6" x="228.5" y="116.1797"/><text fill="#000000" font-family="sans-serif" font-size="11" lengthAdjust="spacing" textLength="14" x="240.5" y="123.5986">CC</text><rect fill="none" height="6" style="stroke:#C82930;stroke-width:1.0;" width="6" x="228.5" y="130.0156"/><text fill="#000000" font-family="sans-serif" font-size="11" lengthAdjust="spacing" textLength="55" x="240.5" y="137.4346">Occupation</text><line style="stroke:#A80036;stroke-width:1.5;" x1="221.5" x2="331.5" y1="143.8516" y2="143.8516"/><!--MD5=[da547346deef918ea16944ba046651ef]
class Administrator--><rect codeLine="11" fill="#FEFECE" filter="url(#fuwhzivxiix4z)" height="48" id="Administrator" style="stroke:#A80036;stroke-width:1.5;" width="105" x="273" y="213"/><ellipse cx="288" cy="229" fill="#ADD1B2" rx="11" ry="11" style="stroke:#A80036;stroke-width:1.0;"/><path d="M290,225.5 Q290.2031,225 290.4375,224.75 Q290.6719,224.5 290.9375,224.5 Q291.4063,224.5 291.7031,224.7813 Q292,225.0625 292,225.7188 L292,227.2813 Q292,227.9375 291.7188,228.2188 Q291.4375,228.5 291,228.5 Q290.6094,228.5 290.3594,228.3281 Q290.1094,228.1563 290,227.7031 Q289.9531,227.3906 289.7813,227.2188 Q289.4688,226.8906 288.9063,226.7031 Q288.3438,226.5 287.7813,226.5 Q287.0781,226.5 286.4844,226.7813 Q285.9063,227.0625 285.4531,227.6875 Q285,228.3125 285,229.1719 L285,230.0938 Q285,231.125 285.8438,231.8125 Q286.6875,232.5 288.1875,232.5 Q289.0781,232.5 289.7031,232.2969 Q290.0625,232.1875 290.4688,231.8281 Q290.7344,231.625 290.875,231.5625 Q291.0156,231.5 291.1875,231.5 Q291.5156,231.5 291.75,231.7656 Q292,232.0156 292,232.375 Q292,232.7188 291.6563,233.125 Q291.1563,233.7188 290.3594,234.0469 Q289.3125,234.5 288.0313,234.5 Q286.5313,234.5 285.3281,233.9063 Q284.3594,233.4375 283.6719,232.4219 Q283,231.4063 283,230.2031 L283,229.1094 Q283,227.8594 283.5938,226.7656 Q284.2031,225.6719 285.25,225.0938 Q286.3125,224.5 287.5,224.5 Q288.2188,224.5 288.8438,224.75 Q289.4688,225 290,225.5 Z " fill="#000000"/><text fill="#000000" font-family="sans-serif" font-size="12" lengthAdjust="spacing" textLength="73" x="302" y="233.9102">Administrator</text><line style="stroke:#A80036;stroke-width:1.5;" x1="274" x2="377" y1="245" y2="245"/><line style="stroke:#A80036;stroke-width:1.5;" x1="274" x2="377" y1="253" y2="253"/><!--MD5=[03960189e81aa2c066c762ffabbee709]
class Receptionist--><rect codeLine="13" fill="#FEFECE" filter="url(#fuwhzivxiix4z)" height="48" id="Receptionist" style="stroke:#A80036;stroke-width:1.5;" width="101" x="253" y="925.5"/><ellipse cx="268" cy="941.5" fill="#ADD1B2" rx="11" ry="11" style="stroke:#A80036;stroke-width:1.0;"/><path d="M270,938 Q270.2031,937.5 270.4375,937.25 Q270.6719,937 270.9375,937 Q271.4063,937 271.7031,937.2813 Q272,937.5625 272,938.2188 L272,939.7813 Q272,940.4375 271.7188,940.7188 Q271.4375,941 271,941 Q270.6094,941 270.3594,940.8281 Q270.1094,940.6563 270,940.2031 Q269.9531,939.8906 269.7813,939.7188 Q269.4688,939.3906 268.9063,939.2031 Q268.3438,939 267.7813,939 Q267.0781,939 266.4844,939.2813 Q265.9063,939.5625 265.4531,940.1875 Q265,940.8125 265,941.6719 L265,942.5938 Q265,943.625 265.8438,944.3125 Q266.6875,945 268.1875,945 Q269.0781,945 269.7031,944.7969 Q270.0625,944.6875 270.4688,944.3281 Q270.7344,944.125 270.875,944.0625 Q271.0156,944 271.1875,944 Q271.5156,944 271.75,944.2656 Q272,944.5156 272,944.875 Q272,945.2188 271.6563,945.625 Q271.1563,946.2188 270.3594,946.5469 Q269.3125,947 268.0313,947 Q266.5313,947 265.3281,946.4063 Q264.3594,945.9375 263.6719,944.9219 Q263,943.9063 263,942.7031 L263,941.6094 Q263,940.3594 263.5938,939.2656 Q264.2031,938.1719 265.25,937.5938 Q266.3125,937 267.5,937 Q268.2188,937 268.8438,937.25 Q269.4688,937.5 270,938 Z " fill="#000000"/><text fill="#000000" font-family="sans-serif" font-size="12" lengthAdjust="spacing" textLength="69" x="282" y="946.4102">Receptionist</text><line style="stroke:#A80036;stroke-width:1.5;" x1="254" x2="353" y1="957.5" y2="957.5"/><line style="stroke:#A80036;stroke-width:1.5;" x1="254" x2="353" y1="965.5" y2="965.5"/><!--MD5=[93f9a46aa399a40d232217cf97733770]
class coordinator--><rect codeLine="15" fill="#FEFECE" filter="url(#fuwhzivxiix4z)" height="48" id="coordinator" style="stroke:#A80036;stroke-width:1.5;" width="137" x="7" y="291"/><ellipse cx="22" cy="307" fill="#ADD1B2" rx="11" ry="11" style="stroke:#A80036;stroke-width:1.0;"/><path d="M24,303.5 Q24.2031,303 24.4375,302.75 Q24.6719,302.5 24.9375,302.5 Q25.4063,302.5 25.7031,302.7813 Q26,303.0625 26,303.7188 L26,305.2813 Q26,305.9375 25.7188,306.2188 Q25.4375,306.5 25,306.5 Q24.6094,306.5 24.3594,306.3281 Q24.1094,306.1563 24,305.7031 Q23.9531,305.3906 23.7813,305.2188 Q23.4688,304.8906 22.9063,304.7031 Q22.3438,304.5 21.7813,304.5 Q21.0781,304.5 20.4844,304.7813 Q19.9063,305.0625 19.4531,305.6875 Q19,306.3125 19,307.1719 L19,308.0938 Q19,309.125 19.8438,309.8125 Q20.6875,310.5 22.1875,310.5 Q23.0781,310.5 23.7031,310.2969 Q24.0625,310.1875 24.4688,309.8281 Q24.7344,309.625 24.875,309.5625 Q25.0156,309.5 25.1875,309.5 Q25.5156,309.5 25.75,309.7656 Q26,310.0156 26,310.375 Q26,310.7188 25.6563,311.125 Q25.1563,311.7188 24.3594,312.0469 Q23.3125,312.5 22.0313,312.5 Q20.5313,312.5 19.3281,311.9063 Q18.3594,311.4375 17.6719,310.4219 Q17,309.4063 17,308.2031 L17,307.1094 Q17,305.8594 17.5938,304.7656 Q18.2031,303.6719 19.25,303.0938 Q20.3125,302.5 21.5,302.5 Q22.2188,302.5 22.8438,302.75 Q23.4688,303 24,303.5 Z " fill="#000000"/><text fill="#000000" font-family="sans-serif" font-size="12" lengthAdjust="spacing" textLength="105" x="36" y="311.9102">Center Coordinator</text><line style="stroke:#A80036;stroke-width:1.5;" x1="8" x2="143" y1="323" y2="323"/><line style="stroke:#A80036;stroke-width:1.5;" x1="8" x2="143" y1="331" y2="331"/><!--MD5=[e59cf999063292dce8d6ea34dd10a338]
class user--><rect codeLine="17" fill="#FEFECE" filter="url(#fuwhzivxiix4z)" height="144.8516" id="user" style="stroke:#A80036;stroke-width:1.5;" width="102" x="252.5" y="1093"/><ellipse cx="274.25" cy="1109" fill="#ADD1B2" rx="11" ry="11" style="stroke:#A80036;stroke-width:1.0;"/><path d="M276.25,1105.5 Q276.4531,1105 276.6875,1104.75 Q276.9219,1104.5 277.1875,1104.5 Q277.6563,1104.5 277.9531,1104.7813 Q278.25,1105.0625 278.25,1105.7188 L278.25,1107.2813 Q278.25,1107.9375 277.9688,1108.2188 Q277.6875,1108.5 277.25,1108.5 Q276.8594,1108.5 276.6094,1108.3281 Q276.3594,1108.1563 276.25,1107.7031 Q276.2031,1107.3906 276.0313,1107.2188 Q275.7188,1106.8906 275.1563,1106.7031 Q274.5938,1106.5 274.0313,1106.5 Q273.3281,1106.5 272.7344,1106.7813 Q272.1563,1107.0625 271.7031,1107.6875 Q271.25,1108.3125 271.25,1109.1719 L271.25,1110.0938 Q271.25,1111.125 272.0938,1111.8125 Q272.9375,1112.5 274.4375,1112.5 Q275.3281,1112.5 275.9531,1112.2969 Q276.3125,1112.1875 276.7188,1111.8281 Q276.9844,1111.625 277.125,1111.5625 Q277.2656,1111.5 277.4375,1111.5 Q277.7656,1111.5 278,1111.7656 Q278.25,1112.0156 278.25,1112.375 Q278.25,1112.7188 277.9063,1113.125 Q277.4063,1113.7188 276.6094,1114.0469 Q275.5625,1114.5 274.2813,1114.5 Q272.7813,1114.5 271.5781,1113.9063 Q270.6094,1113.4375 269.9219,1112.4219 Q269.25,1111.4063 269.25,1110.2031 L269.25,1109.1094 Q269.25,1107.8594 269.8438,1106.7656 Q270.4531,1105.6719 271.5,1105.0938 Q272.5625,1104.5 273.75,1104.5 Q274.4688,1104.5 275.0938,1104.75 Q275.7188,1105 276.25,1105.5 Z " fill="#000000"/><text fill="#000000" font-family="sans-serif" font-size="12" lengthAdjust="spacing" textLength="55" x="289.75" y="1113.9102">SNS User</text><line style="stroke:#A80036;stroke-width:1.5;" x1="253.5" x2="353.5" y1="1125" y2="1125"/><rect fill="none" height="6" style="stroke:#C82930;stroke-width:1.0;" width="6" x="260.5" y="1133"/><text fill="#000000" font-family="sans-serif" font-size="11" lengthAdjust="spacing" textLength="27" x="272.5" y="1140.4189">Name</text><rect fill="none" height="6" style="stroke:#C82930;stroke-width:1.0;" width="6" x="260.5" y="1146.8359"/><text fill="#000000" font-family="sans-serif" font-size="11" lengthAdjust="spacing" textLength="20" x="272.5" y="1154.2549">Age</text><rect fill="none" height="6" style="stroke:#C82930;stroke-width:1.0;" width="6" x="260.5" y="1160.6719"/><text fill="#000000" font-family="sans-serif" font-size="11" lengthAdjust="spacing" textLength="70" x="272.5" y="1168.0908">Phone Number</text><rect fill="none" height="6" style="stroke:#C82930;stroke-width:1.0;" width="6" x="260.5" y="1174.5078"/><text fill="#000000" font-family="sans-serif" font-size="11" lengthAdjust="spacing" textLength="28" x="272.5" y="1181.9268">E-mail</text><rect fill="none" height="6" style="stroke:#C82930;stroke-width:1.0;" width="6" x="260.5" y="1188.3438"/><text fill="#000000" font-family="sans-serif" font-size="11" lengthAdjust="spacing" textLength="14" x="272.5" y="1195.7627">CC</text><rect fill="none" height="6" style="stroke:#C82930;stroke-width:1.0;" width="6" x="260.5" y="1202.1797"/><text fill="#000000" font-family="sans-serif" font-size="11" lengthAdjust="spacing" textLength="60" x="272.5" y="1209.5986">NHS number</text><rect fill="none" height="6" style="stroke:#C82930;stroke-width:1.0;" width="6" x="260.5" y="1216.0156"/><text fill="#000000" font-family="sans-serif" font-size="11" lengthAdjust="spacing" textLength="76" x="272.5" y="1223.4346">Health condition</text><line style="stroke:#A80036;stroke-width:1.5;" x1="253.5" x2="353.5" y1="1229.8516" y2="1229.8516"/><!--MD5=[45ef620d0feba9a8beefe3954d1361b6]
class VC--><rect codeLine="26" fill="#FEFECE" filter="url(#fuwhzivxiix4z)" height="186.3594" id="VC" style="stroke:#A80036;stroke-width:1.5;" width="135" x="27" y="620"/><ellipse cx="42" cy="636" fill="#ADD1B2" rx="11" ry="11" style="stroke:#A80036;stroke-width:1.0;"/><path d="M44,632.5 Q44.2031,632 44.4375,631.75 Q44.6719,631.5 44.9375,631.5 Q45.4063,631.5 45.7031,631.7813 Q46,632.0625 46,632.7188 L46,634.2813 Q46,634.9375 45.7188,635.2188 Q45.4375,635.5 45,635.5 Q44.6094,635.5 44.3594,635.3281 Q44.1094,635.1563 44,634.7031 Q43.9531,634.3906 43.7813,634.2188 Q43.4688,633.8906 42.9063,633.7031 Q42.3438,633.5 41.7813,633.5 Q41.0781,633.5 40.4844,633.7813 Q39.9063,634.0625 39.4531,634.6875 Q39,635.3125 39,636.1719 L39,637.0938 Q39,638.125 39.8438,638.8125 Q40.6875,639.5 42.1875,639.5 Q43.0781,639.5 43.7031,639.2969 Q44.0625,639.1875 44.4688,638.8281 Q44.7344,638.625 44.875,638.5625 Q45.0156,638.5 45.1875,638.5 Q45.5156,638.5 45.75,638.7656 Q46,639.0156 46,639.375 Q46,639.7188 45.6563,640.125 Q45.1563,640.7188 44.3594,641.0469 Q43.3125,641.5 42.0313,641.5 Q40.5313,641.5 39.3281,640.9063 Q38.3594,640.4375 37.6719,639.4219 Q37,638.4063 37,637.2031 L37,636.1094 Q37,634.8594 37.5938,633.7656 Q38.2031,632.6719 39.25,632.0938 Q40.3125,631.5 41.5,631.5 Q42.2188,631.5 42.8438,631.75 Q43.4688,632 44,632.5 Z " fill="#000000"/><text fill="#000000" font-family="sans-serif" font-size="12" lengthAdjust="spacing" textLength="103" x="56" y="640.9102">Vaccination Center</text><line style="stroke:#A80036;stroke-width:1.5;" x1="28" x2="161" y1="652" y2="652"/><rect fill="none" height="6" style="stroke:#C82930;stroke-width:1.0;" width="6" x="35" y="660"/><text fill="#000000" font-family="sans-serif" font-size="11" lengthAdjust="spacing" textLength="27" x="47" y="667.4189">Name</text><rect fill="none" height="6" style="stroke:#C82930;stroke-width:1.0;" width="6" x="35" y="673.8359"/><text fill="#000000" font-family="sans-serif" font-size="11" lengthAdjust="spacing" textLength="42" x="47" y="681.2549">Address</text><rect fill="none" height="6" style="stroke:#C82930;stroke-width:1.0;" width="6" x="35" y="687.6719"/><text fill="#000000" font-family="sans-serif" font-size="11" lengthAdjust="spacing" textLength="70" x="47" y="695.0908">Phone Number</text><rect fill="none" height="6" style="stroke:#C82930;stroke-width:1.0;" width="6" x="35" y="701.5078"/><text fill="#000000" font-family="sans-serif" font-size="11" lengthAdjust="spacing" textLength="28" x="47" y="708.9268">E-mail</text><rect fill="none" height="6" style="stroke:#C82930;stroke-width:1.0;" width="6" x="35" y="715.3438"/><text fill="#000000" font-family="sans-serif" font-size="11" lengthAdjust="spacing" textLength="58" x="47" y="722.7627">Fax Number</text><rect fill="none" height="6" style="stroke:#C82930;stroke-width:1.0;" width="6" x="35" y="729.1797"/><text fill="#000000" font-family="sans-serif" font-size="11" lengthAdjust="spacing" textLength="19" x="47" y="736.5986">Link</text><rect fill="none" height="6" style="stroke:#C82930;stroke-width:1.0;" width="6" x="35" y="743.0156"/><text fill="#000000" font-family="sans-serif" font-size="11" lengthAdjust="spacing" textLength="72" x="47" y="750.4346">Opening Hours</text><rect fill="none" height="6" style="stroke:#C82930;stroke-width:1.0;" width="6" x="35" y="756.8516"/><text fill="#000000" font-family="sans-serif" font-size="11" lengthAdjust="spacing" textLength="67" x="47" y="764.2705">Closing Hours</text><rect fill="none" height="6" style="stroke:#C82930;stroke-width:1.0;" width="6" x="35" y="770.6875"/><text fill="#000000" font-family="sans-serif" font-size="11" lengthAdjust="spacing" textLength="61" x="47" y="778.1064">Slot Duration</text><rect fill="none" height="6" style="stroke:#C82930;stroke-width:1.0;" width="6" x="35" y="784.5234"/><text fill="#000000" font-family="sans-serif" font-size="11" lengthAdjust="spacing" textLength="108" x="47" y="791.9424">Max Vaccines per slot</text><line style="stroke:#A80036;stroke-width:1.5;" x1="28" x2="161" y1="798.3594" y2="798.3594"/><!--MD5=[726eef0e889f442cbf1ef79b3ba0280a]
class HCC--><rect codeLine="38" fill="#FEFECE" filter="url(#fuwhzivxiix4z)" height="172.5234" id="HCC" style="stroke:#A80036;stroke-width:1.5;" width="138" x="268.5" y="369"/><ellipse cx="283.5" cy="385" fill="#ADD1B2" rx="11" ry="11" style="stroke:#A80036;stroke-width:1.0;"/><path d="M285.5,381.5 Q285.7031,381 285.9375,380.75 Q286.1719,380.5 286.4375,380.5 Q286.9063,380.5 287.2031,380.7813 Q287.5,381.0625 287.5,381.7188 L287.5,383.2813 Q287.5,383.9375 287.2188,384.2188 Q286.9375,384.5 286.5,384.5 Q286.1094,384.5 285.8594,384.3281 Q285.6094,384.1563 285.5,383.7031 Q285.4531,383.3906 285.2813,383.2188 Q284.9688,382.8906 284.4063,382.7031 Q283.8438,382.5 283.2813,382.5 Q282.5781,382.5 281.9844,382.7813 Q281.4063,383.0625 280.9531,383.6875 Q280.5,384.3125 280.5,385.1719 L280.5,386.0938 Q280.5,387.125 281.3438,387.8125 Q282.1875,388.5 283.6875,388.5 Q284.5781,388.5 285.2031,388.2969 Q285.5625,388.1875 285.9688,387.8281 Q286.2344,387.625 286.375,387.5625 Q286.5156,387.5 286.6875,387.5 Q287.0156,387.5 287.25,387.7656 Q287.5,388.0156 287.5,388.375 Q287.5,388.7188 287.1563,389.125 Q286.6563,389.7188 285.8594,390.0469 Q284.8125,390.5 283.5313,390.5 Q282.0313,390.5 280.8281,389.9063 Q279.8594,389.4375 279.1719,388.4219 Q278.5,387.4063 278.5,386.2031 L278.5,385.1094 Q278.5,383.8594 279.0938,382.7656 Q279.7031,381.6719 280.75,381.0938 Q281.8125,380.5 283,380.5 Q283.7188,380.5 284.3438,380.75 Q284.9688,381 285.5,381.5 Z " fill="#000000"/><text fill="#000000" font-family="sans-serif" font-size="12" lengthAdjust="spacing" textLength="106" x="297.5" y="389.9102">Health Care Center</text><line style="stroke:#A80036;stroke-width:1.5;" x1="269.5" x2="405.5" y1="401" y2="401"/><rect fill="none" height="6" style="stroke:#C82930;stroke-width:1.0;" width="6" x="276.5" y="409"/><text fill="#000000" font-family="sans-serif" font-size="11" lengthAdjust="spacing" textLength="27" x="288.5" y="416.4189">Name</text><rect fill="none" height="6" style="stroke:#C82930;stroke-width:1.0;" width="6" x="276.5" y="422.8359"/><text fill="#000000" font-family="sans-serif" font-size="11" lengthAdjust="spacing" textLength="42" x="288.5" y="430.2549">Address</text><rect fill="none" height="6" style="stroke:#C82930;stroke-width:1.0;" width="6" x="276.5" y="436.6719"/><text fill="#000000" font-family="sans-serif" font-size="11" lengthAdjust="spacing" textLength="70" x="288.5" y="444.0908">Phone Number</text><rect fill="none" height="6" style="stroke:#C82930;stroke-width:1.0;" width="6" x="276.5" y="450.5078"/><text fill="#000000" font-family="sans-serif" font-size="11" lengthAdjust="spacing" textLength="28" x="288.5" y="457.9268">E-mail</text><rect fill="none" height="6" style="stroke:#C82930;stroke-width:1.0;" width="6" x="276.5" y="464.3438"/><text fill="#000000" font-family="sans-serif" font-size="11" lengthAdjust="spacing" textLength="58" x="288.5" y="471.7627">Fax Number</text><rect fill="none" height="6" style="stroke:#C82930;stroke-width:1.0;" width="6" x="276.5" y="478.1797"/><text fill="#000000" font-family="sans-serif" font-size="11" lengthAdjust="spacing" textLength="19" x="288.5" y="485.5986">Link</text><rect fill="none" height="6" style="stroke:#C82930;stroke-width:1.0;" width="6" x="276.5" y="492.0156"/><text fill="#000000" font-family="sans-serif" font-size="11" lengthAdjust="spacing" textLength="72" x="288.5" y="499.4346">Opening Hours</text><rect fill="none" height="6" style="stroke:#C82930;stroke-width:1.0;" width="6" x="276.5" y="505.8516"/><text fill="#000000" font-family="sans-serif" font-size="11" lengthAdjust="spacing" textLength="67" x="288.5" y="513.2705">Closing Hours</text><rect fill="none" height="6" style="stroke:#C82930;stroke-width:1.0;" width="6" x="276.5" y="519.6875"/><text fill="#000000" font-family="sans-serif" font-size="11" lengthAdjust="spacing" textLength="108" x="288.5" y="527.1064">Max Vaccines per slot</text><line style="stroke:#A80036;stroke-width:1.5;" x1="269.5" x2="405.5" y1="533.5234" y2="533.5234"/><!--MD5=[19e445fc4d3b48519cbe33da05496394]
class Vaccine--><rect codeLine="49" fill="#FEFECE" filter="url(#fuwhzivxiix4z)" height="75.6719" id="Vaccine" style="stroke:#A80036;stroke-width:1.5;" width="78" x="605.5" y="1127.5"/><ellipse cx="621.85" cy="1143.5" fill="#ADD1B2" rx="11" ry="11" style="stroke:#A80036;stroke-width:1.0;"/><path d="M623.85,1140 Q624.0531,1139.5 624.2875,1139.25 Q624.5219,1139 624.7875,1139 Q625.2563,1139 625.5531,1139.2813 Q625.85,1139.5625 625.85,1140.2188 L625.85,1141.7813 Q625.85,1142.4375 625.5688,1142.7188 Q625.2875,1143 624.85,1143 Q624.4594,1143 624.2094,1142.8281 Q623.9594,1142.6563 623.85,1142.2031 Q623.8031,1141.8906 623.6313,1141.7188 Q623.3188,1141.3906 622.7563,1141.2031 Q622.1938,1141 621.6313,1141 Q620.9281,1141 620.3344,1141.2813 Q619.7563,1141.5625 619.3031,1142.1875 Q618.85,1142.8125 618.85,1143.6719 L618.85,1144.5938 Q618.85,1145.625 619.6938,1146.3125 Q620.5375,1147 622.0375,1147 Q622.9281,1147 623.5531,1146.7969 Q623.9125,1146.6875 624.3188,1146.3281 Q624.5844,1146.125 624.725,1146.0625 Q624.8656,1146 625.0375,1146 Q625.3656,1146 625.6,1146.2656 Q625.85,1146.5156 625.85,1146.875 Q625.85,1147.2188 625.5063,1147.625 Q625.0063,1148.2188 624.2094,1148.5469 Q623.1625,1149 621.8813,1149 Q620.3813,1149 619.1781,1148.4063 Q618.2094,1147.9375 617.5219,1146.9219 Q616.85,1145.9063 616.85,1144.7031 L616.85,1143.6094 Q616.85,1142.3594 617.4438,1141.2656 Q618.0531,1140.1719 619.1,1139.5938 Q620.1625,1139 621.35,1139 Q622.0688,1139 622.6938,1139.25 Q623.3188,1139.5 623.85,1140 Z " fill="#000000"/><text fill="#000000" font-family="sans-serif" font-size="12" lengthAdjust="spacing" textLength="43" x="636.15" y="1148.4102">Vaccine</text><line style="stroke:#A80036;stroke-width:1.5;" x1="606.5" x2="682.5" y1="1159.5" y2="1159.5"/><rect fill="none" height="6" style="stroke:#C82930;stroke-width:1.0;" width="6" x="613.5" y="1167.5"/><text fill="#000000" font-family="sans-serif" font-size="11" lengthAdjust="spacing" textLength="52" x="625.5" y="1174.9189">Vaccine ID</text><rect fill="none" height="6" style="stroke:#C82930;stroke-width:1.0;" width="6" x="613.5" y="1181.3359"/><text fill="#000000" font-family="sans-serif" font-size="11" lengthAdjust="spacing" textLength="29" x="625.5" y="1188.7549">Brand</text><line style="stroke:#A80036;stroke-width:1.5;" x1="606.5" x2="682.5" y1="1195.1719" y2="1195.1719"/><!--MD5=[857a356b9e77f83de603e0318f36b735]
class type--><rect codeLine="53" fill="#FEFECE" filter="url(#fuwhzivxiix4z)" height="75.6719" id="type" style="stroke:#A80036;stroke-width:1.5;" width="117" x="245" y="1316"/><ellipse cx="260" cy="1332" fill="#ADD1B2" rx="11" ry="11" style="stroke:#A80036;stroke-width:1.0;"/><path d="M262,1328.5 Q262.2031,1328 262.4375,1327.75 Q262.6719,1327.5 262.9375,1327.5 Q263.4063,1327.5 263.7031,1327.7813 Q264,1328.0625 264,1328.7188 L264,1330.2813 Q264,1330.9375 263.7188,1331.2188 Q263.4375,1331.5 263,1331.5 Q262.6094,1331.5 262.3594,1331.3281 Q262.1094,1331.1563 262,1330.7031 Q261.9531,1330.3906 261.7813,1330.2188 Q261.4688,1329.8906 260.9063,1329.7031 Q260.3438,1329.5 259.7813,1329.5 Q259.0781,1329.5 258.4844,1329.7813 Q257.9063,1330.0625 257.4531,1330.6875 Q257,1331.3125 257,1332.1719 L257,1333.0938 Q257,1334.125 257.8438,1334.8125 Q258.6875,1335.5 260.1875,1335.5 Q261.0781,1335.5 261.7031,1335.2969 Q262.0625,1335.1875 262.4688,1334.8281 Q262.7344,1334.625 262.875,1334.5625 Q263.0156,1334.5 263.1875,1334.5 Q263.5156,1334.5 263.75,1334.7656 Q264,1335.0156 264,1335.375 Q264,1335.7188 263.6563,1336.125 Q263.1563,1336.7188 262.3594,1337.0469 Q261.3125,1337.5 260.0313,1337.5 Q258.5313,1337.5 257.3281,1336.9063 Q256.3594,1336.4375 255.6719,1335.4219 Q255,1334.4063 255,1333.2031 L255,1332.1094 Q255,1330.8594 255.5938,1329.7656 Q256.2031,1328.6719 257.25,1328.0938 Q258.3125,1327.5 259.5,1327.5 Q260.2188,1327.5 260.8438,1327.75 Q261.4688,1328 262,1328.5 Z " fill="#000000"/><text fill="#000000" font-family="sans-serif" font-size="12" lengthAdjust="spacing" textLength="85" x="274" y="1336.9102">Type of Vaccine</text><line style="stroke:#A80036;stroke-width:1.5;" x1="246" x2="361" y1="1348" y2="1348"/><rect fill="none" height="6" style="stroke:#C82930;stroke-width:1.0;" width="6" x="253" y="1356"/><text fill="#000000" font-family="sans-serif" font-size="11" lengthAdjust="spacing" textLength="25" x="265" y="1363.4189">Code</text><rect fill="none" height="6" style="stroke:#C82930;stroke-width:1.0;" width="6" x="253" y="1369.8359"/><text fill="#000000" font-family="sans-serif" font-size="11" lengthAdjust="spacing" textLength="24" x="265" y="1377.2549">Type</text><line style="stroke:#A80036;stroke-width:1.5;" x1="246" x2="361" y1="1383.6719" y2="1383.6719"/><!--MD5=[eec114a0b3352c6b1c1f53d18fe88291]
class nurse--><rect codeLine="57" fill="#FEFECE" filter="url(#fuwhzivxiix4z)" height="48" id="nurse" style="stroke:#A80036;stroke-width:1.5;" width="66" x="610.5" y="689"/><ellipse cx="625.5" cy="705" fill="#ADD1B2" rx="11" ry="11" style="stroke:#A80036;stroke-width:1.0;"/><path d="M627.5,701.5 Q627.7031,701 627.9375,700.75 Q628.1719,700.5 628.4375,700.5 Q628.9063,700.5 629.2031,700.7813 Q629.5,701.0625 629.5,701.7188 L629.5,703.2813 Q629.5,703.9375 629.2188,704.2188 Q628.9375,704.5 628.5,704.5 Q628.1094,704.5 627.8594,704.3281 Q627.6094,704.1563 627.5,703.7031 Q627.4531,703.3906 627.2813,703.2188 Q626.9688,702.8906 626.4063,702.7031 Q625.8438,702.5 625.2813,702.5 Q624.5781,702.5 623.9844,702.7813 Q623.4063,703.0625 622.9531,703.6875 Q622.5,704.3125 622.5,705.1719 L622.5,706.0938 Q622.5,707.125 623.3438,707.8125 Q624.1875,708.5 625.6875,708.5 Q626.5781,708.5 627.2031,708.2969 Q627.5625,708.1875 627.9688,707.8281 Q628.2344,707.625 628.375,707.5625 Q628.5156,707.5 628.6875,707.5 Q629.0156,707.5 629.25,707.7656 Q629.5,708.0156 629.5,708.375 Q629.5,708.7188 629.1563,709.125 Q628.6563,709.7188 627.8594,710.0469 Q626.8125,710.5 625.5313,710.5 Q624.0313,710.5 622.8281,709.9063 Q621.8594,709.4375 621.1719,708.4219 Q620.5,707.4063 620.5,706.2031 L620.5,705.1094 Q620.5,703.8594 621.0938,702.7656 Q621.7031,701.6719 622.75,701.0938 Q623.8125,700.5 625,700.5 Q625.7188,700.5 626.3438,700.75 Q626.9688,701 627.5,701.5 Z " fill="#000000"/><text fill="#000000" font-family="sans-serif" font-size="12" lengthAdjust="spacing" textLength="34" x="639.5" y="709.9102">Nurse</text><line style="stroke:#A80036;stroke-width:1.5;" x1="611.5" x2="675.5" y1="721" y2="721"/><line style="stroke:#A80036;stroke-width:1.5;" x1="611.5" x2="675.5" y1="729" y2="729"/><!--MD5=[8555af526a16474f920303cb36452e2e]
class schedule--><rect codeLine="59" fill="#FEFECE" filter="url(#fuwhzivxiix4z)" height="89.5078" id="schedule" style="stroke:#A80036;stroke-width:1.5;" width="130" x="440.5" y="1120.5"/><ellipse cx="455.5" cy="1136.5" fill="#ADD1B2" rx="11" ry="11" style="stroke:#A80036;stroke-width:1.0;"/><path d="M457.5,1133 Q457.7031,1132.5 457.9375,1132.25 Q458.1719,1132 458.4375,1132 Q458.9063,1132 459.2031,1132.2813 Q459.5,1132.5625 459.5,1133.2188 L459.5,1134.7813 Q459.5,1135.4375 459.2188,1135.7188 Q458.9375,1136 458.5,1136 Q458.1094,1136 457.8594,1135.8281 Q457.6094,1135.6563 457.5,1135.2031 Q457.4531,1134.8906 457.2813,1134.7188 Q456.9688,1134.3906 456.4063,1134.2031 Q455.8438,1134 455.2813,1134 Q454.5781,1134 453.9844,1134.2813 Q453.4063,1134.5625 452.9531,1135.1875 Q452.5,1135.8125 452.5,1136.6719 L452.5,1137.5938 Q452.5,1138.625 453.3438,1139.3125 Q454.1875,1140 455.6875,1140 Q456.5781,1140 457.2031,1139.7969 Q457.5625,1139.6875 457.9688,1139.3281 Q458.2344,1139.125 458.375,1139.0625 Q458.5156,1139 458.6875,1139 Q459.0156,1139 459.25,1139.2656 Q459.5,1139.5156 459.5,1139.875 Q459.5,1140.2188 459.1563,1140.625 Q458.6563,1141.2188 457.8594,1141.5469 Q456.8125,1142 455.5313,1142 Q454.0313,1142 452.8281,1141.4063 Q451.8594,1140.9375 451.1719,1139.9219 Q450.5,1138.9063 450.5,1137.7031 L450.5,1136.6094 Q450.5,1135.3594 451.0938,1134.2656 Q451.7031,1133.1719 452.75,1132.5938 Q453.8125,1132 455,1132 Q455.7188,1132 456.3438,1132.25 Q456.9688,1132.5 457.5,1133 Z " fill="#000000"/><text fill="#000000" font-family="sans-serif" font-size="12" lengthAdjust="spacing" textLength="98" x="469.5" y="1141.4102">Vaccine Schedule</text><line style="stroke:#A80036;stroke-width:1.5;" x1="441.5" x2="569.5" y1="1152.5" y2="1152.5"/><rect fill="none" height="6" style="stroke:#C82930;stroke-width:1.0;" width="6" x="448.5" y="1160.5"/><text fill="#000000" font-family="sans-serif" font-size="11" lengthAdjust="spacing" textLength="75" x="460.5" y="1167.9189">Vaccine Center</text><rect fill="none" height="6" style="stroke:#C82930;stroke-width:1.0;" width="6" x="448.5" y="1174.3359"/><text fill="#000000" font-family="sans-serif" font-size="11" lengthAdjust="spacing" textLength="22" x="460.5" y="1181.7549">Date</text><rect fill="none" height="6" style="stroke:#C82930;stroke-width:1.0;" width="6" x="448.5" y="1188.1719"/><text fill="#000000" font-family="sans-serif" font-size="11" lengthAdjust="spacing" textLength="22" x="460.5" y="1195.5908">Time</text><line style="stroke:#A80036;stroke-width:1.5;" x1="441.5" x2="569.5" y1="1202.0078" y2="1202.0078"/><!--MD5=[014d7d7231c8e414c8b5d3dafd7c65a4]
class adminVac--><rect codeLine="64" fill="#FEFECE" filter="url(#fuwhzivxiix4z)" height="131.0156" id="adminVac" style="stroke:#A80036;stroke-width:1.5;" width="157" x="500" y="884"/><ellipse cx="515" cy="900" fill="#ADD1B2" rx="11" ry="11" style="stroke:#A80036;stroke-width:1.0;"/><path d="M517,896.5 Q517.2031,896 517.4375,895.75 Q517.6719,895.5 517.9375,895.5 Q518.4063,895.5 518.7031,895.7813 Q519,896.0625 519,896.7188 L519,898.2813 Q519,898.9375 518.7188,899.2188 Q518.4375,899.5 518,899.5 Q517.6094,899.5 517.3594,899.3281 Q517.1094,899.1563 517,898.7031 Q516.9531,898.3906 516.7813,898.2188 Q516.4688,897.8906 515.9063,897.7031 Q515.3438,897.5 514.7813,897.5 Q514.0781,897.5 513.4844,897.7813 Q512.9063,898.0625 512.4531,898.6875 Q512,899.3125 512,900.1719 L512,901.0938 Q512,902.125 512.8438,902.8125 Q513.6875,903.5 515.1875,903.5 Q516.0781,903.5 516.7031,903.2969 Q517.0625,903.1875 517.4688,902.8281 Q517.7344,902.625 517.875,902.5625 Q518.0156,902.5 518.1875,902.5 Q518.5156,902.5 518.75,902.7656 Q519,903.0156 519,903.375 Q519,903.7188 518.6563,904.125 Q518.1563,904.7188 517.3594,905.0469 Q516.3125,905.5 515.0313,905.5 Q513.5313,905.5 512.3281,904.9063 Q511.3594,904.4375 510.6719,903.4219 Q510,902.4063 510,901.2031 L510,900.1094 Q510,898.8594 510.5938,897.7656 Q511.2031,896.6719 512.25,896.0938 Q513.3125,895.5 514.5,895.5 Q515.2188,895.5 515.8438,895.75 Q516.4688,896 517,896.5 Z " fill="#000000"/><text fill="#000000" font-family="sans-serif" font-size="12" lengthAdjust="spacing" textLength="125" x="529" y="904.9102">Vaccine Administration</text><line style="stroke:#A80036;stroke-width:1.5;" x1="501" x2="656" y1="916" y2="916"/><rect fill="none" height="6" style="stroke:#C82930;stroke-width:1.0;" width="6" x="508" y="924"/><text fill="#000000" font-family="sans-serif" font-size="11" lengthAdjust="spacing" textLength="67" x="520" y="931.4189">Vaccine Type</text><rect fill="none" height="6" style="stroke:#C82930;stroke-width:1.0;" width="6" x="508" y="937.8359"/><text fill="#000000" font-family="sans-serif" font-size="11" lengthAdjust="spacing" textLength="70" x="520" y="945.2549">Vaccine Name</text><rect fill="none" height="6" style="stroke:#C82930;stroke-width:1.0;" width="6" x="508" y="951.6719"/><text fill="#000000" font-family="sans-serif" font-size="11" lengthAdjust="spacing" textLength="55" x="520" y="959.0908">Lot Number</text><rect fill="none" height="6" style="stroke:#C82930;stroke-width:1.0;" width="6" x="508" y="965.5078"/><text fill="#000000" font-family="sans-serif" font-size="11" lengthAdjust="spacing" textLength="37" x="520" y="972.9268">Dosage</text><rect fill="none" height="6" style="stroke:#C82930;stroke-width:1.0;" width="6" x="508" y="979.3438"/><text fill="#000000" font-family="sans-serif" font-size="11" lengthAdjust="spacing" textLength="71" x="520" y="986.7627">Doses Number</text><rect fill="none" height="6" style="stroke:#C82930;stroke-width:1.0;" width="6" x="508" y="993.1797"/><text fill="#000000" font-family="sans-serif" font-size="11" lengthAdjust="spacing" textLength="60" x="520" y="1000.5986">Time Interval</text><line style="stroke:#A80036;stroke-width:1.5;" x1="501" x2="656" y1="1007.0156" y2="1007.0156"/><!--MD5=[79af46bd41a8b6482719de76a0edec0d]
class certificado--><rect codeLine="72" fill="#FEFECE" filter="url(#fuwhzivxiix4z)" height="103.3438" id="certificado" style="stroke:#A80036;stroke-width:1.5;" width="185" x="390" y="661.5"/><ellipse cx="405" cy="677.5" fill="#ADD1B2" rx="11" ry="11" style="stroke:#A80036;stroke-width:1.0;"/><path d="M407,674 Q407.2031,673.5 407.4375,673.25 Q407.6719,673 407.9375,673 Q408.4063,673 408.7031,673.2813 Q409,673.5625 409,674.2188 L409,675.7813 Q409,676.4375 408.7188,676.7188 Q408.4375,677 408,677 Q407.6094,677 407.3594,676.8281 Q407.1094,676.6563 407,676.2031 Q406.9531,675.8906 406.7813,675.7188 Q406.4688,675.3906 405.9063,675.2031 Q405.3438,675 404.7813,675 Q404.0781,675 403.4844,675.2813 Q402.9063,675.5625 402.4531,676.1875 Q402,676.8125 402,677.6719 L402,678.5938 Q402,679.625 402.8438,680.3125 Q403.6875,681 405.1875,681 Q406.0781,681 406.7031,680.7969 Q407.0625,680.6875 407.4688,680.3281 Q407.7344,680.125 407.875,680.0625 Q408.0156,680 408.1875,680 Q408.5156,680 408.75,680.2656 Q409,680.5156 409,680.875 Q409,681.2188 408.6563,681.625 Q408.1563,682.2188 407.3594,682.5469 Q406.3125,683 405.0313,683 Q403.5313,683 402.3281,682.4063 Q401.3594,681.9375 400.6719,680.9219 Q400,679.9063 400,678.7031 L400,677.6094 Q400,676.3594 400.5938,675.2656 Q401.2031,674.1719 402.25,673.5938 Q403.3125,673 404.5,673 Q405.2188,673 405.8438,673.25 Q406.4688,673.5 407,674 Z " fill="#000000"/><text fill="#000000" font-family="sans-serif" font-size="12" lengthAdjust="spacing" textLength="153" x="419" y="682.4102">EU COVID Digital Certificate</text><line style="stroke:#A80036;stroke-width:1.5;" x1="391" x2="574" y1="693.5" y2="693.5"/><rect fill="none" height="6" style="stroke:#C82930;stroke-width:1.0;" width="6" x="398" y="701.5"/><text fill="#000000" font-family="sans-serif" font-size="11" lengthAdjust="spacing" textLength="53" x="410" y="708.9189">User Name</text><rect fill="none" height="6" style="stroke:#C82930;stroke-width:1.0;" width="6" x="398" y="715.3359"/><text fill="#000000" font-family="sans-serif" font-size="11" lengthAdjust="spacing" textLength="72" x="410" y="722.7549">First dose date</text><rect fill="none" height="6" style="stroke:#C82930;stroke-width:1.0;" width="6" x="398" y="729.1719"/><text fill="#000000" font-family="sans-serif" font-size="11" lengthAdjust="spacing" textLength="88" x="410" y="736.5908">Second dose date</text><rect fill="none" height="6" style="stroke:#C82930;stroke-width:1.0;" width="6" x="398" y="743.0078"/><text fill="#000000" font-family="sans-serif" font-size="11" lengthAdjust="spacing" textLength="75" x="410" y="750.4268">Third dose date</text><line style="stroke:#A80036;stroke-width:1.5;" x1="391" x2="574" y1="756.8438" y2="756.8438"/><!--MD5=[ba302802c59f508472097f2cc66f96e4]
class reaction--><rect codeLine="78" fill="#FEFECE" filter="url(#fuwhzivxiix4z)" height="75.6719" id="reaction" style="stroke:#A80036;stroke-width:1.5;" width="135" x="715" y="911.5"/><ellipse cx="730" cy="927.5" fill="#ADD1B2" rx="11" ry="11" style="stroke:#A80036;stroke-width:1.0;"/><path d="M732,924 Q732.2031,923.5 732.4375,923.25 Q732.6719,923 732.9375,923 Q733.4063,923 733.7031,923.2813 Q734,923.5625 734,924.2188 L734,925.7813 Q734,926.4375 733.7188,926.7188 Q733.4375,927 733,927 Q732.6094,927 732.3594,926.8281 Q732.1094,926.6563 732,926.2031 Q731.9531,925.8906 731.7813,925.7188 Q731.4688,925.3906 730.9063,925.2031 Q730.3438,925 729.7813,925 Q729.0781,925 728.4844,925.2813 Q727.9063,925.5625 727.4531,926.1875 Q727,926.8125 727,927.6719 L727,928.5938 Q727,929.625 727.8438,930.3125 Q728.6875,931 730.1875,931 Q731.0781,931 731.7031,930.7969 Q732.0625,930.6875 732.4688,930.3281 Q732.7344,930.125 732.875,930.0625 Q733.0156,930 733.1875,930 Q733.5156,930 733.75,930.2656 Q734,930.5156 734,930.875 Q734,931.2188 733.6563,931.625 Q733.1563,932.2188 732.3594,932.5469 Q731.3125,933 730.0313,933 Q728.5313,933 727.3281,932.4063 Q726.3594,931.9375 725.6719,930.9219 Q725,929.9063 725,928.7031 L725,927.6094 Q725,926.3594 725.5938,925.2656 Q726.2031,924.1719 727.25,923.5938 Q728.3125,923 729.5,923 Q730.2188,923 730.8438,923.25 Q731.4688,923.5 732,924 Z " fill="#000000"/><text fill="#000000" font-family="sans-serif" font-size="12" lengthAdjust="spacing" textLength="103" x="744" y="932.4102">Adverse Reactions</text><line style="stroke:#A80036;stroke-width:1.5;" x1="716" x2="849" y1="943.5" y2="943.5"/><rect fill="none" height="6" style="stroke:#C82930;stroke-width:1.0;" width="6" x="723" y="951.5"/><text fill="#000000" font-family="sans-serif" font-size="11" lengthAdjust="spacing" textLength="44" x="735" y="958.9189">Symptom</text><rect fill="none" height="6" style="stroke:#C82930;stroke-width:1.0;" width="6" x="723" y="965.3359"/><text fill="#000000" font-family="sans-serif" font-size="11" lengthAdjust="spacing" textLength="54" x="735" y="972.7549">Description</text><line style="stroke:#A80036;stroke-width:1.5;" x1="716" x2="849" y1="979.1719" y2="979.1719"/><!--MD5=[541ecb04441c83a3b8dc9cd4eddecaa6]
reverse link E to Administrator--><path codeLine="83" d="M305.17,171.48 C309.98,186.74 314.56,201.29 318.16,212.71 " fill="none" id="E-backto-Administrator" style="stroke:#A80036;stroke-width:1.0;"/><polygon fill="none" points="298.47,173.51,299.14,152.33,311.82,169.3,298.47,173.51" style="stroke:#A80036;stroke-width:1.0;"/><!--MD5=[aaa395a4b63d3bead2039c96f2b4b307]
reverse link E to nurse--><path codeLine="84" d="M346,152.46 C363,171.49 380.58,192.47 395.5,213 C503.91,362.17 531.4,402.28 603.5,572 C620.3,611.55 632.43,660.31 638.68,688.61 " fill="none" id="E-backto-nurse" style="stroke:#A80036;stroke-width:1.0;"/><polygon fill="none" points="340.81,157.16,332.55,137.65,351.18,147.75,340.81,157.16" style="stroke:#A80036;stroke-width:1.0;"/><!--MD5=[bfbbb0c10932fa3f95801cebb9150226]
reverse link E to Receptionist--><path codeLine="85" d="M228.26,170.82 C220.79,191.65 215.5,214.13 215.5,236 C215.5,236 215.5,236 215.5,714 C215.5,795.97 263.21,884.37 288.37,925.28 " fill="none" id="E-backto-Receptionist" style="stroke:#A80036;stroke-width:1.0;"/><polygon fill="none" points="221.76,168.23,235.64,152.22,234.77,173.39,221.76,168.23" style="stroke:#A80036;stroke-width:1.0;"/><!--MD5=[4e5c84ac8e87aba1147dc2b9d4e6a05b]
reverse link E to coordinator--><path codeLine="86" d="M207.19,161.02 C167.77,206.82 121.24,260.86 95.38,290.9 " fill="none" id="E-backto-coordinator" style="stroke:#A80036;stroke-width:1.0;"/><polygon fill="none" points="201.89,156.44,220.24,145.85,212.5,165.58,201.89,156.44" style="stroke:#A80036;stroke-width:1.0;"/><!--MD5=[3f76d12640a7c536f300a2e3ce0239ab]
link Receptionist to user--><path codeLine="89" d="M303.5,973.81 C303.5,1002.19 303.5,1051.46 303.5,1092.81 " fill="none" id="Receptionist-user" style="stroke:#A80036;stroke-width:1.0;"/><text fill="#000000" font-family="sans-serif" font-size="13" lengthAdjust="spacing" textLength="94" x="304.5" y="1059.4951">registers arrivals</text><text fill="#000000" font-family="sans-serif" font-size="13" lengthAdjust="spacing" textLength="7" x="295.6906" y="994.8175">1</text><text fill="#000000" font-family="sans-serif" font-size="13" lengthAdjust="spacing" textLength="5" x="298.2422" y="1082.0097">*</text><!--MD5=[530eefccf1894be5b70739213480e72b]
link Administrator to HCC--><path codeLine="90" d="M326.78,261.17 C328.21,286.91 330.6,330 332.76,368.97 " fill="none" id="Administrator-HCC" style="stroke:#A80036;stroke-width:1.0;"/><text fill="#000000" font-family="sans-serif" font-size="13" lengthAdjust="spacing" textLength="78" x="332.5" y="312.4951">managing the</text><text fill="#000000" font-family="sans-serif" font-size="13" lengthAdjust="spacing" textLength="77" x="333" y="328.8467">information of</text><text fill="#000000" font-family="sans-serif" font-size="13" lengthAdjust="spacing" textLength="7" x="319.2389" y="282.5494">1</text><text fill="#000000" font-family="sans-serif" font-size="13" lengthAdjust="spacing" textLength="5" x="327.1152" y="358.0829">*</text><!--MD5=[a8177bb7fd84cfa912efd48f543ca5bc]
link HCC to VC--><path codeLine="92" d="M268.19,529.37 C234.94,564.33 195.26,606.06 162.22,640.79 " fill="none" id="HCC-VC" style="stroke:#A80036;stroke-width:1.0;"/><text fill="#000000" font-family="sans-serif" font-size="13" lengthAdjust="spacing" textLength="21" x="224.5" y="586.4951">has</text><text fill="#000000" font-family="sans-serif" font-size="13" lengthAdjust="spacing" textLength="7" x="253.6815" y="533.7007">1</text><text fill="#000000" font-family="sans-serif" font-size="13" lengthAdjust="spacing" textLength="5" x="169.9003" y="629.5117">*</text><!--MD5=[8f9b7abb10409a46a8cd1b27e110b29d]
reverse link HCC to nurse--><path codeLine="93" d="M411.1,502.46 C483.79,548.03 585.17,612.18 592.5,620 C611.49,640.25 625.91,668.88 634.49,688.81 " fill="none" id="HCC-backto-nurse" style="stroke:#A80036;stroke-width:1.0;"/><polygon fill="#A80036" points="406.79,499.76,412.2946,507.927,411.0276,502.4138,416.5407,501.1468,406.79,499.76" style="stroke:#A80036;stroke-width:1.0;"/><text fill="#000000" font-family="sans-serif" font-size="13" lengthAdjust="spacing" textLength="49" x="545.5" y="586.4951">works at</text><text fill="#000000" font-family="sans-serif" font-size="13" lengthAdjust="spacing" textLength="5" x="414.642" y="501.2663">*</text><text fill="#000000" font-family="sans-serif" font-size="13" lengthAdjust="spacing" textLength="5" x="626.5406" y="678.1015">*</text><!--MD5=[15fbe3d218f25f102ce413fcbf96b6b3]
link HCC to Receptionist--><path codeLine="94" d="M328.42,542.14 C325.95,567.22 323.43,594.69 321.5,620 C312.77,734.47 306.65,871.7 304.43,925.38 " fill="none" id="HCC-Receptionist" style="stroke:#A80036;stroke-width:1.0;"/><text fill="#000000" font-family="sans-serif" font-size="13" lengthAdjust="spacing" textLength="49" x="322.5" y="718.4951">works at</text><text fill="#000000" font-family="sans-serif" font-size="13" lengthAdjust="spacing" textLength="5" x="322.5334" y="562.9127">*</text><text fill="#000000" font-family="sans-serif" font-size="13" lengthAdjust="spacing" textLength="5" x="299.0277" y="914.6894">*</text><!--MD5=[93beab1b5be7ad26b94e7b6aac210527]
link user to type--><path codeLine="95" d="M303.5,1238.07 C303.5,1264.57 303.5,1293.55 303.5,1315.78 " fill="none" id="user-type" style="stroke:#A80036;stroke-width:1.0;"/><text fill="#000000" font-family="sans-serif" font-size="13" lengthAdjust="spacing" textLength="50" x="304.5" y="1282.4951">requests</text><text fill="#000000" font-family="sans-serif" font-size="13" lengthAdjust="spacing" textLength="5" x="298.2617" y="1259.2683">*</text><text fill="#000000" font-family="sans-serif" font-size="13" lengthAdjust="spacing" textLength="5" x="298.0547" y="1305.1027">*</text><!--MD5=[2ca8532a677cd2b4159c5666ee8a2b44]
link user to schedule--><path codeLine="96" d="M354.73,1165.5 C380.68,1165.5 412.47,1165.5 440.16,1165.5 " fill="none" id="user-schedule" style="stroke:#A80036;stroke-width:1.0;"/><text fill="#000000" font-family="sans-serif" font-size="13" lengthAdjust="spacing" textLength="49" x="373" y="1158.9951">chooses</text><text fill="#000000" font-family="sans-serif" font-size="13" lengthAdjust="spacing" textLength="29" x="362.33" y="1179.949">0..10</text><text fill="#000000" font-family="sans-serif" font-size="13" lengthAdjust="spacing" textLength="5" x="427.316" y="1162.1189">*</text><!--MD5=[25a001bf89538651e3e0e951452f7aa9]
link nurse to adminVac--><path codeLine="98" d="M637.03,737.34 C627.65,771.17 609.93,835.09 596.44,883.78 " fill="none" id="nurse-adminVac" style="stroke:#A80036;stroke-width:1.0;"/><text fill="#000000" font-family="sans-serif" font-size="13" lengthAdjust="spacing" textLength="50" x="609.5" y="850.4951">performs</text><text fill="#000000" font-family="sans-serif" font-size="13" lengthAdjust="spacing" textLength="7" x="627.7244" y="758.3544">1</text><text fill="#000000" font-family="sans-serif" font-size="13" lengthAdjust="spacing" textLength="5" x="593.1288" y="873.2304">*</text><!--MD5=[94f5d4d7947cf05f318573374850fd5c]
link adminVac to user--><path codeLine="99" d="M499.7,1011.82 C453.03,1048.14 395.27,1093.09 354.54,1124.78 " fill="none" id="adminVac-user" style="stroke:#A80036;stroke-width:1.0;"/><text fill="#000000" font-family="sans-serif" font-size="13" lengthAdjust="spacing" textLength="44" x="449.5" y="1059.4951">given to</text><text fill="#000000" font-family="sans-serif" font-size="13" lengthAdjust="spacing" textLength="5" x="486.9511" y="1014.5085">*</text><text fill="#000000" font-family="sans-serif" font-size="13" lengthAdjust="spacing" textLength="7" x="362.5506" y="1115.1561">1</text><!--MD5=[98b605410452d802e25dba13ae402a55]
link adminVac to schedule--><path codeLine="100" d="M556.4,1015.29 C544.82,1049.24 530.93,1089.95 520.59,1120.26 " fill="none" id="adminVac-schedule" style="stroke:#A80036;stroke-width:1.0;"/><text fill="#000000" font-family="sans-serif" font-size="13" lengthAdjust="spacing" textLength="21" x="544.5" y="1059.4951">in a</text><text fill="#000000" font-family="sans-serif" font-size="13" lengthAdjust="spacing" textLength="5" x="548.8631" y="1036.412">*</text><text fill="#000000" font-family="sans-serif" font-size="13" lengthAdjust="spacing" textLength="7" x="515.3647" y="1109.6673">1</text><!--MD5=[e8ecb9b34c313b2f8f46722c9cda8e46]
link VC to type--><path codeLine="102" d="M110.97,806.03 C131.9,912.73 172.88,1092.56 234.5,1238 C246.08,1265.33 263.24,1293.97 277.55,1315.82 " fill="none" id="VC-type" style="stroke:#A80036;stroke-width:1.0;"/><text fill="#000000" font-family="sans-serif" font-size="13" lengthAdjust="spacing" textLength="41" x="173.5" y="1059.4951">applies</text><text fill="#000000" font-family="sans-serif" font-size="13" lengthAdjust="spacing" textLength="5" x="107.1269" y="827.8913">*</text><text fill="#000000" font-family="sans-serif" font-size="13" lengthAdjust="spacing" textLength="7" x="265.3042" y="1305.1498">1</text><!--MD5=[bc5ee0dbc5ad12c203e1e01bfe33375e]
link adminVac to reaction--><path codeLine="103" d="M657.08,949.5 C676.16,949.5 696.4,949.5 714.92,949.5 " fill="none" id="adminVac-reaction" style="stroke:#A80036;stroke-width:1.0;"/><text fill="#000000" font-family="sans-serif" font-size="13" lengthAdjust="spacing" textLength="21" x="675.5" y="942.9951">has</text><text fill="#000000" font-family="sans-serif" font-size="13" lengthAdjust="spacing" textLength="5" x="665.0613" y="946.2242">*</text><text fill="#000000" font-family="sans-serif" font-size="13" lengthAdjust="spacing" textLength="20" x="686.9196" y="963.8552">0..*</text><!--MD5=[90f458094618eb2f5a537968c9e95b1b]
link coordinator to VC--><path codeLine="105" d="M63.58,339.12 C59.54,348.19 55.53,358.84 53.5,369 C36.74,453.11 51.49,550.28 67.79,619.67 " fill="none" id="coordinator-VC" style="stroke:#A80036;stroke-width:1.0;"/><text fill="#000000" font-family="sans-serif" font-size="13" lengthAdjust="spacing" textLength="134" x="54.5" y="460.9951">manages information of</text><text fill="#000000" font-family="sans-serif" font-size="13" lengthAdjust="spacing" textLength="7" x="52.8214" y="360.4872">1</text><text fill="#000000" font-family="sans-serif" font-size="13" lengthAdjust="spacing" textLength="5" x="60.4623" y="609.0901">*</text><!--MD5=[b053cf848bcc24c66d1f7749cdcf224e]
link HCC to certificado--><path codeLine="107" d="M386.19,542.29 C408.65,581.87 434.54,627.49 453.82,661.46 " fill="none" id="HCC-certificado" style="stroke:#A80036;stroke-width:1.0;"/><text fill="#000000" font-family="sans-serif" font-size="13" lengthAdjust="spacing" textLength="39" x="410.5" y="586.4951">emites</text><text fill="#000000" font-family="sans-serif" font-size="13" lengthAdjust="spacing" textLength="5" x="384.7264" y="563.0742">*</text><text fill="#000000" font-family="sans-serif" font-size="13" lengthAdjust="spacing" textLength="5" x="444.4353" y="650.5829">*</text><!--MD5=[ed9e961c0a5b2d9fab09fe4f81a3d5ef]
link adminVac to Vaccine--><path codeLine="109" d="M598.48,1015.29 C609.79,1051.95 623.52,1096.48 633.03,1127.3 " fill="none" id="adminVac-Vaccine" style="stroke:#A80036;stroke-width:1.0;"/><text fill="#000000" font-family="sans-serif" font-size="13" lengthAdjust="spacing" textLength="21" x="612.5" y="1059.4951">of a</text><text fill="#000000" font-family="sans-serif" font-size="13" lengthAdjust="spacing" textLength="5" x="595.2826" y="1036.412">*</text><text fill="#000000" font-family="sans-serif" font-size="13" lengthAdjust="spacing" textLength="5" x="625.5416" y="1116.6263">*</text><!--MD5=[4af71bbddae9c9a8156abb0847fcd159]
link certificado to Receptionist--><path codeLine="111" d="M443.88,764.59 C405.85,814.41 349.48,888.27 321.13,925.4 " fill="none" id="certificado-Receptionist" style="stroke:#A80036;stroke-width:1.0;"/><text fill="#000000" font-family="sans-serif" font-size="13" lengthAdjust="spacing" textLength="56" x="388.5" y="850.4951">issued by</text><text fill="#000000" font-family="sans-serif" font-size="13" lengthAdjust="spacing" textLength="5" x="433.0975" y="786.4655">*</text><text fill="#000000" font-family="sans-serif" font-size="13" lengthAdjust="spacing" textLength="7" x="317.7508" y="914.7145">1</text><!--MD5=[eb2782ea0f12aa314400a459c95dda49]
link Vaccine to type--><path codeLine="113" d="M621.22,1203.6 C612.18,1215.8 600.97,1228.62 588.5,1238 C519.21,1290.12 423.05,1322.41 362.06,1339.04 " fill="none" id="Vaccine-type" style="stroke:#A80036;stroke-width:1.0;"/><text fill="#000000" font-family="sans-serif" font-size="13" lengthAdjust="spacing" textLength="21" x="539.5" y="1282.4951">has</text><text fill="#000000" font-family="sans-serif" font-size="13" lengthAdjust="spacing" textLength="5" x="611.9502" y="1224.7867">*</text><text fill="#000000" font-family="sans-serif" font-size="13" lengthAdjust="spacing" textLength="7" x="370.0114" y="1333.6369">1</text><!--MD5=[f8615467b8a4e64deb04d502ad409c87]
@startuml
class "Employee" as E{
-Name
-Employee Number
-Age
-Phone Number
-E-mail
-CC
-Occupation
}

class Administrator{
}
class Receptionist{
}
class "Center Coordinator" as coordinator{
}
class "SNS User" as user{
-Name
-Age
-Phone Number
-E-mail
-CC
-NHS number
-Health condition
}
class "Vaccination Center" as VC{
-Name
-Address
-Phone Number
-E-mail
-Fax Number
-Link
-Opening Hours
-Closing Hours
-Slot Duration
-Max Vaccines per slot
}
class "Health Care Center" as HCC{
-Name
-Address
-Phone Number
-E-mail
-Fax Number
-Link
-Opening Hours
-Closing Hours
-Max Vaccines per slot
}
class Vaccine {
-Vaccine ID
-Brand
}
class "Type of Vaccine" as type{
-Code
-Type
}
class "Nurse" as nurse{
}
class "Vaccine Schedule" as schedule{
-Vaccine Center
-Date
-Time
}
class "Vaccine Administration" as adminVac{
-Vaccine Type
-Vaccine Name
-Lot Number
-Dosage
-Doses Number
-Time Interval
}
class "EU COVID Digital Certificate" as certificado{
-User Name
-First dose date
-Second dose date
-Third dose date
}
class "Adverse Reactions" as reaction {
-Symptom
-Description
}

Administrator-up-|>E
nurse-up-|>E
Receptionist-up-|>E
coordinator-up-|>E


Receptionist"1"- -"*"user:registers arrivals
Administrator"1"- -"*"HCC:  managing the\ninformation of

VC"*"-up-"1"HCC: has
nurse"*"-up->"*"HCC:works at
HCC"*"- -"*"Receptionist: works at
user "*"- -"*"type:requests
user"0..10"-right-"*"schedule:chooses

nurse"1"- -"*"adminVac: performs
adminVac"*"- -"1"user: given to
adminVac"*"- -"1"schedule: in a

VC"*"- -"1"type:applies
adminVac"*"-right-"0..*"reaction: has

coordinator"1"- -"*"VC:manages information of

HCC"*"- -"*"certificado:emites

adminVac"*"- -"*"Vaccine:of a

certificado"*"- -"1"Receptionist:issued by

Vaccine"*"- -"1"type: has
@enduml

PlantUML version 1.2021.00(Sun Jan 10 10:25:05 GMT 2021)
(GPL source distribution)
Java Runtime: OpenJDK Runtime Environment
JVM: OpenJDK 64-Bit Server VM
Default Encoding: Cp1252
Language: pt
Country: PT
--></g></svg>