<?xml version="1.0" encoding="UTF-8" standalone="no"?><svg xmlns="http://www.w3.org/2000/svg" xmlns:xlink="http://www.w3.org/1999/xlink" contentScriptType="application/ecmascript" contentStyleType="text/css" height="1463px" preserveAspectRatio="none" style="width:2303px;height:1463px;background:#FFFFFF;" version="1.1" viewBox="0 0 2303 1463" width="2303px" zoomAndPan="magnify"><defs><filter height="300%" id="f8g4qt59gg3k6" width="300%" x="-1" y="-1"><feGaussianBlur result="blurOut" stdDeviation="2.0"/><feColorMatrix in="blurOut" result="blurOut2" type="matrix" values="0 0 0 0 0 0 0 0 0 0 0 0 0 0 0 0 0 0 .4 0"/><feOffset dx="4.0" dy="4.0" in="blurOut2" result="blurOut3"/><feBlend in="SourceGraphic" in2="blurOut3" mode="normal"/></filter></defs><g><rect fill="#FFFFFF" filter="url(#f8g4qt59gg3k6)" height="1260.7109" style="stroke:#A80036;stroke-width:1.0;" width="10" x="44.5" y="99.6094"/><rect fill="#FFFFFF" filter="url(#f8g4qt59gg3k6)" height="151.7578" style="stroke:#A80036;stroke-width:1.0;" width="10" x="360.5" y="121.9609"/><rect fill="#FFFFFF" filter="url(#f8g4qt59gg3k6)" height="30" style="stroke:#A80036;stroke-width:1.0;" width="10" x="360.5" y="350.6797"/><rect fill="#FFFFFF" filter="url(#f8g4qt59gg3k6)" height="30" style="stroke:#A80036;stroke-width:1.0;" width="10" x="360.5" y="1330.3203"/><rect fill="#FFFFFF" filter="url(#f8g4qt59gg3k6)" height="30.3516" style="stroke:#A80036;stroke-width:1.0;" width="10" x="547.5" y="273.7188"/><rect fill="#FFFFFF" filter="url(#f8g4qt59gg3k6)" height="120.7031" style="stroke:#A80036;stroke-width:1.0;" width="10" x="547.5" y="350.6797"/><rect fill="#FFFFFF" filter="url(#f8g4qt59gg3k6)" height="60.7031" style="stroke:#A80036;stroke-width:1.0;" width="10" x="547.5" y="527.0859"/><rect fill="#FFFFFF" filter="url(#f8g4qt59gg3k6)" height="96.7031" style="stroke:#A80036;stroke-width:1.0;" width="10" x="547.5" y="634.3984"/><rect fill="#FFFFFF" filter="url(#f8g4qt59gg3k6)" height="96.7031" style="stroke:#A80036;stroke-width:1.0;" width="10" x="547.5" y="768.4531"/><rect fill="#FFFFFF" filter="url(#f8g4qt59gg3k6)" height="386.4609" style="stroke:#A80036;stroke-width:1.0;" width="10" x="547.5" y="982.8594"/><rect fill="#FFFFFF" filter="url(#f8g4qt59gg3k6)" height="30" style="stroke:#A80036;stroke-width:1.0;" width="10" x="698.5" y="411.0313"/><rect fill="#FFFFFF" filter="url(#f8g4qt59gg3k6)" height="30.3516" style="stroke:#A80036;stroke-width:1.0;" width="10" x="1085.5" y="557.4375"/><rect fill="#FFFFFF" filter="url(#f8g4qt59gg3k6)" height="66.3516" style="stroke:#A80036;stroke-width:1.0;" width="10" x="1085.5" y="664.75"/><rect fill="#FFFFFF" filter="url(#f8g4qt59gg3k6)" height="28" style="stroke:#A80036;stroke-width:1.0;" width="10" x="1090.5" y="703.1016"/><rect fill="#FFFFFF" filter="url(#f8g4qt59gg3k6)" height="66.3516" style="stroke:#A80036;stroke-width:1.0;" width="10" x="1085.5" y="798.8047"/><rect fill="#FFFFFF" filter="url(#f8g4qt59gg3k6)" height="28" style="stroke:#A80036;stroke-width:1.0;" width="10" x="1090.5" y="837.1563"/><rect fill="#FFFFFF" filter="url(#f8g4qt59gg3k6)" height="66.3516" style="stroke:#A80036;stroke-width:1.0;" width="10" x="1085.5" y="1038.5625"/><rect fill="#FFFFFF" filter="url(#f8g4qt59gg3k6)" height="28" style="stroke:#A80036;stroke-width:1.0;" width="10" x="1090.5" y="1076.9141"/><rect fill="#FFFFFF" filter="url(#f8g4qt59gg3k6)" height="511.4766" style="stroke:#A80036;stroke-width:1.0;" width="10" x="1729.5" y="471.3828"/><rect fill="#FFFFFF" filter="url(#f8g4qt59gg3k6)" height="28" style="stroke:#A80036;stroke-width:1.0;" width="10" x="1734.5" y="910.5078"/><rect fill="#FFFFFF" filter="url(#f8g4qt59gg3k6)" height="30" style="stroke:#A80036;stroke-width:1.0;" width="10" x="1879.5" y="1202.6172"/><rect fill="#FFFFFF" filter="url(#f8g4qt59gg3k6)" height="30" style="stroke:#A80036;stroke-width:1.0;" width="10" x="2011" y="1142.2656"/><rect fill="#FFFFFF" filter="url(#f8g4qt59gg3k6)" height="30" style="stroke:#A80036;stroke-width:1.0;" width="10" x="2183.5" y="1262.9688"/><rect fill="#FFFFFF" filter="url(#f8g4qt59gg3k6)" height="467.125" style="stroke:#000000;stroke-width:2.0;" width="1423" x="466.5" y="486.3828"/><rect fill="#FFFFFF" filter="url(#f8g4qt59gg3k6)" height="303.1094" style="stroke:#000000;stroke-width:2.0;" width="1822.5" x="466.5" y="997.8594"/><line style="stroke:#A80036;stroke-width:1.0;stroke-dasharray:5.0,5.0;" x1="49" x2="49" y1="89.6094" y2="1378.3203"/><line style="stroke:#A80036;stroke-width:1.0;stroke-dasharray:5.0,5.0;" x1="365.5" x2="365.5" y1="89.6094" y2="1378.3203"/><line style="stroke:#A80036;stroke-width:1.0;stroke-dasharray:5.0,5.0;" x1="552.5" x2="552.5" y1="89.6094" y2="1378.3203"/><line style="stroke:#A80036;stroke-width:1.0;stroke-dasharray:5.0,5.0;" x1="703.5" x2="703.5" y1="89.6094" y2="1378.3203"/><line style="stroke:#A80036;stroke-width:1.0;stroke-dasharray:5.0,5.0;" x1="1090.5" x2="1090.5" y1="89.6094" y2="1378.3203"/><line style="stroke:#A80036;stroke-width:1.0;stroke-dasharray:5.0,5.0;" x1="1640.5" x2="1640.5" y1="598.7422" y2="1378.3203"/><line style="stroke:#A80036;stroke-width:1.0;stroke-dasharray:5.0,5.0;" x1="1734.5" x2="1734.5" y1="315.0234" y2="1378.3203"/><line style="stroke:#A80036;stroke-width:1.0;stroke-dasharray:5.0,5.0;" x1="1884" x2="1884" y1="89.6094" y2="1378.3203"/><line style="stroke:#A80036;stroke-width:1.0;stroke-dasharray:5.0,5.0;" x1="2016" x2="2016" y1="89.6094" y2="1378.3203"/><line style="stroke:#A80036;stroke-width:1.0;stroke-dasharray:5.0,5.0;" x1="2188" x2="2188" y1="89.6094" y2="1378.3203"/><text fill="#000000" font-family="sans-serif" font-size="14" lengthAdjust="spacing" textLength="83" x="5" y="86.5332">Administrator</text><ellipse cx="49.5" cy="15" fill="#FEFECE" filter="url(#f8g4qt59gg3k6)" rx="8" ry="8" style="stroke:#A80036;stroke-width:2.0;"/><path d="M49.5,23 L49.5,50 M36.5,31 L62.5,31 M49.5,50 L36.5,65 M49.5,50 L62.5,65 " fill="none" filter="url(#f8g4qt59gg3k6)" style="stroke:#A80036;stroke-width:2.0;"/><text fill="#000000" font-family="sans-serif" font-size="14" lengthAdjust="spacing" textLength="83" x="5" y="1391.8535">Administrator</text><ellipse cx="49.5" cy="1404.9297" fill="#FEFECE" filter="url(#f8g4qt59gg3k6)" rx="8" ry="8" style="stroke:#A80036;stroke-width:2.0;"/><path d="M49.5,1412.9297 L49.5,1439.9297 M36.5,1420.9297 L62.5,1420.9297 M49.5,1439.9297 L36.5,1454.9297 M49.5,1439.9297 L62.5,1454.9297 " fill="none" filter="url(#f8g4qt59gg3k6)" style="stroke:#A80036;stroke-width:2.0;"/><rect fill="#FEFECE" filter="url(#f8g4qt59gg3k6)" height="31.6094" style="stroke:#A80036;stroke-width:1.5;" width="98" x="314.5" y="53"/><text fill="#000000" font-family="sans-serif" font-size="14" lengthAdjust="spacing" textLength="84" x="321.5" y="74.5332">:FileLoaderUI</text><rect fill="#FEFECE" filter="url(#f8g4qt59gg3k6)" height="31.6094" style="stroke:#A80036;stroke-width:1.5;" width="98" x="314.5" y="1377.3203"/><text fill="#000000" font-family="sans-serif" font-size="14" lengthAdjust="spacing" textLength="84" x="321.5" y="1398.8535">:FileLoaderUI</text><rect fill="#FEFECE" filter="url(#f8g4qt59gg3k6)" height="31.6094" style="stroke:#A80036;stroke-width:1.5;" width="148" x="476.5" y="53"/><text fill="#000000" font-family="sans-serif" font-size="14" lengthAdjust="spacing" textLength="134" x="483.5" y="74.5332">:FileLoaderController</text><rect fill="#FEFECE" filter="url(#f8g4qt59gg3k6)" height="31.6094" style="stroke:#A80036;stroke-width:1.5;" width="148" x="476.5" y="1377.3203"/><text fill="#000000" font-family="sans-serif" font-size="14" lengthAdjust="spacing" textLength="134" x="483.5" y="1398.8535">:FileLoaderController</text><rect fill="#FEFECE" filter="url(#f8g4qt59gg3k6)" height="31.6094" style="stroke:#A80036;stroke-width:1.5;" width="78" x="662.5" y="53"/><text fill="#000000" font-family="sans-serif" font-size="14" lengthAdjust="spacing" textLength="64" x="669.5" y="74.5332">:Company</text><rect fill="#FEFECE" filter="url(#f8g4qt59gg3k6)" height="31.6094" style="stroke:#A80036;stroke-width:1.5;" width="78" x="662.5" y="1377.3203"/><text fill="#000000" font-family="sans-serif" font-size="14" lengthAdjust="spacing" textLength="64" x="669.5" y="1398.8535">:Company</text><rect fill="#FEFECE" filter="url(#f8g4qt59gg3k6)" height="31.6094" style="stroke:#A80036;stroke-width:1.5;" width="108" x="1034.5" y="53"/><text fill="#000000" font-family="sans-serif" font-size="14" lengthAdjust="spacing" textLength="94" x="1041.5" y="74.5332">:SNSUserStore</text><rect fill="#FEFECE" filter="url(#f8g4qt59gg3k6)" height="31.6094" style="stroke:#A80036;stroke-width:1.5;" width="108" x="1034.5" y="1377.3203"/><text fill="#000000" font-family="sans-serif" font-size="14" lengthAdjust="spacing" textLength="94" x="1041.5" y="1398.8535">:SNSUserStore</text><rect fill="#FEFECE" filter="url(#f8g4qt59gg3k6)" height="31.6094" style="stroke:#A80036;stroke-width:1.5;" width="74" x="1601.5" y="1377.3203"/><text fill="#000000" font-family="sans-serif" font-size="14" lengthAdjust="spacing" textLength="60" x="1608.5" y="1398.8535">:SNSUser</text><rect fill="#FEFECE" filter="url(#f8g4qt59gg3k6)" height="31.6094" style="stroke:#A80036;stroke-width:1.5;" width="86" x="1689.5" y="1377.3203"/><text fill="#000000" font-family="sans-serif" font-size="14" lengthAdjust="spacing" textLength="72" x="1696.5" y="1398.8535">:FileLoader</text><rect fill="#FEFECE" filter="url(#f8g4qt59gg3k6)" height="31.6094" style="stroke:#A80036;stroke-width:1.5;" width="95" x="1835" y="53"/><text fill="#000000" font-family="sans-serif" font-size="14" lengthAdjust="spacing" textLength="81" x="1842" y="74.5332">:AuthFacade</text><rect fill="#FEFECE" filter="url(#f8g4qt59gg3k6)" height="31.6094" style="stroke:#A80036;stroke-width:1.5;" width="95" x="1835" y="1377.3203"/><text fill="#000000" font-family="sans-serif" font-size="14" lengthAdjust="spacing" textLength="81" x="1842" y="1398.8535">:AuthFacade</text><rect fill="#FEFECE" filter="url(#f8g4qt59gg3k6)" height="31.6094" style="stroke:#A80036;stroke-width:1.5;" width="140" x="1944" y="53"/><text fill="#000000" font-family="sans-serif" font-size="14" lengthAdjust="spacing" textLength="126" x="1951" y="74.5332">PasswordGenerator</text><rect fill="#FEFECE" filter="url(#f8g4qt59gg3k6)" height="31.6094" style="stroke:#A80036;stroke-width:1.5;" width="140" x="1944" y="1377.3203"/><text fill="#000000" font-family="sans-serif" font-size="14" lengthAdjust="spacing" textLength="126" x="1951" y="1398.8535">PasswordGenerator</text><rect fill="#FEFECE" filter="url(#f8g4qt59gg3k6)" height="31.6094" style="stroke:#A80036;stroke-width:1.5;" width="177" x="2098" y="53"/><text fill="#000000" font-family="sans-serif" font-size="14" lengthAdjust="spacing" textLength="163" x="2105" y="74.5332">SendPasswordNotification</text><rect fill="#FEFECE" filter="url(#f8g4qt59gg3k6)" height="31.6094" style="stroke:#A80036;stroke-width:1.5;" width="177" x="2098" y="1377.3203"/><text fill="#000000" font-family="sans-serif" font-size="14" lengthAdjust="spacing" textLength="163" x="2105" y="1398.8535">SendPasswordNotification</text><rect fill="#FFFFFF" filter="url(#f8g4qt59gg3k6)" height="1260.7109" style="stroke:#A80036;stroke-width:1.0;" width="10" x="44.5" y="99.6094"/><rect fill="#FFFFFF" filter="url(#f8g4qt59gg3k6)" height="151.7578" style="stroke:#A80036;stroke-width:1.0;" width="10" x="360.5" y="121.9609"/><rect fill="#FFFFFF" filter="url(#f8g4qt59gg3k6)" height="30" style="stroke:#A80036;stroke-width:1.0;" width="10" x="360.5" y="350.6797"/><rect fill="#FFFFFF" filter="url(#f8g4qt59gg3k6)" height="30" style="stroke:#A80036;stroke-width:1.0;" width="10" x="360.5" y="1330.3203"/><rect fill="#FFFFFF" filter="url(#f8g4qt59gg3k6)" height="30.3516" style="stroke:#A80036;stroke-width:1.0;" width="10" x="547.5" y="273.7188"/><rect fill="#FFFFFF" filter="url(#f8g4qt59gg3k6)" height="120.7031" style="stroke:#A80036;stroke-width:1.0;" width="10" x="547.5" y="350.6797"/><rect fill="#FFFFFF" filter="url(#f8g4qt59gg3k6)" height="60.7031" style="stroke:#A80036;stroke-width:1.0;" width="10" x="547.5" y="527.0859"/><rect fill="#FFFFFF" filter="url(#f8g4qt59gg3k6)" height="96.7031" style="stroke:#A80036;stroke-width:1.0;" width="10" x="547.5" y="634.3984"/><rect fill="#FFFFFF" filter="url(#f8g4qt59gg3k6)" height="96.7031" style="stroke:#A80036;stroke-width:1.0;" width="10" x="547.5" y="768.4531"/><rect fill="#FFFFFF" filter="url(#f8g4qt59gg3k6)" height="386.4609" style="stroke:#A80036;stroke-width:1.0;" width="10" x="547.5" y="982.8594"/><rect fill="#FFFFFF" filter="url(#f8g4qt59gg3k6)" height="30" style="stroke:#A80036;stroke-width:1.0;" width="10" x="698.5" y="411.0313"/><rect fill="#FFFFFF" filter="url(#f8g4qt59gg3k6)" height="30.3516" style="stroke:#A80036;stroke-width:1.0;" width="10" x="1085.5" y="557.4375"/><rect fill="#FFFFFF" filter="url(#f8g4qt59gg3k6)" height="66.3516" style="stroke:#A80036;stroke-width:1.0;" width="10" x="1085.5" y="664.75"/><rect fill="#FFFFFF" filter="url(#f8g4qt59gg3k6)" height="28" style="stroke:#A80036;stroke-width:1.0;" width="10" x="1090.5" y="703.1016"/><rect fill="#FFFFFF" filter="url(#f8g4qt59gg3k6)" height="66.3516" style="stroke:#A80036;stroke-width:1.0;" width="10" x="1085.5" y="798.8047"/><rect fill="#FFFFFF" filter="url(#f8g4qt59gg3k6)" height="28" style="stroke:#A80036;stroke-width:1.0;" width="10" x="1090.5" y="837.1563"/><rect fill="#FFFFFF" filter="url(#f8g4qt59gg3k6)" height="66.3516" style="stroke:#A80036;stroke-width:1.0;" width="10" x="1085.5" y="1038.5625"/><rect fill="#FFFFFF" filter="url(#f8g4qt59gg3k6)" height="28" style="stroke:#A80036;stroke-width:1.0;" width="10" x="1090.5" y="1076.9141"/><rect fill="#FFFFFF" filter="url(#f8g4qt59gg3k6)" height="511.4766" style="stroke:#A80036;stroke-width:1.0;" width="10" x="1729.5" y="471.3828"/><rect fill="#FFFFFF" filter="url(#f8g4qt59gg3k6)" height="28" style="stroke:#A80036;stroke-width:1.0;" width="10" x="1734.5" y="910.5078"/><rect fill="#FFFFFF" filter="url(#f8g4qt59gg3k6)" height="30" style="stroke:#A80036;stroke-width:1.0;" width="10" x="1879.5" y="1202.6172"/><rect fill="#FFFFFF" filter="url(#f8g4qt59gg3k6)" height="30" style="stroke:#A80036;stroke-width:1.0;" width="10" x="2011" y="1142.2656"/><rect fill="#FFFFFF" filter="url(#f8g4qt59gg3k6)" height="30" style="stroke:#A80036;stroke-width:1.0;" width="10" x="2183.5" y="1262.9688"/><polygon fill="#A80036" points="348.5,117.9609,358.5,121.9609,348.5,125.9609,352.5,121.9609" style="stroke:#A80036;stroke-width:1.0;"/><line style="stroke:#A80036;stroke-width:1.0;" x1="54.5" x2="354.5" y1="121.9609" y2="121.9609"/><text fill="#000000" font-family="sans-serif" font-size="13" font-weight="bold" lengthAdjust="spacing" textLength="7" x="61.5" y="117.1045">1</text><text fill="#000000" font-family="sans-serif" font-size="13" lengthAdjust="spacing" textLength="124" x="72.5" y="117.1045">requests to load a file</text><polygon fill="#A80036" points="65.5,148.3125,55.5,152.3125,65.5,156.3125,61.5,152.3125" style="stroke:#A80036;stroke-width:1.0;"/><line style="stroke:#A80036;stroke-width:1.0;stroke-dasharray:2.0,2.0;" x1="59.5" x2="359.5" y1="152.3125" y2="152.3125"/><text fill="#000000" font-family="sans-serif" font-size="13" font-weight="bold" lengthAdjust="spacing" textLength="7" x="71.5" y="147.4561">2</text><text fill="#000000" font-family="sans-serif" font-size="13" lengthAdjust="spacing" textLength="95" x="82.5" y="147.4561">asks for file path</text><polygon fill="#A80036" points="348.5,178.6641,358.5,182.6641,348.5,186.6641,352.5,182.6641" style="stroke:#A80036;stroke-width:1.0;"/><line style="stroke:#A80036;stroke-width:1.0;" x1="54.5" x2="354.5" y1="182.6641" y2="182.6641"/><text fill="#000000" font-family="sans-serif" font-size="13" font-weight="bold" lengthAdjust="spacing" textLength="7" x="61.5" y="177.8076">3</text><text fill="#000000" font-family="sans-serif" font-size="13" lengthAdjust="spacing" textLength="90" x="72.5" y="177.8076">types file's path</text><polygon fill="#A80036" points="65.5,209.0156,55.5,213.0156,65.5,217.0156,61.5,213.0156" style="stroke:#A80036;stroke-width:1.0;"/><line style="stroke:#A80036;stroke-width:1.0;stroke-dasharray:2.0,2.0;" x1="59.5" x2="359.5" y1="213.0156" y2="213.0156"/><text fill="#000000" font-family="sans-serif" font-size="13" font-weight="bold" lengthAdjust="spacing" textLength="7" x="71.5" y="208.1592">4</text><text fill="#000000" font-family="sans-serif" font-size="13" lengthAdjust="spacing" textLength="149" x="82.5" y="208.1592">asks for path confirmation</text><polygon fill="#A80036" points="348.5,239.3672,358.5,243.3672,348.5,247.3672,352.5,243.3672" style="stroke:#A80036;stroke-width:1.0;"/><line style="stroke:#A80036;stroke-width:1.0;" x1="54.5" x2="354.5" y1="243.3672" y2="243.3672"/><text fill="#000000" font-family="sans-serif" font-size="13" font-weight="bold" lengthAdjust="spacing" textLength="7" x="61.5" y="238.5107">5</text><text fill="#000000" font-family="sans-serif" font-size="13" lengthAdjust="spacing" textLength="98" x="72.5" y="238.5107">confirms file path</text><polygon fill="#A80036" points="535.5,269.7188,545.5,273.7188,535.5,277.7188,539.5,273.7188" style="stroke:#A80036;stroke-width:1.0;"/><line style="stroke:#A80036;stroke-width:1.0;" x1="365.5" x2="541.5" y1="273.7188" y2="273.7188"/><text fill="#000000" font-family="sans-serif" font-size="13" font-weight="bold" lengthAdjust="spacing" textLength="7" x="372.5" y="268.8623">6</text><text fill="#000000" font-family="sans-serif" font-size="13" lengthAdjust="spacing" textLength="147" x="383.5" y="268.8623">createFileLoader(filePath)</text><polygon fill="#A80036" points="1677.5,300.0703,1687.5,304.0703,1677.5,308.0703,1681.5,304.0703" style="stroke:#A80036;stroke-width:1.0;"/><line style="stroke:#A80036;stroke-width:1.0;" x1="552.5" x2="1683.5" y1="304.0703" y2="304.0703"/><text fill="#000000" font-family="sans-serif" font-size="13" font-weight="bold" lengthAdjust="spacing" textLength="7" x="559.5" y="299.2139">7</text><text fill="#000000" font-family="sans-serif" font-size="13" lengthAdjust="spacing" textLength="138" x="570.5" y="299.2139">loader = create(filePath)</text><rect fill="#FEFECE" filter="url(#f8g4qt59gg3k6)" height="31.6094" style="stroke:#A80036;stroke-width:1.5;" width="86" x="1689.5" y="281.7188"/><text fill="#000000" font-family="sans-serif" font-size="14" lengthAdjust="spacing" textLength="72" x="1696.5" y="303.252">:FileLoader</text><polygon fill="#A80036" points="535.5,346.6797,545.5,350.6797,535.5,354.6797,539.5,350.6797" style="stroke:#A80036;stroke-width:1.0;"/><line style="stroke:#A80036;stroke-width:1.0;" x1="370.5" x2="541.5" y1="350.6797" y2="350.6797"/><text fill="#000000" font-family="sans-serif" font-size="13" font-weight="bold" lengthAdjust="spacing" textLength="7" x="377.5" y="345.8232">8</text><text fill="#000000" font-family="sans-serif" font-size="13" lengthAdjust="spacing" textLength="53" x="388.5" y="345.8232">loadFile()</text><polygon fill="#A80036" points="686.5,407.0313,696.5,411.0313,686.5,415.0313,690.5,411.0313" style="stroke:#A80036;stroke-width:1.0;"/><line style="stroke:#A80036;stroke-width:1.0;" x1="557.5" x2="692.5" y1="411.0313" y2="411.0313"/><text fill="#000000" font-family="sans-serif" font-size="13" font-weight="bold" lengthAdjust="spacing" textLength="7" x="564.5" y="406.1748">9</text><text fill="#000000" font-family="sans-serif" font-size="13" lengthAdjust="spacing" textLength="111" x="575.5" y="406.1748">getSNSUserStore()</text><polygon fill="#A80036" points="1717.5,467.3828,1727.5,471.3828,1717.5,475.3828,1721.5,471.3828" style="stroke:#A80036;stroke-width:1.0;"/><line style="stroke:#A80036;stroke-width:1.0;" x1="552.5" x2="1723.5" y1="471.3828" y2="471.3828"/><text fill="#000000" font-family="sans-serif" font-size="13" font-weight="bold" lengthAdjust="spacing" textLength="14" x="559.5" y="466.5264">10</text><text fill="#000000" font-family="sans-serif" font-size="13" lengthAdjust="spacing" textLength="53" x="577.5" y="466.5264">loadFile()</text><path d="M466.5,486.3828 L539.5,486.3828 L539.5,494.3828 L529.5,504.3828 L466.5,504.3828 L466.5,486.3828 " fill="#EEEEEE" style="stroke:#000000;stroke-width:1.0;"/><rect fill="none" height="467.125" style="stroke:#000000;stroke-width:2.0;" width="1423" x="466.5" y="486.3828"/><text fill="#000000" font-family="sans-serif" font-size="13" font-weight="bold" lengthAdjust="spacing" textLength="28" x="481.5" y="500.8779">loop</text><text fill="#000000" font-family="sans-serif" font-size="11" font-weight="bold" lengthAdjust="spacing" textLength="173" x="554.5" y="499.8018">[while (scanner.hasNextLine())]</text><polygon fill="#A80036" points="568.5,523.0859,558.5,527.0859,568.5,531.0859,564.5,527.0859" style="stroke:#A80036;stroke-width:1.0;"/><line style="stroke:#A80036;stroke-width:1.0;" x1="562.5" x2="1728.5" y1="527.0859" y2="527.0859"/><text fill="#000000" font-family="sans-serif" font-size="13" font-weight="bold" lengthAdjust="spacing" textLength="14" x="574.5" y="522.2295">11</text><text fill="#000000" font-family="sans-serif" font-size="13" lengthAdjust="spacing" textLength="922" x="592.5" y="522.2295">user = getUser(userAttributes[0] , userAttributes[1], userAttributes[2], userAttributes[3], userAttributes[4], userAttributes[5], userAttributes[6], userAttributes[7])</text><polygon fill="#A80036" points="1073.5,553.4375,1083.5,557.4375,1073.5,561.4375,1077.5,557.4375" style="stroke:#A80036;stroke-width:1.0;"/><line style="stroke:#A80036;stroke-width:1.0;" x1="557.5" x2="1079.5" y1="557.4375" y2="557.4375"/><text fill="#000000" font-family="sans-serif" font-size="13" font-weight="bold" lengthAdjust="spacing" textLength="14" x="564.5" y="552.5811">12</text><text fill="#000000" font-family="sans-serif" font-size="13" lengthAdjust="spacing" textLength="491" x="582.5" y="552.5811">createSNS(name, gender, birthdate, address, phoneNumber, email, SNSNumber, cc)</text><polygon fill="#A80036" points="1589.5,583.7891,1599.5,587.7891,1589.5,591.7891,1593.5,587.7891" style="stroke:#A80036;stroke-width:1.0;"/><line style="stroke:#A80036;stroke-width:1.0;stroke-dasharray:2.0,2.0;" x1="1090.5" x2="1595.5" y1="587.7891" y2="587.7891"/><text fill="#000000" font-family="sans-serif" font-size="13" font-weight="bold" lengthAdjust="spacing" textLength="14" x="1097.5" y="582.9326">13</text><text fill="#000000" font-family="sans-serif" font-size="13" lengthAdjust="spacing" textLength="464" x="1115.5" y="582.9326">create(name, gender, birthdate, address, phoneNumber, email, SNSNumber, cc)</text><rect fill="#FEFECE" filter="url(#f8g4qt59gg3k6)" height="31.6094" style="stroke:#A80036;stroke-width:1.5;" width="74" x="1601.5" y="565.4375"/><text fill="#000000" font-family="sans-serif" font-size="14" lengthAdjust="spacing" textLength="60" x="1608.5" y="586.9707">:SNSUser</text><polygon fill="#A80036" points="568.5,630.3984,558.5,634.3984,568.5,638.3984,564.5,634.3984" style="stroke:#A80036;stroke-width:1.0;"/><line style="stroke:#A80036;stroke-width:1.0;" x1="562.5" x2="1728.5" y1="634.3984" y2="634.3984"/><text fill="#000000" font-family="sans-serif" font-size="13" font-weight="bold" lengthAdjust="spacing" textLength="14" x="574.5" y="629.542">14</text><text fill="#000000" font-family="sans-serif" font-size="13" lengthAdjust="spacing" textLength="113" x="592.5" y="629.542">fileUserExists(user)</text><polygon fill="#A80036" points="1073.5,660.75,1083.5,664.75,1073.5,668.75,1077.5,664.75" style="stroke:#A80036;stroke-width:1.0;"/><line style="stroke:#A80036;stroke-width:1.0;" x1="557.5" x2="1079.5" y1="664.75" y2="664.75"/><text fill="#000000" font-family="sans-serif" font-size="13" font-weight="bold" lengthAdjust="spacing" textLength="14" x="564.5" y="659.8936">15</text><text fill="#000000" font-family="sans-serif" font-size="13" lengthAdjust="spacing" textLength="113" x="582.5" y="659.8936">fileUserExists(user)</text><line style="stroke:#A80036;stroke-width:1.0;" x1="1100.5" x2="1142.5" y1="695.1016" y2="695.1016"/><line style="stroke:#A80036;stroke-width:1.0;" x1="1142.5" x2="1142.5" y1="695.1016" y2="708.1016"/><line style="stroke:#A80036;stroke-width:1.0;" x1="1101.5" x2="1142.5" y1="708.1016" y2="708.1016"/><polygon fill="#A80036" points="1111.5,704.1016,1101.5,708.1016,1111.5,712.1016,1107.5,708.1016" style="stroke:#A80036;stroke-width:1.0;"/><text fill="#000000" font-family="sans-serif" font-size="13" font-weight="bold" lengthAdjust="spacing" textLength="14" x="1107.5" y="690.2451">16</text><text fill="#000000" font-family="sans-serif" font-size="13" lengthAdjust="spacing" textLength="95" x="1125.5" y="690.2451">userExists(user)</text><polygon fill="#A80036" points="568.5,764.4531,558.5,768.4531,568.5,772.4531,564.5,768.4531" style="stroke:#A80036;stroke-width:1.0;"/><line style="stroke:#A80036;stroke-width:1.0;" x1="562.5" x2="1728.5" y1="768.4531" y2="768.4531"/><text fill="#000000" font-family="sans-serif" font-size="13" font-weight="bold" lengthAdjust="spacing" textLength="14" x="574.5" y="763.5967">17</text><text fill="#000000" font-family="sans-serif" font-size="13" lengthAdjust="spacing" textLength="124" x="592.5" y="763.5967">validateFileUser(user)</text><polygon fill="#A80036" points="1073.5,794.8047,1083.5,798.8047,1073.5,802.8047,1077.5,798.8047" style="stroke:#A80036;stroke-width:1.0;"/><line style="stroke:#A80036;stroke-width:1.0;" x1="557.5" x2="1079.5" y1="798.8047" y2="798.8047"/><text fill="#000000" font-family="sans-serif" font-size="13" font-weight="bold" lengthAdjust="spacing" textLength="14" x="564.5" y="793.9482">18</text><text fill="#000000" font-family="sans-serif" font-size="13" lengthAdjust="spacing" textLength="130" x="582.5" y="793.9482">validateSNSUser(user)</text><line style="stroke:#A80036;stroke-width:1.0;" x1="1100.5" x2="1142.5" y1="829.1563" y2="829.1563"/><line style="stroke:#A80036;stroke-width:1.0;" x1="1142.5" x2="1142.5" y1="829.1563" y2="842.1563"/><line style="stroke:#A80036;stroke-width:1.0;" x1="1101.5" x2="1142.5" y1="842.1563" y2="842.1563"/><polygon fill="#A80036" points="1111.5,838.1563,1101.5,842.1563,1111.5,846.1563,1107.5,842.1563" style="stroke:#A80036;stroke-width:1.0;"/><text fill="#000000" font-family="sans-serif" font-size="13" font-weight="bold" lengthAdjust="spacing" textLength="14" x="1107.5" y="824.2998">19</text><text fill="#000000" font-family="sans-serif" font-size="13" lengthAdjust="spacing" textLength="130" x="1125.5" y="824.2998">validateSNSUser(user)</text><line style="stroke:#A80036;stroke-width:1.0;" x1="1744.5" x2="1786.5" y1="902.5078" y2="902.5078"/><line style="stroke:#A80036;stroke-width:1.0;" x1="1786.5" x2="1786.5" y1="902.5078" y2="915.5078"/><line style="stroke:#A80036;stroke-width:1.0;" x1="1745.5" x2="1786.5" y1="915.5078" y2="915.5078"/><polygon fill="#A80036" points="1755.5,911.5078,1745.5,915.5078,1755.5,919.5078,1751.5,915.5078" style="stroke:#A80036;stroke-width:1.0;"/><text fill="#000000" font-family="sans-serif" font-size="13" font-weight="bold" lengthAdjust="spacing" textLength="14" x="1751.5" y="897.6514">20</text><text fill="#000000" font-family="sans-serif" font-size="13" lengthAdjust="spacing" textLength="108" x="1769.5" y="897.6514">fileUsers.add(user)</text><polygon fill="#A80036" points="568.5,978.8594,558.5,982.8594,568.5,986.8594,564.5,982.8594" style="stroke:#A80036;stroke-width:1.0;"/><line style="stroke:#A80036;stroke-width:1.0;" x1="562.5" x2="1733.5" y1="982.8594" y2="982.8594"/><text fill="#000000" font-family="sans-serif" font-size="13" font-weight="bold" lengthAdjust="spacing" textLength="14" x="574.5" y="978.0029">21</text><text fill="#000000" font-family="sans-serif" font-size="13" lengthAdjust="spacing" textLength="156" x="592.5" y="978.0029">loadSNSUserSet(fileUsers)</text><path d="M466.5,997.8594 L539.5,997.8594 L539.5,1005.8594 L529.5,1015.8594 L466.5,1015.8594 L466.5,997.8594 " fill="#EEEEEE" style="stroke:#000000;stroke-width:1.0;"/><rect fill="none" height="303.1094" style="stroke:#000000;stroke-width:2.0;" width="1822.5" x="466.5" y="997.8594"/><text fill="#000000" font-family="sans-serif" font-size="13" font-weight="bold" lengthAdjust="spacing" textLength="28" x="481.5" y="1012.3545">loop</text><text fill="#000000" font-family="sans-serif" font-size="11" font-weight="bold" lengthAdjust="spacing" textLength="184" x="554.5" y="1011.2783">[for each SNSUser[u] in fileUsers]</text><polygon fill="#A80036" points="1073.5,1034.5625,1083.5,1038.5625,1073.5,1042.5625,1077.5,1038.5625" style="stroke:#A80036;stroke-width:1.0;"/><line style="stroke:#A80036;stroke-width:1.0;" x1="557.5" x2="1079.5" y1="1038.5625" y2="1038.5625"/><text fill="#000000" font-family="sans-serif" font-size="13" font-weight="bold" lengthAdjust="spacing" textLength="14" x="564.5" y="1033.7061">22</text><text fill="#000000" font-family="sans-serif" font-size="13" lengthAdjust="spacing" textLength="95" x="582.5" y="1033.7061">saveSNSUser(u)</text><line style="stroke:#A80036;stroke-width:1.0;" x1="1100.5" x2="1142.5" y1="1068.9141" y2="1068.9141"/><line style="stroke:#A80036;stroke-width:1.0;" x1="1142.5" x2="1142.5" y1="1068.9141" y2="1081.9141"/><line style="stroke:#A80036;stroke-width:1.0;" x1="1101.5" x2="1142.5" y1="1081.9141" y2="1081.9141"/><polygon fill="#A80036" points="1111.5,1077.9141,1101.5,1081.9141,1111.5,1085.9141,1107.5,1081.9141" style="stroke:#A80036;stroke-width:1.0;"/><text fill="#000000" font-family="sans-serif" font-size="13" font-weight="bold" lengthAdjust="spacing" textLength="14" x="1107.5" y="1064.0576">23</text><text fill="#000000" font-family="sans-serif" font-size="13" lengthAdjust="spacing" textLength="95" x="1125.5" y="1064.0576">saveSNSUser(u)</text><polygon fill="#A80036" points="1999,1138.2656,2009,1142.2656,1999,1146.2656,2003,1142.2656" style="stroke:#A80036;stroke-width:1.0;"/><line style="stroke:#A80036;stroke-width:1.0;" x1="557.5" x2="2005" y1="1142.2656" y2="1142.2656"/><text fill="#000000" font-family="sans-serif" font-size="13" font-weight="bold" lengthAdjust="spacing" textLength="14" x="564.5" y="1137.4092">24</text><text fill="#000000" font-family="sans-serif" font-size="13" lengthAdjust="spacing" textLength="122" x="582.5" y="1137.4092">pwd = getPassword()</text><polygon fill="#A80036" points="1867.5,1198.6172,1877.5,1202.6172,1867.5,1206.6172,1871.5,1202.6172" style="stroke:#A80036;stroke-width:1.0;"/><line style="stroke:#A80036;stroke-width:1.0;" x1="557.5" x2="1873.5" y1="1202.6172" y2="1202.6172"/><text fill="#000000" font-family="sans-serif" font-size="13" font-weight="bold" lengthAdjust="spacing" textLength="14" x="564.5" y="1197.7607">25</text><text fill="#000000" font-family="sans-serif" font-size="13" lengthAdjust="spacing" textLength="318" x="582.5" y="1197.7607">addUserWithRole(u.getName(), u.getEmail(), role, pwd)</text><polygon fill="#A80036" points="2171.5,1258.9688,2181.5,1262.9688,2171.5,1266.9688,2175.5,1262.9688" style="stroke:#A80036;stroke-width:1.0;"/><line style="stroke:#A80036;stroke-width:1.0;" x1="557.5" x2="2177.5" y1="1262.9688" y2="1262.9688"/><text fill="#000000" font-family="sans-serif" font-size="13" font-weight="bold" lengthAdjust="spacing" textLength="14" x="564.5" y="1258.1123">26</text><text fill="#000000" font-family="sans-serif" font-size="13" lengthAdjust="spacing" textLength="248" x="582.5" y="1258.1123">sendPassword(names, emails, passwords)</text><polygon fill="#A80036" points="65.5,1326.3203,55.5,1330.3203,65.5,1334.3203,61.5,1330.3203" style="stroke:#A80036;stroke-width:1.0;"/><line style="stroke:#A80036;stroke-width:1.0;stroke-dasharray:2.0,2.0;" x1="59.5" x2="359.5" y1="1330.3203" y2="1330.3203"/><text fill="#000000" font-family="sans-serif" font-size="13" font-weight="bold" lengthAdjust="spacing" textLength="14" x="71.5" y="1325.4639">27</text><text fill="#000000" font-family="sans-serif" font-size="13" lengthAdjust="spacing" textLength="269" x="89.5" y="1325.4639">informs that the file was loaded succssessfully</text><!--MD5=[6aa0705b780996b3fec8bd5b50fca737]
@startuml

autonumber

actor "Administrator" as adm
participant ":FileLoaderUI" as ui
participant ":FileLoaderController" as ctrl
participant ":Company" as comp
participant ":SNSUserStore" as snsStore
participant ":SNSUser" as sns
participant ":FileLoader" as loader
participant ":AuthFacade" as auth

activate adm

adm -> ui : requests to load a file

activate ui
ui - -> adm : asks for file path
adm -> ui : types file's path
ui - -> adm : asks for path confirmation
adm -> ui : confirms file path
ui -> ctrl : createFileLoader(filePath)
deactivate ui

activate ctrl
ctrl -> loader** : loader = create(filePath)
deactivate ctrl

ui -> ctrl : loadFile()
activate ui
deactivate ui
activate ctrl
ctrl -> comp : getSNSUserStore()
activate comp
deactivate comp
ctrl -> loader : loadFile()
deactivate ctrl
loop while (scanner.hasNextLine())
activate loader
loader -> ctrl : user = getUser(userAttributes[0] , userAttributes[1], userAttributes[2], userAttributes[3], userAttributes[4], userAttributes[5], userAttributes[6], userAttributes[7])
activate ctrl
ctrl -> snsStore : createSNS(name, gender, birthdate, address, phoneNumber, email, SNSNumber, cc)
activate snsStore
snsStore - -> sns** : create(name, gender, birthdate, address, phoneNumber, email, SNSNumber, cc)
deactivate snsStore
deactivate ctrl
loader -> ctrl : fileUserExists(user)
activate ctrl
ctrl -> snsStore : fileUserExists(user)
activate snsStore
snsStore -> snsStore : userExists(user)
activate snsStore
deactivate snsStore
deactivate ctrl
deactivate snsStore
loader -> ctrl : validateFileUser(user)
activate ctrl
ctrl -> snsStore : validateSNSUser(user)
activate snsStore
snsStore -> snsStore : validateSNSUser(user)
activate snsStore
deactivate snsStore
deactivate snsStore
deactivate ctrl
loader -> loader : fileUsers.add(user)
activate loader
deactivate loader
end loop
activate loader
loader -> ctrl : loadSNSUserSet(fileUsers)
deactivate loader

activate ctrl
loop for each SNSUser[u] in fileUsers
ctrl -> snsStore : saveSNSUser(u)
activate snsStore
snsStore -> snsStore : saveSNSUser(u)
activate snsStore
deactivate snsStore
deactivate snsStore
ctrl -> PasswordGenerator : pwd = getPassword()
activate PasswordGenerator
deactivate PasswordGenerator
ctrl -> auth : addUserWithRole(u.getName(), u.getEmail(), role, pwd)
activate auth
deactivate auth
ctrl -> SendPasswordNotification : sendPassword(names, emails, passwords)
activate SendPasswordNotification
deactivate SendPasswordNotification

end loop

ui - -> adm : informs that the file was loaded succssessfully
activate ui
deactivate ui
deactivate adm

@enduml

PlantUML version 1.2022.1(Tue Feb 01 18:19:58 GMT 2022)
(GPL source distribution)
Java Runtime: OpenJDK Runtime Environment
JVM: OpenJDK 64-Bit Server VM
Default Encoding: Cp1252
Language: en
Country: US
--></g></svg>