<?xml version="1.0" encoding="UTF-8" standalone="no"?><svg xmlns="http://www.w3.org/2000/svg" xmlns:xlink="http://www.w3.org/1999/xlink" contentScriptType="application/ecmascript" contentStyleType="text/css" height="287px" preserveAspectRatio="none" style="width:117px;height:287px;background:#FFFFFF;" version="1.1" viewBox="0 0 117 287" width="117px" zoomAndPan="magnify"><defs><filter height="300%" id="f83on3keoekh5" width="300%" x="-1" y="-1"><feGaussianBlur result="blurOut" stdDeviation="2.0"/><feColorMatrix in="blurOut" result="blurOut2" type="matrix" values="0 0 0 0 0 0 0 0 0 0 0 0 0 0 0 0 0 0 .4 0"/><feOffset dx="4.0" dy="4.0" in="blurOut2" result="blurOut3"/><feBlend in="SourceGraphic" in2="blurOut3" mode="normal"/></filter></defs><g><!--MD5=[3e435d042affccde68262619adda5b81]
class admin--><rect codeLine="3" fill="#FEFECE" filter="url(#f83on3keoekh5)" height="48" id="admin" style="stroke:#A80036;stroke-width:1.5;" width="67" x="21.5" y="7"/><ellipse cx="36.5" cy="23" fill="#ADD1B2" rx="11" ry="11" style="stroke:#A80036;stroke-width:1.0;"/><path d="M38.5,19.5 Q38.7031,19 38.9375,18.75 Q39.1719,18.5 39.4375,18.5 Q39.9063,18.5 40.2031,18.7813 Q40.5,19.0625 40.5,19.7188 L40.5,21.2813 Q40.5,21.9375 40.2188,22.2188 Q39.9375,22.5 39.5,22.5 Q39.1094,22.5 38.8594,22.3281 Q38.6094,22.1563 38.5,21.7031 Q38.4531,21.3906 38.2813,21.2188 Q37.9688,20.8906 37.4063,20.7031 Q36.8438,20.5 36.2813,20.5 Q35.5781,20.5 34.9844,20.7813 Q34.4063,21.0625 33.9531,21.6875 Q33.5,22.3125 33.5,23.1719 L33.5,24.0938 Q33.5,25.125 34.3438,25.8125 Q35.1875,26.5 36.6875,26.5 Q37.5781,26.5 38.2031,26.2969 Q38.5625,26.1875 38.9688,25.8281 Q39.2344,25.625 39.375,25.5625 Q39.5156,25.5 39.6875,25.5 Q40.0156,25.5 40.25,25.7656 Q40.5,26.0156 40.5,26.375 Q40.5,26.7188 40.1563,27.125 Q39.6563,27.7188 38.8594,28.0469 Q37.8125,28.5 36.5313,28.5 Q35.0313,28.5 33.8281,27.9063 Q32.8594,27.4375 32.1719,26.4219 Q31.5,25.4063 31.5,24.2031 L31.5,23.1094 Q31.5,21.8594 32.0938,20.7656 Q32.7031,19.6719 33.75,19.0938 Q34.8125,18.5 36,18.5 Q36.7188,18.5 37.3438,18.75 Q37.9688,19 38.5,19.5 Z " fill="#000000"/><text fill="#000000" font-family="sans-serif" font-size="12" lengthAdjust="spacing" textLength="35" x="50.5" y="27.9102">admin</text><line style="stroke:#A80036;stroke-width:1.5;" x1="22.5" x2="87.5" y1="39" y2="39"/><line style="stroke:#A80036;stroke-width:1.5;" x1="22.5" x2="87.5" y1="47" y2="47"/><!--MD5=[e59cf999063292dce8d6ea34dd10a338]
class user--><rect codeLine="5" fill="#FEFECE" filter="url(#f83on3keoekh5)" height="158.6875" id="user" style="stroke:#A80036;stroke-width:1.5;" width="96" x="7" y="115"/><ellipse cx="39.55" cy="131" fill="#ADD1B2" rx="11" ry="11" style="stroke:#A80036;stroke-width:1.0;"/><path d="M41.55,127.5 Q41.7531,127 41.9875,126.75 Q42.2219,126.5 42.4875,126.5 Q42.9563,126.5 43.2531,126.7813 Q43.55,127.0625 43.55,127.7188 L43.55,129.2813 Q43.55,129.9375 43.2688,130.2188 Q42.9875,130.5 42.55,130.5 Q42.1594,130.5 41.9094,130.3281 Q41.6594,130.1563 41.55,129.7031 Q41.5031,129.3906 41.3313,129.2188 Q41.0188,128.8906 40.4563,128.7031 Q39.8938,128.5 39.3313,128.5 Q38.6281,128.5 38.0344,128.7813 Q37.4563,129.0625 37.0031,129.6875 Q36.55,130.3125 36.55,131.1719 L36.55,132.0938 Q36.55,133.125 37.3938,133.8125 Q38.2375,134.5 39.7375,134.5 Q40.6281,134.5 41.2531,134.2969 Q41.6125,134.1875 42.0188,133.8281 Q42.2844,133.625 42.425,133.5625 Q42.5656,133.5 42.7375,133.5 Q43.0656,133.5 43.3,133.7656 Q43.55,134.0156 43.55,134.375 Q43.55,134.7188 43.2063,135.125 Q42.7063,135.7188 41.9094,136.0469 Q40.8625,136.5 39.5813,136.5 Q38.0813,136.5 36.8781,135.9063 Q35.9094,135.4375 35.2219,134.4219 Q34.55,133.4063 34.55,132.2031 L34.55,131.1094 Q34.55,129.8594 35.1438,128.7656 Q35.7531,127.6719 36.8,127.0938 Q37.8625,126.5 39.05,126.5 Q39.7688,126.5 40.3938,126.75 Q41.0188,127 41.55,127.5 Z " fill="#000000"/><text fill="#000000" font-family="sans-serif" font-size="12" lengthAdjust="spacing" textLength="25" x="57.45" y="135.9102">user</text><line style="stroke:#A80036;stroke-width:1.5;" x1="8" x2="102" y1="147" y2="147"/><rect fill="none" height="6" style="stroke:#C82930;stroke-width:1.0;" width="6" x="15" y="155"/><text fill="#000000" font-family="sans-serif" font-size="11" lengthAdjust="spacing" textLength="27" x="27" y="162.4189">Name</text><rect fill="none" height="6" style="stroke:#C82930;stroke-width:1.0;" width="6" x="15" y="168.8359"/><text fill="#000000" font-family="sans-serif" font-size="11" lengthAdjust="spacing" textLength="70" x="27" y="176.2549">Phone Number</text><rect fill="none" height="6" style="stroke:#C82930;stroke-width:1.0;" width="6" x="15" y="182.6719"/><text fill="#000000" font-family="sans-serif" font-size="11" lengthAdjust="spacing" textLength="24" x="27" y="190.0908">Email</text><rect fill="none" height="6" style="stroke:#C82930;stroke-width:1.0;" width="6" x="15" y="196.5078"/><text fill="#000000" font-family="sans-serif" font-size="11" lengthAdjust="spacing" textLength="54" x="27" y="203.9268">CC Number</text><rect fill="none" height="6" style="stroke:#C82930;stroke-width:1.0;" width="6" x="15" y="210.3438"/><text fill="#000000" font-family="sans-serif" font-size="11" lengthAdjust="spacing" textLength="61" x="27" y="217.7627">SNS Number</text><rect fill="none" height="6" style="stroke:#C82930;stroke-width:1.0;" width="6" x="15" y="224.1797"/><text fill="#000000" font-family="sans-serif" font-size="11" lengthAdjust="spacing" textLength="42" x="27" y="231.5986">Address</text><rect fill="none" height="6" style="stroke:#C82930;stroke-width:1.0;" width="6" x="15" y="238.0156"/><text fill="#000000" font-family="sans-serif" font-size="11" lengthAdjust="spacing" textLength="44" x="27" y="245.4346">BirthDate</text><rect fill="none" height="6" style="stroke:#C82930;stroke-width:1.0;" width="6" x="15" y="251.8516"/><text fill="#000000" font-family="sans-serif" font-size="11" lengthAdjust="spacing" textLength="34" x="27" y="259.2705">gender</text><line style="stroke:#A80036;stroke-width:1.5;" x1="8" x2="102" y1="265.6875" y2="265.6875"/><!--MD5=[31278c4c352e8aa61eec19ec7f7e5854]
link admin to user--><path codeLine="2" d="M55,55.14 C55,69.77 55,89.67 55,109.82 " fill="none" id="admin-to-user" style="stroke:#A80036;stroke-width:1.0;"/><polygon fill="#A80036" points="55,114.94,59,105.94,55,109.94,51,105.94,55,114.94" style="stroke:#A80036;stroke-width:1.0;"/><!--MD5=[567a775b8a074b340f29438982834112]
@startuml

admin - -> user
class "Administrator" as admin{
}
class "SNS User" as user{
-Name
-Phone Number
-Email
-CC Number
-SNS Number
-Address
-BirthDate
-gender
}

@enduml

PlantUML version 1.2022.1(Tue Feb 01 18:19:58 GMT 2022)
(GPL source distribution)
Java Runtime: OpenJDK Runtime Environment
JVM: OpenJDK 64-Bit Server VM
Default Encoding: Cp1252
Language: en
Country: US
--></g></svg>