<?xml version="1.0" encoding="UTF-8" standalone="no"?><svg xmlns="http://www.w3.org/2000/svg" xmlns:xlink="http://www.w3.org/1999/xlink" contentScriptType="application/ecmascript" contentStyleType="text/css" height="762px" preserveAspectRatio="none" style="width:1267px;height:762px;background:#FFFFFF;" version="1.1" viewBox="0 0 1267 762" width="1267px" zoomAndPan="magnify"><defs><filter height="300%" id="f1wikjlg1wh3kr" width="300%" x="-1" y="-1"><feGaussianBlur result="blurOut" stdDeviation="2.0"/><feColorMatrix in="blurOut" result="blurOut2" type="matrix" values="0 0 0 0 0 0 0 0 0 0 0 0 0 0 0 0 0 0 .4 0"/><feOffset dx="4.0" dy="4.0" in="blurOut2" result="blurOut3"/><feBlend in="SourceGraphic" in2="blurOut3" mode="normal"/></filter></defs><g><!--MD5=[023b6fa0938decd868e6c23df6c82f87]
class FileLoaderUI--><rect codeLine="13" fill="#FEFECE" filter="url(#f1wikjlg1wh3kr)" height="75.6719" id="FileLoaderUI" style="stroke:#A80036;stroke-width:1.5;" width="142" x="524" y="7"/><ellipse cx="556.55" cy="23" fill="#ADD1B2" rx="11" ry="11" style="stroke:#A80036;stroke-width:1.0;"/><path d="M558.55,19.5 Q558.7531,19 558.9875,18.75 Q559.2219,18.5 559.4875,18.5 Q559.9563,18.5 560.2531,18.7813 Q560.55,19.0625 560.55,19.7188 L560.55,21.2813 Q560.55,21.9375 560.2688,22.2188 Q559.9875,22.5 559.55,22.5 Q559.1594,22.5 558.9094,22.3281 Q558.6594,22.1563 558.55,21.7031 Q558.5031,21.3906 558.3313,21.2188 Q558.0188,20.8906 557.4563,20.7031 Q556.8938,20.5 556.3313,20.5 Q555.6281,20.5 555.0344,20.7813 Q554.4563,21.0625 554.0031,21.6875 Q553.55,22.3125 553.55,23.1719 L553.55,24.0938 Q553.55,25.125 554.3938,25.8125 Q555.2375,26.5 556.7375,26.5 Q557.6281,26.5 558.2531,26.2969 Q558.6125,26.1875 559.0188,25.8281 Q559.2844,25.625 559.425,25.5625 Q559.5656,25.5 559.7375,25.5 Q560.0656,25.5 560.3,25.7656 Q560.55,26.0156 560.55,26.375 Q560.55,26.7188 560.2063,27.125 Q559.7063,27.7188 558.9094,28.0469 Q557.8625,28.5 556.5813,28.5 Q555.0813,28.5 553.8781,27.9063 Q552.9094,27.4375 552.2219,26.4219 Q551.55,25.4063 551.55,24.2031 L551.55,23.1094 Q551.55,21.8594 552.1438,20.7656 Q552.7531,19.6719 553.8,19.0938 Q554.8625,18.5 556.05,18.5 Q556.7688,18.5 557.3938,18.75 Q558.0188,19 558.55,19.5 Z " fill="#000000"/><text fill="#000000" font-family="sans-serif" font-size="12" lengthAdjust="spacing" textLength="71" x="574.45" y="27.9102">FileLoaderUI</text><line style="stroke:#A80036;stroke-width:1.5;" x1="525" x2="665" y1="39" y2="39"/><line style="stroke:#A80036;stroke-width:1.5;" x1="525" x2="665" y1="47" y2="47"/><ellipse cx="535" cy="58" fill="#84BE84" rx="3" ry="3" style="stroke:#038048;stroke-width:1.0;"/><text fill="#000000" font-family="sans-serif" font-size="11" lengthAdjust="spacing" textLength="116" x="544" y="62.4189">confirmFilePath(filePath)</text><ellipse cx="535" cy="71.8359" fill="#84BE84" rx="3" ry="3" style="stroke:#038048;stroke-width:1.0;"/><text fill="#000000" font-family="sans-serif" font-size="11" lengthAdjust="spacing" textLength="67" x="544" y="76.2549">FileLoaderUI()</text><!--MD5=[9d98d89c16faf683a6effad72d6386fc]
class FileLoaderController--><rect codeLine="18" fill="#FEFECE" filter="url(#f1wikjlg1wh3kr)" height="144.8516" id="FileLoaderController" style="stroke:#A80036;stroke-width:1.5;" width="417" x="386.5" y="144"/><ellipse cx="534.25" cy="160" fill="#ADD1B2" rx="11" ry="11" style="stroke:#A80036;stroke-width:1.0;"/><path d="M536.25,156.5 Q536.4531,156 536.6875,155.75 Q536.9219,155.5 537.1875,155.5 Q537.6563,155.5 537.9531,155.7813 Q538.25,156.0625 538.25,156.7188 L538.25,158.2813 Q538.25,158.9375 537.9688,159.2188 Q537.6875,159.5 537.25,159.5 Q536.8594,159.5 536.6094,159.3281 Q536.3594,159.1563 536.25,158.7031 Q536.2031,158.3906 536.0313,158.2188 Q535.7188,157.8906 535.1563,157.7031 Q534.5938,157.5 534.0313,157.5 Q533.3281,157.5 532.7344,157.7813 Q532.1563,158.0625 531.7031,158.6875 Q531.25,159.3125 531.25,160.1719 L531.25,161.0938 Q531.25,162.125 532.0938,162.8125 Q532.9375,163.5 534.4375,163.5 Q535.3281,163.5 535.9531,163.2969 Q536.3125,163.1875 536.7188,162.8281 Q536.9844,162.625 537.125,162.5625 Q537.2656,162.5 537.4375,162.5 Q537.7656,162.5 538,162.7656 Q538.25,163.0156 538.25,163.375 Q538.25,163.7188 537.9063,164.125 Q537.4063,164.7188 536.6094,165.0469 Q535.5625,165.5 534.2813,165.5 Q532.7813,165.5 531.5781,164.9063 Q530.6094,164.4375 529.9219,163.4219 Q529.25,162.4063 529.25,161.2031 L529.25,160.1094 Q529.25,158.8594 529.8438,157.7656 Q530.4531,156.6719 531.5,156.0938 Q532.5625,155.5 533.75,155.5 Q534.4688,155.5 535.0938,155.75 Q535.7188,156 536.25,156.5 Z " fill="#000000"/><text fill="#000000" font-family="sans-serif" font-size="12" lengthAdjust="spacing" textLength="113" x="554.75" y="164.9102">FileLoaderController</text><line style="stroke:#A80036;stroke-width:1.5;" x1="387.5" x2="802.5" y1="176" y2="176"/><line style="stroke:#A80036;stroke-width:1.5;" x1="387.5" x2="802.5" y1="184" y2="184"/><ellipse cx="397.5" cy="195" fill="#84BE84" rx="3" ry="3" style="stroke:#038048;stroke-width:1.0;"/><text fill="#000000" font-family="sans-serif" font-size="11" lengthAdjust="spacing" textLength="124" x="406.5" y="199.4189">createFileLoader(filePath)</text><ellipse cx="397.5" cy="208.8359" fill="#84BE84" rx="3" ry="3" style="stroke:#038048;stroke-width:1.0;"/><text fill="#000000" font-family="sans-serif" font-size="11" lengthAdjust="spacing" textLength="44" x="406.5" y="213.2549">loadFile()</text><ellipse cx="397.5" cy="222.6719" fill="#84BE84" rx="3" ry="3" style="stroke:#038048;stroke-width:1.0;"/><text fill="#000000" font-family="sans-serif" font-size="11" lengthAdjust="spacing" textLength="106" x="406.5" y="227.0908">validateFileUser(user)</text><ellipse cx="397.5" cy="236.5078" fill="#84BE84" rx="3" ry="3" style="stroke:#038048;stroke-width:1.0;"/><text fill="#000000" font-family="sans-serif" font-size="11" lengthAdjust="spacing" textLength="96" x="406.5" y="240.9268">fileUserExists(user)</text><ellipse cx="397.5" cy="250.3438" fill="#84BE84" rx="3" ry="3" style="stroke:#038048;stroke-width:1.0;"/><text fill="#000000" font-family="sans-serif" font-size="11" lengthAdjust="spacing" textLength="391" x="406.5" y="254.7627">getUser(name, gender, birthdate, address, phoneNumber, email, SNSNumber, cc)</text><ellipse cx="397.5" cy="264.1797" fill="#84BE84" rx="3" ry="3" style="stroke:#038048;stroke-width:1.0;"/><text fill="#000000" font-family="sans-serif" font-size="11" lengthAdjust="spacing" textLength="131" x="406.5" y="268.5986">loadSNSUserSet(fileUsers)</text><ellipse cx="397.5" cy="278.0156" fill="#84BE84" rx="3" ry="3" style="stroke:#038048;stroke-width:1.0;"/><text fill="#000000" font-family="sans-serif" font-size="11" lengthAdjust="spacing" textLength="63" x="406.5" y="282.4346">getUserList()</text><!--MD5=[02e4b9b7573f1156f41e60aa5b4e25a4]
class Company--><rect codeLine="57" fill="#FEFECE" filter="url(#f1wikjlg1wh3kr)" height="61.8359" id="Company" style="stroke:#A80036;stroke-width:1.5;" width="119" x="964.5" y="185.5"/><ellipse cx="994.8" cy="201.5" fill="#ADD1B2" rx="11" ry="11" style="stroke:#A80036;stroke-width:1.0;"/><path d="M996.8,198 Q997.0031,197.5 997.2375,197.25 Q997.4719,197 997.7375,197 Q998.2063,197 998.5031,197.2813 Q998.8,197.5625 998.8,198.2188 L998.8,199.7813 Q998.8,200.4375 998.5188,200.7188 Q998.2375,201 997.8,201 Q997.4094,201 997.1594,200.8281 Q996.9094,200.6563 996.8,200.2031 Q996.7531,199.8906 996.5813,199.7188 Q996.2688,199.3906 995.7063,199.2031 Q995.1438,199 994.5813,199 Q993.8781,199 993.2844,199.2813 Q992.7063,199.5625 992.2531,200.1875 Q991.8,200.8125 991.8,201.6719 L991.8,202.5938 Q991.8,203.625 992.6438,204.3125 Q993.4875,205 994.9875,205 Q995.8781,205 996.5031,204.7969 Q996.8625,204.6875 997.2688,204.3281 Q997.5344,204.125 997.675,204.0625 Q997.8156,204 997.9875,204 Q998.3156,204 998.55,204.2656 Q998.8,204.5156 998.8,204.875 Q998.8,205.2188 998.4563,205.625 Q997.9563,206.2188 997.1594,206.5469 Q996.1125,207 994.8313,207 Q993.3313,207 992.1281,206.4063 Q991.1594,205.9375 990.4719,204.9219 Q989.8,203.9063 989.8,202.7031 L989.8,201.6094 Q989.8,200.3594 990.3938,199.2656 Q991.0031,198.1719 992.05,197.5938 Q993.1125,197 994.3,197 Q995.0188,197 995.6438,197.25 Q996.2688,197.5 996.8,198 Z " fill="#000000"/><text fill="#000000" font-family="sans-serif" font-size="12" lengthAdjust="spacing" textLength="53" x="1012.2" y="206.4102">Company</text><line style="stroke:#A80036;stroke-width:1.5;" x1="965.5" x2="1082.5" y1="217.5" y2="217.5"/><line style="stroke:#A80036;stroke-width:1.5;" x1="965.5" x2="1082.5" y1="225.5" y2="225.5"/><ellipse cx="975.5" cy="236.5" fill="#84BE84" rx="3" ry="3" style="stroke:#038048;stroke-width:1.0;"/><text fill="#000000" font-family="sans-serif" font-size="11" lengthAdjust="spacing" textLength="93" x="984.5" y="240.9189">getSNSUserStore()</text><!--MD5=[aa64ea293d5accf5c284a17b7e79ceb8]
class SendPasswordNotification--><rect codeLine="61" fill="#FEFECE" filter="url(#f1wikjlg1wh3kr)" height="61.8359" id="SendPasswordNotification" style="stroke:#A80036;stroke-width:1.5;" width="178" x="7" y="401.5"/><ellipse cx="22" cy="417.5" fill="#ADD1B2" rx="11" ry="11" style="stroke:#A80036;stroke-width:1.0;"/><path d="M24,414 Q24.2031,413.5 24.4375,413.25 Q24.6719,413 24.9375,413 Q25.4063,413 25.7031,413.2813 Q26,413.5625 26,414.2188 L26,415.7813 Q26,416.4375 25.7188,416.7188 Q25.4375,417 25,417 Q24.6094,417 24.3594,416.8281 Q24.1094,416.6563 24,416.2031 Q23.9531,415.8906 23.7813,415.7188 Q23.4688,415.3906 22.9063,415.2031 Q22.3438,415 21.7813,415 Q21.0781,415 20.4844,415.2813 Q19.9063,415.5625 19.4531,416.1875 Q19,416.8125 19,417.6719 L19,418.5938 Q19,419.625 19.8438,420.3125 Q20.6875,421 22.1875,421 Q23.0781,421 23.7031,420.7969 Q24.0625,420.6875 24.4688,420.3281 Q24.7344,420.125 24.875,420.0625 Q25.0156,420 25.1875,420 Q25.5156,420 25.75,420.2656 Q26,420.5156 26,420.875 Q26,421.2188 25.6563,421.625 Q25.1563,422.2188 24.3594,422.5469 Q23.3125,423 22.0313,423 Q20.5313,423 19.3281,422.4063 Q18.3594,421.9375 17.6719,420.9219 Q17,419.9063 17,418.7031 L17,417.6094 Q17,416.3594 17.5938,415.2656 Q18.2031,414.1719 19.25,413.5938 Q20.3125,413 21.5,413 Q22.2188,413 22.8438,413.25 Q23.4688,413.5 24,414 Z " fill="#000000"/><text fill="#000000" font-family="sans-serif" font-size="12" lengthAdjust="spacing" textLength="146" x="36" y="422.4102">SendPasswordNotification</text><line style="stroke:#A80036;stroke-width:1.5;" x1="8" x2="184" y1="433.5" y2="433.5"/><line style="stroke:#A80036;stroke-width:1.5;" x1="8" x2="184" y1="441.5" y2="441.5"/><ellipse cx="18" cy="452.5" fill="#84BE84" rx="3" ry="3" style="stroke:#038048;stroke-width:1.0;"/><text fill="#000000" font-family="sans-serif" font-size="11" lengthAdjust="spacing" textLength="82" x="27" y="456.9189">sendPassword()</text><!--MD5=[8ae808d068a8995f06b9b3ec51357f0b]
class AuthFacade--><rect codeLine="65" fill="#FEFECE" filter="url(#f1wikjlg1wh3kr)" height="61.8359" id="AuthFacade" style="stroke:#A80036;stroke-width:1.5;" width="233" x="220.5" y="401.5"/><ellipse cx="300.25" cy="417.5" fill="#ADD1B2" rx="11" ry="11" style="stroke:#A80036;stroke-width:1.0;"/><path d="M302.25,414 Q302.4531,413.5 302.6875,413.25 Q302.9219,413 303.1875,413 Q303.6563,413 303.9531,413.2813 Q304.25,413.5625 304.25,414.2188 L304.25,415.7813 Q304.25,416.4375 303.9688,416.7188 Q303.6875,417 303.25,417 Q302.8594,417 302.6094,416.8281 Q302.3594,416.6563 302.25,416.2031 Q302.2031,415.8906 302.0313,415.7188 Q301.7188,415.3906 301.1563,415.2031 Q300.5938,415 300.0313,415 Q299.3281,415 298.7344,415.2813 Q298.1563,415.5625 297.7031,416.1875 Q297.25,416.8125 297.25,417.6719 L297.25,418.5938 Q297.25,419.625 298.0938,420.3125 Q298.9375,421 300.4375,421 Q301.3281,421 301.9531,420.7969 Q302.3125,420.6875 302.7188,420.3281 Q302.9844,420.125 303.125,420.0625 Q303.2656,420 303.4375,420 Q303.7656,420 304,420.2656 Q304.25,420.5156 304.25,420.875 Q304.25,421.2188 303.9063,421.625 Q303.4063,422.2188 302.6094,422.5469 Q301.5625,423 300.2813,423 Q298.7813,423 297.5781,422.4063 Q296.6094,421.9375 295.9219,420.9219 Q295.25,419.9063 295.25,418.7031 L295.25,417.6094 Q295.25,416.3594 295.8438,415.2656 Q296.4531,414.1719 297.5,413.5938 Q298.5625,413 299.75,413 Q300.4688,413 301.0938,413.25 Q301.7188,413.5 302.25,414 Z " fill="#000000"/><text fill="#000000" font-family="sans-serif" font-size="12" lengthAdjust="spacing" textLength="65" x="320.75" y="422.4102">AuthFacade</text><line style="stroke:#A80036;stroke-width:1.5;" x1="221.5" x2="452.5" y1="433.5" y2="433.5"/><line style="stroke:#A80036;stroke-width:1.5;" x1="221.5" x2="452.5" y1="441.5" y2="441.5"/><ellipse cx="231.5" cy="452.5" fill="#84BE84" rx="3" ry="3" style="stroke:#038048;stroke-width:1.0;"/><text fill="#000000" font-family="sans-serif" font-size="11" lengthAdjust="spacing" textLength="207" x="240.5" y="456.9189">addUserWithRole(name, email, pwd, roleId)</text><!--MD5=[9a2889027d1a5f59ee05c53124f224f8]
class PasswordGenerator--><rect codeLine="69" fill="#FEFECE" filter="url(#f1wikjlg1wh3kr)" height="61.8359" id="PasswordGenerator" style="stroke:#A80036;stroke-width:1.5;" width="143" x="488.5" y="401.5"/><ellipse cx="503.5" cy="417.5" fill="#ADD1B2" rx="11" ry="11" style="stroke:#A80036;stroke-width:1.0;"/><path d="M505.5,414 Q505.7031,413.5 505.9375,413.25 Q506.1719,413 506.4375,413 Q506.9063,413 507.2031,413.2813 Q507.5,413.5625 507.5,414.2188 L507.5,415.7813 Q507.5,416.4375 507.2188,416.7188 Q506.9375,417 506.5,417 Q506.1094,417 505.8594,416.8281 Q505.6094,416.6563 505.5,416.2031 Q505.4531,415.8906 505.2813,415.7188 Q504.9688,415.3906 504.4063,415.2031 Q503.8438,415 503.2813,415 Q502.5781,415 501.9844,415.2813 Q501.4063,415.5625 500.9531,416.1875 Q500.5,416.8125 500.5,417.6719 L500.5,418.5938 Q500.5,419.625 501.3438,420.3125 Q502.1875,421 503.6875,421 Q504.5781,421 505.2031,420.7969 Q505.5625,420.6875 505.9688,420.3281 Q506.2344,420.125 506.375,420.0625 Q506.5156,420 506.6875,420 Q507.0156,420 507.25,420.2656 Q507.5,420.5156 507.5,420.875 Q507.5,421.2188 507.1563,421.625 Q506.6563,422.2188 505.8594,422.5469 Q504.8125,423 503.5313,423 Q502.0313,423 500.8281,422.4063 Q499.8594,421.9375 499.1719,420.9219 Q498.5,419.9063 498.5,418.7031 L498.5,417.6094 Q498.5,416.3594 499.0938,415.2656 Q499.7031,414.1719 500.75,413.5938 Q501.8125,413 503,413 Q503.7188,413 504.3438,413.25 Q504.9688,413.5 505.5,414 Z " fill="#000000"/><text fill="#000000" font-family="sans-serif" font-size="12" lengthAdjust="spacing" textLength="111" x="517.5" y="422.4102">PasswordGenerator</text><line style="stroke:#A80036;stroke-width:1.5;" x1="489.5" x2="630.5" y1="433.5" y2="433.5"/><line style="stroke:#A80036;stroke-width:1.5;" x1="489.5" x2="630.5" y1="441.5" y2="441.5"/><ellipse cx="499.5" cy="452.5" fill="#84BE84" rx="3" ry="3" style="stroke:#038048;stroke-width:1.0;"/><text fill="#000000" font-family="sans-serif" font-size="11" lengthAdjust="spacing" textLength="73" x="508.5" y="456.9189">getPassword()</text><!--MD5=[a5ad3856b0c65e07b10297b4477b22bb]
class SNSUserStore--><rect codeLine="50" fill="#FEFECE" filter="url(#f1wikjlg1wh3kr)" height="103.3438" id="SNSUserStore" style="stroke:#A80036;stroke-width:1.5;" width="410" x="837" y="381"/><ellipse cx="997.25" cy="397" fill="#ADD1B2" rx="11" ry="11" style="stroke:#A80036;stroke-width:1.0;"/><path d="M999.25,393.5 Q999.4531,393 999.6875,392.75 Q999.9219,392.5 1000.1875,392.5 Q1000.6563,392.5 1000.9531,392.7813 Q1001.25,393.0625 1001.25,393.7188 L1001.25,395.2813 Q1001.25,395.9375 1000.9688,396.2188 Q1000.6875,396.5 1000.25,396.5 Q999.8594,396.5 999.6094,396.3281 Q999.3594,396.1563 999.25,395.7031 Q999.2031,395.3906 999.0313,395.2188 Q998.7188,394.8906 998.1563,394.7031 Q997.5938,394.5 997.0313,394.5 Q996.3281,394.5 995.7344,394.7813 Q995.1563,395.0625 994.7031,395.6875 Q994.25,396.3125 994.25,397.1719 L994.25,398.0938 Q994.25,399.125 995.0938,399.8125 Q995.9375,400.5 997.4375,400.5 Q998.3281,400.5 998.9531,400.2969 Q999.3125,400.1875 999.7188,399.8281 Q999.9844,399.625 1000.125,399.5625 Q1000.2656,399.5 1000.4375,399.5 Q1000.7656,399.5 1001,399.7656 Q1001.25,400.0156 1001.25,400.375 Q1001.25,400.7188 1000.9063,401.125 Q1000.4063,401.7188 999.6094,402.0469 Q998.5625,402.5 997.2813,402.5 Q995.7813,402.5 994.5781,401.9063 Q993.6094,401.4375 992.9219,400.4219 Q992.25,399.4063 992.25,398.2031 L992.25,397.1094 Q992.25,395.8594 992.8438,394.7656 Q993.4531,393.6719 994.5,393.0938 Q995.5625,392.5 996.75,392.5 Q997.4688,392.5 998.0938,392.75 Q998.7188,393 999.25,393.5 Z " fill="#000000"/><text fill="#000000" font-family="sans-serif" font-size="12" lengthAdjust="spacing" textLength="81" x="1017.75" y="401.9102">SNSUserStore</text><line style="stroke:#A80036;stroke-width:1.5;" x1="838" x2="1246" y1="413" y2="413"/><line style="stroke:#A80036;stroke-width:1.5;" x1="838" x2="1246" y1="421" y2="421"/><ellipse cx="848" cy="432" fill="#84BE84" rx="3" ry="3" style="stroke:#038048;stroke-width:1.0;"/><text fill="#000000" font-family="sans-serif" font-size="11" lengthAdjust="spacing" textLength="384" x="857" y="436.4189">create(name, gender, birthdate, address, phoneNumber, email, SNSNumber, cc)</text><ellipse cx="848" cy="445.8359" fill="#84BE84" rx="3" ry="3" style="stroke:#038048;stroke-width:1.0;"/><text fill="#000000" font-family="sans-serif" font-size="11" lengthAdjust="spacing" textLength="81" x="857" y="450.2549">userExists(user)</text><ellipse cx="848" cy="459.6719" fill="#84BE84" rx="3" ry="3" style="stroke:#038048;stroke-width:1.0;"/><text fill="#000000" font-family="sans-serif" font-size="11" lengthAdjust="spacing" textLength="111" x="857" y="464.0908">validateSNSUser(user)</text><ellipse cx="848" cy="473.5078" fill="#84BE84" rx="3" ry="3" style="stroke:#038048;stroke-width:1.0;"/><text fill="#000000" font-family="sans-serif" font-size="11" lengthAdjust="spacing" textLength="84" x="857" y="477.9268">getSNSUserList()</text><!--MD5=[72be06cc7ae02ccc98efe28a50e62246]
class SNSUser--><rect codeLine="38" fill="#FEFECE" filter="url(#f1wikjlg1wh3kr)" height="172.5234" id="SNSUser" style="stroke:#A80036;stroke-width:1.5;" width="423" x="830.5" y="576"/><ellipse cx="1011.75" cy="592" fill="#ADD1B2" rx="11" ry="11" style="stroke:#A80036;stroke-width:1.0;"/><path d="M1013.75,588.5 Q1013.9531,588 1014.1875,587.75 Q1014.4219,587.5 1014.6875,587.5 Q1015.1563,587.5 1015.4531,587.7813 Q1015.75,588.0625 1015.75,588.7188 L1015.75,590.2813 Q1015.75,590.9375 1015.4688,591.2188 Q1015.1875,591.5 1014.75,591.5 Q1014.3594,591.5 1014.1094,591.3281 Q1013.8594,591.1563 1013.75,590.7031 Q1013.7031,590.3906 1013.5313,590.2188 Q1013.2188,589.8906 1012.6563,589.7031 Q1012.0938,589.5 1011.5313,589.5 Q1010.8281,589.5 1010.2344,589.7813 Q1009.6563,590.0625 1009.2031,590.6875 Q1008.75,591.3125 1008.75,592.1719 L1008.75,593.0938 Q1008.75,594.125 1009.5938,594.8125 Q1010.4375,595.5 1011.9375,595.5 Q1012.8281,595.5 1013.4531,595.2969 Q1013.8125,595.1875 1014.2188,594.8281 Q1014.4844,594.625 1014.625,594.5625 Q1014.7656,594.5 1014.9375,594.5 Q1015.2656,594.5 1015.5,594.7656 Q1015.75,595.0156 1015.75,595.375 Q1015.75,595.7188 1015.4063,596.125 Q1014.9063,596.7188 1014.1094,597.0469 Q1013.0625,597.5 1011.7813,597.5 Q1010.2813,597.5 1009.0781,596.9063 Q1008.1094,596.4375 1007.4219,595.4219 Q1006.75,594.4063 1006.75,593.2031 L1006.75,592.1094 Q1006.75,590.8594 1007.3438,589.7656 Q1007.9531,588.6719 1009,588.0938 Q1010.0625,587.5 1011.25,587.5 Q1011.9688,587.5 1012.5938,587.75 Q1013.2188,588 1013.75,588.5 Z " fill="#000000"/><text fill="#000000" font-family="sans-serif" font-size="12" lengthAdjust="spacing" textLength="52" x="1032.25" y="596.9102">SNSUser</text><line style="stroke:#A80036;stroke-width:1.5;" x1="831.5" x2="1252.5" y1="608" y2="608"/><rect fill="none" height="6" style="stroke:#C82930;stroke-width:1.0;" width="6" x="838.5" y="616"/><text fill="#000000" font-family="sans-serif" font-size="11" lengthAdjust="spacing" textLength="26" x="850.5" y="623.4189">name</text><rect fill="none" height="6" style="stroke:#C82930;stroke-width:1.0;" width="6" x="838.5" y="629.8359"/><text fill="#000000" font-family="sans-serif" font-size="11" lengthAdjust="spacing" textLength="40" x="850.5" y="637.2549">address</text><rect fill="none" height="6" style="stroke:#C82930;stroke-width:1.0;" width="6" x="838.5" y="643.6719"/><text fill="#000000" font-family="sans-serif" font-size="11" lengthAdjust="spacing" textLength="34" x="850.5" y="651.0908">gender</text><rect fill="none" height="6" style="stroke:#C82930;stroke-width:1.0;" width="6" x="838.5" y="657.5078"/><text fill="#000000" font-family="sans-serif" font-size="11" lengthAdjust="spacing" textLength="67" x="850.5" y="664.9268">phoneNumber</text><rect fill="none" height="6" style="stroke:#C82930;stroke-width:1.0;" width="6" x="838.5" y="671.3438"/><text fill="#000000" font-family="sans-serif" font-size="11" lengthAdjust="spacing" textLength="24" x="850.5" y="678.7627">email</text><rect fill="none" height="6" style="stroke:#C82930;stroke-width:1.0;" width="6" x="838.5" y="685.1797"/><text fill="#000000" font-family="sans-serif" font-size="11" lengthAdjust="spacing" textLength="43" x="850.5" y="692.5986">birthDate</text><rect fill="none" height="6" style="stroke:#C82930;stroke-width:1.0;" width="6" x="838.5" y="699.0156"/><text fill="#000000" font-family="sans-serif" font-size="11" lengthAdjust="spacing" textLength="58" x="850.5" y="706.4346">SNSNumber</text><rect fill="none" height="6" style="stroke:#C82930;stroke-width:1.0;" width="6" x="838.5" y="712.8516"/><text fill="#000000" font-family="sans-serif" font-size="11" lengthAdjust="spacing" textLength="12" x="850.5" y="720.2705">cc</text><line style="stroke:#A80036;stroke-width:1.5;" x1="831.5" x2="1252.5" y1="726.6875" y2="726.6875"/><ellipse cx="841.5" cy="737.6875" fill="#84BE84" rx="3" ry="3" style="stroke:#038048;stroke-width:1.0;"/><text fill="#000000" font-family="sans-serif" font-size="11" lengthAdjust="spacing" textLength="397" x="850.5" y="742.1064">SNSUser(name, gender, birthdate, address, phoneNumber, email, SNSNumber, cc)</text><!--MD5=[a568183ee4ee9bf267962d4b60161a9a]
class FileLoader--><rect codeLine="28" fill="#FEFECE" filter="url(#f1wikjlg1wh3kr)" height="131.0156" id="FileLoader" style="stroke:#A80036;stroke-width:1.5;" width="135" x="666.5" y="367"/><ellipse cx="701.3" cy="383" fill="#ADD1B2" rx="11" ry="11" style="stroke:#A80036;stroke-width:1.0;"/><path d="M703.3,379.5 Q703.5031,379 703.7375,378.75 Q703.9719,378.5 704.2375,378.5 Q704.7063,378.5 705.0031,378.7813 Q705.3,379.0625 705.3,379.7188 L705.3,381.2813 Q705.3,381.9375 705.0188,382.2188 Q704.7375,382.5 704.3,382.5 Q703.9094,382.5 703.6594,382.3281 Q703.4094,382.1563 703.3,381.7031 Q703.2531,381.3906 703.0813,381.2188 Q702.7688,380.8906 702.2063,380.7031 Q701.6438,380.5 701.0813,380.5 Q700.3781,380.5 699.7844,380.7813 Q699.2063,381.0625 698.7531,381.6875 Q698.3,382.3125 698.3,383.1719 L698.3,384.0938 Q698.3,385.125 699.1438,385.8125 Q699.9875,386.5 701.4875,386.5 Q702.3781,386.5 703.0031,386.2969 Q703.3625,386.1875 703.7688,385.8281 Q704.0344,385.625 704.175,385.5625 Q704.3156,385.5 704.4875,385.5 Q704.8156,385.5 705.05,385.7656 Q705.3,386.0156 705.3,386.375 Q705.3,386.7188 704.9563,387.125 Q704.4563,387.7188 703.6594,388.0469 Q702.6125,388.5 701.3313,388.5 Q699.8313,388.5 698.6281,387.9063 Q697.6594,387.4375 696.9719,386.4219 Q696.3,385.4063 696.3,384.2031 L696.3,383.1094 Q696.3,381.8594 696.8938,380.7656 Q697.5031,379.6719 698.55,379.0938 Q699.6125,378.5 700.8,378.5 Q701.5188,378.5 702.1438,378.75 Q702.7688,379 703.3,379.5 Z " fill="#000000"/><text fill="#000000" font-family="sans-serif" font-size="12" lengthAdjust="spacing" textLength="59" x="719.7" y="387.9102">FileLoader</text><line style="stroke:#A80036;stroke-width:1.5;" x1="667.5" x2="800.5" y1="399" y2="399"/><rect fill="none" height="6" style="stroke:#C82930;stroke-width:1.0;" width="6" x="674.5" y="407"/><text fill="#000000" font-family="sans-serif" font-size="11" lengthAdjust="spacing" textLength="58" x="686.5" y="414.4189">SNSUserfile</text><rect fill="none" height="6" style="stroke:#C82930;stroke-width:1.0;" width="6" x="674.5" y="420.8359"/><text fill="#000000" font-family="sans-serif" font-size="11" lengthAdjust="spacing" textLength="40" x="686.5" y="428.2549">scanner</text><rect fill="none" height="6" style="stroke:#C82930;stroke-width:1.0;" width="6" x="674.5" y="434.6719"/><text fill="#000000" font-family="sans-serif" font-size="11" lengthAdjust="spacing" textLength="15" x="686.5" y="442.0908">ctrl</text><rect fill="none" height="6" style="stroke:#C82930;stroke-width:1.0;" width="6" x="674.5" y="448.5078"/><text fill="#000000" font-family="sans-serif" font-size="11" lengthAdjust="spacing" textLength="43" x="686.5" y="455.9268">fileUsers</text><line style="stroke:#A80036;stroke-width:1.5;" x1="667.5" x2="800.5" y1="462.3438" y2="462.3438"/><ellipse cx="677.5" cy="473.3438" fill="#84BE84" rx="3" ry="3" style="stroke:#038048;stroke-width:1.0;"/><text fill="#000000" font-family="sans-serif" font-size="11" lengthAdjust="spacing" textLength="44" x="686.5" y="477.7627">loadFile()</text><ellipse cx="677.5" cy="487.1797" fill="#84BE84" rx="3" ry="3" style="stroke:#038048;stroke-width:1.0;"/><text fill="#000000" font-family="sans-serif" font-size="11" lengthAdjust="spacing" textLength="109" x="686.5" y="491.5986">checkFilePath(filePath)</text><!--MD5=[c7f5aaca42e53b1b14fcf8c066599756]
link FileLoaderUI to FileLoaderController--><path codeLine="2" d="M595,83.2 C595,99.5 595,119.27 595,138.5 " fill="none" id="FileLoaderUI-to-FileLoaderController" style="stroke:#A80036;stroke-width:1.0;stroke-dasharray:7.0,7.0;"/><polygon fill="#A80036" points="595,143.91,599,134.91,595,138.91,591,134.91,595,143.91" style="stroke:#A80036;stroke-width:1.0;"/><!--MD5=[8048b2cda544d46800efdfd48831e59c]
link FileLoaderController to Company--><path codeLine="3" d="M803.53,216.5 C860.1,216.5 917.22,216.5 959.14,216.5 " fill="none" id="FileLoaderController-to-Company" style="stroke:#A80036;stroke-width:1.0;stroke-dasharray:7.0,7.0;"/><polygon fill="#A80036" points="964.18,216.5,955.18,212.5,959.18,216.5,955.18,220.5,964.18,216.5" style="stroke:#A80036;stroke-width:1.0;"/><text fill="#000000" font-family="sans-serif" font-size="13" lengthAdjust="spacing" textLength="107" x="830.5" y="209.9951">gets instance from</text><!--MD5=[9935e51b972cc334c7909cffce78984d]
link FileLoaderController to SendPasswordNotification--><path codeLine="4" d="M386.84,289.01 C326.59,311.81 261.36,338.56 203,367 C183.95,376.28 163.85,387.88 146.28,398.67 " fill="none" id="FileLoaderController-to-SendPasswordNotification" style="stroke:#A80036;stroke-width:1.0;"/><polygon fill="#A80036" points="141.87,401.39,151.6293,400.0652,146.1244,398.7631,147.4264,393.2582,141.87,401.39" style="stroke:#A80036;stroke-width:1.0;"/><text fill="#000000" font-family="sans-serif" font-size="13" lengthAdjust="spacing" textLength="77" x="66.3901" y="390.8719">notifies users</text><!--MD5=[1ad09344b580e56db498b8daf56811e5]
link FileLoaderController to AuthFacade--><path codeLine="5" d="M508.73,289.06 C464.39,325.84 412.45,368.91 377.4,397.99 " fill="none" id="FileLoaderController-to-AuthFacade" style="stroke:#A80036;stroke-width:1.0;"/><polygon fill="#A80036" points="373.21,401.46,382.6906,398.792,377.0581,398.2675,377.5826,392.635,373.21,401.46" style="stroke:#A80036;stroke-width:1.0;"/><text fill="#000000" font-family="sans-serif" font-size="13" lengthAdjust="spacing" textLength="148" x="216.9434" y="390.4715">adds users to the system</text><!--MD5=[83b10576c4258ba5ed49a9fbe90a4c01]
link FileLoaderController to PasswordGenerator--><path codeLine="6" d="M583.3,289.06 C577.4,325.09 570.52,367.17 565.77,396.2 " fill="none" id="FileLoaderController-to-PasswordGenerator" style="stroke:#A80036;stroke-width:1.0;"/><polygon fill="#A80036" points="564.91,401.46,570.2966,393.2147,565.7089,396.5242,562.3993,391.9365,564.91,401.46" style="stroke:#A80036;stroke-width:1.0;"/><text fill="#000000" font-family="sans-serif" font-size="13" lengthAdjust="spacing" textLength="111" x="454.9046" y="390.7368">creates Passwords</text><!--MD5=[1bd9080c7e199931e49bc5a1616681ac]
link Company to SNSUserStore--><path codeLine="7" d="M1026.54,247.71 C1029.32,280.79 1033.85,334.56 1037.28,375.42 " fill="none" id="Company-to-SNSUserStore" style="stroke:#A80036;stroke-width:1.0;"/><polygon fill="#A80036" points="1037.74,380.84,1040.9788,371.5389,1037.3248,375.8573,1033.0064,372.2033,1037.74,380.84" style="stroke:#A80036;stroke-width:1.0;"/><text fill="#000000" font-family="sans-serif" font-size="13" lengthAdjust="spacing" textLength="43" x="1034" y="333.4951">creates</text><text fill="#000000" font-family="sans-serif" font-size="13" lengthAdjust="spacing" textLength="7" x="1010.5945" y="268.7287">1</text><!--MD5=[941cfdd5bed52feea35c2edc47cade70]
link FileLoaderController to SNSUserStore--><path codeLine="8" d="M744.47,289.06 C805.69,318.37 875.26,351.68 931.73,378.71 " fill="none" id="FileLoaderController-to-SNSUserStore" style="stroke:#A80036;stroke-width:1.0;stroke-dasharray:7.0,7.0;"/><polygon fill="#A80036" points="936.47,380.98,930.0833,373.4826,931.9613,378.8187,926.6252,380.6966,936.47,380.98" style="stroke:#A80036;stroke-width:1.0;"/><!--MD5=[b01d27099955aced792f1ce85db49798]
link SNSUserStore to SNSUser--><path codeLine="9" d="M1042,484.1 C1042,509.52 1042,541.12 1042,570.57 " fill="none" id="SNSUserStore-to-SNSUser" style="stroke:#A80036;stroke-width:1.0;"/><polygon fill="#A80036" points="1042,575.65,1046,566.65,1042,570.65,1038,566.65,1042,575.65" style="stroke:#A80036;stroke-width:1.0;"/><text fill="#000000" font-family="sans-serif" font-size="13" lengthAdjust="spacing" textLength="166" x="1043" y="542.4951">creates, stores and validates</text><text fill="#000000" font-family="sans-serif" font-size="13" lengthAdjust="spacing" textLength="7" x="1030.2266" y="505.9769">1</text><text fill="#000000" font-family="sans-serif" font-size="13" lengthAdjust="spacing" textLength="5" x="1036.7852" y="565.0295">*</text><!--MD5=[115e4b601cdd85fe30f392bfb5f7e868]
link FileLoaderController to FileLoader--><path codeLine="10" d="M641.48,289.06 C656.86,312.73 673.93,339.02 689.19,362.51 " fill="none" id="FileLoaderController-to-FileLoader" style="stroke:#A80036;stroke-width:1.0;stroke-dasharray:7.0,7.0;"/><polygon fill="#A80036" points="692.01,366.86,690.4612,357.1337,689.2861,362.6671,683.7526,361.492,692.01,366.86" style="stroke:#A80036;stroke-width:1.0;"/><!--MD5=[7e28c05918d914739716aa2c01f8879a]
@startuml

FileLoaderUI ..> FileLoaderController
FileLoaderController .> Company : gets instance from
FileLoaderController - ->"notifies users" SendPasswordNotification
FileLoaderController - ->"adds users to the system" AuthFacade
FileLoaderController - -> "creates Passwords" PasswordGenerator
Company "1  "- -> SNSUserStore : creates
FileLoaderController ..> SNSUserStore
SNSUserStore "1 "- ->"*" SNSUser : creates, stores and validates
FileLoaderController ..> FileLoader


class FileLoaderUI{
+confirmFilePath(filePath)
+FileLoaderUI()
}

class FileLoaderController{
+createFileLoader(filePath)
+loadFile()
+validateFileUser(user)
+fileUserExists(user)
+getUser(name, gender, birthdate, address, phoneNumber, email, SNSNumber, cc)
+loadSNSUserSet(fileUsers)
+getUserList()
}

class FileLoader{
-SNSUserfile
-scanner
-ctrl
-fileUsers
+loadFile()
+checkFilePath(filePath)
}


class SNSUser {
-name
-address
-gender
-phoneNumber
-email
-birthDate
-SNSNumber
-cc
+SNSUser(name, gender, birthdate, address, phoneNumber, email, SNSNumber, cc)
}

class SNSUserStore{
+create(name, gender, birthdate, address, phoneNumber, email, SNSNumber, cc)
+userExists(user)
+validateSNSUser(user)
+getSNSUserList()
}

class Company{
+getSNSUserStore()
}

class SendPasswordNotification{
+sendPassword()
}

class AuthFacade{
+addUserWithRole(name, email, pwd, roleId)
}

class PasswordGenerator{
+getPassword()
}

@enduml

PlantUML version 1.2022.1(Tue Feb 01 18:19:58 GMT 2022)
(GPL source distribution)
Java Runtime: OpenJDK Runtime Environment
JVM: OpenJDK 64-Bit Server VM
Default Encoding: Cp1252
Language: en
Country: US
--></g></svg>