<?xml version="1.0" encoding="UTF-8" standalone="no"?><svg xmlns="http://www.w3.org/2000/svg" xmlns:xlink="http://www.w3.org/1999/xlink" contentStyleType="text/css" height="930px" preserveAspectRatio="none" style="width:1233px;height:930px;background:#FFFFFF;" version="1.1" viewBox="0 0 1233 930" width="1233px" zoomAndPan="magnify"><defs/><g><rect fill="#FFFFFF" height="57.8789" style="stroke:#181818;stroke-width:1.0;" width="10" x="277.5" y="131.3125"/><rect fill="#FFFFFF" height="516.7891" style="stroke:#181818;stroke-width:1.0;" width="10" x="277.5" y="230.7188"/><rect fill="#FFFFFF" height="41.5273" style="stroke:#181818;stroke-width:1.0;" width="10" x="277.5" y="777.8594"/><rect fill="#FFFFFF" height="439.7344" style="stroke:#181818;stroke-width:1.0;" width="10" x="448.5" y="261.0703"/><rect fill="#FFFFFF" height="30" style="stroke:#181818;stroke-width:1.0;" width="10" x="651.5" y="291.4219"/><rect fill="#FFFFFF" height="95.0547" style="stroke:#181818;stroke-width:1.0;" width="10" x="764.5" y="487.6953"/><rect fill="#FFFFFF" height="87.7031" style="stroke:#181818;stroke-width:1.0;" width="10" x="895" y="582.75"/><rect fill="#FFFFFF" height="35.3516" style="stroke:#181818;stroke-width:1.0;" width="10" x="900" y="635.1016"/><rect height="81.0547" style="stroke:#000000;stroke-width:1.5;fill:none;" width="513" x="340.5" y="421.6406"/><rect height="48.7031" style="stroke:#000000;stroke-width:1.5;fill:none;" width="493" x="350.5" y="446.9922"/><rect height="81.0547" style="stroke:#000000;stroke-width:1.5;fill:none;" width="291" x="685.5" y="516.6953"/><rect height="48.7031" style="stroke:#000000;stroke-width:1.5;fill:none;" width="271" x="695.5" y="542.0469"/><line style="stroke:#181818;stroke-width:0.5;fill:none;stroke-dasharray:5.0,5.0;" x1="26" x2="26" y1="82.6094" y2="848.5625"/><line style="stroke:#181818;stroke-width:0.5;fill:none;stroke-dasharray:5.0,5.0;" x1="282.5" x2="282.5" y1="82.6094" y2="848.5625"/><line style="stroke:#181818;stroke-width:0.5;fill:none;stroke-dasharray:5.0,5.0;" x1="453.5" x2="453.5" y1="82.6094" y2="848.5625"/><line style="stroke:#181818;stroke-width:0.5;fill:none;stroke-dasharray:5.0,5.0;" x1="656.5" x2="656.5" y1="82.6094" y2="848.5625"/><line style="stroke:#181818;stroke-width:0.5;fill:none;stroke-dasharray:5.0,5.0;" x1="769.5" x2="769.5" y1="360.7266" y2="848.5625"/><line style="stroke:#181818;stroke-width:0.5;fill:none;stroke-dasharray:5.0,5.0;" x1="899.5" x2="899.5" y1="403.3359" y2="848.5625"/><text fill="#000000" font-family="sans-serif" font-size="14" lengthAdjust="spacing" textLength="37" x="5" y="79.5332">Nurse</text><ellipse cx="26.5" cy="13.5" fill="#E2E2F0" rx="8" ry="8" style="stroke:#181818;stroke-width:0.5;"/><path d="M26.5,21.5 L26.5,48.5 M13.5,29.5 L39.5,29.5 M26.5,48.5 L13.5,63.5 M26.5,48.5 L39.5,63.5 " fill="none" style="stroke:#181818;stroke-width:0.5;"/><text fill="#000000" font-family="sans-serif" font-size="14" lengthAdjust="spacing" textLength="37" x="5" y="862.0957">Nurse</text><ellipse cx="26.5" cy="873.6719" fill="#E2E2F0" rx="8" ry="8" style="stroke:#181818;stroke-width:0.5;"/><path d="M26.5,881.6719 L26.5,908.6719 M13.5,889.6719 L39.5,889.6719 M26.5,908.6719 L13.5,923.6719 M26.5,908.6719 L39.5,923.6719 " fill="none" style="stroke:#181818;stroke-width:0.5;"/><rect fill="#E2E2F0" height="31.6094" rx="2.5" ry="2.5" style="stroke:#181818;stroke-width:0.5;" width="136" x="214.5" y="50"/><text fill="#000000" font-family="sans-serif" font-size="14" lengthAdjust="spacing" textLength="122" x="221.5" y="71.5332">:WaitingRoomListUI</text><rect fill="#E2E2F0" height="31.6094" rx="2.5" ry="2.5" style="stroke:#181818;stroke-width:0.5;" width="136" x="214.5" y="847.5625"/><text fill="#000000" font-family="sans-serif" font-size="14" lengthAdjust="spacing" textLength="122" x="221.5" y="869.0957">:WaitingRoomListUI</text><rect fill="#E2E2F0" height="31.6094" rx="2.5" ry="2.5" style="stroke:#181818;stroke-width:0.5;" width="186" x="360.5" y="50"/><text fill="#000000" font-family="sans-serif" font-size="14" lengthAdjust="spacing" textLength="172" x="367.5" y="71.5332">:WaitingRoomListController</text><rect fill="#E2E2F0" height="31.6094" rx="2.5" ry="2.5" style="stroke:#181818;stroke-width:0.5;" width="186" x="360.5" y="847.5625"/><text fill="#000000" font-family="sans-serif" font-size="14" lengthAdjust="spacing" textLength="172" x="367.5" y="869.0957">:WaitingRoomListController</text><rect fill="#E2E2F0" height="31.6094" rx="2.5" ry="2.5" style="stroke:#181818;stroke-width:0.5;" width="78" x="617.5" y="50"/><text fill="#000000" font-family="sans-serif" font-size="14" lengthAdjust="spacing" textLength="64" x="624.5" y="71.5332">:Company</text><rect fill="#E2E2F0" height="31.6094" rx="2.5" ry="2.5" style="stroke:#181818;stroke-width:0.5;" width="78" x="617.5" y="847.5625"/><text fill="#000000" font-family="sans-serif" font-size="14" lengthAdjust="spacing" textLength="64" x="624.5" y="869.0957">:Company</text><rect fill="#E2E2F0" height="31.6094" rx="2.5" ry="2.5" style="stroke:#181818;stroke-width:0.5;" width="128" x="705.5" y="847.5625"/><text fill="#000000" font-family="sans-serif" font-size="14" lengthAdjust="spacing" textLength="114" x="712.5" y="869.0957">store :ArrivalStore</text><rect fill="#E2E2F0" height="31.6094" rx="2.5" ry="2.5" style="stroke:#181818;stroke-width:0.5;" width="113" x="843.5" y="847.5625"/><text fill="#000000" font-family="sans-serif" font-size="14" lengthAdjust="spacing" textLength="99" x="850.5" y="869.0957">list :ArrivalStore</text><rect fill="#FFFFFF" height="57.8789" style="stroke:#181818;stroke-width:1.0;" width="10" x="277.5" y="131.3125"/><rect fill="#FFFFFF" height="516.7891" style="stroke:#181818;stroke-width:1.0;" width="10" x="277.5" y="230.7188"/><rect fill="#FFFFFF" height="41.5273" style="stroke:#181818;stroke-width:1.0;" width="10" x="277.5" y="777.8594"/><rect fill="#FFFFFF" height="439.7344" style="stroke:#181818;stroke-width:1.0;" width="10" x="448.5" y="261.0703"/><rect fill="#FFFFFF" height="30" style="stroke:#181818;stroke-width:1.0;" width="10" x="651.5" y="291.4219"/><rect fill="#FFFFFF" height="95.0547" style="stroke:#181818;stroke-width:1.0;" width="10" x="764.5" y="487.6953"/><rect fill="#FFFFFF" height="87.7031" style="stroke:#181818;stroke-width:1.0;" width="10" x="895" y="582.75"/><rect fill="#FFFFFF" height="35.3516" style="stroke:#181818;stroke-width:1.0;" width="10" x="900" y="635.1016"/><polygon fill="#181818" points="265.5,127.3125,275.5,131.3125,265.5,135.3125,269.5,131.3125" style="stroke:#181818;stroke-width:1.0;"/><line style="stroke:#181818;stroke-width:1.0;" x1="26.5" x2="271.5" y1="131.3125" y2="131.3125"/><text fill="#000000" font-family="sans-serif" font-size="13" font-weight="bold" lengthAdjust="spacing" textLength="7" x="33.5" y="118.2803">1</text><text fill="#000000" font-family="sans-serif" font-size="13" lengthAdjust="spacing" textLength="189" x="44.5" y="110.1045">wants a list of SNS Users on the</text><text fill="#000000" font-family="sans-serif" font-size="13" lengthAdjust="spacing" textLength="73" x="44.5" y="126.4561">waiting room</text><polygon fill="#181818" points="37.5,185.1914,27.5,189.1914,37.5,193.1914,33.5,189.1914" style="stroke:#181818;stroke-width:1.0;"/><line style="stroke:#181818;stroke-width:1.0;stroke-dasharray:2.0,2.0;" x1="31.5" x2="281.5" y1="189.1914" y2="189.1914"/><text fill="#000000" font-family="sans-serif" font-size="13" font-weight="bold" lengthAdjust="spacing" textLength="7" x="43.5" y="176.1592">2</text><text fill="#000000" font-family="sans-serif" font-size="13" lengthAdjust="spacing" textLength="160" x="54.5" y="167.9834">asks confirmation about the</text><text fill="#000000" font-family="sans-serif" font-size="13" lengthAdjust="spacing" textLength="216" x="54.5" y="184.335">centre (vacCenter) the nurse works at</text><path d="M292,144.3125 L292,203.3125 L465,203.3125 L465,154.3125 L455,144.3125 L292,144.3125 " fill="#FEFFDD" style="stroke:#181818;stroke-width:0.5;"/><path d="M455,144.3125 L455,154.3125 L465,154.3125 L455,144.3125 " fill="#FEFFDD" style="stroke:#181818;stroke-width:0.5;"/><text fill="#000000" font-family="sans-serif" font-size="13" lengthAdjust="spacing" textLength="124" x="298" y="162.8076">vacCenter is selected</text><text fill="#000000" font-family="sans-serif" font-size="13" lengthAdjust="spacing" textLength="137" x="302" y="179.1592">at the NurseUI and sent</text><text fill="#000000" font-family="sans-serif" font-size="13" lengthAdjust="spacing" textLength="148" x="302" y="195.5107">to the WaitingRoomListUI</text><polygon fill="#181818" points="265.5,226.7188,275.5,230.7188,265.5,234.7188,269.5,230.7188" style="stroke:#181818;stroke-width:1.0;"/><line style="stroke:#181818;stroke-width:1.0;" x1="26.5" x2="271.5" y1="230.7188" y2="230.7188"/><text fill="#000000" font-family="sans-serif" font-size="13" font-weight="bold" lengthAdjust="spacing" textLength="7" x="33.5" y="225.8623">3</text><text fill="#000000" font-family="sans-serif" font-size="13" lengthAdjust="spacing" textLength="113" x="44.5" y="225.8623">confirms the Centre</text><polygon fill="#181818" points="436.5,257.0703,446.5,261.0703,436.5,265.0703,440.5,261.0703" style="stroke:#181818;stroke-width:1.0;"/><line style="stroke:#181818;stroke-width:1.0;" x1="287.5" x2="442.5" y1="261.0703" y2="261.0703"/><text fill="#000000" font-family="sans-serif" font-size="13" font-weight="bold" lengthAdjust="spacing" textLength="7" x="294.5" y="256.2139">4</text><text fill="#000000" font-family="sans-serif" font-size="13" lengthAdjust="spacing" textLength="125" x="305.5" y="256.2139">getArrivals(vacCenter)</text><polygon fill="#181818" points="639.5,287.4219,649.5,291.4219,639.5,295.4219,643.5,291.4219" style="stroke:#181818;stroke-width:1.0;"/><line style="stroke:#181818;stroke-width:1.0;" x1="458.5" x2="645.5" y1="291.4219" y2="291.4219"/><text fill="#000000" font-family="sans-serif" font-size="13" font-weight="bold" lengthAdjust="spacing" textLength="7" x="465.5" y="286.5654">5</text><text fill="#000000" font-family="sans-serif" font-size="13" lengthAdjust="spacing" textLength="163" x="476.5" y="286.5654">allArrivals = getArrivalStore()</text><polygon fill="#181818" points="693.5,347.7734,703.5,351.7734,693.5,355.7734,697.5,351.7734" style="stroke:#181818;stroke-width:1.0;"/><line style="stroke:#181818;stroke-width:1.0;stroke-dasharray:2.0,2.0;" x1="458.5" x2="699.5" y1="351.7734" y2="351.7734"/><text fill="#000000" font-family="sans-serif" font-size="13" font-weight="bold" lengthAdjust="spacing" textLength="7" x="465.5" y="346.917">6</text><text fill="#000000" font-family="sans-serif" font-size="13" lengthAdjust="spacing" textLength="74" x="476.5" y="346.917">ArrivalStore()</text><rect fill="#E2E2F0" height="31.6094" rx="2.5" ry="2.5" style="stroke:#181818;stroke-width:0.5;" width="128" x="705.5" y="329.4219"/><text fill="#000000" font-family="sans-serif" font-size="14" lengthAdjust="spacing" textLength="114" x="712.5" y="350.9551">store :ArrivalStore</text><polygon fill="#181818" points="831.5,390.3828,841.5,394.3828,831.5,398.3828,835.5,394.3828" style="stroke:#181818;stroke-width:1.0;"/><line style="stroke:#181818;stroke-width:1.0;stroke-dasharray:2.0,2.0;" x1="458.5" x2="837.5" y1="394.3828" y2="394.3828"/><text fill="#000000" font-family="sans-serif" font-size="13" font-weight="bold" lengthAdjust="spacing" textLength="7" x="465.5" y="389.5264">7</text><text fill="#000000" font-family="sans-serif" font-size="13" lengthAdjust="spacing" textLength="74" x="476.5" y="389.5264">ArrivalStore()</text><rect fill="#E2E2F0" height="31.6094" rx="2.5" ry="2.5" style="stroke:#181818;stroke-width:0.5;" width="113" x="843.5" y="372.0313"/><text fill="#000000" font-family="sans-serif" font-size="14" lengthAdjust="spacing" textLength="99" x="850.5" y="393.5645">list :ArrivalStore</text><path d="M340.5,421.6406 L413.5,421.6406 L413.5,429.9922 L403.5,439.9922 L340.5,439.9922 L340.5,421.6406 " fill="#EEEEEE" style="stroke:#000000;stroke-width:1.5;"/><rect fill="none" height="81.0547" style="stroke:#000000;stroke-width:1.5;" width="513" x="340.5" y="421.6406"/><text fill="#000000" font-family="sans-serif" font-size="13" font-weight="bold" lengthAdjust="spacing" textLength="28" x="355.5" y="436.1357">loop</text><text fill="#000000" font-family="sans-serif" font-size="11" font-weight="bold" lengthAdjust="spacing" textLength="177" x="428.5" y="435.0596">[for each Arrival[a] in allArrivals]</text><path d="M350.5,446.9922 L415.5,446.9922 L415.5,455.3438 L405.5,465.3438 L350.5,465.3438 L350.5,446.9922 " fill="#EEEEEE" style="stroke:#000000;stroke-width:1.5;"/><rect fill="none" height="48.7031" style="stroke:#000000;stroke-width:1.5;" width="493" x="350.5" y="446.9922"/><text fill="#000000" font-family="sans-serif" font-size="13" font-weight="bold" lengthAdjust="spacing" textLength="20" x="365.5" y="461.4873">opt</text><text fill="#000000" font-family="sans-serif" font-size="11" font-weight="bold" lengthAdjust="spacing" textLength="238" x="430.5" y="460.4111">[i.getVaccCenter().getName() == vacCenter]</text><polygon fill="#181818" points="752.5,483.6953,762.5,487.6953,752.5,491.6953,756.5,487.6953" style="stroke:#181818;stroke-width:1.0;"/><line style="stroke:#181818;stroke-width:1.0;" x1="458.5" x2="758.5" y1="487.6953" y2="487.6953"/><text fill="#000000" font-family="sans-serif" font-size="13" font-weight="bold" lengthAdjust="spacing" textLength="7" x="465.5" y="482.8389">8</text><text fill="#000000" font-family="sans-serif" font-size="13" lengthAdjust="spacing" textLength="71" x="476.5" y="482.8389">addArrival(a)</text><path d="M685.5,516.6953 L758.5,516.6953 L758.5,525.0469 L748.5,535.0469 L685.5,535.0469 L685.5,516.6953 " fill="#EEEEEE" style="stroke:#000000;stroke-width:1.5;"/><rect fill="none" height="81.0547" style="stroke:#000000;stroke-width:1.5;" width="291" x="685.5" y="516.6953"/><text fill="#000000" font-family="sans-serif" font-size="13" font-weight="bold" lengthAdjust="spacing" textLength="28" x="700.5" y="531.1904">loop</text><text fill="#000000" font-family="sans-serif" font-size="11" font-weight="bold" lengthAdjust="spacing" textLength="152" x="773.5" y="530.1143">[for each Arrival[a] in store]</text><path d="M695.5,542.0469 L760.5,542.0469 L760.5,550.3984 L750.5,560.3984 L695.5,560.3984 L695.5,542.0469 " fill="#EEEEEE" style="stroke:#000000;stroke-width:1.5;"/><rect fill="none" height="48.7031" style="stroke:#000000;stroke-width:1.5;" width="271" x="695.5" y="542.0469"/><text fill="#000000" font-family="sans-serif" font-size="13" font-weight="bold" lengthAdjust="spacing" textLength="20" x="710.5" y="556.542">opt</text><text fill="#000000" font-family="sans-serif" font-size="11" font-weight="bold" lengthAdjust="spacing" textLength="160" x="775.5" y="555.4658">[arr.getDate() == currentDate]</text><polygon fill="#181818" points="883,578.75,893,582.75,883,586.75,887,582.75" style="stroke:#181818;stroke-width:1.0;"/><line style="stroke:#181818;stroke-width:1.0;" x1="769.5" x2="889" y1="582.75" y2="582.75"/><text fill="#000000" font-family="sans-serif" font-size="13" font-weight="bold" lengthAdjust="spacing" textLength="7" x="776.5" y="577.8936">9</text><text fill="#000000" font-family="sans-serif" font-size="13" lengthAdjust="spacing" textLength="71" x="787.5" y="577.8936">addArrival(a)</text><line style="stroke:#181818;stroke-width:1.0;" x1="905" x2="952" y1="622.1016" y2="622.1016"/><line style="stroke:#181818;stroke-width:1.0;" x1="952" x2="952" y1="622.1016" y2="635.1016"/><line style="stroke:#181818;stroke-width:1.0;" x1="911" x2="952" y1="635.1016" y2="635.1016"/><polygon fill="#181818" points="921,631.1016,911,635.1016,921,639.1016,917,635.1016" style="stroke:#181818;stroke-width:1.0;"/><text fill="#000000" font-family="sans-serif" font-size="13" font-weight="bold" lengthAdjust="spacing" textLength="14" x="917" y="617.2451">10</text><text fill="#000000" font-family="sans-serif" font-size="13" lengthAdjust="spacing" textLength="291" x="935" y="617.2451">list = sort(Comparator.comparing(Arrival::getTime))</text><polygon fill="#181818" points="469.5,666.4531,459.5,670.4531,469.5,674.4531,465.5,670.4531" style="stroke:#181818;stroke-width:1.0;"/><line style="stroke:#181818;stroke-width:1.0;stroke-dasharray:2.0,2.0;" x1="463.5" x2="899" y1="670.4531" y2="670.4531"/><text fill="#000000" font-family="sans-serif" font-size="13" font-weight="bold" lengthAdjust="spacing" textLength="14" x="475.5" y="665.5967">11</text><text fill="#000000" font-family="sans-serif" font-size="13" lengthAdjust="spacing" textLength="17" x="493.5" y="665.5967">list</text><polygon fill="#181818" points="298.5,696.8047,288.5,700.8047,298.5,704.8047,294.5,700.8047" style="stroke:#181818;stroke-width:1.0;"/><line style="stroke:#181818;stroke-width:1.0;stroke-dasharray:2.0,2.0;" x1="292.5" x2="452.5" y1="700.8047" y2="700.8047"/><text fill="#000000" font-family="sans-serif" font-size="13" font-weight="bold" lengthAdjust="spacing" textLength="14" x="304.5" y="695.9482">12</text><text fill="#000000" font-family="sans-serif" font-size="13" lengthAdjust="spacing" textLength="17" x="322.5" y="695.9482">list</text><polygon fill="#181818" points="37.5,743.5078,27.5,747.5078,37.5,751.5078,33.5,747.5078" style="stroke:#181818;stroke-width:1.0;"/><line style="stroke:#181818;stroke-width:1.0;stroke-dasharray:2.0,2.0;" x1="31.5" x2="281.5" y1="747.5078" y2="747.5078"/><text fill="#000000" font-family="sans-serif" font-size="13" font-weight="bold" lengthAdjust="spacing" textLength="14" x="43.5" y="734.4756">13</text><text fill="#000000" font-family="sans-serif" font-size="13" lengthAdjust="spacing" textLength="157" x="61.5" y="726.2998">shows the waiting room list</text><text fill="#000000" font-family="sans-serif" font-size="13" lengthAdjust="spacing" textLength="145" x="61.5" y="742.6514">and asks for confirmation</text><polygon fill="#181818" points="265.5,773.8594,275.5,777.8594,265.5,781.8594,269.5,777.8594" style="stroke:#181818;stroke-width:1.0;"/><line style="stroke:#181818;stroke-width:1.0;" x1="26.5" x2="271.5" y1="777.8594" y2="777.8594"/><text fill="#000000" font-family="sans-serif" font-size="13" font-weight="bold" lengthAdjust="spacing" textLength="14" x="33.5" y="773.0029">14</text><text fill="#000000" font-family="sans-serif" font-size="13" lengthAdjust="spacing" textLength="110" x="51.5" y="773.0029">confirms the action</text><polygon fill="#181818" points="37.5,815.3867,27.5,819.3867,37.5,823.3867,33.5,819.3867" style="stroke:#181818;stroke-width:1.0;"/><line style="stroke:#181818;stroke-width:1.0;stroke-dasharray:2.0,2.0;" x1="31.5" x2="281.5" y1="819.3867" y2="819.3867"/><text fill="#000000" font-family="sans-serif" font-size="13" font-weight="bold" lengthAdjust="spacing" textLength="14" x="43.5" y="814.5303">15</text><text fill="#000000" font-family="sans-serif" font-size="13" lengthAdjust="spacing" textLength="188" x="61.5" y="814.5303">informs about operation success</text><path d="M292,790.8594 L292,832.8594 L546,832.8594 L546,800.8594 L536,790.8594 L292,790.8594 " fill="#FEFFDD" style="stroke:#181818;stroke-width:0.5;"/><path d="M536,790.8594 L536,800.8594 L546,800.8594 L536,790.8594 " fill="#FEFFDD" style="stroke:#181818;stroke-width:0.5;"/><text fill="#000000" font-family="sans-serif" font-size="13" lengthAdjust="spacing" textLength="219" x="298" y="809.3545">By confirming, the operation ends and</text><text fill="#000000" font-family="sans-serif" font-size="13" lengthAdjust="spacing" textLength="233" x="298" y="825.7061">the user is sent back to the Nurse Menu</text><!--MD5=[5c7641ffe3253dc02c38d7de0211ae15]
@startuml
autonumber
actor Nurse as N
participant ":WaitingRoomListUI" as UI
participant ":WaitingRoomListController" as CTRL
participant ":Company" as C
participant "store :ArrivalStore" as store
participant "list :ArrivalStore" as list

N -> UI : wants a list of SNS Users on the\nwaiting room
activate UI

N <- - UI: asks confirmation about the\ncentre (vacCenter) the nurse works at
note right
  vacCenter is selected
   at the NurseUI and sent
   to the WaitingRoomListUI
end note
deactivate UI
N -> UI : confirms the Centre
activate UI
UI->CTRL: getArrivals(vacCenter)
activate CTRL
CTRL->C: allArrivals = getArrivalStore()
activate C
deactivate C
CTRL- ->store**: ArrivalStore()
CTRL- ->list**: ArrivalStore()
loop for each Arrival[a] in allArrivals
opt i.getVaccCenter().getName() == vacCenter
CTRL->store:addArrival(a)
activate store
end opt
end loop

loop for each Arrival[a] in store
opt arr.getDate() == currentDate
store->list: addArrival(a)
deactivate store
activate list
end opt
end loop

list->list: list = sort(Comparator.comparing(Arrival::getTime))
activate list
list- ->CTRL: list
deactivate list
deactivate list
CTRL- ->UI: list
deactivate CTRL
N <- - UI: shows the waiting room list\nand asks for confirmation
deactivate UI

N -> UI : confirms the action
activate UI
N <- - UI: informs about operation success
note right
By confirming, the operation ends and
the user is sent back to the Nurse Menu
end note
deactivate UI



@enduml

PlantUML version 1.2022.4(Sat Apr 09 14:29:17 BST 2022)
(GPL source distribution)
Java Runtime: OpenJDK Runtime Environment
JVM: OpenJDK 64-Bit Server VM
Default Encoding: Cp1252
Language: pt
Country: PT
--></g></svg>