<?xml version="1.0" encoding="UTF-8" standalone="no"?><svg xmlns="http://www.w3.org/2000/svg" xmlns:xlink="http://www.w3.org/1999/xlink" contentStyleType="text/css" height="812px" preserveAspectRatio="none" style="width:516px;height:812px;background:#FFFFFF;" version="1.1" viewBox="0 0 516 812" width="516px" zoomAndPan="magnify"><defs/><g><!--MD5=[99bd80dcc8b0295cf8ca2b7bb83b444a]
class WaitingRoomListUI--><g id="elem_WaitingRoomListUI"><rect codeLine="20" fill="#F1F1F1" height="83.2188" id="WaitingRoomListUI" rx="2.5" ry="2.5" style="stroke:#181818;stroke-width:0.5;" width="150" x="199" y="7"/><ellipse cx="214" cy="23" fill="#ADD1B2" rx="11" ry="11" style="stroke:#181818;stroke-width:1.0;"/><path d="M216,19.5 Q216.2031,19 216.4375,18.75 Q216.6719,18.5 216.9375,18.5 Q217.4063,18.5 217.7031,18.7813 Q218,19.0625 218,19.7188 L218,21.2813 Q218,21.9375 217.7188,22.2188 Q217.4375,22.5 217,22.5 Q216.6094,22.5 216.3594,22.3281 Q216.1094,22.1563 216,21.7031 Q215.9531,21.3906 215.7813,21.2188 Q215.4688,20.8906 214.9063,20.7031 Q214.3438,20.5 213.7813,20.5 Q213.0781,20.5 212.4844,20.7813 Q211.9063,21.0625 211.4531,21.6875 Q211,22.3125 211,23.1719 L211,24.0938 Q211,25.125 211.8438,25.8125 Q212.6875,26.5 214.1875,26.5 Q215.0781,26.5 215.7031,26.2969 Q216.0625,26.1875 216.4688,25.8281 Q216.7344,25.625 216.875,25.5625 Q217.0156,25.5 217.1875,25.5 Q217.5156,25.5 217.75,25.7656 Q218,26.0156 218,26.375 Q218,26.7188 217.6563,27.125 Q217.1563,27.7188 216.3594,28.0469 Q215.3125,28.5 214.0313,28.5 Q212.5313,28.5 211.3281,27.9063 Q210.3594,27.4375 209.6719,26.4219 Q209,25.4063 209,24.2031 L209,23.1094 Q209,21.8594 209.5938,20.7656 Q210.2031,19.6719 211.25,19.0938 Q212.3125,18.5 213.5,18.5 Q214.2188,18.5 214.8438,18.75 Q215.4688,19 216,19.5 Z " fill="#000000"/><text fill="#000000" font-family="sans-serif" font-size="14" lengthAdjust="spacing" textLength="118" x="228" y="28.7285">WaitingRoomListUI</text><line style="stroke:#181818;stroke-width:0.5;" x1="200" x2="348" y1="39" y2="39"/><rect fill="none" height="6" style="stroke:#C82930;stroke-width:1.0;" width="6" x="207" y="47"/><text fill="#000000" font-family="sans-serif" font-size="14" lengthAdjust="spacing" textLength="19" x="219" y="57.5332">ctrl</text><rect fill="none" height="6" style="stroke:#C82930;stroke-width:1.0;" width="6" x="207" y="64.6094"/><text fill="#000000" font-family="sans-serif" font-size="14" lengthAdjust="spacing" textLength="14" x="219" y="75.1426">vc</text><line style="stroke:#181818;stroke-width:0.5;" x1="200" x2="348" y1="82.2188" y2="82.2188"/></g><!--MD5=[b015b6bcef042187f4a966c786ac1181]
class WaitingRoomListController--><g id="elem_WaitingRoomListController"><rect codeLine="25" fill="#F1F1F1" height="83.2188" id="WaitingRoomListController" rx="2.5" ry="2.5" style="stroke:#181818;stroke-width:0.5;" width="218" x="49" y="151"/><ellipse cx="72.1" cy="167" fill="#ADD1B2" rx="11" ry="11" style="stroke:#181818;stroke-width:1.0;"/><path d="M74.1,163.5 Q74.3031,163 74.5375,162.75 Q74.7719,162.5 75.0375,162.5 Q75.5063,162.5 75.8031,162.7813 Q76.1,163.0625 76.1,163.7188 L76.1,165.2813 Q76.1,165.9375 75.8188,166.2188 Q75.5375,166.5 75.1,166.5 Q74.7094,166.5 74.4594,166.3281 Q74.2094,166.1563 74.1,165.7031 Q74.0531,165.3906 73.8813,165.2188 Q73.5688,164.8906 73.0063,164.7031 Q72.4438,164.5 71.8813,164.5 Q71.1781,164.5 70.5844,164.7813 Q70.0063,165.0625 69.5531,165.6875 Q69.1,166.3125 69.1,167.1719 L69.1,168.0938 Q69.1,169.125 69.9438,169.8125 Q70.7875,170.5 72.2875,170.5 Q73.1781,170.5 73.8031,170.2969 Q74.1625,170.1875 74.5688,169.8281 Q74.8344,169.625 74.975,169.5625 Q75.1156,169.5 75.2875,169.5 Q75.6156,169.5 75.85,169.7656 Q76.1,170.0156 76.1,170.375 Q76.1,170.7188 75.7563,171.125 Q75.2563,171.7188 74.4594,172.0469 Q73.4125,172.5 72.1313,172.5 Q70.6313,172.5 69.4281,171.9063 Q68.4594,171.4375 67.7719,170.4219 Q67.1,169.4063 67.1,168.2031 L67.1,167.1094 Q67.1,165.8594 67.6938,164.7656 Q68.3031,163.6719 69.35,163.0938 Q70.4125,162.5 71.6,162.5 Q72.3188,162.5 72.9438,162.75 Q73.5688,163 74.1,163.5 Z " fill="#000000"/><text fill="#000000" font-family="sans-serif" font-size="14" lengthAdjust="spacing" textLength="168" x="87.9" y="172.7285">WaitingRoomListController</text><line style="stroke:#181818;stroke-width:0.5;" x1="50" x2="266" y1="183" y2="183"/><line style="stroke:#181818;stroke-width:0.5;" x1="50" x2="266" y1="191" y2="191"/><ellipse cx="60" cy="202" fill="#84BE84" rx="3" ry="3" style="stroke:#038048;stroke-width:1.0;"/><text fill="#000000" font-family="sans-serif" font-size="14" lengthAdjust="spacing" textLength="91" x="69" y="209.5332">getArrivals(vc)</text><ellipse cx="60" cy="219.6094" fill="#84BE84" rx="3" ry="3" style="stroke:#038048;stroke-width:1.0;"/><text fill="#000000" font-family="sans-serif" font-size="14" lengthAdjust="spacing" textLength="192" x="69" y="227.1426">waitingRoomListing(arrivalList)</text></g><!--MD5=[a9ccab1cff58e373557d6d318309cf93]
class SelVaccinationCenterUI--><g id="elem_SelVaccinationCenterUI"><rect codeLine="11" fill="#F1F1F1" height="65.6094" id="SelVaccinationCenterUI" rx="2.5" ry="2.5" style="stroke:#181818;stroke-width:0.5;" width="180" x="302" y="159.5"/><ellipse cx="317" cy="175.5" fill="#ADD1B2" rx="11" ry="11" style="stroke:#181818;stroke-width:1.0;"/><path d="M319,172 Q319.2031,171.5 319.4375,171.25 Q319.6719,171 319.9375,171 Q320.4063,171 320.7031,171.2813 Q321,171.5625 321,172.2188 L321,173.7813 Q321,174.4375 320.7188,174.7188 Q320.4375,175 320,175 Q319.6094,175 319.3594,174.8281 Q319.1094,174.6563 319,174.2031 Q318.9531,173.8906 318.7813,173.7188 Q318.4688,173.3906 317.9063,173.2031 Q317.3438,173 316.7813,173 Q316.0781,173 315.4844,173.2813 Q314.9063,173.5625 314.4531,174.1875 Q314,174.8125 314,175.6719 L314,176.5938 Q314,177.625 314.8438,178.3125 Q315.6875,179 317.1875,179 Q318.0781,179 318.7031,178.7969 Q319.0625,178.6875 319.4688,178.3281 Q319.7344,178.125 319.875,178.0625 Q320.0156,178 320.1875,178 Q320.5156,178 320.75,178.2656 Q321,178.5156 321,178.875 Q321,179.2188 320.6563,179.625 Q320.1563,180.2188 319.3594,180.5469 Q318.3125,181 317.0313,181 Q315.5313,181 314.3281,180.4063 Q313.3594,179.9375 312.6719,178.9219 Q312,177.9063 312,176.7031 L312,175.6094 Q312,174.3594 312.5938,173.2656 Q313.2031,172.1719 314.25,171.5938 Q315.3125,171 316.5,171 Q317.2188,171 317.8438,171.25 Q318.4688,171.5 319,172 Z " fill="#000000"/><text fill="#000000" font-family="sans-serif" font-size="14" lengthAdjust="spacing" textLength="148" x="331" y="181.2285">SelVaccinationCenterUI</text><line style="stroke:#181818;stroke-width:0.5;" x1="303" x2="481" y1="191.5" y2="191.5"/><line style="stroke:#181818;stroke-width:0.5;" x1="303" x2="481" y1="199.5" y2="199.5"/><ellipse cx="313" cy="210.5" fill="#84BE84" rx="3" ry="3" style="stroke:#038048;stroke-width:1.0;"/><text fill="#000000" font-family="sans-serif" font-size="14" lengthAdjust="spacing" textLength="104" x="322" y="218.0332">getSelectedVC()</text></g><!--MD5=[4f9e1d4d3c4d1da016b0fb2e77e95875]
class SelVaccinationCenterController--><g id="elem_SelVaccinationCenterController"><rect codeLine="15" fill="#F1F1F1" height="83.2188" id="SelVaccinationCenterController" rx="2.5" ry="2.5" style="stroke:#181818;stroke-width:0.5;" width="234" x="275" y="295"/><ellipse cx="291.8" cy="311" fill="#ADD1B2" rx="11" ry="11" style="stroke:#181818;stroke-width:1.0;"/><path d="M293.8,307.5 Q294.0031,307 294.2375,306.75 Q294.4719,306.5 294.7375,306.5 Q295.2063,306.5 295.5031,306.7813 Q295.8,307.0625 295.8,307.7188 L295.8,309.2813 Q295.8,309.9375 295.5188,310.2188 Q295.2375,310.5 294.8,310.5 Q294.4094,310.5 294.1594,310.3281 Q293.9094,310.1563 293.8,309.7031 Q293.7531,309.3906 293.5813,309.2188 Q293.2688,308.8906 292.7063,308.7031 Q292.1438,308.5 291.5813,308.5 Q290.8781,308.5 290.2844,308.7813 Q289.7063,309.0625 289.2531,309.6875 Q288.8,310.3125 288.8,311.1719 L288.8,312.0938 Q288.8,313.125 289.6438,313.8125 Q290.4875,314.5 291.9875,314.5 Q292.8781,314.5 293.5031,314.2969 Q293.8625,314.1875 294.2688,313.8281 Q294.5344,313.625 294.675,313.5625 Q294.8156,313.5 294.9875,313.5 Q295.3156,313.5 295.55,313.7656 Q295.8,314.0156 295.8,314.375 Q295.8,314.7188 295.4563,315.125 Q294.9563,315.7188 294.1594,316.0469 Q293.1125,316.5 291.8313,316.5 Q290.3313,316.5 289.1281,315.9063 Q288.1594,315.4375 287.4719,314.4219 Q286.8,313.4063 286.8,312.2031 L286.8,311.1094 Q286.8,309.8594 287.3938,308.7656 Q288.0031,307.6719 289.05,307.0938 Q290.1125,306.5 291.3,306.5 Q292.0188,306.5 292.6438,306.75 Q293.2688,307 293.8,307.5 Z " fill="#000000"/><text fill="#000000" font-family="sans-serif" font-size="14" lengthAdjust="spacing" textLength="198" x="306.2" y="316.7285">SelVaccinationCenterController</text><line style="stroke:#181818;stroke-width:0.5;" x1="276" x2="508" y1="327" y2="327"/><line style="stroke:#181818;stroke-width:0.5;" x1="276" x2="508" y1="335" y2="335"/><ellipse cx="286" cy="346" fill="#84BE84" rx="3" ry="3" style="stroke:#038048;stroke-width:1.0;"/><text fill="#000000" font-family="sans-serif" font-size="14" lengthAdjust="spacing" textLength="208" x="295" y="353.5332">SelVaccinationCenterController()</text><ellipse cx="286" cy="363.6094" fill="#84BE84" rx="3" ry="3" style="stroke:#038048;stroke-width:1.0;"/><text fill="#000000" font-family="sans-serif" font-size="14" lengthAdjust="spacing" textLength="38" x="295" y="371.1426">exits()</text></g><!--MD5=[02e4b9b7573f1156f41e60aa5b4e25a4]
class Company--><g id="elem_Company"><rect codeLine="30" fill="#F1F1F1" height="65.6094" id="Company" rx="2.5" ry="2.5" style="stroke:#181818;stroke-width:0.5;" width="130" x="7" y="303.5"/><ellipse cx="39.1" cy="319.5" fill="#ADD1B2" rx="11" ry="11" style="stroke:#181818;stroke-width:1.0;"/><path d="M41.1,316 Q41.3031,315.5 41.5375,315.25 Q41.7719,315 42.0375,315 Q42.5063,315 42.8031,315.2813 Q43.1,315.5625 43.1,316.2188 L43.1,317.7813 Q43.1,318.4375 42.8188,318.7188 Q42.5375,319 42.1,319 Q41.7094,319 41.4594,318.8281 Q41.2094,318.6563 41.1,318.2031 Q41.0531,317.8906 40.8813,317.7188 Q40.5688,317.3906 40.0063,317.2031 Q39.4438,317 38.8813,317 Q38.1781,317 37.5844,317.2813 Q37.0063,317.5625 36.5531,318.1875 Q36.1,318.8125 36.1,319.6719 L36.1,320.5938 Q36.1,321.625 36.9438,322.3125 Q37.7875,323 39.2875,323 Q40.1781,323 40.8031,322.7969 Q41.1625,322.6875 41.5688,322.3281 Q41.8344,322.125 41.975,322.0625 Q42.1156,322 42.2875,322 Q42.6156,322 42.85,322.2656 Q43.1,322.5156 43.1,322.875 Q43.1,323.2188 42.7563,323.625 Q42.2563,324.2188 41.4594,324.5469 Q40.4125,325 39.1313,325 Q37.6313,325 36.4281,324.4063 Q35.4594,323.9375 34.7719,322.9219 Q34.1,321.9063 34.1,320.7031 L34.1,319.6094 Q34.1,318.3594 34.6938,317.2656 Q35.3031,316.1719 36.35,315.5938 Q37.4125,315 38.6,315 Q39.3188,315 39.9438,315.25 Q40.5688,315.5 41.1,316 Z " fill="#000000"/><text fill="#000000" font-family="sans-serif" font-size="14" lengthAdjust="spacing" textLength="60" x="56.9" y="325.2285">Company</text><line style="stroke:#181818;stroke-width:0.5;" x1="8" x2="136" y1="335.5" y2="335.5"/><line style="stroke:#181818;stroke-width:0.5;" x1="8" x2="136" y1="343.5" y2="343.5"/><ellipse cx="18" cy="354.5" fill="#84BE84" rx="3" ry="3" style="stroke:#038048;stroke-width:1.0;"/><text fill="#000000" font-family="sans-serif" font-size="14" lengthAdjust="spacing" textLength="104" x="27" y="362.0332">getArrivalStore()</text></g><!--MD5=[1f8a64b88a55ca54e80d29d134f8aad4]
class ArrivalStore--><g id="elem_ArrivalStore"><rect codeLine="34" fill="#F1F1F1" height="118.4375" id="ArrivalStore" rx="2.5" ry="2.5" style="stroke:#181818;stroke-width:0.5;" width="167" x="47.5" y="456"/><ellipse cx="89.95" cy="472" fill="#ADD1B2" rx="11" ry="11" style="stroke:#181818;stroke-width:1.0;"/><path d="M91.95,468.5 Q92.1531,468 92.3875,467.75 Q92.6219,467.5 92.8875,467.5 Q93.3563,467.5 93.6531,467.7813 Q93.95,468.0625 93.95,468.7188 L93.95,470.2813 Q93.95,470.9375 93.6688,471.2188 Q93.3875,471.5 92.95,471.5 Q92.5594,471.5 92.3094,471.3281 Q92.0594,471.1563 91.95,470.7031 Q91.9031,470.3906 91.7313,470.2188 Q91.4188,469.8906 90.8563,469.7031 Q90.2938,469.5 89.7313,469.5 Q89.0281,469.5 88.4344,469.7813 Q87.8563,470.0625 87.4031,470.6875 Q86.95,471.3125 86.95,472.1719 L86.95,473.0938 Q86.95,474.125 87.7938,474.8125 Q88.6375,475.5 90.1375,475.5 Q91.0281,475.5 91.6531,475.2969 Q92.0125,475.1875 92.4188,474.8281 Q92.6844,474.625 92.825,474.5625 Q92.9656,474.5 93.1375,474.5 Q93.4656,474.5 93.7,474.7656 Q93.95,475.0156 93.95,475.375 Q93.95,475.7188 93.6063,476.125 Q93.1063,476.7188 92.3094,477.0469 Q91.2625,477.5 89.9813,477.5 Q88.4813,477.5 87.2781,476.9063 Q86.3094,476.4375 85.6219,475.4219 Q84.95,474.4063 84.95,473.2031 L84.95,472.1094 Q84.95,470.8594 85.5438,469.7656 Q86.1531,468.6719 87.2,468.0938 Q88.2625,467.5 89.45,467.5 Q90.1688,467.5 90.7938,467.75 Q91.4188,468 91.95,468.5 Z " fill="#000000"/><text fill="#000000" font-family="sans-serif" font-size="14" lengthAdjust="spacing" textLength="74" x="110.05" y="477.7285">ArrivalStore</text><line style="stroke:#181818;stroke-width:0.5;" x1="48.5" x2="213.5" y1="488" y2="488"/><line style="stroke:#181818;stroke-width:0.5;" x1="48.5" x2="213.5" y1="496" y2="496"/><ellipse cx="58.5" cy="507" fill="#84BE84" rx="3" ry="3" style="stroke:#038048;stroke-width:1.0;"/><text fill="#000000" font-family="sans-serif" font-size="14" lengthAdjust="spacing" textLength="141" x="67.5" y="514.5332">filterByVaccCentre(vc)</text><ellipse cx="58.5" cy="524.6094" fill="#84BE84" rx="3" ry="3" style="stroke:#038048;stroke-width:1.0;"/><text fill="#000000" font-family="sans-serif" font-size="14" lengthAdjust="spacing" textLength="100" x="67.5" y="532.1426">orderByArrival()</text><ellipse cx="58.5" cy="542.2188" fill="#84BE84" rx="3" ry="3" style="stroke:#038048;stroke-width:1.0;"/><text fill="#000000" font-family="sans-serif" font-size="14" lengthAdjust="spacing" textLength="59" x="67.5" y="549.752">isEmpty()</text><ellipse cx="58.5" cy="559.8281" fill="#84BE84" rx="3" ry="3" style="stroke:#038048;stroke-width:1.0;"/><text fill="#000000" font-family="sans-serif" font-size="14" lengthAdjust="spacing" textLength="59" x="67.5" y="567.3613">toString()</text></g><!--MD5=[950bab46f39ba9ae59885963abb53c18]
class Arrival--><g id="elem_Arrival"><rect codeLine="41" fill="#F1F1F1" height="153.6563" id="Arrival" rx="2.5" ry="2.5" style="stroke:#181818;stroke-width:0.5;" width="98" x="82" y="652"/><ellipse cx="108.7" cy="668" fill="#ADD1B2" rx="11" ry="11" style="stroke:#181818;stroke-width:1.0;"/><path d="M110.7,664.5 Q110.9031,664 111.1375,663.75 Q111.3719,663.5 111.6375,663.5 Q112.1063,663.5 112.4031,663.7813 Q112.7,664.0625 112.7,664.7188 L112.7,666.2813 Q112.7,666.9375 112.4188,667.2188 Q112.1375,667.5 111.7,667.5 Q111.3094,667.5 111.0594,667.3281 Q110.8094,667.1563 110.7,666.7031 Q110.6531,666.3906 110.4813,666.2188 Q110.1688,665.8906 109.6063,665.7031 Q109.0438,665.5 108.4813,665.5 Q107.7781,665.5 107.1844,665.7813 Q106.6063,666.0625 106.1531,666.6875 Q105.7,667.3125 105.7,668.1719 L105.7,669.0938 Q105.7,670.125 106.5438,670.8125 Q107.3875,671.5 108.8875,671.5 Q109.7781,671.5 110.4031,671.2969 Q110.7625,671.1875 111.1688,670.8281 Q111.4344,670.625 111.575,670.5625 Q111.7156,670.5 111.8875,670.5 Q112.2156,670.5 112.45,670.7656 Q112.7,671.0156 112.7,671.375 Q112.7,671.7188 112.3563,672.125 Q111.8563,672.7188 111.0594,673.0469 Q110.0125,673.5 108.7313,673.5 Q107.2313,673.5 106.0281,672.9063 Q105.0594,672.4375 104.3719,671.4219 Q103.7,670.4063 103.7,669.2031 L103.7,668.1094 Q103.7,666.8594 104.2938,665.7656 Q104.9031,664.6719 105.95,664.0938 Q107.0125,663.5 108.2,663.5 Q108.9188,663.5 109.5438,663.75 Q110.1688,664 110.7,664.5 Z " fill="#000000"/><text fill="#000000" font-family="sans-serif" font-size="14" lengthAdjust="spacing" textLength="40" x="125.3" y="673.7285">Arrival</text><line style="stroke:#181818;stroke-width:0.5;" x1="83" x2="179" y1="684" y2="684"/><rect fill="none" height="6" style="stroke:#C82930;stroke-width:1.0;" width="6" x="90" y="692"/><text fill="#000000" font-family="sans-serif" font-size="14" lengthAdjust="spacing" textLength="28" x="102" y="702.5332">date</text><rect fill="none" height="6" style="stroke:#C82930;stroke-width:1.0;" width="6" x="90" y="709.6094"/><text fill="#000000" font-family="sans-serif" font-size="14" lengthAdjust="spacing" textLength="26" x="102" y="720.1426">time</text><rect fill="none" height="6" style="stroke:#C82930;stroke-width:1.0;" width="6" x="90" y="727.2188"/><text fill="#000000" font-family="sans-serif" font-size="14" lengthAdjust="spacing" textLength="28" x="102" y="737.752">user</text><rect fill="none" height="6" style="stroke:#C82930;stroke-width:1.0;" width="6" x="90" y="744.8281"/><text fill="#000000" font-family="sans-serif" font-size="14" lengthAdjust="spacing" textLength="72" x="102" y="755.3613">vaccCenter</text><line style="stroke:#181818;stroke-width:0.5;" x1="83" x2="179" y1="762.4375" y2="762.4375"/><ellipse cx="93" cy="773.4375" fill="#84BE84" rx="3" ry="3" style="stroke:#038048;stroke-width:1.0;"/><text fill="#000000" font-family="sans-serif" font-size="14" lengthAdjust="spacing" textLength="61" x="102" y="780.9707">getTime()</text><ellipse cx="93" cy="791.0469" fill="#84BE84" rx="3" ry="3" style="stroke:#038048;stroke-width:1.0;"/><text fill="#000000" font-family="sans-serif" font-size="14" lengthAdjust="spacing" textLength="60" x="102" y="798.5801">getDate()</text></g><!--MD5=[4ee695915cd10dbfd029a63c1c777666]
link WaitingRoomListUI to WaitingRoomListController--><g id="link_WaitingRoomListUI_WaitingRoomListController"><path codeLine="2" d="M240.76,90.19 C226.32,107.87 209.36,128.63 194.56,146.74 " fill="none" id="WaitingRoomListUI-to-WaitingRoomListController" style="stroke:#181818;stroke-width:1.0;stroke-dasharray:7.0,7.0;"/><polygon fill="#181818" points="191.25,150.8,200.0476,146.3726,194.4185,146.9321,193.859,141.303,191.25,150.8" style="stroke:#181818;stroke-width:1.0;"/></g><!--MD5=[75ff5c31d09917ec643c54b34f8854c8]
link SelVaccinationCenterUI to SelVaccinationCenterController--><g id="link_SelVaccinationCenterUI_SelVaccinationCenterController"><path codeLine="3" d="M392,225.72 C392,244.58 392,268.7 392,289.53 " fill="none" id="SelVaccinationCenterUI-to-SelVaccinationCenterController" style="stroke:#181818;stroke-width:1.0;stroke-dasharray:7.0,7.0;"/><polygon fill="#181818" points="392,294.75,396,285.75,392,289.75,388,285.75,392,294.75" style="stroke:#181818;stroke-width:1.0;"/></g><!--MD5=[82ac290eb82416ac2e2b0b8efae7f080]
link WaitingRoomListUI to SelVaccinationCenterUI--><g id="link_WaitingRoomListUI_SelVaccinationCenterUI"><path codeLine="4" d="M307.81,90.19 C324.92,110.78 345.52,135.56 362.05,155.46 " fill="none" id="WaitingRoomListUI-to-SelVaccinationCenterUI" style="stroke:#181818;stroke-width:1.0;stroke-dasharray:7.0,7.0;"/><polygon fill="#181818" points="365.3,159.37,362.6355,149.8884,362.1089,155.5207,356.4767,154.9941,365.3,159.37" style="stroke:#181818;stroke-width:1.0;"/></g><!--MD5=[8200552decdc989cb5c65323d82c5d4d]
link WaitingRoomListController to Company--><g id="link_WaitingRoomListController_Company"><path codeLine="6" d="M133.36,234.19 C120.99,254.61 106.13,279.15 94.13,298.96 " fill="none" id="WaitingRoomListController-to-Company" style="stroke:#181818;stroke-width:1.0;stroke-dasharray:7.0,7.0;"/><polygon fill="#181818" points="91.46,303.37,99.5343,297.7303,94.043,299.0888,92.6844,293.5975,91.46,303.37" style="stroke:#181818;stroke-width:1.0;"/></g><!--MD5=[03647583292f4845bdaf14ffc49aef19]
link Company to ArrivalStore--><g id="link_Company_ArrivalStore"><path codeLine="7" d="M82.82,369.87 C90.37,392.45 100.69,423.32 109.84,450.7 " fill="none" id="Company-to-ArrivalStore" style="stroke:#181818;stroke-width:1.0;"/><polygon fill="#181818" points="111.53,455.77,112.4698,445.9661,109.9446,451.028,104.8826,448.5028,111.53,455.77" style="stroke:#181818;stroke-width:1.0;"/><text fill="#000000" font-family="sans-serif" font-size="13" lengthAdjust="spacing" textLength="39" x="103" y="422.4951">adopts</text><text fill="#000000" font-family="sans-serif" font-size="13" lengthAdjust="spacing" textLength="7" x="77.0781" y="390.5394">1</text><text fill="#000000" font-family="sans-serif" font-size="13" lengthAdjust="spacing" textLength="7" x="101.7305" y="445.0662">1</text></g><!--MD5=[407506bfc2554afae6922b3a15352bdc]
link ArrivalStore to Arrival--><g id="link_ArrivalStore_Arrival"><path codeLine="8" d="M131,574.21 C131,596.53 131,622.42 131,646.52 " fill="none" id="ArrivalStore-to-Arrival" style="stroke:#181818;stroke-width:1.0;"/><polygon fill="#181818" points="131,651.63,135,642.63,131,646.63,127,642.63,131,651.63" style="stroke:#181818;stroke-width:1.0;"/><text fill="#000000" font-family="sans-serif" font-size="13" lengthAdjust="spacing" textLength="36" x="132" y="618.4951">stores</text><text fill="#000000" font-family="sans-serif" font-size="13" lengthAdjust="spacing" textLength="7" x="123.5734" y="595.8911">1</text><text fill="#000000" font-family="sans-serif" font-size="13" lengthAdjust="spacing" textLength="5" x="125.7617" y="641.0214">*</text></g><!--MD5=[b08220c8493363332c95fcb6eed30838]
link WaitingRoomListController to ArrivalStore--><g id="link_WaitingRoomListController_ArrivalStore"><path codeLine="9" d="M159.53,234.06 C160.66,280.65 160.61,359.25 151,426 C149.85,433.96 148.36,442.27 146.71,450.47 " fill="none" id="WaitingRoomListController-to-ArrivalStore" style="stroke:#181818;stroke-width:1.0;stroke-dasharray:7.0,7.0;"/><polygon fill="#181818" points="145.66,455.55,151.4013,447.5476,146.6735,450.6538,143.5673,445.926,145.66,455.55" style="stroke:#181818;stroke-width:1.0;"/></g><!--MD5=[fa796d288d22653604b7559456a57840]
@startuml

WaitingRoomListUI ..> WaitingRoomListController
SelVaccinationCenterUI ..> SelVaccinationCenterController
WaitingRoomListUI ..> SelVaccinationCenterUI

WaitingRoomListController ..> Company
Company "1"- -> "1"ArrivalStore: adopts
ArrivalStore "1"- -> "*"Arrival:stores
WaitingRoomListController ..> "ArrivalStore"

class SelVaccinationCenterUI{
+getSelectedVC()
}

class SelVaccinationCenterController{
+SelVaccinationCenterController()
+exits()
}

class WaitingRoomListUI{
-ctrl
-vc
}

class WaitingRoomListController{
+getArrivals(vc)
+waitingRoomListing(arrivalList)
}

class Company{
+getArrivalStore()
}

class ArrivalStore{
+filterByVaccCentre(vc)
+orderByArrival()
+isEmpty()
+toString()
}

class Arrival{
-date
-time
-user
-vaccCenter
+getTime()
+getDate()
}


@enduml

PlantUML version 1.2022.4(Sat Apr 09 14:29:17 BST 2022)
(GPL source distribution)
Java Runtime: OpenJDK Runtime Environment
JVM: OpenJDK 64-Bit Server VM
Default Encoding: Cp1252
Language: pt
Country: PT
--></g></svg>