<?xml version="1.0" encoding="UTF-8" standalone="no"?><svg xmlns="http://www.w3.org/2000/svg" xmlns:xlink="http://www.w3.org/1999/xlink" contentStyleType="text/css" height="415px" preserveAspectRatio="none" style="width:309px;height:415px;background:#FFFFFF;" version="1.1" viewBox="0 0 309 415" width="309px" zoomAndPan="magnify"><defs/><g><rect fill="#FFFFFF" height="232.1641" style="stroke:#181818;stroke-width:1.0;" width="10" x="21.5" y="92.6094"/><rect fill="#FFFFFF" height="46.7031" style="stroke:#181818;stroke-width:1.0;" width="10" x="266.5" y="131.3125"/><rect fill="#FFFFFF" height="46.7031" style="stroke:#181818;stroke-width:1.0;" width="10" x="266.5" y="208.3672"/><rect fill="#FFFFFF" height="30.3516" style="stroke:#181818;stroke-width:1.0;" width="10" x="266.5" y="285.4219"/><line style="stroke:#181818;stroke-width:0.5;stroke-dasharray:5.0,5.0;" x1="26" x2="26" y1="82.6094" y2="333.7734"/><line style="stroke:#181818;stroke-width:0.5;stroke-dasharray:5.0,5.0;" x1="271.5" x2="271.5" y1="82.6094" y2="333.7734"/><text fill="#000000" font-family="sans-serif" font-size="14" lengthAdjust="spacing" textLength="37" x="5" y="79.5332">Nurse</text><ellipse cx="26.5" cy="13.5" fill="#E2E2F0" rx="8" ry="8" style="stroke:#181818;stroke-width:0.5;"/><path d="M26.5,21.5 L26.5,48.5 M13.5,29.5 L39.5,29.5 M26.5,48.5 L13.5,63.5 M26.5,48.5 L39.5,63.5 " fill="none" style="stroke:#181818;stroke-width:0.5;"/><text fill="#000000" font-family="sans-serif" font-size="14" lengthAdjust="spacing" textLength="37" x="5" y="347.3066">Nurse</text><ellipse cx="26.5" cy="358.8828" fill="#E2E2F0" rx="8" ry="8" style="stroke:#181818;stroke-width:0.5;"/><path d="M26.5,366.8828 L26.5,393.8828 M13.5,374.8828 L39.5,374.8828 M26.5,393.8828 L13.5,408.8828 M26.5,393.8828 L39.5,408.8828 " fill="none" style="stroke:#181818;stroke-width:0.5;"/><rect fill="#E2E2F0" height="31.6094" rx="2.5" ry="2.5" style="stroke:#181818;stroke-width:0.5;" width="64" x="239.5" y="50"/><text fill="#000000" font-family="sans-serif" font-size="14" lengthAdjust="spacing" textLength="50" x="246.5" y="71.5332">:System</text><rect fill="#E2E2F0" height="31.6094" rx="2.5" ry="2.5" style="stroke:#181818;stroke-width:0.5;" width="64" x="239.5" y="332.7734"/><text fill="#000000" font-family="sans-serif" font-size="14" lengthAdjust="spacing" textLength="50" x="246.5" y="354.3066">:System</text><rect fill="#FFFFFF" height="232.1641" style="stroke:#181818;stroke-width:1.0;" width="10" x="21.5" y="92.6094"/><rect fill="#FFFFFF" height="46.7031" style="stroke:#181818;stroke-width:1.0;" width="10" x="266.5" y="131.3125"/><rect fill="#FFFFFF" height="46.7031" style="stroke:#181818;stroke-width:1.0;" width="10" x="266.5" y="208.3672"/><rect fill="#FFFFFF" height="30.3516" style="stroke:#181818;stroke-width:1.0;" width="10" x="266.5" y="285.4219"/><polygon fill="#181818" points="254.5,127.3125,264.5,131.3125,254.5,135.3125,258.5,131.3125" style="stroke:#181818;stroke-width:1.0;"/><line style="stroke:#181818;stroke-width:1.0;" x1="31.5" x2="260.5" y1="131.3125" y2="131.3125"/><text fill="#000000" font-family="sans-serif" font-size="13" font-weight="bold" lengthAdjust="spacing" textLength="7" x="38.5" y="118.2803">1</text><text fill="#000000" font-family="sans-serif" font-size="13" lengthAdjust="spacing" textLength="189" x="49.5" y="110.1045">wants a list of SNS Users on the</text><text fill="#000000" font-family="sans-serif" font-size="13" lengthAdjust="spacing" textLength="73" x="49.5" y="126.4561">waiting room</text><polygon fill="#181818" points="42.5,174.0156,32.5,178.0156,42.5,182.0156,38.5,178.0156" style="stroke:#181818;stroke-width:1.0;"/><line style="stroke:#181818;stroke-width:1.0;stroke-dasharray:2.0,2.0;" x1="36.5" x2="270.5" y1="178.0156" y2="178.0156"/><text fill="#000000" font-family="sans-serif" font-size="13" font-weight="bold" lengthAdjust="spacing" textLength="7" x="48.5" y="164.9834">2</text><text fill="#000000" font-family="sans-serif" font-size="13" lengthAdjust="spacing" textLength="200" x="59.5" y="156.8076">asks confirmation about the centre</text><text fill="#000000" font-family="sans-serif" font-size="13" lengthAdjust="spacing" textLength="107" x="59.5" y="173.1592">the nurse works at</text><polygon fill="#181818" points="254.5,204.3672,264.5,208.3672,254.5,212.3672,258.5,208.3672" style="stroke:#181818;stroke-width:1.0;"/><line style="stroke:#181818;stroke-width:1.0;" x1="31.5" x2="260.5" y1="208.3672" y2="208.3672"/><text fill="#000000" font-family="sans-serif" font-size="13" font-weight="bold" lengthAdjust="spacing" textLength="7" x="38.5" y="203.5107">3</text><text fill="#000000" font-family="sans-serif" font-size="13" lengthAdjust="spacing" textLength="113" x="49.5" y="203.5107">confirms the Centre</text><polygon fill="#181818" points="42.5,251.0703,32.5,255.0703,42.5,259.0703,38.5,255.0703" style="stroke:#181818;stroke-width:1.0;"/><line style="stroke:#181818;stroke-width:1.0;stroke-dasharray:2.0,2.0;" x1="36.5" x2="270.5" y1="255.0703" y2="255.0703"/><text fill="#000000" font-family="sans-serif" font-size="13" font-weight="bold" lengthAdjust="spacing" textLength="7" x="48.5" y="242.0381">4</text><text fill="#000000" font-family="sans-serif" font-size="13" lengthAdjust="spacing" textLength="157" x="59.5" y="233.8623">shows the waiting room list</text><text fill="#000000" font-family="sans-serif" font-size="13" lengthAdjust="spacing" textLength="145" x="59.5" y="250.2139">and asks for confirmation</text><polygon fill="#181818" points="254.5,281.4219,264.5,285.4219,254.5,289.4219,258.5,285.4219" style="stroke:#181818;stroke-width:1.0;"/><line style="stroke:#181818;stroke-width:1.0;" x1="31.5" x2="260.5" y1="285.4219" y2="285.4219"/><text fill="#000000" font-family="sans-serif" font-size="13" font-weight="bold" lengthAdjust="spacing" textLength="7" x="38.5" y="280.5654">5</text><text fill="#000000" font-family="sans-serif" font-size="13" lengthAdjust="spacing" textLength="110" x="49.5" y="280.5654">confirms the action</text><polygon fill="#181818" points="42.5,311.7734,32.5,315.7734,42.5,319.7734,38.5,315.7734" style="stroke:#181818;stroke-width:1.0;"/><line style="stroke:#181818;stroke-width:1.0;stroke-dasharray:2.0,2.0;" x1="36.5" x2="270.5" y1="315.7734" y2="315.7734"/><text fill="#000000" font-family="sans-serif" font-size="13" font-weight="bold" lengthAdjust="spacing" textLength="7" x="48.5" y="310.917">6</text><text fill="#000000" font-family="sans-serif" font-size="13" lengthAdjust="spacing" textLength="188" x="59.5" y="310.917">informs about operation success</text><!--MD5=[fb8bac0a1de5cc7dd3e8dbd76bc5a7d3]
@startuml
'https://plantuml.com/sequence-diagram

autonumber

actor "Nurse" as N
activate N
N -> ":System" : wants a list of SNS Users on the\nwaiting room
activate ":System"

N <- - ":System": asks confirmation about the centre\nthe nurse works at
deactivate ":System"

N -> ":System" : confirms the Centre
activate ":System"

N <- - ":System": shows the waiting room list\nand asks for confirmation
deactivate ":System"

N -> ":System" : confirms the action
activate ":System"

N <- - ":System": informs about operation success
deactivate ":System"

@enduml

@startuml

autonumber

actor "Nurse" as N
activate N
N -> ":System" : wants a list of SNS Users on the\nwaiting room
activate ":System"

N <- - ":System": asks confirmation about the centre\nthe nurse works at
deactivate ":System"

N -> ":System" : confirms the Centre
activate ":System"

N <- - ":System": shows the waiting room list\nand asks for confirmation
deactivate ":System"

N -> ":System" : confirms the action
activate ":System"

N <- - ":System": informs about operation success
deactivate ":System"

@enduml

PlantUML version 1.2022.4(Sat Apr 09 14:29:17 BST 2022)
(GPL source distribution)
Java Runtime: OpenJDK Runtime Environment
JVM: OpenJDK 64-Bit Server VM
Default Encoding: Cp1252
Language: pt
Country: PT
--></g></svg>