<?xml version="1.0" encoding="UTF-8" standalone="no"?><svg xmlns="http://www.w3.org/2000/svg" xmlns:xlink="http://www.w3.org/1999/xlink" contentScriptType="application/ecmascript" contentStyleType="text/css" height="1705px" preserveAspectRatio="none" style="width:1225px;height:1705px;background:#FFFFFF;" version="1.1" viewBox="0 0 1225 1705" width="1225px" zoomAndPan="magnify"><defs><filter height="300%" id="f2zrfezofij21" width="300%" x="-1" y="-1"><feGaussianBlur result="blurOut" stdDeviation="2.0"/><feColorMatrix in="blurOut" result="blurOut2" type="matrix" values="0 0 0 0 0 0 0 0 0 0 0 0 0 0 0 0 0 0 .4 0"/><feOffset dx="4.0" dy="4.0" in="blurOut2" result="blurOut3"/><feBlend in="SourceGraphic" in2="blurOut3" mode="normal"/></filter></defs><g><!--MD5=[4f19d3057fb900cadb2cfb67b6fb36c5]
class comp--><rect codeLine="1" fill="#FEFECE" filter="url(#f2zrfezofij21)" height="61.8359" id="comp" style="stroke:#A80036;stroke-width:1.5;" width="85" x="956" y="7"/><ellipse cx="971" cy="23" fill="#ADD1B2" rx="11" ry="11" style="stroke:#A80036;stroke-width:1.0;"/><path d="M973,19.5 Q973.2031,19 973.4375,18.75 Q973.6719,18.5 973.9375,18.5 Q974.4063,18.5 974.7031,18.7813 Q975,19.0625 975,19.7188 L975,21.2813 Q975,21.9375 974.7188,22.2188 Q974.4375,22.5 974,22.5 Q973.6094,22.5 973.3594,22.3281 Q973.1094,22.1563 973,21.7031 Q972.9531,21.3906 972.7813,21.2188 Q972.4688,20.8906 971.9063,20.7031 Q971.3438,20.5 970.7813,20.5 Q970.0781,20.5 969.4844,20.7813 Q968.9063,21.0625 968.4531,21.6875 Q968,22.3125 968,23.1719 L968,24.0938 Q968,25.125 968.8438,25.8125 Q969.6875,26.5 971.1875,26.5 Q972.0781,26.5 972.7031,26.2969 Q973.0625,26.1875 973.4688,25.8281 Q973.7344,25.625 973.875,25.5625 Q974.0156,25.5 974.1875,25.5 Q974.5156,25.5 974.75,25.7656 Q975,26.0156 975,26.375 Q975,26.7188 974.6563,27.125 Q974.1563,27.7188 973.3594,28.0469 Q972.3125,28.5 971.0313,28.5 Q969.5313,28.5 968.3281,27.9063 Q967.3594,27.4375 966.6719,26.4219 Q966,25.4063 966,24.2031 L966,23.1094 Q966,21.8594 966.5938,20.7656 Q967.2031,19.6719 968.25,19.0938 Q969.3125,18.5 970.5,18.5 Q971.2188,18.5 971.8438,18.75 Q972.4688,19 973,19.5 Z " fill="#000000"/><text fill="#000000" font-family="sans-serif" font-size="12" lengthAdjust="spacing" textLength="53" x="985" y="27.9102">Company</text><line style="stroke:#A80036;stroke-width:1.5;" x1="957" x2="1040" y1="39" y2="39"/><rect fill="none" height="6" style="stroke:#C82930;stroke-width:1.0;" width="6" x="964" y="47"/><text fill="#000000" font-family="sans-serif" font-size="11" lengthAdjust="spacing" textLength="55" x="976" y="54.4189">designation</text><line style="stroke:#A80036;stroke-width:1.5;" x1="957" x2="1040" y1="60.8359" y2="60.8359"/><!--MD5=[54d0f7ca6f9898010b87b67e67e7a5e0]
class E--><rect codeLine="5" fill="#FEFECE" filter="url(#f2zrfezofij21)" height="131.0156" id="E" style="stroke:#A80036;stroke-width:1.5;" width="96" x="776.5" y="147"/><ellipse cx="795.55" cy="163" fill="#ADD1B2" rx="11" ry="11" style="stroke:#A80036;stroke-width:1.0;"/><path d="M797.55,159.5 Q797.7531,159 797.9875,158.75 Q798.2219,158.5 798.4875,158.5 Q798.9563,158.5 799.2531,158.7813 Q799.55,159.0625 799.55,159.7188 L799.55,161.2813 Q799.55,161.9375 799.2688,162.2188 Q798.9875,162.5 798.55,162.5 Q798.1594,162.5 797.9094,162.3281 Q797.6594,162.1563 797.55,161.7031 Q797.5031,161.3906 797.3313,161.2188 Q797.0188,160.8906 796.4563,160.7031 Q795.8938,160.5 795.3313,160.5 Q794.6281,160.5 794.0344,160.7813 Q793.4563,161.0625 793.0031,161.6875 Q792.55,162.3125 792.55,163.1719 L792.55,164.0938 Q792.55,165.125 793.3938,165.8125 Q794.2375,166.5 795.7375,166.5 Q796.6281,166.5 797.2531,166.2969 Q797.6125,166.1875 798.0188,165.8281 Q798.2844,165.625 798.425,165.5625 Q798.5656,165.5 798.7375,165.5 Q799.0656,165.5 799.3,165.7656 Q799.55,166.0156 799.55,166.375 Q799.55,166.7188 799.2063,167.125 Q798.7063,167.7188 797.9094,168.0469 Q796.8625,168.5 795.5813,168.5 Q794.0813,168.5 792.8781,167.9063 Q791.9094,167.4375 791.2219,166.4219 Q790.55,165.4063 790.55,164.2031 L790.55,163.1094 Q790.55,161.8594 791.1438,160.7656 Q791.7531,159.6719 792.8,159.0938 Q793.8625,158.5 795.05,158.5 Q795.7688,158.5 796.3938,158.75 Q797.0188,159 797.55,159.5 Z " fill="#000000"/><text fill="#000000" font-family="sans-serif" font-size="12" lengthAdjust="spacing" textLength="55" x="810.45" y="167.9102">Employee</text><line style="stroke:#A80036;stroke-width:1.5;" x1="777.5" x2="871.5" y1="179" y2="179"/><rect fill="none" height="6" style="stroke:#C82930;stroke-width:1.0;" width="6" x="784.5" y="187"/><text fill="#000000" font-family="sans-serif" font-size="11" lengthAdjust="spacing" textLength="27" x="796.5" y="194.4189">Name</text><rect fill="none" height="6" style="stroke:#C82930;stroke-width:1.0;" width="6" x="784.5" y="200.8359"/><text fill="#000000" font-family="sans-serif" font-size="11" lengthAdjust="spacing" textLength="57" x="796.5" y="208.2549">Employee id</text><rect fill="none" height="6" style="stroke:#C82930;stroke-width:1.0;" width="6" x="784.5" y="214.6719"/><text fill="#000000" font-family="sans-serif" font-size="11" lengthAdjust="spacing" textLength="42" x="796.5" y="222.0908">Address</text><rect fill="none" height="6" style="stroke:#C82930;stroke-width:1.0;" width="6" x="784.5" y="228.5078"/><text fill="#000000" font-family="sans-serif" font-size="11" lengthAdjust="spacing" textLength="70" x="796.5" y="235.9268">Phone Number</text><rect fill="none" height="6" style="stroke:#C82930;stroke-width:1.0;" width="6" x="784.5" y="242.3438"/><text fill="#000000" font-family="sans-serif" font-size="11" lengthAdjust="spacing" textLength="24" x="796.5" y="249.7627">Email</text><rect fill="none" height="6" style="stroke:#C82930;stroke-width:1.0;" width="6" x="784.5" y="256.1797"/><text fill="#000000" font-family="sans-serif" font-size="11" lengthAdjust="spacing" textLength="14" x="796.5" y="263.5986">CC</text><line style="stroke:#A80036;stroke-width:1.5;" x1="777.5" x2="871.5" y1="270.0156" y2="270.0156"/><!--MD5=[da547346deef918ea16944ba046651ef]
class Administrator--><rect codeLine="14" fill="#FEFECE" filter="url(#f2zrfezofij21)" height="48" id="Administrator" style="stroke:#A80036;stroke-width:1.5;" width="105" x="771" y="356"/><ellipse cx="786" cy="372" fill="#ADD1B2" rx="11" ry="11" style="stroke:#A80036;stroke-width:1.0;"/><path d="M788,368.5 Q788.2031,368 788.4375,367.75 Q788.6719,367.5 788.9375,367.5 Q789.4063,367.5 789.7031,367.7813 Q790,368.0625 790,368.7188 L790,370.2813 Q790,370.9375 789.7188,371.2188 Q789.4375,371.5 789,371.5 Q788.6094,371.5 788.3594,371.3281 Q788.1094,371.1563 788,370.7031 Q787.9531,370.3906 787.7813,370.2188 Q787.4688,369.8906 786.9063,369.7031 Q786.3438,369.5 785.7813,369.5 Q785.0781,369.5 784.4844,369.7813 Q783.9063,370.0625 783.4531,370.6875 Q783,371.3125 783,372.1719 L783,373.0938 Q783,374.125 783.8438,374.8125 Q784.6875,375.5 786.1875,375.5 Q787.0781,375.5 787.7031,375.2969 Q788.0625,375.1875 788.4688,374.8281 Q788.7344,374.625 788.875,374.5625 Q789.0156,374.5 789.1875,374.5 Q789.5156,374.5 789.75,374.7656 Q790,375.0156 790,375.375 Q790,375.7188 789.6563,376.125 Q789.1563,376.7188 788.3594,377.0469 Q787.3125,377.5 786.0313,377.5 Q784.5313,377.5 783.3281,376.9063 Q782.3594,376.4375 781.6719,375.4219 Q781,374.4063 781,373.2031 L781,372.1094 Q781,370.8594 781.5938,369.7656 Q782.2031,368.6719 783.25,368.0938 Q784.3125,367.5 785.5,367.5 Q786.2188,367.5 786.8438,367.75 Q787.4688,368 788,368.5 Z " fill="#000000"/><text fill="#000000" font-family="sans-serif" font-size="12" lengthAdjust="spacing" textLength="73" x="800" y="376.9102">Administrator</text><line style="stroke:#A80036;stroke-width:1.5;" x1="772" x2="875" y1="388" y2="388"/><line style="stroke:#A80036;stroke-width:1.5;" x1="772" x2="875" y1="396" y2="396"/><!--MD5=[03960189e81aa2c066c762ffabbee709]
class Receptionist--><rect codeLine="16" fill="#FEFECE" filter="url(#f2zrfezofij21)" height="48" id="Receptionist" style="stroke:#A80036;stroke-width:1.5;" width="101" x="478" y="1048"/><ellipse cx="493" cy="1064" fill="#ADD1B2" rx="11" ry="11" style="stroke:#A80036;stroke-width:1.0;"/><path d="M495,1060.5 Q495.2031,1060 495.4375,1059.75 Q495.6719,1059.5 495.9375,1059.5 Q496.4063,1059.5 496.7031,1059.7813 Q497,1060.0625 497,1060.7188 L497,1062.2813 Q497,1062.9375 496.7188,1063.2188 Q496.4375,1063.5 496,1063.5 Q495.6094,1063.5 495.3594,1063.3281 Q495.1094,1063.1563 495,1062.7031 Q494.9531,1062.3906 494.7813,1062.2188 Q494.4688,1061.8906 493.9063,1061.7031 Q493.3438,1061.5 492.7813,1061.5 Q492.0781,1061.5 491.4844,1061.7813 Q490.9063,1062.0625 490.4531,1062.6875 Q490,1063.3125 490,1064.1719 L490,1065.0938 Q490,1066.125 490.8438,1066.8125 Q491.6875,1067.5 493.1875,1067.5 Q494.0781,1067.5 494.7031,1067.2969 Q495.0625,1067.1875 495.4688,1066.8281 Q495.7344,1066.625 495.875,1066.5625 Q496.0156,1066.5 496.1875,1066.5 Q496.5156,1066.5 496.75,1066.7656 Q497,1067.0156 497,1067.375 Q497,1067.7188 496.6563,1068.125 Q496.1563,1068.7188 495.3594,1069.0469 Q494.3125,1069.5 493.0313,1069.5 Q491.5313,1069.5 490.3281,1068.9063 Q489.3594,1068.4375 488.6719,1067.4219 Q488,1066.4063 488,1065.2031 L488,1064.1094 Q488,1062.8594 488.5938,1061.7656 Q489.2031,1060.6719 490.25,1060.0938 Q491.3125,1059.5 492.5,1059.5 Q493.2188,1059.5 493.8438,1059.75 Q494.4688,1060 495,1060.5 Z " fill="#000000"/><text fill="#000000" font-family="sans-serif" font-size="12" lengthAdjust="spacing" textLength="69" x="507" y="1068.9102">Receptionist</text><line style="stroke:#A80036;stroke-width:1.5;" x1="479" x2="578" y1="1080" y2="1080"/><line style="stroke:#A80036;stroke-width:1.5;" x1="479" x2="578" y1="1088" y2="1088"/><!--MD5=[93f9a46aa399a40d232217cf97733770]
class coordinator--><rect codeLine="18" fill="#FEFECE" filter="url(#f2zrfezofij21)" height="48" id="coordinator" style="stroke:#A80036;stroke-width:1.5;" width="137" x="975" y="434"/><ellipse cx="990" cy="450" fill="#ADD1B2" rx="11" ry="11" style="stroke:#A80036;stroke-width:1.0;"/><path d="M992,446.5 Q992.2031,446 992.4375,445.75 Q992.6719,445.5 992.9375,445.5 Q993.4063,445.5 993.7031,445.7813 Q994,446.0625 994,446.7188 L994,448.2813 Q994,448.9375 993.7188,449.2188 Q993.4375,449.5 993,449.5 Q992.6094,449.5 992.3594,449.3281 Q992.1094,449.1563 992,448.7031 Q991.9531,448.3906 991.7813,448.2188 Q991.4688,447.8906 990.9063,447.7031 Q990.3438,447.5 989.7813,447.5 Q989.0781,447.5 988.4844,447.7813 Q987.9063,448.0625 987.4531,448.6875 Q987,449.3125 987,450.1719 L987,451.0938 Q987,452.125 987.8438,452.8125 Q988.6875,453.5 990.1875,453.5 Q991.0781,453.5 991.7031,453.2969 Q992.0625,453.1875 992.4688,452.8281 Q992.7344,452.625 992.875,452.5625 Q993.0156,452.5 993.1875,452.5 Q993.5156,452.5 993.75,452.7656 Q994,453.0156 994,453.375 Q994,453.7188 993.6563,454.125 Q993.1563,454.7188 992.3594,455.0469 Q991.3125,455.5 990.0313,455.5 Q988.5313,455.5 987.3281,454.9063 Q986.3594,454.4375 985.6719,453.4219 Q985,452.4063 985,451.2031 L985,450.1094 Q985,448.8594 985.5938,447.7656 Q986.2031,446.6719 987.25,446.0938 Q988.3125,445.5 989.5,445.5 Q990.2188,445.5 990.8438,445.75 Q991.4688,446 992,446.5 Z " fill="#000000"/><text fill="#000000" font-family="sans-serif" font-size="12" lengthAdjust="spacing" textLength="105" x="1004" y="454.9102">Center Coordinator</text><line style="stroke:#A80036;stroke-width:1.5;" x1="976" x2="1111" y1="466" y2="466"/><line style="stroke:#A80036;stroke-width:1.5;" x1="976" x2="1111" y1="474" y2="474"/><!--MD5=[e59cf999063292dce8d6ea34dd10a338]
class user--><rect codeLine="20" fill="#FEFECE" filter="url(#f2zrfezofij21)" height="144.8516" id="user" style="stroke:#A80036;stroke-width:1.5;" width="96" x="321.5" y="1211"/><ellipse cx="340.55" cy="1227" fill="#ADD1B2" rx="11" ry="11" style="stroke:#A80036;stroke-width:1.0;"/><path d="M342.55,1223.5 Q342.7531,1223 342.9875,1222.75 Q343.2219,1222.5 343.4875,1222.5 Q343.9563,1222.5 344.2531,1222.7813 Q344.55,1223.0625 344.55,1223.7188 L344.55,1225.2813 Q344.55,1225.9375 344.2688,1226.2188 Q343.9875,1226.5 343.55,1226.5 Q343.1594,1226.5 342.9094,1226.3281 Q342.6594,1226.1563 342.55,1225.7031 Q342.5031,1225.3906 342.3313,1225.2188 Q342.0188,1224.8906 341.4563,1224.7031 Q340.8938,1224.5 340.3313,1224.5 Q339.6281,1224.5 339.0344,1224.7813 Q338.4563,1225.0625 338.0031,1225.6875 Q337.55,1226.3125 337.55,1227.1719 L337.55,1228.0938 Q337.55,1229.125 338.3938,1229.8125 Q339.2375,1230.5 340.7375,1230.5 Q341.6281,1230.5 342.2531,1230.2969 Q342.6125,1230.1875 343.0188,1229.8281 Q343.2844,1229.625 343.425,1229.5625 Q343.5656,1229.5 343.7375,1229.5 Q344.0656,1229.5 344.3,1229.7656 Q344.55,1230.0156 344.55,1230.375 Q344.55,1230.7188 344.2063,1231.125 Q343.7063,1231.7188 342.9094,1232.0469 Q341.8625,1232.5 340.5813,1232.5 Q339.0813,1232.5 337.8781,1231.9063 Q336.9094,1231.4375 336.2219,1230.4219 Q335.55,1229.4063 335.55,1228.2031 L335.55,1227.1094 Q335.55,1225.8594 336.1438,1224.7656 Q336.7531,1223.6719 337.8,1223.0938 Q338.8625,1222.5 340.05,1222.5 Q340.7688,1222.5 341.3938,1222.75 Q342.0188,1223 342.55,1223.5 Z " fill="#000000"/><text fill="#000000" font-family="sans-serif" font-size="12" lengthAdjust="spacing" textLength="55" x="355.45" y="1231.9102">SNS User</text><line style="stroke:#A80036;stroke-width:1.5;" x1="322.5" x2="416.5" y1="1243" y2="1243"/><rect fill="none" height="6" style="stroke:#C82930;stroke-width:1.0;" width="6" x="329.5" y="1251"/><text fill="#000000" font-family="sans-serif" font-size="11" lengthAdjust="spacing" textLength="27" x="341.5" y="1258.4189">Name</text><rect fill="none" height="6" style="stroke:#C82930;stroke-width:1.0;" width="6" x="329.5" y="1264.8359"/><text fill="#000000" font-family="sans-serif" font-size="11" lengthAdjust="spacing" textLength="70" x="341.5" y="1272.2549">Phone Number</text><rect fill="none" height="6" style="stroke:#C82930;stroke-width:1.0;" width="6" x="329.5" y="1278.6719"/><text fill="#000000" font-family="sans-serif" font-size="11" lengthAdjust="spacing" textLength="24" x="341.5" y="1286.0908">Email</text><rect fill="none" height="6" style="stroke:#C82930;stroke-width:1.0;" width="6" x="329.5" y="1292.5078"/><text fill="#000000" font-family="sans-serif" font-size="11" lengthAdjust="spacing" textLength="54" x="341.5" y="1299.9268">CC Number</text><rect fill="none" height="6" style="stroke:#C82930;stroke-width:1.0;" width="6" x="329.5" y="1306.3438"/><text fill="#000000" font-family="sans-serif" font-size="11" lengthAdjust="spacing" textLength="61" x="341.5" y="1313.7627">SNS Number</text><rect fill="none" height="6" style="stroke:#C82930;stroke-width:1.0;" width="6" x="329.5" y="1320.1797"/><text fill="#000000" font-family="sans-serif" font-size="11" lengthAdjust="spacing" textLength="42" x="341.5" y="1327.5986">Address</text><rect fill="none" height="6" style="stroke:#C82930;stroke-width:1.0;" width="6" x="329.5" y="1334.0156"/><text fill="#000000" font-family="sans-serif" font-size="11" lengthAdjust="spacing" textLength="44" x="341.5" y="1341.4346">BirthDate</text><line style="stroke:#A80036;stroke-width:1.5;" x1="322.5" x2="416.5" y1="1347.8516" y2="1347.8516"/><!--MD5=[45ef620d0feba9a8beefe3954d1361b6]
class VC--><rect codeLine="29" fill="#FEFECE" filter="url(#f2zrfezofij21)" height="186.3594" id="VC" style="stroke:#A80036;stroke-width:1.5;" width="135" x="877" y="763"/><ellipse cx="892" cy="779" fill="#ADD1B2" rx="11" ry="11" style="stroke:#A80036;stroke-width:1.0;"/><path d="M894,775.5 Q894.2031,775 894.4375,774.75 Q894.6719,774.5 894.9375,774.5 Q895.4063,774.5 895.7031,774.7813 Q896,775.0625 896,775.7188 L896,777.2813 Q896,777.9375 895.7188,778.2188 Q895.4375,778.5 895,778.5 Q894.6094,778.5 894.3594,778.3281 Q894.1094,778.1563 894,777.7031 Q893.9531,777.3906 893.7813,777.2188 Q893.4688,776.8906 892.9063,776.7031 Q892.3438,776.5 891.7813,776.5 Q891.0781,776.5 890.4844,776.7813 Q889.9063,777.0625 889.4531,777.6875 Q889,778.3125 889,779.1719 L889,780.0938 Q889,781.125 889.8438,781.8125 Q890.6875,782.5 892.1875,782.5 Q893.0781,782.5 893.7031,782.2969 Q894.0625,782.1875 894.4688,781.8281 Q894.7344,781.625 894.875,781.5625 Q895.0156,781.5 895.1875,781.5 Q895.5156,781.5 895.75,781.7656 Q896,782.0156 896,782.375 Q896,782.7188 895.6563,783.125 Q895.1563,783.7188 894.3594,784.0469 Q893.3125,784.5 892.0313,784.5 Q890.5313,784.5 889.3281,783.9063 Q888.3594,783.4375 887.6719,782.4219 Q887,781.4063 887,780.2031 L887,779.1094 Q887,777.8594 887.5938,776.7656 Q888.2031,775.6719 889.25,775.0938 Q890.3125,774.5 891.5,774.5 Q892.2188,774.5 892.8438,774.75 Q893.4688,775 894,775.5 Z " fill="#000000"/><text fill="#000000" font-family="sans-serif" font-size="12" lengthAdjust="spacing" textLength="103" x="906" y="783.9102">Vaccination Center</text><line style="stroke:#A80036;stroke-width:1.5;" x1="878" x2="1011" y1="795" y2="795"/><rect fill="none" height="6" style="stroke:#C82930;stroke-width:1.0;" width="6" x="885" y="803"/><text fill="#000000" font-family="sans-serif" font-size="11" lengthAdjust="spacing" textLength="27" x="897" y="810.4189">Name</text><rect fill="none" height="6" style="stroke:#C82930;stroke-width:1.0;" width="6" x="885" y="816.8359"/><text fill="#000000" font-family="sans-serif" font-size="11" lengthAdjust="spacing" textLength="42" x="897" y="824.2549">Address</text><rect fill="none" height="6" style="stroke:#C82930;stroke-width:1.0;" width="6" x="885" y="830.6719"/><text fill="#000000" font-family="sans-serif" font-size="11" lengthAdjust="spacing" textLength="70" x="897" y="838.0908">Phone Number</text><rect fill="none" height="6" style="stroke:#C82930;stroke-width:1.0;" width="6" x="885" y="844.5078"/><text fill="#000000" font-family="sans-serif" font-size="11" lengthAdjust="spacing" textLength="28" x="897" y="851.9268">E-mail</text><rect fill="none" height="6" style="stroke:#C82930;stroke-width:1.0;" width="6" x="885" y="858.3438"/><text fill="#000000" font-family="sans-serif" font-size="11" lengthAdjust="spacing" textLength="58" x="897" y="865.7627">Fax Number</text><rect fill="none" height="6" style="stroke:#C82930;stroke-width:1.0;" width="6" x="885" y="872.1797"/><text fill="#000000" font-family="sans-serif" font-size="11" lengthAdjust="spacing" textLength="19" x="897" y="879.5986">Link</text><rect fill="none" height="6" style="stroke:#C82930;stroke-width:1.0;" width="6" x="885" y="886.0156"/><text fill="#000000" font-family="sans-serif" font-size="11" lengthAdjust="spacing" textLength="72" x="897" y="893.4346">Opening Hours</text><rect fill="none" height="6" style="stroke:#C82930;stroke-width:1.0;" width="6" x="885" y="899.8516"/><text fill="#000000" font-family="sans-serif" font-size="11" lengthAdjust="spacing" textLength="67" x="897" y="907.2705">Closing Hours</text><rect fill="none" height="6" style="stroke:#C82930;stroke-width:1.0;" width="6" x="885" y="913.6875"/><text fill="#000000" font-family="sans-serif" font-size="11" lengthAdjust="spacing" textLength="61" x="897" y="921.1064">Slot Duration</text><rect fill="none" height="6" style="stroke:#C82930;stroke-width:1.0;" width="6" x="885" y="927.5234"/><text fill="#000000" font-family="sans-serif" font-size="11" lengthAdjust="spacing" textLength="108" x="897" y="934.9424">Max Vaccines per slot</text><line style="stroke:#A80036;stroke-width:1.5;" x1="878" x2="1011" y1="941.3594" y2="941.3594"/><!--MD5=[726eef0e889f442cbf1ef79b3ba0280a]
class HCC--><rect codeLine="41" fill="#FEFECE" filter="url(#f2zrfezofij21)" height="172.5234" id="HCC" style="stroke:#A80036;stroke-width:1.5;" width="138" x="632.5" y="512"/><ellipse cx="647.5" cy="528" fill="#ADD1B2" rx="11" ry="11" style="stroke:#A80036;stroke-width:1.0;"/><path d="M649.5,524.5 Q649.7031,524 649.9375,523.75 Q650.1719,523.5 650.4375,523.5 Q650.9063,523.5 651.2031,523.7813 Q651.5,524.0625 651.5,524.7188 L651.5,526.2813 Q651.5,526.9375 651.2188,527.2188 Q650.9375,527.5 650.5,527.5 Q650.1094,527.5 649.8594,527.3281 Q649.6094,527.1563 649.5,526.7031 Q649.4531,526.3906 649.2813,526.2188 Q648.9688,525.8906 648.4063,525.7031 Q647.8438,525.5 647.2813,525.5 Q646.5781,525.5 645.9844,525.7813 Q645.4063,526.0625 644.9531,526.6875 Q644.5,527.3125 644.5,528.1719 L644.5,529.0938 Q644.5,530.125 645.3438,530.8125 Q646.1875,531.5 647.6875,531.5 Q648.5781,531.5 649.2031,531.2969 Q649.5625,531.1875 649.9688,530.8281 Q650.2344,530.625 650.375,530.5625 Q650.5156,530.5 650.6875,530.5 Q651.0156,530.5 651.25,530.7656 Q651.5,531.0156 651.5,531.375 Q651.5,531.7188 651.1563,532.125 Q650.6563,532.7188 649.8594,533.0469 Q648.8125,533.5 647.5313,533.5 Q646.0313,533.5 644.8281,532.9063 Q643.8594,532.4375 643.1719,531.4219 Q642.5,530.4063 642.5,529.2031 L642.5,528.1094 Q642.5,526.8594 643.0938,525.7656 Q643.7031,524.6719 644.75,524.0938 Q645.8125,523.5 647,523.5 Q647.7188,523.5 648.3438,523.75 Q648.9688,524 649.5,524.5 Z " fill="#000000"/><text fill="#000000" font-family="sans-serif" font-size="12" lengthAdjust="spacing" textLength="106" x="661.5" y="532.9102">Health Care Center</text><line style="stroke:#A80036;stroke-width:1.5;" x1="633.5" x2="769.5" y1="544" y2="544"/><rect fill="none" height="6" style="stroke:#C82930;stroke-width:1.0;" width="6" x="640.5" y="552"/><text fill="#000000" font-family="sans-serif" font-size="11" lengthAdjust="spacing" textLength="27" x="652.5" y="559.4189">Name</text><rect fill="none" height="6" style="stroke:#C82930;stroke-width:1.0;" width="6" x="640.5" y="565.8359"/><text fill="#000000" font-family="sans-serif" font-size="11" lengthAdjust="spacing" textLength="42" x="652.5" y="573.2549">Address</text><rect fill="none" height="6" style="stroke:#C82930;stroke-width:1.0;" width="6" x="640.5" y="579.6719"/><text fill="#000000" font-family="sans-serif" font-size="11" lengthAdjust="spacing" textLength="70" x="652.5" y="587.0908">Phone Number</text><rect fill="none" height="6" style="stroke:#C82930;stroke-width:1.0;" width="6" x="640.5" y="593.5078"/><text fill="#000000" font-family="sans-serif" font-size="11" lengthAdjust="spacing" textLength="28" x="652.5" y="600.9268">E-mail</text><rect fill="none" height="6" style="stroke:#C82930;stroke-width:1.0;" width="6" x="640.5" y="607.3438"/><text fill="#000000" font-family="sans-serif" font-size="11" lengthAdjust="spacing" textLength="58" x="652.5" y="614.7627">Fax Number</text><rect fill="none" height="6" style="stroke:#C82930;stroke-width:1.0;" width="6" x="640.5" y="621.1797"/><text fill="#000000" font-family="sans-serif" font-size="11" lengthAdjust="spacing" textLength="19" x="652.5" y="628.5986">Link</text><rect fill="none" height="6" style="stroke:#C82930;stroke-width:1.0;" width="6" x="640.5" y="635.0156"/><text fill="#000000" font-family="sans-serif" font-size="11" lengthAdjust="spacing" textLength="72" x="652.5" y="642.4346">Opening Hours</text><rect fill="none" height="6" style="stroke:#C82930;stroke-width:1.0;" width="6" x="640.5" y="648.8516"/><text fill="#000000" font-family="sans-serif" font-size="11" lengthAdjust="spacing" textLength="67" x="652.5" y="656.2705">Closing Hours</text><rect fill="none" height="6" style="stroke:#C82930;stroke-width:1.0;" width="6" x="640.5" y="662.6875"/><text fill="#000000" font-family="sans-serif" font-size="11" lengthAdjust="spacing" textLength="108" x="652.5" y="670.1064">Max Vaccines per slot</text><line style="stroke:#A80036;stroke-width:1.5;" x1="633.5" x2="769.5" y1="676.5234" y2="676.5234"/><!--MD5=[19e445fc4d3b48519cbe33da05496394]
class Vaccine--><rect codeLine="52" fill="#FEFECE" filter="url(#f2zrfezofij21)" height="89.5078" id="Vaccine" style="stroke:#A80036;stroke-width:1.5;" width="138" x="965.5" y="1602"/><ellipse cx="1008.85" cy="1618" fill="#ADD1B2" rx="11" ry="11" style="stroke:#A80036;stroke-width:1.0;"/><path d="M1010.85,1614.5 Q1011.0531,1614 1011.2875,1613.75 Q1011.5219,1613.5 1011.7875,1613.5 Q1012.2563,1613.5 1012.5531,1613.7813 Q1012.85,1614.0625 1012.85,1614.7188 L1012.85,1616.2813 Q1012.85,1616.9375 1012.5688,1617.2188 Q1012.2875,1617.5 1011.85,1617.5 Q1011.4594,1617.5 1011.2094,1617.3281 Q1010.9594,1617.1563 1010.85,1616.7031 Q1010.8031,1616.3906 1010.6313,1616.2188 Q1010.3188,1615.8906 1009.7563,1615.7031 Q1009.1938,1615.5 1008.6313,1615.5 Q1007.9281,1615.5 1007.3344,1615.7813 Q1006.7563,1616.0625 1006.3031,1616.6875 Q1005.85,1617.3125 1005.85,1618.1719 L1005.85,1619.0938 Q1005.85,1620.125 1006.6938,1620.8125 Q1007.5375,1621.5 1009.0375,1621.5 Q1009.9281,1621.5 1010.5531,1621.2969 Q1010.9125,1621.1875 1011.3188,1620.8281 Q1011.5844,1620.625 1011.725,1620.5625 Q1011.8656,1620.5 1012.0375,1620.5 Q1012.3656,1620.5 1012.6,1620.7656 Q1012.85,1621.0156 1012.85,1621.375 Q1012.85,1621.7188 1012.5063,1622.125 Q1012.0063,1622.7188 1011.2094,1623.0469 Q1010.1625,1623.5 1008.8813,1623.5 Q1007.3813,1623.5 1006.1781,1622.9063 Q1005.2094,1622.4375 1004.5219,1621.4219 Q1003.85,1620.4063 1003.85,1619.2031 L1003.85,1618.1094 Q1003.85,1616.8594 1004.4438,1615.7656 Q1005.0531,1614.6719 1006.1,1614.0938 Q1007.1625,1613.5 1008.35,1613.5 Q1009.0688,1613.5 1009.6938,1613.75 Q1010.3188,1614 1010.85,1614.5 Z " fill="#000000"/><text fill="#000000" font-family="sans-serif" font-size="12" lengthAdjust="spacing" textLength="43" x="1029.15" y="1622.9102">Vaccine</text><line style="stroke:#A80036;stroke-width:1.5;" x1="966.5" x2="1102.5" y1="1634" y2="1634"/><rect fill="none" height="6" style="stroke:#C82930;stroke-width:1.0;" width="6" x="973.5" y="1642"/><text fill="#000000" font-family="sans-serif" font-size="11" lengthAdjust="spacing" textLength="112" x="985.5" y="1649.4189">Manufacturer company</text><rect fill="none" height="6" style="stroke:#C82930;stroke-width:1.0;" width="6" x="973.5" y="1655.8359"/><text fill="#000000" font-family="sans-serif" font-size="11" lengthAdjust="spacing" textLength="92" x="985.5" y="1663.2549">Vaccine Properties</text><rect fill="none" height="6" style="stroke:#C82930;stroke-width:1.0;" width="6" x="973.5" y="1669.6719"/><text fill="#000000" font-family="sans-serif" font-size="11" lengthAdjust="spacing" textLength="111" x="985.5" y="1677.0908">Administration Process</text><line style="stroke:#A80036;stroke-width:1.5;" x1="966.5" x2="1102.5" y1="1683.5078" y2="1683.5078"/><!--MD5=[857a356b9e77f83de603e0318f36b735]
class type--><rect codeLine="57" fill="#FEFECE" filter="url(#f2zrfezofij21)" height="89.5078" id="type" style="stroke:#A80036;stroke-width:1.5;" width="117" x="795" y="1434"/><ellipse cx="810" cy="1450" fill="#ADD1B2" rx="11" ry="11" style="stroke:#A80036;stroke-width:1.0;"/><path d="M812,1446.5 Q812.2031,1446 812.4375,1445.75 Q812.6719,1445.5 812.9375,1445.5 Q813.4063,1445.5 813.7031,1445.7813 Q814,1446.0625 814,1446.7188 L814,1448.2813 Q814,1448.9375 813.7188,1449.2188 Q813.4375,1449.5 813,1449.5 Q812.6094,1449.5 812.3594,1449.3281 Q812.1094,1449.1563 812,1448.7031 Q811.9531,1448.3906 811.7813,1448.2188 Q811.4688,1447.8906 810.9063,1447.7031 Q810.3438,1447.5 809.7813,1447.5 Q809.0781,1447.5 808.4844,1447.7813 Q807.9063,1448.0625 807.4531,1448.6875 Q807,1449.3125 807,1450.1719 L807,1451.0938 Q807,1452.125 807.8438,1452.8125 Q808.6875,1453.5 810.1875,1453.5 Q811.0781,1453.5 811.7031,1453.2969 Q812.0625,1453.1875 812.4688,1452.8281 Q812.7344,1452.625 812.875,1452.5625 Q813.0156,1452.5 813.1875,1452.5 Q813.5156,1452.5 813.75,1452.7656 Q814,1453.0156 814,1453.375 Q814,1453.7188 813.6563,1454.125 Q813.1563,1454.7188 812.3594,1455.0469 Q811.3125,1455.5 810.0313,1455.5 Q808.5313,1455.5 807.3281,1454.9063 Q806.3594,1454.4375 805.6719,1453.4219 Q805,1452.4063 805,1451.2031 L805,1450.1094 Q805,1448.8594 805.5938,1447.7656 Q806.2031,1446.6719 807.25,1446.0938 Q808.3125,1445.5 809.5,1445.5 Q810.2188,1445.5 810.8438,1445.75 Q811.4688,1446 812,1446.5 Z " fill="#000000"/><text fill="#000000" font-family="sans-serif" font-size="12" lengthAdjust="spacing" textLength="85" x="824" y="1454.9102">Type of Vaccine</text><line style="stroke:#A80036;stroke-width:1.5;" x1="796" x2="911" y1="1466" y2="1466"/><rect fill="none" height="6" style="stroke:#C82930;stroke-width:1.0;" width="6" x="803" y="1474"/><text fill="#000000" font-family="sans-serif" font-size="11" lengthAdjust="spacing" textLength="25" x="815" y="1481.4189">Code</text><rect fill="none" height="6" style="stroke:#C82930;stroke-width:1.0;" width="6" x="803" y="1487.8359"/><text fill="#000000" font-family="sans-serif" font-size="11" lengthAdjust="spacing" textLength="24" x="815" y="1495.2549">Type</text><rect fill="none" height="6" style="stroke:#C82930;stroke-width:1.0;" width="6" x="803" y="1501.6719"/><text fill="#000000" font-family="sans-serif" font-size="11" lengthAdjust="spacing" textLength="24" x="815" y="1509.0908">Tech</text><line style="stroke:#A80036;stroke-width:1.5;" x1="796" x2="911" y1="1515.5078" y2="1515.5078"/><!--MD5=[eec114a0b3352c6b1c1f53d18fe88291]
class nurse--><rect codeLine="62" fill="#FEFECE" filter="url(#f2zrfezofij21)" height="48" id="nurse" style="stroke:#A80036;stroke-width:1.5;" width="66" x="597.5" y="356"/><ellipse cx="612.5" cy="372" fill="#ADD1B2" rx="11" ry="11" style="stroke:#A80036;stroke-width:1.0;"/><path d="M614.5,368.5 Q614.7031,368 614.9375,367.75 Q615.1719,367.5 615.4375,367.5 Q615.9063,367.5 616.2031,367.7813 Q616.5,368.0625 616.5,368.7188 L616.5,370.2813 Q616.5,370.9375 616.2188,371.2188 Q615.9375,371.5 615.5,371.5 Q615.1094,371.5 614.8594,371.3281 Q614.6094,371.1563 614.5,370.7031 Q614.4531,370.3906 614.2813,370.2188 Q613.9688,369.8906 613.4063,369.7031 Q612.8438,369.5 612.2813,369.5 Q611.5781,369.5 610.9844,369.7813 Q610.4063,370.0625 609.9531,370.6875 Q609.5,371.3125 609.5,372.1719 L609.5,373.0938 Q609.5,374.125 610.3438,374.8125 Q611.1875,375.5 612.6875,375.5 Q613.5781,375.5 614.2031,375.2969 Q614.5625,375.1875 614.9688,374.8281 Q615.2344,374.625 615.375,374.5625 Q615.5156,374.5 615.6875,374.5 Q616.0156,374.5 616.25,374.7656 Q616.5,375.0156 616.5,375.375 Q616.5,375.7188 616.1563,376.125 Q615.6563,376.7188 614.8594,377.0469 Q613.8125,377.5 612.5313,377.5 Q611.0313,377.5 609.8281,376.9063 Q608.8594,376.4375 608.1719,375.4219 Q607.5,374.4063 607.5,373.2031 L607.5,372.1094 Q607.5,370.8594 608.0938,369.7656 Q608.7031,368.6719 609.75,368.0938 Q610.8125,367.5 612,367.5 Q612.7188,367.5 613.3438,367.75 Q613.9688,368 614.5,368.5 Z " fill="#000000"/><text fill="#000000" font-family="sans-serif" font-size="12" lengthAdjust="spacing" textLength="34" x="626.5" y="376.9102">Nurse</text><line style="stroke:#A80036;stroke-width:1.5;" x1="598.5" x2="662.5" y1="388" y2="388"/><line style="stroke:#A80036;stroke-width:1.5;" x1="598.5" x2="662.5" y1="396" y2="396"/><!--MD5=[8555af526a16474f920303cb36452e2e]
class schedule--><rect codeLine="64" fill="#FEFECE" filter="url(#f2zrfezofij21)" height="89.5078" id="schedule" style="stroke:#A80036;stroke-width:1.5;" width="130" x="200.5" y="1434"/><ellipse cx="215.5" cy="1450" fill="#ADD1B2" rx="11" ry="11" style="stroke:#A80036;stroke-width:1.0;"/><path d="M217.5,1446.5 Q217.7031,1446 217.9375,1445.75 Q218.1719,1445.5 218.4375,1445.5 Q218.9063,1445.5 219.2031,1445.7813 Q219.5,1446.0625 219.5,1446.7188 L219.5,1448.2813 Q219.5,1448.9375 219.2188,1449.2188 Q218.9375,1449.5 218.5,1449.5 Q218.1094,1449.5 217.8594,1449.3281 Q217.6094,1449.1563 217.5,1448.7031 Q217.4531,1448.3906 217.2813,1448.2188 Q216.9688,1447.8906 216.4063,1447.7031 Q215.8438,1447.5 215.2813,1447.5 Q214.5781,1447.5 213.9844,1447.7813 Q213.4063,1448.0625 212.9531,1448.6875 Q212.5,1449.3125 212.5,1450.1719 L212.5,1451.0938 Q212.5,1452.125 213.3438,1452.8125 Q214.1875,1453.5 215.6875,1453.5 Q216.5781,1453.5 217.2031,1453.2969 Q217.5625,1453.1875 217.9688,1452.8281 Q218.2344,1452.625 218.375,1452.5625 Q218.5156,1452.5 218.6875,1452.5 Q219.0156,1452.5 219.25,1452.7656 Q219.5,1453.0156 219.5,1453.375 Q219.5,1453.7188 219.1563,1454.125 Q218.6563,1454.7188 217.8594,1455.0469 Q216.8125,1455.5 215.5313,1455.5 Q214.0313,1455.5 212.8281,1454.9063 Q211.8594,1454.4375 211.1719,1453.4219 Q210.5,1452.4063 210.5,1451.2031 L210.5,1450.1094 Q210.5,1448.8594 211.0938,1447.7656 Q211.7031,1446.6719 212.75,1446.0938 Q213.8125,1445.5 215,1445.5 Q215.7188,1445.5 216.3438,1445.75 Q216.9688,1446 217.5,1446.5 Z " fill="#000000"/><text fill="#000000" font-family="sans-serif" font-size="12" lengthAdjust="spacing" textLength="98" x="229.5" y="1454.9102">Vaccine Schedule</text><line style="stroke:#A80036;stroke-width:1.5;" x1="201.5" x2="329.5" y1="1466" y2="1466"/><rect fill="none" height="6" style="stroke:#C82930;stroke-width:1.0;" width="6" x="208.5" y="1474"/><text fill="#000000" font-family="sans-serif" font-size="11" lengthAdjust="spacing" textLength="75" x="220.5" y="1481.4189">Vaccine Center</text><rect fill="none" height="6" style="stroke:#C82930;stroke-width:1.0;" width="6" x="208.5" y="1487.8359"/><text fill="#000000" font-family="sans-serif" font-size="11" lengthAdjust="spacing" textLength="22" x="220.5" y="1495.2549">Date</text><rect fill="none" height="6" style="stroke:#C82930;stroke-width:1.0;" width="6" x="208.5" y="1501.6719"/><text fill="#000000" font-family="sans-serif" font-size="11" lengthAdjust="spacing" textLength="22" x="220.5" y="1509.0908">Time</text><line style="stroke:#A80036;stroke-width:1.5;" x1="201.5" x2="329.5" y1="1515.5078" y2="1515.5078"/><!--MD5=[014d7d7231c8e414c8b5d3dafd7c65a4]
class adminVac--><rect codeLine="69" fill="#FEFECE" filter="url(#f2zrfezofij21)" height="103.3438" id="adminVac" style="stroke:#A80036;stroke-width:1.5;" width="157" x="7" y="804.5"/><ellipse cx="22" cy="820.5" fill="#ADD1B2" rx="11" ry="11" style="stroke:#A80036;stroke-width:1.0;"/><path d="M24,817 Q24.2031,816.5 24.4375,816.25 Q24.6719,816 24.9375,816 Q25.4063,816 25.7031,816.2813 Q26,816.5625 26,817.2188 L26,818.7813 Q26,819.4375 25.7188,819.7188 Q25.4375,820 25,820 Q24.6094,820 24.3594,819.8281 Q24.1094,819.6563 24,819.2031 Q23.9531,818.8906 23.7813,818.7188 Q23.4688,818.3906 22.9063,818.2031 Q22.3438,818 21.7813,818 Q21.0781,818 20.4844,818.2813 Q19.9063,818.5625 19.4531,819.1875 Q19,819.8125 19,820.6719 L19,821.5938 Q19,822.625 19.8438,823.3125 Q20.6875,824 22.1875,824 Q23.0781,824 23.7031,823.7969 Q24.0625,823.6875 24.4688,823.3281 Q24.7344,823.125 24.875,823.0625 Q25.0156,823 25.1875,823 Q25.5156,823 25.75,823.2656 Q26,823.5156 26,823.875 Q26,824.2188 25.6563,824.625 Q25.1563,825.2188 24.3594,825.5469 Q23.3125,826 22.0313,826 Q20.5313,826 19.3281,825.4063 Q18.3594,824.9375 17.6719,823.9219 Q17,822.9063 17,821.7031 L17,820.6094 Q17,819.3594 17.5938,818.2656 Q18.2031,817.1719 19.25,816.5938 Q20.3125,816 21.5,816 Q22.2188,816 22.8438,816.25 Q23.4688,816.5 24,817 Z " fill="#000000"/><text fill="#000000" font-family="sans-serif" font-size="12" lengthAdjust="spacing" textLength="125" x="36" y="825.4102">Vaccine Administration</text><line style="stroke:#A80036;stroke-width:1.5;" x1="8" x2="163" y1="836.5" y2="836.5"/><rect fill="none" height="6" style="stroke:#C82930;stroke-width:1.0;" width="6" x="15" y="844.5"/><text fill="#000000" font-family="sans-serif" font-size="11" lengthAdjust="spacing" textLength="40" x="27" y="851.9189">Vaccine</text><rect fill="none" height="6" style="stroke:#C82930;stroke-width:1.0;" width="6" x="15" y="858.3359"/><text fill="#000000" font-family="sans-serif" font-size="11" lengthAdjust="spacing" textLength="37" x="27" y="865.7549">Dosage</text><rect fill="none" height="6" style="stroke:#C82930;stroke-width:1.0;" width="6" x="15" y="872.1719"/><text fill="#000000" font-family="sans-serif" font-size="11" lengthAdjust="spacing" textLength="23" x="27" y="879.5908">User</text><rect fill="none" height="6" style="stroke:#C82930;stroke-width:1.0;" width="6" x="15" y="886.0078"/><text fill="#000000" font-family="sans-serif" font-size="11" lengthAdjust="spacing" textLength="45" x="27" y="893.4268">Schedule</text><line style="stroke:#A80036;stroke-width:1.5;" x1="8" x2="163" y1="899.8438" y2="899.8438"/><!--MD5=[79af46bd41a8b6482719de76a0edec0d]
class certificado--><rect codeLine="75" fill="#FEFECE" filter="url(#f2zrfezofij21)" height="89.5078" id="certificado" style="stroke:#A80036;stroke-width:1.5;" width="185" x="464" y="811"/><ellipse cx="479" cy="827" fill="#ADD1B2" rx="11" ry="11" style="stroke:#A80036;stroke-width:1.0;"/><path d="M481,823.5 Q481.2031,823 481.4375,822.75 Q481.6719,822.5 481.9375,822.5 Q482.4063,822.5 482.7031,822.7813 Q483,823.0625 483,823.7188 L483,825.2813 Q483,825.9375 482.7188,826.2188 Q482.4375,826.5 482,826.5 Q481.6094,826.5 481.3594,826.3281 Q481.1094,826.1563 481,825.7031 Q480.9531,825.3906 480.7813,825.2188 Q480.4688,824.8906 479.9063,824.7031 Q479.3438,824.5 478.7813,824.5 Q478.0781,824.5 477.4844,824.7813 Q476.9063,825.0625 476.4531,825.6875 Q476,826.3125 476,827.1719 L476,828.0938 Q476,829.125 476.8438,829.8125 Q477.6875,830.5 479.1875,830.5 Q480.0781,830.5 480.7031,830.2969 Q481.0625,830.1875 481.4688,829.8281 Q481.7344,829.625 481.875,829.5625 Q482.0156,829.5 482.1875,829.5 Q482.5156,829.5 482.75,829.7656 Q483,830.0156 483,830.375 Q483,830.7188 482.6563,831.125 Q482.1563,831.7188 481.3594,832.0469 Q480.3125,832.5 479.0313,832.5 Q477.5313,832.5 476.3281,831.9063 Q475.3594,831.4375 474.6719,830.4219 Q474,829.4063 474,828.2031 L474,827.1094 Q474,825.8594 474.5938,824.7656 Q475.2031,823.6719 476.25,823.0938 Q477.3125,822.5 478.5,822.5 Q479.2188,822.5 479.8438,822.75 Q480.4688,823 481,823.5 Z " fill="#000000"/><text fill="#000000" font-family="sans-serif" font-size="12" lengthAdjust="spacing" textLength="153" x="493" y="831.9102">EU COVID Digital Certificate</text><line style="stroke:#A80036;stroke-width:1.5;" x1="465" x2="648" y1="843" y2="843"/><rect fill="none" height="6" style="stroke:#C82930;stroke-width:1.0;" width="6" x="472" y="851"/><text fill="#000000" font-family="sans-serif" font-size="11" lengthAdjust="spacing" textLength="53" x="484" y="858.4189">User Name</text><rect fill="none" height="6" style="stroke:#C82930;stroke-width:1.0;" width="6" x="472" y="864.8359"/><text fill="#000000" font-family="sans-serif" font-size="11" lengthAdjust="spacing" textLength="83" x="484" y="872.2549">Number of doses</text><rect fill="none" height="6" style="stroke:#C82930;stroke-width:1.0;" width="6" x="472" y="878.6719"/><text fill="#000000" font-family="sans-serif" font-size="11" lengthAdjust="spacing" textLength="145" x="484" y="886.0908">Date of vaccine administration</text><line style="stroke:#A80036;stroke-width:1.5;" x1="465" x2="648" y1="892.5078" y2="892.5078"/><!--MD5=[ba302802c59f508472097f2cc66f96e4]
class reaction--><rect codeLine="80" fill="#FEFECE" filter="url(#f2zrfezofij21)" height="75.6719" id="reaction" style="stroke:#A80036;stroke-width:1.5;" width="135" x="222" y="818"/><ellipse cx="237" cy="834" fill="#ADD1B2" rx="11" ry="11" style="stroke:#A80036;stroke-width:1.0;"/><path d="M239,830.5 Q239.2031,830 239.4375,829.75 Q239.6719,829.5 239.9375,829.5 Q240.4063,829.5 240.7031,829.7813 Q241,830.0625 241,830.7188 L241,832.2813 Q241,832.9375 240.7188,833.2188 Q240.4375,833.5 240,833.5 Q239.6094,833.5 239.3594,833.3281 Q239.1094,833.1563 239,832.7031 Q238.9531,832.3906 238.7813,832.2188 Q238.4688,831.8906 237.9063,831.7031 Q237.3438,831.5 236.7813,831.5 Q236.0781,831.5 235.4844,831.7813 Q234.9063,832.0625 234.4531,832.6875 Q234,833.3125 234,834.1719 L234,835.0938 Q234,836.125 234.8438,836.8125 Q235.6875,837.5 237.1875,837.5 Q238.0781,837.5 238.7031,837.2969 Q239.0625,837.1875 239.4688,836.8281 Q239.7344,836.625 239.875,836.5625 Q240.0156,836.5 240.1875,836.5 Q240.5156,836.5 240.75,836.7656 Q241,837.0156 241,837.375 Q241,837.7188 240.6563,838.125 Q240.1563,838.7188 239.3594,839.0469 Q238.3125,839.5 237.0313,839.5 Q235.5313,839.5 234.3281,838.9063 Q233.3594,838.4375 232.6719,837.4219 Q232,836.4063 232,835.2031 L232,834.1094 Q232,832.8594 232.5938,831.7656 Q233.2031,830.6719 234.25,830.0938 Q235.3125,829.5 236.5,829.5 Q237.2188,829.5 237.8438,829.75 Q238.4688,830 239,830.5 Z " fill="#000000"/><text fill="#000000" font-family="sans-serif" font-size="12" lengthAdjust="spacing" textLength="103" x="251" y="838.9102">Adverse Reactions</text><line style="stroke:#A80036;stroke-width:1.5;" x1="223" x2="356" y1="850" y2="850"/><rect fill="none" height="6" style="stroke:#C82930;stroke-width:1.0;" width="6" x="230" y="858"/><text fill="#000000" font-family="sans-serif" font-size="11" lengthAdjust="spacing" textLength="44" x="242" y="865.4189">Symptom</text><rect fill="none" height="6" style="stroke:#C82930;stroke-width:1.0;" width="6" x="230" y="871.8359"/><text fill="#000000" font-family="sans-serif" font-size="11" lengthAdjust="spacing" textLength="54" x="242" y="879.2549">Description</text><line style="stroke:#A80036;stroke-width:1.5;" x1="223" x2="356" y1="885.6719" y2="885.6719"/><!--MD5=[b0e8db6370a575f7e8f053e52f4ebacb]
class Do--><rect codeLine="85" fill="#FEFECE" filter="url(#f2zrfezofij21)" height="89.5078" id="Do" style="stroke:#A80036;stroke-width:1.5;" width="90" x="209.5" y="1027"/><ellipse cx="237.1" cy="1043" fill="#ADD1B2" rx="11" ry="11" style="stroke:#A80036;stroke-width:1.0;"/><path d="M239.1,1039.5 Q239.3031,1039 239.5375,1038.75 Q239.7719,1038.5 240.0375,1038.5 Q240.5063,1038.5 240.8031,1038.7813 Q241.1,1039.0625 241.1,1039.7188 L241.1,1041.2813 Q241.1,1041.9375 240.8188,1042.2188 Q240.5375,1042.5 240.1,1042.5 Q239.7094,1042.5 239.4594,1042.3281 Q239.2094,1042.1563 239.1,1041.7031 Q239.0531,1041.3906 238.8813,1041.2188 Q238.5688,1040.8906 238.0063,1040.7031 Q237.4438,1040.5 236.8813,1040.5 Q236.1781,1040.5 235.5844,1040.7813 Q235.0063,1041.0625 234.5531,1041.6875 Q234.1,1042.3125 234.1,1043.1719 L234.1,1044.0938 Q234.1,1045.125 234.9438,1045.8125 Q235.7875,1046.5 237.2875,1046.5 Q238.1781,1046.5 238.8031,1046.2969 Q239.1625,1046.1875 239.5688,1045.8281 Q239.8344,1045.625 239.975,1045.5625 Q240.1156,1045.5 240.2875,1045.5 Q240.6156,1045.5 240.85,1045.7656 Q241.1,1046.0156 241.1,1046.375 Q241.1,1046.7188 240.7563,1047.125 Q240.2563,1047.7188 239.4594,1048.0469 Q238.4125,1048.5 237.1313,1048.5 Q235.6313,1048.5 234.4281,1047.9063 Q233.4594,1047.4375 232.7719,1046.4219 Q232.1,1045.4063 232.1,1044.2031 L232.1,1043.1094 Q232.1,1041.8594 232.6938,1040.7656 Q233.3031,1039.6719 234.35,1039.0938 Q235.4125,1038.5 236.6,1038.5 Q237.3188,1038.5 237.9438,1038.75 Q238.5688,1039 239.1,1039.5 Z " fill="#000000"/><text fill="#000000" font-family="sans-serif" font-size="12" lengthAdjust="spacing" textLength="30" x="253.9" y="1047.9102">Dose</text><line style="stroke:#A80036;stroke-width:1.5;" x1="210.5" x2="298.5" y1="1059" y2="1059"/><rect fill="none" height="6" style="stroke:#C82930;stroke-width:1.0;" width="6" x="217.5" y="1067"/><text fill="#000000" font-family="sans-serif" font-size="11" lengthAdjust="spacing" textLength="37" x="229.5" y="1074.4189">Dosage</text><rect fill="none" height="6" style="stroke:#C82930;stroke-width:1.0;" width="6" x="217.5" y="1080.8359"/><text fill="#000000" font-family="sans-serif" font-size="11" lengthAdjust="spacing" textLength="64" x="229.5" y="1088.2549">Dose number</text><rect fill="none" height="6" style="stroke:#C82930;stroke-width:1.0;" width="6" x="217.5" y="1094.6719"/><text fill="#000000" font-family="sans-serif" font-size="11" lengthAdjust="spacing" textLength="55" x="229.5" y="1102.0908">Lot Number</text><line style="stroke:#A80036;stroke-width:1.5;" x1="210.5" x2="298.5" y1="1108.5078" y2="1108.5078"/><!--MD5=[67ec8942d334dc8f273457c580e214a1]
link comp to E--><path codeLine="93" d="M968.19,69.05 C942.93,94.09 906.37,130.33 876.45,159.99 " fill="none" id="comp-to-E" style="stroke:#A80036;stroke-width:1.0;"/><polygon fill="#A80036" points="872.84,163.58,882.0466,160.0817,876.3898,160.0588,876.4127,154.402,872.84,163.58" style="stroke:#A80036;stroke-width:1.0;"/><text fill="#000000" font-family="sans-serif" font-size="13" lengthAdjust="spacing" textLength="63" x="937.5" y="113.4951">employees</text><!--MD5=[36161f9177daf53f973741a360e445b8]
link comp to Vaccine--><path codeLine="94" d="M1041.26,58.5 C1092.49,85.14 1171.5,138.12 1171.5,211.5 C1171.5,211.5 1171.5,211.5 1171.5,1480 C1171.5,1527.58 1137.61,1568.89 1103.54,1598.4 " fill="none" id="comp-to-Vaccine" style="stroke:#A80036;stroke-width:1.0;"/><polygon fill="#A80036" points="1099.39,1601.94,1108.8326,1599.1404,1103.1933,1598.6943,1103.6394,1593.0551,1099.39,1601.94" style="stroke:#A80036;stroke-width:1.0;"/><text fill="#000000" font-family="sans-serif" font-size="13" lengthAdjust="spacing" textLength="45" x="1172.5" y="861.4951">handles</text><!--MD5=[541ecb04441c83a3b8dc9cd4eddecaa6]
reverse link E to Administrator--><path codeLine="95" d="M840.89,298.33 C841.19,307.67 840.82,317.04 839.5,326 C838.03,335.98 835.07,346.69 832.09,355.85 " fill="none" id="E-backto-Administrator" style="stroke:#A80036;stroke-width:1.0;"/><polygon fill="none" points="833.89,298.57,839.32,278.09,847.85,297.49,833.89,298.57" style="stroke:#A80036;stroke-width:1.0;"/><!--MD5=[d0bbee97de1dc2b1f420b0f6be1a2c75]
link Administrator to E--><path codeLine="103" d="M798.45,355.95 C790.86,347.37 783.48,337.02 779.5,326 C774.43,311.96 775.63,297.05 780.01,282.84 " fill="none" id="Administrator-to-E" style="stroke:#A80036;stroke-width:1.0;"/><polygon fill="#A80036" points="781.62,278.06,774.9726,285.3272,780.0346,282.802,782.5598,287.8639,781.62,278.06" style="stroke:#A80036;stroke-width:1.0;"/><text fill="#000000" font-family="sans-serif" font-size="13" lengthAdjust="spacing" textLength="50" x="780.5" y="322.4951">registers</text><text fill="#000000" font-family="sans-serif" font-size="13" lengthAdjust="spacing" textLength="7" x="784.1341" y="345.2773">1</text><text fill="#000000" font-family="sans-serif" font-size="13" lengthAdjust="spacing" textLength="5" x="771.6566" y="299.6191">*</text><!--MD5=[aaa395a4b63d3bead2039c96f2b4b307]
reverse link E to nurse--><path codeLine="96" d="M760.55,268.06 C725.65,297.83 684.28,333.12 657.73,355.77 " fill="none" id="E-backto-nurse" style="stroke:#A80036;stroke-width:1.0;"/><polygon fill="none" points="756.29,262.49,776.05,254.84,765.37,273.14,756.29,262.49" style="stroke:#A80036;stroke-width:1.0;"/><!--MD5=[bfbbb0c10932fa3f95801cebb9150226]
reverse link E to Receptionist--><path codeLine="97" d="M756.3,226.13 C638.76,249.87 410.5,305.43 410.5,379 C410.5,379 410.5,379 410.5,857 C410.5,934.85 471.13,1011.05 505.47,1047.96 " fill="none" id="E-backto-Receptionist" style="stroke:#A80036;stroke-width:1.0;"/><polygon fill="none" points="755.22,219.21,776.2,222.21,757.93,232.95,755.22,219.21" style="stroke:#A80036;stroke-width:1.0;"/><!--MD5=[4e5c84ac8e87aba1147dc2b9d4e6a05b]
reverse link E to coordinator--><path codeLine="98" d="M885.98,281.85 C931.78,332.78 991.56,399.25 1022.65,433.82 " fill="none" id="E-backto-coordinator" style="stroke:#A80036;stroke-width:1.0;"/><polygon fill="none" points="880.73,286.49,872.56,266.94,891.14,277.13,880.73,286.49" style="stroke:#A80036;stroke-width:1.0;"/><!--MD5=[3f76d12640a7c536f300a2e3ce0239ab]
link Receptionist to user--><path codeLine="101" d="M510.88,1096.22 C489.35,1124.59 451.97,1173.84 421.05,1214.58 " fill="none" id="Receptionist-to-user" style="stroke:#A80036;stroke-width:1.0;"/><polygon fill="#A80036" points="417.7,1218.99,426.3382,1214.259,420.7319,1215.0142,419.9768,1209.4079,417.7,1218.99" style="stroke:#A80036;stroke-width:1.0;"/><text fill="#000000" font-family="sans-serif" font-size="13" lengthAdjust="spacing" textLength="50" x="468.5" y="1169.4951">registers</text><text fill="#000000" font-family="sans-serif" font-size="13" lengthAdjust="spacing" textLength="7" x="498.732" y="1117.6116">1</text><text fill="#000000" font-family="sans-serif" font-size="13" lengthAdjust="spacing" textLength="5" x="425.4634" y="1205.4203">*</text><!--MD5=[530eefccf1894be5b70739213480e72b]
link Administrator to HCC--><path codeLine="102" d="M770.8,395.68 C751.28,403.8 730.9,416.01 718.5,434 C704,455.04 697.56,481.36 695.32,506.69 " fill="none" id="Administrator-to-HCC" style="stroke:#A80036;stroke-width:1.0;"/><polygon fill="#A80036" points="694.93,511.75,699.6369,503.0987,695.3299,506.766,691.6626,502.4589,694.93,511.75" style="stroke:#A80036;stroke-width:1.0;"/><text fill="#000000" font-family="sans-serif" font-size="13" lengthAdjust="spacing" textLength="75" x="720.5" y="455.4951">manages the</text><text fill="#000000" font-family="sans-serif" font-size="13" lengthAdjust="spacing" textLength="77" x="719.5" y="471.8467">information of</text><text fill="#000000" font-family="sans-serif" font-size="13" lengthAdjust="spacing" textLength="7" x="755.8969" y="394.2798">1</text><text fill="#000000" font-family="sans-serif" font-size="13" lengthAdjust="spacing" textLength="5" x="689.1505" y="501.1381">*</text><!--MD5=[de7d3f11247f5656b2c690de8f25bed2]
reverse link HCC to VC--><path codeLine="105" d="M784.77,687.06 C814.78,718.61 848.26,753.81 876.78,783.79 " fill="none" id="HCC-backto-VC" style="stroke:#A80036;stroke-width:1.0;"/><polygon fill="none" points="779.52,691.69,770.81,672.37,789.66,682.04,779.52,691.69" style="stroke:#A80036;stroke-width:1.0;"/><!--MD5=[0794bab2d11f27d3eda9c85397522f2c]
link nurse to HCC--><path codeLine="106" d="M625.77,404.38 C622.5,425.2 619.96,456.24 627.5,482 C629.98,490.48 633.31,498.94 637.17,507.19 " fill="none" id="nurse-to-HCC" style="stroke:#A80036;stroke-width:1.0;"/><polygon fill="#A80036" points="639.37,511.75,639.0612,501.906,637.1971,507.2469,631.8562,505.3827,639.37,511.75" style="stroke:#A80036;stroke-width:1.0;"/><text fill="#000000" font-family="sans-serif" font-size="13" lengthAdjust="spacing" textLength="49" x="628.5" y="463.4951">works at</text><text fill="#000000" font-family="sans-serif" font-size="13" lengthAdjust="spacing" textLength="5" x="619.0981" y="425.4036">*</text><text fill="#000000" font-family="sans-serif" font-size="13" lengthAdjust="spacing" textLength="5" x="628.8159" y="501.1381">*</text><!--MD5=[15fbe3d218f25f102ce413fcbf96b6b3]
link HCC to Receptionist--><path codeLine="107" d="M709.8,685.2 C713.16,759.11 708.68,866.64 666.5,949 C645.43,990.13 604.18,1023.7 572.24,1045.14 " fill="none" id="HCC-to-Receptionist" style="stroke:#A80036;stroke-width:1.0;"/><polygon fill="#A80036" points="567.99,1047.95,577.6999,1046.3013,572.1546,1045.1831,573.2728,1039.6378,567.99,1047.95" style="stroke:#A80036;stroke-width:1.0;"/><text fill="#000000" font-family="sans-serif" font-size="13" lengthAdjust="spacing" textLength="49" x="710.5" y="861.4951">works at</text><text fill="#000000" font-family="sans-serif" font-size="13" lengthAdjust="spacing" textLength="5" x="705.2441" y="705.9773">*</text><text fill="#000000" font-family="sans-serif" font-size="13" lengthAdjust="spacing" textLength="5" x="572.4687" y="1037.2773">*</text><!--MD5=[93beab1b5be7ad26b94e7b6aac210527]
link user to type--><path codeLine="108" d="M417.68,1303.76 C505.5,1338.87 691.61,1413.28 789.79,1452.53 " fill="none" id="user-to-type" style="stroke:#A80036;stroke-width:1.0;"/><polygon fill="#A80036" points="794.69,1454.49,787.8268,1447.4263,790.0496,1452.6281,784.8478,1454.8509,794.69,1454.49" style="stroke:#A80036;stroke-width:1.0;"/><text fill="#000000" font-family="sans-serif" font-size="13" lengthAdjust="spacing" textLength="50" x="655.5" y="1400.4951">requests</text><text fill="#000000" font-family="sans-serif" font-size="13" lengthAdjust="spacing" textLength="5" x="425.4404" y="1303.1707">*</text><text fill="#000000" font-family="sans-serif" font-size="13" lengthAdjust="spacing" textLength="5" x="781.8347" y="1447.8738">*</text><!--MD5=[88ac5edfc9034d8b9ad8c556b3e7ef82]
reverse link user to schedule--><path codeLine="109" d="M328.59,1360.61 C315.27,1385.4 300.93,1412.08 289.29,1433.74 " fill="none" id="user-backto-schedule" style="stroke:#A80036;stroke-width:1.0;"/><polygon fill="#A80036" points="331.07,1356,323.2789,1362.0248,328.6978,1360.4014,330.3212,1365.8204,331.07,1356" style="stroke:#A80036;stroke-width:1.0;"/><text fill="#000000" font-family="sans-serif" font-size="13" lengthAdjust="spacing" textLength="35" x="314.5" y="1400.4951">can fit</text><text fill="#000000" font-family="sans-serif" font-size="13" lengthAdjust="spacing" textLength="29" x="296.8597" y="1377.4439">0..10</text><text fill="#000000" font-family="sans-serif" font-size="13" lengthAdjust="spacing" textLength="5" x="287.55" y="1423.1443">*</text><!--MD5=[25a001bf89538651e3e0e951452f7aa9]
link nurse to adminVac--><path codeLine="111" d="M603.84,404.18 C520.97,476.26 266.28,697.77 147.59,801 " fill="none" id="nurse-to-adminVac" style="stroke:#A80036;stroke-width:1.0;"/><polygon fill="#A80036" points="143.77,804.32,153.1835,801.424,147.54,801.0356,147.9284,795.3921,143.77,804.32" style="stroke:#A80036;stroke-width:1.0;"/><text fill="#000000" font-family="sans-serif" font-size="13" lengthAdjust="spacing" textLength="50" x="473.5" y="603.9951">performs</text><text fill="#000000" font-family="sans-serif" font-size="13" lengthAdjust="spacing" textLength="7" x="589.4885" y="425.5618">1</text><text fill="#000000" font-family="sans-serif" font-size="13" lengthAdjust="spacing" textLength="5" x="146.2641" y="793.7961">*</text><!--MD5=[94f5d4d7947cf05f318573374850fd5c]
link adminVac to user--><path codeLine="112" d="M149.56,907.54 C167.21,921.19 186.47,935.83 204.5,949 C253.77,985.01 282.75,976.83 317.5,1027 C353.77,1079.36 365.88,1151.35 369.43,1205.57 " fill="none" id="adminVac-to-user" style="stroke:#A80036;stroke-width:1.0;"/><polygon fill="#A80036" points="369.75,1210.77,373.2038,1201.5466,369.4505,1205.779,365.2182,1202.0257,369.75,1210.77" style="stroke:#A80036;stroke-width:1.0;"/><text fill="#000000" font-family="sans-serif" font-size="13" lengthAdjust="spacing" textLength="44" x="356.5" y="1077.4951">given to</text><text fill="#000000" font-family="sans-serif" font-size="13" lengthAdjust="spacing" textLength="5" x="153.2169" y="929.4085">*</text><text fill="#000000" font-family="sans-serif" font-size="13" lengthAdjust="spacing" textLength="7" x="362.4148" y="1199.9656">1</text><!--MD5=[98b605410452d802e25dba13ae402a55]
link adminVac to schedule--><path codeLine="113" d="M100.15,907.56 C134.06,1024.54 217.59,1312.71 251.17,1428.58 " fill="none" id="adminVac-to-schedule" style="stroke:#A80036;stroke-width:1.0;"/><polygon fill="#A80036" points="252.64,1433.63,253.96,1423.87,251.24,1428.83,246.28,1426.11,252.64,1433.63" style="stroke:#A80036;stroke-width:1.0;"/><text fill="#000000" font-family="sans-serif" font-size="13" lengthAdjust="spacing" textLength="53" x="179.5" y="1161.4951">perfomed</text><text fill="#000000" font-family="sans-serif" font-size="13" lengthAdjust="spacing" textLength="10" x="201" y="1177.8467">in</text><text fill="#000000" font-family="sans-serif" font-size="13" lengthAdjust="spacing" textLength="5" x="96.8586" y="929.4313">*</text><text fill="#000000" font-family="sans-serif" font-size="13" lengthAdjust="spacing" textLength="7" x="243.1349" y="1423.0174">1</text><!--MD5=[38735c9f69355e933d914344d94764c2]
link adminVac to Do--><path codeLine="114" d="M125.94,907.68 C143.38,929.58 163.98,955.52 182.5,979 C193.75,993.26 205.95,1008.81 217.04,1023 " fill="none" id="adminVac-to-Do" style="stroke:#A80036;stroke-width:1.0;"/><polygon fill="#A80036" points="220.14,1026.96,217.7432,1017.4072,217.0585,1023.0225,211.4432,1022.3377,220.14,1026.96" style="stroke:#A80036;stroke-width:1.0;"/><text fill="#000000" font-family="sans-serif" font-size="13" lengthAdjust="spacing" textLength="21" x="197.5" y="993.4951">has</text><text fill="#000000" font-family="sans-serif" font-size="13" lengthAdjust="spacing" textLength="5" x="126.0382" y="929.1951">*</text><text fill="#000000" font-family="sans-serif" font-size="13" lengthAdjust="spacing" textLength="7" x="207.1061" y="1016.0691">1</text><!--MD5=[6aac5ea65153420c667d83d9040a64cf]
link Do to user--><path codeLine="115" d="M260.72,1117.25 C264.75,1137.48 271.24,1161.28 281.5,1181 C291.02,1199.31 304.48,1217.09 318.01,1232.52 " fill="none" id="Do-to-user" style="stroke:#A80036;stroke-width:1.0;"/><polygon fill="#A80036" points="321.45,1236.39,318.4581,1227.0066,318.1273,1232.6537,312.4801,1232.3229,321.45,1236.39" style="stroke:#A80036;stroke-width:1.0;"/><text fill="#000000" font-family="sans-serif" font-size="13" lengthAdjust="spacing" textLength="60" x="282.5" y="1161.4951">prescribed</text><text fill="#000000" font-family="sans-serif" font-size="13" lengthAdjust="spacing" textLength="11" x="307" y="1177.8467">to</text><text fill="#000000" font-family="sans-serif" font-size="13" lengthAdjust="spacing" textLength="7" x="254.0855" y="1137.9573">1</text><text fill="#000000" font-family="sans-serif" font-size="13" lengthAdjust="spacing" textLength="5" x="308.3936" y="1225.1418">*</text><!--MD5=[e8ecb9b34c313b2f8f46722c9cda8e46]
link VC to type--><path codeLine="117" d="M930.97,949.3 C911.43,1082.7 875.95,1324.77 860.74,1428.57 " fill="none" id="VC-to-type" style="stroke:#A80036;stroke-width:1.0;"/><polygon fill="#A80036" points="859.99,1433.71,865.2327,1425.3725,860.7031,1428.7611,857.3145,1424.2315,859.99,1433.71" style="stroke:#A80036;stroke-width:1.0;"/><text fill="#000000" font-family="sans-serif" font-size="13" lengthAdjust="spacing" textLength="41" x="901.5" y="1169.4951">applies</text><text fill="#000000" font-family="sans-serif" font-size="13" lengthAdjust="spacing" textLength="5" x="924.6926" y="970.8671">*</text><text fill="#000000" font-family="sans-serif" font-size="13" lengthAdjust="spacing" textLength="7" x="853.4478" y="1423.1097">1</text><!--MD5=[bc5ee0dbc5ad12c203e1e01bfe33375e]
link adminVac to reaction--><path codeLine="118" d="M164.08,856 C181.37,856 199.61,856 216.67,856 " fill="none" id="adminVac-to-reaction" style="stroke:#A80036;stroke-width:1.0;"/><polygon fill="#A80036" points="221.92,856,212.92,852,216.92,856,212.92,860,221.92,856" style="stroke:#A80036;stroke-width:1.0;"/><text fill="#000000" font-family="sans-serif" font-size="13" lengthAdjust="spacing" textLength="21" x="182.5" y="849.4951">has</text><text fill="#000000" font-family="sans-serif" font-size="13" lengthAdjust="spacing" textLength="7" x="171.9033" y="852.733">1</text><text fill="#000000" font-family="sans-serif" font-size="13" lengthAdjust="spacing" textLength="20" x="193.9196" y="870.3552">0..*</text><!--MD5=[90f458094618eb2f5a537968c9e95b1b]
link coordinator to VC--><path codeLine="120" d="M1037.75,482 C1024.61,534.55 991.77,665.92 968.8,757.8 " fill="none" id="coordinator-to-VC" style="stroke:#A80036;stroke-width:1.0;"/><polygon fill="#A80036" points="967.58,762.69,973.6434,754.9289,968.7927,757.8393,965.8823,752.9886,967.58,762.69" style="stroke:#A80036;stroke-width:1.0;"/><text fill="#000000" font-family="sans-serif" font-size="13" lengthAdjust="spacing" textLength="53" x="1041.5" y="595.9951">manages</text><text fill="#000000" font-family="sans-serif" font-size="13" lengthAdjust="spacing" textLength="77" x="1029.5" y="612.3467">information of</text><text fill="#000000" font-family="sans-serif" font-size="13" lengthAdjust="spacing" textLength="7" x="1028.4953" y="503.338">1</text><text fill="#000000" font-family="sans-serif" font-size="13" lengthAdjust="spacing" textLength="5" x="964.22" y="752.1117">*</text><!--MD5=[b053cf848bcc24c66d1f7749cdcf224e]
link HCC to certificado--><path codeLine="122" d="M652.81,685.29 C629.98,725.52 603.6,772.01 584.23,806.14 " fill="none" id="HCC-to-certificado" style="stroke:#A80036;stroke-width:1.0;"/><polygon fill="#A80036" points="581.66,810.66,589.5879,804.8163,584.133,806.3144,582.6349,800.8595,581.66,810.66" style="stroke:#A80036;stroke-width:1.0;"/><text fill="#000000" font-family="sans-serif" font-size="13" lengthAdjust="spacing" textLength="39" x="633.5" y="729.4951">emites</text><text fill="#000000" font-family="sans-serif" font-size="13" lengthAdjust="spacing" textLength="5" x="643.8908" y="706.0742">*</text><text fill="#000000" font-family="sans-serif" font-size="13" lengthAdjust="spacing" textLength="5" x="580.1298" y="800.052">*</text><!--MD5=[ed9e961c0a5b2d9fab09fe4f81a3d5ef]
link adminVac to Vaccine--><path codeLine="124" d="M83.65,907.58 C82.23,950.94 80.5,1015.07 80.5,1071 C80.5,1071 80.5,1071 80.5,1480 C80.5,1569.13 735.24,1624.51 959.9,1640.89 " fill="none" id="adminVac-to-Vaccine" style="stroke:#A80036;stroke-width:1.0;"/><polygon fill="#A80036" points="965.12,1641.27,956.4288,1636.6372,960.1328,1640.9127,955.8572,1644.6167,965.12,1641.27" style="stroke:#A80036;stroke-width:1.0;"/><text fill="#000000" font-family="sans-serif" font-size="13" lengthAdjust="spacing" textLength="21" x="81.5" y="1288.9951">of a</text><text fill="#000000" font-family="sans-serif" font-size="13" lengthAdjust="spacing" textLength="5" x="78.0383" y="929.4541">*</text><text fill="#000000" font-family="sans-serif" font-size="13" lengthAdjust="spacing" textLength="5" x="952.7074" y="1637.3927">*</text><!--MD5=[4af71bbddae9c9a8156abb0847fcd159]
link certificado to Receptionist--><path codeLine="126" d="M550.73,901.08 C545.18,943.53 536.94,1006.47 532.21,1042.64 " fill="none" id="certificado-to-Receptionist" style="stroke:#A80036;stroke-width:1.0;"/><polygon fill="#A80036" points="531.54,1047.78,536.688,1039.3837,532.1971,1042.8234,528.7574,1038.3324,531.54,1047.78" style="stroke:#A80036;stroke-width:1.0;"/><text fill="#000000" font-family="sans-serif" font-size="13" lengthAdjust="spacing" textLength="56" x="540.5" y="993.4951">issued by</text><text fill="#000000" font-family="sans-serif" font-size="13" lengthAdjust="spacing" textLength="5" x="544.567" y="922.0988">*</text><text fill="#000000" font-family="sans-serif" font-size="13" lengthAdjust="spacing" textLength="7" x="524.4221" y="1037.0638">1</text><!--MD5=[491161fdd9161b4820f875c2acd21e6b]
reverse link type to Vaccine--><path codeLine="128" d="M905.25,1527.46 C930.73,1550.83 961.26,1578.83 986.25,1601.75 " fill="none" id="type-backto-Vaccine" style="stroke:#A80036;stroke-width:1.0;"/><polygon fill="#A80036" points="901.53,1524.05,905.452,1533.0843,905.2122,1527.4325,910.864,1527.1927,901.53,1524.05" style="stroke:#A80036;stroke-width:1.0;"/><text fill="#000000" font-family="sans-serif" font-size="13" lengthAdjust="spacing" textLength="21" x="949.5" y="1568.4951">has</text><text fill="#000000" font-family="sans-serif" font-size="13" lengthAdjust="spacing" textLength="7" x="900.792" y="1545.0646">1</text><text fill="#000000" font-family="sans-serif" font-size="13" lengthAdjust="spacing" textLength="5" x="973.4789" y="1591.1558">*</text><!--MD5=[0e439f75a3d966f965fe5f237a1bacbe]
link Administrator to Vaccine--><path codeLine="129" d="M835.09,404.3 C865.78,465.86 948.88,631.78 979.5,685 C1000.03,720.69 1014.81,724.53 1029.5,763 C1065.46,857.2 1065.5,886.17 1065.5,987 C1065.5,987 1065.5,987 1065.5,1480 C1065.5,1519.66 1056.85,1563.75 1048.68,1596.52 " fill="none" id="Administrator-to-Vaccine" style="stroke:#A80036;stroke-width:1.0;"/><polygon fill="#A80036" points="1047.38,1601.68,1053.4703,1593.9399,1048.6095,1596.8335,1045.7159,1591.9727,1047.38,1601.68" style="stroke:#A80036;stroke-width:1.0;"/><text fill="#000000" font-family="sans-serif" font-size="13" lengthAdjust="spacing" textLength="51" x="1066.5" y="1077.4951">specifies</text><text fill="#000000" font-family="sans-serif" font-size="13" lengthAdjust="spacing" textLength="7" x="829.9608" y="425.3051">1</text><text fill="#000000" font-family="sans-serif" font-size="13" lengthAdjust="spacing" textLength="5" x="1043.9694" y="1591.0751">*</text><!--MD5=[f36690f561ddb67a5421c1b6ea1166f4]
link Administrator to type--><path codeLine="130" d="M823.5,404.07 C823.5,443.65 823.5,527.02 823.5,597.5 C823.5,597.5 823.5,597.5 823.5,1284.5 C823.5,1333.95 833.19,1389.68 841.55,1428.59 " fill="none" id="Administrator-to-type" style="stroke:#A80036;stroke-width:1.0;"/><polygon fill="#A80036" points="842.67,1433.73,844.6762,1424.0876,841.6126,1428.8431,836.8571,1425.7795,842.67,1433.73" style="stroke:#A80036;stroke-width:1.0;"/><text fill="#000000" font-family="sans-serif" font-size="13" lengthAdjust="spacing" textLength="51" x="824.5" y="993.4951">specifies</text><text fill="#000000" font-family="sans-serif" font-size="13" lengthAdjust="spacing" textLength="7" x="815.6469" y="425.425">1</text><text fill="#000000" font-family="sans-serif" font-size="13" lengthAdjust="spacing" textLength="5" x="835.6288" y="1423.1327">*</text><!--MD5=[bd963f475b4d58996fd541a301db94f0]
@startuml
class "Company" as comp{
-designation
}

class "Employee" as E{
-Name
-Employee id
-Address
-Phone Number
-Email
-CC
}

class Administrator{
}
class Receptionist{
}
class "Center Coordinator" as coordinator{
}
class "SNS User" as user{
-Name
-Phone Number
-Email
-CC Number
-SNS Number
-Address
-BirthDate
}
class "Vaccination Center" as VC{
-Name
-Address
-Phone Number
-E-mail
-Fax Number
-Link
-Opening Hours
-Closing Hours
-Slot Duration
-Max Vaccines per slot
}
class "Health Care Center" as HCC{
-Name
-Address
-Phone Number
-E-mail
-Fax Number
-Link
-Opening Hours
-Closing Hours
-Max Vaccines per slot
}
class Vaccine {
-Manufacturer company
-Vaccine Properties
-Administration Process
}
class "Type of Vaccine" as type{
-Code
-Type
-Tech
}
class "Nurse" as nurse{
}
class "Vaccine Schedule" as schedule{
-Vaccine Center
-Date
-Time
}
class "Vaccine Administration" as adminVac{
-Vaccine
-Dosage
-User
-Schedule
}
class "EU COVID Digital Certificate" as certificado{
-User Name
-Number of doses
-Date of vaccine administration
}
class "Adverse Reactions" as reaction {
-Symptom
-Description
}

class "Dose" as Do{
-Dosage
-Dose number
-Lot Number
}



comp-down->E: employees
comp-down->Vaccine: handles
Administrator-up-|>E
nurse-up-|>E
Receptionist-up-|>E
coordinator-up-|>E


Receptionist"1"- ->"*"user:registers
Administrator"1"- ->"*"HCC:  manages the\ninformation of
Administrator"1"- ->"*"E:registers

VC-up-|>HCC
nurse"*"- ->"*"HCC:works at
HCC"*"- ->"*"Receptionist: works at
user "*"- ->"*"type:requests
user"0..10"<- -"*"schedule:can fit

nurse"1"- ->"*"adminVac: performs
adminVac"*"- ->"1"user: given to
adminVac"*"- ->"1"schedule: perfomed\nin
adminVac"*"- ->"1"Do:has
Do"1"- ->"*"user: prescribed\nto

VC"*"- ->"1"type:applies
adminVac"1"-right->"0..*"reaction: has

coordinator"1"- ->"*"VC:manages\ninformation of

HCC"*"- ->"*"certificado:emites

adminVac"*"-down->"*"Vaccine:of a

certificado"*"- ->"1"Receptionist:issued by

Vaccine"*"-up->"1"type: has
Administrator"1"- ->"*"Vaccine:specifies
Administrator"1"- ->"*"type:specifies

@enduml

PlantUML version 1.2022.1(Tue Feb 01 18:19:58 GMT 2022)
(GPL source distribution)
Java Runtime: OpenJDK Runtime Environment
JVM: OpenJDK 64-Bit Server VM
Default Encoding: Cp1252
Language: en
Country: US
--></g></svg>