<?xml version="1.0" encoding="UTF-8" standalone="no"?><svg xmlns="http://www.w3.org/2000/svg" xmlns:xlink="http://www.w3.org/1999/xlink" contentScriptType="application/ecmascript" contentStyleType="text/css" height="487px" preserveAspectRatio="none" style="width:242px;height:487px;background:#FFFFFF;" version="1.1" viewBox="0 0 242 487" width="242px" zoomAndPan="magnify"><defs><filter height="300%" id="f1qj858sfylm9" width="300%" x="-1" y="-1"><feGaussianBlur result="blurOut" stdDeviation="2.0"/><feColorMatrix in="blurOut" result="blurOut2" type="matrix" values="0 0 0 0 0 0 0 0 0 0 0 0 0 0 0 0 0 0 .4 0"/><feOffset dx="4.0" dy="4.0" in="blurOut2" result="blurOut3"/><feBlend in="SourceGraphic" in2="blurOut3" mode="normal"/></filter></defs><g><!--MD5=[03960189e81aa2c066c762ffabbee709]
class Receptionist--><rect codeLine="3" fill="#FEFECE" filter="url(#f1qj858sfylm9)" height="48" id="Receptionist" style="stroke:#A80036;stroke-width:1.5;" width="101" x="7" y="14"/><ellipse cx="22" cy="30" fill="#ADD1B2" rx="11" ry="11" style="stroke:#A80036;stroke-width:1.0;"/><path d="M24,26.5 Q24.2031,26 24.4375,25.75 Q24.6719,25.5 24.9375,25.5 Q25.4063,25.5 25.7031,25.7813 Q26,26.0625 26,26.7188 L26,28.2813 Q26,28.9375 25.7188,29.2188 Q25.4375,29.5 25,29.5 Q24.6094,29.5 24.3594,29.3281 Q24.1094,29.1563 24,28.7031 Q23.9531,28.3906 23.7813,28.2188 Q23.4688,27.8906 22.9063,27.7031 Q22.3438,27.5 21.7813,27.5 Q21.0781,27.5 20.4844,27.7813 Q19.9063,28.0625 19.4531,28.6875 Q19,29.3125 19,30.1719 L19,31.0938 Q19,32.125 19.8438,32.8125 Q20.6875,33.5 22.1875,33.5 Q23.0781,33.5 23.7031,33.2969 Q24.0625,33.1875 24.4688,32.8281 Q24.7344,32.625 24.875,32.5625 Q25.0156,32.5 25.1875,32.5 Q25.5156,32.5 25.75,32.7656 Q26,33.0156 26,33.375 Q26,33.7188 25.6563,34.125 Q25.1563,34.7188 24.3594,35.0469 Q23.3125,35.5 22.0313,35.5 Q20.5313,35.5 19.3281,34.9063 Q18.3594,34.4375 17.6719,33.4219 Q17,32.4063 17,31.2031 L17,30.1094 Q17,28.8594 17.5938,27.7656 Q18.2031,26.6719 19.25,26.0938 Q20.3125,25.5 21.5,25.5 Q22.2188,25.5 22.8438,25.75 Q23.4688,26 24,26.5 Z " fill="#000000"/><text fill="#000000" font-family="sans-serif" font-size="12" lengthAdjust="spacing" textLength="69" x="36" y="34.9102">Receptionist</text><line style="stroke:#A80036;stroke-width:1.5;" x1="8" x2="107" y1="46" y2="46"/><line style="stroke:#A80036;stroke-width:1.5;" x1="8" x2="107" y1="54" y2="54"/><!--MD5=[72be06cc7ae02ccc98efe28a50e62246]
class SNSUser--><rect codeLine="5" fill="#FEFECE" filter="url(#f1qj858sfylm9)" height="158.6875" id="SNSUser" style="stroke:#A80036;stroke-width:1.5;" width="95" x="74" y="147"/><ellipse cx="93.95" cy="163" fill="#ADD1B2" rx="11" ry="11" style="stroke:#A80036;stroke-width:1.0;"/><path d="M95.95,159.5 Q96.1531,159 96.3875,158.75 Q96.6219,158.5 96.8875,158.5 Q97.3563,158.5 97.6531,158.7813 Q97.95,159.0625 97.95,159.7188 L97.95,161.2813 Q97.95,161.9375 97.6688,162.2188 Q97.3875,162.5 96.95,162.5 Q96.5594,162.5 96.3094,162.3281 Q96.0594,162.1563 95.95,161.7031 Q95.9031,161.3906 95.7313,161.2188 Q95.4188,160.8906 94.8563,160.7031 Q94.2938,160.5 93.7313,160.5 Q93.0281,160.5 92.4344,160.7813 Q91.8563,161.0625 91.4031,161.6875 Q90.95,162.3125 90.95,163.1719 L90.95,164.0938 Q90.95,165.125 91.7938,165.8125 Q92.6375,166.5 94.1375,166.5 Q95.0281,166.5 95.6531,166.2969 Q96.0125,166.1875 96.4188,165.8281 Q96.6844,165.625 96.825,165.5625 Q96.9656,165.5 97.1375,165.5 Q97.4656,165.5 97.7,165.7656 Q97.95,166.0156 97.95,166.375 Q97.95,166.7188 97.6063,167.125 Q97.1063,167.7188 96.3094,168.0469 Q95.2625,168.5 93.9813,168.5 Q92.4813,168.5 91.2781,167.9063 Q90.3094,167.4375 89.6219,166.4219 Q88.95,165.4063 88.95,164.2031 L88.95,163.1094 Q88.95,161.8594 89.5438,160.7656 Q90.1531,159.6719 91.2,159.0938 Q92.2625,158.5 93.45,158.5 Q94.1688,158.5 94.7938,158.75 Q95.4188,159 95.95,159.5 Z " fill="#000000"/><text fill="#000000" font-family="sans-serif" font-size="12" lengthAdjust="spacing" textLength="52" x="109.05" y="167.9102">SNSUser</text><line style="stroke:#A80036;stroke-width:1.5;" x1="75" x2="168" y1="179" y2="179"/><rect fill="none" height="6" style="stroke:#C82930;stroke-width:1.0;" width="6" x="82" y="187"/><text fill="#000000" font-family="sans-serif" font-size="11" lengthAdjust="spacing" textLength="27" x="94" y="194.4189">Name</text><rect fill="none" height="6" style="stroke:#C82930;stroke-width:1.0;" width="6" x="82" y="200.8359"/><text fill="#000000" font-family="sans-serif" font-size="11" lengthAdjust="spacing" textLength="69" x="94" y="208.2549">Phone number</text><rect fill="none" height="6" style="stroke:#C82930;stroke-width:1.0;" width="6" x="82" y="214.6719"/><text fill="#000000" font-family="sans-serif" font-size="11" lengthAdjust="spacing" textLength="28" x="94" y="222.0908">E-mail</text><rect fill="none" height="6" style="stroke:#C82930;stroke-width:1.0;" width="6" x="82" y="228.5078"/><text fill="#000000" font-family="sans-serif" font-size="11" lengthAdjust="spacing" textLength="42" x="94" y="235.9268">Address</text><rect fill="none" height="6" style="stroke:#C82930;stroke-width:1.0;" width="6" x="82" y="242.3438"/><text fill="#000000" font-family="sans-serif" font-size="11" lengthAdjust="spacing" textLength="53" x="94" y="249.7627">CC number</text><rect fill="none" height="6" style="stroke:#C82930;stroke-width:1.0;" width="6" x="82" y="256.1797"/><text fill="#000000" font-family="sans-serif" font-size="11" lengthAdjust="spacing" textLength="60" x="94" y="263.5986">SNS number</text><rect fill="none" height="6" style="stroke:#C82930;stroke-width:1.0;" width="6" x="82" y="270.0156"/><text fill="#000000" font-family="sans-serif" font-size="11" lengthAdjust="spacing" textLength="19" x="94" y="277.4346">Sex</text><rect fill="none" height="6" style="stroke:#C82930;stroke-width:1.0;" width="6" x="82" y="283.8516"/><text fill="#000000" font-family="sans-serif" font-size="11" lengthAdjust="spacing" textLength="44" x="94" y="291.2705">BirthDate</text><line style="stroke:#A80036;stroke-width:1.5;" x1="75" x2="168" y1="297.6875" y2="297.6875"/><!--MD5=[02e4b9b7573f1156f41e60aa5b4e25a4]
class Company--><rect codeLine="15" fill="#FEFECE" filter="url(#f1qj858sfylm9)" height="61.8359" id="Company" style="stroke:#A80036;stroke-width:1.5;" width="85" x="143" y="7"/><ellipse cx="158" cy="23" fill="#ADD1B2" rx="11" ry="11" style="stroke:#A80036;stroke-width:1.0;"/><path d="M160,19.5 Q160.2031,19 160.4375,18.75 Q160.6719,18.5 160.9375,18.5 Q161.4063,18.5 161.7031,18.7813 Q162,19.0625 162,19.7188 L162,21.2813 Q162,21.9375 161.7188,22.2188 Q161.4375,22.5 161,22.5 Q160.6094,22.5 160.3594,22.3281 Q160.1094,22.1563 160,21.7031 Q159.9531,21.3906 159.7813,21.2188 Q159.4688,20.8906 158.9063,20.7031 Q158.3438,20.5 157.7813,20.5 Q157.0781,20.5 156.4844,20.7813 Q155.9063,21.0625 155.4531,21.6875 Q155,22.3125 155,23.1719 L155,24.0938 Q155,25.125 155.8438,25.8125 Q156.6875,26.5 158.1875,26.5 Q159.0781,26.5 159.7031,26.2969 Q160.0625,26.1875 160.4688,25.8281 Q160.7344,25.625 160.875,25.5625 Q161.0156,25.5 161.1875,25.5 Q161.5156,25.5 161.75,25.7656 Q162,26.0156 162,26.375 Q162,26.7188 161.6563,27.125 Q161.1563,27.7188 160.3594,28.0469 Q159.3125,28.5 158.0313,28.5 Q156.5313,28.5 155.3281,27.9063 Q154.3594,27.4375 153.6719,26.4219 Q153,25.4063 153,24.2031 L153,23.1094 Q153,21.8594 153.5938,20.7656 Q154.2031,19.6719 155.25,19.0938 Q156.3125,18.5 157.5,18.5 Q158.2188,18.5 158.8438,18.75 Q159.4688,19 160,19.5 Z " fill="#000000"/><text fill="#000000" font-family="sans-serif" font-size="12" lengthAdjust="spacing" textLength="53" x="172" y="27.9102">Company</text><line style="stroke:#A80036;stroke-width:1.5;" x1="144" x2="227" y1="39" y2="39"/><rect fill="none" height="6" style="stroke:#C82930;stroke-width:1.0;" width="6" x="151" y="47"/><text fill="#000000" font-family="sans-serif" font-size="11" lengthAdjust="spacing" textLength="56" x="163" y="54.4189">Designation</text><line style="stroke:#A80036;stroke-width:1.5;" x1="144" x2="227" y1="60.8359" y2="60.8359"/><!--MD5=[3fd616f346a44cd59a91eb10b19e157c]
class User--><rect codeLine="19" fill="#FEFECE" filter="url(#f1qj858sfylm9)" height="89.5078" id="User" style="stroke:#A80036;stroke-width:1.5;" width="76" x="83.5" y="384"/><ellipse cx="106.15" cy="400" fill="#ADD1B2" rx="11" ry="11" style="stroke:#A80036;stroke-width:1.0;"/><path d="M108.15,396.5 Q108.3531,396 108.5875,395.75 Q108.8219,395.5 109.0875,395.5 Q109.5563,395.5 109.8531,395.7813 Q110.15,396.0625 110.15,396.7188 L110.15,398.2813 Q110.15,398.9375 109.8688,399.2188 Q109.5875,399.5 109.15,399.5 Q108.7594,399.5 108.5094,399.3281 Q108.2594,399.1563 108.15,398.7031 Q108.1031,398.3906 107.9313,398.2188 Q107.6188,397.8906 107.0563,397.7031 Q106.4938,397.5 105.9313,397.5 Q105.2281,397.5 104.6344,397.7813 Q104.0563,398.0625 103.6031,398.6875 Q103.15,399.3125 103.15,400.1719 L103.15,401.0938 Q103.15,402.125 103.9938,402.8125 Q104.8375,403.5 106.3375,403.5 Q107.2281,403.5 107.8531,403.2969 Q108.2125,403.1875 108.6188,402.8281 Q108.8844,402.625 109.025,402.5625 Q109.1656,402.5 109.3375,402.5 Q109.6656,402.5 109.9,402.7656 Q110.15,403.0156 110.15,403.375 Q110.15,403.7188 109.8063,404.125 Q109.3063,404.7188 108.5094,405.0469 Q107.4625,405.5 106.1813,405.5 Q104.6813,405.5 103.4781,404.9063 Q102.5094,404.4375 101.8219,403.4219 Q101.15,402.4063 101.15,401.2031 L101.15,400.1094 Q101.15,398.8594 101.7438,397.7656 Q102.3531,396.6719 103.4,396.0938 Q104.4625,395.5 105.65,395.5 Q106.3688,395.5 106.9938,395.75 Q107.6188,396 108.15,396.5 Z " fill="#000000"/><text fill="#000000" font-family="sans-serif" font-size="12" lengthAdjust="spacing" textLength="27" x="121.85" y="404.9102">User</text><line style="stroke:#A80036;stroke-width:1.5;" x1="84.5" x2="158.5" y1="416" y2="416"/><rect fill="none" height="6" style="stroke:#C82930;stroke-width:1.0;" width="6" x="91.5" y="424"/><text fill="#000000" font-family="sans-serif" font-size="11" lengthAdjust="spacing" textLength="27" x="103.5" y="431.4189">Name</text><rect fill="none" height="6" style="stroke:#C82930;stroke-width:1.0;" width="6" x="91.5" y="437.8359"/><text fill="#000000" font-family="sans-serif" font-size="11" lengthAdjust="spacing" textLength="24" x="103.5" y="445.2549">Email</text><rect fill="none" height="6" style="stroke:#C82930;stroke-width:1.0;" width="6" x="91.5" y="451.6719"/><text fill="#000000" font-family="sans-serif" font-size="11" lengthAdjust="spacing" textLength="50" x="103.5" y="459.0908">Password</text><line style="stroke:#A80036;stroke-width:1.5;" x1="84.5" x2="158.5" y1="465.5078" y2="465.5078"/><!--MD5=[7690a4971bd8576b261a40a0340b8203]
link Receptionist to SNSUser--><path codeLine="25" d="M65.48,62.24 C72.38,82.37 82.8,112.74 92.79,141.85 " fill="none" id="Receptionist-to-SNSUser" style="stroke:#A80036;stroke-width:1.0;"/><polygon fill="#A80036" points="94.52,146.89,95.3712,137.078,92.8918,142.1625,87.8073,139.6831,94.52,146.89" style="stroke:#A80036;stroke-width:1.0;"/><text fill="#000000" font-family="sans-serif" font-size="13" lengthAdjust="spacing" textLength="43" x="85.5" y="113.4951">register</text><text fill="#000000" font-family="sans-serif" font-size="13" lengthAdjust="spacing" textLength="7" x="59.572" y="83.6365">1</text><text fill="#000000" font-family="sans-serif" font-size="13" lengthAdjust="spacing" textLength="5" x="86.7102" y="136.0664">*</text><!--MD5=[1a8aa2b864b87f860d28abceaa28b7a5]
link Company to SNSUser--><path codeLine="26" d="M175.07,69.38 C168.27,89.2 159.04,116.12 150.15,142.02 " fill="none" id="Company-to-SNSUser" style="stroke:#A80036;stroke-width:1.0;"/><polygon fill="#A80036" points="148.49,146.84,155.2027,139.6331,150.1182,142.1125,147.6388,137.028,148.49,146.84" style="stroke:#A80036;stroke-width:1.0;"/><text fill="#000000" font-family="sans-serif" font-size="13" lengthAdjust="spacing" textLength="37" x="165.5" y="113.4951">knows</text><text fill="#000000" font-family="sans-serif" font-size="13" lengthAdjust="spacing" textLength="7" x="165.4146" y="90.4311">1</text><text fill="#000000" font-family="sans-serif" font-size="13" lengthAdjust="spacing" textLength="5" x="145.8242" y="136.0117">*</text><!--MD5=[f51b69263ffc056cc84c9ec54d5aea1b]
link SNSUser to User--><path codeLine="27" d="M121.5,306.17 C121.5,330.65 121.5,356.92 121.5,378.79 " fill="none" id="SNSUser-to-User" style="stroke:#A80036;stroke-width:1.0;"/><polygon fill="#A80036" points="121.5,383.96,125.5,374.96,121.5,378.96,117.5,374.96,121.5,383.96" style="stroke:#A80036;stroke-width:1.0;"/><text fill="#000000" font-family="sans-serif" font-size="13" lengthAdjust="spacing" textLength="53" x="122.5" y="350.4951">becomes</text><text fill="#000000" font-family="sans-serif" font-size="13" lengthAdjust="spacing" textLength="22" x="98.5547" y="327.2278">0..1</text><text fill="#000000" font-family="sans-serif" font-size="13" lengthAdjust="spacing" textLength="7" x="113.9422" y="373.0691">1</text><!--MD5=[3c2e37058068e8111ef578d8691fad1d]
@startuml
'https://plantuml.com/class-diagram

class Receptionist{
}
class SNSUser{
-Name
-Phone number
-E-mail
-Address
-CC number
-SNS number
-Sex
-BirthDate
}
class Company {
-Designation
}

class User {
-Name
-Email
-Password
}

Receptionist"1" - -> "*"SNSUser:register
Company"1" - -> "*"SNSUser:knows
SNSUser"0..1" - -> "1"User:becomes

@enduml

@startuml

class Receptionist{
}
class SNSUser{
-Name
-Phone number
-E-mail
-Address
-CC number
-SNS number
-Sex
-BirthDate
}
class Company {
-Designation
}

class User {
-Name
-Email
-Password
}

Receptionist"1" - -> "*"SNSUser:register
Company"1" - -> "*"SNSUser:knows
SNSUser"0..1" - -> "1"User:becomes

@enduml

PlantUML version 1.2022.1(Tue Feb 01 18:19:58 GMT 2022)
(GPL source distribution)
Java Runtime: OpenJDK Runtime Environment
JVM: OpenJDK 64-Bit Server VM
Default Encoding: Cp1252
Language: pt
Country: PT
--></g></svg>